<svg width="70" height="81" viewBox="0 0 70 81" fill="none" xmlns="http://www.w3.org/2000/svg">
<mask id="path-1-outside-1_1365_151" maskUnits="userSpaceOnUse" x="-0.594971" y="-0.875977" width="71" height="82" fill="black">
<rect fill="white" x="-0.594971" y="-0.875977" width="71" height="82"/>
<path d="M35.0171 77.336C28.8224 77.336 23.3011 75.7537 18.4531 72.589C13.6724 69.357 9.90174 64.9467 7.14108 59.358C4.38041 53.702 3.00008 47.2717 3.00008 40.067C3.00008 32.8624 4.34674 26.4657 7.04008 20.877C9.80074 15.2884 13.5714 10.9117 18.3521 7.74702C23.1327 4.58235 28.6204 3.00002 34.8151 3.00002C41.0771 3.00002 46.5984 4.58235 51.3791 7.74702C56.2271 10.9117 59.9977 15.2884 62.6911 20.877C65.4517 26.4657 66.8321 32.896 66.8321 40.168C66.8321 47.44 65.4517 53.8704 62.6911 59.459C59.9977 65.0477 56.2607 69.4244 51.4801 72.589C46.6994 75.7537 41.2117 77.336 35.0171 77.336ZM34.9161 60.166C37.4074 60.166 39.5284 59.3917 41.2791 57.843C43.0297 56.2944 44.3427 54.0387 45.2181 51.076C46.1607 48.046 46.6321 44.41 46.6321 40.168C46.6321 35.926 46.1607 32.3237 45.2181 29.361C44.3427 26.3984 43.0297 24.1427 41.2791 22.594C39.5284 20.978 37.3737 20.17 34.8151 20.17C32.3911 20.17 30.3037 20.9444 28.5531 22.493C26.8024 24.0417 25.4557 26.2974 24.5131 29.26C23.6377 32.2227 23.2001 35.825 23.2001 40.067C23.2001 44.309 23.6377 47.945 24.5131 50.975C25.4557 53.9377 26.8024 56.227 28.5531 57.843C30.3037 59.3917 32.4247 60.166 34.9161 60.166Z"/>
</mask>
<path d="M35.0171 77.336C28.8224 77.336 23.3011 75.7537 18.4531 72.589C13.6724 69.357 9.90174 64.9467 7.14108 59.358C4.38041 53.702 3.00008 47.2717 3.00008 40.067C3.00008 32.8624 4.34674 26.4657 7.04008 20.877C9.80074 15.2884 13.5714 10.9117 18.3521 7.74702C23.1327 4.58235 28.6204 3.00002 34.8151 3.00002C41.0771 3.00002 46.5984 4.58235 51.3791 7.74702C56.2271 10.9117 59.9977 15.2884 62.6911 20.877C65.4517 26.4657 66.8321 32.896 66.8321 40.168C66.8321 47.44 65.4517 53.8704 62.6911 59.459C59.9977 65.0477 56.2607 69.4244 51.4801 72.589C46.6994 75.7537 41.2117 77.336 35.0171 77.336ZM34.9161 60.166C37.4074 60.166 39.5284 59.3917 41.2791 57.843C43.0297 56.2944 44.3427 54.0387 45.2181 51.076C46.1607 48.046 46.6321 44.41 46.6321 40.168C46.6321 35.926 46.1607 32.3237 45.2181 29.361C44.3427 26.3984 43.0297 24.1427 41.2791 22.594C39.5284 20.978 37.3737 20.17 34.8151 20.17C32.3911 20.17 30.3037 20.9444 28.5531 22.493C26.8024 24.0417 25.4557 26.2974 24.5131 29.26C23.6377 32.2227 23.2001 35.825 23.2001 40.067C23.2001 44.309 23.6377 47.945 24.5131 50.975C25.4557 53.9377 26.8024 56.227 28.5531 57.843C30.3037 59.3917 32.4247 60.166 34.9161 60.166Z" fill="#E75D5C"/>
<path d="M18.4531 72.589L16.7729 75.0743L16.7929 75.0879L16.8132 75.1012L18.4531 72.589ZM7.14108 59.358L4.44508 60.6739L4.4482 60.6803L4.45134 60.6867L7.14108 59.358ZM7.04008 20.877L4.35034 19.5484L4.34388 19.5614L4.33754 19.5746L7.04008 20.877ZM18.3521 7.74702L20.008 10.2486V10.2486L18.3521 7.74702ZM51.3791 7.74702L49.7231 10.2486L49.7312 10.2539L49.7392 10.2592L51.3791 7.74702ZM62.6911 20.877L59.9885 22.1794L59.9949 22.1926L60.0013 22.2057L62.6911 20.877ZM62.6911 59.459L60.0013 58.1304L59.9949 58.1434L59.9885 58.1566L62.6911 59.459ZM51.4801 72.589L53.136 75.0906V75.0906L51.4801 72.589ZM45.2181 51.076L42.3535 50.1848L42.3471 50.2054L42.341 50.226L45.2181 51.076ZM45.2181 29.361L42.341 30.2111L42.3499 30.2409L42.3593 30.2706L45.2181 29.361ZM41.2791 22.594L39.2442 24.7984L39.2676 24.82L39.2914 24.841L41.2791 22.594ZM28.5531 22.493L26.5654 20.246V20.246L28.5531 22.493ZM24.5131 29.26L21.6543 28.3504L21.6449 28.3801L21.636 28.41L24.5131 29.26ZM24.5131 50.975L21.6309 51.8076L21.6421 51.8463L21.6543 51.8846L24.5131 50.975ZM28.5531 57.843L26.5182 60.0474L26.5416 60.069L26.5654 60.09L28.5531 57.843ZM35.0171 77.336V74.336C29.3621 74.336 24.4187 72.9007 20.0929 70.0769L18.4531 72.589L16.8132 75.1012C22.1834 78.6067 28.2827 80.336 35.0171 80.336V77.336ZM18.4531 72.589L20.1333 70.1037C15.8181 67.1863 12.38 63.19 9.83081 58.0294L7.14108 59.358L4.45134 60.6867C7.42344 66.7034 11.5268 71.5277 16.7729 75.0743L18.4531 72.589ZM7.14108 59.358L9.83707 58.0421C7.30356 52.8515 6.00008 46.8818 6.00008 40.067H3.00008H7.63535e-05C7.63535e-05 47.6616 1.45726 54.5525 4.44508 60.6739L7.14108 59.358ZM3.00008 40.067H6.00008C6.00008 33.2408 7.2743 27.3012 9.74261 22.1794L7.04008 20.877L4.33754 19.5746C1.41919 25.6302 7.63535e-05 32.4839 7.63535e-05 40.067H3.00008ZM7.04008 20.877L9.72981 22.2057C12.2767 17.0497 15.7077 13.0953 20.008 10.2486L18.3521 7.74702L16.6961 5.24546C11.4351 8.7281 7.32475 13.527 4.35034 19.5484L7.04008 20.877ZM18.3521 7.74702L20.008 10.2486C24.2578 7.43533 29.1598 6.00002 34.8151 6.00002V3.00002V2.28882e-05C28.081 2.28882e-05 22.0077 1.72938 16.6961 5.24546L18.3521 7.74702ZM34.8151 3.00002V6.00002C40.5448 6.00002 45.4787 7.43892 49.7231 10.2486L51.3791 7.74702L53.035 5.24546C47.7181 1.72578 41.6094 2.28882e-05 34.8151 2.28882e-05V3.00002ZM51.3791 7.74702L49.7392 10.2592C54.0965 13.1035 57.5149 17.0467 59.9885 22.1794L62.6911 20.877L65.3936 19.5746C62.4806 13.53 58.3577 8.71988 53.0189 5.23488L51.3791 7.74702ZM62.6911 20.877L60.0013 22.2057C62.5265 27.3176 63.8321 33.2803 63.8321 40.168H66.8321H69.8321C69.8321 32.5118 68.377 25.6138 65.3808 19.5484L62.6911 20.877ZM66.8321 40.168H63.8321C63.8321 47.0558 62.5265 53.0185 60.0013 58.1304L62.6911 59.459L65.3808 60.7877C68.377 54.7223 69.8321 47.8243 69.8321 40.168H66.8321ZM62.6911 59.459L59.9885 58.1566C57.5098 63.2999 54.1175 67.2453 49.8241 70.0875L51.4801 72.589L53.136 75.0906C58.4039 71.6034 62.4857 66.7954 65.3936 60.7615L62.6911 59.459ZM51.4801 72.589L49.8241 70.0875C45.5743 72.9007 40.6724 74.336 35.0171 74.336V77.336V80.336C41.7511 80.336 47.8245 78.6067 53.136 75.0906L51.4801 72.589ZM34.9161 60.166V63.166C38.0872 63.166 40.9296 62.1575 43.2668 60.09L41.2791 57.843L39.2914 55.596C38.1272 56.6258 36.7276 57.166 34.9161 57.166V60.166ZM41.2791 57.843L43.2668 60.09C45.5544 58.0663 47.1104 55.2589 48.0951 51.9261L45.2181 51.076L42.341 50.226C41.5751 52.8185 40.505 54.5224 39.2914 55.596L41.2791 57.843ZM45.2181 51.076L48.0826 51.9672C49.1395 48.5702 49.6321 44.6172 49.6321 40.168H46.6321H43.6321C43.6321 44.2028 43.182 47.5219 42.3535 50.1848L45.2181 51.076ZM46.6321 40.168H49.6321C49.6321 35.7217 49.1402 31.7934 48.0769 28.4514L45.2181 29.361L42.3593 30.2706C43.1813 32.854 43.6321 36.1304 43.6321 40.168H46.6321ZM45.2181 29.361L48.0951 28.511C47.1104 25.1781 45.5544 22.3707 43.2668 20.347L41.2791 22.594L39.2914 24.841C40.505 25.9147 41.5751 27.6186 42.341 30.2111L45.2181 29.361ZM41.2791 22.594L43.3139 20.3896C40.9659 18.2222 38.067 17.17 34.8151 17.17V20.17V23.17C36.6805 23.17 38.0909 23.7339 39.2442 24.7984L41.2791 22.594ZM34.8151 20.17V17.17C31.6886 17.17 28.8864 18.1928 26.5654 20.246L28.5531 22.493L30.5408 24.74C31.7211 23.6959 33.0936 23.17 34.8151 23.17V20.17ZM28.5531 22.493L26.5654 20.246C24.2961 22.2535 22.7086 25.0369 21.6543 28.3504L24.5131 29.26L27.3719 30.1696C28.2029 27.5578 29.3087 25.8299 30.5408 24.74L28.5531 22.493ZM24.5131 29.26L21.636 28.41C20.6552 31.7298 20.2001 35.6364 20.2001 40.067H23.2001H26.2001C26.2001 36.0137 26.6203 32.7155 27.3901 30.1101L24.5131 29.26ZM23.2001 40.067H20.2001C20.2001 44.5004 20.6558 48.4321 21.6309 51.8076L24.5131 50.975L27.3952 50.1424C26.6197 47.4579 26.2001 44.1176 26.2001 40.067H23.2001ZM24.5131 50.975L21.6543 51.8846C22.7079 55.196 24.286 57.9869 26.5182 60.0474L28.5531 57.843L30.5879 55.6386C29.3188 54.4672 28.2036 52.6794 27.3719 50.0654L24.5131 50.975ZM28.5531 57.843L26.5654 60.09C28.9026 62.1576 31.745 63.166 34.9161 63.166V60.166V57.166C33.1045 57.166 31.7049 56.6258 30.5408 55.596L28.5531 57.843Z" fill="#B94A49" mask="url(#path-1-outside-1_1365_151)"/>
</svg>
