<svg width="40" height="78" viewBox="0 0 40 78" fill="none" xmlns="http://www.w3.org/2000/svg">
<mask id="path-1-outside-1_1365_154" maskUnits="userSpaceOnUse" x="-0.543945" y="-0.0878906" width="40" height="78" fill="black">
<rect fill="white" x="-0.543945" y="-0.0878906" width="40" height="78"/>
<path d="M16.433 74.9121V3.00011H36.431V74.9121H16.433ZM3.00001 19.5641V3.00011H35.421V19.5641H3.00001Z"/>
</mask>
<path d="M16.433 74.9121V3.00011H36.431V74.9121H16.433ZM3.00001 19.5641V3.00011H35.421V19.5641H3.00001Z" fill="#E75D5C"/>
<path d="M16.433 74.9121H13.433V77.9121H16.433V74.9121ZM16.433 3.00011V0.000106812H13.433V3.00011H16.433ZM36.431 3.00011H39.431V0.000106812H36.431V3.00011ZM36.431 74.9121V77.9121H39.431V74.9121H36.431ZM3.00001 19.5641H1.18017e-05V22.5641H3.00001V19.5641ZM3.00001 3.00011V0.000106812H1.18017e-05V3.00011H3.00001ZM35.421 3.00011H38.421V0.000106812H35.421V3.00011ZM35.421 19.5641V22.5641H38.421V19.5641H35.421ZM16.433 74.9121H19.433V3.00011H16.433H13.433V74.9121H16.433ZM16.433 3.00011V6.00011H36.431V3.00011V0.000106812H16.433V3.00011ZM36.431 3.00011H33.431V74.9121H36.431H39.431V3.00011H36.431ZM36.431 74.9121V71.9121H16.433V74.9121V77.9121H36.431V74.9121ZM3.00001 19.5641H6.00001V3.00011H3.00001H1.18017e-05V19.5641H3.00001ZM3.00001 3.00011V6.00011H35.421V3.00011V0.000106812H3.00001V3.00011ZM35.421 3.00011H32.421V19.5641H35.421H38.421V3.00011H35.421ZM35.421 19.5641V16.5641H3.00001V19.5641V22.5641H35.421V19.5641Z" fill="#B94A49" mask="url(#path-1-outside-1_1365_154)"/>
</svg>
