<svg width="63" height="80" viewBox="0 0 63 80" fill="none" xmlns="http://www.w3.org/2000/svg">
<path d="M4.59079 65.317L33.2748 36.431C34.4195 35.2863 35.3285 34.2427 36.0018 33.3C36.7425 32.29 37.2475 31.3473 37.5168 30.472C37.8535 29.5967 38.0218 28.6877 38.0218 27.745C38.0218 25.3883 37.2475 23.5367 35.6988 22.19C34.2175 20.776 32.1975 20.069 29.6388 20.069C27.3495 20.069 25.2285 20.776 23.2758 22.19C21.3231 23.5367 19.2358 25.8597 17.0138 29.159L3.88379 17.342C6.84646 12.6287 10.6508 9.06 15.2968 6.636C20.0101 4.212 25.3631 3 31.3558 3C36.8098 3 41.4895 3.97633 45.3948 5.929C49.3675 7.81433 52.3975 10.5413 54.4848 14.11C56.6395 17.6787 57.7168 21.9207 57.7168 26.836C57.7168 29.5967 57.3465 32.189 56.6058 34.613C55.8651 37.037 54.6868 39.4273 53.0708 41.784C51.4548 44.0733 49.3675 46.43 46.8088 48.854L28.7298 66.024L4.59079 65.317ZM4.59079 76.124V65.317L21.3568 59.56H59.2318V76.124H4.59079Z" fill="#E75D5C"/>
<path fill-rule="evenodd" clip-rule="evenodd" d="M60.7168 26.8359C60.7168 29.8672 60.3094 32.7571 59.4746 35.4893C58.6342 38.2395 57.3118 40.9038 55.5449 43.4805L55.5215 43.5137C53.7666 45.9998 51.5395 48.5052 48.8721 51.0322L43.0518 56.5596H62.2314V79.124H1.59082V68.2295V64.0801L2.95508 62.7061L31.1465 34.3174L31.1533 34.3096C32.2232 33.2397 33.0126 32.3237 33.5605 31.5566L33.5713 31.541L33.583 31.5264C34.1932 30.6943 34.5074 30.0513 34.6494 29.5898L34.6797 29.4912L34.7168 29.3955C34.9206 28.8657 35.0215 28.3215 35.0215 27.7451C35.0215 26.2158 34.583 25.2675 33.875 24.5869L33.7305 24.4541L33.6777 24.4082L33.627 24.3604C32.8344 23.6038 31.6276 23.0693 29.6387 23.0693C28.0161 23.0694 26.5049 23.5558 25.0352 24.6201L25.0078 24.6396L24.9785 24.6592C23.475 25.6961 21.6367 27.6652 19.502 30.835L17.5732 33.6982L0 17.8828L1.34375 15.7451C4.5711 10.6108 8.76213 6.66199 13.9092 3.97656L13.917 3.97266L13.9248 3.96777C19.1151 1.29853 24.9487 4.52283e-05 31.3555 0C37.1375 0 42.2802 1.03138 46.6807 3.21875C51.1484 5.33906 54.6419 8.45444 57.0527 12.5596C59.537 16.6741 60.7168 21.473 60.7168 26.8359ZM54.4844 14.1104C56.639 17.679 57.7168 21.9207 57.7168 26.8359C57.7168 29.5966 57.3461 32.1893 56.6055 34.6133L56.4619 35.0674C55.7163 37.3358 54.5862 39.5749 53.0713 41.7842C51.4553 44.0735 49.3673 46.4305 46.8086 48.8545L35.5371 59.5596H59.2314V76.124H4.59082V65.3174L33.2744 36.4307C34.4191 35.286 35.3286 34.2425 36.002 33.2998C36.7425 32.2899 37.2473 31.347 37.5166 30.4717C37.8112 29.7058 37.9769 28.9142 38.0137 28.0967L38.0215 27.7451C38.0215 25.3887 37.2476 23.5371 35.6992 22.1904C34.3105 20.8648 32.4479 20.16 30.1123 20.0771L29.6387 20.0693C27.3494 20.0694 25.228 20.7765 23.2754 22.1904C21.3229 23.5371 19.2355 25.8601 17.0137 29.1592L3.88379 17.3418C6.84644 12.6285 10.6509 9.05972 15.2969 6.63574C20.0101 4.21185 25.363 3.00005 31.3555 3C36.8093 3 41.4893 3.97616 45.3945 5.92871C49.3672 7.81404 52.397 10.5417 54.4844 14.1104Z" fill="#B94A49"/>
</svg>
