<svg width="63" height="80" viewBox="0 0 63 80" fill="none" xmlns="http://www.w3.org/2000/svg">
<path d="M29.6659 76.124C24.5485 76.124 19.7679 75.2823 15.3239 73.599C10.9472 71.8483 7.24387 69.3907 4.21387 66.226L16.8389 53.803C17.9835 55.419 19.7342 56.7657 22.0909 57.843C24.4475 58.853 26.8715 59.358 29.3629 59.358C31.3829 59.358 33.1672 59.0213 34.7159 58.348C36.3319 57.6747 37.5775 56.6983 38.4529 55.419C39.3955 54.1397 39.8669 52.591 39.8669 50.773C39.8669 48.955 39.3955 47.4063 38.4529 46.127C37.5102 44.8477 36.1635 43.8713 34.4129 43.198C32.6622 42.5247 30.5749 42.188 28.1509 42.188C26.8042 42.188 25.3565 42.289 23.8079 42.491C22.3265 42.6257 21.1819 42.8613 20.3739 43.198L29.1609 32.29C31.5175 31.7513 33.6049 31.3137 35.4229 30.977C37.3082 30.573 38.9579 30.371 40.3719 30.371C44.0079 30.371 47.2735 31.2127 50.1689 32.896C53.0642 34.5793 55.3535 37.0033 57.0369 40.168C58.7202 43.2653 59.5619 46.9687 59.5619 51.278C59.5619 56.1933 58.3162 60.5363 55.8249 64.307C53.4009 68.0103 49.9332 70.9057 45.4219 72.993C40.9779 75.0803 35.7259 76.124 29.6659 76.124ZM20.3739 43.198V32.391L36.2309 13.706L57.7439 13.807L41.3819 32.29L20.3739 43.198ZM9.56687 19.564V3H57.7439V13.807L42.8969 19.564H9.56687Z" fill="#E75D5C"/>
<path d="M19.2871 52.0693L17.248 49.1914L0 66.1631L2.04688 68.3008L2.68359 68.9473C5.90695 72.1309 9.76294 74.606 14.21 76.3848L14.2607 76.4043C19.0696 78.2258 24.2137 79.124 29.666 79.124C36.0657 79.124 41.7712 78.0212 46.6963 75.708C51.6414 73.4171 55.5631 70.1807 58.3281 65.9609C61.0832 61.791 62.4735 57.0349 62.5576 51.7871L62.5615 51.2783C62.5615 46.5887 61.6469 42.3783 59.6855 38.7588C57.759 35.137 55.0893 32.2868 51.6768 30.3027L51.0361 29.9443C50.209 29.5008 49.3582 29.1177 48.4863 28.79L59.5068 16.3408L60.7441 14.9434V10.8203V0H6.56641V22.5645H24.7783L17.374 31.29V48.1357L21.6055 45.9375C22.0251 45.7785 22.8039 45.5945 24.0791 45.4785L24.1377 45.4736L24.1963 45.4658C25.6357 45.2781 26.9523 45.1885 28.1504 45.1885C30.3086 45.1885 32.0131 45.4893 33.3359 45.998L33.8066 46.1953C34.8556 46.6708 35.5605 47.2581 36.0381 47.9062L36.2197 48.1758C36.6223 48.829 36.8672 49.6589 36.8672 50.7734C36.8671 52.0468 36.5475 52.9483 36.0381 53.6396L36.0068 53.6816L35.9766 53.7246C35.4698 54.4652 34.7136 55.0991 33.5615 55.5791L33.541 55.5879L33.5195 55.5967C32.4149 56.077 31.0508 56.3583 29.3633 56.3584V59.3584C31.3831 59.3583 33.1673 59.0209 34.7158 58.3477C36.3317 57.6743 37.5778 56.6982 38.4531 55.4189C39.3368 54.2195 39.8062 52.7833 39.8613 51.1104L39.8672 50.7734C39.8672 48.9555 39.3958 47.4063 38.4531 46.127C37.5105 44.8477 36.1636 43.8716 34.4131 43.1982C32.6624 42.5249 30.5744 42.1885 28.1504 42.1885C26.8038 42.1885 25.3561 42.2892 23.8076 42.4912C22.3265 42.6259 21.182 42.8616 20.374 43.1982V32.3906L31.2588 19.5645H9.56641V3H57.7441V13.8066L42.9473 30.5205C45.5671 30.8294 47.9745 31.6207 50.1689 32.8965L50.7051 33.2207C53.3482 34.8856 55.4591 37.2013 57.0371 40.168C58.7204 43.2653 59.5615 46.969 59.5615 51.2783L59.5469 52.1934C59.4009 56.7341 58.1606 60.7718 55.8252 64.3066L55.5947 64.6523C53.1833 68.1909 49.7921 70.9711 45.4219 72.9932L45.0029 73.1855C40.6489 75.1445 35.5366 76.124 29.666 76.124L28.71 76.1143C23.9521 76.0156 19.4903 75.1767 15.3242 73.5986C10.9477 71.848 7.24382 69.3911 4.21387 66.2266L16.8389 53.8027C17.9835 55.4187 19.7342 56.7655 22.0908 57.8428C24.3002 58.7896 26.5688 59.2934 28.8965 59.3525L29.3633 59.3584V56.3584C27.3053 56.3584 25.2967 55.9457 23.3164 55.1035C21.3093 54.1825 20.0431 53.1365 19.2871 52.0693Z" fill="#B94A49"/>
</svg>
