<svg width="66" height="78" viewBox="0 0 66 78" fill="none" xmlns="http://www.w3.org/2000/svg">
<path d="M3.00049 50.672L24.6145 3H46.0265L23.9075 50.672H3.00049ZM3.00049 61.479V50.672L8.45449 44.915H62.3885V61.479H3.00049ZM36.7345 74.912V32.896H56.4295V74.912H36.7345Z" fill="#E75D5C"/>
<path fill-rule="evenodd" clip-rule="evenodd" d="M59.4297 41.915H65.3887V64.4795H59.4297V77.9121H33.7344V64.4795H0V53.6719V50.0254L0.478516 48.9717L22.6807 0H50.7256L36.8545 29.8965H59.4297V41.915ZM36.7344 44.915V32.8965H56.4297V44.915H62.3887V61.4795H56.4297V74.9121H36.7344V61.4795H3V50.6719L24.6143 3H46.0264L26.5781 44.915H36.7344ZM33.7344 41.915H31.2783L33.7344 36.6201V41.915Z" fill="#B94A49"/>
</svg>
