<svg width="63" height="80" viewBox="0 0 63 80" fill="none" xmlns="http://www.w3.org/2000/svg">
<path d="M58.7314 0V22.5645H32.2842L32.1318 23.8916C32.7742 23.8551 33.4363 23.8359 34.1172 23.8359C39.9088 23.8359 45.0078 24.952 49.2695 27.3486L49.6797 27.585C53.9002 30.0721 57.1607 33.4286 59.3848 37.6377C61.5822 41.7296 62.6709 46.1936 62.6709 50.9756L62.667 51.4834C62.5853 56.717 61.237 61.4862 58.5713 65.707L58.5703 65.7061C55.8898 69.9899 52.0826 73.3102 47.2598 75.6846L47.2432 75.6934L47.2256 75.7012C42.3539 78.0245 36.6383 79.124 30.1787 79.124C25.2422 79.124 20.4022 78.3308 15.6709 76.751L14.7266 76.4248L14.7021 76.416L14.6777 76.4062C9.66807 74.5186 5.43393 71.8302 2.05469 68.3008L0 66.1553L16.9473 50.2686C19.1963 52.576 20.6151 53.6172 23.3301 55.1064C25.3083 55.9468 27.3144 56.3584 29.3701 56.3584C31.1878 56.3584 32.5759 56.0455 33.6309 55.541C34.7061 55.0268 35.4748 54.3466 36.0273 53.5068C36.5705 52.6173 36.874 51.568 36.874 50.2686C36.874 48.9995 36.5547 47.9703 35.9639 47.084L35.9189 47.0166L35.8779 46.9463C35.3824 46.1077 34.6326 45.3895 33.4971 44.8213L33.2646 44.71L33.2217 44.6904L33.1797 44.6689C31.9535 44.0559 30.288 43.6729 28.0576 43.6729C26.2206 43.6729 24.5444 43.9597 23.0068 44.5088C21.3595 45.0971 20.0252 45.8035 18.9619 46.5986L17.0498 48.1104L17.002 48.0684L13.9072 45.3555L6.62695 38.9727L10.4912 3.03809L10.9658 0H58.7314Z" fill="#B94A49"/>
<path d="M30.1784 76.124C25.2631 76.124 20.4488 75.2823 15.7354 73.599C11.0894 71.8483 7.25144 69.3907 4.22144 66.226L16.9474 53.803C18.0921 55.419 19.8091 56.7657 22.0984 57.843C24.4551 58.853 26.8791 59.358 29.3704 59.358C31.5251 59.358 33.3768 58.9877 34.9254 58.247C36.4741 57.5063 37.6861 56.4627 38.5614 55.116C39.4368 53.702 39.8744 52.086 39.8744 50.268C39.8744 48.45 39.4031 46.834 38.4604 45.42C37.5851 43.9387 36.2721 42.794 34.5214 41.986C32.7708 41.1107 30.6161 40.673 28.0574 40.673C25.9028 40.673 23.8828 41.0097 21.9974 41.683C20.1121 42.3563 18.4961 43.198 17.1494 44.208L19.3714 31.28C21.3914 30.27 23.1084 29.4283 24.5224 28.755C25.9364 28.0817 27.3841 27.6103 28.8654 27.341C30.3468 27.0043 32.0974 26.836 34.1174 26.836C39.7061 26.836 44.3858 27.947 48.1564 30.169C51.9271 32.391 54.7888 35.3537 56.7414 39.057C58.6941 42.693 59.6704 46.6657 59.6704 50.975C59.6704 55.8903 58.4584 60.267 56.0344 64.105C53.6778 67.8757 50.3111 70.8383 45.9344 72.993C41.5578 75.0803 36.3058 76.124 30.1784 76.124ZM17.1494 44.208L9.77644 37.744L13.5134 3H31.4914L27.7544 35.825L17.1494 44.208ZM15.7354 19.564L13.5134 3H55.7314V19.564H15.7354Z" fill="#E75D5C"/>
</svg>
