<svg width="62" height="80" viewBox="0 0 62 80" fill="none" xmlns="http://www.w3.org/2000/svg">
<mask id="path-1-outside-1_1376_101" maskUnits="userSpaceOnUse" x="-0.624756" y="-0.0878906" width="63" height="80" fill="black">
<rect fill="white" x="-0.624756" y="-0.0878906" width="63" height="80"/>
<path d="M30.876 76.1241C25.624 76.1241 20.877 75.0131 16.635 72.7911C12.4604 70.5691 9.12737 67.5728 6.63603 63.8021C4.21203 59.9641 3.00003 55.6548 3.00003 50.8741C3.00003 45.2181 4.9527 39.5284 8.85803 33.8051L29.765 3.00011H52.187L28.048 36.3301L20.473 34.7141C21.6177 33.0308 22.695 31.5831 23.705 30.3711C24.7824 29.1591 26.0617 28.2164 27.543 27.5431C29.0917 26.8698 31.1117 26.5331 33.603 26.5331C38.3164 26.5331 42.5584 27.6441 46.329 29.8661C50.0997 32.0208 53.096 34.9498 55.318 38.6531C57.6074 42.2891 58.752 46.3628 58.752 50.8741C58.752 55.6548 57.5064 59.9641 55.015 63.8021C52.591 67.5728 49.2917 70.5691 45.117 72.7911C40.9424 75.0131 36.1954 76.1241 30.876 76.1241ZM30.876 59.3581C32.5594 59.3581 34.0407 58.9878 35.32 58.2471C36.6667 57.4391 37.7104 56.3618 38.451 55.0151C39.1917 53.6011 39.562 52.0188 39.562 50.2681C39.562 48.5174 39.1917 46.9688 38.451 45.6221C37.7104 44.2081 36.6667 43.1308 35.32 42.3901C34.0407 41.5821 32.5594 41.1781 30.876 41.1781C29.1927 41.1781 27.6777 41.5821 26.331 42.3901C25.0517 43.1308 24.0417 44.2081 23.301 45.6221C22.5604 46.9688 22.19 48.5174 22.19 50.2681C22.19 52.0188 22.5604 53.6011 23.301 55.0151C24.0417 56.3618 25.0517 57.4391 26.331 58.2471C27.6777 58.9878 29.1927 59.3581 30.876 59.3581Z"/>
</mask>
<path d="M30.876 76.1241C25.624 76.1241 20.877 75.0131 16.635 72.7911C12.4604 70.5691 9.12737 67.5728 6.63603 63.8021C4.21203 59.9641 3.00003 55.6548 3.00003 50.8741C3.00003 45.2181 4.9527 39.5284 8.85803 33.8051L29.765 3.00011H52.187L28.048 36.3301L20.473 34.7141C21.6177 33.0308 22.695 31.5831 23.705 30.3711C24.7824 29.1591 26.0617 28.2164 27.543 27.5431C29.0917 26.8698 31.1117 26.5331 33.603 26.5331C38.3164 26.5331 42.5584 27.6441 46.329 29.8661C50.0997 32.0208 53.096 34.9498 55.318 38.6531C57.6074 42.2891 58.752 46.3628 58.752 50.8741C58.752 55.6548 57.5064 59.9641 55.015 63.8021C52.591 67.5728 49.2917 70.5691 45.117 72.7911C40.9424 75.0131 36.1954 76.1241 30.876 76.1241ZM30.876 59.3581C32.5594 59.3581 34.0407 58.9878 35.32 58.2471C36.6667 57.4391 37.7104 56.3618 38.451 55.0151C39.1917 53.6011 39.562 52.0188 39.562 50.2681C39.562 48.5174 39.1917 46.9688 38.451 45.6221C37.7104 44.2081 36.6667 43.1308 35.32 42.3901C34.0407 41.5821 32.5594 41.1781 30.876 41.1781C29.1927 41.1781 27.6777 41.5821 26.331 42.3901C25.0517 43.1308 24.0417 44.2081 23.301 45.6221C22.5604 46.9688 22.19 48.5174 22.19 50.2681C22.19 52.0188 22.5604 53.6011 23.301 55.0151C24.0417 56.3618 25.0517 57.4391 26.331 58.2471C27.6777 58.9878 29.1927 59.3581 30.876 59.3581Z" fill="#E75D5C"/>
<path d="M16.635 72.7911L15.2255 75.4393L15.2342 75.444L15.243 75.4486L16.635 72.7911ZM6.63603 63.8021L4.09957 65.4041L4.11603 65.4302L4.13303 65.4559L6.63603 63.8021ZM8.85803 33.8051L11.3361 35.496L11.3403 35.4898L8.85803 33.8051ZM29.765 3.00011V0.000106812H28.1754L27.2827 1.31541L29.765 3.00011ZM52.187 3.00011L54.6167 4.7598L58.0639 0.000106812H52.187V3.00011ZM28.048 36.3301L27.4221 39.2641L29.3322 39.6716L30.4777 38.0898L28.048 36.3301ZM20.473 34.7141L17.9923 33.0272L15.4831 36.7171L19.8471 37.6481L20.473 34.7141ZM23.705 30.3711L21.4628 28.378L21.431 28.4138L21.4004 28.4506L23.705 30.3711ZM27.543 27.5431L26.3469 24.7919L26.3242 24.8018L26.3016 24.812L27.543 27.5431ZM46.329 29.8661L44.806 32.4507L44.8232 32.4609L44.8406 32.4708L46.329 29.8661ZM55.318 38.6531L52.7456 40.1966L52.7622 40.2243L52.7793 40.2515L55.318 38.6531ZM55.015 63.8021L52.4987 62.1687L52.4915 62.1798L55.015 63.8021ZM45.117 72.7911L43.7075 70.1429V70.1429L45.117 72.7911ZM35.32 58.2471L36.8231 60.8434L36.8434 60.8316L36.8635 60.8196L35.32 58.2471ZM38.451 55.0151L41.0797 56.4609L41.0944 56.4341L41.1085 56.4071L38.451 55.0151ZM38.451 45.6221L35.7935 47.0141L35.8077 47.0411L35.8224 47.0679L38.451 45.6221ZM35.32 42.3901L33.7181 44.9266L33.7948 44.975L33.8743 45.0188L35.32 42.3901ZM26.331 42.3901L27.8341 44.9864L27.8544 44.9746L27.8745 44.9626L26.331 42.3901ZM23.301 45.6221L25.9297 47.0679L25.9444 47.0411L25.9585 47.0141L23.301 45.6221ZM23.301 55.0151L20.6435 56.4071L20.6577 56.4341L20.6724 56.4609L23.301 55.0151ZM26.331 58.2471L24.7291 60.7836L24.8058 60.832L24.8853 60.8758L26.331 58.2471ZM30.876 76.1241V73.1241C26.0611 73.1241 21.7991 72.1094 18.0271 70.1336L16.635 72.7911L15.243 75.4486C19.955 77.9168 25.187 79.1241 30.876 79.1241V76.1241ZM16.635 72.7911L18.0446 70.1429C14.2904 68.1447 11.3416 65.4819 9.13904 62.1483L6.63603 63.8021L4.13303 65.4559C6.91318 69.6637 10.6303 72.9935 15.2255 75.4393L16.635 72.7911ZM6.63603 63.8021L9.1725 62.2001C7.06775 58.8676 6.00003 55.1193 6.00003 50.8741H3.00003H3.32594e-05C3.32594e-05 56.1902 1.35631 61.0606 4.09957 65.4041L6.63603 63.8021ZM3.00003 50.8741H6.00003C6.00003 45.9454 7.69346 40.8344 11.3361 35.496L8.85803 33.8051L6.37997 32.1142C2.21194 38.2225 3.32594e-05 44.4908 3.32594e-05 50.8741H3.00003ZM8.85803 33.8051L11.3403 35.4898L32.2473 4.68481L29.765 3.00011L27.2827 1.31541L6.37574 32.1204L8.85803 33.8051ZM29.765 3.00011V6.00011H52.187V3.00011V0.000106812H29.765V3.00011ZM52.187 3.00011L49.7573 1.24041L25.6183 34.5704L28.048 36.3301L30.4777 38.0898L54.6167 4.7598L52.187 3.00011ZM28.048 36.3301L28.6739 33.3961L21.0989 31.7801L20.473 34.7141L19.8471 37.6481L27.4221 39.2641L28.048 36.3301ZM20.473 34.7141L22.9538 36.401C24.0584 34.7766 25.077 33.4109 26.0097 32.2917L23.705 30.3711L21.4004 28.4506C20.313 29.7553 19.177 31.2849 17.9923 33.0272L20.473 34.7141ZM23.705 30.3711L25.9473 32.3642C26.7452 31.4665 27.6832 30.7748 28.7844 30.2742L27.543 27.5431L26.3016 24.812C24.4402 25.6581 22.8195 26.8517 21.4628 28.378L23.705 30.3711ZM27.543 27.5431L28.7392 30.2943C29.7753 29.8439 31.3446 29.5331 33.603 29.5331V26.5331V23.5331C30.8788 23.5331 28.4081 23.8957 26.3469 24.7919L27.543 27.5431ZM33.603 26.5331V29.5331C37.8233 29.5331 41.5322 30.5215 44.806 32.4507L46.329 29.8661L47.8521 27.2815C43.5845 24.7667 38.8094 23.5331 33.603 23.5331V26.5331ZM46.329 29.8661L44.8406 32.4708C48.1676 34.372 50.7896 36.9366 52.7456 40.1966L55.318 38.6531L57.8905 37.1096C55.4025 32.9629 52.0318 29.6696 47.8175 27.2614L46.329 29.8661ZM55.318 38.6531L52.7793 40.2515C54.7519 43.3844 55.752 46.8988 55.752 50.8741H58.752H61.752C61.752 45.8268 60.4629 41.1938 57.8567 37.0547L55.318 38.6531ZM58.752 50.8741H55.752C55.752 55.1024 54.6598 58.8394 52.4987 62.1687L55.015 63.8021L57.5314 65.4355C60.3529 61.0888 61.752 56.2072 61.752 50.8741H58.752ZM55.015 63.8021L52.4915 62.1798C50.3604 65.4949 47.455 68.1482 43.7075 70.1429L45.117 72.7911L46.5266 75.4393C51.1284 72.99 54.8217 69.6506 57.5386 65.4244L55.015 63.8021ZM45.117 72.7911L43.7075 70.1429C40.0185 72.1064 35.766 73.1241 30.876 73.1241V76.1241V79.1241C36.6247 79.1241 41.8662 77.9199 46.5266 75.4393L45.117 72.7911ZM30.876 59.3581V62.3581C33.0127 62.3581 35.0266 61.8835 36.8231 60.8434L35.32 58.2471L33.8169 55.6508C33.0548 56.0921 32.106 56.3581 30.876 56.3581V59.3581ZM35.32 58.2471L36.8635 60.8196C38.6548 59.7448 40.0775 58.283 41.0797 56.4609L38.451 55.0151L35.8224 53.5694C35.3432 54.4406 34.6786 55.1334 33.7765 55.6746L35.32 58.2471ZM38.451 55.0151L41.1085 56.4071C42.0954 54.5231 42.562 52.4558 42.562 50.2681H39.562H36.562C36.562 51.5817 36.288 52.6791 35.7935 53.6231L38.451 55.0151ZM39.562 50.2681H42.562C42.562 48.0831 42.0961 46.0244 41.0797 44.1764L38.451 45.6221L35.8224 47.0679C36.2873 47.9131 36.562 48.9518 36.562 50.2681H39.562ZM38.451 45.6221L41.1085 44.2301C40.1054 42.3151 38.6498 40.7977 36.7658 39.7615L35.32 42.3901L33.8743 45.0188C34.6836 45.4639 35.3153 46.1011 35.7935 47.0141L38.451 45.6221ZM35.32 42.3901L36.922 39.8536C35.1104 38.7095 33.0606 38.1781 30.876 38.1781V41.1781V44.1781C32.0582 44.1781 32.971 44.4547 33.7181 44.9266L35.32 42.3901ZM30.876 41.1781V38.1781C28.6895 38.1781 26.6341 38.7097 24.7875 39.8176L26.331 42.3901L27.8745 44.9626C28.7213 44.4545 29.6959 44.1781 30.876 44.1781V41.1781ZM26.331 42.3901L24.8279 39.7938C23.0184 40.8414 21.6255 42.3554 20.6435 44.2301L23.301 45.6221L25.9585 47.0141C26.4579 46.0609 27.085 45.4201 27.8341 44.9864L26.331 42.3901ZM23.301 45.6221L20.6724 44.1764C19.656 46.0244 19.19 48.0831 19.19 50.2681H22.19H25.19C25.19 48.9518 25.4648 47.9131 25.9297 47.0679L23.301 45.6221ZM22.19 50.2681H19.19C19.19 52.4558 19.6567 54.5231 20.6435 56.4071L23.301 55.0151L25.9585 53.6231C25.464 52.6791 25.19 51.5817 25.19 50.2681H22.19ZM23.301 55.0151L20.6724 56.4609C21.6535 58.2448 23.0138 59.7002 24.7291 60.7836L26.331 58.2471L27.933 55.7106C27.0896 55.178 26.4299 54.4788 25.9297 53.5694L23.301 55.0151ZM26.331 58.2471L24.8853 60.8758C26.7162 61.8828 28.7365 62.3581 30.876 62.3581V59.3581V56.3581C29.6489 56.3581 28.6392 56.0928 27.7768 55.6185L26.331 58.2471Z" fill="#B94A49" mask="url(#path-1-outside-1_1376_101)"/>
</svg>
