<svg width="60" height="81" viewBox="0 0 60 81" fill="none" xmlns="http://www.w3.org/2000/svg">
<mask id="path-1-outside-1_1376_105" maskUnits="userSpaceOnUse" x="-0.524414" y="-0.875977" width="61" height="82" fill="black">
<rect fill="white" x="-0.524414" y="-0.875977" width="61" height="82"/>
<path d="M29.9669 77.336C24.5129 77.336 19.7659 76.427 15.7259 74.609C11.6859 72.7237 8.55491 70.1987 6.33291 67.034C4.11091 63.802 2.99991 60.1324 2.99991 56.025C2.99991 52.4564 3.67324 49.2917 5.01991 46.531C6.36657 43.7704 8.21824 41.5147 10.5749 39.764C12.9989 38.0134 15.7259 36.8687 18.7559 36.33L18.4529 39.663C15.7596 39.1917 13.4366 38.148 11.4839 36.532C9.59857 34.8487 8.11724 32.795 7.03991 30.371C6.02991 27.947 5.52491 25.4557 5.52491 22.897C5.52491 19.059 6.53491 15.6587 8.55491 12.696C10.6422 9.66602 13.5039 7.30935 17.1399 5.62602C20.8432 3.87535 25.1189 3.00002 29.9669 3.00002C34.8149 3.00002 39.0569 3.87535 42.6929 5.62602C46.3289 7.30935 49.1569 9.66602 51.1769 12.696C53.2642 15.6587 54.3079 19.059 54.3079 22.897C54.3079 25.4557 53.8029 27.947 52.7929 30.371C51.7829 32.795 50.3016 34.8487 48.3489 36.532C46.4636 38.148 44.1742 39.1917 41.4809 39.663L41.0769 36.33C44.1742 36.8687 46.9012 38.0134 49.2579 39.764C51.6819 41.5147 53.5672 43.7704 54.9139 46.531C56.2606 49.2917 56.9339 52.4564 56.9339 56.025C56.9339 60.1324 55.8229 63.802 53.6009 67.034C51.3789 70.1987 48.2479 72.7237 44.2079 74.609C40.1679 76.427 35.4209 77.336 29.9669 77.336ZM29.9669 60.772C31.5156 60.772 32.8622 60.4354 34.0069 59.762C35.2189 59.0887 36.1616 58.1797 36.8349 57.035C37.5082 55.823 37.8449 54.4764 37.8449 52.995C37.8449 51.5137 37.5082 50.2007 36.8349 49.056C36.1616 47.9114 35.2189 47.0024 34.0069 46.329C32.8622 45.6557 31.5156 45.319 29.9669 45.319C28.4182 45.319 27.0379 45.6557 25.8259 46.329C24.6812 47.0024 23.7722 47.9114 23.0989 49.056C22.4256 50.2007 22.0889 51.5137 22.0889 52.995C22.0889 54.4764 22.4256 55.823 23.0989 57.035C23.7722 58.1797 24.6812 59.0887 25.8259 59.762C27.0379 60.4354 28.4182 60.772 29.9669 60.772ZM29.9669 31.28C31.7176 31.28 33.1316 30.7414 34.2089 29.664C35.3536 28.5194 35.9259 27.1054 35.9259 25.422C35.9259 23.6714 35.3536 22.2237 34.2089 21.079C33.1316 19.867 31.7176 19.261 29.9669 19.261C28.2162 19.261 26.7686 19.8334 25.6239 20.978C24.4792 22.0554 23.9069 23.4694 23.9069 25.22C23.9069 26.9034 24.4792 28.351 25.6239 29.563C26.7686 30.7077 28.2162 31.28 29.9669 31.28Z"/>
</mask>
<path d="M29.9669 77.336C24.5129 77.336 19.7659 76.427 15.7259 74.609C11.6859 72.7237 8.55491 70.1987 6.33291 67.034C4.11091 63.802 2.99991 60.1324 2.99991 56.025C2.99991 52.4564 3.67324 49.2917 5.01991 46.531C6.36657 43.7704 8.21824 41.5147 10.5749 39.764C12.9989 38.0134 15.7259 36.8687 18.7559 36.33L18.4529 39.663C15.7596 39.1917 13.4366 38.148 11.4839 36.532C9.59857 34.8487 8.11724 32.795 7.03991 30.371C6.02991 27.947 5.52491 25.4557 5.52491 22.897C5.52491 19.059 6.53491 15.6587 8.55491 12.696C10.6422 9.66602 13.5039 7.30935 17.1399 5.62602C20.8432 3.87535 25.1189 3.00002 29.9669 3.00002C34.8149 3.00002 39.0569 3.87535 42.6929 5.62602C46.3289 7.30935 49.1569 9.66602 51.1769 12.696C53.2642 15.6587 54.3079 19.059 54.3079 22.897C54.3079 25.4557 53.8029 27.947 52.7929 30.371C51.7829 32.795 50.3016 34.8487 48.3489 36.532C46.4636 38.148 44.1742 39.1917 41.4809 39.663L41.0769 36.33C44.1742 36.8687 46.9012 38.0134 49.2579 39.764C51.6819 41.5147 53.5672 43.7704 54.9139 46.531C56.2606 49.2917 56.9339 52.4564 56.9339 56.025C56.9339 60.1324 55.8229 63.802 53.6009 67.034C51.3789 70.1987 48.2479 72.7237 44.2079 74.609C40.1679 76.427 35.4209 77.336 29.9669 77.336ZM29.9669 60.772C31.5156 60.772 32.8622 60.4354 34.0069 59.762C35.2189 59.0887 36.1616 58.1797 36.8349 57.035C37.5082 55.823 37.8449 54.4764 37.8449 52.995C37.8449 51.5137 37.5082 50.2007 36.8349 49.056C36.1616 47.9114 35.2189 47.0024 34.0069 46.329C32.8622 45.6557 31.5156 45.319 29.9669 45.319C28.4182 45.319 27.0379 45.6557 25.8259 46.329C24.6812 47.0024 23.7722 47.9114 23.0989 49.056C22.4256 50.2007 22.0889 51.5137 22.0889 52.995C22.0889 54.4764 22.4256 55.823 23.0989 57.035C23.7722 58.1797 24.6812 59.0887 25.8259 59.762C27.0379 60.4354 28.4182 60.772 29.9669 60.772ZM29.9669 31.28C31.7176 31.28 33.1316 30.7414 34.2089 29.664C35.3536 28.5194 35.9259 27.1054 35.9259 25.422C35.9259 23.6714 35.3536 22.2237 34.2089 21.079C33.1316 19.867 31.7176 19.261 29.9669 19.261C28.2162 19.261 26.7686 19.8334 25.6239 20.978C24.4792 22.0554 23.9069 23.4694 23.9069 25.22C23.9069 26.9034 24.4792 28.351 25.6239 29.563C26.7686 30.7077 28.2162 31.28 29.9669 31.28Z" fill="#E75D5C"/>
<path d="M15.7259 74.609L14.4572 77.3276L14.476 77.3363L14.4948 77.3448L15.7259 74.609ZM6.33291 67.034L3.86078 68.7336L3.86916 68.7458L3.87767 68.7579L6.33291 67.034ZM5.01991 46.531L2.3236 45.2158H2.3236L5.01991 46.531ZM10.5749 39.764L8.81843 37.332L8.8021 37.3438L8.78593 37.3558L10.5749 39.764ZM18.7559 36.33L21.7436 36.6016L22.0993 32.6886L18.2308 33.3763L18.7559 36.33ZM18.4529 39.663L17.9358 42.6181L21.1456 43.1798L21.4406 39.9346L18.4529 39.663ZM11.4839 36.532L9.48586 38.7698L9.52784 38.8073L9.5712 38.8432L11.4839 36.532ZM7.03991 30.371L4.27068 31.5249L4.2842 31.5573L4.29847 31.5894L7.03991 30.371ZM8.55491 12.696L6.08438 10.9941L6.08029 11L6.07623 11.006L8.55491 12.696ZM17.1399 5.62602L18.4003 8.34843L18.4112 8.34338L18.422 8.33824L17.1399 5.62602ZM42.6929 5.62602L41.3915 8.32903L41.4119 8.33888L41.4325 8.34843L42.6929 5.62602ZM51.1769 12.696L48.6808 14.3601L48.7022 14.3923L48.7245 14.4239L51.1769 12.696ZM52.7929 30.371L50.0237 29.2172L50.0237 29.2172L52.7929 30.371ZM48.3489 36.532L50.3013 38.8098L50.3077 38.8042L48.3489 36.532ZM41.4809 39.663L38.5027 40.024L38.8832 43.1632L41.998 42.6181L41.4809 39.663ZM41.0769 36.33L41.5909 33.3744L37.6128 32.6825L38.0987 36.691L41.0769 36.33ZM49.2579 39.764L47.4689 42.1723L47.4851 42.1843L47.5014 42.1961L49.2579 39.764ZM53.6009 67.034L56.0561 68.7579L56.0647 68.7458L56.073 68.7336L53.6009 67.034ZM44.2079 74.609L45.439 77.3448L45.4578 77.3363L45.4766 77.3276L44.2079 74.609ZM34.0069 59.762L32.55 57.1395L32.5177 57.1575L32.4858 57.1762L34.0069 59.762ZM36.8349 57.035L39.4207 58.5561L39.4394 58.5242L39.4574 58.492L36.8349 57.035ZM36.8349 49.056L34.2491 50.5771L34.2491 50.5771L36.8349 49.056ZM34.0069 46.329L32.4858 48.9148L32.5177 48.9336L32.55 48.9515L34.0069 46.329ZM25.8259 46.329L24.369 43.7066L24.3367 43.7245L24.3048 43.7432L25.8259 46.329ZM23.0989 49.056L25.6847 50.5771L25.6847 50.5771L23.0989 49.056ZM23.0989 57.035L20.4764 58.492L20.4944 58.5242L20.5131 58.5561L23.0989 57.035ZM25.8259 59.762L24.3048 62.3478L24.3367 62.3666L24.369 62.3845L25.8259 59.762ZM34.2089 29.664L36.3302 31.7853L36.3302 31.7853L34.2089 29.664ZM34.2089 21.079L31.9667 23.0721L32.0252 23.138L32.0876 23.2003L34.2089 21.079ZM25.6239 20.978L27.68 23.1626L27.7131 23.1315L27.7452 23.0993L25.6239 20.978ZM25.6239 29.563L23.4429 31.6229L23.4723 31.654L23.5026 31.6843L25.6239 29.563ZM29.9669 77.336V74.336C24.8417 74.336 20.5313 73.4817 16.957 71.8733L15.7259 74.609L14.4948 77.3448C19.0005 79.3723 24.1841 80.336 29.9669 80.336V77.336ZM15.7259 74.609L16.9946 71.8905C13.3566 70.1928 10.6649 67.9831 8.78815 65.3101L6.33291 67.034L3.87767 68.7579C6.44488 72.4143 10.0152 75.2546 14.4572 77.3276L15.7259 74.609ZM6.33291 67.034L8.80503 65.3344C6.94365 62.627 5.99991 59.5558 5.99991 56.025H2.99991H-9.35793e-05C-9.35793e-05 60.7089 1.27816 64.9771 3.86078 68.7336L6.33291 67.034ZM2.99991 56.025H5.99991C5.99991 52.8386 6.59932 50.1359 7.71621 47.8463L5.01991 46.531L2.3236 45.2158C0.747161 48.4475 -9.35793e-05 52.0742 -9.35793e-05 56.025H2.99991ZM5.01991 46.531L7.71621 47.8463C8.86235 45.4967 10.4108 43.6231 12.3639 42.1723L10.5749 39.764L8.78593 37.3558C6.02568 39.4063 3.8708 42.044 2.3236 45.2158L5.01991 46.531ZM10.5749 39.764L12.3314 42.1961C14.3785 40.7176 16.6821 39.7457 19.281 39.2837L18.7559 36.33L18.2308 33.3763C14.7697 33.9916 11.6193 35.3091 8.81843 37.332L10.5749 39.764ZM18.7559 36.33L15.7682 36.0584L15.4652 39.3914L18.4529 39.663L21.4406 39.9346L21.7436 36.6016L18.7559 36.33ZM18.4529 39.663L18.97 36.7079C16.7482 36.3191 14.9165 35.4787 13.3966 34.2208L11.4839 36.532L9.5712 38.8432C11.9567 40.8174 14.7709 42.0643 17.9358 42.6181L18.4529 39.663ZM11.4839 36.532L13.482 34.2942C11.9295 32.9081 10.6947 31.2076 9.78134 29.1526L7.03991 30.371L4.29847 31.5894C5.5398 34.3824 7.2676 36.7892 9.48586 38.7698L11.4839 36.532ZM7.03991 30.371L9.80914 29.2172C8.94737 27.1489 8.52491 25.0491 8.52491 22.897H5.52491H2.52491C2.52491 25.8623 3.11244 28.7451 4.27068 31.5249L7.03991 30.371ZM5.52491 22.897H8.52491C8.52491 19.6173 9.37753 16.8149 11.0336 14.386L8.55491 12.696L6.07623 11.006C3.69228 14.5025 2.52491 18.5007 2.52491 22.897H5.52491ZM8.55491 12.696L11.0254 14.3979C12.7812 11.8492 15.207 9.8268 18.4003 8.34843L17.1399 5.62602L15.8795 2.90362C11.8008 4.79191 8.50328 7.4828 6.08438 10.9941L8.55491 12.696ZM17.1399 5.62602L18.422 8.33824C21.6576 6.80872 25.4817 6.00002 29.9669 6.00002V3.00002V2.28882e-05C24.7561 2.28882e-05 20.0289 0.941978 15.8578 2.9138L17.1399 5.62602ZM29.9669 3.00002V6.00002C34.4538 6.00002 38.2351 6.80929 41.3915 8.32903L42.6929 5.62602L43.9944 2.92302C39.8787 0.941422 35.176 2.28882e-05 29.9669 2.28882e-05V3.00002ZM42.6929 5.62602L41.4325 8.34843C44.6189 9.8236 46.9976 11.8354 48.6808 14.3601L51.1769 12.696L53.6731 11.0319C51.3162 7.49666 48.0389 4.79511 43.9533 2.90362L42.6929 5.62602ZM51.1769 12.696L48.7245 14.4239C50.4339 16.8501 51.3079 19.639 51.3079 22.897H54.3079H57.3079C57.3079 18.479 56.0946 14.4673 53.6294 10.9682L51.1769 12.696ZM54.3079 22.897H51.3079C51.3079 25.0491 50.8854 27.1489 50.0237 29.2172L52.7929 30.371L55.5621 31.5249C56.7204 28.7451 57.3079 25.8623 57.3079 22.897H54.3079ZM52.7929 30.371L50.0237 29.2172C49.1897 31.2187 47.9826 32.887 46.3901 34.2598L48.3489 36.532L50.3077 38.8042C52.6206 36.8104 54.3761 34.3713 55.5621 31.5249L52.7929 30.371ZM48.3489 36.532L46.3965 34.2542C44.9607 35.485 43.1818 36.3198 40.9638 36.7079L41.4809 39.663L41.998 42.6181C45.1667 42.0636 47.9664 40.8111 50.3013 38.8098L48.3489 36.532ZM41.4809 39.663L44.4591 39.302L44.0551 35.969L41.0769 36.33L38.0987 36.691L38.5027 40.024L41.4809 39.663ZM41.0769 36.33L40.5629 39.2857C43.2318 39.7498 45.515 40.7208 47.4689 42.1723L49.2579 39.764L51.0469 37.3558C48.2875 35.3059 45.1167 33.9876 41.5909 33.3744L41.0769 36.33ZM49.2579 39.764L47.5014 42.1961C49.5138 43.6494 51.0814 45.517 52.2176 47.8463L54.9139 46.531L57.6102 45.2158C56.0531 42.0237 53.85 39.3799 51.0144 37.332L49.2579 39.764ZM54.9139 46.531L52.2176 47.8463C53.3345 50.1359 53.9339 52.8386 53.9339 56.025H56.9339H59.9339C59.9339 52.0742 59.1867 48.4475 57.6102 45.2158L54.9139 46.531ZM56.9339 56.025H53.9339C53.9339 59.5558 52.9902 62.627 51.1288 65.3344L53.6009 67.034L56.073 68.7336C58.6557 64.9771 59.9339 60.7089 59.9339 56.025H56.9339ZM53.6009 67.034L51.1457 65.3101C49.2689 67.9831 46.5772 70.1928 42.9393 71.8905L44.2079 74.609L45.4766 77.3276C49.9186 75.2546 53.4889 72.4143 56.0561 68.7579L53.6009 67.034ZM44.2079 74.609L42.9768 71.8733C39.4025 73.4817 35.0921 74.336 29.9669 74.336V77.336V80.336C35.7497 80.336 40.9333 79.3723 45.439 77.3448L44.2079 74.609ZM29.9669 60.772V63.772C31.9606 63.772 33.8505 63.3346 35.528 62.3478L34.0069 59.762L32.4858 57.1762C31.874 57.5361 31.0706 57.772 29.9669 57.772V60.772ZM34.0069 59.762L35.4638 62.3845C37.1221 61.4632 38.4639 60.1827 39.4207 58.5561L36.8349 57.035L34.2491 55.514C33.8593 56.1766 33.3157 56.7142 32.55 57.1395L34.0069 59.762ZM36.8349 57.035L39.4574 58.492C40.3952 56.8038 40.8449 54.9502 40.8449 52.995H37.8449H34.8449C34.8449 54.0025 34.6213 54.8422 34.2124 55.5781L36.8349 57.035ZM37.8449 52.995H40.8449C40.8449 51.0421 40.3956 49.1923 39.4207 47.535L36.8349 49.056L34.2491 50.5771C34.6209 51.2091 34.8449 51.9853 34.8449 52.995H37.8449ZM36.8349 49.056L39.4207 47.535C38.4639 45.9083 37.1221 44.6278 35.4638 43.7066L34.0069 46.329L32.55 48.9515C33.3157 49.3769 33.8593 49.9144 34.2491 50.5771L36.8349 49.056ZM34.0069 46.329L35.528 43.7432C33.8505 42.7565 31.9606 42.319 29.9669 42.319V45.319V48.319C31.0706 48.319 31.874 48.5549 32.4858 48.9148L34.0069 46.329ZM29.9669 45.319V42.319C27.9692 42.319 26.0769 42.7577 24.369 43.7066L25.8259 46.329L27.2828 48.9515C27.9989 48.5537 28.8673 48.319 29.9669 48.319V45.319ZM25.8259 46.329L24.3048 43.7432C22.7205 44.6752 21.4451 45.9506 20.5131 47.535L23.0989 49.056L25.6847 50.5771C26.0994 49.8721 26.642 49.3295 27.347 48.9148L25.8259 46.329ZM23.0989 49.056L20.5131 47.535C19.5382 49.1923 19.0889 51.0421 19.0889 52.995H22.0889H25.0889C25.0889 51.9853 25.313 51.2091 25.6847 50.5771L23.0989 49.056ZM22.0889 52.995H19.0889C19.0889 54.9502 19.5386 56.8038 20.4764 58.492L23.0989 57.035L25.7214 55.5781C25.3126 54.8422 25.0889 54.0025 25.0889 52.995H22.0889ZM23.0989 57.035L20.5131 58.5561C21.4451 60.1404 22.7205 61.4159 24.3048 62.3478L25.8259 59.762L27.347 57.1762C26.642 56.7615 26.0994 56.219 25.6847 55.514L23.0989 57.035ZM25.8259 59.762L24.369 62.3845C26.0769 63.3334 27.9692 63.772 29.9669 63.772V60.772V57.772C28.8673 57.772 27.9989 57.5374 27.2828 57.1395L25.8259 59.762ZM29.9669 31.28V34.28C32.3846 34.28 34.6054 33.5102 36.3302 31.7853L34.2089 29.664L32.0876 27.5427C31.6577 27.9726 31.0506 28.28 29.9669 28.28V31.28ZM34.2089 29.664L36.3302 31.7853C38.062 30.0535 38.9259 27.8656 38.9259 25.422H35.9259H32.9259C32.9259 26.3451 32.6451 26.9852 32.0876 27.5427L34.2089 29.664ZM35.9259 25.422H38.9259C38.9259 22.9473 38.0862 20.7136 36.3302 18.9577L34.2089 21.079L32.0876 23.2003C32.621 23.7337 32.9259 24.3955 32.9259 25.422H35.9259ZM34.2089 21.079L36.4511 19.0859C34.7554 17.1782 32.4977 16.261 29.9669 16.261V19.261V22.261C30.9375 22.261 31.5077 22.5558 31.9667 23.0721L34.2089 21.079ZM29.9669 19.261V16.261C27.4921 16.261 25.2585 17.1008 23.5026 18.8567L25.6239 20.978L27.7452 23.0993C28.2786 22.5659 28.9403 22.261 29.9669 22.261V19.261ZM25.6239 20.978L23.5678 18.7934C21.749 20.5052 20.9069 22.7462 20.9069 25.22H23.9069H26.9069C26.9069 24.1926 27.2095 23.6055 27.68 23.1626L25.6239 20.978ZM23.9069 25.22H20.9069C20.9069 27.661 21.7666 29.848 23.4429 31.6229L25.6239 29.563L27.8049 27.5032C27.1919 26.8541 26.9069 26.1457 26.9069 25.22H23.9069ZM25.6239 29.563L23.5026 31.6843C25.2585 33.4403 27.4921 34.28 29.9669 34.28V31.28V28.28C28.9403 28.28 28.2786 27.9751 27.7452 27.4417L25.6239 29.563Z" fill="#B94A49" mask="url(#path-1-outside-1_1376_105)"/>
</svg>
