<svg width="62" height="80" viewBox="0 0 62 80" fill="none" xmlns="http://www.w3.org/2000/svg">
<mask id="path-1-outside-1_1376_107" maskUnits="userSpaceOnUse" x="-0.624756" y="-0.875977" width="63" height="80" fill="black">
<rect fill="white" x="-0.624756" y="-0.875977" width="63" height="80"/>
<path d="M9.56503 76.124L33.704 42.794L41.279 44.41C40.1344 46.0934 39.0234 47.541 37.946 48.753C36.936 49.965 35.6904 50.9077 34.209 51.581C32.7277 52.2544 30.7077 52.591 28.149 52.591C23.503 52.591 19.261 51.5137 15.423 49.359C11.6524 47.137 8.62237 44.208 6.33303 40.572C4.11103 36.8687 3.00003 32.7614 3.00003 28.25C3.00003 23.4694 4.21203 19.1937 6.63603 15.423C9.12737 11.585 12.4604 8.55502 16.635 6.33302C20.877 4.11102 25.624 3.00002 30.876 3.00002C36.1954 3.00002 40.9424 4.11102 45.117 6.33302C49.2917 8.55502 52.591 11.585 55.015 15.423C57.5064 19.1937 58.752 23.4694 58.752 28.25C58.752 33.906 56.7994 39.5957 52.894 45.319L31.987 76.124H9.56503ZM30.876 37.946C32.5594 37.946 34.0407 37.5757 35.32 36.835C36.6667 36.027 37.7104 34.9497 38.451 33.603C39.1917 32.189 39.562 30.6067 39.562 28.856C39.562 27.1054 39.1917 25.5567 38.451 24.21C37.7104 22.796 36.6667 21.7187 35.32 20.978C34.0407 20.17 32.5594 19.766 30.876 19.766C29.1927 19.766 27.6777 20.17 26.331 20.978C25.0517 21.7187 24.0417 22.796 23.301 24.21C22.5604 25.5567 22.19 27.1054 22.19 28.856C22.19 30.6067 22.5604 32.189 23.301 33.603C24.0417 34.9497 25.0517 36.027 26.331 36.835C27.6777 37.5757 29.1927 37.946 30.876 37.946Z"/>
</mask>
<path d="M9.56503 76.124L33.704 42.794L41.279 44.41C40.1344 46.0934 39.0234 47.541 37.946 48.753C36.936 49.965 35.6904 50.9077 34.209 51.581C32.7277 52.2544 30.7077 52.591 28.149 52.591C23.503 52.591 19.261 51.5137 15.423 49.359C11.6524 47.137 8.62237 44.208 6.33303 40.572C4.11103 36.8687 3.00003 32.7614 3.00003 28.25C3.00003 23.4694 4.21203 19.1937 6.63603 15.423C9.12737 11.585 12.4604 8.55502 16.635 6.33302C20.877 4.11102 25.624 3.00002 30.876 3.00002C36.1954 3.00002 40.9424 4.11102 45.117 6.33302C49.2917 8.55502 52.591 11.585 55.015 15.423C57.5064 19.1937 58.752 23.4694 58.752 28.25C58.752 33.906 56.7994 39.5957 52.894 45.319L31.987 76.124H9.56503ZM30.876 37.946C32.5594 37.946 34.0407 37.5757 35.32 36.835C36.6667 36.027 37.7104 34.9497 38.451 33.603C39.1917 32.189 39.562 30.6067 39.562 28.856C39.562 27.1054 39.1917 25.5567 38.451 24.21C37.7104 22.796 36.6667 21.7187 35.32 20.978C34.0407 20.17 32.5594 19.766 30.876 19.766C29.1927 19.766 27.6777 20.17 26.331 20.978C25.0517 21.7187 24.0417 22.796 23.301 24.21C22.5604 25.5567 22.19 27.1054 22.19 28.856C22.19 30.6067 22.5604 32.189 23.301 33.603C24.0417 34.9497 25.0517 36.027 26.331 36.835C27.6777 37.5757 29.1927 37.946 30.876 37.946Z" fill="#E75D5C"/>
<path d="M9.56503 76.124L7.13533 74.3643L3.68815 79.124H9.56503V76.124ZM33.704 42.794L34.33 39.86L32.4199 39.4526L31.2743 41.0343L33.704 42.794ZM41.279 44.41L43.7598 46.097L46.269 42.407L41.9049 41.476L41.279 44.41ZM37.946 48.753L35.7038 46.7599L35.672 46.7957L35.6414 46.8325L37.946 48.753ZM34.209 51.581L35.4504 54.3121V54.3121L34.209 51.581ZM15.423 49.359L13.9 51.9436L13.927 51.9596L13.9544 51.975L15.423 49.359ZM6.33303 40.572L3.76056 42.1155L3.77715 42.1432L3.79433 42.1705L6.33303 40.572ZM6.63603 15.423L4.11967 13.7896L4.1125 13.8008L6.63603 15.423ZM16.635 6.33302L15.243 3.67552L15.2342 3.68012L15.2255 3.68478L16.635 6.33302ZM55.015 15.423L52.4786 17.025L52.495 17.0511L52.512 17.0768L55.015 15.423ZM52.894 45.319L50.416 43.6281L50.4117 43.6343L52.894 45.319ZM31.987 76.124V79.124H33.5766L34.4693 77.8087L31.987 76.124ZM35.32 36.835L36.8231 39.4313L36.8434 39.4196L36.8635 39.4075L35.32 36.835ZM38.451 33.603L41.0797 35.0488L41.0944 35.0221L41.1085 34.995L38.451 33.603ZM38.451 24.21L35.7935 25.602L35.8077 25.6291L35.8224 25.6558L38.451 24.21ZM35.32 20.978L33.7181 23.5145L33.7948 23.5629L33.8743 23.6067L35.32 20.978ZM26.331 20.978L27.8341 23.5743L27.8544 23.5626L27.8745 23.5505L26.331 20.978ZM23.301 24.21L25.9297 25.6558L25.9444 25.6291L25.9585 25.602L23.301 24.21ZM23.301 33.603L20.6435 34.995L20.6577 35.0221L20.6724 35.0488L23.301 33.603ZM26.331 36.835L24.7291 39.3715L24.8058 39.4199L24.8853 39.4637L26.331 36.835ZM9.56503 76.124L11.9947 77.8837L36.1337 44.5537L33.704 42.794L31.2743 41.0343L7.13533 74.3643L9.56503 76.124ZM33.704 42.794L33.0781 45.728L40.6531 47.344L41.279 44.41L41.9049 41.476L34.33 39.86L33.704 42.794ZM41.279 44.41L38.7983 42.7231C37.7089 44.325 36.6767 45.6655 35.7038 46.7599L37.946 48.753L40.1883 50.7461C41.3701 49.4166 42.5598 47.8617 43.7598 46.097L41.279 44.41ZM37.946 48.753L35.6414 46.8325C34.9295 47.6867 34.0514 48.3573 32.9676 48.8499L34.209 51.581L35.4504 54.3121C37.3294 53.4581 38.9426 52.2433 40.2507 50.6736L37.946 48.753ZM34.209 51.581L32.9676 48.8499C32.0356 49.2736 30.4984 49.591 28.149 49.591V52.591V55.591C30.917 55.591 33.4198 55.2351 35.4504 54.3121L34.209 51.581ZM28.149 52.591V49.591C23.9878 49.591 20.256 48.6318 16.8916 46.7431L15.423 49.359L13.9544 51.975C18.2661 54.3956 23.0183 55.591 28.149 55.591V52.591ZM15.423 49.359L16.9461 46.7744C13.5798 44.7907 10.9012 42.1968 8.87173 38.9736L6.33303 40.572L3.79433 42.1705C6.34358 46.2193 9.7249 49.4833 13.9 51.9436L15.423 49.359ZM6.33303 40.572L8.90551 39.0285C6.97602 35.8127 6.00003 32.243 6.00003 28.25H3.00003H3.32594e-05C3.32594e-05 33.2797 1.24605 37.9247 3.76056 42.1155L6.33303 40.572ZM3.00003 28.25H6.00003C6.00003 24.0046 7.0676 20.2995 9.15957 17.0453L6.63603 15.423L4.1125 13.8008C1.35646 18.0879 3.32594e-05 22.9341 3.32594e-05 28.25H3.00003ZM6.63603 15.423L9.15237 17.0564C11.3573 13.6597 14.3032 10.9726 18.0446 8.98126L16.635 6.33302L15.2255 3.68478C10.6175 6.13741 6.89748 9.51032 4.11969 13.7896L6.63603 15.423ZM16.635 6.33302L18.0271 8.99052C21.7991 7.01469 26.0611 6.00002 30.876 6.00002V3.00002V2.28882e-05C25.187 2.28882e-05 19.955 1.20734 15.243 3.67552L16.635 6.33302ZM30.876 3.00002V6.00002C35.766 6.00002 40.0185 7.01778 43.7075 8.98126L45.117 6.33302L46.5266 3.68478C41.8662 1.20426 36.6247 2.28882e-05 30.876 2.28882e-05V3.00002ZM45.117 6.33302L43.7075 8.98126C47.442 10.969 50.3448 13.6465 52.4786 17.025L55.015 15.423L57.5515 13.821C54.8373 9.5235 51.1414 6.14104 46.5266 3.68478L45.117 6.33302ZM55.015 15.423L52.512 17.0768C54.66 20.3278 55.752 24.0216 55.752 28.25H58.752H61.752C61.752 22.9171 60.3527 18.0596 57.518 13.7692L55.015 15.423ZM58.752 28.25H55.752C55.752 33.1787 54.0586 38.2898 50.416 43.6281L52.894 45.319L55.3721 47.0099C59.5401 40.9016 61.752 34.6333 61.752 28.25H58.752ZM52.894 45.319L50.4117 43.6343L29.5047 74.4393L31.987 76.124L34.4693 77.8087L55.3763 47.0037L52.894 45.319ZM31.987 76.124V73.124H9.56503V76.124V79.124H31.987V76.124ZM30.876 37.946V40.946C33.0127 40.946 35.0266 40.4714 36.8231 39.4313L35.32 36.835L33.8169 34.2387C33.0548 34.68 32.106 34.946 30.876 34.946V37.946ZM35.32 36.835L36.8635 39.4075C38.6548 38.3328 40.0775 36.8709 41.0797 35.0488L38.451 33.603L35.8224 32.1573C35.3432 33.0285 34.6786 33.7213 33.7765 34.2625L35.32 36.835ZM38.451 33.603L41.1085 34.995C42.0954 33.1111 42.562 31.0437 42.562 28.856H39.562H36.562C36.562 30.1697 36.288 31.267 35.7935 32.211L38.451 33.603ZM39.562 28.856H42.562C42.562 26.671 42.0961 24.6123 41.0797 22.7643L38.451 24.21L35.8224 25.6558C36.2873 26.501 36.562 27.5397 36.562 28.856H39.562ZM38.451 24.21L41.1085 22.818C40.1054 20.903 38.6498 19.3856 36.7658 18.3494L35.32 20.978L33.8743 23.6067C34.6836 24.0518 35.3153 24.6891 35.7935 25.602L38.451 24.21ZM35.32 20.978L36.922 18.4416C35.1104 17.2974 33.0606 16.766 30.876 16.766V19.766V22.766C32.0582 22.766 32.971 23.0426 33.7181 23.5145L35.32 20.978ZM30.876 19.766V16.766C28.6895 16.766 26.6341 17.2976 24.7875 18.4055L26.331 20.978L27.8745 23.5505C28.7213 23.0424 29.6959 22.766 30.876 22.766V19.766ZM26.331 20.978L24.8279 18.3817C23.0184 19.4293 21.6255 20.9433 20.6435 22.818L23.301 24.21L25.9585 25.602C26.4579 24.6488 27.085 24.008 27.8341 23.5743L26.331 20.978ZM23.301 24.21L20.6724 22.7643C19.656 24.6123 19.19 26.671 19.19 28.856H22.19H25.19C25.19 27.5397 25.4648 26.501 25.9297 25.6558L23.301 24.21ZM22.19 28.856H19.19C19.19 31.0437 19.6567 33.1111 20.6435 34.995L23.301 33.603L25.9585 32.211C25.464 31.267 25.19 30.1697 25.19 28.856H22.19ZM23.301 33.603L20.6724 35.0488C21.6535 36.8327 23.0138 38.2882 24.7291 39.3715L26.331 36.835L27.933 34.2986C27.0896 33.7659 26.4299 33.0667 25.9297 32.1573L23.301 33.603ZM26.331 36.835L24.8853 39.4637C26.7162 40.4707 28.7365 40.946 30.876 40.946V37.946V34.946C29.6489 34.946 28.6392 34.6807 27.7768 34.2064L26.331 36.835Z" fill="#B94A49" mask="url(#path-1-outside-1_1376_107)"/>
</svg>
