<svg xmlns="http://www.w3.org/2000/svg" width="334" height="79" fill="none" viewBox="0 0 334 79"><mask id="a" width="334" height="80" x="-.106" y="-.891" fill="#000" maskUnits="userSpaceOnUse"><path fill="#fff" d="M-.106-.891h334v80h-334z"/><path d="M77.755 8.126q0-.36.04-1.061.04-.72.04-.981a21 21 0 0 0-.04-.72q-.04-.621-.04-1.082 0-2.121.4-2.122.16 0 .28.04 4.185 0 12.392-.1 8.23-.1 12.313-.1 1.021 0 1.282.18.28.18.28.7v.561q0 1.041.02 3.083.02 2.022.02 3.083 0 1.041-.561 1.041-1.12 0-3.343-.04t-3.343-.04V32.03q-.14.6-.68.64-.701 0-2.043-.02-1.341-.019-2.042-.02-.04 0-.08.04-.881 0-2.482-.02-1.582-.019-2.362-.02h-1.202q-.4.041-1.16.04l-.802-.96q0-3.043.2-9.049t.2-9.049q0-.14-.02-.46v-.52q0-.2-.04-.501a1.4 1.4 0 0 0-.1-.48 2 2 0 0 0-.16-.381.57.57 0 0 0-.28-.28.74.74 0 0 0-.4-.1h-5.726q-.56-.16-.56-2.763m55.563-2.723v24.624q0 .42-.04.681-.02.24-.16.46a.45.45 0 0 1-.401.22h-10.21v-.44a2 2 0 0 0-.32-.18q-.26-.14-.32-.26V22.42q0-.44-.081-.5-.06-.06-.56-.06h-1.361q-.48 0-1.122.08v8.648q-.08.36-.32.46-.22.1-.68.1h-.921q-.941 0-2.963.04-2.002.04-3.043.04h-2.643q-.861 0-.861-.96l.12-25.225q0-.1.061-.16.06-.08.24-.2.18-.14.2-.16h10.77v8.608h3.484V4.322h10.21q.48 0 .701.22t.22.861m14.363 21.742q-.14.46-.281 1.22-.12.742-.24 1.182a3.8 3.8 0 0 1-.36.9 1.56 1.56 0 0 1-.801.681q-.52.22-1.361.22h-8.649v-.68q1.06-3.183 3.083-9.77 2.042-6.585 3.163-9.97v.04q.68-1.94 2.002-6.085.021-.04.06-.1.18-.3.341-.46l10.81.08q2.763 0 3.043.48v.52q.04.18.441.921a1702 1702 0 0 0 2.842 8.649v.24q.08.58.361 1.321t.66 1.602a13 13 0 0 1 .561 1.321l.801 2.883q.7 2.322 2.062 6.206v-.04.4q.06.28.3.761.24.48.3.68 0 .561-.24.721-.22.16-.881.16h-9.289a7 7 0 0 1-.44-.06 6 6 0 0 1-.321-.08.7.7 0 0 1-.3-.16.5.5 0 0 1-.1-.26l-.761-3.043q-.08-.381-.16-.42-.08-.06-.48-.06zm.96-7.127v.08zm4.405-2.403q-.12-.56-.361-1.801a36 36 0 0 0-.44-2.183 22 22 0 0 0-.48-1.741v-.961a1.04 1.04 0 0 0-.561-.6v.04q-.48.099-.961 2.682v.96a.55.55 0 0 1-.18.261q-.14.12-.14.14a792 792 0 0 1-1.081 4.725q0 .2-.1.7a6 6 0 0 0-.101.581h4.965q0-.52-.36-1.882v-.44a1.3 1.3 0 0 0-.12-.22.7.7 0 0 1-.08-.26m42.83-13.052q.241.08.361.7.14.6.16 1.522.02.92 0 1.761t-.06 1.722q-.02.88-.02 1.101-.04.8-.04 2.242v2.122q0 1.402.04 3.844t.04 3.604v7.287q-.08.68-1.121.68h-11.211q-.36-.08-.921-1.681a383 383 0 0 0-1.281-3.484 411 411 0 0 1-1.522-4.244 91 91 0 0 1-1.161-3.563v-.12.12q-.06 1.32-.12 3.944-.06 2.602-.12 3.903v4.084q0 .6-.14.841-.141.22-.741.36h-8.248l-.881-.88q.1-3.324.16-10.41.06-7.088.16-10.49V5.202q.2-.72.481-.72v.08q1.361 0 4.264-.08 2.923-.08 4.384-.08h3.364q.02 0 .06.02.36.14.4.32l.02.14q.72 1.941 1.461 4.024.74 2.082 1.762 5.045a567 567 0 0 0 1.422 4.064v-2.963q.4-7.047.4-10.01 0-.32.44-.4.441-.08 1.362-.08zm6.115 26.826q-.36-.6-.48-.841V4.242h9.169q.26-.02.4 0 .14 0 .38.02.26.02.421.08.16.04.32.14.18.081.28.24.12.161.161.361v8.889q.66-1.322 1.841-3.804a343 343 0 0 1 1.762-3.604l.981-2.102 1.902-.06q.4 0 1.201.04.821.04 1.201.04h1.522q.16 0 .46-.02.32-.02.461-.02h1.161q.08 0 .28-.04 3.243 0 3.243.48 0 .281-.36.762-.92 1.461-3.103 5.345-2.182 3.864-3.524 5.825l7.828 13.494v.3a1 1 0 0 1-.02.14q0 .08-.02.14l-.06.12a.3.3 0 0 1-.08.12l-.1.1q-1.882-.12-5.606-.12-.5 0-1.541.02a88 88 0 0 1-1.542.02h-2.722v-.56q-.32-.54-1.382-2.122-1.06-1.582-1.541-2.483l-2.242-4.284v8.889q-.28.8-2.203.8zm45.714-19.059q-.541 0-.881-.16a1.55 1.55 0 0 1-.541-.4 5 5 0 0 0-.46-.48q-.24-.242-.781-.401-.54-.16-1.381-.16-.26 0-.641.06-.36.04-.801.26-.44.22-.44.56 0 .38.36.661.38.26.841.38.48.1 1.061.26.6.14.841.26l2.943.722q1.3.36 2.342.76 1.041.4 2.202 1.101 1.18.68 1.962 1.522.78.84 1.301 2.122.52 1.26.521 2.783 0 1.842-.481 3.283v-.04a8 8 0 0 1-1.181 2.302 7.2 7.2 0 0 1-1.802 1.682q-1.04.66-2.102 1.12-1.06.442-2.462.721a43 43 0 0 1-2.482.4 63 63 0 0 1-2.503.221q-6.306-.32-8.448-2.002v-.24q-1.823-1.361-2.703-2.963-.86-1.602-1.021-3.604 0-.48.441-.48.12 0 .36.02t.36.02h2.042q.28-.04.801-.04h.521q.16 0 .28.04 1.16-.04 3.964-.04h.921q.4 0 .62.24t.341.6q.14.341.3.702.18.34.62.58t1.162.24q.78 0 1.401-.4.64-.42.641-1.201 0-.36-.341-.68-.34-.321-1.021-.581a17 17 0 0 0-1.221-.42 27 27 0 0 0-1.421-.381 27 27 0 0 1-1.161-.3h-1.202q-4.344-1.282-6.266-3.244-1.902-1.982-1.902-5.004 0-2.002.741-3.604.76-1.602 1.982-2.623 1.242-1.02 2.903-1.701a14.8 14.8 0 0 1 3.383-.981q1.722-.3 3.564-.3 3.262 0 6.046 1.1 2.802 1.082 4.244 2.823.52.52.841 1.322.32.8.4 1.28.1.461.24 1.562l-.56.801h-3.404q-.56 0-1.862-.04a70 70 0 0 0-2.021-.04M2 74.428V49.043q0-.32.2-.46.201-.16.36-.16.18-.02.641-.02H22.1q.16 0 .26.06a.5.5 0 0 1 .16.1q.06.04.08.16.02.1.02.16.021.06 0 .18v6.947h-9.369v.72q0 .24.08 1.282h1.882q.28-.021 1-.12.742-.12 1.162-.12h1.642q.56 0 .84-.04a5.3 5.3 0 0 1 1.502.2q.68.2.74.44v1.161q0 .381-.04 1.181-.04.781-.04 1.181v1.802q.04.16.04.56v.802q-.08.64-1.24.64h-1.282q-.681 0-1.962.04-1.26.04-1.962.04h-2.242v9.53H2.521zm22.41-12.813-.04-.44q.38-3.263.721-4.545.78-3.003 2.803-5.025l.48-.48q.961-1.12 2.923-1.922h.761q1.962-.82 6.446-1.521 1.122 0 2.343.18 1.24.16 2.742.56 1.502.381 2.883 1.242 1.402.84 2.322 2.021v.561q3.285 4.104 3.284 9.21 0 5.745-2.643 9.368l-.8 1.001q-.922 1.14-2.303 1.962-1.36.821-2.903 1.261a21.6 21.6 0 0 1-5.765.781q-2.063 0-3.944-.48a12.6 12.6 0 0 1-3.504-1.542 12.1 12.1 0 0 1-2.863-2.562q-1.24-1.522-2.021-3.664-.762-2.162-.921-4.765zm11.011.16q0 7.047 2.683 7.047.74 0 1.281-.28.56-.28.901-.86a7.3 7.3 0 0 0 .56-1.182q.222-.6.301-1.501.1-.901.12-1.582.04-.68.04-1.642v-.72q0-1.042-.12-2.002t-.42-1.922q-.28-.981-.881-1.562-.6-.6-1.462-.6-3.003 0-3.003 5.926zm20.77-13.212h3.723q1.722 0 5.505-.08t5.666-.08q1.622 0 3.023.18 1.42.18 2.783.66 1.38.48 2.342 1.221.981.741 1.581 1.962.6 1.202.601 2.783 0 2.182-1.02 3.724-1.023 1.541-3.144 2.602.84.36 1.461.941.621.58.941 1.001.34.42.641 1.421.32.981.38 1.302.06.3.26 1.521.06.28.08.42.081.8.681 2.944.6 2.121.6 3.263 0 .72-.44.72-1.2 0-3.643.02-2.422.02-3.604.02-.48-.04-1.441-.04h-1.361q-.401-.12-.781-1.24a12 12 0 0 1-.54-2.523l-.441-3.564q-.12-.44-.2-.62a1.7 1.7 0 0 0-.24-.46.9.9 0 0 0-.5-.381q-.301-.1-.782-.1h-.92v8.528q0 .1-.02.16a.6.6 0 0 0-.04.12.25.25 0 0 1-.06.12l-.08.08a.25.25 0 0 1-.12.06q-.06.02-.161.04a1 1 0 0 1-.2.02H56.19zm11.33 10.57a1 1 0 0 1 .12.18q.08.12.16.2a.36.36 0 0 0 .161.1q.6 0 1.201-.12.6-.14 1.221-.44.641-.3 1.021-.921.4-.621.4-1.482 0-2.082-4.003-2.082-.4.1-.4.32v.761q0 .58.06 1.742t.06 1.742m51.088 1.361q-.08.54-.32 2.543a250 250 0 0 1-.501 4.204 181 181 0 0 1-.62 4.424q-.341 2.202-.781 3.644-.44 1.44-.881 1.441-.86 0-2.543-.04a116 116 0 0 0-2.542-.04q-3.864 0-7.127.16a1.4 1.4 0 0 1-.5-.44q-.2-.3-.341-.721-.12-.42-.2-.74-.06-.341-.14-.842a9 9 0 0 0-.1-.7q-3.464-16.516-4.284-20.1l-1.402-6.727q0-.56.56-.76.481.04 1.522.04h1.602q.48 0 1.381-.04.902-.04 1.301-.04.381-.02 1.122.02.74.02.96.02h1.162q.2.04.6.04h.601q.36.1.72 1.381.362 1.281.681 3.524.32 2.241.521 3.924.2 1.66.44 4.043.26 2.363.26 2.403l2.543-15.235q.96.08 1.521.08h1.242q1.621 0 4.684-.02 3.082-.02 4.605-.02.42 0 .52.32l2.503 16.556q.38-4.564.94-8.348l1.202-8.128q.14-.48 1.401-.48h.961q.24-.02.741.02.52.02.74.02h1.762q.741 0 1.662.02l.981.02h2.362q.18 0 .24.28.06.26.1.881l-6.446 29.469q-.4.04-.961.04t-1.021-.02q-.46 0-1.061-.02H130q-.82 0-2.502-.02-1.662-.02-2.503-.02-.1 0-3.904.12zm31.84 10.65q-.14.461-.28 1.222a12 12 0 0 1-.241 1.18q-.1.421-.36.902a1.56 1.56 0 0 1-.801.68q-.52.22-1.361.22h-8.649v-.68q1.062-3.183 3.083-9.77 2.042-6.585 3.164-9.97v.04q.68-1.942 2.001-6.085.02-.04.061-.1.18-.3.34-.46l10.81.08q2.764 0 3.043.48v.52q.04.18.441.921 1.941 5.946 2.843 8.649v.24q.08.58.36 1.321t.661 1.602q.4.84.56 1.321l.801 2.883q.7 2.322 2.062 6.206v-.04.4q.06.28.3.761.24.48.3.68 0 .561-.24.721-.22.16-.881.16h-9.289a7 7 0 0 1-.44-.06 5 5 0 0 1-.32-.08.7.7 0 0 1-.301-.16.5.5 0 0 1-.1-.26l-.761-3.043q-.08-.381-.16-.42-.08-.06-.48-.06zm.961-7.126v.08zm4.404-2.403q-.12-.56-.36-1.802a37 37 0 0 0-.441-2.182 22 22 0 0 0-.48-1.741v-.961a1.04 1.04 0 0 0-.561-.6v.04q-.48.099-.961 2.682v.96a.54.54 0 0 1-.18.261q-.14.12-.14.14a720 720 0 0 1-1.081 4.725q0 .2-.1.7-.1.501-.1.581h4.965q0-.52-.361-1.882v-.44a1.3 1.3 0 0 0-.12-.22.8.8 0 0 1-.08-.26m14.243-5.765v-7.207h23.302q.321.06.401.26.08.18.08.54v6.407q-.04.48-.561.48h-5.685v18.418a1 1 0 0 1-.02.1 1 1 0 0 0-.02.1q0 .02-.02.08a.2.2 0 0 1-.04.08.2.2 0 0 0-.04.08.14.14 0 0 1-.06.06q-.02 0-.08.04a1 1 0 0 1-.1.04.6.6 0 0 1-.121.04.6.6 0 0 0-.14.02h-1.281q-2.562 0-2.563-.16a9 9 0 0 0-.48.02q-.321.02-.48.02h-1.602q-.46 0-1.321.02-.841.02-1.322.02h-1.121l-.8-.56v-4.324q.02-1.162.16-4.965.16-3.804.16-6.006v-.52q0-.16.02-.5.02-.342.02-.501 0-.18-.02-.721-.02-.561-.02-.72h-5.005q-.44 0-.841-.14-.4-.161-.4-.501m39.427 20.1q-3.344 0-6.006-1.122-2.663-1.14-4.364-3.143-1.702-2.002-2.603-4.665-.88-2.682-.88-5.845v-.28q.02-.14.06-.681.06-.561.06-.72.02-.181.08-.661t.1-.701.1-.64q.08-.422.16-.681.1-.28.22-.661a9 9 0 0 1 .261-.72q.14-.341.32-.702v.04q.921-1.92 2.322-3.323 1.401-1.401 3.083-2.162a14.8 14.8 0 0 1 3.443-1.12q1.762-.361 3.724-.361 2.483 0 4.484.5 2.002.48 3.324 1.301a8.8 8.8 0 0 1 2.262 2.002q.94 1.162 1.421 2.403.481 1.24.681 2.682v1.722a.68.68 0 0 1-.3.44q-.24.141-.521.18-.28.02-.781.02h-8.568v-1.72a2.4 2.4 0 0 0-.581-1.242q-.48-.56-1.181-.56-.62 0-1.101.26a2.06 2.06 0 0 0-.74.7 4.3 4.3 0 0 0-.441 1.001q-.16.56-.22 1.201-.04.62-.08 1.282-.02.64.02 1.22v2.824q0 .5.04.98.06.46.24 1.202.2.74.681 1.2.48.462 1.201.461.76 0 1.121-.64.38-.64.621-1.542.26-.9.58-1.221.801 0 2.403.02 1.6.02 2.402.02.56 0 1.662-.02a100 100 0 0 1 1.661-.02h1.482q.66 0 .72.8v.761q-.44 3.984-2.943 6.427-2.502 2.442-6.266 3.103v.12q-1.341.28-3.363.28m42.11-26.547v24.624q0 .42-.04.681-.02.24-.16.46a.45.45 0 0 1-.401.22h-10.21v-.44q-.04-.039-.32-.18-.26-.14-.32-.26V66.42q0-.44-.08-.5-.06-.06-.561-.06h-1.361a9 9 0 0 0-1.121.08v8.648q-.08.36-.321.46-.22.1-.68.1h-.921q-.94 0-2.963.04-2.002.04-3.043.04h-2.643q-.86 0-.86-.96l.12-25.225q0-.1.06-.16.06-.08.24-.2.18-.14.2-.16h10.771v8.608h3.483v-8.809h10.21q.48 0 .701.22t.22.861m4.753 25.946V49.043q.02-.16.321-.28.3-.14.36-.2H267.8v26.065q-.1.42-.201.58-.08.14-.28.14zm43.031-26.787q.24.08.36.701.14.6.161 1.522.02.92 0 1.761-.021.84-.06 1.722-.02.88-.02 1.101-.04.8-.04 2.242v2.122q0 1.402.04 3.844t.04 3.604v7.287q-.081.68-1.122.68h-11.21q-.362-.08-.921-1.681a362 362 0 0 0-1.282-3.484 434 434 0 0 1-1.521-4.244 91 91 0 0 1-1.161-3.563v-.12.12q-.06 1.32-.12 3.944-.06 2.603-.12 3.903v4.084q0 .6-.141.841-.14.22-.74.36h-8.248l-.881-.88q.1-3.324.16-10.41.06-7.088.16-10.49v-4.325q.2-.72.481-.72v.08q1.361 0 4.264-.08 2.923-.08 4.384-.08h3.363q.021 0 .06.02.361.14.401.32l.02.14q.72 1.941 1.461 4.024a553 553 0 0 1 1.762 5.045 583 583 0 0 0 1.421 4.064v-2.963q.4-7.047.401-10.01 0-.32.44-.4.441-.08 1.361-.08zm32.3 24.905q-.16.74-2.722 1.341-2.543.58-5.085.82-2.523.241-4.004.241a40 40 0 0 1-2.723-.08 31 31 0 0 1-2.742-.34 13.3 13.3 0 0 1-3.043-.921 13.4 13.4 0 0 1-2.743-1.662l-.841-.72q-.34-.24-.681-.721l-.64-.841q-2.403-3.784-2.403-8.809 0-4.984 2.523-8.488l.56-.68v-.28.04q3.605-4.605 11.892-4.605 1.201 0 2.603.22 1.42.2 3.003.66 1.6.441 3.023 1.322 1.42.88 2.262 2.042.42.56.64 1.261.22.681.401 1.782.2 1.08.32 1.601 0 .681-1.281.681h-1.642q-.56 0-2.302-.06a83 83 0 0 0-2.743-.06h-2.202q-.28-.1-.52-.62-.22-.541-.281-.621v.04q-.36-.801-1.601-.801-.82 0-1.442.36-.6.34-.921.861-.32.5-.52 1.281-.18.762-.24 1.402-.04.64-.04 1.461 0 .28.02.781t.02.66v1.522q0 .72.04 1.261.06.54.26 1.221t.561 1.122q.36.44 1.041.74t1.621.3q1.962 0 3.083-.36v-.88q0-.161-.02-.421a6 6 0 0 1-.02-.42q0-.04.02-.2t.02-.28h-.761q-.16 0-.4.02t-.32.02h-1.682l-.681-.762a3.4 3.4 0 0 1-.04-.6v-1.241q0-.24.02-.741.02-.5.02-.82v-.561q0-.04.02-.18t.02-.26v-.161q0-.36.141-.58t.54-.461h1.882q.2 0 .601.08h1.801q2.003.08 2.963.08h1.922q3.043 0 3.604.56 0 1.922-.08 5.846a312 312 0 0 0-.081 5.846z"/></mask><path fill="#000" d="m77.795 7.065 1.996.114v-.003zm.64-4.865-.632 1.898.308.102h.324zm12.392-.1-.024-2zm13.594.08-1.139 1.645.028.019.029.019zm.3 4.344-2 .02zm-7.227 4.044v-2h-2v2zm0 21.461 1.948.455.052-.224v-.23zm-.68.64v2h.073l.074-.005zm-4.165 0v2h.829l.586-.585zm-2.482-.02-.026 2zm-3.564-.02v-2h-.1l-.099.01zm-1.16.04-1.537 1.281.6.72h.936zm-.802-.96h-2v.724l.464.556zm.38-18.558h-2v.062l.005.063zm-.04-1.021-1.995.133.005.066.008.065zm-.1-.48-1.915.574.037.122.051.116zm-.16-.381-1.788.895.02.038.02.038zm-.28-.28-1.06 1.696.12.074.128.057zm-6.126-.1-.55 1.923.27.077h.28zm-.56-2.763h2c0-.182.01-.49.037-.947l-1.997-.114-1.997-.114a22 22 0 0 0-.043 1.175zm.04-1.061 1.997.11c.026-.474.043-.854.043-1.091h-4c0 .11-.01.384-.037.87zm.04-.981h2c0-.15-.02-.477-.044-.85l-1.996.13-1.996.128.035.596c.002.037 0 .027 0-.004zm-.04-.72 1.996-.13a15 15 0 0 1-.036-.952h-4q0 .544.044 1.21zm-.04-1.082h2c0-.677.034-1.056.065-1.22.02-.101.011.02-.1.216a1.7 1.7 0 0 1-.451.51 1.85 1.85 0 0 1-1.114.372v-4c-1.12 0-1.712.787-1.916 1.148-.21.372-.302.759-.35 1.012-.102.543-.134 1.225-.134 1.962zm.4-2.122v2a1.1 1.1 0 0 1-.352-.062l.632-1.898.633-1.897a2.9 2.9 0 0 0-.913-.143zm.28.04v2q4.205 0 12.417-.1l-.025-2-.024-2Q82.6.2 78.435.2zm12.392-.1.025 2q8.223-.1 12.287-.1V0q-4.104 0-12.336.1zM103.14 2v2q.213 0 .355.008.144.009.198.018c.041.005.027.006-.024-.009a1.6 1.6 0 0 1-.386-.192l1.139-1.645L105.56.536c-.495-.343-1.045-.434-1.31-.471A8 8 0 0 0 103.14 0zm1.282.18-1.082 1.683a1.45 1.45 0 0 1-.565-.675 1 1 0 0 1-.065-.228q-.01-.076-.008-.08h4c0-.626-.169-1.72-1.199-2.382zm.28.7h-2v.561h4v-.56zm0 .561h-2q0 1.058.02 3.103l2-.02 2-.02q-.02-2.038-.02-3.063zm.02 3.083-2 .02q.02 2.018.02 3.063h4q0-1.077-.02-3.102zm.02 3.083h-2c0 .233-.042.096.099-.167.087-.161.252-.383.533-.557.287-.178.58-.235.807-.235v4a2.45 2.45 0 0 0 2.182-1.312c.328-.61.379-1.267.379-1.729zm-.561 1.041v-2q-1.09 0-3.307-.04l-.036 2-.036 2q2.228.04 3.379.04zm-3.343-.04.036-2c-1.484-.026-2.613-.04-3.379-.04v4q1.092 0 3.307.04zm-3.343-.04h-2V32.03h4V10.57zm0 21.461-1.948-.454c.015-.063.085-.305.337-.542a1.3 1.3 0 0 1 .783-.358l.147 1.995.148 1.994a2.7 2.7 0 0 0 1.663-.718c.48-.45.71-1 .818-1.462zm-.68.64v-2c-.453 0-1.121-.006-2.013-.019l-.03 2-.03 2q1.347.02 2.072.02zm-2.043-.02.03-1.999q-1.347-.02-2.072-.02v4q.677 0 2.013.02zm-2.042-.02v-2a2.1 2.1 0 0 0-1.494.627l1.414 1.414 1.415 1.414a1.9 1.9 0 0 1-1.335.546zm-.08.04v-2q-.861 0-2.457-.019l-.025 2-.025 2q1.606.02 2.507.02zm-2.482-.02.025-1.999q-1.586-.02-2.387-.02v4q.76 0 2.336.02zm-2.362-.02v-2h-1.202v4h1.202zm-1.202 0-.199-1.99c-.166.017-.474.03-.962.03v4c.527 0 .993-.012 1.36-.049zm-1.16.04 1.536-1.28-.801-.96-1.537 1.28-1.536 1.28.8.961zm-.802-.96h2c0-1.994.066-4.984.2-8.982l-2-.067-1.998-.067c-.134 4.01-.202 7.053-.202 9.116zm.2-9.049 2 .067c.133-4.01.2-7.053.2-9.116h-4c0 1.995-.065 4.984-.198 8.982zm.2-9.049h2c0-.161-.01-.369-.023-.585l-1.996.125-1.996.125.015.308v.027zm-.02-.46h2v-.521h-4v.52zm0-.52h2c0-.255-.024-.517-.057-.765l-1.982.264-1.983.264c.02.152.023.224.023.236zm-.04-.501 1.996-.133a3.4 3.4 0 0 0-.268-1.16l-1.827.812-1.828.813a1 1 0 0 1-.065-.194q-.007-.045-.003-.005zm-.1-.48 1.916-.575a4 4 0 0 0-.327-.777l-1.748.971-1.749.971-.007-.016zm-.16-.381 1.79-.894a2.57 2.57 0 0 0-1.257-1.214l-.813 1.828-.812 1.827c-.36-.16-.585-.43-.696-.652zm-.28-.28 1.06-1.696a2.74 2.74 0 0 0-1.46-.404v4c-.114 0-.373-.025-.66-.204zm-.4-.1v-2h-5.726v4h5.726zm-5.726 0 .55-1.923c.632.18.903.626.96.732.066.12.058.16.03.022-.053-.263-.1-.768-.1-1.594h-4c0 .91.046 1.732.18 2.39.065.322.174.72.38 1.098.198.363.632.964 1.45 1.198zm54.963 19.819-1.977-.304-.011.069-.005.069zm-10.771.68h-2v2h2zm0-.44h2v-.828l-.586-.586zm-.32-.18-.948 1.761.026.014.027.014zm-.32-.26h-2v.472l.211.422zm-.081-8.589-1.414 1.415.101.1.113.085zm-3.043.02-.248-1.984-1.752.219v1.765zm0 8.649 1.953.434.047-.215v-.22zm-.32.46-.769-1.846-.029.012-.029.014zm-4.564.14-.04-2zm-6.547-.92-2-.01v.01zm.12-25.225 2 .01v-.01zm.061-.16 1.414 1.414.1-.1.086-.114zm.24-.2 1.109 1.664.061-.04.058-.046zm.2-.16v-2h-.828l-.586.585zm10.77 0h2v-2h-2zm0 8.608h-2v2h2zm3.484 0v2h2v-2zm0-8.809v-2h-2v2zm11.131 1.081h-2v24.624h4V5.403zm0 24.624h-2c0 .231-.012.345-.017.377l1.977.304 1.976.304c.049-.315.064-.655.064-.985zm-.04.681-1.993-.166a1 1 0 0 1 .145-.447l1.688 1.074 1.687 1.073c.252-.397.423-.859.466-1.368zm-.16.46-1.688-1.073a1.5 1.5 0 0 1 .554-.514c.267-.147.53-.192.733-.192v4c.86 0 1.629-.425 2.088-1.147zm-.401.22v-2h-10.21v4h10.21zm-10.21 0h2v-.44h-4v.44zm0-.44 1.414-1.414c-.163-.163-.324-.266-.359-.289a3 3 0 0 0-.174-.105 7 7 0 0 0-.307-.16l-.894 1.788-.895 1.789c.082.04.122.063.135.07.007.003-.012-.007-.045-.028l-.089-.062-.079-.063a2 2 0 0 1-.121-.111zm-.32-.18.948-1.76c-.019-.011.027.011.103.073.06.049.261.219.417.532l-1.788.895-1.789.894c.197.394.47.647.637.783.183.149.369.26.524.344zm-.32-.26h2V22.42h-4v8.088zm0-8.088h2a4 4 0 0 0-.046-.661 2.5 2.5 0 0 0-.134-.508 2.13 2.13 0 0 0-.701-.932l-1.2 1.6-1.2 1.6a1.93 1.93 0 0 1-.63-.824 1.5 1.5 0 0 1-.084-.304c-.012-.07-.005-.077-.005.029zm-.081-.5 1.415-1.415c-.411-.41-.884-.525-.96-.545a3 3 0 0 0-.412-.074 6 6 0 0 0-.603-.027v4c.141 0 .189.005.177.004-.002 0-.076-.007-.186-.036a1.9 1.9 0 0 1-.845-.493zm-.56-.06v-2h-1.361v4h1.361zm-1.361 0v-2c-.426 0-.886.035-1.37.095l.248 1.985.249 1.984c.37-.046.658-.065.873-.065zm-1.122.08h-2v8.648h4v-8.649zm0 8.648-1.952-.434c.013-.058.056-.22.191-.413.146-.21.373-.414.672-.539l.769 1.846.769 1.847c.988-.412 1.373-1.283 1.504-1.873zm-.32.46-.827-1.82a1.2 1.2 0 0 1 .256-.083c.009-.002-.023.003-.109.003v4c.38 0 .96-.03 1.508-.279zm-.68.1v-2h-.921v4h.921zm-.921 0v-2c-.649 0-1.653.014-3.003.04l.04 2 .039 2c1.347-.027 2.317-.04 2.924-.04zm-2.963.04-.04-2q-1.995.04-3.003.04v4c.714 0 1.745-.013 3.083-.04zm-3.043.04v-2h-2.643v4h2.643zm-2.643 0v-2c.082 0 .493.033.844.426.314.35.295.677.295.614h-4c0 .577.125 1.384.726 2.055.638.712 1.48.905 2.135.905zm-.861-.96 2 .01.12-25.226-2-.009-2-.01-.12 25.225zm.12-25.225h2c0 .362-.124.853-.525 1.254l-1.414-1.414-1.415-1.414a2.22 2.22 0 0 0-.646 1.574zm.061-.16 1.6 1.2a1.6 1.6 0 0 1-.23.246c-.031.026-.042.032-.021.018l-1.109-1.664-1.11-1.664a3 3 0 0 0-.73.664zm.24-.2 1.228 1.578.161-.127q.034-.026.071-.058a2 2 0 0 0 .154-.14l-1.414-1.414-1.414-1.414.035-.034.024-.023.018-.016.012-.01.026-.023-.01.009-.047.036-.072.057zm.2-.16v2h10.77v-4h-10.77zm10.77 0h-2v8.608h4V4.522zm0 8.608v2h3.484v-4h-3.484zm3.484 0h2V4.322h-4v8.809zm0-8.809v2h10.21v-4h-10.21zm10.21 0v2c.071 0-.325.024-.714-.365l1.415-1.415 1.414-1.414c-.683-.682-1.546-.806-2.115-.806zm.701.22-1.415 1.415a1.33 1.33 0 0 1-.358-.594c-.018-.072-.007-.073-.007.04h4c0-.314-.026-.671-.118-1.03a2.7 2.7 0 0 0-.688-1.245zm14.583 22.603v-2H146.2l-.432 1.417zm-.281 1.22-1.967-.362-.004.021-.003.022zm-.24 1.182-1.93-.526-.008.031-.008.032zm-.36.9 1.741.985.009-.016.008-.016zm-.801.681-.755-1.852-.012.005-.012.006zm-10.01.22h-2v2h2zm0-.68-1.897-.633-.103.308v.325zm3.083-9.77-1.91-.592-.002.005zm3.163-9.97h2l-3.898-.628zm0 .04h-2l3.888.662zm2.002-6.085-1.789-.895-.069.14-.047.147zm.06-.1 1.664 1.11.027-.04.024-.041zm.341-.46.014-2-.837-.007-.592.592zm10.81.08-.015 2h.015zm3.043.48h2v-.54l-.272-.468zm0 .52h-2v.22l.048.214zm.441.921 1.901-.62-.056-.172-.086-.159zm2.842 8.649h2v-.325l-.102-.308zm0 .24h-2v.137l.019.136zm.361 1.321 1.87-.708zm.66 1.602-1.829.808.011.026.013.026zm.561 1.321 1.927-.535-.014-.05-.016-.047zm.801 2.883-1.927.535.005.021.007.022zm2.062 6.206-1.888.662 3.888-.662zm0 .36h-2v.212l.044.207zm.6 1.442h2v-.294l-.084-.281zm-.24.72-1.109-1.664-.034.023-.033.024zm-10.17.16-.234 1.987.117.013h.117zm-.761-.14-.574 1.916.024.007.024.007zm-.3-.16-1.562 1.25.069.086.079.078zm-.1-.26 1.984-.248-.015-.12-.029-.117zm-.761-3.043-1.957.412.008.037.009.036zm-.16-.42-1.2 1.6.144.108.162.08zm-1.281-9.59h2v-.212l-.045-.207zm-.361-1.801-1.97.343.003.018.004.018zm-.44-2.183-1.947.456.002.01zm-.48-1.741h-2v.316l.097.302zm0-.961h2v-.368l-.132-.344zm-.561-.6.821-1.825-2.821-1.269v3.093zm0 .04.408 1.957 1.592-.332v-1.626zm-.961 2.682-1.966-.366-.034.181v.185zm0 .96 1.923.55.077-.27v-.28zm-.32.401 1.951.441.049-.218v-.223zm-1.081 4.725-1.948-.455-.052.225v.23zm-.201 1.281h-2v2h2zm4.965 0v2h2v-2zm-.36-1.882h-2v.26l.067.252zm0-.44h2v-.325l-.103-.308zm-.12-.22-1.828.812.057.128.075.12zm-5.445 9.269-1.914-.583c-.124.41-.234.899-.334 1.441l1.967.363 1.967.362c.087-.472.165-.796.227-1.001zm-.281 1.22-1.974-.32a10 10 0 0 1-.196.976l1.93.526 1.93.526c.106-.39.199-.862.284-1.387zm-.24 1.182-1.946-.463a1.8 1.8 0 0 1-.173.411l1.759.953 1.758.952c.236-.436.431-.901.548-1.39zm-.36.9-1.741-.983a.5.5 0 0 1 .115-.14c.045-.038.076-.05.07-.048l.755 1.852.754 1.853a3.56 3.56 0 0 0 1.788-1.55zm-.801.681-.779-1.841c.002-.001-.039.016-.141.032-.101.017-.246.03-.441.03v4c.709 0 1.457-.09 2.14-.379zm-1.361.22v-2h-8.649v4h8.649zm-8.649 0h2v-.68h-4v.68zm0-.68 1.898.632c.715-2.145 1.748-5.42 3.097-9.815l-1.912-.587-1.912-.587c-1.347 4.389-2.369 7.626-3.068 9.724zm3.083-9.77 1.91.593c1.361-4.388 2.411-7.696 3.152-9.933l-1.899-.63-1.898-.628c-.754 2.274-1.813 5.612-3.175 10.006zm3.163-9.97h-2v.04h4v-.04zm0 .04 1.888.662c.463-1.323 1.138-3.374 2.02-6.14l-1.906-.607-1.905-.608c-.88 2.76-1.54 4.766-1.984 6.032zm2.002-6.085 1.789.894a1 1 0 0 1-.065.115l-1.664-1.11-1.664-1.109a3 3 0 0 0-.185.315zm.06-.1 1.715 1.029a1 1 0 0 1 .069-.106l.002-.003-.031.033-1.414-1.414-1.415-1.414a4.4 4.4 0 0 0-.641.846zm.341-.46-.015 2 10.81.08.015-2 .015-2-10.811-.08zm10.81.08v2c.885 0 1.477.04 1.83.095.182.029.22.05.175.032a1.2 1.2 0 0 1-.231-.13 1.6 1.6 0 0 1-.458-.51l1.727-1.007 1.728-1.008c-.386-.66-.993-.944-1.28-1.06a5 5 0 0 0-1.037-.268c-.661-.104-1.497-.145-2.454-.145zm3.043.48h-2v.52h4v-.52zm0 .52-1.952.434c.07.316.215.619.278.75.094.196.215.428.355.688l1.76-.95 1.759-.952a15 15 0 0 1-.266-.512l-.028-.062-.008-.018-.002-.005.003.009.01.028c.008.022.026.077.043.156zm.441.921-1.902.621q1.942 5.947 2.847 8.66l1.897-.632 1.898-.633q-.898-2.692-2.839-8.637zm2.842 8.649h-2v.24h4v-.24zm0 .24-1.981.273c.08.577.248 1.167.471 1.756l1.871-.708 1.87-.708a4.2 4.2 0 0 1-.249-.886zm.361 1.321-1.871.708q.303.8.702 1.702l1.829-.808 1.83-.809a30 30 0 0 1-.62-1.5zm.66 1.602-1.805.86c.255.537.401.89.468 1.094l1.898-.633 1.897-.632a15 15 0 0 0-.652-1.55zm.561 1.321-1.927.535.801 2.883 1.927-.535 1.927-.535-.801-2.883zm.801 2.883-1.915.578c.479 1.589 1.178 3.689 2.089 6.29l1.888-.662 1.887-.662c-.903-2.577-1.58-4.614-2.035-6.122zm2.062 6.206h2v-.04h-4v.04zm0-.04h-2v.4h4v-.4zm0 .4-1.956.42c.094.437.285.871.467 1.235l1.789-.894 1.789-.894a3 3 0 0 1-.124-.27c-.025-.065-.02-.065-.01-.016zm.3.761-1.789.894q.106.214.154.324l.03.07c.005.013-.001 0-.01-.033l1.915-.574 1.916-.575c-.096-.32-.271-.688-.427-1zm.3.68h-2c0 .065-.009-.015.043-.171.056-.169.215-.51.608-.772l1.109 1.664 1.109 1.665c1.074-.716 1.131-1.935 1.131-2.385zm-.24.721-1.176-1.617c.151-.11.282-.166.355-.192a1 1 0 0 1 .133-.038c.012-.003-.042.008-.193.008v4c.289 0 .602-.017.908-.073.275-.05.725-.161 1.149-.47zm-.881.16v-2h-9.289v4h9.289zm-9.289 0 .234-1.986-.244-.03-.057-.008.019.003-.392 1.962-.393 1.96c.161.033.392.062.599.086zm-.44-.06.392-1.96q.018.003-.037-.01l-.149-.04-.527 1.93-.526 1.93c.151.041.315.084.454.112zm-.321-.08.575-1.915c.044.013.287.089.539.341l-1.414 1.414-1.414 1.414c.386.386.829.569 1.14.662zm-.3-.16 1.562-1.25c.23.288.302.576.322.742l-1.984.248-1.985.248c.048.38.186.84.523 1.262zm-.1-.26 1.94-.485-.761-3.043-1.94.485-1.94.485.761 3.043zm-.761-3.043 1.957-.412a4 4 0 0 0-.168-.595 2.5 2.5 0 0 0-.224-.45 2.1 2.1 0 0 0-.831-.752l-.894 1.789-.894 1.788a2 2 0 0 1-.522-.38 1.8 1.8 0 0 1-.373-.571c-.028-.073-.026-.092-.008-.005zm-.16-.42 1.2-1.6a2.2 2.2 0 0 0-.719-.352 3 3 0 0 0-.393-.078 5 5 0 0 0-.568-.03v4c.096 0 .11.004.072 0a1.3 1.3 0 0 1-.194-.041 1.9 1.9 0 0 1-.598-.299zm-.48-.06v-2h-6.166v4h6.166zm-5.206-7.127h-2v.08h4v-.08zm0 .08h2v-.08h-4v.08zm4.405-2.483 1.955-.419c-.075-.353-.192-.937-.352-1.763l-1.964.38-1.963.38c.16.83.284 1.447.368 1.841zm-.361-1.801 1.971-.344a39 39 0 0 0-.466-2.304l-1.945.465-1.945.466q.202.842.415 2.06zm-.44-2.183 1.947-.455a23 23 0 0 0-.525-1.905l-1.902.619-1.903.618q.232.709.436 1.58zm-.48-1.741h2v-.961h-4v.96zm0-.961 1.868-.712a3.03 3.03 0 0 0-1.608-1.713l-.821 1.824-.821 1.824a.95.95 0 0 1-.487-.511zm-.561-.6h-2v.04h4v-.04zm0 .04-.408-1.959c-.868.181-1.33.804-1.496 1.054-.21.314-.355.658-.459.95-.215.599-.398 1.377-.564 2.271l1.966.366 1.966.366c.154-.828.291-1.358.397-1.654.056-.155.071-.154.022-.08-.027.04-.104.15-.245.27a1.7 1.7 0 0 1-.771.373zm-.961 2.682h-2v.96h4v-.96zm0 .96-1.923-.549a1.46 1.46 0 0 1 .441-.708l1.302 1.518 1.301 1.518c.313-.267.642-.67.802-1.229zm-.18.261-1.302-1.518a4 4 0 0 0-.217.199 2.1 2.1 0 0 0-.38.504 2 2 0 0 0-.241.955h4a2 2 0 0 1-.237.942 2 2 0 0 1-.176.27c-.069.088-.127.146-.138.157-.031.032-.042.04-.008.01zm-.14.14-1.951-.44q-.66 2.919-1.078 4.71l1.948.455 1.947.454q.423-1.811 1.085-4.738zm-1.081 4.725h-2c0-.045.002-.069.002-.062l-.007.054q-.014.1-.057.316l1.962.392 1.961.393c.065-.325.139-.738.139-1.093zm-.1.7-1.962-.392c-.034.174-.063.326-.084.448-.008.043-.055.29-.055.525h4q0 .07-.003.106l-.004.055-.004.04.007-.046c.013-.072.034-.183.066-.343zm-.101.581v2h4.965v-4h-4.965zm4.965 0h2c0-.644-.193-1.51-.427-2.394l-1.933.512-1.933.512c.113.428.191.763.239 1.015.052.275.054.372.054.355zm-.36-1.882h2v-.44h-4v.44zm0-.44 1.897-.633c-.101-.303-.276-.575-.321-.648l-1.696 1.06-1.696 1.06.02.033-.029-.057q-.012-.024-.029-.067a1 1 0 0 1-.043-.116zm-.12-.22 1.827-.813c-.007-.016.006.01.024.07q.017.046.038.154c.013.068.031.182.031.328h-4c0 .526.205.966.252 1.073zm42.75-13.314.633-1.897-.308-.103h-.325zm.361.701-1.964.38.007.038.009.037zm.1 5.005-1.998-.09-.001.022-.001.023zm-.02 1.101 1.997.1.003-.05v-.05zm.04 19.099 1.986.233.014-.116v-.117zm-12.332.68-.434 1.953.214.047h.22zm-.921-1.681 1.888-.66-.003-.008-.002-.007zm-1.281-3.484-1.88.684.003.007.002.006zm-1.522-4.244-1.889.657.002.007zm-1.161-3.563h-2v.296l.086.283zm0 0 1.998.09.002-.045v-.045zm-.12 3.944 1.999.046zm-.12 3.903-1.998-.092-.002.046v.046zm-.14 4.925 1.687 1.074.021-.033.019-.033zm-.741.36v2h.23l.224-.052zm-8.248 0-1.414 1.415.585.586h.829zm-.881-.88-1.999-.06-.026.863.611.61zm.32-20.9 1.999.058.001-.03v-.029zm0-4.325-1.927-.535-.073.263v.272zm.481-.72h2v-2h-2zm0 .08h-2v2h2zm4.264-.08-.055-2zm7.808-.06-.895 1.788.083.042.087.033zm.4.32 1.98-.283-.011-.076-.017-.075zm.02.14-1.98.283.03.212.075.2zm1.461 4.024 1.885-.67zm1.762 5.045-1.891.651.002.004zm1.422 4.064-1.884.672 3.884-.672zm0-2.963-1.997-.114-.003.057v.057zm9.048-10.49-.632 1.897a1.62 1.62 0 0 1-.936-.768c-.063-.122-.058-.167-.035-.049l1.964-.38 1.963-.38a3.8 3.8 0 0 0-.335-1.02c-.17-.33-.565-.934-1.356-1.198zm.361.7-1.948.455c.051.217.097.574.108 1.11l2-.043 1.999-.044c-.015-.691-.075-1.349-.212-1.932zm.16 1.522-2 .043q.02.88 0 1.67l2 .048 1.999.048q.021-.89 0-1.853zm0 1.761-2-.047a78 78 0 0 1-.058 1.678l1.998.091 1.998.09q.041-.9.061-1.764zm-.06 1.722-2-.045c-.013.578-.02.971-.02 1.146h4c0-.119.006-.46.019-1.056zm-.02 1.101-1.998-.1c-.029.584-.042 1.37-.042 2.342h4c0-.949.013-1.658.037-2.142zm-.04 2.242h-2v2.122h4v-2.122zm0 2.122h-2q0 1.426.04 3.877l2-.033 2-.033q-.04-2.434-.04-3.81zm.04 3.844-2 .033q.04 2.438.04 3.57h4c0-.79-.014-2.006-.04-3.636zm.04 3.604h-2v7.287h4V23.18zm0 7.287-1.986-.234a1.3 1.3 0 0 1 .192-.531 1.34 1.34 0 0 1 .436-.434c.259-.158.413-.12.237-.12v4c.517 0 1.206-.077 1.838-.461a2.65 2.65 0 0 0 1.269-1.987zm-1.121.68v-2h-11.211v4h11.211zm-11.211 0 .434-1.952c.286.064.495.183.621.271s.206.172.245.216c.072.08.083.116.044.044-.076-.137-.204-.425-.377-.92l-1.888.66-1.888.66c.2.572.413 1.099.644 1.522.114.208.271.461.479.695.178.2.589.61 1.252.757zm-.921-1.681 1.883-.675q-.388-1.081-1.29-3.506l-1.874.697-1.875.697a334 334 0 0 1 1.273 3.462zm-1.281-3.484 1.879-.683q-.878-2.415-1.514-4.224l-1.887.663-1.887.664q.645 1.834 1.529 4.264zm-1.522-4.244 1.889-.657a90 90 0 0 1-1.136-3.485l-1.914.579-1.914.579q.533 1.764 1.186 3.641zm-1.161-3.563h2v-.12h-4v.12zm0-.12h-2v.12h4v-.12zm0 .12-1.998-.091a200 200 0 0 0-.122 3.989l2 .046 1.999.045c.04-1.744.08-3.04.119-3.898zm-.12 3.944-2-.047c-.04 1.732-.079 3.015-.118 3.858l1.998.092 1.998.093c.041-.892.081-2.212.121-3.95zm-.12 3.903h-2v4.084h4v-4.084zm0 4.084h-2q0 .093-.004.141l-.004.041c.001-.003.006-.036.023-.09.017-.052.051-.145.117-.259l1.728 1.008 1.727 1.008c.384-.659.413-1.417.413-1.849zm-.14.841-1.688-1.073c.124-.195.26-.322.355-.395s.169-.114.202-.13c.06-.029.055-.017-.065.01l.455 1.949.454 1.947c.282-.065.6-.16.906-.31a2.6 2.6 0 0 0 1.068-.924zm-.741.36v-2h-8.248v4h8.248zm-8.248 0 1.414-1.414-.881-.88-1.414 1.414-1.414 1.414.881.88zm-.881-.88 1.999.06c.068-2.238.121-5.727.161-10.453l-2-.017-2-.017c-.04 4.722-.093 8.174-.159 10.366zm.16-10.41 2 .017c.04-4.723.093-8.202.159-10.449l-1.999-.059-1.999-.058c-.067 2.29-.121 5.805-.161 10.532zm.16-10.49h2V5.202h-4v4.324zm0-4.325 1.927.535c.045-.161.05-.105-.042.034-.08.119-.521.71-1.404.71v-4c-1.07 0-1.685.712-1.925 1.071-.252.38-.394.796-.483 1.115zm.481-.72h-2v.08h4v-.08zm0 .08v2c.937 0 2.381-.028 4.319-.081l-.055-2-.055-1.999c-1.933.053-3.331.08-4.209.08zm4.264-.08.055 1.999c1.944-.054 3.383-.08 4.329-.08v-4c-1.002 0-2.486.028-4.439.081zm4.384-.08v2h3.364v-4h-3.364zm3.364 0v2a1.9 1.9 0 0 1-.835-.192l.895-1.789.894-1.788c-.042-.022-.431-.232-.954-.232zm.06.02-.725 1.863-.016-.006-.044-.022a1.3 1.3 0 0 1-.185-.124 1.7 1.7 0 0 1-.582-.957l1.952-.434 1.952-.434a2.3 2.3 0 0 0-.823-1.298 3 3 0 0 0-.805-.453zm.4.32-1.98.283.02.14 1.98-.283 1.98-.283-.02-.14zm.02.14-1.875.696q.716 1.928 1.452 3.998l1.884-.67 1.885-.67a320 320 0 0 0-1.471-4.05zm1.461 4.024-1.884.67q.737 2.07 1.755 5.026l1.891-.651 1.891-.652a575 575 0 0 0-1.768-5.064zm1.762 5.045-1.889.655q1.021 2.944 1.427 4.081l1.884-.672 1.883-.673a603 603 0 0 1-1.415-4.047zm1.422 4.064h2v-2.963h-4v2.963zm0-2.963 1.996.113c.267-4.698.404-8.085.404-10.123h-4c0 1.913-.13 5.199-.397 9.896zm.4-10.01h2c0 .408-.167.876-.545 1.22-.31.281-.608.338-.657.347l-.358-1.967-.357-1.968a2.64 2.64 0 0 0-1.318.628 2.33 2.33 0 0 0-.765 1.74zm.44-.4.358 1.967c.108-.02.412-.048 1.004-.048v-4c-.636 0-1.24.026-1.719.113zm1.362-.08v2h6.846v-4h-6.846zm12.961 26.826-1.715 1.029.583.97h1.132zm-.48-.841h-2v.472l.211.422zm0-26.306v-2h-2v2zm9.169 0v2h.076l.077-.006zm.4 0-.283 1.98.141.02h.142zm.38.02-.166 1.993.013.001zm.421.08-.702 1.873.106.04.111.028zm.32.14-1.06 1.696.119.075.129.057zm.28.24-1.696 1.06.045.073.051.068zm.161.361h2v-.198l-.039-.194zm0 8.889h-2l3.788.894zm1.841-3.804-1.8-.871-.006.012zm1.762-3.604 1.789.895.012-.024.011-.025zm.981-2.102-.063-1.999-1.229.04-.52 1.114zm1.902-.06v-2h-.032l-.031.001zm1.201.04-.1 1.998h.003zm3.183.02-.125-1.996h-.008zm1.902-.06v-2h-.198l-.194.04zm2.883 1.242-1.6-1.2-.049.065-.043.068zm-3.103 5.345 1.741.983.002-.004zm-3.524 5.825-1.651-1.128-.712 1.041.633 1.091zm7.828 13.494h2v-.538l-.27-.466zm-.02.44-1.961-.392-.039.194v.198zm-.02.14 1.789.895.063-.128.045-.134zm-.06.12-1.789-.894-.064.127-.045.135zm-.08.12-1.414-1.414zm-.1.1-.128 1.996.903.058.639-.64zm-11.411-.08h-2v2h2zm0-.56h2v-.548l-.28-.472zm-1.382-2.122-1.661 1.114zm-1.541-2.483-1.772.928.003.007.004.007zm-2.242-4.284 1.771-.927-3.771.927zm0 8.889 1.887.66.113-.32v-.34zm-10.651.8 1.715-1.028a14 14 0 0 1-.407-.707l-1.788.895-1.789.894c.119.238.316.58.554.976zm-.48-.84h2V4.242h-4v26.306zm0-26.306v2h8.848v-4h-8.848zm8.848 0v2h.321v-4h-.321zm.321 0 .153 1.994.077-.004h-.025l-.088-.01.283-1.98.283-1.98a4 4 0 0 0-.837-.014zm.4 0v2l.06.002.154.011.166-1.993.166-1.993a7 7 0 0 0-.546-.027zm.38.02-.153 1.994q.04.005.014 0a1 1 0 0 1-.142-.041l.702-1.873.702-1.872a3.5 3.5 0 0 0-.969-.202zm.421.08-.485 1.94a.9.9 0 0 1-.255-.104l1.06-1.696 1.06-1.696a3.1 3.1 0 0 0-.895-.384zm.32.14-.812 1.828a1.4 1.4 0 0 1-.604-.527l1.696-1.06 1.696-1.06c-.287-.46-.696-.8-1.164-1.008zm.28.24-1.6 1.2a1.1 1.1 0 0 1-.201-.447l1.962-.392 1.961-.392a2.9 2.9 0 0 0-.522-1.168zm.161.361h-2v8.889h4V5.083zm0 8.889 1.788.894q.675-1.349 1.859-3.839l-1.806-.859-1.806-.86a231 231 0 0 1-1.824 3.77zm1.841-3.804 1.801.871a328 328 0 0 1 1.75-3.58l-1.789-.895-1.789-.894q-.57 1.141-1.773 3.627zm1.762-3.604 1.812.846.981-2.102-1.812-.846-1.812-.845-.981 2.102zm.981-2.102.063 2 1.902-.06-.063-2-.063-1.999-1.902.06zm1.902-.06v2c.215 0 .575.012 1.101.038l.1-1.998.1-1.997a28 28 0 0 0-1.301-.043zm1.201.04-.097 1.998c.551.027.993.042 1.298.042v-4c-.201 0-.561-.01-1.104-.037zm1.201.04v2h1.522v-4h-1.522zm1.522 0v2c.174 0 .38-.01.593-.024l-.133-1.996-.133-1.995a6 6 0 0 1-.327.015zm.46-.02.125 1.997a13 13 0 0 1 .328-.017h.008v-4c-.162 0-.37.01-.586.024zm.461-.02v2h1.161v-4h-1.161zm1.161 0v2c.275 0 .548-.054.672-.079l-.392-1.96-.392-1.962q-.066.014-.061.011l.039-.004a1 1 0 0 1 .134-.006zm.28-.04v2c1.058 0 1.749.041 2.139.099.215.032.204.05.089 0a1.5 1.5 0 0 1-.475-.343 1.84 1.84 0 0 1-.51-1.275h4c0-1.385-1.166-1.938-1.39-2.038a4.4 4.4 0 0 0-1.128-.301c-.691-.102-1.621-.142-2.725-.142zm3.243.48h-2c0-.164.026-.293.048-.373a1 1 0 0 1 .055-.152c.016-.034.007-.008-.063.087l1.6 1.2 1.6 1.2c.26-.347.76-1.065.76-1.961zm-.36.762-1.692-1.067c-.644 1.023-1.701 2.845-3.155 5.432l1.744.98 1.743.98c1.456-2.592 2.468-4.333 3.052-5.26zm-3.103 5.345-1.742-.984c-1.446 2.561-2.587 4.444-3.433 5.68l1.651 1.13 1.651 1.128c.943-1.379 2.151-3.38 3.614-5.97zm-3.524 5.825-1.73 1.004 7.828 13.493 1.73-1.003 1.73-1.004-7.828-13.493zm7.828 13.494h-2v.139h4v-.139zm0 .14h-2v.159h4v-.159zm0 .16h-2a2 2 0 0 1 .015-.228l.004-.024 1.961.392 1.961.392a2.7 2.7 0 0 0 .059-.532zm-.02.14h-2c0-.107.013-.283.083-.492l1.897.632 1.897.633a2.4 2.4 0 0 0 .123-.773zm-.02.14-1.789-.894-.06.12 1.789.894 1.789.895.035-.07.014-.028.005-.012.003-.005.001-.003.002-.002zm-.06.12-1.898-.632c.113-.338.296-.554.404-.662l1.414 1.414 1.414 1.415c.188-.188.424-.485.563-.902zm-.08.12-1.414-1.414-.101.1 1.415 1.415 1.414 1.414.001-.001.001-.001.002-.002.003-.004.008-.007.014-.014.026-.026.045-.045zm-.1.1.127-1.995c-1.32-.085-3.24-.125-5.733-.125v4c2.473 0 4.289.04 5.478.117zm-5.606-.12v-2q-.533 0-1.58.02l.039 2 .038 2c.692-.013 1.19-.02 1.503-.02zm-1.541.02-.039-2c-.692.014-1.189.02-1.503.02v4c.354 0 .884-.007 1.58-.02zm-1.542.02v-2h-2.722v4h2.722zm-2.722 0h2v-.56h-4v.56zm0-.56 1.72-1.02c-.247-.416-.739-1.17-1.441-2.216l-1.661 1.114-1.661 1.114c.713 1.063 1.142 1.724 1.322 2.028zm-1.382-2.122 1.661-1.114c-.696-1.038-1.165-1.8-1.438-2.31l-1.764.941-1.765.942c.368.69.927 1.584 1.645 2.655zm-1.541-2.483 1.772-.927-2.243-4.284-1.771.927-1.772.928 2.242 4.284zm-2.242-4.284h-2v8.889h4v-8.889zm0 8.889-1.888-.66a1.2 1.2 0 0 1 .332-.499c.114-.099.196-.125.181-.12a1.2 1.2 0 0 1-.232.047q-.217.031-.596.033v4c.744 0 1.514-.073 2.195-.32.705-.257 1.536-.793 1.895-1.82zm-2.203.8v-2h-8.448v4h8.448zm35.844-19.618 1.537-1.28zm-.46-.48-1.415 1.413.029.029.029.027zm-2.803-.501.221 1.987.045-.005.046-.007zm-.881 1.481-1.228 1.579.048.037.051.035zm.841.38-.505 1.936.048.012.049.01zm1.061.26-.532 1.929.039.01.038.01zm.841.26-.895 1.79.201.1.218.053zm2.943.722.533-1.928-.029-.008-.029-.007zm4.544 1.861-1.033 1.713.017.01.017.01zm3.263 3.644-1.853.753.005.01zm.04 6.066h-2l3.898.632zm0-.04h2l-3.9-.624zm-1.181 2.302 1.592 1.21.006-.007.006-.008zm-1.802 1.682 1.072 1.688.011-.007.012-.007zm-2.102 1.12.767 1.848.015-.006.015-.007zm-2.462.721.37 1.966.011-.002.011-.002zm-2.482.4.22 1.989.016-.002.016-.002zm-2.503.221-.101 1.998.121.006.121-.009zm-8.448-2.002h-2v.973l.765.6zm0-.24h2v-1.002l-.803-.6zm-2.703-2.963-1.761.947.004.008.005.009zm-1.021-3.604h-2v.08l.007.08zm3.203-.44v2h.142l.141-.02zm1.602 0-.633 1.897.342.114.36-.012zm5.846.8-1.898.633.022.066.026.063zm.3.702-1.828.812.028.063.032.06zm3.183.42 1.084 1.68.007-.004.006-.004zm-1.942-2.883-.588 1.912.01.003.01.003zm-2.582-.68.588-1.912-.288-.088h-.3zm-1.202 0-.565 1.918.277.082h.288zm-6.266-3.244-1.443 1.385.007.008.008.007zm-1.161-8.608-1.806-.858-.005.01-.004.008zm1.982-2.623-1.27-1.544-.007.005-.006.005zm2.903-1.701.758 1.85.01-.003.009-.004zm3.383-.981.322 1.974.011-.002.011-.002zm9.61.8-.736 1.86.008.003.008.004zm4.244 2.823L252.53 8.72l.06.073.067.067zm1.241 2.603-1.973.329.008.048.011.048zm.24 1.561 1.639 1.147.443-.633-.098-.766zm-.56.801v2h1.041l.597-.853zm-7.287-.08v-2a1 1 0 0 1-.133-.008l.023.006.08.032-.851 1.81-.852 1.81c.584.274 1.197.35 1.733.35zm-.881-.16.851-1.81c-.015-.007.057.024.145.13l-1.537 1.28-1.536 1.28c.354.425.787.723 1.225.93zm-.541-.4 1.537-1.28a7 7 0 0 0-.641-.67l-1.356 1.47-1.357 1.469q.176.163.281.29zm-.46-.48 1.414-1.415c-.503-.503-1.133-.758-1.627-.904l-.568 1.918-.568 1.917.097.033.024.01a1 1 0 0 1-.187-.145zm-.781-.401.568-1.918c-.611-.181-1.281-.242-1.949-.242v4c.452 0 .703.045.813.077zm-1.381-.16v-2c-.315 0-.64.035-.953.084l.312 1.976.312 1.975a2.4 2.4 0 0 1 .329-.035zm-.641.06-.221-1.988a4.4 4.4 0 0 0-1.474.459l.894 1.789.895 1.789a1 1 0 0 1 .144-.062c.024-.008.017-.003-.017 0zm-.801.26-.894-1.789c-.628.314-1.546 1.045-1.546 2.35h4c0 .356-.128.684-.318.925-.164.21-.325.291-.347.303zm-.44.56h-2c0 .997.514 1.759 1.132 2.24l1.228-1.579 1.228-1.579c.051.04.161.14.258.316.102.187.154.398.154.602zm.36.661-1.129 1.65c.45.309.942.53 1.465.666l.505-1.936.505-1.935a.7.7 0 0 1-.217-.096zm.841.38-.408 1.958q.405.085.937.23l.532-1.927.532-1.928a19 19 0 0 0-1.185-.29zm1.061.26-.455 1.948q.254.06.374.098l.071.024c.01.004-.008-.002-.044-.02l.895-1.79.894-1.788c-.389-.195-.873-.324-1.281-.419zm.841.26-.476 1.944 2.943.72.476-1.942.475-1.943-2.943-.72zm2.943.722-.534 1.927q1.225.34 2.158.7l.718-1.867.718-1.866a28 28 0 0 0-2.527-.822zm2.342.76-.718 1.867c.564.217 1.192.528 1.887.947l1.033-1.713 1.033-1.712a16 16 0 0 0-2.517-1.255zm2.202 1.101-.999 1.733c.646.372 1.134.76 1.495 1.15l1.466-1.361 1.466-1.361c-.68-.732-1.5-1.358-2.429-1.893zm1.962 1.522-1.466 1.36c.326.351.64.84.914 1.515l1.853-.753 1.853-.753c-.42-1.034-.973-1.96-1.688-2.73zm1.301 2.122-1.848.763c.236.572.369 1.237.369 2.02h4c0-1.246-.214-2.437-.672-3.546zm.521 2.783h-2c0 1.057-.138 1.931-.378 2.65l1.897.633 1.898.632c.401-1.203.583-2.517.583-3.915zm-.481 3.283h2v-.04h-4v.04zm0-.04-1.9-.624a6 6 0 0 1-.885 1.731l1.604 1.195 1.604 1.195a10 10 0 0 0 1.478-2.874zm-1.181 2.302-1.592-1.21c-.371.487-.803.89-1.304 1.218l1.094 1.674 1.095 1.674a9.2 9.2 0 0 0 2.299-2.146zm-1.802 1.682-1.071-1.689q-.918.581-1.827.975l.796 1.835.797 1.834a17 17 0 0 0 2.377-1.267zm-2.102 1.12-.766-1.846c-.562.233-1.253.44-2.088.606l.392 1.962.392 1.96c1.033-.206 1.984-.48 2.837-.834zm-2.462.721-.37-1.965q-1.337.252-2.365.382l.253 1.984.252 1.984q1.174-.15 2.6-.419zm-2.482.4-.221-1.987q-1.031.115-2.422.213l.14 1.995.141 1.995a65 65 0 0 0 2.582-.227zm-2.503.221.102-1.997c-2.031-.103-3.656-.313-4.906-.61-1.275-.302-2.019-.661-2.409-.968l-1.235 1.573-1.235 1.573c1.037.815 2.416 1.35 3.957 1.715 1.566.37 3.451.601 5.625.712zm-8.448-2.002h2v-.24h-4v.24zm0-.24 1.197-1.602c-1.04-.777-1.727-1.56-2.147-2.325l-1.753.964-1.752.964c.754 1.37 1.869 2.563 3.258 3.601zm-2.703-2.963 1.762-.947c-.43-.8-.702-1.728-.789-2.816l-1.994.16-1.993.159c.126 1.581.535 3.055 1.253 4.39zm-1.021-3.604h2c0 .108-.021.561-.415.992a1.6 1.6 0 0 1-1.144.528v-4c-.502 0-1.233.145-1.805.769-.542.59-.636 1.284-.636 1.712zm.441-.48v2l.039.002.155.011.166-1.993.166-1.993a7 7 0 0 0-.526-.027zm.36.02-.166 1.993c.172.015.36.027.526.027v-4l-.039-.002-.155-.011zm.36.02v2h2.042v-4h-2.042zm2.042 0 .283 1.98c.046-.007.201-.02.518-.02v-4c-.377 0-.756.013-1.084.06zm.801-.04v2h.521v-4h-.521zm.521 0v2c-.054 0-.183-.006-.353-.062l.633-1.898.632-1.897a2.9 2.9 0 0 0-.912-.143zm.28.04.069 1.999c.736-.026 2.026-.039 3.895-.039v-4c-1.869 0-3.221.013-4.033.041zm3.964-.04v2h.921v-4h-.921zm.921 0v2c-.065 0-.199-.01-.367-.075a1.3 1.3 0 0 1-.487-.333l1.474-1.352 1.475-1.351c-.61-.665-1.406-.889-2.095-.889zm.62.24-1.474 1.352c-.072-.079-.089-.136-.083-.119l1.898-.632 1.897-.633a3.6 3.6 0 0 0-.763-1.32zm.341.6-1.85.762q.152.368.322.752l1.828-.812 1.827-.813a29 29 0 0 1-.278-.65zm.3.702-1.768.935c.352.665.896 1.109 1.431 1.4l.957-1.755.958-1.756c-.052-.028.078.029.189.24zm.62.58-.957 1.756c.688.375 1.44.484 2.119.484v-4c-.132 0-.21-.01-.246-.018-.034-.007-.012-.007.042.022zm1.162.24v2c.882 0 1.729-.232 2.485-.72l-1.084-1.68-1.084-1.68a.54.54 0 0 1-.317.08zm1.401-.4 1.097 1.672c1.004-.658 1.544-1.694 1.544-2.873h-4c0-.02.006-.121.075-.25a.6.6 0 0 1 .187-.221zm.641-1.201h2c0-.943-.467-1.664-.97-2.137l-1.371 1.456-1.37 1.457a.8.8 0 0 1-.163-.232 1.2 1.2 0 0 1-.126-.544zm-.341-.68 1.371-1.457c-.493-.464-1.102-.772-1.677-.992l-.715 1.868-.714 1.868c.154.058.257.109.321.145.066.038.071.05.044.024zm-1.021-.581.715-1.868a19 19 0 0 0-1.368-.47l-.568 1.917-.568 1.918q.447.131 1.075.37zm-1.221-.42.588-1.912a28 28 0 0 0-1.534-.412l-.475 1.943-.475 1.943c.585.143 1.015.259 1.308.349zm-1.421-.381.475-1.943c-.616-.15-.942-.236-1.048-.269l-.588 1.912-.589 1.911c.241.074.689.188 1.275.332zm-1.161-.3v-2h-1.202v4h1.202zm-1.202 0 .566-1.919c-2.757-.813-4.468-1.77-5.403-2.724l-1.429 1.4-1.428 1.399c1.627 1.661 4.094 2.867 7.129 3.762zm-6.266-3.244 1.443-1.384c-.873-.91-1.345-2.065-1.345-3.62h-4c0 2.474.797 4.656 2.459 6.39zm-1.902-5.004h2c0-1.084.2-1.993.556-2.764l-1.815-.84-1.815-.84c-.631 1.365-.926 2.858-.926 4.443zm.741-3.604 1.807.858c.397-.837.889-1.47 1.458-1.946l-1.283-1.535-1.283-1.534c-1.059.886-1.889 2-2.505 3.299zm1.982-2.623 1.271 1.545c.656-.54 1.446-1.009 2.39-1.396l-.758-1.85-.758-1.851c-1.272.52-2.417 1.186-3.415 2.008zm2.903-1.701.777 1.843q1.45-.611 2.928-.85l-.322-1.974-.321-1.974a16.8 16.8 0 0 0-3.839 1.112zm3.383-.981.344 1.97q1.542-.27 3.22-.27v-4q-2.006 0-3.907.33zm3.564-.3v2c1.946 0 3.709.327 5.31.96l.736-1.86.735-1.86c-2.109-.834-4.377-1.24-6.781-1.24zm6.046 1.1-.72 1.867c1.65.636 2.741 1.407 3.423 2.231l1.541-1.275 1.541-1.275c-1.24-1.498-2.979-2.609-5.066-3.413zm4.244 2.823-1.414 1.415c.125.125.268.324.398.65l1.857-.743 1.856-.743a5.9 5.9 0 0 0-1.283-1.993zm.841 1.322-1.857.742c.194.486.266.758.284.868l1.973-.33 1.973-.328c-.089-.53-.284-1.113-.517-1.695zm.4 1.28-1.954.426c.046.213.117.656.21 1.389l1.984-.253 1.984-.252a22 22 0 0 0-.27-1.734zm.24 1.562-1.638-1.146-.561.8 1.639 1.147 1.638 1.147.561-.8zm-.56.801v-2h-3.404v4h3.404zm-3.404 0v-2c-.34 0-.933-.012-1.8-.039l-.061 2-.062 1.998c.868.027 1.516.041 1.923.041zm-1.861-.04.061-1.999a72 72 0 0 0-2.083-.04v4c.449 0 1.099.012 1.96.038zM2 74.428H0v.547l.278.47zm.2-25.845 1.147 1.638.053-.037.05-.04zm.36-.16v2h.111l.11-.013zm19.8.04-1.03 1.714.138.083.15.06zm.16.1-1.414 1.414.14.14.165.11zm.08.16-1.973.328.006.032.006.032zm.02.16h-2v.324l.103.308zm0 .18-1.973-.329-.027.163v.166zm0 6.947v2h2v-2zm-9.369 0v-2h-2v2zm.08 2.002-1.994.153.142 1.847h1.852zm1.882 0v2h.071l.071-.005zm1-.12.276 1.98.023-.002.022-.004zm3.644-.16v-2h-.142l-.14.02zm2.243.64h2v-.246l-.06-.239zm-.04 2.342 1.997.103v-.003zm-.04 2.983h-2v.246l.06.24zm.04 1.362 1.984.248.016-.124v-.124zm-4.485.68-.062-1.999h-.001zm-4.204.04v-2h-2v2zm0 9.53v2h2v-2zm-10.85 0L.799 76.326l.58.983h1.142zM2 74.428h2V49.043H0v25.385zm0-25.385h2c0 .095-.014.288-.116.522a1.57 1.57 0 0 1-.537.656L2.2 48.583l-1.147-1.639C.225 47.524 0 48.401 0 49.043zm.2-.46 1.25 1.561a1 1 0 0 1-.247.146 1.6 1.6 0 0 1-.642.132v-4c-.763 0-1.32.367-1.61.599zm.36-.16.221 1.987c-.017.002.005 0 .092-.004q.118-.004.328-.004v-4c-.302 0-.618.005-.861.033zm.641-.02v2H22.1v-4H3.2zm18.899 0v2c-.127 0-.43-.022-.77-.226l1.03-1.715 1.029-1.715a2.5 2.5 0 0 0-1.29-.345zm.26.06-.743 1.856a1.5 1.5 0 0 1-.511-.342l1.414-1.414 1.414-1.415a2.5 2.5 0 0 0-.831-.543zm.16.1-1.11 1.664a1.85 1.85 0 0 1-.629-.71 1.7 1.7 0 0 1-.154-.466l1.973-.328 1.973-.33c-.045-.269-.211-1.006-.944-1.495zm.08.16-1.961.392-.008-.054a1.4 1.4 0 0 1-.01-.178h4c0-.232-.036-.433-.06-.553zm.02.16-1.897.632a1.8 1.8 0 0 1-.093-.557c0-.11.012-.19.017-.224l1.973.329 1.973.329c.026-.157.098-.62-.076-1.142zm0 .18h-2v.14h4v-.14zm0 .14h-2v6.807h4v-6.807zm0 6.807v-2h-9.369v4h9.37zm-9.369 0h-2v.72h4v-.72zm0 .72h-2c0 .256.035.774.086 1.435l1.994-.153 1.994-.154a59 59 0 0 1-.071-1.048l-.003-.08zm.08 1.282v2h1.882v-4H13.33zm1.882 0 .142 1.995c.262-.02.657-.068 1.134-.134l-.275-1.981-.275-1.981a17 17 0 0 1-.869.106zm1-.12.321 1.974c.456-.074.72-.094.841-.094v-4c-.44 0-.95.06-1.481.145zm1.162-.12v2h1.642v-4h-1.642zm1.642 0v2c.395 0 .791-.013 1.123-.06l-.283-1.98-.282-1.98c-.042.005-.207.02-.558.02zm.84-.04v2c.386 0 .693.047.938.118l.564-1.918.564-1.92a7.3 7.3 0 0 0-2.066-.28zm1.502.2-.564 1.918c.155.046.15.06.067.01a1.4 1.4 0 0 1-.292-.24 1.73 1.73 0 0 1-.41-.763l1.94-.485 1.94-.485c-.217-.868-.867-1.306-1.133-1.464a4.3 4.3 0 0 0-.984-.41zm.74.44h-2v1.161h4v-1.16zm0 1.161h-2c0 .201-.01.553-.037 1.081l1.998.1 1.997.1c.027-.539.043-.974.043-1.28zm-.04 1.181-1.997-.102a27 27 0 0 0-.043 1.283h4c0-.214.012-.566.038-1.078zm-.04 1.181h-2v1.802h4v-1.802zm0 1.802-1.94.485a1 1 0 0 1-.024-.12q-.002-.023 0-.002l.003.071.002.127h4c0-.265-.007-.675-.1-1.046zm.04.56h-2v.802h4v-.801zm0 .802-1.984-.248a1.41 1.41 0 0 1 .717-1.05c.205-.105.28-.062.026-.062v4c.52 0 1.19-.063 1.808-.383.737-.38 1.302-1.08 1.418-2.01zm-1.24.64v-2h-1.282v4h1.281zm-1.282 0v-2c-.485 0-1.164.014-2.024.041l.062 2 .063 1.998a68 68 0 0 1 1.9-.039zm-1.962.04-.063-1.999c-.834.027-1.463.04-1.899.04v4c.499 0 1.178-.015 2.026-.042zm-1.962.04v-2h-2.242v4h2.242zm-2.242 0h-2v9.53h4v-9.53zm0 9.53v-2H2.521v4h10.85zm-10.85 0 1.721-1.018-.52-.88L2 74.427.278 75.445l.52.881zm21.89-13.694h2v-.09l-.009-.09zm-.04-.44-1.987-.232-.024.206.019.207zm.72-4.545 1.933.514.003-.01zm3.284-5.505 1.414 1.414.054-.054.05-.058zm2.922-1.922v-2h-.392l-.363.148zm.761 0v2h.402l.37-.155zm6.446-1.521v-2h-.155l-.153.024zm2.343.18-.292 1.978.018.003.018.002zm2.742.56-.515 1.933.012.003.012.003zm2.883 1.242-1.058 1.697.015.009.014.009zm2.322 2.021h2v-.687l-.422-.542zm0 .561h-2v.702l.439.547zm.641 18.578 1.562 1.25.028-.035.026-.036zm-.8 1.001 1.556 1.256.005-.006zm-2.303 1.962-1.022-1.72-.01.007zm-2.903 1.261.526 1.93.012-.003.012-.004zm-2.963.6-.251-1.983h-.004zm-6.746-.3-.52 1.932.013.003.012.004zm-3.504-1.54-1.08 1.682.01.006zm-2.863-2.563-1.55 1.264zm-2.021-3.664-1.887.664.004.01.003.011zm-.921-4.765h-2v.062l.003.061zm14.974 5.726-.894-1.789-.013.007-.013.006zm1.762-3.543-1.988-.221-.002.021-.002.022zm.12-1.582-1.996-.117-.002.029-.001.03zm-.5-6.286-1.923.55.006.023.008.023zm-.881-1.562-1.415 1.415.013.011.012.012zM24.41 61.615l1.991-.18-.04-.441-1.991.18-1.992.182.04.44zm-.04-.44 1.986.231c.254-2.178.482-3.563.667-4.262l-1.933-.514-1.933-.513c-.268 1.009-.52 2.654-.774 4.826zm.72-4.545 1.936.504c.439-1.688 1.206-3.04 2.281-4.114l-1.414-1.415-1.414-1.414c-1.621 1.621-2.722 3.62-3.324 5.936zm2.803-5.025 1.414 1.415.48-.48-1.413-1.415-1.415-1.414-.48.48zm.48-.48 1.519 1.302c.364-.425 1.027-.91 2.16-1.372l-.756-1.852-.755-1.852c-1.483.606-2.768 1.402-3.686 2.472zm2.923-1.922v2h.761v-4h-.76zm.761 0 .772 1.845c1.07-.448 3.015-.927 5.983-1.39l-.309-1.976-.308-1.976c-3.012.47-5.364 1.005-6.91 1.652zm6.446-1.521v2q.96-.001 2.05.158l.293-1.978.292-1.979a18 18 0 0 0-2.635-.201zm2.343.18-.256 1.983c.722.093 1.548.26 2.483.51l.515-1.933.516-1.932a23 23 0 0 0-3.002-.612zm2.742.56-.49 1.94c.79.2 1.56.529 2.315.999l1.058-1.697 1.058-1.698a12.1 12.1 0 0 0-3.45-1.482zm2.883 1.242-1.029 1.715c.743.445 1.325.96 1.774 1.536l1.577-1.23 1.578-1.23c-.779-.998-1.745-1.83-2.87-2.506zm2.322 2.021h-2v.561h4v-.56zm0 .561-1.561 1.25c1.914 2.392 2.845 5.024 2.845 7.96h4c0-3.873-1.258-7.38-3.722-10.46zm3.284 9.21h-2c0 3.525-.809 6.202-2.259 8.19l1.616 1.178 1.616 1.179c2.073-2.844 3.027-6.413 3.027-10.548zm-2.643 9.368-1.562-1.25-.8 1.002 1.561 1.25 1.562 1.249.8-1.001zm-.8 1.001-1.557-1.256c-.451.559-1.032 1.061-1.768 1.499l1.022 1.72 1.022 1.719c1.105-.657 2.06-1.463 2.837-2.426zm-2.303 1.962-1.033-1.713a10 10 0 0 1-2.42 1.051l.55 1.923.55 1.923a14 14 0 0 0 3.386-1.471zm-2.903 1.261-.526-1.93q-1.421.388-2.688.547l.251 1.984.252 1.984q1.576-.2 3.237-.655zm-2.963.6-.255-1.983q-1.276.165-2.547.164v4q1.53 0 3.057-.196zm-2.802.181v-2q-1.826-.002-3.45-.418l-.494 1.938-.495 1.938q2.14.543 4.439.542zm-3.944-.48.519-1.932a10.6 10.6 0 0 1-2.952-1.299l-1.07 1.69-1.072 1.688A14.6 14.6 0 0 0 33.2 77.28zm-3.504-1.542 1.08-1.683q-1.349-.865-2.393-2.144l-1.55 1.265-1.55 1.264a14.2 14.2 0 0 0 3.333 2.981zm-2.863-2.562 1.55-1.265c-.665-.815-1.236-1.833-1.692-3.084l-1.88.685-1.878.685c.585 1.605 1.361 3.03 2.35 4.243zm-2.021-3.664 1.886-.664c-.438-1.245-.714-2.648-.811-4.223l-1.996.122-1.997.123c.117 1.895.455 3.668 1.03 5.306zm-.921-4.765h2v-1.2h-4v1.2zm11.01-1.04h-2c0 2.418.223 4.475.802 5.996.295.775.729 1.535 1.39 2.114a3.73 3.73 0 0 0 2.491.936v-4s.03.001.074.018a.3.3 0 0 1 .051.024l.019.013c-.01-.008-.135-.128-.287-.528-.315-.828-.54-2.294-.54-4.574zm2.683 7.046v2c.746 0 1.502-.142 2.202-.505l-.92-1.775-.921-1.776c-.021.011-.119.056-.361.056zm1.281-.28.895 1.789a4.15 4.15 0 0 0 1.731-1.638l-1.725-1.012-1.725-1.011a.3.3 0 0 1-.052.07l-.018.013zm.901-.86 1.725 1.01q.428-.726.713-1.503l-1.877-.689-1.878-.689a5.3 5.3 0 0 1-.408.859zm.56-1.182 1.878.689c.227-.618.352-1.304.415-2.013l-1.992-.177-1.992-.177c-.044.491-.119.806-.186.99zm.301-1.501 1.988.22q.107-.959.131-1.743l-1.999-.059-1.999-.059a18 18 0 0 1-.109 1.42zm.12-1.582 1.997.117q.044-.759.043-1.759h-4q0 .922-.036 1.525zm.04-1.642h2v-.72h-4v.72zm0-.72h2q0-1.157-.135-2.25l-1.985.248-1.984.248q.104.828.104 1.754zm-.12-2.002 1.985-.248a13 13 0 0 0-.496-2.27l-1.91.596-1.908.596q.248.797.345 1.574zm-.42-1.922 1.923-.55c-.262-.917-.71-1.77-1.414-2.45l-1.39 1.438-1.39 1.438c.097.094.236.283.348.673zm-.881-1.562 1.414-1.414a4 4 0 0 0-2.876-1.186v4q.04 0 .044.003l-.008-.003-.008-.004-.004-.002.006.005.017.016zm-1.462-.6v-2c-.845 0-1.674.214-2.413.7-.727.477-1.251 1.144-1.623 1.877-.714 1.41-.967 3.27-.967 5.349h4c0-1.872.248-2.974.535-3.54.13-.255.23-.33.254-.345.012-.008.058-.041.214-.041zm-3.003 5.926h-2v.88h4v-.88zm20.77-12.333v-2h-2v2zm17.917.02-.255 1.984h.003zm2.783.661-.666 1.886.009.003zm2.342 1.221-1.221 1.584.008.006.008.006zm1.581 1.962-1.794.883.006.012zm-3.563 9.11-.894-1.79-3.857 1.929 3.963 1.698zm2.402 1.941-1.59 1.212.017.024.019.022zm.641 1.421-1.916.575.007.023.008.023zm.38 1.302-1.965.368.002.012.002.012zm.26 1.521-1.973.324.008.048.01.047zm.08.42 1.99-.198-.003-.042-.006-.042zm.681 2.944-1.925.54v.004zm-3.483 4.003-.016-2zm-3.604.02-.166 1.993.083.007h.083zm-2.802-.04-.575 1.916.281.084h.294zm-1.322-3.763 1.988-.227-.002-.01v-.009zm-.44-3.564 1.985-.245-.018-.143-.037-.138zm-.2-.62-1.916.574.037.122.051.116zm-.24-.46-1.683 1.08.019.03.02.028zm-.5-.381-.633 1.897.017.006.019.006zm-1.703-.1v-2h-2v2zm-.02 8.688 1.79.895.063-.128.045-.134zm-.1.24-1.414-1.414zm-.08.08 1.414 1.415zm-.12.06-.485-1.94-.075.019-.072.024zm-.16.04-.392-1.96-.047.009-.046.011zm-10.73.02h-2v2h2zm11.33-16.175h-2v.828l.586.586zm.12.18-1.736.992.034.06.039.057zm.321.3-.485 1.94.239.06h.246zm1.201-.12.392 1.961.032-.006.03-.007zm1.221-.44-.849-1.811-.01.005-.012.005zm1.021-.921-1.68-1.084-.013.019-.012.02zm-3.603-3.564v-2h-.246l-.24.06zM56.19 48.563v2h3.724v-4H56.19zm3.724 0v2c1.17 0 3.024-.028 5.548-.081l-.043-2-.042-2c-2.52.054-4.338.08-5.463.08zm5.505-.08.043 1.999c2.52-.053 4.39-.08 5.623-.08v-4q-1.917 0-5.708.08zm5.666-.08v2q1.511 0 2.768.163l.255-1.983.255-1.984a26 26 0 0 0-3.278-.197zm3.023.18-.252 1.984q1.209.153 2.369.562l.666-1.886.665-1.886a15.4 15.4 0 0 0-3.197-.759zm2.783.66-.657 1.89c.758.263 1.339.577 1.778.915l1.22-1.584 1.222-1.584c-.842-.649-1.823-1.149-2.906-1.526zm2.342 1.221-1.205 1.596c.378.286.714.685.992 1.249l1.794-.883 1.795-.882c-.523-1.065-1.241-1.974-2.17-2.676zm1.581 1.962-1.788.895c.239.477.39 1.09.39 1.888h4c0-1.31-.25-2.553-.813-3.677zm.601 2.783h-2c0 1.134-.261 1.974-.688 2.62l1.667 1.104 1.667 1.104c.935-1.41 1.354-3.053 1.354-4.828zm-1.02 3.724-1.668-1.105c-.44.664-1.182 1.324-2.37 1.918l.894 1.79.894 1.788c1.642-.82 2.995-1.896 3.916-3.287zm-3.144 2.602-.788 1.838c.364.156.651.347.883.564l1.366-1.46 1.367-1.461a7 7 0 0 0-2.04-1.32zm1.461.941-1.366 1.46c.375.351.599.599.716.753l1.591-1.212 1.591-1.212c-.31-.406-.713-.826-1.165-1.25zm.941 1.001L78.1 64.735c-.03-.037-.003-.013.061.13.061.134.136.332.218.608l1.916-.575 1.916-.574c-.219-.728-.522-1.512-1.002-2.105zm.641 1.421-1.901.621q.154.473.237.756l.061.222.018.071 1.965-.368 1.966-.369c-.068-.365-.24-.925-.445-1.553zm.38 1.302-1.96.392c.03.158.111.626.247 1.453l1.974-.324 1.973-.323a63 63 0 0 0-.273-1.59zm.26 1.521-1.955.42c.038.177.053.261.056.283l1.98-.282 1.98-.283a9 9 0 0 0-.105-.557zm.08.42-1.99.2c.074.732.35 1.874.746 3.283l1.925-.54 1.926-.54c-.405-1.446-.583-2.266-.616-2.601zm.681 2.944-1.924.544c.388 1.37.525 2.242.525 2.719h4c0-1.045-.263-2.349-.676-3.808zm.6 3.263h-2c0 .101-.026-.158.184-.503a1.63 1.63 0 0 1 1.377-.777v4a2.36 2.36 0 0 0 2.036-1.137c.358-.585.404-1.204.404-1.583zm-.44.72v-2q-1.214 0-3.66.02l.017 2 .016 2q2.44-.02 3.628-.02zm-3.643.02-.017-2q-2.419.02-3.587.02v4q1.195 0 3.62-.02zm-3.604.02.166-1.993a21 21 0 0 0-1.607-.047v4c.628 0 1.04.014 1.275.034zm-1.441-.04v-2h-1.361v4h1.361zm-1.361 0 .574-1.915c.304.09.499.244.594.333q.075.072.101.109.029.037.028.038l-.016-.029-.042-.088a4 4 0 0 1-.126-.331l-1.894.642-1.894.643c.15.443.338.898.586 1.293.212.336.677.97 1.514 1.221zm-.781-1.24 1.894-.643c-.2-.59-.354-1.289-.447-2.107l-1.988.227-1.987.227c.12 1.05.327 2.033.634 2.938zm-.54-2.523 1.984-.246-.44-3.563-1.985.245-1.985.246.44 3.563zm-.441-3.564 1.93-.526a7 7 0 0 0-.303-.907l-1.827.813-1.828.812c-.014-.033-.01-.027.014.047q.033.097.085.287zm-.2-.62 1.915-.575a3.7 3.7 0 0 0-.511-1.024l-1.644 1.138-1.645 1.139c.023.032.027.042.022.031a1 1 0 0 1-.053-.135zm-.24-.46 1.682-1.082A2.9 2.9 0 0 0 69.7 64.37l-.597 1.909-.596 1.909a1.1 1.1 0 0 1-.585-.447zm-.5-.381.632-1.898c-.481-.16-.978-.202-1.414-.202v4q.139.002.181.008c.032.004.016.005-.032-.01zm-.782-.1v-2h-.92v4h.92zm-.92 0h-2v8.007h4V66.18zm0 8.007h-2v.2h4v-.199zm0 .2h-2v.18h4v-.179zm0 .18h-2v.141h4v-.14zm0 .141h-2c0-.03 0-.086.01-.158.009-.07.027-.18.072-.314l1.897.632 1.898.633c.109-.327.122-.621.122-.793zm-.02.16-1.79-.894a2.6 2.6 0 0 0-.19.53l1.94.484 1.94.485-.023.078a2 2 0 0 1-.089.212zm-.04.12-1.94-.485c.036-.147.144-.488.465-.809l1.414 1.414 1.414 1.415c.375-.375.523-.796.587-1.05zm-.06.12-1.415-1.414-.012.013-.009.008-.004.004-.002.003h-.001v.001l-.002.001-.05.05 1.414 1.415 1.414 1.414.08-.08zm-.08.08-1.415-1.414c.321-.32.662-.429.809-.466l.485 1.94.485 1.94a2.25 2.25 0 0 0 1.05-.585zm-.12.06-.633-1.897.077-.023q.016-.003.003 0l.392 1.96.392 1.962c.105-.021.25-.054.4-.104zm-.161.04-.485-1.94a1.4 1.4 0 0 1 .285-.04v4c.176 0 .419-.013.685-.08zm-.2.02v-2H56.19v4h10.53zm-10.53 0h2V48.563h-4V75.31zm11.33-16.175-1.414 1.414a2 2 0 0 1-.2-.24c-.014-.022-.016-.026-.002-.002l1.737-.992 1.736-.992c-.035-.062-.197-.357-.442-.602zm.12.18-1.663 1.11c.107.16.242.337.41.504l1.414-1.414 1.414-1.414a1 1 0 0 1 .09.105zm.16.2-1.413 1.414c.218.218.576.498 1.089.627l.485-1.94.485-1.941c.406.101.658.315.769.426zm.161.1v2q.802 0 1.593-.159l-.392-1.96-.392-1.962a4 4 0 0 1-.809.081zm1.201-.12.455 1.948c.56-.13 1.106-.33 1.637-.588l-.87-1.8-.872-1.8a4 4 0 0 1-.804.292zm1.221-.44.85 1.81a4.35 4.35 0 0 0 1.877-1.686l-1.706-1.045-1.705-1.045a.35.35 0 0 1-.165.155zm1.021-.921 1.68 1.084c.509-.787.72-1.672.72-2.566h-4c0 .255-.055.358-.08.398zm.4-1.482h2a3.65 3.65 0 0 0-.566-1.99c-.392-.612-.935-1.046-1.512-1.346-1.095-.569-2.482-.746-3.925-.746v4c1.226 0 1.84.17 2.08.295.09.047.048.047-.01-.044-.065-.1-.066-.181-.066-.169zm-4.003-2.082-.485-1.94a2.8 2.8 0 0 0-1.065.509c-.454.363-.85.967-.85 1.752h4a1.78 1.78 0 0 1-.651 1.371c-.137.11-.259.17-.33.201a1 1 0 0 1-.134.048zm-.4.32h-2v.761h4v-.76zm0 .761h-2c0 .441.022 1.064.062 1.845l1.998-.103 1.997-.103a35 35 0 0 1-.058-1.639zm.06 1.742-1.998.103c.04.767.058 1.305.058 1.639h4c0-.44-.023-1.064-.063-1.845zm51.147 3.103 1.977-.304-3.955.011zm-.32 2.543-1.986-.239-.001.01-.001.01zm-.501 4.204 1.984.252zm-.62 4.424 1.976.305.001-.002zm-13.874 5.165-.894 1.789.468.234.524-.025zm-.5-.44-1.665 1.109.025.037.027.036zm-.341-.721-1.923.55.012.041.014.041zm-.2-.74-1.97.347.013.07.017.067zm-.14-.842-1.987.23.005.043.007.043zm-.1-.7-1.958.41.003.012.002.012zm-4.284-20.1-1.958.408.004.02.004.019zm-1.402-6.727h-2v.207l.042.201zm.56-.76.167-1.993-.431-.036-.408.145zm5.806-.04v2h.053l.053-.003zm1.122.02-.108 1.997.027.001.026.001zm2.122.02.392-1.961-.194-.04h-.198zm1.201.04.535-1.927-.263-.073h-.272zm1.922 8.828-1.986.237v.003zm.44 4.044-1.99.201.001.01.001.008zm.26 2.403h-2l3.973.329zm2.543-15.235.166-1.993-1.836-.153-.303 1.817zm7.447.06-.013-2zm5.125.3 1.978-.299-.023-.151-.046-.146zm2.503 16.556-1.978.3 3.971-.133zm.94-8.348 1.979.293zm1.202-8.128-1.92-.56-.039.132-.02.136zm2.362-.48v2h.083l.083-.007zm.741.02-.16 1.993.041.004.042.001zm4.164.04-.044 2h.001zm3.583.3-1.955.42.003.015.003.015zm.1.881 1.954.427.06-.275-.018-.28zm-6.446 29.469.199 1.99 1.445-.145.31-1.418zm-1.982.02.087-1.998-.043-.002h-.044zm-1.061-.02.067-2h-.067zm-3.483-.02-.024 2zm-6.407.1-1.976.304.269 1.75 1.771-.055zm-2.482-16.136-1.978-.293c-.059.394-.169 1.271-.328 2.597l1.986.239 1.985.238c.162-1.343.265-2.16.313-2.488zm-.32 2.543-1.988-.22a248 248 0 0 1-.497 4.171l1.984.253 1.984.252q.282-2.216.505-4.238zm-.501 4.204-1.984-.253q-.277 2.177-.613 4.374l1.977.303 1.977.303q.344-2.247.627-4.475zm-.62 4.424-1.977-.305c-.218 1.413-.461 2.527-.717 3.364l1.913.585 1.912.584c.332-1.084.61-2.4.845-3.922zm-.781 3.644-1.913-.585a5 5 0 0 1-.214.584l-.02.039q0-.004.046-.063c.03-.037.086-.1.174-.172a1.66 1.66 0 0 1 1.046-.362v4c1.292 0 1.957-1.007 2.147-1.317.277-.455.482-1.003.646-1.54zm-.881 1.441v-2c-.549 0-1.378-.013-2.495-.04l-.048 2-.047 2c1.125.026 1.992.04 2.59.04zm-2.543-.04.048-2a122 122 0 0 0-2.59-.04v4q.822 0 2.495.04zm-2.542-.04v-2q-3.905 0-7.225.162l.098 1.998.098 1.998a144 144 0 0 1 7.029-.158zm-7.127.16.894-1.789a.6.6 0 0 1 .218.166l-1.612 1.183-1.613 1.182c.299.409.699.787 1.219 1.047zm-.5-.44 1.664-1.11a1 1 0 0 1-.107-.243l-1.898.632-1.897.632c.137.413.322.82.573 1.198zm-.341-.721 1.923-.55q-.113-.397-.183-.676l-1.94.485-1.94.485q.09.362.217.805zm-.2-.74 1.97-.348a44 44 0 0 1-.135-.81l-1.975.316-1.975.316q.082.51.145.873zm-.14-.842 1.987-.229a10 10 0 0 0-.135-.905l-1.952.434-1.953.434c-.003-.017.003.01.018.114q.02.138.048.382zm-.1-.7 1.957-.41c-2.307-11.003-3.74-17.725-4.292-20.136l-1.95.446-1.949.447c.542 2.366 1.966 9.044 4.276 20.063zm-4.284-20.1 1.958-.408-1.402-6.726-1.958.407-1.958.408 1.402 6.727zm-1.402-6.727h2c0 .159-.045.439-.25.716a1.15 1.15 0 0 1-.517.407l-.672-1.883-.673-1.884a2.86 2.86 0 0 0-1.358.988 2.77 2.77 0 0 0-.53 1.656zm.56-.76-.165 1.993c.408.034.986.047 1.687.047v-4a19 19 0 0 1-1.355-.033zm1.522.04v2h1.602v-4h-1.602zm1.602 0v2c.365 0 .861-.015 1.47-.042l-.089-1.998-.089-1.998a32 32 0 0 1-1.292.038zm1.381-.04.089 1.998c.598-.027.994-.038 1.212-.038v-4c-.315 0-.787.015-1.39.042zm1.301-.04.106 1.997c.144-.008.432-.006.908.02l.108-1.997.107-1.997a13 13 0 0 0-1.334-.02zm1.122.02-.055 2c.488.012.836.02 1.015.02v-4c-.114 0-.406-.006-.906-.02zm.96.02v2h1.162v-4h-1.162zm1.162 0-.393 1.961c.334.067.695.079.993.079v-4q-.152 0-.217-.006l-.024-.002h-.009.003l.007.001.032.006zm.6.04v2h.601v-4h-.601zm.601 0-.536 1.927a1.6 1.6 0 0 1-.762-.456c-.096-.105-.128-.176-.115-.15.009.016.035.071.075.18q.058.158.133.422l1.925-.542 1.926-.541c-.135-.481-.3-.961-.513-1.37a3.3 3.3 0 0 0-.475-.694 2.4 2.4 0 0 0-1.123-.703zm.72 1.381-1.925.542c.206.73.418 1.806.626 3.265l1.98-.283 1.98-.283c-.219-1.53-.46-2.805-.735-3.782zm.681 3.524-1.98.283q.318 2.225.515 3.877l1.986-.236 1.986-.237a176 176 0 0 0-.527-3.97zm.521 3.924-1.986.239q.197 1.635.436 4.005l1.99-.2 1.99-.201a213 213 0 0 0-.445-4.083zm.44 4.043-1.988.22.195 1.777.048.45.011.105.001.012-.002-.022-.002-.035c0-.009-.003-.05-.003-.104h4c0-.055-.002-.098-.003-.108l-.002-.041-.003-.04-.005-.054-.014-.13-.049-.463-.196-1.786zm.26 2.403 1.973.329 2.543-15.235-1.973-.33-1.973-.328-2.542 15.234zm2.543-15.235-.166 1.993c.662.055 1.233.087 1.687.087v-4c-.292 0-.737-.022-1.355-.073zm1.521.08v2h1.242v-4h-1.242zm1.242 0v2q1.631 0 4.697-.02l-.013-2-.013-2q-3.06.02-4.671.02zm4.684-.02.013 2q3.081-.02 4.592-.02v-4q-1.534 0-4.618.02zm4.605-.02v2a1.37 1.37 0 0 1-.708-.217 1.58 1.58 0 0 1-.681-.866l1.909-.597 1.909-.596a2.42 2.42 0 0 0-1.041-1.347 2.63 2.63 0 0 0-1.388-.377zm.52.32-1.977.3 2.502 16.555 1.978-.299 1.977-.298-2.502-16.557zm2.503 16.556 1.993.166q.375-4.512.926-8.22l-1.979-.294-1.978-.293a135 135 0 0 0-.956 8.475zm.94-8.348 1.979.293 1.201-8.128-1.978-.293-1.979-.292-1.201 8.128zm1.202-8.128 1.92.56a1.56 1.56 0 0 1-.479.749 1.2 1.2 0 0 1-.372.223c-.072.024 0-.012.332-.012v-4c-.509 0-1.091.043-1.63.228-.537.184-1.387.648-1.691 1.692zm1.401-.48v2h.961v-4h-.961zm.961 0 .166 1.993c-.021.002.001-.001.085.001q.117.003.33.02l.16-1.994.159-1.994a7 7 0 0 0-1.066-.02zm.741.02-.077 1.998c.347.014.628.022.817.022v-4c-.104 0-.317-.005-.664-.019zm.74.02v2h1.762v-4h-1.762zm1.762 0v2q.714 0 1.618.02l.044-2 .043-2a79 79 0 0 0-1.705-.02zm1.662.02-.043 2c.604.012.969.02 1.024.02v-4l-.225-.005-.714-.015zm.981.02v2h2.362v-4h-2.362zm2.362 0v2a1.81 1.81 0 0 1-1.368-.628 1.54 1.54 0 0 1-.347-.673l1.955-.419 1.956-.419a2.5 2.5 0 0 0-.527-1.093 2.2 2.2 0 0 0-1.669-.768zm.24.28-1.949.45c-.004-.02.004.013.017.126q.018.156.036.434l1.996-.129 1.996-.129c-.027-.418-.067-.855-.147-1.201zm.1.881-1.954-.427-6.446 29.468 1.954.428 1.954.427 6.446-29.469zm-6.446 29.469-.199-1.99c-.181.018-.431.03-.762.03v4a12 12 0 0 0 1.16-.05zm-.961.04v-2q-.525 0-.934-.018l-.087 1.998-.087 1.998q.512.022 1.108.022zm-1.021-.02v-2q-.418 0-.994-.02l-.067 2-.067 1.999q.625.02 1.128.02zm-1.061-.02v-2H130v4h.981zm-.981 0v-2a228 228 0 0 1-2.479-.02l-.023 2-.024 2q1.685.02 2.526.02zm-2.502-.02.024-2q-1.666-.02-2.527-.02v4q.821 0 2.479.02zm-2.503-.02v-2c-.109 0-1.469.042-3.967.12l.063 2 .064 1.999 2.876-.09.964-.03zm-3.904.12 1.977-.304-2.482-16.136-1.977.304-1.977.304 2.483 16.136zm29.358-5.486v-2h-1.482l-.432 1.418zm-.28 1.222-1.967-.363-.004.022-.004.02zm-.241 1.18-1.929-.525-.009.031-.007.032zm-.36.902 1.741.984.009-.016.009-.016zm-.801.68-.754-1.852-.013.005-.012.005zm-10.01.22h-2v2h2zm0-.68-1.897-.633-.103.308v.325zm3.083-9.77-1.91-.592-.002.005zm3.164-9.97h2l-3.899-.628zm0 .04h-2l3.887.662zm2.001-6.085-1.788-.895-.07.14-.047.147zm.061-.1 1.664 1.11.026-.04.025-.041zm.34-.46.015-2-.837-.007-.592.592zm10.81.08-.014 2h.014zm3.043.48h2v-.54l-.272-.468zm0 .52h-2v.22l.048.214zm.441.921 1.901-.62-.056-.172-.086-.159zm2.843 8.649h2v-.325l-.103-.308zm0 .24h-2v.137l.018.136zm.36 1.321 1.87-.708zm.661 1.602-1.83.808.012.026.012.026zm.56 1.321 1.927-.535-.013-.05-.017-.047zm.801 2.883-1.927.535.006.021.006.022zm2.062 6.206-1.888.661 3.888-.661zm0 .36h-2v.212l.044.207zm.6 1.442h2v-.294l-.084-.281zm-.24.72-1.109-1.664-.034.023-.033.024zm-10.17.16-.233 1.987.116.013h.117zm-.76-.14-.575 1.916.024.007.024.007zm-.301-.16-1.561 1.25.069.086.078.078zm-.1-.26 1.985-.248-.015-.12-.03-.117zm-.761-3.043-1.957.412.008.037.009.036zm-.16-.42-1.2 1.6.145.108.161.08zm-1.281-9.59h2v-.212l-.044-.207zm-.36-1.802-1.97.344.003.019.003.017zm-.441-2.182-1.947.456.002.01zm-.48-1.741h-2v.316l.098.302zm0-.961h2v-.368l-.131-.344zm-.561-.6.821-1.825-2.821-1.269v3.093zm0 .04.408 1.957 1.592-.332v-1.626zm-.961 2.682-1.966-.366-.034.181v.185zm0 .96 1.923.55.077-.27v-.28zm-.32.401 1.951.441.049-.218v-.223zm-1.081 4.725-1.948-.455-.052.224v.23zm-.2 1.281h-2v2h2zm4.965 0v2h2v-2zm-.361-1.882h-2v.26l.067.252zm0-.44h2v-.325l-.102-.308zm-.12-.22-1.827.812.057.128.074.12zm-5.445 9.268-1.914-.582c-.124.41-.233.899-.333 1.441l1.967.363 1.966.362a10 10 0 0 1 .227-1.001zm-.28 1.222-1.975-.32a10 10 0 0 1-.195.975l1.929.526 1.93.526c.106-.39.2-.862.285-1.387zm-.241 1.18-1.945-.462a1.8 1.8 0 0 1-.174.411l1.759.953 1.759.952a5.7 5.7 0 0 0 .547-1.39zm-.36.902-1.741-.984a.5.5 0 0 1 .115-.14c.045-.038.076-.05.071-.048l.754 1.852.755 1.853a3.55 3.55 0 0 0 1.787-1.55zm-.801.68-.779-1.841c.002-.001-.039.016-.141.032-.101.017-.246.03-.441.03v4c.709 0 1.457-.09 2.14-.379zm-1.361.22v-2h-8.649v4h8.649zm-8.649 0h2v-.68h-4v.68zm0-.68 1.898.632c.715-2.145 1.748-5.42 3.097-9.815l-1.912-.587-1.912-.587c-1.347 4.388-2.369 7.626-3.068 9.724zm3.083-9.77 1.911.593c1.36-4.388 2.41-7.696 3.151-9.933l-1.898-.63-1.899-.628c-.754 2.274-1.813 5.612-3.175 10.006zm3.164-9.97h-2v.04h4v-.04zm0 .04 1.887.662c.464-1.323 1.138-3.374 2.02-6.14l-1.906-.607-1.905-.608c-.88 2.76-1.54 4.766-1.984 6.032zm2.001-6.085 1.789.894q-.034.067-.049.09l-.015.025-1.664-1.11-1.665-1.109a3 3 0 0 0-.184.315zm.061-.1 1.715 1.029q.051-.084.068-.106l.002-.003-.031.033-1.414-1.414-1.414-1.414a4.3 4.3 0 0 0-.641.846zm.34-.46-.015 2 10.811.08.014-2 .015-2-10.81-.08zm10.81.08v2c.885 0 1.477.04 1.831.095.181.029.219.05.174.032a1 1 0 0 1-.23-.13 1.6 1.6 0 0 1-.459-.51l1.727-1.007 1.728-1.008c-.385-.66-.992-.944-1.28-1.06a5 5 0 0 0-1.037-.268c-.66-.104-1.496-.145-2.454-.145zm3.043.48h-2v.52h4v-.52zm0 .52-1.952.434c.07.316.216.619.278.75.094.196.215.428.355.688l1.76-.95 1.759-.952a13 13 0 0 1-.265-.512l-.029-.062-.008-.018-.002-.005.003.009.011.028c.007.022.025.077.043.156zm.441.921-1.901.621q1.942 5.947 2.846 8.66l1.898-.632 1.897-.633q-.898-2.692-2.839-8.637zm2.843 8.649h-2v.24h4v-.24zm0 .24-1.982.273c.08.577.249 1.167.471 1.756l1.871-.708 1.87-.708a4.2 4.2 0 0 1-.249-.886zm.36 1.321-1.871.708q.304.8.702 1.702l1.83-.808 1.829-.809a30 30 0 0 1-.62-1.5zm.661 1.602-1.806.86c.256.536.401.89.469 1.093l1.897-.632 1.897-.632a14 14 0 0 0-.652-1.55zm.56 1.321-1.927.535.801 2.883 1.927-.535 1.927-.535-.801-2.883zm.801 2.883-1.915.578c.48 1.589 1.178 3.689 2.089 6.29l1.888-.662 1.887-.662c-.903-2.577-1.58-4.615-2.034-6.122zm2.062 6.206h2v-.04h-4v.04zm0-.04h-2v.4h4v-.4zm0 .4-1.956.42c.094.437.285.871.467 1.235l1.789-.894 1.789-.894a4 4 0 0 1-.124-.27c-.025-.065-.02-.065-.009-.016zm.3.761-1.789.894a8 8 0 0 1 .184.394l-.01-.033 1.915-.574 1.916-.575c-.096-.32-.271-.688-.427-1zm.3.68h-2c0 .065-.009-.015.043-.171a1.53 1.53 0 0 1 .608-.772l1.109 1.664 1.11 1.665c1.074-.717 1.13-1.935 1.13-2.385zm-.24.721-1.176-1.617c.151-.11.283-.166.355-.192a1 1 0 0 1 .133-.038c.013-.002-.042.007-.193.007v4c.29 0 .603-.016.909-.072a2.8 2.8 0 0 0 1.149-.47zm-.881.16v-2h-9.289v4h9.289zm-9.289 0 .234-1.986-.3-.038.018.003-.392 1.962-.392 1.96c.16.033.392.061.599.086zm-.44-.06.392-1.96c.011.001.002 0-.037-.01l-.149-.04-.526 1.93-.527 1.93c.151.041.315.084.455.112zm-.32-.08.574-1.915c.044.013.287.088.54.341l-1.415 1.414-1.414 1.414c.386.386.829.569 1.14.662zm-.301-.16 1.562-1.25c.23.288.302.576.323.742l-1.985.248-1.984.248c.047.38.186.84.523 1.262zm-.1-.26 1.94-.485-.76-3.043-1.941.485-1.94.485.761 3.043zm-.761-3.043 1.958-.412a4 4 0 0 0-.169-.595 2.5 2.5 0 0 0-.224-.45 2.1 2.1 0 0 0-.83-.752l-.895 1.789-.894 1.788a1.9 1.9 0 0 1-.75-.669c-.088-.137-.131-.248-.145-.282-.027-.073-.026-.092-.008-.005zm-.16-.42 1.2-1.6a2.2 2.2 0 0 0-.718-.352 3 3 0 0 0-.394-.078 5 5 0 0 0-.568-.03v4c.096 0 .11.004.072 0a1.7 1.7 0 0 1-.418-.121 2 2 0 0 1-.374-.22zm-.48-.06v-2h-6.166v4h6.166zm-5.205-7.127h-2v.08h4v-.08zm0 .08h2v-.08h-4v.08zm4.404-2.483 1.956-.419a98 98 0 0 1-.353-1.763l-1.963.38-1.964.38c.161.83.284 1.447.368 1.841zm-.36-1.802 1.97-.344a39 39 0 0 0-.466-2.303l-1.945.465-1.945.465q.203.843.416 2.062zm-.441-2.182 1.948-.455a24 24 0 0 0-.526-1.904l-1.902.618-1.902.618q.231.709.435 1.58zm-.48-1.741h2v-.961h-4v.96zm0-.961 1.869-.712a3.04 3.04 0 0 0-1.609-1.713l-.821 1.824-.82 1.824a.96.96 0 0 1-.488-.511zm-.561-.6h-2v.04h4v-.04zm0 .04-.408-1.959c-.867.181-1.33.804-1.496 1.054a4.4 4.4 0 0 0-.459.95c-.214.599-.398 1.377-.564 2.271l1.966.366 1.967.366c.154-.828.291-1.358.397-1.654.055-.155.071-.154.021-.08-.027.04-.104.15-.245.27a1.7 1.7 0 0 1-.771.373zm-.961 2.682h-2v.96h4v-.96zm0 .96-1.923-.549a1.47 1.47 0 0 1 .442-.709l1.301 1.519 1.302 1.519c.312-.268.642-.67.801-1.23zm-.18.261-1.301-1.518c-.059.05-.14.12-.218.199a2 2 0 0 0-.38.504c-.046.087-.241.447-.241.955h4a2 2 0 0 1-.237.942 2 2 0 0 1-.176.27c-.068.088-.127.146-.138.157-.031.032-.042.04-.007.01zm-.14.14-1.951-.44q-.66 2.918-1.078 4.71l1.948.455 1.948.454q.422-1.811 1.084-4.738zm-1.081 4.725h-2c0-.045.003-.069.002-.062l-.007.054q-.014.1-.056.316l1.961.392 1.961.393c.065-.325.139-.738.139-1.093zm-.1.7-1.961-.392a16 16 0 0 0-.085.448c-.008.043-.054.29-.054.525h4q0 .07-.003.106l-.005.055-.004.04.008-.046c.012-.072.033-.183.065-.343zm-.1.581v2h4.965v-4h-4.965zm4.965 0h2c0-.644-.193-1.51-.427-2.394l-1.934.512-1.933.512c.113.428.191.763.239 1.015.053.275.055.372.055.355zm-.361-1.882h2v-.44h-4v.44zm0-.44 1.898-.633c-.101-.303-.276-.575-.322-.648l-1.696 1.06-1.696 1.06.02.033-.028-.057-.03-.067q-.018-.042-.043-.116zm-.12-.22 1.828-.813c-.008-.016.006.01.024.07q.015.046.038.154c.013.068.03.182.03.328h-4c0 .526.205.966.253 1.073zm14.163-13.233v-2h-2v2zm23.302 0 .369-1.966-.183-.034h-.186zm.401.26-1.857.743.014.035.015.034zm.08 6.947 1.993.166.007-.083v-.083zm-6.246.48v-2h-2v2zm-.02 18.518 1.94.485zm-.08.26-1.414-1.414zm-.04.08 1.789.895.063-.127.045-.135zm-.06.06v2h.472l.422-.21zm-.08.04.894 1.79.111-.056.104-.07zm-.1.04-.633-1.897-.135.045-.127.064zm-.121.04v2h.247l.238-.06zm-.14.02v2h.246l.239-.059zm-3.844-.16h2v-2h-2zm-3.883.06-.047-1.999h-.001zm-2.443.02-1.147 1.64.517.36h.63zm-.8-.56h-2v1.041l.853.597zm0-4.324-2-.035v.035zm.16-4.965-1.999-.084v.01zm.18-8.248-1.999.071v.003zm-.02-.72h2v-2h-2zm-5.846-.14-.743 1.856.041.016.041.015zm-.4-.501h2v-7.207h-4v7.207zm0-7.207v2h23.302v-4h-23.302zm23.302 0-.368 1.965a1.3 1.3 0 0 1-.461-.193 1.65 1.65 0 0 1-.627-.77l1.857-.742 1.857-.743c-.421-1.051-1.369-1.386-1.889-1.483zm.401.26-1.828.812a1.4 1.4 0 0 1-.07-.196 1 1 0 0 1-.02-.098c-.005-.032-.002-.029-.002.022h4c0-.326-.027-.845-.252-1.352zm.08.54h-2v6.407h4v-6.407zm0 6.407-1.993-.166a1.5 1.5 0 0 1 .531-.992c.393-.337.791-.362.901-.362v4c.458 0 1.122-.104 1.702-.602.604-.517.809-1.195.852-1.712zm-.561.48v-2h-5.685v4h5.685zm-5.685 0h-2v18.418h4V56.33zm0 18.418h-2q.001-.118.008-.175.006-.06.011-.094c.006-.043.012-.075.015-.088l.006-.028 1.94.485 1.94.485c.01-.041.024-.097.036-.158a2 2 0 0 0 .044-.427zm-.02.1-1.94-.485a3 3 0 0 0-.036.158 2 2 0 0 0-.044.427h4q-.002.118-.008.175a3 3 0 0 1-.026.182l-.006.028zm-.02.1h-2a2 2 0 0 1 .082-.552l1.898.632 1.897.633c.015-.046.038-.116.058-.198a2 2 0 0 0 .065-.515zm-.02.08-1.898-.632c.013-.036.04-.114.089-.212.04-.08.147-.283.355-.49l1.414 1.414 1.414 1.415c.374-.374.504-.806.523-.862zm-.04.08-1.414-1.414c-.374.374-.505.805-.524.862l1.898.633 1.897.632a2 2 0 0 1-.088.212c-.041.08-.148.282-.355.49zm-.04.08-1.789-.894c.18-.36.474-.654.834-.834l.895 1.789.894 1.788a2.13 2.13 0 0 0 .955-.954zm-.06.06v-2c-.517 0-.896.207-.925.222-.118.059-.212.12-.265.154l1.11 1.665 1.109 1.664c-.013.008-.073.049-.165.094a2 2 0 0 1-.864.201zm-.08.04-.895-1.788a1.4 1.4 0 0 1 .162-.069l.633 1.898.632 1.897c.096-.032.224-.08.362-.149zm-.1.04-.895-1.788a1.6 1.6 0 0 1 .289-.112l.485 1.94.485 1.94a2.6 2.6 0 0 0 .53-.19zm-.121.04v-2c-.251 0-.467.041-.625.08l.485 1.94.485 1.941c-.05.013-.173.04-.345.04zm-.14.02v-2h-1.281v4h1.281zm-1.281 0v-2c-.845 0-1.435-.013-1.797-.035-.194-.013-.255-.023-.237-.02q.018.002.084.02c.039.01.123.034.229.08a1.97 1.97 0 0 1 1.158 1.795h-4c0 .741.387 1.24.643 1.479.241.226.482.342.596.391.237.104.455.148.553.166.232.044.491.066.724.08.492.032 1.184.045 2.047.045zm-2.563-.16v-2c-.171 0-.382.01-.605.024l.125 1.997.125 1.996c.204-.013.314-.017.355-.017zm-.48.02-.125-1.996a7 7 0 0 1-.355.017v4c.171 0 .382-.01.605-.024zm-.48.02v-2h-1.602v4h1.602zm-1.602 0v-2c-.33 0-.789.008-1.368.021l.047 2 .046 1.999q.852-.02 1.275-.02zm-1.321.02-.048-1.999q-.83.02-1.274.02v4q.518 0 1.369-.021zm-1.322.02v-2h-1.121v4h1.121zm-1.121 0 1.147-1.638-.801-.56-1.146 1.638-1.147 1.638.8.561zm-.8-.56h2v-4.324h-4v4.324zm0-4.324 1.999.034c.013-.75.066-2.385.159-4.925l-1.998-.074-1.999-.074a336 336 0 0 0-.161 5.004zm.16-4.965 1.998.084c.107-2.547.162-4.58.162-6.09h-4c0 1.427-.052 3.397-.159 5.922zm.16-6.006h2v-.52h-4v.52zm0-.52h2c0-.045.003-.162.016-.383l-1.996-.118-1.997-.117c-.013.232-.023.449-.023.618zm.02-.5 1.996.117c.014-.233.024-.45.024-.618h-4c0 .044-.004.162-.017.383zm.02-.501h2c0-.164-.008-.44-.021-.795l-1.999.074-1.999.074c.014.367.019.57.019.647zm-.02-.721 1.999-.071a26 26 0 0 1-.019-.65h-4c0 .15.008.429.021.792zm-.02-.72v-2h-5.005v4h5.005zm-5.005 0v-2a.5.5 0 0 1-.18-.029l-.661 1.888-.661 1.888c.488.17.992.252 1.502.252zm-.841-.14.743-1.858c.081.032.307.139.519.402.235.295.338.644.338.955h-4c0 .537.169 1.083.538 1.544.345.431.772.674 1.119.813zm33.021 18.477-.788 1.838.012.005zm-6.967-7.808-1.9.624.003.009.003.008zm-.88-6.125-1.98-.283-.02.14v.142zm.06-.681L193.702 60l-.004.032-.002.033zm.06-.72-1.988-.222-.012.11v.111zm.18-1.362-1.968-.358zm.1-.64-1.965-.375-.008.046-.007.045zm.16-.681-1.883-.673-.015.042-.014.042zm.481-1.382-1.85-.761zm.32-.7h2l-3.789-.895zm0 .04h-2l3.803.864zm5.405-5.486.824 1.822.009-.004.009-.004zm3.443-1.12.38 1.963.011-.002.01-.003zm8.208.14-.485 1.94.01.002.009.002zm5.586 3.303-1.564 1.246.005.006.005.007zm2.102 5.084h2v-.138l-.019-.137zm0 1.722 1.956.42.044-.208v-.212zm-.3.44 1.007 1.728.052-.03.05-.033zm-.521.18.143 1.996.07-.005.07-.01zm-9.349.02h-2v2h2zm0-1.72h2v-.147l-.021-.145zm-2.863-1.542-.952-1.759-.016.009-.016.008zm-.74.7-1.688-1.074-.006.011-.007.01zm-.441 1.001-1.91-.593-.007.022-.006.022zm-.22 1.201-1.991-.186-.003.029-.002.029zm-.08 1.282-1.997-.121-.001.029-.001.03zm.02 1.22h2v-.068l-.005-.069zm.04 3.805-1.993.166.004.046.006.046zm.24 1.2-1.943.473.006.025.006.025zm3.003 1.022-1.72-1.021-.012.02-.011.02zm.621-1.542-1.922-.555-.006.02-.005.02zm.58-1.221v-2h-.828l-.586.586zm10.33.8h2v-.074l-.005-.075zm0 .761 1.988.22.012-.11v-.11zm-9.209 9.53-.345-1.97-1.655.29v1.68zm0 .12.409 1.958 1.591-.333V75.67zm-3.363.28v-2c-2.004 0-3.736-.335-5.23-.964l-.776 1.843-.776 1.843c2.056.866 4.328 1.278 6.782 1.278zm-6.006-1.12.788-1.84c-1.521-.65-2.714-1.523-3.628-2.6l-1.524 1.296-1.524 1.295c1.354 1.594 3.071 2.817 5.1 3.686zm-4.364-3.144 1.524-1.295c-.96-1.129-1.707-2.458-2.232-4.01l-1.895.64-1.894.642c.676 1.997 1.664 3.778 2.973 5.318zm-2.603-4.665 1.901-.623c-.514-1.565-.781-3.3-.781-5.222h-4c0 2.295.319 4.457.98 6.47zm-.88-5.845h2v-.28h-4v.28zm0-.28 1.979.282c.025-.175.05-.478.075-.815l-1.994-.148-1.995-.148q-.02.263-.033.412l-.012.134zm.06-.681 1.988.213c.037-.343.072-.699.072-.934h-4c0-.028.001-.035-.001-.01l-.007.104-.041.414zm.06-.72 1.987.22.077-.633-1.984-.248-1.985-.249c-.04.32-.068.553-.083.688zm.08-.661 1.984.248c.04-.316.067-.503.084-.591l-1.968-.358-1.968-.358c-.037.205-.076.485-.117.81zm.1-.701 1.968.358c.033-.185.071-.428.112-.716l-1.98-.283-1.98-.283a16 16 0 0 1-.088.566zm.1-.64 1.965.373c.046-.243.083-.39.107-.466l-1.912-.589-1.912-.588a9 9 0 0 0-.213.895zm.16-.681 1.884.672q.115-.325.243-.73l-1.907-.603-1.907-.602q-.112.355-.196.59zm.22-.661 1.907.602q.098-.305.203-.561l-1.849-.762-1.85-.761q-.174.425-.318.88zm.261-.72 1.849.76q.109-.265.26-.567l-1.789-.895-1.789-.894q-.21.42-.381.834zm.32-.702h-2v.04h4v-.04zm0 .04 1.803.865c.524-1.093 1.171-2.01 1.933-2.774l-1.414-1.414-1.414-1.414c-1.106 1.106-2.007 2.403-2.712 3.873zm2.322-3.323 1.414 1.414c.777-.776 1.608-1.353 2.493-1.754l-.824-1.822-.824-1.822c-1.357.614-2.581 1.478-3.673 2.57zm3.083-2.162.842 1.814a12.8 12.8 0 0 1 2.981-.971l-.38-1.964-.379-1.964a17 17 0 0 0-3.906 1.271zm3.443-1.12.401 1.959q1.547-.318 3.323-.32v-4q-2.147-.002-4.124.4zm3.724-.361v2c1.523 0 2.852.154 3.999.44l.485-1.94.486-1.94c-1.522-.38-3.183-.56-4.97-.56zm4.484.5-.466 1.945c1.189.286 2.083.65 2.734 1.055l1.056-1.699 1.055-1.698c-1.111-.69-2.432-1.192-3.912-1.547zm3.324 1.301-1.056 1.7a6.8 6.8 0 0 1 1.754 1.549l1.564-1.246 1.564-1.247a10.8 10.8 0 0 0-2.771-2.454zm2.262 2.002-1.554 1.26c.512.632.874 1.254 1.11 1.865l1.865-.722 1.865-.722c-.404-1.044-.99-2.023-1.732-2.94zm1.421 2.403-1.865.722q.392 1.004.565 2.236l1.981-.276 1.981-.275a14 14 0 0 0-.797-3.13zm.681 2.682h-2v1.722h4V56.69zm0 1.722-1.956-.419a1.3 1.3 0 0 1 .546-.805l1.11 1.664 1.109 1.665c.59-.394.997-.986 1.147-1.686zm-.3.44-1.008-1.727a.6.6 0 0 1 .204-.072l.283 1.98.283 1.98a3.4 3.4 0 0 0 1.245-.433zm-.521.18-.142-1.994a10 10 0 0 1-.639.015v4c.351 0 .666-.007.924-.025zm-.781.02v-2h-8.568v4h8.568zm-8.568 0h2v-1.72h-4v1.72zm0-1.72 1.979-.292a4.43 4.43 0 0 0-1.041-2.252l-1.519 1.302-1.518 1.301c.093.11.113.178.12.231zm-.581-1.242 1.519-1.302c-.677-.79-1.614-1.259-2.7-1.259v4a.5.5 0 0 1-.212-.053c-.087-.041-.126-.086-.125-.085zm-1.181-.56v-2c-.7 0-1.403.149-2.053.501l.952 1.759.953 1.758.004-.002.019-.005a.6.6 0 0 1 .125-.012zm-1.101.26-.984-1.742a4.1 4.1 0 0 0-1.444 1.368l1.688 1.074 1.687 1.074.012-.016.025-.017zm-.74.7-1.701-1.053c-.28.453-.491.948-.65 1.461l1.91.593 1.91.593c.081-.26.164-.433.231-.541zm-.441 1.001-1.923-.55a8.6 8.6 0 0 0-.288 1.565l1.991.186 1.991.187q.047-.474.152-.838zm-.22 1.201-1.996-.128-.081 1.289 1.997.12 1.996.122q.04-.657.08-1.274zm-.08 1.282-1.999-.063q-.023.732.024 1.421l1.995-.137 1.995-.138a10 10 0 0 1-.016-1.02zm.02 1.22h-2v.581h4v-.58zm0 .581h-2v2.243h4v-2.243zm0 2.243h-2q0 .58.047 1.147l1.993-.166 1.993-.167a10 10 0 0 1-.033-.814zm.04.98-1.983.26c.053.409.152.889.28 1.414l1.943-.472 1.943-.473a10 10 0 0 1-.2-.987zm.24 1.202-1.931.522c.214.79.607 1.528 1.228 2.123l1.384-1.444 1.384-1.444c-.02-.019-.081-.082-.134-.28zm.681 1.2-1.384 1.445c.725.695 1.636 1.016 2.585 1.016v-4c-.025 0 .001-.003.055.018a.4.4 0 0 1 .128.078zm1.201.461v2c1.198 0 2.255-.576 2.864-1.66l-1.743-.98-1.743-.98a.8.8 0 0 1 .29-.276.7.7 0 0 1 .332-.104zm1.121-.64 1.72 1.02a8 8 0 0 0 .833-2.046l-1.932-.516-1.933-.515c-.124.465-.268.8-.408 1.036zm.621-1.542 1.921.555c.067-.233.124-.375.16-.452.017-.036.024-.043.015-.03-.008.011-.039.058-.102.12l-1.414-1.414-1.414-1.414c-.596.596-.901 1.433-1.088 2.08zm.58-1.221v2q.78 0 2.378.02l.025-2 .025-2q-1.606-.02-2.428-.02zm2.403.02-.025 2q1.605.02 2.427.02v-4q-.78 0-2.377-.02zm2.402.02v2c.392 0 .961-.007 1.698-.02l-.036-2-.037-2q-1.094.02-1.625.02zm1.662-.02.036 2a98 98 0 0 1 1.625-.02v-4c-.392 0-.961.007-1.698.02zm1.661-.02v2h1.482v-4h-1.482zm1.482 0v2a1.36 1.36 0 0 1-.977-.462 1.3 1.3 0 0 1-.258-.427 1 1 0 0 1-.039-.16l1.994-.15 1.995-.15c-.038-.501-.188-1.2-.718-1.789-.584-.648-1.349-.862-1.997-.862zm.72.8h-2v.761h4v-.76zm0 .761-1.988-.22c-.25 2.268-1.062 3.957-2.352 5.215l1.397 1.432 1.397 1.431c2.048-1.998 3.198-4.593 3.534-7.638zm-2.943 6.427-1.397-1.431c-1.353 1.32-3.063 2.186-5.214 2.564l.345 1.97.346 1.97c2.867-.504 5.334-1.706 7.317-3.642zm-6.266 3.103h-2v.12h4v-.12zm0 .12-.409-1.958c-.712.15-1.685.238-2.954.238v4c1.427 0 2.697-.097 3.772-.322zm38.707-.961-1.977-.304-.01.069-.006.069zm-10.771.68h-2v2h2zm0-.44h2v-.828l-.585-.586zm-.32-.18-.948 1.761.027.014.027.014zm-.32-.26h-2v.472l.211.422zm-.08-8.589-1.415 1.415.101.1.114.085zm-3.043.02-.248-1.984-1.752.219v1.765zm0 8.649 1.952.434.048-.215v-.22zm-.321.46-.769-1.846-.029.012-.029.014zm-4.564.14-.04-2zm-6.546-.92-2-.01v.01zm.12-25.225 2 .01v-.01zm.06-.16 1.414 1.414.1-.1.086-.114zm.24-.2 1.109 1.664.061-.04.058-.046zm.2-.16v-2h-.828l-.586.585zm10.771 0h2v-2h-2zm0 8.608h-2v2h2zm3.483 0v2h2v-2zm0-8.809v-2h-2v2zm11.131 1.081h-2v24.624h4V49.403zm0 24.624h-2c0 .231-.012.345-.017.377l1.977.304 1.977.304c.048-.315.063-.655.063-.985zm-.04.681-1.993-.166c.016-.19.08-.344.145-.447l1.688 1.073 1.687 1.074c.253-.397.424-.859.466-1.368zm-.16.46-1.688-1.073a1.5 1.5 0 0 1 .554-.514 1.5 1.5 0 0 1 .733-.192v4c.86 0 1.629-.425 2.088-1.147zm-.401.22v-2h-10.21v4h10.21zm-10.21 0h2v-.44h-4v.44zm0-.44 1.415-1.414c-.164-.163-.325-.266-.36-.289a3 3 0 0 0-.174-.105 7 7 0 0 0-.307-.16l-.894 1.788-.894 1.789c.081.04.122.063.134.07.007.003-.012-.007-.045-.028q-.026-.017-.088-.062a2 2 0 0 1-.201-.175zm-.32-.18.948-1.76c-.019-.011.027.011.103.073.061.049.261.219.418.532l-1.789.895-1.789.894c.197.394.47.647.638.783.182.149.369.26.523.344zm-.32-.26h2V66.42h-4v8.088zm0-8.088h2c0-.188-.008-.424-.045-.661a2.5 2.5 0 0 0-.135-.508 2.1 2.1 0 0 0-.7-.932l-1.2 1.6-1.2 1.6a2 2 0 0 1-.458-.487 2 2 0 0 1-.172-.337 1.5 1.5 0 0 1-.085-.304c-.011-.07-.005-.077-.005.029zm-.08-.5 1.414-1.415c-.411-.41-.884-.525-.96-.545a3 3 0 0 0-.411-.074 6 6 0 0 0-.604-.027v4c.141 0 .189.005.177.004-.001 0-.076-.007-.186-.036a1.94 1.94 0 0 1-.845-.493zm-.561-.06v-2h-1.361v4h1.361zm-1.361 0v-2c-.426 0-.886.035-1.369.095l.248 1.984.248 1.985a7 7 0 0 1 .873-.065zm-1.121.08h-2v8.648h4V65.94zm0 8.648-1.953-.434c.013-.058.057-.22.191-.413.147-.21.373-.414.672-.539l.769 1.846.77 1.846c.987-.41 1.372-1.282 1.503-1.872zm-.321.46-.827-1.82a1.2 1.2 0 0 1 .256-.083c.009-.002-.023.003-.109.003v4c.38 0 .96-.03 1.508-.279zm-.68.1v-2h-.921v4h.921zm-.921 0v-2c-.649 0-1.653.014-3.003.04l.04 2 .04 2c1.346-.027 2.317-.04 2.923-.04zm-2.963.04-.04-2c-1.331.028-2.329.04-3.003.04v4c.714 0 1.745-.013 3.083-.04zm-3.043.04v-2h-2.643v4h2.643zm-2.643 0v-2c.082 0 .493.033.844.426.314.35.296.677.296.614h-4c0 .577.124 1.384.725 2.055.639.713 1.48.906 2.135.906zm-.86-.96 2 .01.12-25.226-2-.009-2-.01-.12 25.225zm.12-25.225h2c0 .362-.125.853-.526 1.254l-1.414-1.414-1.415-1.414a2.22 2.22 0 0 0-.645 1.574zm.06-.16 1.6 1.2a1.6 1.6 0 0 1-.23.246c-.031.026-.042.032-.021.018l-1.109-1.664-1.109-1.664a3 3 0 0 0-.731.664zm.24-.2 1.228 1.578.161-.127q.034-.026.071-.058c.003-.002.078-.062.154-.14l-1.414-1.413-1.414-1.415.035-.034.025-.023.017-.016.013-.01.016-.015.008-.006q.005-.005.001-.002l-.01.009-.047.036-.072.057zm.2-.16v2h10.771v-4h-10.771zm10.771 0h-2v8.608h4v-8.608zm0 8.608v2h3.483v-4h-3.483zm3.483 0h2v-8.809h-4v8.809zm0-8.809v2h10.21v-4h-10.21zm10.21 0v2c.071 0-.325.024-.714-.365l1.415-1.415 1.414-1.414c-.683-.682-1.546-.806-2.115-.806zm.701.22-1.415 1.415a1.34 1.34 0 0 1-.358-.593c-.018-.073-.007-.074-.007.04h4c0-.315-.026-.673-.118-1.032a2.7 2.7 0 0 0-.688-1.244zm4.973 26.807h-2v2h2zm0-26.306-1.984-.248-.016.123v.125zm.321-.28.742 1.857.053-.021.05-.024zm.36-.2v-2h-.828l-.586.585zm10.771 0h2v-2h-2zm0 26.065 1.945.463.055-.228v-.235zm-.201.58-1.696-1.06-.021.034-.019.034zm-11.251.14h2V49.044h-4V75.35zm0-26.305 1.985.248a1.76 1.76 0 0 1-.578 1.107 1.2 1.2 0 0 1-.344.222l-.742-1.857-.743-1.857c-.213.085-.517.23-.805.482-.302.265-.672.73-.757 1.407zm.321-.28.845 1.812a6 6 0 0 0 .366-.184c.057-.032.324-.175.563-.414l-1.414-1.414-1.414-1.415a1.8 1.8 0 0 1 .306-.244q.014-.01.017-.01l-.029.015-.086.041zm.36-.2v2h10.771v-4h-10.771zm10.771 0h-2v26.065h4V48.563zm0 26.065-1.946-.463q-.017.071-.03.115l-.015.051.013-.031.028-.058q.018-.036.053-.094l1.696 1.06 1.696 1.06c.256-.408.381-.887.45-1.177zm-.201.58-1.736-.992c.163-.285.414-.532.732-.691.297-.149.564-.176.724-.176v4c.649 0 1.517-.274 2.017-1.148zm-.28.14v-2h-10.971v4h10.971zm32.06-26.785.633-1.898-.308-.102h-.325zm.36.7-1.963.38.007.038.009.037zm.101 5.005-1.998-.09-.001.022-.001.023zm-.02 1.101 1.997.1.003-.05v-.05zm.04 19.099 1.986.233.014-.116v-.117zm-12.332.68-.434 1.953.214.047h.22zm-.921-1.681 1.887-.66-.002-.008-.003-.007zm-1.282-3.484-1.879.684.002.007.003.006zm-1.521-4.244-1.889.657.002.007zm-1.161-3.563h-2v.295l.085.284zm0 0 1.998.09.002-.045v-.045zm-.12 3.944 1.999.046zm-.12 3.903-1.998-.092-.002.046v.046zm-.141 4.925 1.688 1.074.02-.033.02-.033zm-.74.36v2h.23l.224-.052zm-8.248 0-1.415 1.415.586.586h.829zm-.881-.88-1.999-.06-.026.863.611.61zm.32-20.9 1.999.058.001-.03v-.029zm0-4.325-1.927-.535-.073.263v.272zm.481-.72h2v-2h-2zm0 .08h-2v2h2zm4.264-.08-.055-2zm7.807-.06-.894 1.788.083.042.086.033zm.401.32 1.98-.283-.011-.076-.017-.075zm.02.14-1.98.283.03.212.075.2zm1.461 4.024 1.884-.67zm1.762 5.045-1.891.651.001.004zm1.421 4.064-1.883.672 3.883-.672zm0-2.963-1.996-.114-.004.057v.057zm9.049-10.49-.632 1.897a1.62 1.62 0 0 1-.936-.768c-.063-.122-.058-.167-.035-.049l1.963-.38 1.964-.38a3.8 3.8 0 0 0-.335-1.02c-.17-.33-.566-.934-1.356-1.198zm.36.7-1.947.455c.05.217.096.574.108 1.11l2-.043 1.999-.044c-.015-.691-.076-1.349-.212-1.932zm.161 1.522-2 .043q.02.88 0 1.67l2 .048 1.999.048q.021-.89 0-1.853zm0 1.761-2-.047a78 78 0 0 1-.058 1.678l1.998.091 1.997.09q.042-.9.062-1.764zm-.06 1.722-2-.045c-.013.578-.02.971-.02 1.146h4c0-.119.005-.46.019-1.056zm-.02 1.101-1.998-.1c-.029.584-.042 1.37-.042 2.342h4c0-.949.013-1.658.037-2.142zm-.04 2.242h-2v2.122h4v-2.122zm0 2.122h-2q0 1.427.04 3.877l2-.033 1.999-.033a253 253 0 0 1-.039-3.81zm.04 3.844-2 .033q.04 2.437.04 3.57h4c0-.79-.014-2.006-.041-3.636zm.04 3.604h-2v7.287h4V67.18zm0 7.287-1.987-.234a1.36 1.36 0 0 1 .628-.965c.259-.158.414-.12.237-.12v4c.518 0 1.206-.077 1.839-.461a2.65 2.65 0 0 0 1.269-1.987zm-1.122.68v-2h-11.21v4h11.21zm-11.21 0 .433-1.952c.287.064.495.183.622.271.126.089.206.172.245.216.072.08.083.116.043.044-.075-.138-.203-.425-.377-.92l-1.887.66-1.888.66c.2.572.412 1.099.644 1.522.114.208.27.461.479.695.178.2.589.61 1.252.757zm-.921-1.681 1.882-.675q-.387-1.081-1.289-3.506l-1.875.697-1.874.697c.6 1.615 1.024 2.766 1.273 3.462zm-1.282-3.484 1.88-.683q-.878-2.415-1.514-4.224l-1.887.663-1.887.664q.645 1.834 1.529 4.264zm-1.521-4.244 1.889-.657a90 90 0 0 1-1.136-3.485l-1.914.579-1.915.579q.534 1.764 1.187 3.641zm-1.161-3.563h2v-.12h-4v.12zm0-.12h-2v.12h4v-.12zm0 .12-1.998-.091c-.041.904-.082 2.237-.122 3.989l2 .046 1.999.045c.04-1.745.08-3.04.119-3.898zm-.12 3.944-2-.047c-.04 1.732-.079 3.015-.118 3.858l1.998.092 1.997.093c.042-.892.082-2.212.122-3.95zm-.12 3.903h-2v4.084h4v-4.084zm0 4.084h-2a2 2 0 0 1-.005.141l-.003.041a1.3 1.3 0 0 1 .14-.349l1.727 1.008 1.728 1.008c.384-.659.413-1.417.413-1.849zm-.141.841-1.687-1.073c.124-.195.26-.322.354-.395s.17-.114.203-.13c.059-.029.054-.017-.065.01l.455 1.949.454 1.947c.281-.065.6-.16.906-.31a2.6 2.6 0 0 0 1.068-.924zm-.74.36v-2h-8.248v4h8.248zm-8.248 0 1.414-1.414-.881-.88-1.414 1.414-1.414 1.414.88.88zm-.881-.88 1.999.06c.067-2.239.121-5.727.161-10.454l-2-.016-2-.017c-.04 4.722-.093 8.174-.159 10.367zm.16-10.41 2 .016c.04-4.722.093-8.201.159-10.448l-1.999-.059-1.999-.059c-.067 2.291-.121 5.806-.161 10.533zm.16-10.49h2v-4.325h-4v4.324zm0-4.325 1.927.535c.045-.161.05-.105-.043.034-.079.119-.52.71-1.403.71v-4c-1.07 0-1.685.712-1.925 1.071-.253.38-.394.796-.483 1.115zm.481-.72h-2v.08h4v-.08zm0 .08v2c.936 0 2.381-.028 4.319-.081l-.055-2-.055-1.999c-1.933.053-3.331.08-4.209.08zm4.264-.08.055 1.999c1.944-.054 3.383-.08 4.329-.08v-4c-1.003 0-2.486.028-4.439.081zm4.384-.08v2h3.363v-4h-3.363zm3.363 0v2a1.9 1.9 0 0 1-.834-.192l.894-1.789.895-1.788c-.043-.022-.432-.232-.955-.232zm.06.02-.725 1.863-.015-.006-.044-.022a1.3 1.3 0 0 1-.185-.124 1.7 1.7 0 0 1-.583-.958l1.953-.433 1.952-.434a2.3 2.3 0 0 0-.823-1.298 3 3 0 0 0-.805-.453zm.401.32-1.98.282.02.14 1.98-.282 1.98-.283-.02-.14zm.02.14-1.875.696q.716 1.928 1.452 3.998l1.884-.67 1.884-.67a306 306 0 0 0-1.47-4.05zm1.461 4.024-1.884.67q.737 2.07 1.755 5.026l1.891-.651 1.891-.652a540 540 0 0 0-1.769-5.064zm1.762 5.045-1.89.655a551 551 0 0 0 1.428 4.081l1.883-.672 1.884-.673c-.264-.738-.735-2.084-1.416-4.047zm1.421 4.064h2v-2.963h-4v2.963zm0-2.963 1.997.113c.267-4.698.404-8.085.404-10.123h-4c0 1.913-.131 5.199-.397 9.896zm.401-10.01h2c0 .408-.167.876-.545 1.22-.31.281-.608.339-.657.347l-.358-1.967-.358-1.968a2.65 2.65 0 0 0-1.318.628 2.34 2.34 0 0 0-.764 1.74zm.44-.4.358 1.967c.108-.02.412-.047 1.003-.047v-4c-.636 0-1.239.025-1.719.112zm1.361-.08v2h6.847v-4h-6.847zm39.147 24.904 1.955.422.045-.209v-.213zm-2.722 1.341.445 1.95.011-.003zm-5.085.82-.188-1.99h-.002zm-6.727.161-.14 1.995h.003zm-2.742-.34-.349 1.969.014.002.014.003zm-3.043-.921-.824 1.822.01.005.011.005zm-2.743-1.662-1.302 1.519.035.03.036.027zm-.841-.72 1.302-1.519-.072-.061-.077-.054zm-.681-.721 1.633-1.156-.021-.029-.021-.027zm-.64-.841-1.689 1.072.046.072.052.068zm.12-17.297-1.544-1.271-.041.05-.038.052zm.56-.68 1.544 1.27.456-.553v-.718zm0-.24h-2v5.8l3.576-4.568zm14.495-4.385-.311 1.976.016.002.016.002zm3.003.66-.559 1.92.014.005.014.004zm5.285 3.364-1.62 1.173.01.014.01.013zm.64 1.261-1.908.6.003.008.002.008zm.401 1.782-1.974.323.003.02.004.021zm.32 1.601h2v-.227l-.051-.222zm-5.225.621-.07 1.999h.001zm-4.945-.06-.673 1.883.327.117h.346zm-.52-.62-1.853.754.018.042.019.041zm-.281-.621 1.6-1.2-3.6-4.8v6zm0 .04-1.824.82 3.824-.82zm-3.043-.44.986 1.74.01-.006.009-.005zm-.921.86 1.685 1.078.01-.015.009-.015zm-.52 1.281-1.937-.496-.005.017-.004.019zm-.24 1.402-1.992-.187-.002.031-.002.031zm.04 5.685-1.995.148.003.037.004.036zm.26 1.221 1.919-.564zm6.306 1.802.612 1.904 1.388-.446v-1.458zm-.02-1.922 1.985.248zm.02-.28h2v-2h-2zm-3.163.04-1.49 1.334.596.666h.894zm-.681-.76-1.961.392.107.535.364.406zm.721-5.606v-2h-.554l-.475.285zm2.483.08-.393 1.961.195.039h.198zm1.801 0 .08-1.998-.04-.002h-.04zm8.489.64h2v-.828l-.586-.586zm-.161 13.454-1.954-.423c.086-.4.299-.621.364-.682.064-.06.071-.045-.054.016-.254.125-.737.296-1.535.483l.457 1.947.456 1.947c.911-.213 1.736-.466 2.39-.788.508-.25 1.566-.85 1.831-2.078zm-2.722 1.341-.445-1.95a38 38 0 0 1-4.828.78l.188 1.99.188 1.992a42 42 0 0 0 5.342-.862zm-5.085.82-.19-1.99c-1.656.158-2.919.231-3.814.231v4c1.08 0 2.486-.087 4.193-.25zm-4.004.241v-2a38 38 0 0 1-2.585-.075l-.138 1.995-.137 1.995q1.25.086 2.86.085zm-2.723-.08.14-1.995a29 29 0 0 1-2.562-.32l-.32 1.975-.321 1.974a33 33 0 0 0 2.923.361zm-2.742-.34.349-1.97q-1.349-.239-2.589-.783l-.803 1.832-.803 1.832a15.3 15.3 0 0 0 3.497 1.058zm-3.043-.921.823-1.823a11.4 11.4 0 0 1-2.335-1.415l-1.231 1.576-1.231 1.576a15.4 15.4 0 0 0 3.15 1.908zm-2.743-1.662 1.302-1.518-.841-.721-1.302 1.519-1.301 1.518.84.72zm-.841-.72 1.153-1.634c.014.009 0 .001-.039-.04a2 2 0 0 1-.162-.203l-1.633 1.156-1.632 1.156c.309.435.688.865 1.16 1.198zm-.681-.721 1.591-1.212-.64-.841-1.591 1.212-1.591 1.212.641.84zm-.64-.841 1.688-1.072c-1.374-2.164-2.091-4.719-2.091-7.737h-4c0 3.683.885 7 2.714 9.881zm-2.403-8.809h2c0-2.97.746-5.375 2.146-7.32l-1.623-1.168-1.623-1.169c-1.963 2.727-2.9 5.982-2.9 9.657zm2.523-8.488 1.544 1.272.56-.681-1.544-1.272-1.543-1.271-.561.68zm.56-.68h2v-.28h-4v.28zm0-.28h-2v.04h4v-.04zm0 .04 1.576 1.232c1.883-2.406 5.136-3.837 10.316-3.837v-4c-5.87 0-10.545 1.639-13.467 5.372zm11.892-4.605v2c.68 0 1.443.062 2.292.196l.311-1.976.31-1.976a19 19 0 0 0-2.913-.244zm2.603.22-.279 1.98q1.26.177 2.723.6l.559-1.92.559-1.92a23.5 23.5 0 0 0-3.283-.72zm3.003.66-.531 1.929a9.5 9.5 0 0 1 2.5 1.093l1.054-1.7 1.053-1.7a13.5 13.5 0 0 0-3.546-1.55zm3.023 1.322-1.054 1.7c.763.472 1.311.984 1.696 1.515l1.62-1.173 1.62-1.173c-.737-1.017-1.696-1.867-2.829-2.57zm2.262 2.042-1.6 1.2c.138.184.25.4.332.66l1.908-.599 1.908-.6a6.2 6.2 0 0 0-.948-1.861zm.64 1.261-1.903.616c.104.32.218.806.33 1.489l1.974-.323 1.973-.323c-.128-.785-.281-1.488-.471-2.075zm.401 1.782-1.967.364c.135.726.248 1.296.338 1.687l1.949-.45 1.949-.45c-.07-.302-.17-.8-.303-1.515zm.32 1.601h-2c0-.212.054-.492.226-.765.167-.266.376-.416.515-.49.13-.069.21-.08.19-.076a1.4 1.4 0 0 1-.212.012v4c.539 0 1.253-.06 1.899-.404.353-.187.722-.48.996-.916a2.55 2.55 0 0 0 .386-1.36zm-1.281.681v-2h-1.642v4h1.642zm-1.642 0v-2c-.333 0-1.065-.019-2.233-.059l-.069 1.999-.069 1.999c1.154.04 1.957.061 2.371.061zm-2.302-.06.07-1.999a85 85 0 0 0-2.813-.061v4c.647 0 1.535.02 2.673.059zm-2.743-.06v-2h-2.202v4h2.202zm-2.202 0 .673-1.883c.341.121.527.318.589.392.064.076.067.106.034.032l-1.816.838-1.816.838c.2.435.668 1.31 1.663 1.666zm-.52-.62 1.852-.755a14 14 0 0 0-.21-.494c-.023-.05-.145-.335-.323-.572l-1.6 1.2-1.6 1.2a2 2 0 0 1-.073-.106l-.038-.061-.028-.052c-.005-.008 0 .001.017.037.031.07.081.186.15.357zm-.281-.621h-2v.04h4v-.04zm0 .04 1.824-.821c-.694-1.543-2.19-1.98-3.425-1.98v4c.216 0 .223.037.126-.011a.8.8 0 0 1-.349-.367zm-1.601-.801v-2c-.849 0-1.685.19-2.446.63l1.004 1.73 1.005 1.73c.067-.039.191-.09.437-.09zm-1.442.36-.986-1.74a4.5 4.5 0 0 0-1.638 1.553l1.703 1.048 1.704 1.048c.015-.024.058-.086.203-.169zm-.921.861-1.684-1.078c-.361.564-.605 1.205-.773 1.863l1.937.496 1.937.497c.098-.383.202-.596.268-.7zm-.52 1.281-1.946-.46a12 12 0 0 0-.286 1.675l1.992.187 1.991.187c.03-.318.092-.692.195-1.128zm-.24 1.402-1.996-.125q-.044.718-.044 1.586h4q0-.773.036-1.337zm-.04 1.461h-2c0 .227.008.518.021.86l1.999-.079 1.998-.08a19 19 0 0 1-.018-.7zm.02.781-1.999.08c.014.341.019.52.019.58h4c0-.153-.009-.414-.022-.74zm.02.66h-2v1.522h4v-1.521zm0 1.522h-2q0 .774.045 1.41l1.995-.149 1.994-.147a16 16 0 0 1-.034-1.114zm.04 1.261-1.988.221c.056.506.172 1.03.329 1.565l1.919-.565 1.919-.564a5 5 0 0 1-.191-.877zm.26 1.221-1.919.565c.191.649.486 1.278.932 1.823l1.548-1.266 1.547-1.267c-.034-.042-.113-.16-.189-.419zm.561 1.122-1.548 1.266c.491.6 1.125 1.015 1.781 1.304l.808-1.83.807-1.83c-.251-.11-.311-.19-.301-.177zm1.041.74-.808 1.83c.766.338 1.595.47 2.429.47v-4c-.42 0-.673-.067-.814-.13zm1.621.3v2c1.397 0 2.662-.124 3.695-.456l-.612-1.904-.612-1.904c-.461.149-1.252.265-2.471.265zm3.083-.36h2v-.88h-4v.88zm0-.88h2c0-.18-.011-.377-.026-.574l-1.994.153-1.994.153a4 4 0 0 1 .014.267zm-.02-.421 1.994-.153a4 4 0 0 1-.014-.267h-4c0 .18.011.376.026.573zm-.02-.42h2v.047l-.002.031-.002.037-.001.013.003-.027.007-.053-1.985-.249-1.984-.248c-.008.06-.036.269-.036.449zm.02-.2 1.985.247c.02-.163.035-.342.035-.528h-4v-.012l-.004.044zm.02-.28v-2h-.761v4h.761zm-.761 0v-2c-.182 0-.375.01-.566.026l.166 1.993.166 1.993c.13-.01.203-.013.234-.013zm-.4.02-.166-1.994-.187.014h.033v4c.15 0 .34-.016.486-.028zm-.32.02v-2h-1.682v4h1.682zm-1.682 0 1.491-1.334-.681-.761-1.491 1.333-1.49 1.334.681.76zm-.681-.762 1.962-.392.005.032.001.007.001.002-.001-.002v-.006l-.002-.024a3 3 0 0 1-.006-.217h-4c0 .298.013.66.079.993zm-.04-.6h2v-1.241h-4v1.24zm0-1.241h2c0-.118.006-.332.019-.661l-1.999-.08-1.998-.08c-.014.338-.022.618-.022.82zm.02-.741 1.999.08c.014-.347.021-.65.021-.9h-4q0 .262-.018.74zm.02-.82h2v-.561h-4v.56zm0-.561h2a2 2 0 0 1-.004.127l-.002.021-.001.007.002-.013.005-.04-1.98-.283-1.979-.282c-.008.052-.041.265-.041.463zm.02-.18 1.98.282a4 4 0 0 0 .04-.543h-4l.001-.028v.005zm.02-.26h2v-.161h-4v.16zm0-.161h2s.003.219-.172.493l-1.687-1.074-1.688-1.073c-.361.568-.453 1.173-.453 1.654zm.141-.58 1.687 1.073a1.2 1.2 0 0 1-.185.224c-.015.013.001-.003.067-.043l-1.029-1.715-1.029-1.715c-.354.213-.854.56-1.199 1.102zm.54-.461v2h1.882v-4h-1.882zm1.882 0v2h-.036l-.011-.001h.008l.025.003q.067.008.222.04l.393-1.962.392-1.961a5 5 0 0 0-.993-.119zm.601.08v2h1.801v-4h-1.801zm1.801 0-.08 1.998c1.34.054 2.36.082 3.043.082v-4c-.598 0-1.553-.025-2.883-.078zm2.963.08v2h1.922v-4h-1.922zm1.922 0v2c.97 0 1.661.046 2.115.116.227.036.343.07.383.084.062.022-.105-.022-.309-.225l1.415-1.414 1.414-1.415c-.391-.39-.848-.597-1.179-.715a6 6 0 0 0-1.109-.267c-.747-.116-1.671-.164-2.73-.164zm3.604.56h-2c0 1.26-.027 3.192-.08 5.806l2 .04 1.999.041c.054-2.618.081-4.584.081-5.886zm-.08 5.846-2-.04a322 322 0 0 0-.081 5.886h4c0-1.26.027-3.192.08-5.805zm-.081 5.846h-2v1.762h4v-1.762z" mask="url(#a)"/></svg>