<svg width="273" height="177" viewBox="0 0 273 177" fill="none" xmlns="http://www.w3.org/2000/svg">
<path d="M226.77 146H44.2302C36.3711 146 30 152.94 30 161.5C30 170.06 36.3711 177 44.2302 177H226.77C234.629 177 241 170.06 241 161.5C241 152.94 234.629 146 226.77 146Z" fill="#D4F15F"/>
<path d="M75.3625 158.183C75.2727 157.554 75.1828 156.521 75.2577 155.743C77.4287 156.162 81.5163 156.192 83.5525 155.833C83.6274 156.506 83.5975 157.599 83.5076 158.183C81.5163 158.528 77.4886 158.483 75.3625 158.183ZM74.7037 161.896C75.3925 162.031 76.4405 162.361 77.0095 162.69C76.7999 163.049 76.5753 163.543 76.5753 164.038C76.5753 164.711 77.0394 165.385 79.2105 165.385C81.112 165.385 82.9087 165.011 84.1664 164.442C84.4958 165.056 84.7354 166.209 84.7653 166.927C83.7771 167.361 81.7708 167.796 79.3003 167.796C76.0962 167.796 74 166.628 74 164.577C74 163.543 74.4192 162.435 74.7037 161.896ZM89.794 156.926L89.8988 156.312C89.9887 155.743 90.0635 154.964 90.0935 154.38C90.8121 154.455 92.0848 154.71 92.6538 154.934C92.5789 155.174 92.4142 155.862 92.2196 156.746C93.642 156.581 95.1692 156.312 96.367 155.877C96.4269 156.267 96.4269 157.629 96.3371 158.183C95.0344 158.543 93.3425 158.797 91.7405 158.947C91.5308 160.01 91.3362 161.028 91.2613 161.567C92.3394 160.759 93.5821 160.234 95.3039 160.234C97.6397 160.234 99.092 161.792 99.092 163.678C99.092 166.793 96.3969 168.425 92.1148 168.125C91.8153 167.691 91.3212 166.403 91.2164 165.744C94.4655 166.179 96.6964 165.55 96.6964 163.663C96.6964 162.795 95.9178 162.286 94.9296 162.286C93.0131 162.286 91.7704 163.528 91.1415 164.292C90.9619 164.517 90.7672 164.861 90.6025 165.146C90.0785 164.996 88.9106 164.562 88.4764 164.217C88.5962 163.753 88.701 163.169 88.8208 162.54C88.9555 161.717 89.1951 160.399 89.4197 159.112C88.701 159.127 88.0722 159.141 87.608 159.112C87.4283 158.588 87.2487 157.554 87.1888 156.791C87.7278 156.881 88.4165 156.941 89.0903 156.941C89.2999 156.941 89.5395 156.941 89.794 156.926ZM103.863 156.551C103.953 155.952 104.327 154.934 104.537 154.5C106.064 154.994 108.534 155.638 109.747 155.862C109.657 156.476 109.403 157.375 109.058 157.959C108.04 157.764 104.597 156.866 103.863 156.551ZM105.061 157.854C104.941 158.617 104.731 160.803 104.731 161.492C106.004 160.519 107.396 159.995 108.969 159.995C111.544 159.995 112.996 161.627 112.996 163.618C112.996 167.182 109.283 168.425 105.884 168.14C105.54 167.661 105.196 166.463 105.136 165.774C108.549 166.194 110.601 165.325 110.601 163.558C110.601 162.72 109.912 162.121 108.699 162.121C106.962 162.121 105.57 163.139 104.731 164.112C104.552 164.337 104.312 164.681 104.162 164.921C103.668 164.726 102.68 164.292 102.291 163.978C102.426 163.049 102.71 158.019 102.71 157.45C103.384 157.509 104.552 157.689 105.061 157.854ZM122.548 166.029C123.895 166.029 125.393 165.655 126.246 165.295C126.336 166.104 126.186 167.107 125.976 167.811C125.437 167.99 123.82 168.2 122.503 168.2C120.182 168.2 118.116 167.421 118.116 165.235C118.116 163.364 119.688 162.361 121.47 161.462C121.29 161.193 120.961 160.998 120.541 160.998C119.523 160.998 118.625 161.777 117.367 163.424C116.783 163.004 116.08 162.316 115.72 161.702C117.188 160.429 118.176 159.216 118.82 158.183C118.161 158.213 117.532 158.243 117.008 158.243C116.813 157.689 116.634 156.701 116.634 156.057C117.113 156.132 117.622 156.177 118.101 156.177C118.55 156.177 119.134 156.162 119.808 156.117C120.017 155.518 120.197 154.859 120.287 154.23C120.946 154.275 122.039 154.56 122.548 154.784C122.473 155.054 122.338 155.458 122.173 155.877C123.087 155.758 123.955 155.578 124.584 155.368C124.764 155.877 124.839 156.851 124.794 157.39C123.925 157.599 122.593 157.809 121.2 157.974C120.901 158.513 120.541 159.022 120.257 159.441C120.706 159.306 121.17 159.246 121.515 159.246C122.263 159.246 123.057 159.621 123.431 160.489C124.434 159.98 125.288 159.546 125.947 159.156C126.306 158.962 126.725 158.707 127.144 158.348C127.519 158.827 127.893 159.905 127.968 160.489C127.564 160.818 125.273 161.852 123.641 162.585C123.656 163.334 123.656 164.322 123.671 164.936C122.965 165.028 122.249 165.023 121.545 164.921C121.575 164.651 121.604 164.127 121.604 163.543C120.691 164.082 120.392 164.502 120.392 165.011C120.392 165.64 120.931 166.029 122.548 166.029ZM140.609 159.471C140.209 158.927 139.697 158.474 139.107 158.143C138.53 157.809 137.959 157.642 137.394 157.642C136.945 157.642 136.522 157.732 136.124 157.912C135.739 158.091 135.399 158.342 135.103 158.662C134.802 158.993 134.567 159.379 134.41 159.798C134.253 160.256 134.175 160.738 134.179 161.223C134.179 161.736 134.256 162.217 134.41 162.666C134.577 163.103 134.808 163.481 135.103 163.802C135.399 164.123 135.739 164.373 136.124 164.553C136.522 164.733 136.945 164.823 137.394 164.823C137.92 164.823 138.472 164.681 139.05 164.399C139.633 164.109 140.161 163.718 140.609 163.244L142.919 165.708C142.423 166.241 141.86 166.707 141.244 167.094C140.626 167.487 139.96 167.798 139.261 168.018C138.593 168.22 137.9 168.324 137.202 168.326C136.162 168.326 135.212 168.153 134.353 167.806C133.514 167.461 132.749 166.958 132.1 166.324C131.454 165.689 130.943 164.929 130.599 164.091C130.247 163.189 130.07 162.229 130.079 161.261C130.079 160.26 130.259 159.343 130.618 158.508C130.968 157.674 131.486 156.921 132.139 156.295C132.809 155.664 133.593 155.168 134.449 154.832C135.37 154.478 136.35 154.302 137.336 154.312C138.029 154.312 138.716 154.414 139.396 154.62C140.076 154.812 140.718 155.088 141.321 155.448C141.915 155.789 142.453 156.217 142.919 156.718L140.609 159.471ZM145.103 154.562H149.107V164.707H154.767V168.057H145.103V154.562ZM157.12 154.562H161.124V168.057H157.12V154.562ZM174.121 159.471C173.721 158.927 173.209 158.474 172.619 158.143C172.042 157.809 171.471 157.642 170.906 157.642C170.457 157.642 170.033 157.732 169.636 157.912C169.251 158.091 168.911 158.342 168.615 158.662C168.314 158.993 168.079 159.379 167.922 159.798C167.765 160.256 167.687 160.738 167.691 161.223C167.691 161.736 167.768 162.217 167.922 162.666C168.089 163.103 168.32 163.481 168.615 163.802C168.911 164.123 169.251 164.373 169.636 164.553C170.033 164.733 170.457 164.823 170.906 164.823C171.432 164.823 171.984 164.681 172.562 164.399C173.145 164.109 173.673 163.718 174.121 163.244L176.431 165.708C175.935 166.241 175.372 166.707 174.756 167.094C174.138 167.487 173.472 167.798 172.773 168.018C172.105 168.22 171.412 168.324 170.714 168.326C169.674 168.326 168.724 168.153 167.865 167.806C167.026 167.461 166.261 166.958 165.612 166.324C164.966 165.689 164.455 164.929 164.111 164.091C163.759 163.189 163.582 162.229 163.591 161.261C163.591 160.26 163.771 159.343 164.13 158.508C164.48 157.674 164.998 156.921 165.651 156.295C166.321 155.664 167.105 155.168 167.961 154.832C168.882 154.478 169.862 154.302 170.848 154.312C171.541 154.312 172.228 154.414 172.908 154.62C173.588 154.812 174.23 155.088 174.833 155.448C175.426 155.789 175.965 156.217 176.431 156.718L174.121 159.471ZM178.615 154.562H182.619V159.971L187.143 154.562H191.763L182.619 164.746V168.057H178.615V154.562ZM186.585 159.625L192.071 168.057H187.278L183.909 162.763L186.585 159.625ZM193.952 154.6H197.648V158.104L196.975 163.244H194.645L193.952 158.104V154.6ZM195.743 164.592C196.269 164.592 196.699 164.758 197.032 165.092C197.379 165.426 197.552 165.862 197.552 166.401C197.552 166.94 197.379 167.376 197.032 167.71C196.699 168.044 196.269 168.211 195.743 168.211C195.204 168.211 194.767 168.044 194.434 167.71C194.1 167.376 193.933 166.94 193.933 166.401C193.933 165.862 194.1 165.426 194.434 165.092C194.767 164.758 195.204 164.592 195.743 164.592Z" fill="#6C8600"/>
<path d="M31.3558 11.82C31.3058 11.99 31.2608 12.145 31.2208 12.285C31.1908 12.425 31.1608 12.56 31.1308 12.69C31.0308 13.18 30.9358 13.725 30.8458 14.325C30.7658 14.915 30.7008 15.52 30.6508 16.14C30.6008 16.76 30.5758 17.365 30.5758 17.955C30.5758 18.825 30.6158 19.6 30.6958 20.28C30.7858 20.95 30.9058 21.565 31.0558 22.125C31.2058 22.685 31.3658 23.225 31.5358 23.745L29.4508 24.36C29.3008 23.91 29.1558 23.37 29.0158 22.74C28.8758 22.1 28.7608 21.41 28.6708 20.67C28.5808 19.92 28.5358 19.15 28.5358 18.36C28.5358 17.88 28.5508 17.395 28.5808 16.905C28.6108 16.415 28.6458 15.93 28.6858 15.45C28.7258 14.97 28.7708 14.505 28.8208 14.055C28.8808 13.595 28.9308 13.165 28.9708 12.765C28.9908 12.615 29.0058 12.45 29.0158 12.27C29.0258 12.08 29.0258 11.91 29.0158 11.76L31.3558 11.82ZM28.5358 13.365C29.5258 13.365 30.4308 13.35 31.2508 13.32C32.0808 13.28 32.8758 13.21 33.6358 13.11C34.3958 13.01 35.1808 12.86 35.9908 12.66L36.0058 14.745C35.5058 14.835 34.9408 14.92 34.3108 15C33.6808 15.07 33.0208 15.13 32.3308 15.18C31.6508 15.23 30.9758 15.27 30.3058 15.3C29.6458 15.32 29.0308 15.33 28.4608 15.33C28.1708 15.33 27.8558 15.325 27.5158 15.315C27.1858 15.295 26.8558 15.28 26.5258 15.27C26.2058 15.25 25.9208 15.235 25.6708 15.225L25.6108 13.155C25.7908 13.175 26.0408 13.205 26.3608 13.245C26.6908 13.275 27.0458 13.305 27.4258 13.335C27.8158 13.355 28.1858 13.365 28.5358 13.365ZM35.1358 15.81C35.0958 15.91 35.0408 16.06 34.9708 16.26C34.9008 16.45 34.8308 16.645 34.7608 16.845C34.7008 17.045 34.6508 17.205 34.6108 17.325C34.3308 18.215 33.9808 19.025 33.5608 19.755C33.1508 20.485 32.7108 21.12 32.2408 21.66C31.7708 22.19 31.3108 22.615 30.8608 22.935C30.3708 23.295 29.7958 23.625 29.1358 23.925C28.4758 24.215 27.7908 24.36 27.0808 24.36C26.7008 24.36 26.3458 24.28 26.0158 24.12C25.6858 23.96 25.4208 23.705 25.2208 23.355C25.0208 23.005 24.9208 22.555 24.9208 22.005C24.9208 21.465 25.0308 20.93 25.2508 20.4C25.4708 19.87 25.7758 19.365 26.1658 18.885C26.5658 18.405 27.0308 17.98 27.5608 17.61C28.0908 17.24 28.6658 16.945 29.2858 16.725C29.7758 16.555 30.3158 16.415 30.9058 16.305C31.5058 16.195 32.1108 16.14 32.7208 16.14C33.6508 16.14 34.4908 16.31 35.2408 16.65C36.0008 16.99 36.6058 17.465 37.0558 18.075C37.5058 18.685 37.7308 19.405 37.7308 20.235C37.7308 20.765 37.6508 21.29 37.4908 21.81C37.3308 22.32 37.0608 22.795 36.6808 23.235C36.3008 23.675 35.7908 24.055 35.1508 24.375C34.5208 24.705 33.7308 24.94 32.7808 25.08L31.5808 23.175C32.5808 23.065 33.3608 22.845 33.9208 22.515C34.4908 22.185 34.8908 21.805 35.1208 21.375C35.3608 20.945 35.4808 20.53 35.4808 20.13C35.4808 19.73 35.3708 19.37 35.1508 19.05C34.9308 18.73 34.6008 18.475 34.1608 18.285C33.7308 18.085 33.1958 17.985 32.5558 17.985C31.8458 17.985 31.2208 18.065 30.6808 18.225C30.1508 18.375 29.7108 18.535 29.3608 18.705C28.9008 18.935 28.4958 19.22 28.1458 19.56C27.7958 19.89 27.5258 20.23 27.3358 20.58C27.1458 20.93 27.0508 21.24 27.0508 21.51C27.0508 21.72 27.0958 21.88 27.1858 21.99C27.2758 22.1 27.4308 22.155 27.6508 22.155C28.0008 22.155 28.4108 22.03 28.8808 21.78C29.3508 21.53 29.8058 21.19 30.2458 20.76C30.7258 20.3 31.1758 19.76 31.5958 19.14C32.0258 18.52 32.3808 17.74 32.6608 16.8C32.7008 16.68 32.7358 16.525 32.7658 16.335C32.8058 16.145 32.8408 15.955 32.8708 15.765C32.9008 15.565 32.9208 15.405 32.9308 15.285L35.1358 15.81ZM39.8308 13.965C40.1808 14.005 40.5508 14.035 40.9408 14.055C41.3408 14.065 41.6658 14.07 41.9158 14.07C42.5758 14.07 43.2358 14.035 43.8958 13.965C44.5658 13.885 45.1908 13.785 45.7708 13.665C46.3608 13.545 46.8708 13.42 47.3008 13.29L47.3608 15.375C46.9708 15.485 46.4758 15.6 45.8758 15.72C45.2758 15.83 44.6308 15.925 43.9408 16.005C43.2608 16.085 42.5908 16.125 41.9308 16.125C41.6208 16.125 41.3058 16.12 40.9858 16.11C40.6758 16.1 40.3458 16.085 39.9958 16.065L39.8308 13.965ZM45.9508 11.82C45.8908 12.09 45.8058 12.43 45.6958 12.84C45.5958 13.25 45.4808 13.69 45.3508 14.16C45.2208 14.62 45.0808 15.08 44.9308 15.54C44.7108 16.26 44.4208 17.03 44.0608 17.85C43.7108 18.67 43.3258 19.475 42.9058 20.265C42.4858 21.045 42.0608 21.74 41.6308 22.35L39.4408 21.24C39.7808 20.81 40.1158 20.34 40.4458 19.83C40.7758 19.31 41.0858 18.785 41.3758 18.255C41.6658 17.715 41.9208 17.2 42.1408 16.71C42.3708 16.22 42.5558 15.78 42.6958 15.39C42.8958 14.82 43.0658 14.195 43.2058 13.515C43.3558 12.835 43.4408 12.19 43.4608 11.58L45.9508 11.82ZM49.4608 16.515C49.4408 16.835 49.4308 17.175 49.4308 17.535C49.4408 17.885 49.4508 18.245 49.4608 18.615C49.4708 18.825 49.4808 19.105 49.4908 19.455C49.5108 19.795 49.5308 20.16 49.5508 20.55C49.5708 20.93 49.5858 21.29 49.5958 21.63C49.6158 21.97 49.6258 22.235 49.6258 22.425C49.6258 22.925 49.5308 23.375 49.3408 23.775C49.1508 24.175 48.8358 24.49 48.3958 24.72C47.9558 24.96 47.3508 25.08 46.5808 25.08C45.9208 25.08 45.3258 24.975 44.7958 24.765C44.2658 24.565 43.8408 24.27 43.5208 23.88C43.2108 23.48 43.0558 22.99 43.0558 22.41C43.0558 21.91 43.1858 21.45 43.4458 21.03C43.7058 20.6 44.0958 20.26 44.6158 20.01C45.1358 19.75 45.7808 19.62 46.5508 19.62C47.4508 19.62 48.2808 19.75 49.0408 20.01C49.8108 20.26 50.4958 20.58 51.0958 20.97C51.7058 21.36 52.2208 21.75 52.6408 22.14L51.4408 24.09C51.1808 23.85 50.8808 23.58 50.5408 23.28C50.2008 22.97 49.8158 22.68 49.3858 22.41C48.9658 22.13 48.5058 21.9 48.0058 21.72C47.5058 21.54 46.9708 21.45 46.4008 21.45C46.0308 21.45 45.7358 21.52 45.5158 21.66C45.3058 21.79 45.2008 21.965 45.2008 22.185C45.2008 22.425 45.2958 22.62 45.4858 22.77C45.6858 22.92 45.9408 22.995 46.2508 22.995C46.5508 22.995 46.7858 22.94 46.9558 22.83C47.1258 22.72 47.2458 22.565 47.3158 22.365C47.3858 22.155 47.4208 21.91 47.4208 21.63C47.4208 21.44 47.4108 21.14 47.3908 20.73C47.3708 20.32 47.3458 19.865 47.3158 19.365C47.2958 18.855 47.2708 18.35 47.2408 17.85C47.2208 17.34 47.2008 16.895 47.1808 16.515H49.4608ZM51.8008 17.535C51.5008 17.295 51.1258 17.04 50.6758 16.77C50.2358 16.49 49.7808 16.225 49.3108 15.975C48.8508 15.715 48.4458 15.51 48.0958 15.36L49.2658 13.56C49.5358 13.68 49.8458 13.83 50.1958 14.01C50.5558 14.18 50.9158 14.365 51.2758 14.565C51.6458 14.755 51.9908 14.945 52.3108 15.135C52.6308 15.315 52.8908 15.475 53.0908 15.615L51.8008 17.535ZM61.0708 11.925C61.0108 12.155 60.9458 12.43 60.8758 12.75C60.8158 13.06 60.7658 13.3 60.7258 13.47C60.6558 13.8 60.5658 14.215 60.4558 14.715C60.3558 15.215 60.2408 15.745 60.1108 16.305C59.9808 16.865 59.8508 17.4 59.7208 17.91C59.5908 18.43 59.4308 19 59.2408 19.62C59.0508 20.23 58.8458 20.855 58.6258 21.495C58.4158 22.125 58.1958 22.735 57.9658 23.325C57.7458 23.905 57.5308 24.43 57.3208 24.9L54.8008 24.045C55.0208 23.675 55.2558 23.215 55.5058 22.665C55.7558 22.115 56.0008 21.525 56.2408 20.895C56.4808 20.255 56.7058 19.625 56.9158 19.005C57.1258 18.375 57.3008 17.8 57.4408 17.28C57.5408 16.92 57.6308 16.56 57.7108 16.2C57.8008 15.84 57.8808 15.495 57.9508 15.165C58.0208 14.825 58.0808 14.505 58.1308 14.205C58.1808 13.905 58.2208 13.635 58.2508 13.395C58.2908 13.075 58.3108 12.765 58.3108 12.465C58.3208 12.155 58.3158 11.905 58.2958 11.715L61.0708 11.925ZM56.9608 14.025C57.6108 14.025 58.2658 13.995 58.9258 13.935C59.5958 13.875 60.2658 13.79 60.9358 13.68C61.6158 13.56 62.2908 13.425 62.9608 13.275V15.54C62.3408 15.69 61.6758 15.815 60.9658 15.915C60.2558 16.015 59.5508 16.095 58.8508 16.155C58.1608 16.205 57.5258 16.23 56.9458 16.23C56.5658 16.23 56.2258 16.225 55.9258 16.215C55.6258 16.195 55.3458 16.18 55.0858 16.17L55.0258 13.905C55.4358 13.945 55.7808 13.975 56.0608 13.995C56.3408 14.015 56.6408 14.025 56.9608 14.025ZM61.6558 16.455C62.0958 16.405 62.5758 16.365 63.0958 16.335C63.6258 16.305 64.1358 16.29 64.6258 16.29C65.0458 16.29 65.4758 16.3 65.9158 16.32C66.3658 16.34 66.8208 16.375 67.2808 16.425L67.2358 18.6C66.8658 18.55 66.4558 18.505 66.0058 18.465C65.5558 18.425 65.0958 18.405 64.6258 18.405C64.0858 18.405 63.5758 18.42 63.0958 18.45C62.6158 18.47 62.1358 18.51 61.6558 18.57V16.455ZM62.7508 20.295C62.7008 20.485 62.6558 20.695 62.6158 20.925C62.5758 21.145 62.5558 21.33 62.5558 21.48C62.5558 21.64 62.5858 21.785 62.6458 21.915C62.7158 22.035 62.8158 22.14 62.9458 22.23C63.0858 22.32 63.2708 22.39 63.5008 22.44C63.7308 22.48 64.0108 22.5 64.3408 22.5C64.8508 22.5 65.3658 22.475 65.8858 22.425C66.4158 22.365 66.9708 22.285 67.5508 22.185L67.4608 24.495C67.0308 24.545 66.5558 24.59 66.0358 24.63C65.5258 24.68 64.9558 24.705 64.3258 24.705C63.0158 24.705 62.0158 24.48 61.3258 24.03C60.6458 23.59 60.3058 22.99 60.3058 22.23C60.3058 21.85 60.3358 21.47 60.3958 21.09C60.4658 20.7 60.5308 20.365 60.5908 20.085L62.7508 20.295ZM77.8108 13.695C77.7008 14.455 77.5658 15.265 77.4058 16.125C77.2458 16.985 77.0208 17.885 76.7308 18.825C76.4408 19.825 76.0958 20.7 75.6958 21.45C75.2958 22.2 74.8458 22.785 74.3458 23.205C73.8558 23.625 73.3158 23.835 72.7258 23.835C72.1058 23.835 71.5458 23.635 71.0458 23.235C70.5558 22.825 70.1658 22.275 69.8758 21.585C69.5958 20.885 69.4558 20.11 69.4558 19.26C69.4558 18.37 69.6358 17.53 69.9958 16.74C70.3558 15.94 70.8558 15.235 71.4958 14.625C72.1358 14.015 72.8858 13.535 73.7458 13.185C74.6058 12.835 75.5358 12.66 76.5358 12.66C77.4958 12.66 78.3558 12.815 79.1158 13.125C79.8858 13.425 80.5408 13.85 81.0808 14.4C81.6308 14.95 82.0508 15.595 82.3408 16.335C82.6308 17.065 82.7758 17.855 82.7758 18.705C82.7758 19.755 82.5658 20.705 82.1458 21.555C81.7258 22.395 81.0908 23.1 80.2408 23.67C79.3908 24.23 78.3158 24.62 77.0158 24.84L75.6358 22.68C75.9558 22.64 76.2258 22.6 76.4458 22.56C76.6658 22.51 76.8858 22.46 77.1058 22.41C77.5858 22.29 78.0208 22.12 78.4108 21.9C78.8008 21.68 79.1358 21.41 79.4158 21.09C79.6958 20.77 79.9108 20.405 80.0608 19.995C80.2108 19.575 80.2858 19.12 80.2858 18.63C80.2858 18.05 80.2008 17.525 80.0308 17.055C79.8708 16.585 79.6258 16.18 79.2958 15.84C78.9758 15.5 78.5808 15.24 78.1108 15.06C77.6408 14.88 77.1008 14.79 76.4908 14.79C75.7108 14.79 75.0258 14.93 74.4358 15.21C73.8558 15.48 73.3708 15.835 72.9808 16.275C72.5908 16.705 72.2958 17.165 72.0958 17.655C71.9058 18.145 71.8108 18.6 71.8108 19.02C71.8108 19.45 71.8558 19.815 71.9458 20.115C72.0358 20.405 72.1508 20.625 72.2908 20.775C72.4408 20.925 72.6058 21 72.7858 21C72.9858 21 73.1708 20.9 73.3408 20.7C73.5208 20.5 73.6908 20.205 73.8508 19.815C74.0208 19.415 74.1958 18.925 74.3758 18.345C74.6058 17.635 74.8008 16.87 74.9608 16.05C75.1208 15.22 75.2358 14.41 75.3058 13.62L77.8108 13.695ZM91.1458 13.35C90.7658 13.97 90.2758 14.59 89.6758 15.21C89.0758 15.83 88.4008 16.42 87.6508 16.98C86.9008 17.53 86.1108 18.02 85.2808 18.45C85.1908 18.27 85.0658 18.07 84.9058 17.85C84.7558 17.62 84.5958 17.4 84.4258 17.19C84.2558 16.97 84.0908 16.785 83.9308 16.635C84.8208 16.225 85.6508 15.715 86.4208 15.105C87.2008 14.485 87.8858 13.825 88.4758 13.125C89.0758 12.425 89.5408 11.755 89.8708 11.115H92.2408C92.6308 11.755 93.0608 12.355 93.5308 12.915C94.0008 13.465 94.5008 13.965 95.0308 14.415C95.5708 14.855 96.1358 15.245 96.7258 15.585C97.3158 15.915 97.9208 16.19 98.5408 16.41C98.2608 16.7 98.0008 17.025 97.7608 17.385C97.5208 17.735 97.3008 18.08 97.1008 18.42C96.3008 18.02 95.5158 17.545 94.7458 16.995C93.9858 16.445 93.2908 15.855 92.6608 15.225C92.0408 14.595 91.5358 13.97 91.1458 13.35ZM92.5558 16.785H94.8358V25.425H92.5558V16.785ZM87.4858 16.875H89.7358V18.6C89.7358 19.13 89.7008 19.695 89.6308 20.295C89.5708 20.895 89.4358 21.5 89.2258 22.11C89.0158 22.71 88.6958 23.295 88.2658 23.865C87.8358 24.435 87.2558 24.955 86.5258 25.425C86.3958 25.265 86.2208 25.085 86.0008 24.885C85.7908 24.685 85.5658 24.49 85.3258 24.3C85.0958 24.12 84.8808 23.975 84.6808 23.865C85.3108 23.475 85.8108 23.06 86.1808 22.62C86.5608 22.17 86.8408 21.71 87.0208 21.24C87.2108 20.77 87.3358 20.31 87.3958 19.86C87.4558 19.4 87.4858 18.96 87.4858 18.54V16.875ZM104.496 20.52H111.396V22.035H104.496V20.52ZM110.901 20.52H111.276L111.621 20.445L112.851 21.06C112.491 21.74 112.031 22.33 111.471 22.83C110.911 23.32 110.276 23.735 109.566 24.075C108.856 24.425 108.086 24.71 107.256 24.93C106.426 25.15 105.551 25.325 104.631 25.455C104.551 25.215 104.426 24.935 104.256 24.615C104.096 24.295 103.936 24.035 103.776 23.835C104.586 23.765 105.361 23.655 106.101 23.505C106.851 23.345 107.541 23.14 108.171 22.89C108.801 22.64 109.346 22.34 109.806 21.99C110.276 21.63 110.641 21.22 110.901 20.76V20.52ZM107.196 21.84C107.586 22.18 108.091 22.48 108.711 22.74C109.341 22.99 110.056 23.195 110.856 23.355C111.656 23.515 112.501 23.63 113.391 23.7C113.181 23.9 112.956 24.17 112.716 24.51C112.486 24.85 112.306 25.15 112.176 25.41C111.226 25.29 110.331 25.105 109.491 24.855C108.661 24.605 107.901 24.285 107.211 23.895C106.531 23.505 105.936 23.045 105.426 22.515L107.196 21.84ZM104.316 11.835H113.106V13.35H104.316V11.835ZM106.101 16.215H112.386V17.235H106.101V16.215ZM106.101 17.535H112.386V18.555H106.101V17.535ZM106.026 11.16H107.946V13.995H106.026V11.16ZM108.306 15.24H110.181V19.905H108.306V15.24ZM109.416 11.16H111.351V13.995H109.416V11.16ZM105.561 13.605L107.241 14.04C106.991 14.69 106.666 15.325 106.266 15.945C105.866 16.565 105.446 17.08 105.006 17.49C104.916 17.39 104.786 17.27 104.616 17.13C104.456 16.99 104.286 16.85 104.106 16.71C103.936 16.57 103.786 16.46 103.656 16.38C104.066 16.04 104.436 15.625 104.766 15.135C105.106 14.635 105.371 14.125 105.561 13.605ZM108.741 13.68L110.706 13.965C110.546 14.275 110.391 14.555 110.241 14.805C110.091 15.055 109.956 15.275 109.836 15.465L108.171 15.165C108.281 14.935 108.386 14.685 108.486 14.415C108.596 14.145 108.681 13.9 108.741 13.68ZM112.686 14.625V15.93H107.091V18.87H113.061V20.175H105.201V14.625H112.686ZM99.7108 15.81H103.776V17.43H99.7108V15.81ZM99.8008 11.61H103.731V13.23H99.8008V11.61ZM99.7108 17.88H103.776V19.5H99.7108V17.88ZM99.0808 13.665H104.151V15.36H99.0808V13.665ZM100.701 19.995H103.746V24.63H100.701V22.95H102.021V21.675H100.701V19.995ZM99.6508 19.995H101.331V25.2H99.6508V19.995ZM122.811 13.695C122.701 14.455 122.566 15.265 122.406 16.125C122.246 16.985 122.021 17.885 121.731 18.825C121.441 19.825 121.096 20.7 120.696 21.45C120.296 22.2 119.846 22.785 119.346 23.205C118.856 23.625 118.316 23.835 117.726 23.835C117.106 23.835 116.546 23.635 116.046 23.235C115.556 22.825 115.166 22.275 114.876 21.585C114.596 20.885 114.456 20.11 114.456 19.26C114.456 18.37 114.636 17.53 114.996 16.74C115.356 15.94 115.856 15.235 116.496 14.625C117.136 14.015 117.886 13.535 118.746 13.185C119.606 12.835 120.536 12.66 121.536 12.66C122.496 12.66 123.356 12.815 124.116 13.125C124.886 13.425 125.541 13.85 126.081 14.4C126.631 14.95 127.051 15.595 127.341 16.335C127.631 17.065 127.776 17.855 127.776 18.705C127.776 19.755 127.566 20.705 127.146 21.555C126.726 22.395 126.091 23.1 125.241 23.67C124.391 24.23 123.316 24.62 122.016 24.84L120.636 22.68C120.956 22.64 121.226 22.6 121.446 22.56C121.666 22.51 121.886 22.46 122.106 22.41C122.586 22.29 123.021 22.12 123.411 21.9C123.801 21.68 124.136 21.41 124.416 21.09C124.696 20.77 124.911 20.405 125.061 19.995C125.211 19.575 125.286 19.12 125.286 18.63C125.286 18.05 125.201 17.525 125.031 17.055C124.871 16.585 124.626 16.18 124.296 15.84C123.976 15.5 123.581 15.24 123.111 15.06C122.641 14.88 122.101 14.79 121.491 14.79C120.711 14.79 120.026 14.93 119.436 15.21C118.856 15.48 118.371 15.835 117.981 16.275C117.591 16.705 117.296 17.165 117.096 17.655C116.906 18.145 116.811 18.6 116.811 19.02C116.811 19.45 116.856 19.815 116.946 20.115C117.036 20.405 117.151 20.625 117.291 20.775C117.441 20.925 117.606 21 117.786 21C117.986 21 118.171 20.9 118.341 20.7C118.521 20.5 118.691 20.205 118.851 19.815C119.021 19.415 119.196 18.925 119.376 18.345C119.606 17.635 119.801 16.87 119.961 16.05C120.121 15.22 120.236 14.41 120.306 13.62L122.811 13.695ZM129.441 17.94C130.811 17.59 132.036 17.19 133.116 16.74C134.196 16.29 135.156 15.81 135.996 15.3C136.506 14.99 137.031 14.62 137.571 14.19C138.111 13.76 138.621 13.32 139.101 12.87C139.581 12.41 139.976 11.99 140.286 11.61L142.251 13.485C141.781 13.945 141.256 14.415 140.676 14.895C140.106 15.365 139.511 15.815 138.891 16.245C138.281 16.675 137.681 17.065 137.091 17.415C136.511 17.745 135.866 18.085 135.156 18.435C134.446 18.785 133.696 19.115 132.906 19.425C132.126 19.735 131.346 20.005 130.566 20.235L129.441 17.94ZM135.636 16.47L138.246 15.9V22.605C138.246 22.845 138.251 23.11 138.261 23.4C138.271 23.68 138.286 23.945 138.306 24.195C138.326 24.445 138.356 24.64 138.396 24.78H135.516C135.536 24.64 135.556 24.445 135.576 24.195C135.596 23.945 135.611 23.68 135.621 23.4C135.631 23.11 135.636 22.845 135.636 22.605V16.47ZM156.636 12.915C156.526 13.105 156.401 13.355 156.261 13.665C156.121 13.975 156.011 14.225 155.931 14.415C155.741 14.905 155.511 15.445 155.241 16.035C154.971 16.625 154.666 17.22 154.326 17.82C153.986 18.42 153.606 18.995 153.186 19.545C152.736 20.145 152.226 20.75 151.656 21.36C151.086 21.97 150.426 22.575 149.676 23.175C148.936 23.775 148.071 24.355 147.081 24.915L145.041 23.07C146.391 22.42 147.556 21.685 148.536 20.865C149.516 20.045 150.406 19.105 151.206 18.045C151.796 17.275 152.266 16.515 152.616 15.765C152.966 15.015 153.271 14.26 153.531 13.5C153.611 13.28 153.686 13.025 153.756 12.735C153.826 12.435 153.881 12.18 153.921 11.97L156.636 12.915ZM148.206 14.19C148.586 14.42 148.986 14.675 149.406 14.955C149.836 15.235 150.266 15.525 150.696 15.825C151.136 16.115 151.556 16.405 151.956 16.695C152.366 16.985 152.736 17.26 153.066 17.52C153.896 18.15 154.701 18.815 155.481 19.515C156.271 20.215 156.971 20.89 157.581 21.54L155.706 23.64C155.036 22.85 154.351 22.125 153.651 21.465C152.961 20.805 152.211 20.14 151.401 19.47C151.131 19.24 150.826 18.995 150.486 18.735C150.146 18.465 149.776 18.185 149.376 17.895C148.976 17.595 148.546 17.29 148.086 16.98C147.636 16.67 147.156 16.36 146.646 16.05L148.206 14.19ZM159.996 16.8C160.196 16.81 160.451 16.825 160.761 16.845C161.081 16.865 161.406 16.88 161.736 16.89C162.066 16.9 162.351 16.905 162.591 16.905C162.901 16.905 163.246 16.905 163.626 16.905C164.016 16.905 164.426 16.905 164.856 16.905C165.286 16.905 165.721 16.905 166.161 16.905C166.611 16.905 167.051 16.905 167.481 16.905C167.911 16.905 168.321 16.905 168.711 16.905C169.101 16.905 169.451 16.905 169.761 16.905C170.081 16.905 170.346 16.905 170.556 16.905C170.896 16.905 171.231 16.89 171.561 16.86C171.901 16.83 172.181 16.81 172.401 16.8V19.665C172.211 19.655 171.931 19.64 171.561 19.62C171.201 19.59 170.866 19.575 170.556 19.575C170.346 19.575 170.081 19.575 169.761 19.575C169.441 19.575 169.086 19.575 168.696 19.575C168.306 19.575 167.896 19.575 167.466 19.575C167.036 19.575 166.596 19.575 166.146 19.575C165.706 19.575 165.271 19.575 164.841 19.575C164.411 19.575 164.001 19.575 163.611 19.575C163.231 19.575 162.891 19.575 162.591 19.575C162.161 19.575 161.696 19.585 161.196 19.605C160.706 19.625 160.306 19.645 159.996 19.665V16.8ZM184.468 12.3C184.618 12.52 184.773 12.77 184.933 13.05C185.103 13.32 185.263 13.59 185.413 13.86C185.573 14.13 185.708 14.38 185.818 14.61L184.273 15.27C184.113 14.92 183.968 14.625 183.838 14.385C183.718 14.135 183.593 13.895 183.463 13.665C183.333 13.435 183.168 13.185 182.968 12.915L184.468 12.3ZM186.598 11.565C186.768 11.775 186.933 12.015 187.093 12.285C187.263 12.545 187.423 12.805 187.573 13.065C187.733 13.325 187.873 13.565 187.993 13.785L186.463 14.46C186.293 14.11 186.138 13.82 185.998 13.59C185.858 13.35 185.718 13.125 185.578 12.915C185.438 12.695 185.268 12.455 185.068 12.195L186.598 11.565ZM177.898 11.97C178.158 12.11 178.443 12.275 178.753 12.465C179.073 12.655 179.393 12.85 179.713 13.05C180.043 13.25 180.353 13.445 180.643 13.635C180.943 13.815 181.198 13.98 181.408 14.13L180.058 16.14C179.838 15.99 179.578 15.82 179.278 15.63C178.988 15.44 178.683 15.25 178.363 15.06C178.053 14.86 177.743 14.67 177.433 14.49C177.123 14.3 176.838 14.13 176.578 13.98L177.898 11.97ZM174.823 22.575C175.393 22.475 175.963 22.355 176.533 22.215C177.113 22.075 177.688 21.9 178.258 21.69C178.838 21.48 179.408 21.225 179.968 20.925C180.828 20.445 181.633 19.9 182.383 19.29C183.133 18.68 183.808 18.03 184.408 17.34C185.008 16.65 185.503 15.945 185.893 15.225L187.288 17.715C186.568 18.775 185.688 19.765 184.648 20.685C183.608 21.605 182.463 22.42 181.213 23.13C180.703 23.41 180.138 23.68 179.518 23.94C178.908 24.19 178.308 24.405 177.718 24.585C177.128 24.775 176.618 24.905 176.188 24.975L174.823 22.575ZM175.558 15.42C175.828 15.56 176.123 15.725 176.443 15.915C176.763 16.105 177.083 16.3 177.403 16.5C177.723 16.7 178.028 16.895 178.318 17.085C178.608 17.265 178.858 17.43 179.068 17.58L177.733 19.62C177.503 19.46 177.243 19.285 176.953 19.095C176.663 18.905 176.358 18.71 176.038 18.51C175.728 18.3 175.418 18.105 175.108 17.925C174.798 17.735 174.508 17.57 174.238 17.43L175.558 15.42ZM195.928 11.865C195.878 12.135 195.793 12.49 195.673 12.93C195.563 13.37 195.398 13.87 195.178 14.43C195.038 14.75 194.883 15.085 194.713 15.435C194.543 15.785 194.373 16.09 194.203 16.35C194.303 16.32 194.443 16.295 194.623 16.275C194.803 16.245 194.988 16.225 195.178 16.215C195.378 16.205 195.548 16.2 195.688 16.2C196.338 16.2 196.878 16.39 197.308 16.77C197.738 17.15 197.953 17.715 197.953 18.465C197.953 18.675 197.953 18.925 197.953 19.215C197.963 19.495 197.973 19.79 197.983 20.1C197.993 20.41 198.003 20.715 198.013 21.015C198.023 21.315 198.028 21.585 198.028 21.825H195.868C195.888 21.665 195.903 21.48 195.913 21.27C195.923 21.06 195.928 20.835 195.928 20.595C195.938 20.355 195.943 20.12 195.943 19.89C195.953 19.66 195.958 19.44 195.958 19.23C195.958 18.73 195.833 18.395 195.583 18.225C195.343 18.045 195.088 17.955 194.818 17.955C194.438 17.955 194.038 18.06 193.618 18.27C193.208 18.47 192.873 18.7 192.613 18.96C192.393 19.19 192.168 19.445 191.938 19.725C191.718 19.995 191.478 20.305 191.218 20.655L189.283 19.2C189.883 18.66 190.418 18.125 190.888 17.595C191.368 17.065 191.783 16.52 192.133 15.96C192.483 15.39 192.773 14.795 193.003 14.175C193.143 13.775 193.258 13.36 193.348 12.93C193.448 12.49 193.508 12.07 193.528 11.67L195.928 11.865ZM189.988 13.125C190.368 13.185 190.813 13.23 191.323 13.26C191.833 13.29 192.288 13.305 192.688 13.305C193.338 13.305 194.058 13.29 194.848 13.26C195.648 13.23 196.458 13.18 197.278 13.11C198.108 13.04 198.893 12.94 199.633 12.81L199.618 14.91C199.088 14.98 198.508 15.045 197.878 15.105C197.248 15.155 196.608 15.2 195.958 15.24C195.308 15.27 194.688 15.295 194.098 15.315C193.518 15.325 193.008 15.33 192.568 15.33C192.368 15.33 192.118 15.33 191.818 15.33C191.518 15.32 191.208 15.305 190.888 15.285C190.568 15.265 190.268 15.245 189.988 15.225V13.125ZM202.108 17.745C201.938 17.795 201.728 17.865 201.478 17.955C201.228 18.035 200.978 18.12 200.728 18.21C200.478 18.3 200.258 18.385 200.068 18.465C199.608 18.645 199.058 18.865 198.418 19.125C197.788 19.385 197.128 19.69 196.438 20.04C196.008 20.26 195.658 20.475 195.388 20.685C195.118 20.885 194.918 21.09 194.788 21.3C194.658 21.5 194.593 21.72 194.593 21.96C194.593 22.12 194.623 22.255 194.683 22.365C194.753 22.475 194.858 22.565 194.998 22.635C195.148 22.705 195.343 22.76 195.583 22.8C195.823 22.83 196.118 22.845 196.468 22.845C197.138 22.845 197.868 22.805 198.658 22.725C199.448 22.635 200.173 22.52 200.833 22.38L200.758 24.72C200.458 24.76 200.058 24.8 199.558 24.84C199.068 24.89 198.548 24.925 197.998 24.945C197.448 24.975 196.923 24.99 196.423 24.99C195.603 24.99 194.873 24.905 194.233 24.735C193.603 24.575 193.103 24.305 192.733 23.925C192.373 23.535 192.193 23.01 192.193 22.35C192.193 21.79 192.318 21.29 192.568 20.85C192.828 20.4 193.163 20 193.573 19.65C193.983 19.29 194.428 18.97 194.908 18.69C195.388 18.4 195.853 18.145 196.303 17.925C196.763 17.685 197.163 17.49 197.503 17.34C197.843 17.18 198.158 17.04 198.448 16.92C198.738 16.79 199.023 16.66 199.303 16.53C199.633 16.39 199.953 16.25 200.263 16.11C200.583 15.96 200.903 15.805 201.223 15.645L202.108 17.745ZM204.223 12.36H217.663V14.355H204.223V12.36ZM209.788 11.175H212.038V13.2H209.788V11.175ZM211.783 13.17H213.898V16.725C213.898 17.165 213.853 17.52 213.763 17.79C213.673 18.06 213.478 18.27 213.178 18.42C212.898 18.57 212.583 18.66 212.233 18.69C211.883 18.72 211.493 18.735 211.063 18.735C211.023 18.445 210.943 18.125 210.823 17.775C210.713 17.415 210.593 17.1 210.463 16.83C210.663 16.84 210.878 16.845 211.108 16.845C211.338 16.845 211.493 16.845 211.573 16.845C211.653 16.845 211.708 16.835 211.738 16.815C211.768 16.785 211.783 16.735 211.783 16.665V13.17ZM208.798 12.885H210.823V14.265C210.823 14.665 210.793 15.09 210.733 15.54C210.683 15.98 210.578 16.425 210.418 16.875C210.258 17.315 210.018 17.745 209.698 18.165C209.378 18.575 208.953 18.95 208.423 19.29C208.313 19.14 208.163 18.97 207.973 18.78C207.793 18.59 207.598 18.41 207.388 18.24C207.188 18.06 207.003 17.915 206.833 17.805C207.273 17.545 207.623 17.265 207.883 16.965C208.143 16.665 208.338 16.36 208.468 16.05C208.598 15.73 208.683 15.415 208.723 15.105C208.773 14.785 208.798 14.485 208.798 14.205V12.885ZM214.123 15.615L215.803 14.655C216.073 14.925 216.348 15.225 216.628 15.555C216.918 15.885 217.188 16.215 217.438 16.545C217.688 16.865 217.888 17.16 218.038 17.43L216.223 18.51C216.103 18.24 215.923 17.94 215.683 17.61C215.453 17.27 215.198 16.925 214.918 16.575C214.648 16.225 214.383 15.905 214.123 15.615ZM205.948 14.7L207.973 15.24C207.663 15.85 207.283 16.44 206.833 17.01C206.383 17.58 205.903 18.05 205.393 18.42C205.203 18.22 204.958 18 204.658 17.76C204.358 17.51 204.103 17.315 203.893 17.175C204.193 16.975 204.478 16.74 204.748 16.47C205.018 16.19 205.253 15.9 205.453 15.6C205.663 15.29 205.828 14.99 205.948 14.7ZM208.843 20.175C209.353 20.885 210.038 21.465 210.898 21.915C211.768 22.365 212.808 22.705 214.018 22.935C215.238 23.155 216.628 23.29 218.188 23.34C218.038 23.51 217.878 23.72 217.708 23.97C217.548 24.21 217.398 24.455 217.258 24.705C217.118 24.965 217.003 25.195 216.913 25.395C215.253 25.275 213.798 25.045 212.548 24.705C211.298 24.375 210.213 23.89 209.293 23.25C208.373 22.61 207.573 21.785 206.893 20.775L208.843 20.175ZM208.933 18.075L211.198 18.51C210.558 19.44 209.788 20.255 208.888 20.955C207.998 21.645 206.878 22.255 205.528 22.785C205.438 22.615 205.313 22.425 205.153 22.215C205.003 22.005 204.838 21.805 204.658 21.615C204.488 21.425 204.328 21.275 204.178 21.165C205.408 20.785 206.408 20.33 207.178 19.8C207.948 19.26 208.533 18.685 208.933 18.075ZM209.143 19.155H214.288V20.85H207.628L209.143 19.155ZM213.688 19.155H214.138L214.498 19.08L215.923 20.01C215.433 20.9 214.803 21.665 214.033 22.305C213.273 22.935 212.403 23.46 211.423 23.88C210.443 24.3 209.383 24.635 208.243 24.885C207.113 25.145 205.933 25.335 204.703 25.455C204.653 25.275 204.568 25.06 204.448 24.81C204.338 24.56 204.213 24.315 204.073 24.075C203.943 23.835 203.813 23.64 203.683 23.49C204.873 23.42 205.993 23.3 207.043 23.13C208.103 22.95 209.068 22.705 209.938 22.395C210.818 22.085 211.578 21.69 212.218 21.21C212.858 20.73 213.348 20.155 213.688 19.485V19.155ZM223.093 11.655C223.523 11.725 224.008 11.795 224.548 11.865C225.098 11.935 225.663 12.005 226.243 12.075C226.823 12.135 227.378 12.19 227.908 12.24C228.448 12.28 228.918 12.315 229.318 12.345L229.033 14.475C228.633 14.445 228.163 14.405 227.623 14.355C227.083 14.295 226.523 14.235 225.943 14.175C225.363 14.105 224.793 14.035 224.233 13.965C223.683 13.895 223.188 13.825 222.748 13.755L223.093 11.655ZM229.978 16.68C229.748 16.84 229.553 16.985 229.393 17.115C229.233 17.235 229.073 17.365 228.913 17.505C228.723 17.655 228.513 17.835 228.283 18.045C228.053 18.245 227.823 18.445 227.593 18.645C227.373 18.845 227.178 19.025 227.008 19.185C226.848 19.345 226.738 19.46 226.678 19.53C226.738 19.53 226.823 19.545 226.933 19.575C227.053 19.605 227.158 19.645 227.248 19.695C227.418 19.775 227.563 19.895 227.683 20.055C227.803 20.205 227.913 20.415 228.013 20.685C228.063 20.805 228.108 20.935 228.148 21.075C228.188 21.215 228.228 21.355 228.268 21.495C228.318 21.625 228.363 21.75 228.403 21.87C228.463 22.07 228.568 22.225 228.718 22.335C228.878 22.445 229.078 22.5 229.318 22.5C229.738 22.5 230.123 22.49 230.473 22.47C230.833 22.45 231.163 22.42 231.463 22.38C231.773 22.34 232.058 22.3 232.318 22.26L232.168 24.63C231.968 24.66 231.678 24.69 231.298 24.72C230.918 24.76 230.528 24.79 230.128 24.81C229.738 24.83 229.413 24.84 229.153 24.84C228.393 24.84 227.798 24.745 227.368 24.555C226.948 24.365 226.638 24.03 226.438 23.55C226.388 23.4 226.333 23.24 226.273 23.07C226.223 22.9 226.178 22.735 226.138 22.575C226.098 22.405 226.063 22.265 226.033 22.155C225.953 21.885 225.843 21.705 225.703 21.615C225.563 21.515 225.428 21.465 225.298 21.465C225.178 21.465 225.043 21.525 224.893 21.645C224.743 21.755 224.578 21.91 224.398 22.11C224.298 22.21 224.183 22.33 224.053 22.47C223.933 22.61 223.793 22.77 223.633 22.95C223.483 23.12 223.318 23.31 223.138 23.52C222.968 23.73 222.778 23.96 222.568 24.21C222.368 24.46 222.153 24.73 221.923 25.02L219.793 23.535C219.953 23.395 220.133 23.235 220.333 23.055C220.543 22.875 220.763 22.675 220.993 22.455C221.143 22.305 221.328 22.12 221.548 21.9C221.768 21.67 222.018 21.42 222.298 21.15C222.578 20.87 222.868 20.58 223.168 20.28C223.468 19.97 223.768 19.665 224.068 19.365C224.368 19.055 224.653 18.76 224.923 18.48C225.193 18.19 225.438 17.925 225.658 17.685C225.468 17.685 225.258 17.69 225.028 17.7C224.808 17.71 224.583 17.725 224.353 17.745C224.123 17.755 223.893 17.77 223.663 17.79C223.443 17.81 223.233 17.83 223.033 17.85C222.833 17.86 222.648 17.875 222.478 17.895C222.208 17.915 221.953 17.945 221.713 17.985C221.483 18.025 221.288 18.06 221.128 18.09L220.918 15.585C221.088 15.595 221.313 15.61 221.593 15.63C221.873 15.64 222.158 15.645 222.448 15.645C222.578 15.645 222.798 15.64 223.108 15.63C223.418 15.62 223.783 15.61 224.203 15.6C224.623 15.58 225.053 15.56 225.493 15.54C225.933 15.52 226.353 15.495 226.753 15.465C227.153 15.435 227.483 15.405 227.743 15.375C227.883 15.355 228.048 15.33 228.238 15.3C228.438 15.26 228.578 15.225 228.658 15.195L229.978 16.68ZM236.109 12.36C236.339 12.39 236.589 12.415 236.859 12.435C237.129 12.445 237.389 12.45 237.639 12.45C237.799 12.45 238.034 12.45 238.344 12.45C238.654 12.44 238.999 12.435 239.379 12.435C239.769 12.425 240.154 12.415 240.534 12.405C240.924 12.395 241.274 12.385 241.584 12.375C241.904 12.355 242.154 12.34 242.334 12.33C242.694 12.3 242.979 12.27 243.189 12.24C243.409 12.21 243.569 12.18 243.669 12.15L244.794 13.755C244.604 13.875 244.409 13.995 244.209 14.115C244.019 14.225 243.829 14.35 243.639 14.49C243.429 14.63 243.194 14.8 242.934 15C242.674 15.19 242.409 15.395 242.139 15.615C241.869 15.825 241.604 16.03 241.344 16.23C241.094 16.43 240.864 16.61 240.654 16.77C240.854 16.73 241.034 16.705 241.194 16.695C241.354 16.685 241.524 16.68 241.704 16.68C242.564 16.68 243.339 16.85 244.029 17.19C244.729 17.53 245.284 17.995 245.694 18.585C246.104 19.165 246.309 19.835 246.309 20.595C246.309 21.375 246.114 22.1 245.724 22.77C245.334 23.44 244.729 23.975 243.909 24.375C243.089 24.785 242.029 24.99 240.729 24.99C240.029 24.99 239.384 24.885 238.794 24.675C238.204 24.465 237.734 24.165 237.384 23.775C237.034 23.375 236.859 22.9 236.859 22.35C236.859 21.91 236.979 21.495 237.219 21.105C237.469 20.715 237.814 20.4 238.254 20.16C238.694 19.92 239.199 19.8 239.769 19.8C240.469 19.8 241.064 19.94 241.554 20.22C242.044 20.49 242.419 20.86 242.679 21.33C242.949 21.8 243.084 22.32 243.084 22.89L240.954 23.145C240.954 22.655 240.844 22.265 240.624 21.975C240.414 21.675 240.134 21.525 239.784 21.525C239.534 21.525 239.339 21.59 239.199 21.72C239.069 21.84 239.004 21.975 239.004 22.125C239.004 22.355 239.119 22.545 239.349 22.695C239.579 22.845 239.884 22.92 240.264 22.92C241.104 22.92 241.794 22.825 242.334 22.635C242.874 22.445 243.269 22.175 243.519 21.825C243.779 21.465 243.909 21.045 243.909 20.565C243.909 20.135 243.774 19.765 243.504 19.455C243.244 19.135 242.889 18.89 242.439 18.72C241.989 18.55 241.489 18.465 240.939 18.465C240.389 18.465 239.874 18.545 239.394 18.705C238.924 18.855 238.479 19.07 238.059 19.35C237.639 19.62 237.234 19.945 236.844 20.325C236.464 20.695 236.094 21.1 235.734 21.54L234.084 19.83C234.324 19.64 234.604 19.415 234.924 19.155C235.244 18.895 235.574 18.625 235.914 18.345C236.254 18.055 236.579 17.78 236.889 17.52C237.199 17.26 237.464 17.04 237.684 16.86C237.894 16.69 238.129 16.5 238.389 16.29C238.659 16.08 238.929 15.865 239.199 15.645C239.479 15.415 239.744 15.2 239.994 15C240.244 14.79 240.459 14.605 240.639 14.445C240.489 14.445 240.309 14.45 240.099 14.46C239.899 14.47 239.684 14.48 239.454 14.49C239.224 14.49 238.989 14.495 238.749 14.505C238.519 14.515 238.299 14.53 238.089 14.55C237.879 14.56 237.694 14.57 237.534 14.58C237.314 14.59 237.079 14.61 236.829 14.64C236.579 14.66 236.364 14.685 236.184 14.715L236.109 12.36ZM254.529 20.01L254.079 15.27L253.989 12.78H256.929L256.839 15.27L256.389 20.01H254.529ZM255.459 24.18C255.009 24.18 254.639 24.035 254.349 23.745C254.069 23.455 253.929 23.09 253.929 22.65C253.929 22.21 254.074 21.85 254.364 21.57C254.654 21.29 255.019 21.15 255.459 21.15C255.899 21.15 256.264 21.29 256.554 21.57C256.844 21.85 256.989 22.21 256.989 22.65C256.989 23.09 256.844 23.455 256.554 23.745C256.264 24.035 255.899 24.18 255.459 24.18ZM46.9475 41.49H49.1975V54.18H46.9475V41.49ZM43.1225 45.6H52.7225V47.715H43.1225V45.6ZM43.5275 52.785H52.4525V54.885H43.5275V52.785ZM40.4525 45.765L42.5825 43.635L42.6125 43.665V55.395H40.4525V45.765ZM41.9825 41.19L44.0975 41.865C43.7475 42.745 43.3325 43.63 42.8525 44.52C42.3725 45.4 41.8475 46.235 41.2775 47.025C40.7175 47.815 40.1425 48.5 39.5525 49.08C39.4825 48.9 39.3725 48.67 39.2225 48.39C39.0825 48.1 38.9275 47.81 38.7575 47.52C38.5975 47.23 38.4525 46.995 38.3225 46.815C38.8125 46.365 39.2825 45.84 39.7325 45.24C40.1925 44.64 40.6125 43.995 40.9925 43.305C41.3825 42.605 41.7125 41.9 41.9825 41.19ZM59.4425 41.175H61.6625V53.46C61.6625 53.95 61.5975 54.32 61.4675 54.57C61.3375 54.82 61.1125 55.02 60.7925 55.17C60.4725 55.3 60.0925 55.38 59.6525 55.41C59.2225 55.45 58.6825 55.47 58.0325 55.47C57.9825 55.22 57.8875 54.93 57.7475 54.6C57.6075 54.28 57.4675 54.01 57.3275 53.79C57.5375 53.8 57.7575 53.81 57.9875 53.82C58.2275 53.82 58.4475 53.82 58.6475 53.82C58.8475 53.82 58.9875 53.82 59.0675 53.82C59.2075 53.81 59.3025 53.78 59.3525 53.73C59.4125 53.68 59.4425 53.59 59.4425 53.46V41.175ZM53.9675 42.03H67.2725V43.725H53.9675V42.03ZM57.5675 45.51V46.02H63.5675V45.51H57.5675ZM55.4825 44.175H65.8025V47.355H55.4825V44.175ZM55.1525 47.805H66.0725V53.895H63.8525V49.245H55.1525V47.805ZM53.5925 49.65H67.6475V51.285H53.5925V49.65ZM55.0475 51.735H65.0525V53.28H55.0475V51.735ZM71.1875 41.235L73.2425 41.865C72.9525 42.715 72.5975 43.575 72.1775 44.445C71.7675 45.315 71.3175 46.145 70.8275 46.935C70.3475 47.715 69.8475 48.395 69.3275 48.975C69.2675 48.795 69.1675 48.56 69.0275 48.27C68.8875 47.98 68.7425 47.69 68.5925 47.4C68.4425 47.1 68.3025 46.86 68.1725 46.68C68.5825 46.24 68.9725 45.73 69.3425 45.15C69.7225 44.56 70.0675 43.93 70.3775 43.26C70.6975 42.59 70.9675 41.915 71.1875 41.235ZM70.0475 45.54L72.1175 43.47V43.485V55.41H70.0475V45.54ZM76.4825 41.265H78.6125V55.305H76.4825V41.265ZM72.9125 43.65H82.5725V45.72H72.9125V43.65ZM74.7875 51.105H80.3975V53.04H74.7875V51.105ZM79.3025 44.835C79.5525 45.655 79.8725 46.485 80.2625 47.325C80.6525 48.165 81.0825 48.955 81.5525 49.695C82.0325 50.425 82.5325 51.055 83.0525 51.585C82.8025 51.775 82.5175 52.035 82.1975 52.365C81.8775 52.685 81.6225 52.99 81.4325 53.28C80.9125 52.64 80.4225 51.89 79.9625 51.03C79.5025 50.16 79.0875 49.235 78.7175 48.255C78.3575 47.265 78.0425 46.27 77.7725 45.27L79.3025 44.835ZM75.8825 44.655L77.4425 45.075C77.1725 46.135 76.8475 47.175 76.4675 48.195C76.0875 49.215 75.6525 50.165 75.1625 51.045C74.6825 51.925 74.1475 52.685 73.5575 53.325C73.4375 53.155 73.2825 52.965 73.0925 52.755C72.9125 52.545 72.7225 52.345 72.5225 52.155C72.3325 51.955 72.1575 51.795 71.9975 51.675C72.5675 51.145 73.0975 50.5 73.5875 49.74C74.0875 48.98 74.5325 48.16 74.9225 47.28C75.3225 46.4 75.6425 45.525 75.8825 44.655ZM92.1425 48.615V49.665H95.4875V48.615H92.1425ZM90.3875 47.07H97.3325V51.21H90.3875V47.07ZM93.6725 43.065C93.4525 43.445 93.1725 43.85 92.8325 44.28C92.4925 44.71 92.1075 45.125 91.6775 45.525C91.2575 45.915 90.8175 46.25 90.3575 46.53C90.2575 46.27 90.1125 45.97 89.9225 45.63C89.7325 45.28 89.5525 44.995 89.3825 44.775C89.8425 44.515 90.2825 44.185 90.7025 43.785C91.1325 43.375 91.5175 42.94 91.8575 42.48C92.1975 42.02 92.4675 41.585 92.6675 41.175H94.5425C94.8325 41.615 95.1575 42.05 95.5175 42.48C95.8875 42.91 96.2775 43.295 96.6875 43.635C97.1075 43.975 97.5325 44.245 97.9625 44.445C97.7725 44.695 97.5775 45 97.3775 45.36C97.1875 45.71 97.0225 46.035 96.8825 46.335C96.4725 46.085 96.0625 45.78 95.6525 45.42C95.2525 45.05 94.8775 44.66 94.5275 44.25C94.1875 43.84 93.9025 43.445 93.6725 43.065ZM92.8325 45.57H94.7525V48.42C94.7525 49.03 94.7075 49.655 94.6175 50.295C94.5275 50.935 94.3425 51.57 94.0625 52.2C93.7925 52.82 93.3875 53.41 92.8475 53.97C92.3175 54.53 91.6025 55.03 90.7025 55.47C90.6125 55.32 90.4875 55.15 90.3275 54.96C90.1775 54.77 90.0175 54.58 89.8475 54.39C89.6775 54.21 89.5225 54.065 89.3825 53.955C90.1525 53.595 90.7675 53.195 91.2275 52.755C91.6875 52.305 92.0325 51.835 92.2625 51.345C92.4925 50.855 92.6425 50.36 92.7125 49.86C92.7925 49.35 92.8325 48.86 92.8325 48.39V45.57ZM94.8725 50.295C95.1325 51.025 95.5225 51.695 96.0425 52.305C96.5625 52.915 97.1875 53.38 97.9175 53.7C97.7675 53.83 97.6025 53.995 97.4225 54.195C97.2525 54.395 97.0875 54.6 96.9275 54.81C96.7675 55.03 96.6375 55.23 96.5375 55.41C95.7175 54.95 95.0425 54.305 94.5125 53.475C93.9825 52.645 93.5575 51.72 93.2375 50.7L94.8725 50.295ZM91.4525 44.85H96.0575V46.5H91.4525V44.85ZM85.2125 43.98H89.5475V45.6H85.2125V43.98ZM85.2125 46.26H89.5475V47.88H85.2125V46.26ZM84.1925 48.54H89.3975V50.205H84.1925V48.54ZM86.7275 42.72H88.4375V49.47H86.7275V42.72ZM87.1925 50.82L87.9875 50.565C88.1275 50.855 88.2575 51.18 88.3775 51.54C88.4975 51.89 88.5775 52.195 88.6175 52.455L87.7775 52.755C87.7375 52.495 87.6625 52.185 87.5525 51.825C87.4425 51.455 87.3225 51.12 87.1925 50.82ZM86.2325 51L87.1025 50.85C87.2125 51.24 87.3075 51.665 87.3875 52.125C87.4675 52.575 87.5125 52.96 87.5225 53.28L86.6075 53.46C86.5975 53.13 86.5575 52.735 86.4875 52.275C86.4175 51.815 86.3325 51.39 86.2325 51ZM85.2125 51.06L86.0975 50.97C86.1675 51.41 86.2075 51.89 86.2175 52.41C86.2375 52.93 86.2375 53.375 86.2175 53.745L85.2875 53.865C85.3175 53.485 85.3225 53.035 85.3025 52.515C85.2925 51.995 85.2625 51.51 85.2125 51.06ZM84.0725 50.7L85.2275 50.925C85.2075 51.395 85.1675 51.855 85.1075 52.305C85.0575 52.755 84.9725 53.175 84.8525 53.565C84.7425 53.945 84.5825 54.28 84.3725 54.57L83.3075 54C83.4875 53.74 83.6275 53.44 83.7275 53.1C83.8275 52.75 83.9025 52.37 83.9525 51.96C84.0125 51.55 84.0525 51.13 84.0725 50.7ZM84.1925 41.7H89.8325V43.44H85.9625V49.71H84.1925V41.7ZM88.4525 48.54H90.2225C90.2225 48.54 90.2225 48.63 90.2225 48.81C90.2225 48.98 90.2175 49.12 90.2075 49.23C90.1675 50.42 90.1175 51.395 90.0575 52.155C90.0075 52.905 89.9425 53.485 89.8625 53.895C89.7825 54.305 89.6825 54.59 89.5625 54.75C89.4325 54.94 89.2925 55.075 89.1425 55.155C88.9925 55.245 88.8225 55.305 88.6325 55.335C88.4725 55.375 88.2775 55.4 88.0475 55.41C87.8175 55.42 87.5725 55.42 87.3125 55.41C87.3025 55.15 87.2575 54.86 87.1775 54.54C87.0975 54.23 86.9925 53.965 86.8625 53.745C87.0325 53.765 87.1825 53.78 87.3125 53.79C87.4425 53.79 87.5525 53.79 87.6425 53.79C87.7225 53.79 87.7925 53.775 87.8525 53.745C87.9125 53.715 87.9725 53.665 88.0325 53.595C88.1025 53.495 88.1625 53.285 88.2125 52.965C88.2625 52.645 88.3075 52.155 88.3475 51.495C88.3875 50.835 88.4225 49.95 88.4525 48.84V48.54ZM98.3375 56.745L101.653 41.805H103.378L100.078 56.745H98.3375ZM108.519 45.825V46.41H114.264V45.825H108.519ZM108.519 48.165V48.75H114.264V48.165H108.519ZM108.519 43.5V44.085H114.264V43.5H108.519ZM106.419 41.61H116.484V50.64H106.419V41.61ZM111.924 49.155H114.159V52.665C114.159 52.925 114.189 53.09 114.249 53.16C114.319 53.22 114.479 53.25 114.729 53.25C114.779 53.25 114.854 53.25 114.954 53.25C115.064 53.25 115.179 53.25 115.299 53.25C115.429 53.25 115.549 53.25 115.659 53.25C115.779 53.25 115.869 53.25 115.929 53.25C116.089 53.25 116.209 53.205 116.289 53.115C116.369 53.025 116.429 52.84 116.469 52.56C116.509 52.28 116.539 51.855 116.559 51.285C116.709 51.405 116.899 51.525 117.129 51.645C117.369 51.755 117.619 51.855 117.879 51.945C118.139 52.035 118.364 52.105 118.554 52.155C118.484 52.985 118.359 53.625 118.179 54.075C118.009 54.535 117.759 54.855 117.429 55.035C117.109 55.215 116.679 55.305 116.139 55.305C116.059 55.305 115.959 55.305 115.839 55.305C115.719 55.305 115.589 55.305 115.449 55.305C115.319 55.305 115.184 55.305 115.044 55.305C114.914 55.305 114.794 55.305 114.684 55.305C114.574 55.305 114.479 55.305 114.399 55.305C113.739 55.305 113.229 55.22 112.869 55.05C112.509 54.89 112.259 54.615 112.119 54.225C111.989 53.845 111.924 53.33 111.924 52.68V49.155ZM108.219 49.935H110.559C110.499 50.625 110.399 51.26 110.259 51.84C110.119 52.42 109.874 52.945 109.524 53.415C109.184 53.875 108.689 54.28 108.039 54.63C107.389 54.98 106.529 55.275 105.459 55.515C105.399 55.315 105.299 55.095 105.159 54.855C105.029 54.615 104.879 54.375 104.709 54.135C104.549 53.905 104.394 53.715 104.244 53.565C105.134 53.405 105.834 53.215 106.344 52.995C106.864 52.775 107.249 52.52 107.499 52.23C107.759 51.93 107.934 51.595 108.024 51.225C108.114 50.845 108.179 50.415 108.219 49.935ZM122.424 46.335H129.054V48.21H122.424V46.335ZM119.649 49.68H133.164V51.675H119.649V49.68ZM125.274 48.78H127.509V53.175C127.509 53.705 127.434 54.12 127.284 54.42C127.144 54.72 126.869 54.95 126.459 55.11C126.059 55.26 125.609 55.35 125.109 55.38C124.609 55.42 124.049 55.44 123.429 55.44C123.359 55.13 123.239 54.77 123.069 54.36C122.899 53.95 122.729 53.605 122.559 53.325C122.839 53.335 123.139 53.345 123.459 53.355C123.789 53.365 124.084 53.37 124.344 53.37C124.604 53.37 124.784 53.37 124.884 53.37C125.034 53.37 125.134 53.35 125.184 53.31C125.244 53.27 125.274 53.2 125.274 53.1V48.78ZM128.334 46.335H128.874L129.339 46.23L130.704 47.28C130.364 47.66 129.979 48.045 129.549 48.435C129.119 48.825 128.664 49.195 128.184 49.545C127.714 49.885 127.229 50.185 126.729 50.445C126.599 50.255 126.414 50.035 126.174 49.785C125.944 49.535 125.749 49.335 125.589 49.185C125.959 48.975 126.324 48.725 126.684 48.435C127.044 48.145 127.369 47.85 127.659 47.55C127.949 47.25 128.174 46.98 128.334 46.74V46.335ZM119.769 43.5H133.044V47.355H130.899V45.405H121.809V47.355H119.769V43.5ZM129.969 41.28L132.354 41.955C131.994 42.475 131.629 42.975 131.259 43.455C130.899 43.935 130.569 44.34 130.269 44.67L128.469 44.04C128.659 43.78 128.844 43.495 129.024 43.185C129.214 42.865 129.389 42.54 129.549 42.21C129.719 41.88 129.859 41.57 129.969 41.28ZM120.759 42.135L122.619 41.31C122.879 41.59 123.134 41.91 123.384 42.27C123.644 42.62 123.834 42.94 123.954 43.23L121.974 44.145C121.874 43.865 121.704 43.54 121.464 43.17C121.234 42.79 120.999 42.445 120.759 42.135ZM124.494 41.805L126.429 41.085C126.659 41.395 126.884 41.75 127.104 42.15C127.324 42.54 127.484 42.885 127.584 43.185L125.514 43.98C125.444 43.69 125.309 43.34 125.109 42.93C124.909 42.52 124.704 42.145 124.494 41.805ZM135.234 52.89C136.144 52.86 137.184 52.83 138.354 52.8C139.534 52.76 140.764 52.715 142.044 52.665C143.334 52.615 144.599 52.565 145.839 52.515L145.764 54.51C144.564 54.58 143.344 54.645 142.104 54.705C140.874 54.765 139.694 54.82 138.564 54.87C137.444 54.93 136.429 54.98 135.519 55.02L135.234 52.89ZM135.189 48.525H147.684V50.55H135.189V48.525ZM137.919 45.63H144.879V47.625H137.919V45.63ZM138.609 49.86L141.114 50.535C140.884 50.995 140.644 51.46 140.394 51.93C140.144 52.39 139.899 52.825 139.659 53.235C139.429 53.645 139.209 54.01 138.999 54.33L137.094 53.7C137.284 53.34 137.474 52.94 137.664 52.5C137.864 52.06 138.044 51.61 138.204 51.15C138.374 50.69 138.509 50.26 138.609 49.86ZM142.434 51.375L144.369 50.37C144.809 50.75 145.244 51.165 145.674 51.615C146.104 52.055 146.499 52.5 146.859 52.95C147.219 53.4 147.514 53.815 147.744 54.195L145.704 55.425C145.504 55.045 145.224 54.615 144.864 54.135C144.514 53.665 144.124 53.19 143.694 52.71C143.274 52.22 142.854 51.775 142.434 51.375ZM141.399 43.29C140.999 43.84 140.489 44.4 139.869 44.97C139.259 45.54 138.574 46.08 137.814 46.59C137.064 47.1 136.279 47.545 135.459 47.925C135.379 47.745 135.264 47.545 135.114 47.325C134.964 47.095 134.804 46.875 134.634 46.665C134.474 46.445 134.319 46.255 134.169 46.095C135.029 45.735 135.844 45.28 136.614 44.73C137.394 44.18 138.089 43.595 138.699 42.975C139.309 42.355 139.794 41.765 140.154 41.205H142.464C142.864 41.755 143.299 42.265 143.769 42.735C144.249 43.205 144.754 43.635 145.284 44.025C145.824 44.405 146.379 44.74 146.949 45.03C147.519 45.32 148.104 45.565 148.704 45.765C148.434 46.045 148.179 46.365 147.939 46.725C147.709 47.085 147.494 47.43 147.294 47.76C146.554 47.42 145.809 47.005 145.059 46.515C144.309 46.025 143.614 45.5 142.974 44.94C142.334 44.38 141.809 43.83 141.399 43.29ZM149.109 56.745L152.424 41.805H154.149L150.849 56.745H149.109ZM156.906 54L154.881 42.825H157.611L158.316 47.925C158.396 48.505 158.471 49.09 158.541 49.68C158.621 50.27 158.696 50.865 158.766 51.465H158.826C158.936 50.865 159.046 50.27 159.156 49.68C159.266 49.09 159.376 48.505 159.486 47.925L160.626 42.825H162.891L164.046 47.925C164.156 48.495 164.261 49.08 164.361 49.68C164.471 50.27 164.581 50.865 164.691 51.465H164.766C164.836 50.865 164.906 50.27 164.976 49.68C165.046 49.09 165.116 48.505 165.186 47.925L165.921 42.825H168.456L166.521 54H163.146L162.141 49.14C162.051 48.71 161.966 48.275 161.886 47.835C161.816 47.395 161.756 46.965 161.706 46.545H161.646C161.576 46.965 161.501 47.395 161.421 47.835C161.351 48.275 161.276 48.71 161.196 49.14L160.221 54H156.906ZM169.964 54V42.825H177.044V45.06H172.649V47.13H176.384V49.38H172.649V51.75H177.209V54H169.964ZM179.412 54V42.825H183.312C184.082 42.825 184.782 42.91 185.412 43.08C186.042 43.24 186.542 43.52 186.912 43.92C187.282 44.32 187.467 44.88 187.467 45.6C187.467 45.93 187.407 46.26 187.287 46.59C187.167 46.91 186.997 47.2 186.777 47.46C186.567 47.71 186.312 47.895 186.012 48.015V48.075C186.572 48.225 187.042 48.515 187.422 48.945C187.802 49.375 187.992 49.96 187.992 50.7C187.992 51.46 187.797 52.085 187.407 52.575C187.017 53.055 186.492 53.415 185.832 53.655C185.172 53.885 184.437 54 183.627 54H179.412ZM182.097 47.265H183.207C183.777 47.265 184.192 47.15 184.452 46.92C184.722 46.69 184.857 46.385 184.857 46.005C184.857 45.605 184.722 45.32 184.452 45.15C184.182 44.97 183.767 44.88 183.207 44.88H182.097V47.265ZM182.097 51.945H183.432C184.082 51.945 184.567 51.83 184.887 51.6C185.217 51.36 185.382 51 185.382 50.52C185.382 50.06 185.217 49.73 184.887 49.53C184.567 49.33 184.082 49.23 183.432 49.23H182.097V51.945ZM197.147 45.735V47.46H200.447V45.735H197.147ZM195.047 43.875H202.682V49.305H195.047V43.875ZM200.267 41.145L202.532 41.7C202.322 42.18 202.117 42.635 201.917 43.065C201.717 43.495 201.532 43.865 201.362 44.175L199.472 43.65C199.572 43.42 199.672 43.16 199.772 42.87C199.882 42.58 199.977 42.285 200.057 41.985C200.147 41.685 200.217 41.405 200.267 41.145ZM195.152 41.865L197.087 41.25C197.327 41.61 197.547 42.01 197.747 42.45C197.957 42.89 198.112 43.28 198.212 43.62L196.187 44.34C196.117 44 195.982 43.6 195.782 43.14C195.582 42.67 195.372 42.245 195.152 41.865ZM198.932 48.9H200.987V52.86C200.987 53.1 200.992 53.25 201.002 53.31C201.022 53.37 201.067 53.4 201.137 53.4C201.157 53.4 201.177 53.4 201.197 53.4C201.227 53.4 201.257 53.4 201.287 53.4C201.317 53.4 201.337 53.4 201.347 53.4C201.407 53.4 201.452 53.355 201.482 53.265C201.522 53.165 201.552 52.97 201.572 52.68C201.592 52.38 201.607 51.935 201.617 51.345C201.747 51.455 201.917 51.565 202.127 51.675C202.347 51.785 202.572 51.885 202.802 51.975C203.042 52.055 203.252 52.12 203.432 52.17C203.382 52.99 203.287 53.625 203.147 54.075C203.007 54.535 202.812 54.855 202.562 55.035C202.312 55.215 201.987 55.305 201.587 55.305C201.517 55.305 201.447 55.305 201.377 55.305C201.307 55.305 201.237 55.305 201.167 55.305C201.097 55.305 201.027 55.305 200.957 55.305C200.887 55.305 200.817 55.305 200.747 55.305C200.247 55.305 199.867 55.225 199.607 55.065C199.347 54.915 199.167 54.66 199.067 54.3C198.977 53.94 198.932 53.465 198.932 52.875V48.9ZM196.307 48.975H198.497C198.457 49.625 198.387 50.26 198.287 50.88C198.187 51.5 198.027 52.09 197.807 52.65C197.597 53.2 197.297 53.715 196.907 54.195C196.527 54.675 196.022 55.105 195.392 55.485C195.302 55.295 195.177 55.09 195.017 54.87C194.867 54.65 194.702 54.435 194.522 54.225C194.342 54.025 194.167 53.86 193.997 53.73C194.667 53.36 195.157 52.925 195.467 52.425C195.787 51.925 195.997 51.38 196.097 50.79C196.197 50.2 196.267 49.595 196.307 48.975ZM189.662 45.93H194.057V47.55H189.662V45.93ZM189.752 41.61H194.087V43.23H189.752V41.61ZM189.662 48.06H194.057V49.68H189.662V48.06ZM188.927 43.725H194.612V45.42H188.927V43.725ZM190.667 50.22H194.192V54.885H190.667V53.19H192.347V51.915H190.667V50.22ZM189.602 50.22H191.417V55.425H189.602V50.22ZM205.622 41.94H209.942V51.3H205.622V49.32H207.932V43.905H205.622V41.94ZM205.652 45.615H208.697V47.55H205.652V45.615ZM212.102 41.76H216.437V43.77H212.102V41.76ZM212.102 45.3H216.437V47.25H212.102V45.3ZM212.102 48.78H216.437V50.73H212.102V48.78ZM204.482 41.94H206.492V52.545H204.482V41.94ZM215.627 41.76H217.787V53.04C217.787 53.57 217.722 53.99 217.592 54.3C217.472 54.61 217.252 54.85 216.932 55.02C216.602 55.19 216.207 55.3 215.747 55.35C215.297 55.4 214.762 55.425 214.142 55.425C214.112 55.225 214.057 54.995 213.977 54.735C213.897 54.475 213.807 54.22 213.707 53.97C213.607 53.72 213.502 53.505 213.392 53.325C213.632 53.335 213.877 53.345 214.127 53.355C214.387 53.355 214.622 53.355 214.832 53.355C215.042 53.355 215.187 53.355 215.267 53.355C215.407 53.355 215.502 53.33 215.552 53.28C215.602 53.23 215.627 53.14 215.627 53.01V41.76ZM210.782 41.76H212.927V47.25C212.927 47.91 212.887 48.62 212.807 49.38C212.727 50.13 212.577 50.885 212.357 51.645C212.137 52.395 211.812 53.11 211.382 53.79C210.952 54.46 210.387 55.045 209.687 55.545C209.577 55.405 209.422 55.24 209.222 55.05C209.022 54.86 208.812 54.675 208.592 54.495C208.382 54.315 208.197 54.18 208.037 54.09C208.667 53.64 209.167 53.14 209.537 52.59C209.907 52.03 210.182 51.445 210.362 50.835C210.542 50.225 210.657 49.615 210.707 49.005C210.757 48.395 210.782 47.805 210.782 47.235V41.76ZM219.902 52.89C220.812 52.86 221.852 52.83 223.022 52.8C224.202 52.76 225.432 52.715 226.712 52.665C228.002 52.615 229.267 52.565 230.507 52.515L230.432 54.51C229.232 54.58 228.012 54.645 226.772 54.705C225.542 54.765 224.362 54.82 223.232 54.87C222.112 54.93 221.097 54.98 220.187 55.02L219.902 52.89ZM219.857 48.525H232.352V50.55H219.857V48.525ZM222.587 45.63H229.547V47.625H222.587V45.63ZM223.277 49.86L225.782 50.535C225.552 50.995 225.312 51.46 225.062 51.93C224.812 52.39 224.567 52.825 224.327 53.235C224.097 53.645 223.877 54.01 223.667 54.33L221.762 53.7C221.952 53.34 222.142 52.94 222.332 52.5C222.532 52.06 222.712 51.61 222.872 51.15C223.042 50.69 223.177 50.26 223.277 49.86ZM227.102 51.375L229.037 50.37C229.477 50.75 229.912 51.165 230.342 51.615C230.772 52.055 231.167 52.5 231.527 52.95C231.887 53.4 232.182 53.815 232.412 54.195L230.372 55.425C230.172 55.045 229.892 54.615 229.532 54.135C229.182 53.665 228.792 53.19 228.362 52.71C227.942 52.22 227.522 51.775 227.102 51.375ZM226.067 43.29C225.667 43.84 225.157 44.4 224.537 44.97C223.927 45.54 223.242 46.08 222.482 46.59C221.732 47.1 220.947 47.545 220.127 47.925C220.047 47.745 219.932 47.545 219.782 47.325C219.632 47.095 219.472 46.875 219.302 46.665C219.142 46.445 218.987 46.255 218.837 46.095C219.697 45.735 220.512 45.28 221.282 44.73C222.062 44.18 222.757 43.595 223.367 42.975C223.977 42.355 224.462 41.765 224.822 41.205H227.132C227.532 41.755 227.967 42.265 228.437 42.735C228.917 43.205 229.422 43.635 229.952 44.025C230.492 44.405 231.047 44.74 231.617 45.03C232.187 45.32 232.772 45.565 233.372 45.765C233.102 46.045 232.847 46.365 232.607 46.725C232.377 47.085 232.162 47.43 231.962 47.76C231.222 47.42 230.477 47.005 229.727 46.515C228.977 46.025 228.282 45.5 227.642 44.94C227.002 44.38 226.477 43.83 226.067 43.29ZM240.197 43.305C240.687 43.365 241.227 43.41 241.817 43.44C242.407 43.46 243.002 43.465 243.602 43.455C244.212 43.445 244.792 43.425 245.342 43.395C245.902 43.365 246.392 43.33 246.812 43.29V45.63C246.322 45.67 245.797 45.705 245.237 45.735C244.677 45.755 244.107 45.765 243.527 45.765C242.947 45.765 242.372 45.755 241.802 45.735C241.242 45.705 240.712 45.67 240.212 45.63L240.197 43.305ZM241.742 49.875C241.692 50.115 241.652 50.325 241.622 50.505C241.602 50.685 241.592 50.875 241.592 51.075C241.592 51.235 241.632 51.375 241.712 51.495C241.792 51.615 241.907 51.71 242.057 51.78C242.217 51.85 242.412 51.905 242.642 51.945C242.872 51.975 243.142 51.99 243.452 51.99C244.122 51.99 244.747 51.96 245.327 51.9C245.917 51.83 246.552 51.725 247.232 51.585L247.277 54.045C246.787 54.135 246.227 54.205 245.597 54.255C244.977 54.305 244.222 54.33 243.332 54.33C242.022 54.33 241.037 54.1 240.377 53.64C239.727 53.18 239.402 52.55 239.402 51.75C239.402 51.43 239.422 51.105 239.462 50.775C239.512 50.445 239.582 50.085 239.672 49.695L241.742 49.875ZM238.202 42.39C238.162 42.5 238.112 42.66 238.052 42.87C237.992 43.08 237.937 43.285 237.887 43.485C237.837 43.685 237.802 43.83 237.782 43.92C237.752 44.08 237.707 44.32 237.647 44.64C237.587 44.96 237.522 45.33 237.452 45.75C237.392 46.16 237.332 46.585 237.272 47.025C237.212 47.455 237.162 47.87 237.122 48.27C237.082 48.66 237.062 48.995 237.062 49.275C237.062 49.295 237.062 49.35 237.062 49.44C237.062 49.53 237.067 49.59 237.077 49.62C237.147 49.48 237.212 49.35 237.272 49.23C237.342 49.11 237.407 48.99 237.467 48.87C237.537 48.74 237.602 48.605 237.662 48.465L238.757 49.335C238.607 49.785 238.457 50.255 238.307 50.745C238.167 51.235 238.042 51.695 237.932 52.125C237.822 52.555 237.737 52.91 237.677 53.19C237.657 53.3 237.637 53.43 237.617 53.58C237.597 53.73 237.587 53.84 237.587 53.91C237.587 53.99 237.587 54.09 237.587 54.21C237.587 54.34 237.592 54.465 237.602 54.585L235.502 54.72C235.352 54.22 235.212 53.53 235.082 52.65C234.962 51.76 234.902 50.805 234.902 49.785C234.902 49.215 234.922 48.64 234.962 48.06C235.012 47.48 235.067 46.925 235.127 46.395C235.197 45.855 235.262 45.37 235.322 44.94C235.392 44.51 235.447 44.155 235.487 43.875C235.517 43.645 235.552 43.375 235.592 43.065C235.632 42.755 235.657 42.46 235.667 42.18L238.202 42.39Z" fill="white"/>
<path d="M38.9935 69.1682L49.0995 71.5862C47.5702 73.7769 45.9788 75.9056 44.3255 77.9722C42.7135 80.0389 41.2462 81.7956 39.9235 83.2422L32.5455 80.8242C33.3722 79.7082 34.1782 78.4889 34.9635 77.1662C35.7902 75.8022 36.5548 74.4382 37.2575 73.0742C37.9602 71.6689 38.5388 70.3669 38.9935 69.1682ZM54.8655 75.0582L62.0575 71.0902C63.6695 72.3302 65.3848 73.7562 67.2035 75.3682C69.0635 76.9389 70.8202 78.5302 72.4735 80.1422C74.1682 81.7129 75.5322 83.1802 76.5655 84.5442L68.7535 89.0702C67.8442 87.7476 66.6042 86.2802 65.0335 84.6682C63.5042 83.0149 61.8302 81.3409 60.0115 79.6462C58.2342 77.9516 56.5188 76.4222 54.8655 75.0582ZM23.3695 78.7162C26.2628 78.6336 29.4868 78.5509 33.0415 78.4682C36.5962 78.3856 40.3575 78.3029 44.3255 78.2202C48.2935 78.0962 52.3235 77.9722 56.4155 77.8482C60.5488 77.6829 64.6202 77.5382 68.6295 77.4142L68.3195 84.7922C63.1115 85.0402 57.8415 85.2882 52.5095 85.5362C47.2188 85.7429 42.1555 85.9496 37.3195 86.1562C32.4835 86.3216 28.1435 86.4662 24.2995 86.5902L23.3695 78.7162ZM21.3855 89.1322H78.3635V96.6342H21.3855V89.1322ZM50.2775 97.9982L57.1595 101.346C55.5062 102.421 53.6462 103.392 51.5795 104.26C49.5128 105.087 47.3842 105.831 45.1935 106.492C43.0028 107.112 40.8948 107.629 38.8695 108.042C38.3322 107.257 37.6088 106.368 36.6995 105.376C35.7902 104.384 34.9015 103.537 34.0335 102.834C35.8522 102.545 37.7742 102.152 39.7995 101.656C41.8662 101.16 43.8295 100.602 45.6895 99.9822C47.5495 99.3209 49.0788 98.6596 50.2775 97.9982ZM55.5475 104.57L62.6155 107.98C60.5902 109.592 58.2342 111.018 55.5475 112.258C52.8608 113.498 50.0088 114.573 46.9915 115.482C44.0155 116.35 41.0188 117.094 38.0015 117.714C37.5055 116.764 36.8235 115.689 35.9555 114.49C35.0875 113.292 34.1988 112.258 33.2895 111.39C35.9762 111.018 38.7248 110.522 41.5355 109.902C44.3875 109.241 47.0328 108.476 49.4715 107.608C51.9515 106.699 53.9768 105.686 55.5475 104.57ZM62.6155 110.894L70.5515 114.428C67.7822 117.239 64.4548 119.554 60.5695 121.372C56.7255 123.15 52.4682 124.555 47.7975 125.588C43.1268 126.663 38.1462 127.51 32.8555 128.13C32.4422 126.973 31.8635 125.692 31.1195 124.286C30.3755 122.922 29.5902 121.744 28.7635 120.752C33.4755 120.422 38.0015 119.884 42.3415 119.14C46.6815 118.355 50.6082 117.301 54.1215 115.978C57.6348 114.656 60.4662 112.961 62.6155 110.894ZM40.5435 83.1182L49.4715 85.2262C47.1982 91.6742 44.0155 97.2542 39.9235 101.966C35.8728 106.678 31.1402 110.44 25.7255 113.25C25.3122 112.63 24.6922 111.886 23.8655 111.018C23.0802 110.109 22.2535 109.241 21.3855 108.414C20.5588 107.546 19.8148 106.844 19.1535 106.306C24.4028 104.116 28.8462 101.057 32.4835 97.1302C36.1622 93.1622 38.8488 88.4916 40.5435 83.1182ZM61.6235 90.9922C62.8222 92.9762 64.3515 94.8982 66.2115 96.7582C68.0715 98.6182 70.1588 100.313 72.4735 101.842C74.8295 103.33 77.2475 104.57 79.7275 105.562C79.1075 106.1 78.4255 106.802 77.6815 107.67C76.9375 108.497 76.2348 109.365 75.5735 110.274C74.9122 111.142 74.3542 111.928 73.8995 112.63C71.2128 111.308 68.6502 109.696 66.2115 107.794C63.7728 105.852 61.5202 103.682 59.4535 101.284C57.4282 98.8869 55.6508 96.3656 54.1215 93.7202L61.6235 90.9922ZM117.734 113.746H133.11V122.426H117.734V113.746ZM82.4555 79.9562H104.528V88.7602H82.4555V79.9562ZM113.704 75.9262H137.078V126.146H128.026V84.6062H122.322V126.642H113.704V75.9262ZM102.358 79.9562H111.1C111.1 79.9562 111.1 80.2042 111.1 80.7002C111.1 81.1962 111.1 81.7749 111.1 82.4362C111.1 83.0562 111.079 83.5522 111.038 83.9242C110.914 90.4136 110.769 95.9522 110.604 100.54C110.48 105.128 110.314 108.931 110.108 111.948C109.901 114.924 109.632 117.28 109.302 119.016C108.971 120.711 108.558 121.93 108.062 122.674C107.276 123.832 106.47 124.658 105.644 125.154C104.858 125.692 103.928 126.084 102.854 126.332C101.903 126.58 100.766 126.725 99.4435 126.766C98.1208 126.808 96.7362 126.808 95.2895 126.766C95.2482 125.444 94.9795 123.914 94.4835 122.178C94.0288 120.484 93.4295 118.996 92.6855 117.714C93.8015 117.797 94.8348 117.859 95.7855 117.9C96.7362 117.942 97.5008 117.962 98.0795 117.962C98.5342 117.962 98.9268 117.88 99.2575 117.714C99.5882 117.508 99.8982 117.177 100.188 116.722C100.518 116.268 100.787 115.338 100.994 113.932C101.242 112.486 101.448 110.419 101.614 107.732C101.779 105.004 101.903 101.532 101.986 97.3162C102.11 93.1002 102.234 87.9542 102.358 81.8782V79.9562ZM89.0275 70.0982H97.8935C97.8935 76.4222 97.8108 82.4156 97.6455 88.0782C97.4802 93.6996 97.0668 98.9489 96.4055 103.826C95.7442 108.704 94.6695 113.168 93.1815 117.218C91.6935 121.269 89.6268 124.886 86.9815 128.068C86.5268 127.324 85.9275 126.518 85.1835 125.65C84.4395 124.782 83.6335 123.956 82.7655 123.17C81.9388 122.385 81.1535 121.765 80.4095 121.31C82.2695 119.12 83.7575 116.702 84.8735 114.056C85.9895 111.37 86.8368 108.456 87.4155 105.314C87.9942 102.132 88.3868 98.7216 88.5935 95.0842C88.8415 91.4056 88.9655 87.4789 88.9655 83.3042C89.0068 79.1296 89.0275 74.7276 89.0275 70.0982ZM170.3 85.5482C170.27 85.8182 170.225 86.2682 170.165 86.8982C170.105 87.4982 170.06 88.0982 170.03 88.6982C170 89.2982 169.97 89.7332 169.94 90.0032C169.91 90.6032 169.88 91.4282 169.85 92.4782C169.85 93.4982 169.85 94.6382 169.85 95.8982C169.85 97.1582 169.85 98.4332 169.85 99.7232C169.88 100.983 169.895 102.168 169.895 103.278C169.925 104.388 169.94 105.303 169.94 106.023L163.1 104.043C163.1 103.383 163.1 102.558 163.1 101.568C163.1 100.578 163.1 99.5132 163.1 98.3732C163.1 97.2332 163.085 96.1232 163.055 95.0432C163.055 93.9332 163.04 92.9432 163.01 92.0732C162.98 91.1732 162.95 90.4982 162.92 90.0482C162.83 88.9682 162.74 88.0382 162.65 87.2582C162.56 86.4482 162.485 85.8782 162.425 85.5482H170.3ZM143.975 90.7682C145.385 90.7682 146.96 90.7682 148.7 90.7682C150.44 90.7382 152.24 90.7082 154.1 90.6782C155.96 90.6482 157.775 90.6182 159.545 90.5882C161.315 90.5582 162.935 90.5432 164.405 90.5432C165.905 90.5132 167.15 90.4982 168.14 90.4982C169.16 90.4982 170.345 90.4982 171.695 90.4982C173.075 90.4682 174.455 90.4532 175.835 90.4532C177.245 90.4532 178.535 90.4532 179.705 90.4532C180.905 90.4532 181.835 90.4532 182.495 90.4532L182.405 96.8882C180.935 96.8282 178.985 96.7682 176.555 96.7082C174.125 96.6482 171.245 96.6182 167.915 96.6182C165.815 96.6182 163.715 96.6482 161.615 96.7082C159.515 96.7382 157.445 96.7832 155.405 96.8432C153.395 96.9032 151.445 96.9782 149.555 97.0682C147.665 97.1282 145.865 97.2032 144.155 97.2932L143.975 90.7682ZM168.77 104.223C168.77 106.923 168.47 109.173 167.87 110.973C167.27 112.743 166.355 114.078 165.125 114.978C163.895 115.878 162.305 116.328 160.355 116.328C159.545 116.328 158.675 116.148 157.745 115.788C156.815 115.428 155.945 114.888 155.135 114.168C154.325 113.448 153.665 112.548 153.155 111.468C152.645 110.388 152.39 109.128 152.39 107.688C152.39 105.858 152.825 104.298 153.695 103.008C154.565 101.688 155.72 100.683 157.16 99.9932C158.63 99.2732 160.235 98.9132 161.975 98.9132C164.075 98.9132 165.845 99.3932 167.285 100.353C168.725 101.283 169.805 102.543 170.525 104.133C171.275 105.693 171.65 107.448 171.65 109.398C171.65 110.838 171.395 112.368 170.885 113.988C170.375 115.608 169.535 117.198 168.365 118.758C167.225 120.288 165.695 121.683 163.775 122.943C161.855 124.233 159.485 125.268 156.665 126.048L150.86 120.243C152.69 119.883 154.445 119.433 156.125 118.893C157.805 118.323 159.305 117.588 160.625 116.688C161.945 115.788 162.98 114.648 163.73 113.268C164.51 111.888 164.9 110.178 164.9 108.138C164.9 106.998 164.6 106.128 164 105.528C163.4 104.928 162.665 104.628 161.795 104.628C161.345 104.628 160.895 104.733 160.445 104.943C159.995 105.123 159.62 105.438 159.32 105.888C159.05 106.308 158.915 106.863 158.915 107.553C158.915 108.363 159.215 109.023 159.815 109.533C160.415 110.043 161.075 110.298 161.795 110.298C162.395 110.298 162.935 110.103 163.415 109.713C163.925 109.293 164.24 108.558 164.36 107.508C164.48 106.458 164.225 105.003 163.595 103.143L168.77 104.223ZM190.19 87.2582C190.88 87.3482 191.63 87.4232 192.44 87.4832C193.25 87.5132 194.03 87.5282 194.78 87.5282C195.26 87.5282 195.965 87.5282 196.895 87.5282C197.825 87.4982 198.86 87.4832 200 87.4832C201.17 87.4532 202.325 87.4232 203.465 87.3932C204.635 87.3632 205.685 87.3332 206.615 87.3032C207.575 87.2432 208.325 87.1982 208.865 87.1682C209.945 87.0782 210.8 86.9882 211.43 86.8982C212.09 86.8082 212.57 86.7182 212.87 86.6282L216.245 91.4432C215.675 91.8032 215.09 92.1632 214.49 92.5232C213.92 92.8532 213.35 93.2282 212.78 93.6482C212.15 94.0682 211.445 94.5782 210.665 95.1782C209.885 95.7482 209.09 96.3632 208.28 97.0232C207.47 97.6532 206.675 98.2682 205.895 98.8682C205.145 99.4682 204.455 100.008 203.825 100.488C204.425 100.368 204.965 100.293 205.445 100.263C205.925 100.233 206.435 100.218 206.975 100.218C209.555 100.218 211.88 100.728 213.95 101.748C216.05 102.768 217.715 104.163 218.945 105.933C220.175 107.673 220.79 109.683 220.79 111.963C220.79 114.303 220.205 116.478 219.035 118.488C217.865 120.498 216.05 122.103 213.59 123.303C211.13 124.533 207.95 125.148 204.05 125.148C201.95 125.148 200.015 124.833 198.245 124.203C196.475 123.573 195.065 122.673 194.015 121.503C192.965 120.303 192.44 118.878 192.44 117.228C192.44 115.908 192.8 114.663 193.52 113.493C194.27 112.323 195.305 111.378 196.625 110.658C197.945 109.938 199.46 109.578 201.17 109.578C203.27 109.578 205.055 109.998 206.525 110.838C207.995 111.648 209.12 112.758 209.9 114.168C210.71 115.578 211.115 117.138 211.115 118.848L204.725 119.613C204.725 118.143 204.395 116.973 203.735 116.103C203.105 115.203 202.265 114.753 201.215 114.753C200.465 114.753 199.88 114.948 199.46 115.338C199.07 115.698 198.875 116.103 198.875 116.553C198.875 117.243 199.22 117.813 199.91 118.263C200.6 118.713 201.515 118.938 202.655 118.938C205.175 118.938 207.245 118.653 208.865 118.083C210.485 117.513 211.67 116.703 212.42 115.653C213.2 114.573 213.59 113.313 213.59 111.873C213.59 110.583 213.185 109.473 212.375 108.543C211.595 107.583 210.53 106.848 209.18 106.338C207.83 105.828 206.33 105.573 204.68 105.573C203.03 105.573 201.485 105.813 200.045 106.293C198.635 106.743 197.3 107.388 196.04 108.228C194.78 109.038 193.565 110.013 192.395 111.153C191.255 112.263 190.145 113.478 189.065 114.798L184.115 109.668C184.835 109.098 185.675 108.423 186.635 107.643C187.595 106.863 188.585 106.053 189.605 105.213C190.625 104.343 191.6 103.518 192.53 102.738C193.46 101.958 194.255 101.298 194.915 100.758C195.545 100.248 196.25 99.6782 197.03 99.0482C197.84 98.4182 198.65 97.7732 199.46 97.1132C200.3 96.4232 201.095 95.7782 201.845 95.1782C202.595 94.5482 203.24 93.9932 203.78 93.5132C203.33 93.5132 202.79 93.5282 202.16 93.5582C201.56 93.5882 200.915 93.6182 200.225 93.6482C199.535 93.6482 198.83 93.6632 198.11 93.6932C197.42 93.7232 196.76 93.7682 196.13 93.8282C195.5 93.8582 194.945 93.8882 194.465 93.9182C193.805 93.9482 193.1 94.0082 192.35 94.0982C191.6 94.1582 190.955 94.2332 190.415 94.3232L190.19 87.2582ZM228.8 110.208L227.45 95.9882L227.18 88.5182H236L235.73 95.9882L234.38 110.208H228.8ZM231.59 122.718C230.24 122.718 229.13 122.283 228.26 121.413C227.42 120.543 227 119.448 227 118.128C227 116.808 227.435 115.728 228.305 114.888C229.175 114.048 230.27 113.628 231.59 113.628C232.91 113.628 234.005 114.048 234.875 114.888C235.745 115.728 236.18 116.808 236.18 118.128C236.18 119.448 235.745 120.543 234.875 121.413C234.005 122.283 232.91 122.718 231.59 122.718Z" fill="white"/>
</svg>
