<svg width="167" height="122" viewBox="0 0 167 122" fill="none" xmlns="http://www.w3.org/2000/svg">
<path d="M5.75616 34.0575C7.25 32.8961 10.697 32.2323 12.6861 32.5786C16.5469 33.2493 20.3815 32.7669 23.3802 32.8466C24.7913 32.8837 27.8107 35.0236 30.0536 35.9912C30.9336 36.3705 30.8301 36.2633 31.626 36.7773C32.673 37.4535 31.4481 37.874 32.1488 39.133C32.8495 40.3919 33.1668 41.0076 32.4992 42.2184C32.335 42.5153 32.0316 42.9839 31.8205 43.3124C29.4218 43.9721 27.4562 42.9069 23.3444 42.8795C18.5966 42.8492 11.3205 43.1969 6.13548 40.3905C5.90099 40.2641 5.152 34.5261 5.75616 34.0561V34.0575Z" fill="#3E3A39"/>
<path d="M6.19352 34.8035C7.73013 33.6587 10.0006 33.2739 11.8779 33.3591C13.1758 33.4182 14.4586 33.7054 15.7621 33.7659C17.1649 33.8319 18.5678 33.8016 19.9706 33.759C21.1016 33.726 22.3651 33.5515 23.4838 33.7178C24.3183 33.8415 25.1487 34.372 25.8784 34.7678C26.8412 35.2887 27.786 35.8453 28.764 36.3373C29.2302 36.571 29.7061 36.7785 30.1889 36.9792C30.3282 37.0369 30.4151 37.0699 30.5254 37.1248C30.7061 37.2155 31.0027 37.5042 31.1889 37.5248C31.3572 37.5426 31.1599 37.5674 31.2068 37.4066C31.1448 37.6237 31.0979 37.8491 31.0744 38.0731C31.0178 38.6133 31.1572 39.0888 31.3999 39.5698C31.6427 40.0508 32.0786 40.5978 31.9889 41.1751C31.8937 41.7825 31.3958 42.3721 31.073 42.8779L31.5903 42.4807C29.6426 42.9878 27.5474 42.3323 25.5956 42.1385C23.179 41.898 20.732 42.0492 18.3057 41.9928C15.6932 41.931 13.0655 41.7441 10.5206 41.116C9.93158 40.9703 9.34674 40.8012 8.77293 40.6047C8.15359 40.3917 7.55909 40.0289 6.94114 39.8406C6.70803 39.7691 6.79631 39.6262 6.85976 39.9299C6.97286 40.4783 6.90804 40.0344 6.90666 40.0371C6.91355 39.9711 6.85286 39.8378 6.83769 39.7719C6.76734 39.4695 6.72044 39.1603 6.67355 38.8524C6.54389 37.9866 6.45836 37.1111 6.41423 36.237C6.39216 35.8109 6.38664 35.3849 6.40319 34.9588C6.41146 34.7252 6.42664 34.7871 6.43216 34.6551C6.44319 34.4105 6.49285 34.5534 6.3687 34.6702C7.17977 33.9047 5.95352 32.6857 5.14383 33.4498C4.6583 33.9088 4.66519 34.7307 4.65968 35.3464C4.6514 36.204 4.72726 37.0657 4.82244 37.9178C4.90796 38.6889 4.98934 39.4764 5.16728 40.2323C5.3866 41.1641 6.19077 41.4197 7.01839 41.7715C12.0103 43.8963 17.5981 43.7314 22.9183 43.7451C24.3017 43.7492 25.6701 43.8482 27.0384 44.0489C28.0757 44.2 29.1226 44.3966 30.1737 44.3952C30.6744 44.3952 31.1792 44.3402 31.6703 44.2399C32.4413 44.0818 32.6938 43.5829 33.0759 42.948C33.8124 41.7262 33.8786 40.6281 33.2441 39.3513C33.0276 38.9156 32.7324 38.572 32.8234 38.0773C32.9145 37.5825 33.0083 37.1496 32.7324 36.6837C32.2165 35.8123 31.0151 35.499 30.1544 35.1004C28.9861 34.5589 27.8812 33.8923 26.7515 33.2808C25.8094 32.7709 24.7873 32.1744 23.71 32.0232C22.1775 31.8074 20.5251 32.0287 18.9829 32.0631C17.0491 32.1071 15.0987 32.0961 13.1827 31.7951C10.6447 31.3965 7.43633 31.7373 5.31625 33.3165C4.43346 33.9734 5.29695 35.4729 6.19077 34.8077L6.19352 34.8035Z" fill="#3E3A39"/>
<path d="M5.63481 40.6871C5.72999 40.7902 7.87627 41.5324 8.00731 41.5612C10.835 42.1879 10.6115 42.012 11.9881 40.6239C12.7082 39.8983 12.5578 37.8683 12.4199 36.6713C11.9854 32.9083 11.2378 29.0353 10.766 25.1308C10.6557 24.2223 10.6529 23.4829 10.5977 22.6501C10.5412 21.8172 10.5384 21.0902 10.5605 20.293C10.5784 19.6595 10.7536 19.0259 10.5895 18.4239C10.2419 17.1416 9.25701 16.9355 8.05834 17.1169C6.96175 17.2818 5.89689 17.4096 4.79616 17.7752C3.81405 18.1009 2.84988 18.0872 2.05537 19.0891C1.53949 19.7405 1.72019 20.3123 1.67605 21.9629C1.63881 23.3276 2.13538 28.8196 2.55057 30.5801C3.0761 32.8066 3.66371 36.2699 4.27614 38.227C4.83754 40.0192 4.89271 39.8914 5.63481 40.6899V40.6871Z" fill="#3E3A39"/>
<path d="M5.28575 41.2805C5.80025 41.6543 6.61683 41.8165 7.21133 42.0212C8.00171 42.2934 8.82794 42.4775 9.66108 42.5655C10.3549 42.6397 10.9632 42.5201 11.5067 42.0721C12.1067 41.5773 12.7481 40.9492 12.9977 40.203C13.3371 39.1928 13.2488 38.0287 13.144 36.987C12.9964 35.5219 12.7743 34.061 12.555 32.6055C12.0791 29.461 11.486 26.3206 11.3163 23.1403C11.2777 22.4243 11.2349 21.7123 11.2377 20.9949C11.2404 20.2775 11.377 19.5807 11.3467 18.8798C11.3011 17.8353 10.7232 16.8375 9.69143 16.5063C8.5838 16.1503 7.22237 16.52 6.12026 16.7289C5.41955 16.8622 4.75194 17.0863 4.06364 17.2663C3.52844 17.4065 2.9836 17.5343 2.49807 17.8105C0.675933 18.8441 0.928356 20.8891 0.998703 22.6936C1.07319 24.6013 1.2663 26.5144 1.50907 28.4068C1.80149 30.6993 2.34772 32.9573 2.82773 35.2168C3.10774 36.5348 3.40431 37.8514 3.8457 39.1268C4.13951 39.9748 4.5409 40.5287 5.14782 41.1733C5.75474 41.8178 6.72994 40.8462 6.12303 40.2016C5.70784 39.7604 5.40989 39.4265 5.20575 38.8465C4.8747 37.9119 4.62917 36.9526 4.40847 35.9878C3.95605 34.0032 3.52017 32.0008 3.13395 30.0025C2.53669 26.9033 2.34358 23.6694 2.37117 20.518C2.37944 19.6068 2.81256 19.0708 3.71604 18.7822C4.82091 18.429 5.96854 18.1308 7.1134 17.948C7.83067 17.8339 9.16451 17.4134 9.71349 18.1239C10.0845 18.6035 9.95626 19.2646 9.90661 19.8171C9.85005 20.4383 9.85005 21.065 9.86522 21.689C9.99074 27.0256 11.4308 32.2015 11.8115 37.5079C11.8763 38.4177 12.0087 39.5969 11.3342 40.3088C10.9908 40.6716 10.628 41.1884 10.1342 41.2186C9.37555 41.264 8.51759 41.0138 7.80584 40.7733C7.24444 40.5837 6.4389 40.4242 5.98371 40.0944C5.26506 39.5721 4.57676 40.7651 5.28713 41.2818L5.28575 41.2805Z" fill="#3E3A39"/>
<path d="M1.03186 12.543C1.1629 13.6095 1.87327 17.9689 3.42781 19.1481C4.25542 19.7762 5.18373 20.3397 6.20308 20.271C7.04449 20.2146 7.86797 19.7955 8.41419 19.1234C8.5673 18.9351 8.72041 18.7454 8.89421 18.5778C9.45974 18.0294 9.94114 17.3848 10.3149 16.6757" fill="#F9E0CF"/>
<path d="M0.347798 12.5429C0.482976 13.6218 0.687122 14.6938 0.969891 15.7438C1.30232 16.9766 1.7313 18.3235 2.5934 19.2979C3.63482 20.4771 5.45419 21.2605 7.00873 20.8221C7.85566 20.5829 8.48878 20.0703 9.05294 19.4188C9.73021 18.6368 10.4033 17.9386 10.9068 17.0206C11.3289 16.2496 10.1468 15.5596 9.72469 16.332C9.3026 17.1044 8.80604 17.65 8.24326 18.2699C7.7122 18.8553 7.26667 19.4023 6.44043 19.5563C5.26246 19.7748 3.87345 18.9076 3.27618 17.918C2.3396 16.3691 1.9313 14.2265 1.71888 12.5429C1.61129 11.6826 0.24021 11.6729 0.349179 12.5429H0.347798Z" fill="#3E3A39"/>
<path d="M6.67216 13.2518C6.6294 13.6119 6.73147 14.0833 6.93148 14.3788C7.1301 14.6743 7.35356 15.0674 7.62254 15.2928C7.76323 15.411 8.2391 15.1086 8.41842 15.099C8.57291 15.0907 9.46398 15.8329 9.57157 15.7147C10.2819 14.9272 9.95917 12.7859 9.86951 11.6892C9.79089 10.7285 9.6433 5.06754 8.81982 4.64974C8.54946 4.5123 7.69978 6.53536 7.53977 7.27476C7.46804 7.60736 7.26804 9.9795 7.03631 10.242C6.80734 9.7761 6.41008 9.1865 5.91489 9.24697C5.34659 9.31706 4.83347 9.79534 4.80174 10.4935C4.63208 9.95889 3.61963 9.36791 3.14651 9.63041C2.67201 9.89292 2.29683 10.4124 2.09682 10.9361C1.72853 11.0254 1.15058 10.9333 0.974023 11.2865C0.797465 11.6397 0.557454 12.6691 0.703666 13.0374C1.16713 14.207 2.12716 14.8186 2.92719 14.4242C3.35755 14.2112 2.77546 12.6458 2.60856 11.7359C2.58925 11.6274 3.341 14.4242 3.92861 14.1878C4.89416 13.7988 4.80313 10.4935 4.80313 10.4935C4.80313 10.4935 4.72174 14.2661 5.81695 14.1149C7.97289 13.8167 6.90112 10.6584 7.03768 10.242" fill="#F9E0CF"/>
<path d="M5.98797 13.2518C5.95762 13.8483 6.12315 14.3774 6.44178 14.8777C6.72869 15.3298 7.09697 15.9785 7.70251 16.0005C7.89424 16.0074 8.22943 15.9318 8.38943 15.8191L8.44875 15.7971C8.60875 15.749 8.52323 15.727 8.19219 15.7311C8.19219 15.7311 8.36323 15.8301 8.38116 15.8466C8.65841 16.0871 9.15084 16.4156 9.5343 16.4101C10.5909 16.3963 10.6999 14.6427 10.7054 13.9101C10.7123 13.0347 10.5785 12.1674 10.5288 11.2947C10.4323 9.59326 10.3633 7.88355 10.0888 6.19859C9.99225 5.60075 9.88879 4.9012 9.52326 4.39818C8.94531 3.6038 8.20046 4.0807 7.81148 4.75964C7.34802 5.56913 6.948 6.52569 6.82524 7.45338C6.76455 7.90967 6.71903 8.36733 6.65696 8.82224C6.61282 9.1356 6.54247 9.75268 6.44453 9.89562H7.62664C7.23215 9.13422 6.59627 8.40169 5.64727 8.60372C4.69827 8.80575 4.21825 9.6015 4.11617 10.4921L5.39208 10.1471C5.08448 9.43521 4.17687 8.8676 3.39753 8.88271C2.40991 8.90195 1.77126 9.96158 1.43608 10.7532L1.91472 10.2763C1.44436 10.3601 0.942268 10.3272 0.5726 10.69C0.229139 11.0267 0.120174 11.6081 0.0415501 12.0602C-0.147422 13.1625 0.31604 14.2317 1.27194 14.8598C1.96299 15.3133 3.3465 15.4686 3.68996 14.4956C3.84031 14.0709 3.73823 13.5858 3.64995 13.1583C3.59478 12.8945 3.52581 12.6333 3.4596 12.3708C3.43063 12.2554 3.40029 12.1399 3.37132 12.0245C3.32856 11.8486 3.34374 11.5146 3.26649 11.9132H1.94644C2.24577 12.8065 2.93683 15.6817 4.4155 14.6894C5.57554 13.9115 5.51623 11.7194 5.4845 10.4907C5.46243 9.61387 4.13135 9.61112 4.11479 10.4907C4.09134 11.6658 4.00859 14.7512 5.7383 14.7993C6.89558 14.8309 7.66389 13.8098 7.81562 12.7763C7.88734 12.2856 7.86803 11.7977 7.81424 11.3057C7.79079 11.1009 7.75906 10.8989 7.73561 10.6941C7.72458 10.5938 7.74113 10.2103 7.69285 10.422C7.88458 9.56714 6.56454 9.20156 6.37281 10.0592C6.24867 10.6117 6.45557 11.2287 6.48591 11.784C6.50522 12.1276 6.51902 12.4973 6.41281 12.8312C6.29143 13.2106 6.119 13.2793 5.77968 13.4305C5.73554 13.4497 5.92038 13.5335 5.88313 13.458C5.82382 13.337 5.77555 13.2284 5.73417 13.0979C5.62796 12.7557 5.5783 12.3928 5.5452 12.0382C5.49554 11.5256 5.47485 11.0075 5.4845 10.4921H4.11479C4.13962 11.483 4.02376 12.4162 3.7672 13.37C3.76306 13.3879 3.65133 13.5555 3.65271 13.561C3.81134 13.5707 3.96858 13.5885 4.12583 13.616C4.09824 13.5968 4.07618 13.572 4.05962 13.5445C4.03755 13.3453 3.78099 13.0319 3.69823 12.8285C3.52857 12.4107 3.40995 11.9791 3.26649 11.5531C3.06924 10.9635 2.083 10.8467 1.94644 11.5531C1.87196 11.9352 2.04438 12.3681 2.13818 12.7364C2.23197 13.1047 2.26231 13.5322 2.39059 13.8826C2.39059 13.939 2.39474 13.994 2.39888 14.0503C2.65544 13.8441 2.68578 13.7809 2.48991 13.8606C2.44853 13.8235 2.17404 13.807 2.10231 13.7713C1.74644 13.5954 1.39746 13.1171 1.34228 12.7323C1.3078 12.4918 1.39194 11.8156 1.56298 11.6314C1.43194 11.7716 1.66781 11.6768 1.7892 11.6617C2.00576 11.6342 2.24715 11.6397 2.44164 11.5256C2.86924 11.2741 2.83475 10.5883 3.29408 10.3547C3.65409 10.1705 4.04996 10.466 4.20997 10.8384C4.51205 11.538 5.41967 11.0721 5.48588 10.4935C5.51208 10.2722 5.70381 9.90386 5.97693 9.95196C6.18521 9.98907 6.35901 10.4234 6.44453 10.5869C6.69558 11.0707 7.35629 10.9855 7.62664 10.5869C7.94114 10.1224 7.95079 9.3926 8.02114 8.85935C8.09149 8.3261 8.11908 7.74337 8.2515 7.24723C8.34116 6.91326 8.46943 6.58341 8.60185 6.26593C8.66392 6.11613 9.15635 5.3671 9.11773 5.24341C9.08463 5.13896 8.36874 5.26678 8.39357 5.16232C8.39081 5.17469 8.48047 5.32725 8.47219 5.30388C8.56599 5.54715 8.6253 5.8069 8.67772 6.06253C8.96462 7.44101 9.02532 8.87447 9.10532 10.2763C9.17567 11.5421 9.37291 12.8312 9.33291 14.0957C9.32463 14.3472 9.30809 14.6 9.24326 14.8447C9.23084 14.8914 9.17015 15.0179 9.17842 15.0646C9.06807 15.2226 9.15359 15.2432 9.43498 15.1264C9.74396 15.1512 9.82948 15.1305 9.68879 15.0673C9.64189 14.923 8.97152 14.5932 8.8129 14.5245C8.49427 14.3856 8.05287 14.4008 7.75769 14.6152C8.01563 14.4283 7.98114 14.879 7.8432 14.5217C7.78803 14.3788 7.65423 14.2455 7.57423 14.1163C7.40319 13.8373 7.34112 13.583 7.35767 13.2559C7.40181 12.3777 6.0321 12.3805 5.98797 13.2559V13.2518Z" fill="#3E3A39"/>
<path d="M9.86122 17.3892C9.96468 17.2573 10.3992 16.6539 10.4488 16.3722C10.475 16.2251 10.2737 15.9228 10.1785 15.8128C9.36051 14.8631 8.51635 14.2035 7.44458 13.7293C7.08871 13.5712 6.71076 13.4434 6.32178 13.4764C6.20868 13.486 6.09557 13.5135 5.99764 13.5754C5.63211 13.8035 5.70935 14.2529 5.86108 14.5896C6.05557 15.0226 6.83491 15.9104 7.2032 16.1894" fill="#F9E0CF"/>
<path d="M10.4516 17.7338C11.0655 16.9243 11.3758 16.1931 10.6613 15.33C9.83231 14.3268 8.73021 13.5063 7.51775 13.0252C6.48737 12.6171 4.95628 12.7834 5.06249 14.2113C5.13284 15.1583 6.01563 16.1011 6.71772 16.6714C7.41982 17.2418 8.36881 16.2632 7.68603 15.7066C7.2736 15.3699 6.84738 14.9342 6.57841 14.4724C6.53289 14.3941 6.42944 14.2732 6.43909 14.1783C6.45151 14.0588 6.66393 14.1673 6.82531 14.2196C7.18946 14.3391 7.5343 14.5151 7.86259 14.7088C8.46537 15.0662 8.98814 15.5225 9.46264 16.0351C9.57437 16.156 9.69162 16.2729 9.76749 16.4213C9.66679 16.2234 9.81714 16.2605 9.66679 16.4543C9.51644 16.6481 9.41299 16.8556 9.27091 17.0439C8.73986 17.7448 9.92749 18.4251 10.453 17.7324L10.4516 17.7338Z" fill="#3E3A39"/>
<path d="M54.9455 45.8904C52.4296 45.0177 44.4003 42.001 41.5988 40.7874C35.7669 38.26 37.1945 33.315 38.3491 32.4987C38.6318 32.298 39.9146 31.1394 40.2567 30.9278C43.3699 30.2392 46.2735 32.3241 48.9467 33.9074C53.0448 36.3345 58.1208 38.8537 60.8492 42.5933C60.9995 42.7995 61.0892 43.6681 61.0533 43.9498C61.0326 44.1147 60.4271 45.2774 60.3209 45.3558C59.6795 45.8272 55.7373 46.1612 54.9469 45.8877L54.9455 45.8904Z" fill="#3E3A39"/>
<path d="M55.1732 45.0642C51.7441 43.8712 48.3482 42.5656 44.9687 41.238C42.1824 40.144 38.1202 38.8947 38.1657 35.2526C38.1726 34.7634 38.2844 34.182 38.4609 33.7793C38.5009 33.6872 38.6457 33.4179 38.7589 33.2722C38.6499 33.4151 38.7851 33.2529 38.8306 33.209C38.8651 33.176 38.952 33.0908 38.7809 33.2406C38.8733 33.1595 38.9796 33.0908 39.0747 33.0138C39.6279 32.5699 40.2555 31.7356 40.9341 31.6793C42.2321 31.5707 43.4763 31.9061 44.6473 32.4517C46.9467 33.5223 49.0916 34.9901 51.2862 36.2587C53.4807 37.5272 55.6712 38.8067 57.6009 40.4367C58.1085 40.8655 58.5996 41.3177 59.0575 41.8001C59.4217 42.1821 59.9858 42.6824 60.1334 43.1566C60.1955 43.3531 60.2244 43.6527 60.1969 43.8547C60.2203 43.6926 60.1389 43.929 60.1017 44.0059C60.0093 44.1956 59.9113 44.3839 59.8079 44.568C59.7844 44.6093 59.7058 44.7151 59.6906 44.7701C59.5886 44.9185 59.6368 44.88 59.8355 44.656L59.7775 44.6876C59.7665 44.6752 59.8961 44.6739 59.7527 44.6931C59.6575 44.7055 59.5444 44.7549 59.452 44.7797C59.2451 44.8319 59.0341 44.8718 58.8244 44.9089C58.3954 44.9831 57.9623 45.0312 57.5292 45.0683C56.7926 45.1315 55.7401 45.2415 55.1746 45.071C54.1139 44.7494 53.6601 46.4028 54.718 46.723C55.4932 46.958 56.4188 46.8632 57.2133 46.8069C58.1444 46.7409 59.1154 46.6571 60.0175 46.4042C61.641 45.9493 62.4259 43.6101 61.59 42.1698C60.9224 41.0181 59.7458 40.0052 58.7375 39.1613C57.6768 38.2735 56.5443 37.4736 55.3801 36.7259C52.9704 35.1784 50.4434 33.8164 47.9909 32.339C46.6681 31.5419 45.3039 30.7612 43.817 30.3091C43.1742 30.1139 42.5038 29.9916 41.8335 29.9545C41.21 29.9201 40.3079 29.9091 39.7617 30.239C39.3699 30.4754 39.0196 30.8258 38.6733 31.1213C38.3037 31.436 37.9271 31.7274 37.7009 31.9335C37.2857 32.3101 37.0181 32.7925 36.8153 33.3093C36.2374 34.7867 36.3698 36.4731 37.0443 37.8941C38.0057 39.9213 39.9782 41.0455 41.97 41.8757C46.1605 43.6211 50.431 45.2332 54.7194 46.7244C55.7663 47.0886 56.216 45.4352 55.176 45.0724L55.1732 45.0642Z" fill="#3E3A39"/>
<path d="M61.7885 45.0476C61.8023 44.9212 61.8119 44.7947 61.8161 44.6683C61.8782 42.9187 60.874 41.6694 59.0863 41.3739C58.1511 41.2186 57.1414 41.5114 56.1552 41.9058C54.3675 42.6191 54.842 42.5215 53.2089 43.6114C50.5053 45.4159 45.61 48.8381 42.7864 50.2619C42.4195 50.4474 41.8788 50.1396 41.4857 50.2702C41.1947 50.3664 40.6774 50.4282 40.3864 50.5354C39.8512 50.7333 40.1339 51.0879 40.1105 51.5689C40.0857 52.0499 40.9519 53.3968 41.2471 53.6951C42.3216 54.9911 43.2913 56.4548 44.6155 57.5433C45.0596 57.9075 45.5079 58.2772 46.1314 58.4421C46.7549 58.6084 47.4735 58.552 48.1466 58.137C48.7025 57.7934 53.2558 54.1582 54.6144 53.2773C56.3317 52.164 58.0256 51.0535 59.4008 49.5514C60.6767 48.1578 61.6106 46.657 61.7899 45.0503L61.7885 45.0476Z" fill="#3E3A39"/>
<path d="M62.4976 45.048C62.6879 42.9892 61.5527 41.1682 59.4644 40.7284C57.5264 40.3202 55.2794 41.2685 53.7194 42.3969C52.0089 43.6352 50.2241 44.7841 48.4654 45.9523C46.7067 47.1206 44.8625 48.3451 42.9631 49.3704C42.8045 49.457 42.6197 49.593 42.4362 49.6136C42.1879 49.6425 41.9162 49.5174 41.6624 49.5298C41.1617 49.5532 40.4789 49.7043 40.0292 49.9229C39.1878 50.3324 39.2554 51.4127 39.5271 52.1823C39.8002 52.9588 40.2982 53.6529 40.8196 54.281C41.6638 55.2952 42.4155 56.3865 43.3438 57.3293C44.1825 58.1814 45.188 59.061 46.4212 59.2053C47.2626 59.3042 48.0805 59.0569 48.7606 58.5648C50.0241 57.6509 51.2365 56.6641 52.4752 55.7172C56.2588 52.8255 61.8065 50.2967 62.499 45.0453C62.6176 44.1464 61.1982 44.1547 61.081 45.0453C60.7858 47.2814 58.983 49.1738 57.3043 50.5358C55.9167 51.6614 54.3566 52.5479 52.9248 53.6158C51.7 54.5297 50.4972 55.4698 49.2875 56.4016C48.3357 57.1355 47.2764 58.235 45.9756 57.6275C44.9894 57.1657 44.1742 56.1941 43.4914 55.375C42.8472 54.6026 42.1962 53.8109 41.5975 53.0028C41.1479 52.3967 40.9134 51.8538 40.7892 51.1364C40.7823 51.0952 40.7603 50.9921 40.7699 50.944C40.7148 51.1928 40.701 51.1172 40.9272 51.1199C41.1534 51.1227 41.3824 51.0045 41.5962 50.9729C42.0665 50.9028 42.5038 51.1034 42.9783 50.9426C43.7176 50.6911 44.4377 50.1758 45.1039 49.7772C45.9246 49.2865 46.7315 48.7753 47.5343 48.2558C49.1551 47.2071 50.7524 46.1214 52.3524 45.0398C53.8201 44.0475 55.1553 42.9906 56.8422 42.3996C57.9402 42.0148 59.1982 41.8183 60.2037 42.5494C61.0189 43.1404 61.1693 44.108 61.0824 45.048C60.9955 45.9881 62.4176 45.9482 62.5004 45.048H62.4976Z" fill="#3E3A39"/>
<path d="M3.08306 109.399C3.38652 108.763 4.01827 108.338 4.80036 108.33C5.41969 108.323 5.85833 108.76 6.30524 109.127C8.02806 110.54 9.73433 111.961 11.3758 113.466C11.4668 113.548 11.6047 113.548 11.6958 113.466C13.0144 112.27 14.4173 111.202 15.9428 110.298C16.1677 110.164 16.3966 110.061 16.6187 110.107C16.8408 110.152 16.9125 110.259 16.9994 110.443C17.8119 112.168 18.3236 113.923 18.027 115.783C18.0243 115.801 18.0201 115.819 18.0132 115.835C17.4987 117.176 16.9373 118.501 16.307 119.79C16.078 120.259 15.5125 120.471 15.0352 120.255C15.0311 120.254 15.0283 120.252 15.0242 120.251C10.9247 118.373 7.10528 116.282 4.02792 112.938C3.32031 112.17 2.86236 111.304 2.88719 110.233C2.89409 109.931 2.96305 109.649 3.08168 109.399H3.08306Z" fill="#3E3A39"/>
<path d="M3.73011 109.776C3.98805 109.299 4.51497 108.918 5.07499 109.143C5.70122 109.396 6.2971 110.079 6.80884 110.504C7.9744 111.469 9.12892 112.445 10.2545 113.455C10.7 113.855 11.1538 114.42 11.8159 114.216C12.438 114.025 13.0104 113.297 13.5112 112.893C14.0119 112.489 14.5539 112.087 15.1002 111.719C15.3664 111.539 15.6354 111.363 15.9085 111.194L16.114 111.067C16.2975 111.043 16.3623 110.96 16.3057 110.82C16.2699 110.655 16.2864 110.657 16.354 110.82L16.4588 111.045C17.0671 112.372 17.4713 113.833 17.3389 115.3C17.2837 115.907 16.9609 116.492 16.7292 117.05C16.4312 117.765 16.1388 118.503 15.7719 119.186C15.6188 119.47 15.5788 119.612 15.2988 119.557C14.9995 119.498 14.6243 119.245 14.3512 119.114C13.7263 118.817 13.1056 118.512 12.4918 118.193C11.3456 117.6 10.2214 116.961 9.14134 116.253C7.85715 115.412 6.6447 114.47 5.53708 113.408C4.51773 112.429 3.16733 111.144 3.80598 109.597C4.17151 108.709 2.72318 108.323 2.36179 109.2C1.69832 110.808 2.56869 112.467 3.65976 113.636C4.75084 114.806 6.08882 115.935 7.44887 116.903C8.80892 117.871 10.2531 118.714 11.7359 119.483C12.4877 119.872 13.2491 120.243 14.0146 120.601C14.6477 120.897 15.2505 121.227 15.9636 120.999C16.7802 120.739 17.063 119.961 17.3885 119.25C17.7679 118.423 18.1223 117.586 18.4603 116.741C19.1072 115.12 18.8879 113.342 18.3293 111.716C18.1127 111.085 17.8851 110.178 17.3927 109.694C16.7154 109.031 15.8174 109.491 15.154 109.903C14.4905 110.316 13.8132 110.787 13.1732 111.272C12.8022 111.554 12.438 111.843 12.0807 112.142C11.9566 112.245 11.8338 112.35 11.7125 112.456C11.5897 112.561 11.4697 112.667 11.3483 112.776C11.7676 112.84 11.8228 112.774 11.5125 112.578C11.2931 112.201 10.6393 111.799 10.3138 111.517C9.91102 111.166 9.50549 110.82 9.0972 110.475C8.25028 109.759 7.39921 109.047 6.53711 108.349C5.89295 107.828 5.24051 107.491 4.3922 107.622C3.5439 107.753 2.84456 108.267 2.43627 109.022C1.97971 109.868 3.27217 110.622 3.73011 109.776Z" fill="#3E3A39"/>
<path d="M34.2248 62.2426C28.2646 79.0015 20.3112 93.1024 10.6033 108.475C14.8255 112.4 20.4533 116.126 21.063 115.833C21.5126 115.617 38.5008 86.8147 42.7851 77.7151C44.3451 74.4001 45.8045 70.4763 45.7355 66.7285C45.6942 64.5336 45.1962 62.0969 43.9658 60.5823C42.2182 58.4315 40.2691 57.8584 37.7973 58.4961C36.0511 58.9468 35.1172 60.3583 34.4565 61.8935" fill="#EAAB71"/>
<path d="M33.9545 62.1683C32.811 65.3816 31.5737 68.5605 30.2412 71.7009C28.9088 74.8413 27.5446 77.8099 26.0756 80.8088C24.6066 83.8076 23.092 86.7089 21.5044 89.6074C19.8864 92.5623 18.2063 95.4828 16.4821 98.3786C14.7097 101.357 12.8917 104.309 11.0475 107.245C10.8185 107.607 10.5909 107.972 10.3605 108.334C10.2971 108.436 10.3164 108.591 10.4047 108.673C12.0116 110.165 13.7179 111.553 15.4821 112.859C16.8228 113.851 18.1994 114.834 19.6712 115.625C20.0299 115.819 20.4285 116.05 20.8368 116.113C21.0285 116.144 21.1995 116.113 21.3237 115.962C21.5499 115.686 21.7347 115.37 21.9251 115.07C22.2823 114.508 22.6299 113.94 22.9775 113.371C23.4686 112.566 23.9555 111.758 24.4397 110.95C25.0397 109.949 25.6356 108.946 26.2287 107.941C26.9128 106.784 27.5943 105.627 28.2715 104.467C29.0067 103.211 29.7392 101.953 30.4688 100.693C31.2303 99.3777 31.9889 98.0611 32.7448 96.7417C33.5007 95.4223 34.2635 94.0823 35.0166 92.7506C35.749 91.4545 36.4787 90.1558 37.2029 88.8556C37.8829 87.6325 38.5602 86.4065 39.2292 85.1779C39.8237 84.0839 40.414 82.9871 40.9933 81.8849C41.4803 80.9613 41.9589 80.0336 42.4237 79.0977C43.1065 77.7233 43.7479 76.3283 44.3024 74.8976C45.1576 72.6918 45.8183 70.3801 45.9797 68.0107C46.0556 66.9057 46.0059 65.7966 45.8432 64.7013C45.6887 63.6636 45.4211 62.637 44.9714 61.6846C44.548 60.7885 43.9162 59.9969 43.1658 59.3495C42.4817 58.7599 41.6803 58.3064 40.7933 58.1057C39.8981 57.9023 38.9712 57.9518 38.0788 58.1428C37.1284 58.3462 36.2828 58.775 35.6139 59.487C34.9987 60.1412 34.5642 60.9355 34.211 61.7533C34.1517 61.8921 34.1697 62.0529 34.3117 62.1354C34.4304 62.2041 34.6345 62.1738 34.6952 62.035C35.0469 61.22 35.4745 60.4133 36.109 59.7797C36.4208 59.4691 36.7753 59.2093 37.1711 59.0169C37.596 58.8108 38.0663 58.7022 38.5298 58.6211C39.3616 58.4754 40.2237 58.4919 41.032 58.7489C41.8403 59.0059 42.61 59.5433 43.2252 60.1741C43.9135 60.8778 44.4197 61.6873 44.7535 62.6109C45.1066 63.5853 45.3025 64.6133 45.3935 65.6441C45.5921 67.9132 45.2335 70.1657 44.588 72.34C44.0114 74.2819 43.2238 76.1552 42.3465 77.979C41.9382 78.8283 41.512 79.668 41.0789 80.5037C40.5478 81.5289 40.0071 82.5487 39.4595 83.5657C38.8319 84.7312 38.1974 85.8925 37.5574 87.0511C36.8635 88.3086 36.1628 89.5648 35.4594 90.8168C34.7283 92.1184 33.9917 93.4171 33.2538 94.7145C32.5089 96.0215 31.7613 97.3272 31.0096 98.6301C30.2578 99.933 29.5364 101.18 28.7957 102.451C28.1032 103.64 27.408 104.827 26.7101 106.013C26.0811 107.084 25.4493 108.152 24.8148 109.22C24.281 110.118 23.7445 111.016 23.2038 111.911C22.7858 112.602 22.3665 113.293 21.9416 113.979C21.6727 114.415 21.4023 114.85 21.1195 115.278C21.0464 115.388 20.9692 115.493 20.8947 115.603C20.8657 115.646 20.943 115.554 20.9182 115.573C20.9113 115.579 20.9085 115.591 20.9002 115.594C20.8961 115.595 20.8768 115.617 20.874 115.621C20.8768 115.613 20.9554 115.572 20.9595 115.57C20.9237 115.581 20.9416 115.553 20.9982 115.566C20.9954 115.566 20.9706 115.569 20.9706 115.566C20.9706 115.566 20.9388 115.565 20.9347 115.565C20.8837 115.565 21.0051 115.584 20.9513 115.568C20.8851 115.547 20.8147 115.536 20.7485 115.513C20.7099 115.5 20.6726 115.485 20.634 115.471C20.6119 115.463 20.5899 115.454 20.5678 115.445C20.5388 115.433 20.5844 115.452 20.5857 115.452C20.5692 115.445 20.5512 115.437 20.5347 115.43C20.3071 115.33 20.0864 115.216 19.8685 115.096C19.2312 114.747 18.616 114.357 18.0118 113.956C16.3387 112.846 14.7317 111.636 13.1855 110.359C12.3703 109.687 11.573 108.993 10.7978 108.274L10.8419 108.612C12.7013 105.668 14.5359 102.709 16.3263 99.7227C18.1167 96.7362 19.7719 93.8858 21.4133 90.9227C23.0548 87.9596 24.5817 85.0679 26.0618 82.0883C27.5418 79.1087 28.9626 76.0604 30.2895 72.99C31.6165 69.9197 32.9006 66.6982 34.0662 63.4987C34.2097 63.1043 34.3517 62.7085 34.4924 62.3126C34.6138 61.9732 34.0717 61.8275 33.9517 62.1642L33.9545 62.1683Z" fill="#EAAB71"/>
<path d="M75.7271 67.7431C76.8292 66.7095 77.9368 65.6554 79.0348 64.626C79.1948 64.4762 79.3424 64.3456 79.5617 64.3195C79.89 64.281 80.1893 64.3924 80.3893 64.6068C83.3936 67.842 86.0461 70.2334 88.8627 73.9689C89.4531 74.7509 89.4986 75.6923 89.1579 76.6145C88.8172 77.5367 87.8489 77.9793 86.7854 77.7209C86.1813 77.5752 85.1164 76.8468 84.7785 76.4111C83.4308 74.6808 82.3025 72.409 81.2432 70.5275C78.8831 71.6875 76.9106 73.0934 74.4526 73.4934C74.1036 73.5497 73.8774 73.5566 73.6484 73.4356C73.4194 73.3147 73.4484 73.1883 73.5036 72.9917C74.0181 71.1336 74.5519 69.3318 75.7285 67.7403" fill="#3E3A39"/>
<path d="M76.2346 68.2487C77.0801 67.4557 77.9215 66.6572 78.7657 65.8628C79.0361 65.6072 79.505 64.9489 79.8789 65.1138C80.0513 65.1908 80.254 65.5151 80.3851 65.6553C80.5782 65.8615 80.7741 66.0662 80.9685 66.2696C82.3534 67.7196 83.7728 69.1379 85.1273 70.6181C85.7991 71.352 86.4543 72.101 87.086 72.8693C87.7081 73.6252 88.6736 74.502 88.6502 75.5534C88.6309 76.4303 88.1329 77.1807 87.177 77.0707C86.5398 76.9979 85.8391 76.499 85.4087 76.0468C84.6652 75.2634 84.1176 74.2038 83.581 73.2734C82.9907 72.2481 82.4389 71.2008 81.8596 70.1701C81.661 69.8169 81.2182 69.7426 80.8761 69.9131C78.8678 70.9122 76.9491 72.2316 74.7283 72.7168C74.6221 72.7401 74.1586 72.7429 74.0828 72.8198C73.8855 72.7992 73.9242 72.9215 74.1945 73.1854C74.2373 73.0315 74.28 72.8762 74.3242 72.7223C74.4759 72.1876 74.6332 71.653 74.8152 71.1266C75.1877 70.045 75.6787 69.0349 76.3477 68.1044C76.8884 67.354 75.6415 66.638 75.1063 67.3815C74.2497 68.5717 73.6814 69.9172 73.2428 71.3094C72.9269 72.3141 72.2041 73.8932 73.7366 74.2176C74.3173 74.3412 75.0139 74.1351 75.5697 73.9839C76.2332 73.8039 76.8732 73.5496 77.4995 73.2706C78.9064 72.6425 80.2251 71.8344 81.603 71.1486L80.6196 70.8916C81.2775 72.0639 81.901 73.2569 82.5852 74.4141C83.1424 75.3569 83.7273 76.466 84.5494 77.2082C85.9287 78.4533 88.435 79.2793 89.6226 77.3002C91.1096 74.8223 88.755 72.5807 87.2419 70.8339C85.5687 68.9029 83.7521 67.1039 81.9879 65.2567C81.1782 64.4088 80.1506 62.9808 78.8319 63.8673C78.2222 64.2768 77.7008 64.898 77.167 65.401C76.5187 66.014 75.8704 66.627 75.2194 67.2372C74.5683 67.8474 75.5628 68.8823 76.236 68.2501L76.2346 68.2487Z" fill="#3E3A39"/>
<path d="M74.469 66.0686C73.7807 65.2701 74.4456 66.1071 73.7807 65.2701C67.6385 69.8509 61.7927 73.5479 56.2601 77.08C53.8242 69.9993 53.5731 65.1506 49.4088 58.3626C49.133 57.9132 48.9123 57.5504 48.4598 57.314C47.944 57.0446 47.3743 57.1435 46.817 57.2274C45.6391 57.4061 44.3935 57.6452 43.2321 57.872C41.1644 58.2774 38.9133 58.8271 38.2098 60.9134C37.8636 61.9428 38.3726 62.8499 38.6747 63.7735C39.7892 67.1805 41.6113 70.6164 42.6389 74.0509C43.4735 76.3502 44.3618 78.196 45.1866 80.175C47.3288 85.3124 50.0696 89.7145 53.6766 93.964C53.9511 94.287 54.2752 94.6608 54.7401 94.779C55.2973 94.9205 55.8325 94.845 56.3443 94.5385C66.5032 88.4583 81.1575 74.7889 81.1672 74.2392C81.1741 73.8228 76.8539 68.8421 74.4663 66.07L74.469 66.0686Z" fill="#EAAB71"/>
<path d="M74.6662 65.8708C74.4979 65.6756 74.1448 65.1479 73.8731 65.5423L73.9738 65.442C74.0207 65.4296 74.0676 65.4173 74.1158 65.4035C74.1627 65.4159 74.2096 65.4283 74.2579 65.442C74.3627 65.5038 74.2869 65.4557 74.2483 65.4063C74.1586 65.2949 74.0703 65.1822 73.982 65.0709C73.9131 64.9843 73.7324 64.9596 73.6427 65.0269C71.3282 66.7518 68.9694 68.4161 66.5804 70.0337C64.3486 71.5455 62.0892 73.0161 59.8202 74.4729C58.5898 75.2632 57.3552 76.0493 56.1221 76.8354L56.5345 77.0031C55.8021 74.8687 55.1979 72.6959 54.6034 70.5203C54.0586 68.5274 53.4999 66.536 52.7758 64.5981C51.9523 62.3964 50.9164 60.2827 49.6901 58.2761C49.4143 57.8239 49.1301 57.3635 48.6542 57.0969C48.1066 56.789 47.4942 56.844 46.8969 56.9334C45.6224 57.123 44.3562 57.3649 43.0927 57.615C41.3354 57.9614 39.2801 58.4396 38.287 60.0875C38.0097 60.5479 37.8194 61.0798 37.818 61.6213C37.8166 62.2068 38.0152 62.7634 38.2153 63.3049C38.4304 63.8835 38.6153 64.4717 38.8291 65.0503C39.0429 65.6289 39.2843 66.2405 39.5256 66.8287C40.5064 69.2284 41.5795 71.5868 42.3547 74.0634C42.5492 74.6832 42.8099 75.2879 43.0541 75.8899C43.2982 76.4918 43.5285 77.0278 43.7741 77.5941C44.2472 78.6867 44.7162 79.7807 45.1865 80.8747C46.119 83.042 47.1949 85.1489 48.417 87.1679C49.6391 89.1868 51.0033 91.1095 52.4806 92.9457C52.8516 93.4061 53.2227 93.8679 53.6144 94.3118C54.0062 94.7557 54.4448 95.0457 55.0421 95.1116C55.6393 95.1776 56.1662 94.9756 56.6669 94.6732C57.0187 94.4602 57.3677 94.2444 57.7153 94.0245C59.2381 93.0597 60.7195 92.0317 62.1761 90.9707C63.7431 89.83 65.2824 88.6508 66.8011 87.4469C68.2936 86.2635 69.7667 85.0555 71.2219 83.8268C72.5572 82.7012 73.8772 81.5577 75.1835 80.3991C76.2649 79.4398 77.3353 78.4682 78.3905 77.48C79.1215 76.7956 79.8498 76.1043 80.5505 75.3882C80.7547 75.1807 80.9575 74.9704 81.1478 74.7492C81.254 74.6255 81.3988 74.4839 81.4416 74.3204C81.5175 74.0331 81.192 73.6813 81.0388 73.4724C80.6512 72.9433 80.236 72.4334 79.8209 71.9262C78.6677 70.5189 77.4829 69.1376 76.2966 67.7578C75.7545 67.1283 75.2124 66.4989 74.6703 65.8694C74.4345 65.5959 74.04 65.9931 74.2731 66.2652C75.4248 67.6025 76.578 68.937 77.7201 70.2839C78.676 71.4108 79.6788 72.5653 80.534 73.728C80.6443 73.8778 80.7561 74.029 80.8499 74.1898C80.8637 74.2145 80.8775 74.2393 80.8912 74.264C80.934 74.3396 80.8844 74.2351 80.894 74.2668C80.9161 74.3396 80.9064 74.1554 80.8981 74.1843C80.9202 74.1128 80.9299 74.1252 80.8968 74.1733C80.8802 74.198 80.8609 74.2214 80.8444 74.2461C80.8237 74.2778 80.8982 74.1815 80.8499 74.2393C80.8361 74.2558 80.8223 74.2736 80.8071 74.2915C80.7754 74.33 80.7423 74.3685 80.7078 74.4056C80.2195 74.9581 79.6843 75.4707 79.1533 75.9833C78.2718 76.8341 77.3739 77.6683 76.4676 78.4929C75.2993 79.5567 74.1158 80.6039 72.9213 81.6388C71.5599 82.818 70.1833 83.9807 68.7915 85.1242C67.3363 86.3185 65.8659 87.4922 64.3707 88.637C62.9044 89.7585 61.4175 90.8539 59.8988 91.9039C59.1857 92.3959 58.467 92.8783 57.7373 93.347C57.387 93.571 57.0352 93.7923 56.6821 94.0094C56.2697 94.2623 55.8642 94.544 55.3635 94.5647C55.0931 94.5757 54.802 94.5399 54.5634 94.4052C54.3469 94.2829 54.1731 94.1029 54.0103 93.9173C53.6323 93.4885 53.2723 93.0432 52.9137 92.5979C52.1826 91.6895 51.4792 90.7591 50.8088 89.8053C49.4915 87.9334 48.3011 85.9735 47.2514 83.9409C46.2017 81.9082 45.3065 79.7188 44.3782 77.5858C43.8913 76.4671 43.4182 75.3429 42.9961 74.198C42.7809 73.6153 42.614 73.0161 42.403 72.4306C42.192 71.8451 41.9561 71.2349 41.7174 70.6426C41.2388 69.4565 40.7298 68.2842 40.2402 67.1036C39.7505 65.923 39.3201 64.7754 38.9132 63.5894C38.7339 63.0644 38.4994 62.5517 38.4084 62.0006C38.3173 61.4495 38.4429 60.9712 38.6925 60.5081C39.1063 59.7412 39.8181 59.2313 40.6043 58.8863C41.4402 58.5194 42.3506 58.3297 43.243 58.1538C44.4775 57.9105 45.7134 57.6741 46.9576 57.4858C47.5066 57.402 48.0901 57.3333 48.5563 57.7016C48.9591 58.0191 49.2046 58.5496 49.4612 58.9811C50.0681 60.0023 50.6295 61.0523 51.1343 62.127C52.0171 64.0072 52.7082 65.9656 53.2986 67.9557C53.8903 69.9485 54.3993 71.9647 54.9827 73.9603C55.2972 75.0323 55.631 76.0974 55.9938 77.1543C56.0504 77.3178 56.2449 77.4237 56.4062 77.322C58.6201 75.9091 60.8354 74.499 63.0341 73.0642C65.3514 71.551 67.6508 70.0076 69.9157 68.4161C71.2661 67.4664 72.6041 66.4989 73.9269 65.5135L73.5875 65.4695C73.6924 65.6014 73.7889 65.7512 73.9075 65.8708C73.9655 65.9285 74.0345 65.9656 74.1186 65.9656C74.1696 65.9656 74.2179 65.9533 74.2621 65.9272C74.2758 65.9189 74.4676 65.7636 74.32 65.8818L74.1958 65.9533C74.1462 65.9533 74.0965 65.9533 74.0469 65.9533C74.0179 65.9464 73.9158 65.8571 73.9476 65.901C73.9627 65.9217 73.9876 65.9423 74.0041 65.9601C74.0965 66.0605 74.1848 66.1649 74.2745 66.268C74.5103 66.5415 74.9048 66.1443 74.6717 65.8722L74.6662 65.8708Z" fill="#EAAB71"/>
<path d="M46.3549 41.8842C46.4308 41.7742 46.6363 32.5509 46.2474 32.4093C44.4873 31.7689 42.05 30.0922 38.7836 30.3134C37.6222 30.3918 30.5778 32.4134 23.3776 32.8477C22.2741 33.3673 20.8299 37.6896 21.5113 38.0621C24.8742 39.8996 27.255 46.414 29.5033 52.3458C30.5296 55.078 31.142 57.9971 31.5972 61.1925C31.6468 61.5375 31.6951 62.5504 31.6868 62.8871C31.6551 64.135 31.7006 64.5858 32.2689 65.1094C32.7365 65.541 34.7642 65.1589 35.5063 65.027C38.4181 64.5047 40.2471 63.7983 42.3893 63.0987C45.7287 62.0103 51.4669 62.7428 51.711 60.3803C51.86 58.9331 48.893 46.3426 46.3536 41.8855L46.3549 41.8842Z" fill="#3E3A39"/>
<path d="M47.1259 42.0959C47.2238 41.8389 47.188 41.4486 47.199 41.1792C47.2224 40.5759 47.2363 39.9725 47.2473 39.3692C47.2776 37.834 47.2928 36.2961 47.2611 34.761C47.25 34.1796 47.239 33.5928 47.1824 33.0142C47.1438 32.6238 47.1273 32.1469 46.8238 31.8528C46.5535 31.5917 46.0762 31.4914 45.7383 31.3388C45.2555 31.1203 44.7768 30.8908 44.2913 30.6805C43.1851 30.2009 42.0567 29.7954 40.8595 29.6168C39.178 29.3652 37.7325 29.6813 36.109 30.0414C33.7723 30.5596 31.4288 31.0447 29.0632 31.4172C27.6135 31.6453 26.1569 31.8295 24.6948 31.9545C24.132 32.0026 23.3733 31.9174 22.8768 32.217C22.5609 32.4081 22.3209 32.7063 22.1098 33.0018C21.2491 34.2085 20.5318 36.0226 20.5387 37.5207C20.5429 38.4017 21.0312 38.6339 21.6684 39.1026C22.4436 39.6716 23.0699 40.4508 23.6078 41.237C25.0258 43.3067 26.0327 45.6528 26.9652 47.9699C27.9914 50.5139 29.0453 53.0839 29.7349 55.7419C30.3543 58.1292 30.9143 60.647 30.8839 63.1236C30.8729 64.065 30.9557 65.0024 31.7047 65.6689C32.3833 66.2736 33.4744 66.1197 34.3006 66.0153C36.6179 65.7225 38.869 65.1068 41.0802 64.3702C42.0857 64.0348 43.0747 63.6843 44.1217 63.5002C45.1355 63.3215 46.1617 63.2391 47.1852 63.1305C48.6984 62.9697 50.7757 62.9023 51.9109 61.7273C52.7261 60.8834 52.5123 59.799 52.3413 58.7614C52.0985 57.2812 51.7592 55.8161 51.4047 54.3593C50.5012 50.6499 49.4681 46.9172 47.9701 43.3974C47.6914 42.7446 47.3949 42.0987 47.0459 41.4802C46.5424 40.5869 45.1617 41.3881 45.6651 42.2842C47.2542 45.1058 48.1383 48.3809 49.0004 51.4787C49.4598 53.132 49.8832 54.795 50.257 56.469C50.406 57.1342 50.5467 57.8021 50.6736 58.4714C50.7233 58.7394 50.7715 59.0074 50.8157 59.2768C50.864 59.5778 50.8653 59.553 50.8902 59.8155C50.904 59.953 50.9178 60.0904 50.9191 60.2278C50.9191 60.2773 50.8971 60.4285 50.9288 60.2663C50.9081 60.3776 50.8846 60.4615 50.8419 60.5288C50.566 60.9617 49.7977 61.1129 49.3246 61.2201C47.5369 61.6256 45.6762 61.6352 43.8692 61.9348C41.8581 62.2688 39.9684 63.1195 38.0042 63.65C36.9269 63.94 35.8345 64.1709 34.7324 64.3537C34.2372 64.4361 33.0978 64.7385 32.7047 64.4155C32.4743 64.2258 32.4881 63.8067 32.4826 63.5442C32.4716 63.07 32.4923 62.5986 32.4688 62.1245C32.415 61.0126 32.2205 59.9131 32.0274 58.8191C31.5764 56.2559 30.9005 53.7835 29.9791 51.3495C29.0577 48.9155 28.1983 46.6464 27.1445 44.3636C26.2465 42.4189 25.2217 40.4522 23.7582 38.8621C23.4851 38.5652 23.1926 38.2876 22.8781 38.0333C22.7264 37.911 22.5719 37.7928 22.4133 37.6801C22.2878 37.5922 21.6381 37.162 22.1029 37.5482C22.2036 37.632 22.0905 37.7653 22.1374 37.5633C22.1623 37.4575 22.1429 37.3173 22.1554 37.206C22.1995 36.8473 22.303 36.4885 22.4078 36.1436C22.6271 35.4193 22.9112 34.7005 23.3168 34.0573C23.4175 33.8979 23.6023 33.6134 23.7278 33.5529C23.5057 33.6615 24.1968 33.5832 24.2989 33.5749C24.692 33.5447 25.0837 33.5089 25.4755 33.4705C29.7943 33.0403 33.982 32.0604 38.2249 31.2041C38.3408 31.1808 38.458 31.1588 38.5739 31.1368C38.6194 31.1285 38.8484 31.0942 38.7366 31.1079C38.6663 31.1162 39.0346 31.0914 39.1477 31.0887C39.498 31.0791 39.8498 31.0901 40.1987 31.1231C41.3009 31.2289 42.3823 31.5835 43.3975 32.0136C43.8127 32.1896 44.2196 32.3833 44.6292 32.5716C44.8182 32.6582 45.7314 33.2052 45.9024 33.1227C45.8045 33.1695 45.5741 32.742 45.5314 32.7022C45.541 32.7118 45.541 32.7695 45.5507 32.7709C45.5603 32.7709 45.6045 33.0801 45.5645 32.8094C45.5934 33.01 45.6045 33.2134 45.6169 33.4155C45.7741 35.9759 45.6996 38.5748 45.6031 41.1366C45.5962 41.307 45.5851 41.4761 45.5796 41.6465C45.5741 41.8609 45.541 41.7853 45.5852 41.6685C45.2169 42.6264 46.7618 43.0415 47.1259 42.0918V42.0959Z" fill="#3E3A39"/>
<path d="M43.0142 50.0811C42.4293 49.8763 41.8431 49.6715 41.2582 49.4681C40.7134 49.2771 40.1479 49.0846 39.5741 49.1451C39.0002 49.2056 38.4126 49.5932 38.294 50.1828C38.2457 50.4233 38.2747 50.6844 38.1685 50.9029C38.0802 51.0843 37.9119 51.2067 37.7478 51.318C36.9505 51.8595 36.0719 52.3364 35.5105 53.139C34.9491 53.9416 34.8497 55.2088 35.5905 55.8176C35.7422 55.9413 35.9229 56.0361 36.0277 56.2052C36.3022 56.6505 35.8815 57.3047 36.1408 57.7596C36.3905 58.1994 37.116 58.1623 37.3091 58.6323C37.4471 58.969 37.2278 59.4116 37.4333 59.7084C37.5947 59.9407 37.9188 59.9462 38.1685 60.0671C38.4761 60.2156 38.665 60.544 38.9464 60.7406C39.4706 61.1075 40.1796 60.9467 40.7824 60.7337C42.4045 60.1592 43.9342 59.2906 45.2818 58.1815C45.5136 57.9905 45.7494 57.7816 45.8681 57.4985C45.9577 57.2868 45.9743 57.0491 45.9784 56.8182C45.9963 55.5276 45.6294 54.2742 45.2653 53.0442C44.9067 51.8334 44.3632 50.4343 43.1742 50.1635" fill="#F9E0CF"/>
<path d="M43.2099 49.3729C41.8857 48.9097 40.1877 47.9806 38.7835 48.6128C38.2649 48.8465 37.811 49.2657 37.6331 49.8154C37.5503 50.0697 37.6014 50.4036 37.4455 50.6084C37.2317 50.8888 36.7338 51.0991 36.4413 51.3011C35.382 52.035 34.4702 52.9476 34.3406 54.2862C34.2909 54.8029 34.3751 55.3541 34.6371 55.8076C34.7971 56.0839 35.0151 56.2199 35.2179 56.4481C35.462 56.7243 35.331 56.8727 35.3185 57.2507C35.3006 57.8348 35.5255 58.3309 36.0289 58.6443C36.1669 58.7295 36.5641 58.812 36.6441 58.9508C36.6565 58.9728 36.6027 59.2023 36.6041 59.2765C36.6041 59.4661 36.6248 59.6517 36.6869 59.829C36.9158 60.4969 37.4855 60.4749 37.9711 60.8281C38.218 61.0082 38.3904 61.2652 38.6635 61.4232C38.9835 61.6088 39.3587 61.6912 39.727 61.6899C41.0801 61.6844 42.574 60.8364 43.7092 60.1698C44.7299 59.5706 46.3369 58.7116 46.6445 57.4706C46.85 56.6377 46.6665 55.6605 46.4996 54.8359C46.3286 53.988 46.0872 53.1386 45.8072 52.3195C45.3837 51.0784 44.7216 49.8305 43.3671 49.4526C42.4526 49.1969 42.0622 50.6125 42.9754 50.8682C43.8885 51.1238 44.1947 52.1147 44.4444 52.8871C44.8127 54.0264 45.181 55.2276 45.232 56.4302C45.2596 57.0734 45.1561 57.3359 44.6651 57.7345C44.174 58.133 43.6885 58.4642 43.1685 58.7817C42.2264 59.3562 41.0677 60.0448 39.9573 60.2014C39.3408 60.288 39.1628 59.8413 38.7104 59.539C38.5228 59.4139 38.3214 59.3686 38.1242 59.2696C37.9959 59.205 38.0414 59.2998 38.0759 59.3686C38.0317 59.2792 38.0938 59.0099 38.0897 58.8972C38.0745 58.4642 37.9186 58.1 37.5821 57.8224C37.4372 57.7028 37.2828 57.6273 37.1158 57.5462C36.8731 57.4293 36.8441 57.4651 36.7917 57.2479C36.7434 57.0473 36.8689 56.7367 36.8579 56.5236C36.8483 56.3354 36.8055 56.1567 36.7296 55.9849C36.5351 55.5437 36.0151 55.3774 35.8537 54.9376C35.5048 53.9852 36.4027 53.118 37.0924 52.6287C37.5724 52.2879 38.1724 52.0157 38.5752 51.5801C38.978 51.1444 38.8056 50.6716 39.0525 50.2195C39.3463 49.6821 40.1311 49.8745 40.5905 50.0119C41.3422 50.236 42.0788 50.5246 42.8181 50.783C43.7147 51.0963 44.0996 49.678 43.2099 49.3674V49.3729Z" fill="#3E3A39"/>
<path d="M19.3526 27.8395C19.8257 28.315 20.3222 28.6614 20.9526 28.9747C22.463 29.7279 24.212 29.8708 25.8535 30.2749C26.1169 31.2823 26.5018 32.2883 26.7583 33.2833C26.7997 33.4428 26.8025 33.5005 26.8342 33.6434C26.6149 34.0832 26.4687 34.4845 26.6245 34.993C26.779 35.5015 27.1404 35.9345 27.677 36.1241C28.2135 36.3138 28.7915 36.2863 29.3515 36.1241C30.7998 35.7077 31.9502 34.9394 32.873 33.7575C33.1406 33.4153 33.3255 33.0621 33.4179 32.6539C33.5848 31.9117 33.3958 31.1902 33.3503 30.448C33.3503 30.4439 33.3503 30.4412 33.3489 30.437C33.0882 29.6056 32.8841 28.7699 32.7448 27.9123C33.8882 27.9206 35.0193 27.7268 35.6621 26.7167C35.9366 26.2851 35.9145 25.8357 35.9145 25.3615C35.9145 24.8874 35.8414 24.4311 35.56 24.0353C35.2786 23.6395 34.8441 23.4209 34.3489 23.4017C33.8537 23.3825 33.4372 23.6188 33.1075 23.9707C33.6317 23.3646 33.6924 22.507 33.662 21.7525C33.6082 20.4056 33.5144 19.1865 32.9116 17.9812C32.5668 17.2927 32.1627 16.7306 31.5461 16.2097C28.9432 14.0121 26.0093 13.3318 22.652 13.8925C21.645 14.0602 20.874 14.5082 20.0919 15.1143C19.0918 17.0041 18.2835 18.8924 17.8242 20.9897C17.4863 22.529 17.4146 24.1136 17.9222 25.5979C18.2366 26.516 18.6918 27.1729 19.3539 27.8368L19.3526 27.8395Z" fill="#F9E0CF"/>
<path d="M18.9331 28.2563C20.7967 30.0608 23.2878 30.2711 25.6948 30.8442L25.2809 30.4319C25.5858 31.5589 26.0382 32.6543 26.2617 33.8005L26.321 33.3456C25.7596 34.5234 25.9458 35.9101 27.2038 36.5616C28.5418 37.2542 30.2618 36.5835 31.437 35.8469C32.6122 35.1102 33.7544 34.0314 34.0082 32.6872C34.3213 31.0256 33.5875 29.3668 33.313 27.756L32.7419 28.5023C33.6799 28.4982 34.6551 28.3827 35.4303 27.8124C36.2855 27.1829 36.5407 26.2882 36.502 25.2616C36.4676 24.3408 36.1158 23.4488 35.2413 23.0255C34.3668 22.6022 33.375 22.8798 32.6853 23.5533L33.615 24.2679C34.3723 23.2839 34.2895 21.992 34.1985 20.821C34.1061 19.6253 33.8619 18.4668 33.273 17.4085C32.1722 15.4294 29.8715 14.0922 27.7348 13.4998C25.6203 12.9143 22.874 12.8415 20.8877 13.8778C20.4449 14.11 19.8835 14.4165 19.5745 14.8151C19.1773 15.3277 18.9249 16.0864 18.6614 16.676C18.129 17.8634 17.6724 19.0866 17.3593 20.3524C16.6641 23.1643 16.8213 26.0862 18.929 28.2549C19.4601 28.8019 20.2973 27.9663 19.7663 27.4207C18.169 25.7783 17.9041 23.5711 18.3373 21.39C18.5511 20.3153 18.878 19.2639 19.2766 18.2427C19.478 17.7273 19.7001 17.2216 19.9373 16.7227C20.1539 16.265 20.347 15.6713 20.7456 15.3552C22.2712 14.1513 24.6685 14.11 26.5058 14.4316C28.3431 14.7532 30.368 15.6947 31.6495 17.1377C32.4081 17.9912 32.804 19.1058 32.9516 20.2232C33.0992 21.3405 33.3061 22.7396 32.5902 23.6701C32.1722 24.2129 33.055 24.8396 33.5199 24.3847C33.9392 23.9752 34.5544 23.8116 35.0054 24.2913C35.3806 24.6912 35.382 25.4677 35.2923 25.9721C35.0827 27.1568 33.7199 27.3162 32.7378 27.3204C32.3226 27.3217 32.1033 27.6942 32.1667 28.0666C32.404 29.463 33.1571 31.06 32.8398 32.4935C32.5764 33.685 31.2591 34.6649 30.2149 35.1666C29.6108 35.4579 28.8976 35.7273 28.2176 35.6394C27.5376 35.5514 26.9927 34.9714 27.2024 34.2595C27.2921 33.9544 27.4272 33.8005 27.3969 33.483C27.3665 33.1655 27.2396 32.8164 27.1458 32.499C26.9072 31.7018 26.6341 30.9171 26.4162 30.1144C26.3637 29.922 26.201 29.7489 26.0024 29.7021C23.8299 29.1854 21.4505 29.0507 19.7635 27.4179C19.2173 26.8888 18.3786 27.7217 18.9262 28.2522L18.9331 28.2563Z" fill="#3E3A39"/>
<path d="M23.0271 12.4271C23.3927 12.2979 23.7706 12.4422 24.1568 12.3968C23.6382 11.9804 23.2575 11.3977 23.0864 10.7559C24.0382 11.1173 25.1513 11.4018 26.1652 11.2657C27.2521 11.1187 28.3142 11.1627 29.3763 11.454C30.5943 11.788 32.1516 12.2058 33.2289 12.849C34.651 13.6984 34.6041 14.4872 35.3669 15.9729C35.7089 16.6395 37.0207 17.5053 37.1573 18.2337C37.3394 19.2054 37.4111 20.1111 37.0676 21.2779C36.8993 21.8511 36.3159 23.2185 35.9655 23.7051C35.8786 23.826 34.4951 22.6221 33.084 23.5182C32.4881 22.0215 31.9226 21.1721 31.4233 19.6342C30.9888 20.0768 30.0632 21.0003 29.9846 20.9976C29.9018 20.9948 27.8411 18.5705 27.1845 17.1782C26.259 17.8256 25.6782 18.3121 25.0299 19.2357C24.2285 17.6414 23.6699 17.0903 23.7196 14.916C21.7553 15.371 20.5443 15.7874 18.5483 16.8498C19.2394 15.8616 19.9484 14.3814 20.8726 13.6049C21.4988 13.0785 22.2588 12.7006 23.0285 12.4298L23.0271 12.4271Z" fill="#FF7B18"/>
<path d="M23.1845 12.9965C23.5018 12.9264 23.8342 12.9992 24.157 12.9882C24.6356 12.9717 24.9832 12.3327 24.5763 11.9808C24.1253 11.5919 23.8328 11.1713 23.6577 10.601L22.9294 11.3266C23.9749 11.7128 25.0467 11.9575 26.1653 11.8571C27.3695 11.7486 28.4427 11.809 29.6137 12.1334C31.2317 12.5814 33.3339 13.0198 34.1325 14.6677C34.4594 15.3425 34.6649 16.0902 35.1422 16.6811C35.5877 17.2309 36.3588 17.705 36.585 18.3922C37.1133 19.9878 36.356 22.0769 35.4526 23.4086L35.8071 23.1379C36.1933 22.9798 36.0995 23.2409 35.9974 23.1049C35.9574 23.0513 35.7257 22.9729 35.6691 22.9482C35.4057 22.8314 35.1381 22.7283 34.8553 22.6692C34.1215 22.5167 33.4332 22.6417 32.7835 23.0101L33.6539 23.3633C33.1228 22.0562 32.44 20.818 31.9931 19.4793C31.8552 19.067 31.3297 18.8884 31.0028 19.2196C30.6441 19.5838 30.1269 20.3012 29.6841 20.4895H30.2813C30.4386 20.5706 30.3144 20.5376 30.2538 20.4428C30.1889 20.3411 30.0813 20.2503 30.0013 20.1583C29.7282 19.8408 29.4648 19.5151 29.2082 19.1838C28.6482 18.4596 28.0951 17.705 27.6923 16.8804C27.5599 16.611 27.1295 16.4942 26.8826 16.6688C25.9626 17.3188 25.175 18.0211 24.5156 18.9378H25.5377C25.2343 18.3414 24.8674 17.7614 24.6232 17.136C24.3432 16.42 24.2991 15.6751 24.3087 14.9151C24.3142 14.5193 23.928 14.2595 23.5597 14.3461C21.6852 14.7859 19.9499 15.4415 18.2464 16.3389L19.0561 17.1457C19.5899 16.3637 20.0244 15.5116 20.601 14.757C21.2617 13.8939 22.1707 13.3662 23.1832 12.9965C23.8922 12.7367 23.5859 11.596 22.8687 11.8585C21.7624 12.2639 20.6907 12.8151 19.921 13.7263C19.1513 14.6375 18.6727 15.6146 18.034 16.5492C17.6809 17.0646 18.3554 17.6143 18.8437 17.3559C20.4589 16.5038 22.0962 15.8991 23.8728 15.4813L23.1239 14.9123C23.1128 15.7699 23.1735 16.6385 23.4811 17.4467C23.757 18.1723 24.1639 18.8403 24.5156 19.5302C24.7336 19.959 25.2991 19.8628 25.5377 19.5302C26.0743 18.7853 26.7323 18.2122 27.4799 17.6844L26.6702 17.4728C27.3157 18.7921 28.2978 20.0126 29.2703 21.1093C29.5641 21.4405 29.8579 21.7292 30.331 21.4763C30.8952 21.1739 31.3973 20.4977 31.8386 20.0497L30.8483 19.7899C31.2966 21.1313 31.978 22.3669 32.509 23.6739C32.6511 24.0243 33.0152 24.2319 33.3794 24.0271C34.2332 23.5433 34.8181 23.935 35.6208 24.225C36.316 24.4765 36.6002 23.8457 36.865 23.3097C37.6664 21.6893 38.203 19.8861 37.7258 18.0761C37.5216 17.3023 36.8374 16.7691 36.3078 16.2139C35.7271 15.605 35.5119 14.8134 35.1519 14.0699C34.3505 12.4151 32.5242 11.7637 30.8662 11.2634C29.6937 10.9088 28.5185 10.5872 27.2826 10.5955C26.6288 10.5996 25.9791 10.7453 25.3267 10.6999C24.6067 10.6504 23.9128 10.4347 23.2411 10.1873C22.8149 10.0306 22.3887 10.5075 22.5128 10.913C22.7418 11.6634 23.139 12.2997 23.7349 12.8137L24.1542 11.8063C23.7115 11.8214 23.3045 11.7609 22.8673 11.8571C22.1238 12.0207 22.4383 13.1587 23.1818 12.9951L23.1845 12.9965Z" fill="#FF7B18"/>
<path d="M33.3656 24.4222C33.7849 24.0127 34.4015 23.8477 34.8511 24.3274C35.2263 24.726 35.2277 25.5038 35.138 26.0082C34.9325 27.1654 33.7077 27.3194 32.7435 27.3221C32.3324 27.3221 32.1048 27.6959 32.1724 28.0684C32.3448 29.014 32.5821 29.9471 32.8345 30.8748C33.0345 31.6074 34.1766 31.2968 33.9766 30.5615C33.7242 29.6338 33.4869 28.7006 33.3145 27.755L32.7435 28.5013C33.6428 28.4986 34.5587 28.4024 35.2953 27.8403C36.1298 27.2026 36.3822 26.312 36.345 25.2936C36.3105 24.3727 35.9588 23.4808 35.0842 23.0575C34.2097 22.6342 33.218 22.9118 32.5283 23.5866C31.9835 24.1199 32.8207 24.9541 33.3656 24.4208V24.4222Z" fill="#3E3A39"/>
<path d="M22.8562 20.8109C22.5928 20.4013 22.4631 20.2955 22.4659 20.4948C22.4645 20.536 22.4659 20.5347 22.47 20.4893C22.4631 20.5415 22.448 20.5924 22.4328 20.6432C22.4286 20.6556 22.3859 20.7765 22.4149 20.7092C22.3942 20.7573 22.368 20.8054 22.3376 20.8494L22.55 20.6377L22.5238 20.6556L22.8231 20.5745H22.7942C22.8935 20.6006 22.9928 20.6267 23.0935 20.6542C23.0273 20.6254 23.1321 20.69 23.1431 20.7065L23.1666 20.7504C23.1721 20.8123 23.1749 20.8219 23.1735 20.7779C23.1735 20.7477 23.1735 20.7436 23.1735 20.7656C23.1735 20.8013 23.179 20.7848 23.1928 20.7161C23.1597 20.7903 23.2507 20.6061 23.2452 20.6157C23.3901 20.3436 23.3238 19.9616 23.0328 19.809C22.7583 19.6647 22.3776 19.7293 22.2231 20.0207C22.0135 20.4151 21.9003 20.8315 22.099 21.2548C22.2797 21.6396 22.75 21.9035 23.1487 21.6575C23.4811 21.4514 23.6108 20.9525 23.6439 20.5869C23.6921 20.0729 23.3666 19.6853 22.8562 19.6345C22.5473 19.6028 22.2507 19.9286 22.2645 20.2241C22.2797 20.5704 22.5252 20.7807 22.8562 20.8137V20.8109Z" fill="#3E3A39"/>
<path d="M27.4715 22.3534C27.208 21.9438 27.0784 21.838 27.0811 22.0373C27.0797 22.0785 27.0811 22.0771 27.0853 22.0318C27.0784 22.084 27.0632 22.1349 27.048 22.1857C27.0439 22.1981 27.0011 22.319 27.0301 22.2517C27.0094 22.2998 26.9832 22.3479 26.9528 22.3919L27.1653 22.1802L27.1391 22.1981L27.4384 22.117H27.4094C27.5087 22.1431 27.608 22.1692 27.7087 22.1967C27.6425 22.1678 27.7473 22.2324 27.7584 22.2489L27.7818 22.2929C27.7873 22.3548 27.7901 22.3644 27.7887 22.3204C27.7887 22.2902 27.7887 22.286 27.7887 22.308C27.7887 22.3438 27.7942 22.3273 27.808 22.2586C27.7749 22.3328 27.866 22.1486 27.8605 22.1582C28.0053 21.8861 27.9391 21.504 27.648 21.3515C27.3735 21.2072 26.9928 21.2718 26.8384 21.5631C26.6287 21.9576 26.5156 22.374 26.7142 22.7973C26.8949 23.1821 27.3653 23.446 27.7639 23.2C28.0963 22.9938 28.226 22.4949 28.2591 22.1294C28.3074 21.6154 27.9818 21.2278 27.4715 21.1769C27.1625 21.1453 26.8659 21.4711 26.8797 21.7665C26.8949 22.1129 27.1404 22.3232 27.4715 22.3561V22.3534Z" fill="#3E3A39"/>
<path d="M23.2286 25.7985C23.7362 26.8554 25.2011 26.9186 26.0549 26.2864C26.5419 25.9264 26.0674 25.1017 25.5735 25.4659C25.1211 25.8013 24.3487 25.9387 24.0521 25.3189C23.7873 24.7678 22.9652 25.2488 23.2286 25.7985Z" fill="#3E3A39"/>
<path d="M49.2944 65.9098C47.7095 69.1931 45.9136 72.3665 43.9163 75.4176C43.6238 75.8642 44.3411 76.2779 44.6322 75.834C46.6295 72.7829 48.4254 69.6082 50.0103 66.3262C50.2406 65.8493 49.5261 65.4301 49.2944 65.9098Z" fill="#C18156"/>
<path d="M90.1132 19.4642C91.7795 19.7239 93.3575 23.9803 94.7768 25.0798C96.7714 26.6232 98.0777 29.1919 99.8515 31.1806C100.686 32.1165 101.854 35.6115 103.645 36.3619C104.431 36.6918 102.951 36.9831 103.1 37.8119C103.297 38.9017 103.267 38.4111 102.872 39.6302C102.478 40.8506 102.27 41.4306 101.075 41.7357C100.783 41.8099 100.292 41.8978 99.9494 41.9624C98.0597 40.8121 96.8238 39.5394 94.3382 36.8622C91.4678 33.7713 86.8855 27.2431 85.5586 22.1799C85.4993 21.9518 86.8483 21.3237 86.9807 21.0887C87.058 20.9526 88.2056 20.5073 88.3173 20.4771C88.9877 20.2916 89.4387 19.3597 90.1132 19.4642Z" fill="#3E3A39"/>
<path d="M90.3173 18.7227C91.196 18.9014 91.8333 19.6408 92.3478 20.3184C92.9878 21.1608 93.5092 22.0817 94.0775 22.9709C94.3051 23.3268 94.5327 23.6897 94.803 24.0154C95.1423 24.4249 95.5768 24.7218 95.9617 25.086C96.9438 26.011 97.7383 27.1228 98.5245 28.2113C99.2363 29.1967 100.082 30.1093 100.758 31.1153C101.301 31.9262 101.689 32.8388 102.185 33.6785C102.682 34.5182 103.192 35.2013 104.032 35.6974C104.431 35.9324 104.729 36.2747 104.619 36.7736C104.526 37.1859 104.194 37.3329 103.948 37.6284C103.81 37.7947 103.874 37.6229 103.882 37.8167C103.892 38.0531 103.984 38.284 103.988 38.5231C103.995 38.9052 103.817 39.2446 103.694 39.5979C103.351 40.5819 103.087 41.6305 102.098 42.1665C101.614 42.429 101.068 42.5307 100.533 42.6324C99.8363 42.7658 99.5163 42.6173 98.9438 42.2311C98.0928 41.6553 97.3038 40.9928 96.5617 40.2837C92.9629 36.8368 89.8511 32.858 87.429 28.5054C86.7172 27.2273 86.073 25.9106 85.5351 24.55C85.2896 23.9288 85.0565 23.2938 84.8854 22.6479C84.7282 22.0556 84.8344 21.6735 85.3254 21.2997C86.0055 20.7815 86.6455 20.3321 87.4303 20.0036C87.8014 19.8483 88.16 19.7466 88.4731 19.491C88.9766 19.0801 89.4166 18.6664 90.1118 18.698C91.1008 18.742 91.1063 20.2785 90.1118 20.2345C89.7711 20.2194 89.4083 20.7307 89.1407 20.9162C88.8594 21.1114 88.538 21.2076 88.2221 21.3299C87.549 21.5924 87.451 21.7628 86.8303 22.1504C86.6758 22.2466 86.5144 22.3717 86.3517 22.45C85.8344 22.7015 86.5944 22.2645 86.3489 22.1504C86.4289 22.1875 86.5324 22.7675 86.5627 22.8623C86.651 23.1372 86.7476 23.4093 86.8482 23.68C87.2193 24.6778 87.6676 25.6454 88.1545 26.5923C90.0801 30.3347 92.5491 33.8201 95.4237 36.8972C96.9314 38.5121 98.4445 40.1311 100.34 41.2979L99.7453 41.221C100.693 41.0437 101.54 41.0121 101.923 40.0349C102.098 39.5896 102.311 39.088 102.418 38.6221C102.446 38.5025 102.316 38.0173 102.318 37.6834C102.321 37.2601 102.532 36.8821 102.817 36.5825C102.883 36.5124 103.046 36.3173 103.14 36.2884C103.355 36.2224 103.173 35.7194 103.298 36.6347C103.373 37.179 103.406 37.1199 103.068 36.9344C102.235 36.4753 101.631 35.6823 101.126 34.8989C100.621 34.1155 100.211 33.2621 99.7535 32.443C99.2542 31.5496 98.5411 30.8267 97.9231 29.9925C97.1645 28.9699 96.4596 27.9034 95.6155 26.9469C94.9423 26.1841 94.0968 25.6096 93.4774 24.8043C92.8098 23.9343 92.2788 22.9695 91.6829 22.0514C91.276 21.4247 90.7132 20.3692 89.9077 20.2057C88.9366 20.0078 89.3476 18.5262 90.3173 18.7241V18.7227Z" fill="#3E3A39"/>
<path d="M92.0817 32.1324C92.1934 32.1874 94.0541 31.448 94.17 31.4699C95.7783 31.7641 95.9218 31.7572 96.7287 30.2179C97.1508 29.4125 96.9853 27.8897 96.5535 26.9085C95.1949 23.8216 93.541 20.7211 92.1134 17.5216C91.781 16.7767 91.5851 16.1486 91.3175 15.4545C91.0499 14.7605 90.8568 14.142 90.6664 13.459C90.5147 12.9161 90.4982 12.3306 90.2002 11.8606C89.5671 10.8601 88.676 10.9425 87.7036 11.4084C86.8139 11.8359 85.9421 12.2207 85.1021 12.8185C84.3531 13.3518 83.5283 13.5909 83.1158 14.6519C82.8482 15.3405 82.6124 15.291 83.0082 16.7066C83.3351 17.8775 85.0842 22.8802 85.9008 24.2697C86.9325 26.0261 88.4139 28.0038 89.5961 29.3658C90.6926 30.6288 90.6471 31.4342 92.0803 32.1324H92.0817Z" fill="#3E3A39"/>
<path d="M92.0816 31.5211C91.9478 31.5074 92.0278 31.5376 92.1313 31.5032C92.2554 31.462 92.381 31.4249 92.5037 31.3837C92.8086 31.2806 93.112 31.1693 93.4155 31.0621C94.0127 30.8532 94.3438 30.9191 94.9741 30.9892C95.5231 31.0497 95.6624 30.8655 95.9314 30.3996C96.3963 29.5943 96.4432 28.7916 96.228 27.8901C95.9811 26.8497 95.4128 25.8601 94.9548 24.8981C94.4527 23.8439 93.9383 22.7953 93.4265 21.7453C92.4458 19.7291 91.5078 17.7184 90.723 15.6184C90.3629 14.655 90.1202 13.6874 89.8678 12.6951C89.5629 11.4912 88.7105 11.6108 87.7877 12.0451C86.8166 12.5014 85.9366 13.0291 85.029 13.5967C84.2855 14.0626 83.8441 14.4474 83.5062 15.2707C83.1682 16.0939 83.851 17.3803 84.1186 18.1637C84.6014 19.5766 85.1117 20.9825 85.68 22.3624C86.3821 24.0666 87.4028 25.5756 88.5077 27.0476C89.1739 27.9354 89.9478 28.7477 90.5878 29.6534C91.145 30.4422 91.4926 31.1445 92.3878 31.6049C93.0899 31.9664 92.4692 33.0233 91.7685 32.6618C90.9423 32.2358 90.4126 31.6407 89.9202 30.8697C89.3284 29.9392 88.5808 29.1325 87.9049 28.2625C86.7076 26.7205 85.5366 25.1166 84.7614 23.3189C84.0814 21.7384 83.491 20.1167 82.9351 18.4881C82.5475 17.3556 81.8647 15.9455 82.3875 14.7759C82.7489 13.9678 83.131 13.3617 83.8841 12.8614C84.8359 12.2292 85.8042 11.6383 86.8359 11.1435C87.676 10.7408 88.5932 10.2557 89.5478 10.5649C90.5023 10.8741 90.9506 11.8527 91.1395 12.779C91.6595 15.3202 92.8541 17.7445 93.9714 20.0672C94.5369 21.2409 95.1135 22.4077 95.679 23.5814C96.2445 24.7551 96.8611 25.8862 97.2749 27.0902C97.6046 28.0509 97.748 29.2685 97.3811 30.2388C97.1246 30.9178 96.6528 31.8152 95.9411 32.108C95.6073 32.2454 95.2555 32.2426 94.9024 32.2028C94.6707 32.1767 94.4196 32.0915 94.1879 32.0928C94.3327 32.0928 94.0983 32.1176 94.0196 32.1437C93.4596 32.3279 92.6803 32.8061 92.0761 32.7429C91.2982 32.6618 91.2899 31.4373 92.0761 31.5197L92.0816 31.5211Z" fill="#3E3A39"/>
<path d="M80.5253 9.35254C80.917 10.2266 82.6674 13.7477 84.2992 14.347C85.1682 14.6658 86.1062 14.9022 86.9558 14.5792C87.6566 14.3126 88.2469 13.7395 88.5352 13.0262C88.6166 12.8255 88.6966 12.6249 88.8 12.4366C89.1366 11.8223 89.3766 11.1475 89.509 10.4479" fill="#F9E0CF"/>
<path d="M81.0522 9.04614C81.7336 10.5497 82.5846 12.1893 83.8178 13.3163C84.6288 14.0584 86.1392 14.4405 87.1062 13.8262C87.6924 13.4537 87.8979 12.9177 88.1779 12.3226C88.4938 11.6506 88.771 11.0197 88.9214 10.2872C89.0717 9.55465 90.2552 9.84602 90.0966 10.6102C89.9242 11.4485 89.5904 12.1673 89.2304 12.9356C88.9173 13.6035 88.6359 14.1849 88.0372 14.6521C86.8151 15.6073 85.0895 15.4644 83.764 14.7703C82.7805 14.255 82.0632 13.2366 81.4701 12.335C80.9115 11.4856 80.419 10.5854 79.9997 9.66048C79.6797 8.95406 80.7294 8.3356 81.0522 9.04752V9.04614Z" fill="#3E3A39"/>
<path d="M85.5103 8.48359C85.5682 8.80106 85.7793 9.17489 86.0262 9.37554C86.2731 9.5762 86.5669 9.85107 86.8552 9.97202C87.0055 10.0352 87.331 9.65454 87.4814 9.59956C87.611 9.55284 88.5642 9.9514 88.6235 9.82358C89.0208 8.96736 88.1835 7.23017 87.818 6.32034C87.4979 5.52322 85.8855 0.745946 85.0744 0.605762C84.8082 0.560408 84.6165 2.50238 84.6758 3.17306C84.702 3.47405 85.1558 5.54521 85.0275 5.8297C84.7103 5.49298 84.2178 5.09442 83.8123 5.27583C83.3475 5.48336 83.0371 6.02486 83.193 6.62683C82.9088 6.21589 81.8922 5.97813 81.557 6.32447C81.2232 6.67081 81.0398 7.21093 81.0081 7.70982C80.7184 7.88299 80.2025 7.95446 80.1446 8.3008C80.0866 8.64713 80.1542 9.58582 80.3749 9.86069C81.0757 10.7348 82.055 11.0042 82.6316 10.4599C82.9419 10.1658 82.0343 8.9866 81.6536 8.25544C81.6081 8.16748 82.9833 10.3513 83.4206 9.99675C84.1406 9.41403 83.193 6.62545 83.193 6.62545C83.193 6.62545 84.1144 9.85657 85.0068 9.44151C86.7627 8.62514 85.0206 6.21727 85.0275 5.82832" fill="#F9E0CF"/>
<path d="M86.0979 8.32175C86.1668 8.57738 86.2717 8.76017 86.4579 8.94571C86.5282 9.0158 86.971 9.29342 86.9903 9.35802C86.96 9.25631 86.5779 9.4927 86.9627 9.22058C87.08 9.13812 87.1765 9.05153 87.32 9.01305C87.5434 8.95533 87.7696 9.0213 87.9848 9.07902C88.0924 9.10788 88.1986 9.14499 88.3062 9.17385C88.3683 9.19172 88.4304 9.20959 88.4924 9.2247C88.6952 9.25494 88.6359 9.27968 88.3172 9.29754L88.0372 9.66037C88.3159 8.93059 87.84 7.96442 87.5683 7.29236C87.371 6.80308 87.1682 6.31931 86.9862 5.82454C86.5365 4.60136 86.0937 3.36581 85.5103 2.19761C85.404 1.98458 84.8537 1.25617 84.8578 1.16134C85.3337 0.834245 85.5475 0.782019 85.4951 1.00467C85.473 1.07613 85.4537 1.1476 85.4371 1.22181C85.4427 1.34825 85.3806 1.50493 85.3627 1.63C85.3116 1.98321 85.2854 2.34329 85.2771 2.69925C85.2661 3.19127 85.3682 3.60358 85.4716 4.1973C85.5654 4.73605 85.7737 5.44522 85.6151 5.98946C85.4882 6.42513 84.9226 6.58593 84.5957 6.25746C84.2688 5.92899 83.6426 5.6926 83.7805 6.46362C83.8771 7.00237 83.1985 7.55761 82.7612 7.05459C82.5502 6.81133 82.1474 6.67114 81.9115 6.86081C81.528 7.16866 81.7667 7.80087 81.4384 8.13759C81.328 8.25028 81.1722 8.29976 81.0329 8.36298C80.9818 8.38635 80.648 8.59662 80.7404 8.40833C80.6397 8.61311 80.7501 9.23707 80.8356 9.42124C80.9818 9.73734 81.4356 10.0851 81.7915 10.1263C81.9363 10.1428 82.1874 10.004 82.0826 10.2843C82.1129 10.2046 81.9446 9.95724 81.9156 9.90226C81.6591 9.41574 80.9363 8.67633 81.066 8.09361C81.1887 7.54249 81.8991 7.55211 82.1805 7.94792C82.3819 8.23242 82.5708 8.52378 82.7874 8.79728C82.935 8.98282 83.2122 9.18072 83.3253 9.38275L83.3571 9.41024C83.5571 9.5092 83.4412 9.56005 83.0067 9.5628C82.9971 9.55043 83.0771 9.41711 83.0688 9.37726C83.0178 9.13537 83.0784 8.84126 83.0453 8.58838C83.0109 8.31763 82.9502 8.04825 82.8867 7.78163C82.8067 7.44766 82.7157 7.11506 82.6053 6.78934L83.7805 6.46637C83.8909 6.84981 84.0219 7.23051 84.1723 7.60159C84.284 7.87921 84.4095 8.15545 84.5599 8.41521C84.6026 8.48942 84.9213 8.89486 84.8275 8.87974C84.7337 8.86462 84.9902 8.76017 85.0578 8.67084C85.1571 8.53752 85.1765 8.39184 85.1833 8.23242C85.1971 7.91769 85.0827 7.59471 84.9764 7.30335C84.7999 6.81683 84.4716 6.35229 84.4192 5.83141C84.3406 5.0549 85.5613 5.05902 85.6385 5.83141C85.6247 5.68985 85.7061 5.94686 85.7379 6.01008C85.8316 6.20249 85.9172 6.4004 85.9999 6.5983C86.1834 7.03672 86.342 7.48339 86.3861 7.96029C86.4703 8.85775 85.9613 9.9751 84.9461 10.0782C83.5488 10.2184 82.8964 7.79262 82.6081 6.79071C82.3901 6.03344 83.5364 5.73108 83.7833 6.46774C84.1281 7.49576 84.7944 9.45697 83.9143 10.3709C82.884 11.4415 81.608 9.24257 81.1294 8.56501L82.2439 8.41933C82.2232 8.26403 82.2026 8.10872 82.1819 7.95205C82.5501 8.62961 83.3571 9.49957 83.3047 10.3242C83.2467 11.2546 82.0343 11.4759 81.3087 11.256C80.3846 10.9756 79.7045 10.2156 79.5694 9.27555C79.5128 8.87562 79.4535 8.39459 79.6094 8.0084C79.8052 7.52325 80.2756 7.40368 80.7018 7.18653L80.3997 7.71153C80.4811 6.94464 80.7611 5.86852 81.6149 5.61426C82.2867 5.41498 83.1709 5.67474 83.6261 6.19837L82.6067 6.78934C82.4715 6.03619 82.666 5.26105 83.3571 4.83363C84.1323 4.35398 84.8978 4.83775 85.4592 5.40124L84.4399 5.66924C84.4095 5.77506 84.4371 5.52905 84.4316 5.45209C84.415 5.2638 84.3875 5.07689 84.3585 4.88998C84.2964 4.49966 84.2206 4.11072 84.1516 3.72177C84.0261 3.01673 84.055 2.33092 84.1447 1.62175C84.215 1.06239 84.2937 0.00275775 85.0758 9.03082e-06C85.6372 -0.00273969 86.0234 0.622593 86.2703 1.0404C87.0689 2.39277 87.5834 3.9348 88.1241 5.40261C88.3614 6.04581 88.6331 6.67252 88.8773 7.31297C89.1711 8.08124 89.618 9.25906 89.1821 10.0589C88.96 10.4657 88.5876 10.4932 88.1697 10.3998C88.0028 10.3627 87.6841 10.3159 87.5462 10.2211C87.3158 10.0617 87.6234 10.5592 87.7186 10.1661C87.7007 10.239 87.4758 10.364 87.4193 10.3998C86.3958 11.0567 85.1613 9.53119 84.924 8.64747C84.7213 7.89158 85.8965 7.5686 86.0992 8.3245L86.0979 8.32175Z" fill="#3E3A39"/>
<path d="M89.3091 11.1706C89.3629 11.0304 89.5739 10.4051 89.5408 10.1522C89.5243 10.0203 89.2746 9.81548 89.1642 9.74676C88.218 9.15303 87.3269 8.81082 86.291 8.68713C85.9462 8.6459 85.5917 8.63627 85.2689 8.76546C85.1751 8.80257 85.0855 8.85617 85.0193 8.93451C84.7682 9.2245 84.9517 9.58596 85.1696 9.83334C85.4482 10.1508 86.3448 10.7033 86.7311 10.8449" fill="#F9E0CF"/>
<path d="M88.7215 11.0101C88.7767 10.8562 88.8291 10.7009 88.8705 10.5428C88.8871 10.4796 88.9009 10.2102 88.9464 10.3092C88.9919 10.4081 88.7864 10.2254 88.7574 10.2102C88.1836 9.89139 87.6291 9.60002 86.9877 9.43373C86.6953 9.35814 86.3877 9.29079 86.0842 9.27568C85.8152 9.26193 85.5076 9.20008 85.6828 9.4887C85.8745 9.80343 86.5532 10.1209 86.8939 10.2597C87.6098 10.5525 87.2967 11.7275 86.5697 11.4307C85.7987 11.1146 84.7973 10.5896 84.4248 9.80068C83.8759 8.63935 85.0897 8.00302 86.0842 8.06074C87.236 8.12809 88.4043 8.54177 89.3712 9.1616C90.2637 9.73334 90.2333 10.4054 89.8968 11.3331C89.6319 12.0629 88.4539 11.7481 88.7215 11.0101Z" fill="#3E3A39"/>
<path d="M127.997 46.83C125.739 46.1099 118.527 43.6044 116.006 42.5874C110.759 40.4695 111.919 36.0372 112.928 35.2854C113.175 35.1013 114.291 34.0416 114.59 33.8451C117.344 33.1634 119.975 34.9528 122.389 36.3025C126.09 38.3709 130.664 40.4984 133.175 43.7652C133.313 43.9453 133.413 44.7163 133.388 44.9678C133.373 45.1148 132.861 46.1635 132.767 46.2363C132.207 46.6706 128.706 47.0554 127.997 46.83Z" fill="#3E3A39"/>
<path d="M127.795 47.5654C124.305 46.4481 120.843 45.2194 117.409 43.9399C115.664 43.2898 113.837 42.6383 112.605 41.1678C111.587 39.9528 111.122 38.4067 111.375 36.8385C111.579 35.5741 112.227 34.9048 113.137 34.0843C113.437 33.815 113.732 33.5167 114.066 33.2886C114.55 32.9574 115.267 32.9326 115.844 32.9326C117.179 32.934 118.458 33.3765 119.652 33.9373C120.847 34.498 122.038 35.2388 123.227 35.893C124.327 36.4991 125.436 37.0846 126.531 37.6989C128.701 38.9166 130.88 40.2456 132.648 42.0144C133.486 42.8514 134.257 43.7021 134.153 44.9665C134.102 45.5932 133.615 46.6446 133.046 46.9593C132.266 47.3881 131.224 47.4513 130.36 47.5503C129.546 47.6438 128.601 47.7798 127.796 47.5627C126.847 47.3057 127.25 45.8351 128.203 46.0921C128.617 46.2034 129.359 46.1196 129.886 46.0729C130.617 46.0083 131.359 45.9134 132.066 45.7087C132.138 45.688 132.312 45.6592 132.275 45.6413C132.393 45.6963 132.319 45.1727 132.178 45.7526C132.191 45.7032 132.243 45.6619 132.258 45.6124C132.334 45.3733 132.606 44.9995 132.635 44.8373C132.766 44.0828 131.808 43.3104 131.273 42.8046C129.701 41.319 127.829 40.181 125.953 39.1214C124.077 38.0617 122.023 36.9279 120.051 35.8504C119.015 35.2841 117.936 34.7578 116.765 34.5392C116.252 34.443 115.532 34.3482 115.024 34.5255C114.812 34.5997 114.507 34.9034 114.282 35.1055C114.03 35.3322 113.776 35.5563 113.524 35.7803C113.474 35.8243 113.419 35.8627 113.371 35.9095C113.234 36.0387 113.321 35.9535 113.271 36.0263C113.049 36.3589 112.937 36.697 112.868 37.1409C112.688 38.2967 113.099 39.4704 113.893 40.3184C114.993 41.4935 116.556 41.9993 118.026 42.5449C121.392 43.7928 124.783 44.9981 128.203 46.0921C129.137 46.3917 128.737 47.8636 127.796 47.5627L127.795 47.5654Z" fill="#3E3A39"/>
<path d="M133.573 45.622C133.588 45.5107 133.597 45.398 133.604 45.2853C133.69 43.7295 132.817 42.6011 131.23 42.307C130.401 42.1531 129.497 42.3964 128.612 42.7303C127.01 43.335 127.434 43.2553 125.961 44.1995C123.524 45.7594 119.11 48.7225 116.573 49.9416C116.244 50.0996 115.768 49.8179 115.416 49.9265C115.155 50.0076 114.693 50.0529 114.434 50.1436C113.955 50.3113 114.201 50.6301 114.171 51.0589C114.14 51.4864 114.888 52.6999 115.146 52.9693C116.08 54.1416 116.918 55.4596 118.078 56.4505C118.467 56.7831 118.86 57.1185 119.412 57.2765C119.964 57.4346 120.605 57.3975 121.211 57.0388C121.712 56.7419 125.825 53.5836 127.048 52.8222C128.596 51.8602 130.121 50.9009 131.371 49.587C132.531 48.3679 133.386 47.0486 133.574 45.622H133.573Z" fill="#3E3A39"/>
<path d="M132.942 45.6221C133.024 44.8978 132.966 44.1474 132.443 43.5894C131.825 42.9283 130.839 42.7964 129.99 42.9668C128.463 43.2747 127.356 44.0498 126.087 44.8662C123.267 46.6817 120.489 48.6127 117.515 50.1712C117.226 50.3224 116.914 50.523 116.593 50.5918C116.228 50.6701 115.871 50.5189 115.511 50.5533C115.342 50.5698 115.175 50.6426 115.004 50.6564C114.962 50.6591 114.623 50.7608 114.757 50.6412C114.823 50.5821 114.757 50.5904 114.783 50.7209C114.846 51.0315 114.834 51.2391 114.98 51.5373C115.295 52.1819 115.746 52.7124 116.175 53.28C116.808 54.117 117.423 54.9732 118.186 55.7016C118.949 56.43 119.842 57.1021 120.891 56.4974C121.182 56.3297 121.449 56.1084 121.72 55.9105C122.786 55.1285 123.841 54.3328 124.909 53.5535C127.866 51.3971 132.345 49.4881 132.963 45.4558C133.086 44.6586 134.302 44.9967 134.181 45.7898C133.534 50.0132 129.142 52.0472 126.037 54.2833C124.785 55.1849 123.556 56.1181 122.31 57.0293C121.87 57.3522 121.447 57.6848 120.918 57.8566C119.913 58.1823 118.892 57.8869 118.078 57.2615C117.18 56.5716 116.457 55.7181 115.772 54.8248C115.217 54.1005 114.595 53.3927 114.129 52.6066C113.735 51.9414 113.444 51.2281 113.507 50.4392C113.58 49.5308 114.681 49.3878 115.406 49.2944C115.84 49.238 116.187 49.4208 116.594 49.2298C117.001 49.0387 117.401 48.8051 117.795 48.5824C118.664 48.0918 119.517 47.5723 120.362 47.0459C122.051 45.9945 123.712 44.8978 125.385 43.8217C127.029 42.7634 128.814 41.5072 130.888 41.6378C133.053 41.7739 134.442 43.5028 134.206 45.6207C134.117 46.4165 132.853 46.4261 132.944 45.6207L132.942 45.6221Z" fill="#3E3A39"/>
<path d="M78.1653 102.795C78.3778 102.093 78.8481 101.577 79.6275 101.404C80.2427 101.267 80.7875 101.555 81.3351 101.808C83.4428 102.78 85.3711 103.905 87.1864 105.316C87.2871 105.394 87.4195 105.394 87.5146 105.318C88.8968 104.215 90.4085 103.323 91.9851 102.515C92.2183 102.395 92.4362 102.31 92.6638 102.351C92.8914 102.394 92.9576 102.5 93.0348 102.68C93.7618 104.371 94.1507 105.957 93.9342 107.783C93.9328 107.8 93.9273 107.816 93.9204 107.832C93.3631 109.099 92.8335 110.343 92.1589 111.569C91.9134 112.016 91.3948 112.171 90.8899 111.998C90.8858 111.998 90.8817 111.996 90.8775 111.995C87.0374 110.241 83.3448 107.96 79.8013 105.689C78.9874 105.167 78.4274 104.516 78.1598 103.6C78.084 103.342 78.0798 103.071 78.164 102.795H78.1653Z" fill="#3E3A39"/>
<path d="M77.4576 102.6C77.9224 101.233 79.2328 100.318 80.7032 100.752C82.2495 101.21 83.7944 102.174 85.1572 103.015C85.8813 103.463 86.5862 103.944 87.2662 104.458L87.3641 104.532C87.6097 104.673 87.5531 104.711 87.1945 104.643C87.1917 104.639 87.5959 104.335 87.6442 104.3C88.0469 103.999 88.4607 103.713 88.8828 103.441C89.6222 102.962 90.3877 102.525 91.167 102.114C91.8084 101.776 92.5933 101.349 93.2788 101.831C93.8126 102.207 93.9892 103.041 94.1865 103.626C94.4568 104.429 94.6334 105.258 94.7037 106.101C94.7699 106.893 94.7741 107.703 94.4541 108.436C94.0775 109.302 93.6982 110.168 93.2788 111.013C92.963 111.648 92.6857 112.347 91.9974 112.646C91.3091 112.946 90.6843 112.708 90.0429 112.408C88.3518 111.615 86.7062 110.73 85.0896 109.797C83.2854 108.755 81.5184 107.65 79.7625 106.529C78.4287 105.677 77.0714 104.331 77.4617 102.6C77.6686 101.68 79.0852 102.069 78.8783 102.989C78.6025 104.213 80.2301 105.091 81.0494 105.612C82.2219 106.357 83.3999 107.092 84.5916 107.804C85.862 108.563 87.149 109.297 88.4594 109.985C89.0732 110.308 89.6925 110.62 90.316 110.921C90.5601 111.04 90.8277 111.222 91.0898 111.291C91.4222 111.379 91.4884 111.244 91.6539 110.968C92.0043 110.381 92.2774 109.733 92.5602 109.111C92.8664 108.438 93.2347 107.796 93.2595 107.048C93.3023 105.729 92.9809 104.432 92.4733 103.219L92.4264 103.105C92.3533 102.89 92.3285 102.868 92.3519 103.038L92.3588 103.148C92.2457 103.206 92.134 103.263 92.0222 103.322C91.7615 103.459 91.5022 103.599 91.2443 103.74C90.5849 104.106 89.938 104.495 89.3118 104.913C88.8001 105.255 88.2828 105.8 87.7131 106.024C87.0759 106.275 86.611 105.78 86.1338 105.432C84.9213 104.55 83.6344 103.772 82.2991 103.087C81.2963 102.572 79.4439 101.33 78.8783 102.991C78.5762 103.879 77.1569 103.497 77.4617 102.602L77.4576 102.6Z" fill="#3E3A39"/>
<path d="M110.622 59.7735C105.707 76.6369 95.1796 88.0661 86.2689 101.408C93.025 105.87 99.3315 108.54 99.9991 108.28C100.492 108.089 115.167 85.1098 120.251 76.127C122.102 72.8547 122.505 68.8745 122.643 65.0593C122.723 62.8246 122.33 60.315 121.102 58.6988C119.36 56.4022 117.314 55.6972 114.642 56.1906C112.754 56.5397 111.68 57.9168 110.888 59.4368" fill="#EAAB71"/>
<path d="M110.904 59.8509C109.969 63.0517 108.795 66.1798 107.414 69.2171C106.107 72.095 104.614 74.8863 102.996 77.6007C101.378 80.315 99.6941 82.8659 97.9257 85.4208C96.1574 87.9757 94.3477 90.4716 92.5379 92.9811C90.7227 95.4976 88.9144 98.0195 87.1736 100.588C86.9557 100.91 86.7391 101.231 86.5239 101.554L86.4191 101.156C88.2537 102.367 90.1365 103.503 92.0634 104.561C93.5849 105.397 95.1325 106.187 96.7188 106.894C97.6347 107.302 98.5851 107.735 99.5685 107.96C99.6334 107.975 99.6982 107.985 99.763 107.999C99.821 108.011 99.6954 107.995 99.7837 108.001C99.8085 108.003 99.832 108.006 99.8568 108.007C99.8761 108.007 99.8954 108.004 99.9148 108.007C99.9837 108.012 99.8389 108.025 99.8996 108.008C99.9644 107.992 99.803 108.037 99.8113 108.065C99.8113 108.062 99.8748 108 99.8803 107.995C99.8968 107.977 99.912 107.958 99.9272 107.938C99.9354 107.927 99.9437 107.916 99.952 107.907C99.9961 107.853 99.9437 107.918 99.9437 107.918C100.207 107.559 100.464 107.197 100.715 106.831C101.138 106.211 101.555 105.584 101.97 104.957C102.523 104.12 103.072 103.281 103.618 102.438C104.268 101.438 104.914 100.434 105.558 99.431C106.281 98.304 107.001 97.1757 107.718 96.046C108.481 94.8448 109.241 93.6422 109.998 92.4369C110.755 91.2316 111.54 89.9782 112.306 88.7454C113.071 87.5126 113.806 86.3265 114.551 85.1129C115.252 83.9708 115.951 82.8274 116.644 81.6812C117.264 80.6531 117.881 79.6237 118.492 78.5902C119.002 77.7244 119.51 76.8558 120.004 75.9803C120.996 74.2198 121.558 72.2599 121.891 70.2767C122.059 69.2735 122.167 68.2606 122.24 67.2463C122.313 66.232 122.38 65.2301 122.362 64.2241C122.329 62.4168 122.012 60.4459 120.929 58.9452C119.987 57.6409 118.652 56.6266 117.03 56.3888C116.237 56.272 115.402 56.3284 114.619 56.4919C113.798 56.6637 113.071 57.0719 112.481 57.6629C111.925 58.2195 111.507 58.8902 111.146 59.5829C110.972 59.9154 110.467 59.6213 110.641 59.2887C111.432 57.7756 112.575 56.3902 114.308 55.9655C115.921 55.5711 117.707 55.681 119.16 56.5194C120.711 57.4155 121.856 58.9506 122.4 60.6384C123.019 62.557 122.987 64.569 122.87 66.5563C122.747 68.633 122.51 70.7206 121.95 72.7286C121.676 73.7154 121.318 74.6816 120.864 75.5996C120.593 76.1507 120.278 76.6812 119.971 77.2131C119.419 78.1697 118.857 79.1207 118.292 80.069C117.631 81.1768 116.965 82.279 116.295 83.3799C115.565 84.5783 114.831 85.7726 114.095 86.9669C113.325 88.2121 112.552 89.4545 111.777 90.6956C111.002 91.9366 110.213 93.1928 109.425 94.438C108.638 95.6831 107.918 96.8211 107.159 98.0099C106.46 99.1067 105.758 100.203 105.051 101.296C104.443 102.239 103.834 103.179 103.22 104.118C102.73 104.865 102.239 105.611 101.741 106.354C101.407 106.85 101.073 107.347 100.726 107.834C100.613 107.992 100.498 108.15 100.378 108.302C100.315 108.382 100.25 108.473 100.159 108.527C99.9534 108.647 99.6541 108.575 99.4389 108.527C99.0375 108.437 98.6457 108.298 98.2609 108.155C96.9147 107.655 95.6084 107.042 94.3242 106.403C92.5035 105.496 90.7227 104.509 88.9806 103.461C88.0164 102.879 87.0633 102.279 86.1239 101.659C85.9984 101.576 85.9267 101.398 86.0191 101.26C87.7447 98.6765 89.5461 96.1435 91.3613 93.6216C93.1766 91.0996 94.9808 88.6217 96.7505 86.0928C98.5244 83.5572 100.25 80.9871 101.865 78.347C103.508 75.6601 105.035 72.9018 106.385 70.0582C107.791 67.0951 109.001 64.0413 109.977 60.9119C110.103 60.5078 110.225 60.1024 110.344 59.6955C110.449 59.3355 111.013 59.4894 110.908 59.8509H110.904Z" fill="#EAAB71"/>
<path d="M150.529 67.8634C151.436 66.6141 152.343 65.3428 153.247 64.0977C153.379 63.9162 153.502 63.7568 153.718 63.6854C154.043 63.5795 154.36 63.64 154.616 63.7967C158.789 66.3571 161.534 68.5712 165.133 71.2814C165.933 71.8834 166.131 72.851 165.975 73.8336C165.82 74.8163 164.926 75.4526 163.795 75.4196C163.152 75.4004 162.737 74.9771 162.304 74.6184C160.582 73.189 158.696 71.9109 157.234 70.2727C155.092 71.6704 152.826 72.9018 150.413 73.8089C150.071 73.9367 149.844 73.9917 149.586 73.9188C149.328 73.846 149.333 73.7168 149.347 73.5106C149.488 71.5687 150.169 69.837 151.038 68.0215" fill="#3E3A39"/>
<path d="M149.895 67.4938C150.728 66.3448 151.554 65.1904 152.386 64.04C152.681 63.6318 152.944 63.2058 153.434 63.0175C154.07 62.7715 154.658 62.9749 155.212 63.3061C157.407 64.6145 159.492 66.1236 161.536 67.6505C162.542 68.4022 163.539 69.165 164.539 69.9237C165.457 70.6191 166.404 71.2156 166.668 72.414C166.884 73.4035 166.748 74.558 166.017 75.3098C165.326 76.0189 164.156 76.3405 163.199 76.0602C162.644 75.898 162.214 75.4981 161.781 75.138C161.226 74.6762 160.656 74.235 160.09 73.7897C158.902 72.8579 157.728 71.911 156.711 70.7923L157.603 70.9063C156.354 71.7158 155.071 72.4745 153.74 73.1424C153.074 73.4764 152.395 73.787 151.707 74.0756C151.077 74.3408 150.377 74.727 149.675 74.6707C148.164 74.5484 148.645 72.7713 148.864 71.7804C149.182 70.3415 149.772 68.9795 150.402 67.6532C150.806 66.8011 152.074 67.5446 151.671 68.3926C151.179 69.4303 150.724 70.4858 150.423 71.5962C150.295 72.0677 150.19 72.5473 150.128 73.0311C150.108 73.1905 150.093 73.3513 150.081 73.5121C149.879 73.2524 149.925 73.1163 150.216 73.1039C150.38 72.9692 150.72 72.9101 150.913 72.8318C153.001 71.9824 154.975 70.8665 156.862 69.6419C157.123 69.4729 157.543 69.5251 157.753 69.756C159.123 71.2637 160.778 72.4497 162.357 73.7224C163.014 74.2515 163.6 74.9469 164.521 74.5786C165.276 74.2762 165.406 73.4241 165.226 72.7067C165.003 71.8134 163.926 71.2843 163.237 70.762C162.454 70.1669 161.672 69.5704 160.884 68.9808C159.349 67.8319 157.791 66.7145 156.187 65.6631C155.656 65.3154 155.121 64.9732 154.582 64.6392C154.332 64.4839 154.128 64.308 153.88 64.4675C153.68 64.5953 153.493 65.0007 153.353 65.1959C152.623 66.2074 151.896 67.2217 151.164 68.2318C150.615 68.9891 149.339 68.2579 149.895 67.4924V67.4938Z" fill="#3E3A39"/>
<path d="M153.099 69.9622C152.362 69.2256 149.401 66.1786 148.664 65.4433C144.341 70.3086 138.515 76.1207 133.169 79.9414C130.308 73.1755 127.71 63.7625 123.131 57.3979C122.827 56.9773 112.82 61.0564 112.237 63.144C111.95 64.1734 112.977 65.4172 113.335 66.2996C114.653 69.5595 116.684 72.8003 117.918 76.0932C118.891 78.2867 119.892 80.0349 120.836 81.9164C123.288 86.8009 126.298 90.9267 130.17 94.8464C130.464 95.1446 130.813 95.4882 131.286 95.5734C131.854 95.6751 132.367 95.5377 132.882 95.2326C143.133 89.151 156.714 74.2612 156.692 73.7225C156.674 73.3143 155.658 72.5185 153.099 69.9636V69.9622Z" fill="#EAAB71"/>
<path d="M152.903 70.1586C151.666 68.9231 150.456 67.6614 149.232 66.4135C148.979 66.1551 148.725 65.8954 148.468 65.6397H148.863C147.042 67.6875 145.161 69.6803 143.216 71.6113C141.271 73.5423 139.096 75.5681 136.901 77.396C135.737 78.3649 134.544 79.3008 133.312 80.1818C133.149 80.2986 132.966 80.1639 132.902 80.0155C132.046 77.9883 131.284 75.9213 130.52 73.8584C129.695 71.6319 128.872 69.4041 127.968 67.2065C127.065 65.0089 126.101 62.88 124.957 60.8212C124.408 59.8331 123.819 58.8669 123.175 57.9378C123.102 57.832 123.025 57.7275 122.952 57.6203C122.896 57.5379 122.978 57.6286 123.027 57.6437C122.969 57.6258 123.048 57.6492 123.055 57.6437C123.047 57.6492 123.008 57.6423 122.996 57.6437C122.971 57.6465 122.946 57.6492 122.921 57.6506C122.88 57.6506 123.004 57.6355 122.942 57.6478C122.927 57.6506 122.91 57.6533 122.895 57.6561C122.821 57.6698 122.746 57.6863 122.673 57.7042C121.587 57.9736 120.517 58.4298 119.503 58.8628C118.091 59.4661 116.699 60.1272 115.364 60.8872C114.777 61.2212 114.198 61.5757 113.656 61.9784C113.47 62.1159 113.26 62.2849 113.06 62.4732C112.976 62.5529 112.893 62.6354 112.816 62.722C112.783 62.7591 112.751 62.7976 112.719 62.836C112.678 62.8855 112.739 62.8072 112.711 62.847C112.693 62.8718 112.675 62.8951 112.659 62.9199C112.611 62.99 112.571 63.0642 112.532 63.1398C112.503 63.1975 112.55 63.082 112.532 63.1425C112.526 63.159 112.521 63.1741 112.515 63.1892C112.486 63.2827 112.471 63.3775 112.468 63.4751C112.453 63.9836 112.696 64.4729 112.928 64.9113C113.173 65.3758 113.442 65.8225 113.641 66.3104C113.891 66.922 114.164 67.5253 114.448 68.1232C115.624 70.6039 116.994 72.9953 118.008 75.5502C118.5 76.7913 119.111 77.9828 119.727 79.1675C120.307 80.2849 120.878 81.4064 121.46 82.5223C122.618 84.7378 123.936 86.8667 125.418 88.8829C126.895 90.8936 128.532 92.7833 130.283 94.5617C130.472 94.7541 130.661 94.9589 130.888 95.1087C131.134 95.2682 131.397 95.3327 131.69 95.3272C132.246 95.3162 132.706 95.0166 133.164 94.7376C133.946 94.2594 134.712 93.755 135.465 93.2313C137.078 92.1112 138.632 90.9114 140.149 89.6663C141.741 88.3606 143.293 87.0069 144.814 85.6215C146.256 84.309 147.668 82.9663 149.059 81.5988C150.271 80.4058 151.464 79.195 152.637 77.9622C153.502 77.0524 154.355 76.133 155.184 75.1901C155.459 74.8782 155.729 74.5634 155.993 74.2418C156.041 74.1814 156.091 74.1209 156.139 74.0604C156.151 74.0453 156.213 73.9656 156.182 74.0068C156.153 74.0453 156.211 73.9683 156.224 73.9505C156.282 73.8735 156.34 73.7965 156.391 73.7155C156.407 73.6907 156.419 73.6605 156.437 73.6371C156.469 73.5945 156.412 73.71 156.422 73.6729C156.436 73.6247 156.418 73.7168 156.418 73.7237C156.42 73.666 156.445 73.7883 156.422 73.7443C156.415 73.7306 156.386 73.6412 156.409 73.6976C156.431 73.7498 156.393 73.6701 156.383 73.6522C156.364 73.6193 156.343 73.589 156.322 73.5588C156.311 73.5423 156.299 73.5272 156.287 73.5107C156.287 73.5093 156.321 73.5533 156.287 73.5107C156.253 73.4708 156.22 73.431 156.186 73.3925C156.107 73.3032 156.024 73.2166 155.942 73.13C155.713 72.8936 155.475 72.6654 155.24 72.4359C154.459 71.68 153.677 70.9255 152.907 70.1586C152.653 69.9057 153.048 69.5127 153.302 69.7655C154.097 70.5599 154.907 71.3392 155.714 72.1212C156.096 72.4923 156.525 72.862 156.824 73.3087C156.969 73.5244 157.024 73.7471 156.888 73.9752C156.761 74.1896 156.594 74.3834 156.438 74.5772C155.823 75.3386 155.164 76.0642 154.503 76.7858C153.47 77.9141 152.412 79.0191 151.34 80.1103C150.019 81.4558 148.672 82.778 147.303 84.074C145.802 85.4951 144.274 86.8873 142.71 88.2397C141.145 89.592 139.529 90.9183 137.871 92.1717C136.351 93.3207 134.788 94.4188 133.152 95.3973C132.621 95.7162 132.04 95.9416 131.408 95.8674C130.777 95.7931 130.344 95.4125 129.915 94.9768C129.007 94.0546 128.13 93.1049 127.29 92.1222C125.645 90.2009 124.142 88.1586 122.811 86.0091C121.456 83.8239 120.32 81.5149 119.14 79.2349C118.831 78.637 118.528 78.0378 118.238 77.4304C117.928 76.783 117.653 76.1288 117.383 75.465C116.859 74.1814 116.242 72.9362 115.616 71.6993C114.99 70.4624 114.342 69.2117 113.755 67.9418C113.492 67.37 113.273 66.7736 112.998 66.2073C112.759 65.7139 112.459 65.2535 112.235 64.7533C111.926 64.0633 111.74 63.2525 112.215 62.5969C112.529 62.1612 112.953 61.819 113.382 61.5015C114.561 60.6274 115.888 59.943 117.207 59.3039C118.528 58.6649 119.878 58.0766 121.259 57.5764C121.696 57.4183 122.138 57.2616 122.592 57.1558C122.731 57.1228 122.878 57.0898 123.023 57.0898C123.29 57.0898 123.386 57.2644 123.53 57.4678C124.876 59.3754 125.986 61.4411 126.978 63.5493C128.017 65.7593 128.926 68.027 129.793 70.3084C130.632 72.5129 131.428 74.7325 132.272 76.9342C132.648 77.9182 133.036 78.8982 133.446 79.8685L133.036 79.7022C135.262 78.1093 137.359 76.3405 139.381 74.5002C141.469 72.5995 143.478 70.6108 145.424 68.5657C146.46 67.4772 147.477 66.3709 148.475 65.248C148.575 65.1353 148.768 65.1463 148.87 65.248C150.107 66.4836 151.317 67.7452 152.54 68.9932C152.794 69.2515 153.048 69.5113 153.304 69.7669C153.561 70.0226 153.164 70.4129 152.91 70.16L152.903 70.1586Z" fill="#EAAB71"/>
<path d="M126.051 57.0074C124.298 52.3483 122.699 48.283 120.83 43.6816C120.656 42.4282 120.677 35.6581 119.946 35.3296C116.641 33.8453 117.351 33.1554 112.612 33.5663C110.928 33.712 104.779 36.8359 101.707 33.7175C100.312 34.4253 97.5577 39.729 98.2377 40.4904C101.544 44.1874 104.339 48.0232 106.576 52.3428C107.613 54.4758 108.139 56.6377 108.507 59.0428C108.547 59.3026 108.605 60.108 108.537 60.3622C108.35 61.07 108.038 61.5084 108.673 62.0815C109.195 62.5543 111.213 62.5007 111.78 62.4842C114.005 62.421 116.179 62.3056 118.185 62.1296C121.312 61.8561 123.833 61.2308 126.643 59.9994C126.961 59.8606 127.09 59.6283 127.258 59.2284C127.426 58.8298 126.119 57.1819 126.052 57.006L126.051 57.0074Z" fill="#3E3A39"/>
<path d="M125.366 57.1954C123.826 53.1067 122.236 49.0386 120.598 44.9883C120.353 44.3822 120.12 43.8449 120.076 43.1962C120.044 42.7302 120.026 42.2616 120.007 41.7943C119.956 40.545 119.91 39.2957 119.812 38.0506C119.772 37.5475 119.731 37.0418 119.644 36.5429C119.612 36.3615 119.576 36.1801 119.525 36.0028C119.513 35.9602 119.481 35.8021 119.481 35.8557C119.481 35.7897 119.411 35.8708 119.499 35.8708C119.489 35.8708 119.75 35.9354 119.499 35.9024C119.387 35.8873 119.265 35.7939 119.161 35.7458C119.009 35.6729 118.858 35.5987 118.707 35.5217C118.434 35.3829 118.165 35.2372 117.899 35.0874C117.514 34.8717 117.132 34.6298 116.724 34.4594C115.707 34.0347 114.522 34.1405 113.452 34.2106C112.382 34.2807 111.375 34.6105 110.255 34.9459C107.333 35.8172 103.638 36.5951 101.205 34.2188L102.067 34.3302C101.207 34.8029 100.605 36.0041 100.141 36.8288C99.6046 37.7798 99.017 38.9027 98.8515 39.9499C98.8198 40.1533 98.8956 40.1973 98.8239 40.0956C99.1218 40.5162 99.5412 40.8955 99.8777 41.2899C100.583 42.1159 101.267 42.9598 101.932 43.8174C103.202 45.4597 104.391 47.1626 105.472 48.9341C106.554 50.7057 107.595 52.5872 108.242 54.6061C108.572 55.6355 108.816 56.6896 109.01 57.752C109.155 58.545 109.333 59.3806 109.274 60.1915C109.231 60.777 108.675 61.4531 109.456 61.6538C110.106 61.8215 110.827 61.794 111.492 61.7816C113.604 61.7445 115.718 61.6263 117.823 61.4518C120.163 61.2566 122.452 60.8278 124.663 60.032C125.167 59.8506 125.926 59.6843 126.345 59.3559C126.488 59.2432 126.538 58.9491 126.57 59.2033C126.556 59.0934 126.481 58.9862 126.432 58.8913C126.15 58.354 125.708 57.9032 125.44 57.3644C125.034 56.5494 126.261 55.8306 126.669 56.6484C127.235 57.7863 128.542 58.736 127.624 60.0678C127.069 60.8718 125.698 61.17 124.822 61.4765C123.734 61.8572 122.619 62.1596 121.487 62.3822C119.078 62.855 116.607 62.9883 114.16 63.1024C113.139 63.1505 112.115 63.2041 111.095 63.2013C110.329 63.1999 109.486 63.1903 108.759 62.9223C107.964 62.6282 107.475 61.849 107.621 61.0078C107.684 60.6505 107.844 60.3262 107.859 59.9633C107.879 59.4713 107.786 58.9724 107.703 58.4914C107.295 56.1138 106.61 53.8598 105.45 51.735C104.297 49.624 102.99 47.5982 101.559 45.6618C100.827 44.6695 100.06 43.7033 99.2681 42.7577C98.8998 42.3179 98.526 41.8836 98.1466 41.4521C97.8956 41.1676 97.5797 40.8955 97.4735 40.5175C97.1314 39.2861 98.108 37.6218 98.6529 36.5869C99.2819 35.3912 100.112 33.7832 101.35 33.1029C101.63 32.9489 101.981 32.9902 102.212 33.2142C104.321 35.2716 107.779 34.2161 110.235 33.4684C111.364 33.1249 112.38 32.8582 113.565 32.784C114.75 32.7098 115.986 32.6576 117.098 33.0877C118.098 33.4739 118.993 34.102 119.963 34.5583C120.932 35.0146 120.979 35.8035 121.103 36.7394C121.262 37.942 121.318 39.1583 121.372 40.3691C121.416 41.3655 121.338 42.4513 121.519 43.4353C121.592 43.8352 121.816 44.2256 121.972 44.6117C122.203 45.1807 122.432 45.7497 122.659 46.3187C123.121 47.4704 123.579 48.6235 124.033 49.778C124.953 52.1185 125.854 54.4659 126.739 56.8188C127.061 57.6737 125.687 58.0434 125.367 57.1954H125.366Z" fill="#3E3A39"/>
<path d="M117.629 49.9522C117.092 49.7529 116.554 49.5536 116.018 49.3543C115.518 49.1688 115 48.9805 114.469 49.0272C113.938 49.074 113.387 49.4217 113.267 49.9632C113.218 50.1845 113.241 50.425 113.138 50.6256C113.052 50.7919 112.895 50.9019 112.742 51.0008C111.995 51.4873 111.176 51.912 110.644 52.6432C110.111 53.3743 109.997 54.5439 110.67 55.1184C110.808 55.2352 110.973 55.3259 111.066 55.484C111.311 55.9004 110.911 56.4969 111.143 56.9216C111.366 57.3325 112.037 57.3105 112.206 57.7475C112.328 58.0609 112.117 58.4663 112.302 58.744C112.446 58.9611 112.746 58.9721 112.975 59.0875C113.256 59.2305 113.426 59.537 113.682 59.7239C114.161 60.0716 114.818 59.9355 115.378 59.7486C116.887 59.2456 118.314 58.4718 119.578 57.4699C119.796 57.2968 120.016 57.1085 120.132 56.8501C120.219 56.6563 120.238 56.4378 120.245 56.2248C120.285 55.0332 119.968 53.8691 119.654 52.727C119.345 51.6028 118.866 50.3013 117.772 50.0291" fill="#F9E0CF"/>
<path d="M117.448 50.6053C116.95 50.4198 116.451 50.2342 115.953 50.0501C115.484 49.8769 114.891 49.5897 114.386 49.7299C113.829 49.8838 113.968 50.3703 113.795 50.8046C113.642 51.1908 113.332 51.4244 112.994 51.6457C112.212 52.157 111.137 52.6586 110.924 53.6619C110.71 54.6652 111.755 54.837 111.824 55.7358C111.838 55.9227 111.806 56.1 111.784 56.2842C111.747 56.581 111.744 56.5453 111.971 56.7047C112.268 56.915 112.568 56.9988 112.762 57.3397C112.867 57.5238 112.918 57.7327 112.931 57.9444C112.935 58.0145 112.942 58.4199 112.867 58.3251C112.932 58.4062 113.224 58.4474 113.324 58.5024C113.548 58.6261 113.707 58.8089 113.889 58.9807C114.594 59.6445 115.967 58.8419 116.698 58.4845C117.578 58.0557 118.677 57.5197 119.34 56.7844C119.749 56.3323 119.571 55.4472 119.477 54.8864C119.371 54.2584 119.205 53.6413 119.036 53.0283C118.809 52.2078 118.528 50.9668 117.597 50.6823C116.762 50.4267 117.118 49.1183 117.958 49.3753C119.052 49.7092 119.64 50.6246 120.027 51.643C120.51 52.9156 120.866 54.3546 120.927 55.7152C120.956 56.3529 120.921 56.9906 120.513 57.5115C120.105 58.0324 119.481 58.4117 118.949 58.7635C117.825 59.5057 116.502 60.208 115.179 60.5144C114.631 60.6423 114.023 60.678 113.51 60.4072C113.284 60.2877 113.108 60.1145 112.928 59.9386C112.688 59.7063 112.486 59.6623 112.198 59.5098C111.969 59.3888 111.805 59.2294 111.686 59.004C111.525 58.6962 111.642 58.4488 111.565 58.1519C111.477 57.8152 110.781 57.6517 110.561 57.2613C110.428 57.0263 110.388 56.7446 110.399 56.4807C110.408 56.313 110.541 55.9749 110.477 55.8224C110.404 55.652 110.088 55.4994 109.964 55.3359C109.787 55.105 109.664 54.8452 109.595 54.5621C109.311 53.4063 109.913 52.2504 110.783 51.5193C111.055 51.2898 111.348 51.0863 111.646 50.8926C111.944 50.6988 112.42 50.5187 112.559 50.1848C112.685 49.8852 112.642 49.5828 112.823 49.2859C112.973 49.0399 113.204 48.82 113.449 48.6688C114.808 47.8374 116.506 48.809 117.813 49.2942C118.627 49.5965 118.276 50.9063 117.452 50.6012L117.448 50.6053Z" fill="#3E3A39"/>
<path d="M118.967 43.5232C120.389 44.1788 121.821 44.7464 123.279 45.314C123.564 45.4253 123.707 45.8692 123.372 46.0328C122.056 46.6815 120.767 47.3549 119.405 47.9088C118.935 48.0998 118.731 47.3384 119.196 47.1501C120.494 46.6224 121.72 45.9723 122.974 45.3539L123.067 46.0727C121.546 45.4803 120.051 44.8852 118.567 44.2021C118.106 43.9905 118.506 43.3116 118.965 43.5218L118.967 43.5232Z" fill="#595757"/>
<path d="M98.0155 31.3214C98.5176 31.7255 99.028 32.0045 99.6625 32.2381C101.185 32.8002 102.869 32.7535 104.479 32.9665C104.836 33.9011 105.311 34.8205 105.661 35.7441C105.718 35.8925 105.726 35.9461 105.772 36.0808C105.609 36.5234 105.511 36.9219 105.714 37.392C105.915 37.862 106.305 38.2358 106.838 38.3609C107.37 38.486 107.919 38.398 108.438 38.1864C109.777 37.6366 110.795 36.7818 111.551 35.5572C111.77 35.2026 111.922 34.9841 111.955 34.4453C111.969 34.2131 111.311 32.0746 110.812 29.9883C111.906 29.8756 112.965 29.5732 113.473 28.5411C113.689 28.0999 113.62 27.6725 113.571 27.2203C113.521 26.7682 113.402 26.3394 113.092 25.9903C112.782 25.6412 112.344 25.479 111.868 25.512C111.393 25.545 111.02 25.8144 110.743 26.1855C111.18 25.5519 111.147 24.7259 111.038 24.0085C110.844 22.7289 110.627 21.5745 109.924 20.486C109.522 19.8648 109.077 19.37 108.432 18.9371C105.714 17.1106 102.842 16.7697 99.6942 17.6562C98.7507 17.9214 98.5617 18.4561 97.8776 19.1171C97.1217 21.0275 96.0499 22.8911 95.832 24.9417C95.672 26.4466 95.7699 27.968 96.4127 29.3327C96.81 30.1766 97.3148 30.7566 98.0169 31.3214H98.0155Z" fill="#F9E0CF"/>
<path d="M98.4169 30.9203C100.145 32.2617 102.417 32.1421 104.479 32.3991C104.756 32.4335 104.926 32.5558 105.028 32.8156C105.327 33.5756 105.682 34.3109 105.998 35.064C106.112 35.3361 106.278 35.6344 106.322 35.9299C106.37 36.2487 106.185 36.5195 106.188 36.8369C106.195 37.8402 107.319 37.9667 108.064 37.722C108.722 37.5062 109.369 37.1077 109.888 36.6569C110.372 36.2363 110.775 35.7443 111.106 35.1973C111.386 34.7342 111.423 34.5734 111.312 34.1253C110.983 32.7908 110.587 31.4742 110.263 30.1369C110.169 29.7466 110.441 29.4608 110.812 29.4195C111.711 29.3178 112.983 28.988 113.052 27.883C113.085 27.3525 112.982 26.5457 112.508 26.2255C111.994 25.8764 111.485 26.1692 111.144 26.5856C110.732 27.0886 109.921 26.4399 110.25 25.8984C110.77 25.0422 110.479 23.9125 110.285 22.9944C110.078 22.0186 109.73 21.0882 109.094 20.3062C107.881 18.8095 105.663 17.9739 103.784 17.7952C102.82 17.7031 101.843 17.765 100.894 17.9519C100.42 18.0453 99.8555 18.1264 99.4307 18.3711C99.1038 18.5593 98.8734 18.8768 98.6238 19.1517C98.0403 19.7976 97.763 20.8023 97.4196 21.5994C97.0002 22.5697 96.6154 23.5744 96.4416 24.6216C96.0554 26.9553 96.534 29.3659 98.4141 30.9203C98.9782 31.3862 98.1699 32.1847 97.6099 31.7216C95.7133 30.1534 95.054 27.8115 95.2181 25.4174C95.3036 24.1654 95.6319 22.9862 96.1009 21.8262C96.3147 21.2984 96.5451 20.7789 96.7754 20.2594C97.0278 19.6877 97.1947 19.028 97.621 18.5676C98.3603 17.7677 98.9189 17.2551 100.01 16.9871C101.166 16.704 102.374 16.5638 103.565 16.6449C105.766 16.796 108.328 17.6976 109.81 19.3977C110.661 20.3735 111.15 21.5513 111.404 22.8089C111.657 24.0664 111.911 25.3542 111.231 26.4729L110.337 25.7857C110.94 25.0518 111.87 24.7316 112.777 25.0999C113.685 25.4682 114.028 26.3327 114.136 27.2219C114.397 29.3783 112.726 30.339 110.809 30.5575L111.358 29.8401C111.604 30.853 111.875 31.8576 112.15 32.8623C112.284 33.3543 112.501 33.8958 112.521 34.4112C112.573 35.8254 111.078 37.2575 110.013 37.9873C108.721 38.8737 106.654 39.6131 105.494 38.1275C105.257 37.8237 105.101 37.4774 105.052 37.0953C105.005 36.7325 105.172 36.415 105.17 36.0714C105.167 35.6467 104.749 35.031 104.58 34.6476C104.355 34.1418 104.132 33.6347 103.929 33.1193L104.478 33.5357C102.053 33.2334 99.6321 33.2925 97.6113 31.7243C97.0347 31.2763 97.8444 30.4792 98.4155 30.9231L98.4169 30.9203Z" fill="#3E3A39"/>
<path d="M100.63 15.7638C102.881 14.3303 105.406 14.1929 108.126 15.0642C109.76 15.5865 110.764 16.2613 112.006 17.4927C113.321 18.7942 113.971 20.8159 114.162 22.6232C114.172 22.718 114.18 22.8142 114.186 22.9091C114.247 23.8725 113.866 25.0723 113.39 25.9574C110.914 24.7425 103.983 21.8247 103.786 21.6543C103.786 21.6543 103.308 19.0513 103.241 19.0554C103.173 19.0595 101.416 21.029 101.416 21.029C101.416 21.029 98.7715 20.6318 97.1522 20.1604C97.1522 20.1604 97.6667 18.4919 98.3977 17.5766C98.795 17.079 100.096 16.106 100.63 15.7652V15.7638Z" fill="#FF7B18"/>
<path d="M100.343 15.2751C103.726 13.1847 108.329 13.7069 111.393 16.1725C112.918 17.3998 113.923 18.9391 114.415 20.833C114.907 22.7268 114.798 24.4723 113.881 26.2424C113.734 26.5283 113.367 26.575 113.103 26.4458C110.565 25.2062 107.947 24.1259 105.361 22.9921C104.9 22.79 104.439 22.5894 103.983 22.3805C103.748 22.2733 103.435 22.1743 103.295 21.9407C103.099 21.6122 103.1 21.0666 103.03 20.7051C102.975 20.4234 102.919 20.1403 102.86 19.8585C102.835 19.7376 102.795 19.6139 102.78 19.4916C102.755 19.2978 102.612 19.2208 102.839 19.4559L103.529 19.5452C103.712 19.4407 103.526 19.5589 103.477 19.6139C103.386 19.7142 103.289 19.8118 103.197 19.9108C102.955 20.1705 102.717 20.4344 102.478 20.6969C102.208 20.9965 101.863 21.571 101.417 21.5957C100.946 21.6218 100.369 21.4308 99.911 21.3483C98.933 21.1724 97.9578 20.9773 97.0019 20.7065C96.7136 20.6254 96.5122 20.3038 96.6047 20.0097C96.8916 19.0916 97.2778 18.1365 97.853 17.3613C98.482 16.5134 99.4655 15.8468 100.344 15.2751C100.959 14.8751 101.53 15.8564 100.918 16.2536C100.154 16.7511 99.2668 17.3311 98.7289 18.0801C98.2557 18.7398 97.9426 19.5397 97.7012 20.3093L97.304 19.6125C98.6971 20.007 100.137 20.264 101.568 20.4811L101.014 20.6268C101.323 20.2805 101.635 19.9341 101.948 19.5905C102.245 19.2648 102.565 18.7865 102.955 18.5653C103.172 18.4416 103.468 18.4732 103.645 18.6546C103.958 18.9776 103.98 19.6551 104.061 20.0688C104.157 20.5471 104.248 21.0254 104.335 21.5036L104.073 21.1642C104.423 21.4198 104.914 21.5627 105.308 21.7373C106.211 22.1359 107.115 22.5289 108.02 22.9234C109.914 23.7507 111.82 24.5602 113.677 25.4673L112.899 25.6707C114.467 22.6444 113.145 19.0119 110.589 16.9751C107.906 14.8366 103.848 14.4436 100.918 16.255C100.293 16.6412 99.722 15.6599 100.344 15.2764L100.343 15.2751Z" fill="#FF7B18"/>
<path d="M131.771 17.6796C132.017 16.8275 132.173 15.9314 132.221 15.0202C130.108 17.5147 126.663 18.9482 124.037 17.5147C122.586 16.7231 121.263 14.4018 119.742 13.8823C117.506 13.1181 114.926 13.8067 113.444 16.1266C112.862 17.0378 112.862 17.413 112.431 18.6472C112.351 18.9014 112.27 19.1557 112.188 19.4086C114.227 18.7722 115.644 18.1936 117.231 18.7695C118.808 19.3426 119.92 22.0116 121.383 22.9723C123.571 24.4071 126.298 24.348 128.434 22.7909C129.963 21.6776 131.156 19.8168 131.773 17.6783L131.771 17.6796Z" fill="#FF7B18"/>
<path d="M131.414 17.5824C131.647 16.7413 131.795 15.8933 131.85 15.022L132.483 15.2831C130.479 17.5962 126.934 19.457 123.934 17.8793C122.534 17.144 121.706 15.6913 120.482 14.7348C119.168 13.7067 117.166 13.7438 115.726 14.4956C113.722 15.5415 113.18 17.5206 112.544 19.5093L112.088 19.0544C113.856 18.4977 116.053 17.5852 117.824 18.6503C119.311 19.545 119.973 21.3166 121.265 22.4215C122.958 23.8715 125.572 23.9814 127.491 22.9493C129.524 21.8553 130.771 19.7278 131.413 17.5838C131.549 17.1289 132.265 17.3227 132.128 17.7803C131.512 19.8419 130.393 21.8278 128.619 23.1128C126.845 24.3979 124.652 24.7236 122.649 24.013C121.727 23.686 120.907 23.1843 120.251 22.4586C119.594 21.733 119.109 20.9688 118.498 20.2556C117.782 19.4213 117.004 18.9032 115.863 18.9046C114.64 18.9046 113.434 19.4048 112.284 19.7677C112.019 19.8515 111.743 19.5766 111.827 19.3127C112.348 17.68 112.757 16.0583 114.028 14.82C115.155 13.7232 116.718 13.1281 118.295 13.2257C119.978 13.3302 121.056 14.1534 122.176 15.3367C122.749 15.9428 123.307 16.6135 124.014 17.0712C124.758 17.5536 125.663 17.746 126.545 17.7116C128.676 17.6292 130.604 16.3221 131.957 14.7595C132.164 14.5217 132.611 14.7086 132.59 15.0206C132.531 15.9566 132.379 16.8733 132.128 17.7776C132.002 18.2352 131.284 18.0415 131.413 17.5811L131.414 17.5824Z" fill="#FF7B18"/>
<path d="M110.342 25.8022C110.943 25.0683 111.875 24.7481 112.783 25.115C113.691 25.482 114.034 26.3478 114.142 27.237C114.402 29.3934 112.732 30.3541 110.815 30.5726L111.364 29.8552C111.535 30.4366 111.711 31.0138 111.856 31.6034C112.03 32.3126 110.933 32.6149 110.758 31.9044C110.613 31.3148 110.437 30.7375 110.266 30.1562C110.151 29.7686 110.46 29.4786 110.815 29.4388C111.714 29.3357 112.986 29.0072 113.055 27.9022C113.088 27.3717 112.984 26.565 112.511 26.2448C111.997 25.8957 111.488 26.1884 111.147 26.6048C110.684 27.1697 109.882 26.3643 110.343 25.8036L110.342 25.8022Z" fill="#3E3A39"/>
<path d="M126.073 66.2938C124.79 69.5689 122.917 72.5403 121.025 75.4924C120.74 75.9349 120.03 75.5254 120.316 75.0787C122.167 72.1912 124.026 69.2803 125.281 66.0753C125.472 65.5901 126.266 65.8018 126.073 66.2924V66.2938Z" fill="#C18156"/>
<path d="M101.039 22.3377C101.548 22.3886 101.875 22.7748 101.827 23.2902C101.792 23.6544 101.663 24.1546 101.332 24.3608C100.932 24.6082 100.465 24.3415 100.282 23.9581C100.08 23.5375 100.198 23.1156 100.406 22.7239C100.551 22.4504 100.955 22.3446 101.216 22.5123C101.494 22.6909 101.584 23.0277 101.428 23.319C101.431 23.3149 101.348 23.473 101.376 23.4194L101.356 23.4826C101.356 23.4468 101.356 23.4468 101.356 23.4826C101.356 23.5169 101.356 23.5169 101.352 23.4826C101.352 23.4565 101.343 23.4317 101.325 23.4111C101.311 23.3905 101.203 23.3273 101.275 23.3589L100.976 23.2778H101.005C100.905 23.3053 100.806 23.3328 100.705 23.3589L100.731 23.341L100.519 23.5527C100.549 23.5087 100.576 23.462 100.596 23.4125C100.567 23.4798 100.609 23.3685 100.614 23.3465C100.629 23.297 100.643 23.2448 100.651 23.1926L100.647 23.2283C100.638 23.0029 100.767 23.0978 101.038 23.5142C100.73 23.4826 100.431 23.2654 100.446 22.9246C100.46 22.6318 100.708 22.3006 101.038 22.335L101.039 22.3377Z" fill="#3E3A39"/>
<path d="M105.655 23.5526C106.164 23.6034 106.49 23.9896 106.442 24.505C106.408 24.8692 106.278 25.3695 105.947 25.5756C105.547 25.823 105.081 25.5564 104.897 25.1729C104.696 24.7524 104.813 24.3305 105.021 23.9388C105.166 23.6653 105.57 23.5594 105.831 23.7271C106.11 23.9058 106.199 24.2425 106.044 24.5339C106.045 24.5297 105.964 24.6878 105.991 24.6342L105.972 24.6974C105.972 24.6617 105.972 24.6617 105.972 24.6974C105.972 24.7318 105.972 24.7318 105.968 24.6974C105.968 24.6713 105.958 24.6466 105.94 24.626C105.926 24.6053 105.819 24.5421 105.89 24.5737L105.591 24.4926H105.62C105.521 24.5201 105.421 24.5476 105.321 24.5737L105.347 24.5559L105.135 24.7675C105.165 24.7235 105.191 24.6768 105.212 24.6273C105.183 24.6947 105.224 24.5833 105.23 24.5614C105.245 24.5119 105.259 24.4597 105.267 24.4074L105.263 24.4432C105.253 24.2178 105.383 24.3126 105.653 24.729C105.346 24.6974 105.046 24.4803 105.061 24.1394C105.075 23.8467 105.324 23.5155 105.653 23.5498L105.655 23.5526Z" fill="#3E3A39"/>
<path d="M101.286 28.2741C101.794 29.331 103.259 29.3942 104.113 28.762C104.6 28.4019 104.125 27.5773 103.631 27.9415C103.179 28.2769 102.406 28.4143 102.11 27.7945C101.845 27.2434 101.023 27.7244 101.286 28.2741Z" fill="#3E3A39"/>
</svg>
