<svg xmlns="http://www.w3.org/2000/svg" width="208" height="213" fill="none" viewBox="0 0 208 213"><path fill="#f9e0cf" fill-rule="evenodd" d="M75.615 79.23c-.745.617-5.62-3.792-6.525-2.867-.808.824-4.121 3.769-4.242 5.012-.068.69-.344 5.552.106 6.492.774 1.624 5.045 6.242 6.25 6.564 1.707.463 7.347 2.507 7.971 3.466 2.244 3.475 1.103 4.357 3.637 7.783.43.579 7.894 6.141 10.284 7.211 2.06.925 3.197 3.484 2.66 5.961-.522 2.42-.938 4.839-1.625 7.259a5.1 5.1 0 0 1-1.035 1.947c-1.147 1.32-2.457 2.641-3.749 3.961-1.964 2.005 34.865 3.408 33.042 1.417-1.147-1.253-2.327-2.641-3.299-4.79-1.945-4.295-3.691-8.218-3.899-14.623-.116-3.537 8.533-6.916 9.021-7.909 1.64-3.32 2.216-6.092 3.739-9.37.581-1.247 1.8-.809 2.985-1.146 2.438-.694 3.453-2.477 5.335-3.933 2.423-1.87 2.564-3.769 2.946-7.369.15-1.441-1.461-9.042-3.488-9.042-1.722 0-4.295.56-5.843.964-.029.005-1.615 1.808-1.644 1.813-2.516.655-13.621-19.746-25.085-21.944-.3-.058-26.473 22.242-27.547 23.13z" clip-rule="evenodd"/><path fill="#3e3a39" d="M123.661 135.075c-.774-.314-2.293-3.128-2.951-4.232a89 89 0 0 1-2.916-5.325c-2.467-4.897-4.48-11.119 1.204-14.536 3.013-1.812 5.712-4.054 7.555-7.095 2.815-4.641 3.425-10.275 3.468-15.586.015-2.034-3.153-2.034-3.173 0-.043 5.528-.701 11.682-4.517 16.025-3.241 3.682-8.649 4.892-9.989 10.092-1.224 4.757 1.205 9.846 3.372 13.967 1.117 2.126 2.287 4.246 3.632 6.242.919 1.359 1.891 2.858 3.468 3.489 1.892.757 2.714-2.294.842-3.046zM77.086 79.857c-1.882-2.313-4.895-5.22-8.141-4.328-3.333.916-5.268 3.711-5.611 7.046-.793 7.673 4.977 16.276 13.515 14.541 1.997-.405 1.15-3.45-.842-3.046-6.013 1.224-9.62-5.118-9.577-10.227.019-2.126.846-4.901 3.357-5.268 1.944-.284 3.927 2.13 5.054 3.514 1.287 1.58 3.517-.665 2.245-2.237z"/><path fill="#3e3a39" d="M129.809 79.833c1.103-1.87 4.082-3.875 6.177-2.265 1.717 1.32 1.751 4.593 1.562 6.51-.397 4.016-3.565 10.874-8.494 10.016-1.997-.347-2.854 2.694-.841 3.046 3.719.65 6.181-.55 8.527-3.436 2.685-3.307 4.349-7.798 3.957-12.059-.281-3.06-1.277-6.545-4.6-7.538-3.492-1.04-7.285 1.18-9.026 4.135-1.035 1.755 1.703 3.35 2.738 1.596zM74.725 90.031c1.156 8.04 4.126 16.001 11.266 20.56 1.45.931 3.023 1.663 4.629 2.275 1.214.463 2.776.675 3.245 2.092.397 1.205-.203 2.978-.498 4.183-.6 2.463-1.292 5.003-2.646 7.172-1.63 2.602-3.928 4.762-6.157 6.844-1.495 1.393.754 3.624 2.244 2.236 4.373-4.077 7.57-8.073 9.205-13.871.629-2.231 1.572-5.075.91-7.403-.664-2.328-2.395-3.2-4.427-3.928-3.879-1.388-7.347-3.556-9.79-6.925-2.975-4.102-4.213-9.143-4.924-14.078-.29-2.005-3.342-1.152-3.057.838z"/><path fill="#fff" d="M106.49 101.946c-.223.414-.469.718-.914 1.099a3.55 3.55 0 0 1-1.592.771c-1.098.231-2.592-.391-3.303-1.268-.712-.877-1.04-2.294-1.2-3.422 2.375-.072 5.035-.082 7.41-.043.078 0 .165.01.213.067.034.044.039.101.039.154a4.8 4.8 0 0 1-.416 2.155c-.082.178-.155.337-.232.482z"/><path fill="#3e3a39" d="M105.44 101.333c-.783 1.263-2.186 1.726-3.424.791-.992-.752-1.181-2.164-1.36-3.316l-1.175 1.537c1.233-.034 2.472-.058 3.705-.063 1.079-.004 2.578-.284 3.594.044l-.851-.848c.145.559-.257 1.378-.489 1.86-.682 1.402 1.422 2.631 2.104 1.224.615-1.263 1.717-4.096-.329-4.646-1.025-.275-2.423-.067-3.492-.063-1.417 0-2.83.025-4.242.063-.861.024-1.296.752-1.175 1.538.358 2.308 1.219 4.443 3.56 5.315s4.464-.25 5.678-2.207c.827-1.33-1.282-2.554-2.104-1.224zm3.134-12.743c1.834-.434 3.57.183 5.219.964 1.408.67 2.646-1.422 1.229-2.096-2.264-1.075-4.585-1.808-7.096-1.21-1.523.361-.88 2.704.648 2.342M98.31 86.417c-2.549-.42-4.808.414-6.999 1.667-1.359.776-.135 2.877 1.229 2.097 1.552-.887 3.274-1.73 5.122-1.422 1.533.255 2.196-2.087.648-2.342M68.19 205.296c.77.579 1.655.988 2.588 1.196 11.42 2.496 23.339 3.778 34.914 4.053 4.982.12 9.243.019 14.08-.121.232-.004.469-.024.702-.053 11.599-1.499 22.719-4.617 33.878-7.991 3.042-.92 5.059-3.846 4.861-7.055-.295-4.757-.663-9.828-.609-13.9.193-14.483-.571-28.392-7.348-41.381-.837-1.605-3.806-4.969-5.403-6.048-3.961-2.685-6.704-4.42-11.304-5.827-2.239-.685-4.716-1.2-7.657-1.653-1.03-.159-4.387-.651-5.915-1.066-1.776-.482-2.293-2.067-1.959-3.778.261-1.335 1.417-2.916.048-3.88-1.722-1.21-3.434-.149-5.475-.096-2.284.058-5.573.385-7.798.376-4.43-.02-7.865-.208-12.407-.275-.416-.005-2.81-.376-3.487.386-.672.761-.314 2.318-.068 3.041.348 1.031.053 2.043-.232 2.689-.58 1.301-.639 1.137-1.828 1.321-3.11.482-6.772.645-9.8 1.123-3.347.53-7.338 1.31-10.042 2.694-4.677 2.39-7.154 5.87-10.448 9.436-2.176 2.362-5.117 6.174-5.852 8.791-2.627 9.341-1.084 17.876-1.626 27.033-.237 4.01-1.078 7.374-1.8 11.211q0 .02-.009.048c-.513 2.675.484 5.412 2.675 6.993 5.81 4.183 11.57 8.444 17.317 12.738z"/><path fill="#3e3a39" d="M67.29 206.833c2.467 1.654 5.592 1.938 8.46 2.463a183 183 0 0 0 10.584 1.61 195 195 0 0 0 21.2 1.451c6.516.091 12.901-.049 19.329-1.181 6.767-1.191 13.432-2.873 20.035-4.747 5.04-1.432 11.841-2.232 13.694-7.991.865-2.699.232-5.769.072-8.531-.198-3.407-.28-6.805-.256-10.222.087-12.43-.774-25.062-5.751-36.619-2.056-4.772-4.876-8.623-9.254-11.519-4.682-3.099-9.577-5.176-15.11-6.246-2.206-.429-4.436-.704-6.646-1.109-1.326-.241-2.859-.231-2.927-1.899-.048-1.205.895-2.279.769-3.557-.213-2.159-2.36-3.315-4.368-3.306-1.388.005-2.781.41-4.169.501-1.466.097-2.936.179-4.402.261-5.606.308-11.207-.386-16.803-.275-1.79.034-3.377.622-3.87 2.487-.261.983-.02 1.889.12 2.858.107.723.378 1.643-.178 2.284.343-.39.222-.101-.513-.029-5.935.555-12.3.95-17.945 3.008-5.36 1.957-8.91 6.029-12.615 10.14-2.003 2.217-3.966 4.507-5.461 7.104s-2.123 5.789-2.525 8.849c-.992 7.514.048 15.076-.585 22.604-.47 5.566-4.054 12.805.377 17.62 2.438 2.646 6.1 4.622 8.992 6.743q4.896 3.6 9.761 7.244c1.838 1.373 3.613-1.711 1.8-3.066-5.239-3.918-10.521-7.783-15.803-11.644-2.452-1.793-3.763-3.441-3.28-6.564.446-2.868 1.176-5.673 1.529-8.555 1.364-11.162-2.55-24.594 4.697-34.252 2.965-3.952 6.67-8.473 10.859-11.158 4.576-2.93 10.453-3.499 15.744-4.014 3.817-.372 8.494.057 8.9-4.863.073-.892-.638-2.203-.435-2.998.087-.338.324-.246.972-.227.29.01.576.053.866.063 2.82.116 5.65.154 8.474.226 4.939.121 9.728-.366 14.623-.684 2.152-.14 1.369.641 1.059 2.101-.189.887-.227 1.88.005 2.767.517 1.971 2.06 2.901 3.923 3.374 4.517 1.137 9.18 1.32 13.64 2.8s9.069 4.019 12.257 7.451c3.768 4.053 5.616 9.61 7.023 14.863 1.485 5.543 2.196 11.24 2.496 16.956s.029 11.89.305 17.827c.126 2.68.493 5.408.479 8.092-.02 3.557-2.187 4.936-5.316 5.875-6.724 2.015-13.49 3.928-20.359 5.408a145 145 0 0 1-9.93 1.802c-3.531.506-7.203.4-10.768.415a195 195 0 0 1-21.036-1.046q-5.311-.547-10.588-1.427c-3.27-.544-7.555-.713-10.351-2.588-1.91-1.277-3.696 1.798-1.8 3.066z"/><path fill="#595757" d="M138.69 162.046c.58 13.682.662 27.375 1.073 41.062.083 2.747 4.378 2.757 4.296 0-.412-13.687-.494-27.38-1.074-41.062-.116-2.743-4.412-2.757-4.295 0"/><path fill="#f9e0cf" d="M46.438 107.435c-1.833-1.046-4.227-1.277-6.365-1.769-.068 1.412.126 2.362.237 3.774.198 2.564-1.263 3.619-1.345 5.595-.044 1.094 1.093 2.805 1.78 3.625 1.63 1.947 1.253 1.633 3.222 3.243 1.968 1.61 3.835 3.682 5.548 5.745 1.552-2.665 1.944-5.74 3.202-8.54-.78-2.632-1.437-5.302-2.172-7.938-1.446-1.35-2.273-2.694-4.107-3.74z"/><path fill="#3e3a39" d="M49.205 108.505c-2.685-2.227-10.105-9.437-12.755-3.302-2.26 5.229 5.906 7.466 8.13 10.69l2.937-2.256c-2.21-2.019-5.447-4.949-8.736-4.289-4.435.892-3.434 5.837-.687 8.005 2.027 1.6 5.892 4.516 8.683 3.977 4.029-.781 2.723-5.398.982-7.596-1.49-1.88-4.121.771-2.646 2.636 1.746 2.203.222 1.046-1.093.328-1.243-.675-2.603-1.417-3.676-2.338-2.066-1.768.154-1.257 1.315-.616s2.23 1.619 3.222 2.52c1.49 1.359 4.193-.434 2.936-2.255-1.596-2.314-4.078-3.504-6.201-5.225-.286-.231-1.882-1.484-1.645-1.913.402-.738 2.041.578 2.409.834 1.48 1.026 2.81 2.284 4.194 3.431 1.838 1.523 4.493-1.099 2.645-2.636z"/><path fill="#f9e0cf" d="M47.706 109.17a79 79 0 0 0-.973-4.106c-.391-1.437-.653-2.169-1.228-3.866-.445-1.31-.798-3.759-.929-5.455-.111-1.446.102-3.1 1.417-3.9 1.52-.92 2.719 1.35 3.086 2.357 2.641 7.292 4.49 12.305 6.376 20.079"/><path fill="#3e3a39" d="M49.51 108.678c-.648-3.002-1.698-5.86-2.438-8.824-.363-1.451-.755-3.215-.648-4.733l.053-.767c.247-.915.373-1.074.368-.472.31.13.691 1.528.74 1.653 2.384 6.295 4.47 12.709 6.075 19.25.57 2.327 4.18 1.339 3.604-.988a150 150 0 0 0-4.14-13.852c-.775-2.202-1.49-4.458-2.39-6.607-.59-1.413-1.52-2.897-3.062-3.389-4.073-1.301-5.166 4.01-4.861 6.825.483 4.424 2.157 8.555 3.095 12.892.508 2.343 4.112 1.35 3.604-.988"/><path fill="#f9e0cf" d="M62.952 190.491c0-8.232-1.117-14.435-1.345-23.573-.26-10.468-2.002-24.729-.86-35.173 1.799-16.43-1.36-15.052-13.864-22.344-.517-.303-.56-.13-.948-.289-.508-.212-.875.101-.89.511-.062 1.759.624 3.162 1.47 4.632.368.641.867 1.123 1.307 1.648s.88.925 1.291 1.431c.218.265.421.487.561.791.14.303.14.65.223.969.179.708-1.156 4.978-.87 5.653.347.819-7.266-.66-6.284-.588l2.467.487c2.133.26-.092-4.063-2.037-4.82-1.117-.434-2.2-1.292-3.482-1.663-.247-.072-1.369-.192-1.65.14-.28.333-.89 1.181-.914 1.648-.14 2.878.261 4.367 1.751 7.1.9 1.643 2.864 3.812 4.44 5.007.576.434 1.858 2.106 1.877 2.396.89 12.362-2.858 24.228-4.12 36.378-.141 1.368-.857 5.687-.973 7.084"/><path fill="#3e3a39" d="M64.824 190.491c-.024-4.873-.46-9.712-.847-14.565-.391-4.964-.479-9.938-.76-14.907-.546-9.726-1.576-19.543-.604-29.274.523-5.249 1.52-11.827-2.317-16.155-1.538-1.735-3.642-2.916-5.645-4.029-1.359-.752-2.737-1.475-4.101-2.227s-2.627-1.73-4.116-2.02c-5.515-1.069-2.458 6.786-.837 8.854 1.15 1.465 2.64 2.26 2.249 4.227-.17.858-.397 1.701-.547 2.564-.063.366-.14.742-.154 1.113-.005.145.053 1.412.019.762l.546-1.316c.653-.67.842-.222-.072-.415-.61-.125-1.282-.135-1.901-.231-.842-.13-1.76-.217-2.568-.496l1.373 1.797v-.009c-.624.621-1.243 1.243-1.867 1.86-.692-.014.32.082.585.135.402.082.808.178 1.215.241.88.135 1.731.183 2.48-.386 1.718-1.301.862-3.711-.096-5.195-2.114-3.268-9.596-7.331-11.41-1.764s3.216 11.066 6.844 14.584c1.248 1.21 1.151 2.313 1.175 3.981a66 66 0 0 1-.242 6.256c-.348 4.14-1.035 8.241-1.755 12.328-1.263 7.186-2.52 14.449-3.231 21.717-.233 2.386 3.506 2.367 3.739 0 1.35-13.861 5.727-27.664 5.194-41.655-.101-2.68-.977-4.145-3.003-5.904-2.279-1.976-4.421-4.55-5.03-7.586-.15-.738-.286-1.668-.088-2.41.16-.603-.31-.685 1.17.029 1.04.501 2.308.997 3.087 1.86.17.188.817 1.644.924 1.677l1.388-1.103-.672-.135c-.508-.285-1.679-.391-2.26-.4-1.102-.024-1.745.882-1.867 1.86v.01c-.106.838.663 1.552 1.37 1.797 1.513.526 3.327.661 4.914.815 2.065.198 3.458-.063 3.782-2.28.276-1.894 1.185-4.149.794-6.145-.271-1.383-1.161-2.255-2.076-3.277-1.03-1.152-3.211-3.562-2.607-5.321l-.86 1.113c-.47.304-.204.092.396.473s1.263.718 1.891 1.065c1.103.612 2.21 1.205 3.319 1.802 1.543.839 3.158 1.654 4.551 2.728 2.81 2.164 3.13 5.321 3.057 8.666-.13 6.439-.967 12.738-.75 19.206.237 7.022.895 14.03 1.127 21.052.271 8.222 1.335 16.406 1.379 24.633.014 2.395 3.749 2.4 3.739 0z"/><path fill="#3e3a39" d="M39.609 144.034c8.827.217 17.64-.327 26.468-.361.401 0 .836-.029 1.2.222.773.525.899 1.436.942 2.347.325 7.229.745 14.256.934 21.543.126 4.854.397 9.379.17 14.444-.257 5.712-.156 10.29-2.313 16.411s-5.055 9.234-12.155 9.673c-2.55.159-4.799.087-6.738-.699-4.958-2.01-6.791-6.275-7.7-10.993-1.694-8.767-1.539-17.539-1.621-26.228-.087-8.854.561-17.341.556-26.151"/><path fill="#3e3a39" d="M39.608 145.23c6.337.149 12.673-.082 19.01-.241 1.606-.039 3.207-.077 4.813-.096.764-.01 1.523-.02 2.288-.024.43 0 .909-.15 1.122.294s.179 1.065.203 1.556l.116 2.492c.073 1.533.15 3.07.222 4.603.3 6.149.513 12.299.712 18.449.183 5.639.15 11.316-.315 16.946-.227 2.718-.725 5.393-1.552 7.99-.62 1.952-1.365 3.875-2.52 5.582-.886 1.306-2.032 2.356-3.512 3.094-1.64.819-3.744 1.152-5.679 1.258-2.53.135-5.006.019-7.255-1.258-1.795-1.022-3.135-2.55-4.059-4.376-1.006-1.986-1.47-4.198-1.847-6.377-.532-3.041-.842-6.111-1.03-9.191-.378-6.154-.383-12.357-.34-18.526.044-6.169.383-12.372.509-18.556.034-1.537.048-3.079.048-4.617s-2.4-1.542-2.4 0c0 6.507-.357 13.008-.502 19.51a311 311 0 0 0 .14 19.259c.13 3.325.377 6.641.827 9.938.358 2.622.755 5.301 1.679 7.798.783 2.121 1.934 4.13 3.632 5.653 1.974 1.769 4.412 2.805 7.043 3.09s5.316.091 7.797-.55c1.896-.486 3.667-1.373 5.118-2.689 1.45-1.316 2.452-2.94 3.236-4.656 1.141-2.491 1.954-5.147 2.467-7.836.512-2.69.7-5.485.812-8.251.121-3.003.247-6.006.208-9.013-.082-6.381-.348-12.767-.648-19.143-.15-3.225-.32-6.449-.47-9.678-.062-1.393.044-2.983-.875-4.14-1.044-1.316-2.718-1.056-4.218-1.041-6.66.072-13.311.385-19.972.4-1.605 0-3.206-.015-4.812-.048-1.606-.034-1.543 2.352 0 2.39zM29.01 83.54c1.824 1.378 3.609 2.766 5.326 4.274 1.964 1.726 4.861-1.142 2.888-2.877-1.974-1.735-4.054-3.326-6.153-4.911-.88-.665-2.283-.14-2.79.728-.615 1.045-.15 2.115.73 2.78zm8.074-11.08c1.252 3.108 2.636 6.159 3.917 9.253.987 2.385 4.939 1.34 3.938-1.08-1.282-3.094-2.665-6.15-3.918-9.254-.968-2.395-4.92-1.349-3.937 1.08m13.582 2.188a71 71 0 0 1-.92 5.87c-.502 2.555 3.43 3.654 3.938 1.08a85 85 0 0 0 1.064-6.95c.121-1.094-1.025-2.034-2.041-2.034-1.204 0-1.92.935-2.041 2.034"/><path fill="#ff7b18" d="M130.708 66.893c-1.044-5.051-1.436-8.247-3.898-11.693-1.533-2.144-6.491-7.041-9.094-7.47-1.281-.207-2.457-.414-2.854-.593-5.93-2.646-6.394-3.426-15.807-2.785-6.095.414-12.242 3.942-16.731 7.513-5.195 4.136-8.876 14.81-8.489 20.546.648 9.586 3.623 9.442 4.28 11.08 2.264 5.63.842-.877 3.295-3.556 3.323-3.625 7.018-4.825 9.403-13.442 5.219 4.785 13.137 7.615 19.885 8.911 6.114 1.176 12.31 3.716 14.327 8.179q1.422 3.142 4.958-5.514c1.345-3.287 1.882-5.586.725-11.176"/><path fill="#ff7b18" d="M131.797 66.594c-.537-2.598-.943-5.268-1.848-7.77a17.6 17.6 0 0 0-3.415-5.735 33 33 0 0 0-4.958-4.588c-.754-.564-1.548-1.094-2.418-1.47-1.108-.482-2.303-.525-3.468-.81-.45-.11-.644-.217-1.103-.429-.46-.212-.91-.414-1.364-.621a46 46 0 0 0-2.457-1.06c-1.481-.574-3.009-.897-4.596-1.022-2.428-.193-4.909-.039-7.332.154-3.091.246-6.052 1.185-8.852 2.482-2.8 1.296-5.34 2.925-7.75 4.776-1.847 1.422-3.322 3.114-4.565 5.085-2.53 4.01-4.204 8.723-4.823 13.413-.31 2.332-.135 4.626.237 6.945.29 1.807.755 3.662 1.703 5.253.508.858 1.185 1.537 1.882 2.236.11.111.207.236.319.347-.13-.125-.116-.192-.015-.01.039.073.078.15.121.218-.053-.121-.218-.352 0 0q.103.259.213.51c.116.275.232.555.363.825.174.366.358.751.638 1.045.653.7 1.727.593 2.177-.265.314-.593.353-1.33.47-1.98.144-.81.362-1.798.667-2.449.377-.81.904-1.306 1.572-1.947 1.238-1.19 2.592-2.265 3.768-3.518a18.7 18.7 0 0 0 3.492-5.326 32 32 0 0 0 1.446-4.087l-1.891.496c3.87 3.519 8.697 5.842 13.636 7.461 2.404.79 4.851 1.35 7.328 1.86 2.476.511 4.982 1.225 7.274 2.338 1.935.94 3.894 2.178 5.118 3.99.658.974.934 2.261 1.741 3.133 2.317 2.497 4.194-3.397 4.702-4.622.924-2.217 2.027-4.467 2.438-6.853.464-2.675.092-5.369-.45-8.005-.29-1.422-2.477-.82-2.186.597.44 2.14.793 4.381.488 6.564-.242 1.73-1.04 3.586-1.732 5.273-.691 1.687-1.296 3.364-2.162 4.926-.101.183-.217.356-.329.535-.053.082.199-.174-.019.01-.189.158.247-.14.048-.034.049-.03.276-.097.392-.097.01 0 .286.053.397.116-.184-.101.237.202.087.072-.198-.173.029.073.005.024-.141-.352-.387-.689-.552-1.04-.348-.748-.701-1.466-1.199-2.131-1.34-1.793-3.178-3.147-5.161-4.169-2.196-1.132-4.562-1.933-6.961-2.51-2.399-.58-4.634-.96-6.917-1.62-5.18-1.504-10.37-3.764-14.395-7.422-.624-.57-1.654-.347-1.89.496-.654 2.328-1.515 4.593-2.884 6.598-.91 1.335-2.123 2.52-3.366 3.639s-2.709 2.207-3.56 3.653c-.852 1.446-1.002 3.113-1.37 4.733-.023.101-.077.217-.086.323-.015.193.135-.222.038-.092.16-.207.247-.328.561-.414.73-.203.639.091.91.202-.058-.024-.13-.226.048.068-.096-.16-.193-.319-.275-.492-.3-.598-.47-1.292-.847-1.85-.44-.647-1.074-1.124-1.582-1.712-.053-.062-.285-.361-.082-.086a16 16 0 0 1-.217-.3 8 8 0 0 1-.48-.794c-.328-.627-.503-1.104-.735-1.914a22.5 22.5 0 0 1-.86-6.569c.096-4.15 1.518-8.463 3.4-12.17.953-1.874 2.08-3.7 3.545-5.224 1.718-1.783 3.923-3.18 6.042-4.434 2.481-1.465 5.127-2.675 7.937-3.364 2.588-.636 5.316-.708 7.972-.728.924-.004 1.843.02 2.762.111.401.039.401.039.851.12q.552.102 1.098.246c1.543.415 2.568.926 4.01 1.586.899.41 1.789.897 2.757 1.114.619.134 1.243.236 1.867.342a3.8 3.8 0 0 1 .9.227c.217.076-.092-.049.145.062 1.794.829 3.342 2.231 4.755 3.586s2.67 2.699 3.613 4.294c1.156 1.952 1.746 4.12 2.22 6.323.28 1.306.532 2.617.798 3.923.295 1.422 2.477.82 2.186-.597z"/><path fill="#1f1f1f" d="M36.38 12.38h11.715v8.475H46.94V13.46h-9.45v7.47h-1.11zm.72 3.27h10.455v1.05H37.1zm0 3.345h10.455v1.08H37.1zm4.47-8.595h1.17v13.785h-1.17zm14.655.765h3.15v1.065h-3.15zm2.46 0h1.23q.15 1.71.45 3.24.3 1.515.825 2.775.54 1.245 1.335 2.19.81.945 1.935 1.53-.135.075-.3.225t-.33.315q-.15.165-.255.3a7.3 7.3 0 0 1-1.965-1.65q-.81-1.005-1.35-2.28-.54-1.29-.855-2.82-.315-1.545-.48-3.285h-.24zm.06 2.895 1.155.18q-.525 2.55-1.605 4.425a9.5 9.5 0 0 1-2.745 3.075 1.7 1.7 0 0 0-.24-.255 3 3 0 0 0-.33-.315 5 5 0 0 0-.315-.27q1.665-1.05 2.64-2.79.99-1.74 1.44-4.05m-4.665 2.265v5.31h-1.095v-4.26h-2.1v-1.05zm0 4.815q.54.825 1.5 1.23t2.265.45q.615.03 1.485.045a118 118 0 0 0 3.72-.06q.9-.03 1.575-.075-.075.12-.15.33t-.135.42q-.06.225-.09.39-.615.03-1.455.045t-1.74.015q-.9.015-1.755 0-.84 0-1.455-.015-1.47-.06-2.52-.48a4.3 4.3 0 0 1-1.755-1.32q-.54.48-1.11.96-.57.495-1.185 1.005l-.585-1.155q.54-.36 1.155-.825.63-.48 1.215-.96zm-3.03-9.705.825-.675q.495.315 1.005.735.51.405.93.825.435.42.705.78l-.9.75a4.7 4.7 0 0 0-.66-.795q-.42-.435-.93-.855-.495-.435-.975-.765m17.895.57.585.03q.315.015.54.015.3 0 .765-.015.48-.015.99-.045t.96-.045l.675-.045q.225-.03.405-.06.195-.045.345-.105l.75.615-.21.24q-.09.12-.18.255-.24.39-.57 1.11-.33.705-.705 1.545-.36.825-.72 1.59-.225.51-.495 1.11l-.525 1.2q-.27.6-.54 1.125-.255.525-.495.87-.405.57-.855.81-.45.225-1.035.225-.84 0-1.395-.555t-.555-1.5q0-.84.375-1.56.39-.735 1.065-1.275.69-.54 1.635-.84.96-.3 2.1-.3 1.26 0 2.43.3 1.185.285 2.205.75 1.035.45 1.875.96.855.495 1.455.93l-.555 1.29q-.66-.57-1.485-1.125-.825-.57-1.8-1.035t-2.07-.75a8.7 8.7 0 0 0-2.235-.285q-1.23 0-2.115.42-.87.405-1.335 1.05-.45.63-.45 1.32 0 .495.27.765a.92.92 0 0 0 1.095.135q.21-.12.435-.405.24-.315.48-.765t.48-.975.465-1.065.45-1.005q.3-.66.6-1.365.315-.705.615-1.365l.57-1.2q-.225.015-.645.03-.405.015-.885.045-.48.015-.915.045-.42.015-.675.03-.24.015-.54.045-.3.015-.57.045zm9.375 3.285a22 22 0 0 1-.315 2.895 9.6 9.6 0 0 1-.735 2.355q-.495 1.05-1.35 1.89-.855.825-2.16 1.47l-.99-.825q1.32-.555 2.145-1.32a6.1 6.1 0 0 0 1.275-1.665q.465-.9.645-1.815.195-.915.27-1.74.015-.345.015-.705.015-.36-.015-.675zm8.715-1.155q.645.06 1.26.09t1.29.03q1.35 0 2.685-.105t2.475-.33v1.155q-1.2.195-2.535.285-1.32.09-2.655.105-.645 0-1.26-.03-.6-.03-1.26-.075zm5.25-2.685-.06.45-.03.45q-.015.27-.03.69t-.015.9v.915q0 .855.03 1.71t.075 1.665.075 1.53q.045.705.045 1.29 0 .45-.135.885-.12.435-.42.78-.285.345-.795.54-.495.21-1.245.21-1.515 0-2.325-.57-.795-.57-.795-1.575 0-.63.36-1.14.375-.525 1.05-.825.69-.3 1.68-.3.96 0 1.755.225.81.21 1.485.57.69.345 1.26.78.57.42 1.05.84l-.66 1.005q-.78-.75-1.575-1.305-.78-.555-1.62-.87a5 5 0 0 0-1.785-.315q-.855 0-1.395.345-.525.33-.525.87 0 .57.51.885.51.3 1.32.3.645 0 .99-.21.36-.21.495-.57.15-.36.15-.855 0-.405-.03-1.095t-.075-1.5q-.045-.825-.075-1.68t-.03-1.605v-2.505a8 8 0 0 0-.06-.915zm-7.41.09q-.045.12-.105.315-.045.18-.09.375-.03.195-.06.33-.09.42-.195 1.005l-.195 1.245q-.105.66-.195 1.35-.075.675-.12 1.305a16 16 0 0 0-.015 2.175q.045.495.12 1.05.12-.345.27-.735l.3-.78q.165-.39.285-.69l.615.48-.405 1.155-.405 1.215q-.18.57-.255.945-.03.15-.06.345-.015.195 0 .33v.255q.015.15.03.27l-1.05.075q-.225-.81-.405-2.01-.165-1.215-.165-2.73 0-.84.075-1.74.09-.915.195-1.785.12-.87.225-1.59l.195-1.2q.03-.255.06-.54t.03-.525zm17.79-.525q-.03.135-.045.315l-.03.36-.03.36q-.015.345-.045.9l-.03 1.23-.03 1.35q-.015.675-.015 1.26v1.29l.03 1.38q.03.675.03 1.26.015.57.015.915 0 .69-.165 1.095t-.465.57q-.285.18-.69.18-.435 0-.975-.21-.54-.195-1.035-.54a3.3 3.3 0 0 1-.795-.795q-.315-.45-.315-.945 0-.675.51-1.32.525-.645 1.35-1.2.84-.555 1.77-.9 1.02-.405 2.085-.6 1.065-.21 1.95-.21 1.095 0 1.935.375.855.375 1.335 1.05.495.66.495 1.56t-.375 1.59q-.36.69-1.08 1.155-.705.465-1.74.72-.495.105-.99.135-.48.045-.87.075l-.42-1.215q.42.015.87 0 .465-.015.885-.105.66-.12 1.23-.405.585-.3.93-.78.36-.48.36-1.155 0-.645-.345-1.08t-.93-.66a3.6 3.6 0 0 0-1.305-.225q-.99 0-1.935.21t-1.92.6q-.72.27-1.32.675-.6.39-.96.825-.345.435-.345.825 0 .255.165.495.18.225.435.405t.54.285q.285.09.495.09.255 0 .39-.18.15-.18.15-.555 0-.435-.015-1.2l-.03-1.68q-.015-.915-.015-1.74v-1.38q.015-.735.015-1.425.015-.69.015-1.215.015-.525.015-.75 0-.15-.015-.345 0-.21-.015-.405a2 2 0 0 0-.045-.315zm4.65 1.665q.54.285 1.2.69.66.39 1.26.795.615.405.975.705l-.615.96a5.5 5.5 0 0 0-.69-.57q-.42-.315-.9-.615-.48-.315-.945-.585-.465-.285-.825-.48zm-9 1.035q.615.075 1.05.105.45.015.87.015.555 0 1.245-.06t1.425-.15q.735-.105 1.425-.24.705-.15 1.26-.315l.03 1.17q-.585.135-1.305.27-.72.12-1.47.21-.735.09-1.41.15t-1.17.06q-.645 0-1.095-.015-.435-.015-.825-.06zm20.505 3.45h1.155V24.2h-1.155zm-3.48-2.49v1.635h8.115v-1.635zm0-2.565v1.605h8.115V12.11zm-1.11-1.005h10.38v6.225h-10.38zm-1.575 8.445h13.65v1.095h-13.65zm24.78-8.16q-.045.18-.09.405l-.09.42q-.03.21-.075.345-.21.945-.51 1.95a29 29 0 0 1-.645 1.995q-.36.99-.78 1.845a9.7 9.7 0 0 1-.855 1.485q-.57.78-1.155 1.41-.57.615-1.17.96t-1.29.345q-.555 0-1.035-.315t-.765-.915-.285-1.47q0-.945.345-1.89.36-.945.975-1.74.63-.795 1.41-1.32 1.11-.765 2.235-1.08a8.4 8.4 0 0 1 2.265-.315q1.47 0 2.61.615 1.155.615 1.8 1.725.66 1.095.66 2.565 0 1.485-.675 2.595-.66 1.095-1.875 1.77-1.2.66-2.805.885l-.705-1.065q1.185-.105 2.085-.45.915-.345 1.53-.9t.93-1.29q.33-.735.33-1.59 0-1.11-.495-1.965-.495-.87-1.41-1.365-.9-.495-2.1-.495-1.095 0-2.085.36-.975.345-1.86.99-.63.45-1.095 1.11t-.735 1.38q-.255.705-.255 1.38 0 .75.3 1.185.315.42.825.42.36 0 .735-.21.375-.225.735-.585t.69-.795q.345-.45.615-.9.375-.585.735-1.35t.675-1.635q.33-.885.57-1.77.255-.9.405-1.71.045-.225.06-.555.03-.33.03-.585zm-6.135.675q.06.315.135.675.09.345.165.66.15.54.375 1.215t.465 1.35q.255.675.525 1.275.27.585.51.975.39.66.885 1.35t1.035 1.2l-.945.78q-.45-.51-.87-1.08t-.84-1.305q-.285-.435-.57-1.05-.285-.63-.585-1.35-.285-.72-.555-1.47-.27-.765-.48-1.47-.105-.36-.24-.705a6 6 0 0 0-.255-.645zm18.39.81q.615.09 1.425.15.825.045 1.695.045.885-.015 1.68-.06.81-.06 1.365-.15v1.215q-.6.06-1.41.105-.795.03-1.665.03-.855 0-1.665-.03-.81-.045-1.425-.105zm.585 6.105q-.105.405-.165.735t-.06.645q0 .255.105.51.12.24.39.435.285.18.78.3.495.105 1.26.105 1.02 0 1.92-.09.9-.105 1.8-.3l.03 1.26q-.705.15-1.65.24-.93.075-2.1.075-1.89 0-2.775-.6-.87-.6-.87-1.65 0-.375.06-.795.075-.435.195-.975zm-3.45-7.26q-.03.12-.09.315-.045.18-.105.375-.045.18-.075.315-.075.42-.18.975-.105.54-.21 1.17-.09.615-.18 1.26-.075.63-.135 1.23-.045.6-.045 1.11 0 .555.03 1.05.045.495.105 1.05l.285-.735q.15-.39.3-.765.165-.39.285-.69l.63.48q-.195.54-.42 1.185t-.405 1.245q-.165.585-.24.93-.03.165-.06.36t-.015.315.015.255q.015.15.03.27l-1.08.075q-.225-.795-.39-2.04a21.5 21.5 0 0 1-.09-4.455q.075-.87.195-1.68.12-.825.225-1.5.12-.69.18-1.155.045-.27.075-.54.03-.285.03-.525zm18.48 7.65-.3-5.82-.03-1.77h1.65l-.03 1.77-.3 5.82zm.495 3.705q-.405 0-.69-.27-.27-.27-.27-.72t.285-.72a.92.92 0 0 1 .675-.285q.39 0 .675.285.285.27.285.72t-.285.72a.95.95 0 0 1-.675.27"/><path fill="#1f1f1f" d="M36.38 12.38v-.5h-.5v.5zm11.715 0h.5v-.5h-.5zm0 8.475v.5h.5v-.5zm-1.155 0h-.5v.5h.5zm0-7.395h.5v-.5h-.5zm-9.45 0v-.5h-.5v.5zm0 7.47v.5h.5v-.5zm-1.11 0h-.5v.5h.5zm.72-5.28v-.5h-.5v.5zm10.455 0h.5v-.5h-.5zm0 1.05v.5h.5v-.5zm-10.455 0h-.5v.5h.5zm0 2.295v-.5h-.5v.5zm10.455 0h.5v-.5h-.5zm0 1.08v.5h.5v-.5zm-10.455 0h-.5v.5h.5zm4.47-9.675v-.5h-.5v.5zm1.17 0h.5v-.5h-.5zm0 13.785v.5h.5v-.5zm-1.17 0h-.5v.5h.5zM36.38 12.38v.5h11.715v-1H36.38zm11.715 0h-.5v8.475h1V12.38zm0 8.475v-.5H46.94v1h1.155zm-1.155 0h.5V13.46h-1v7.395zm0-7.395v-.5h-9.45v1h9.45zm-9.45 0h-.5v7.47h1v-7.47zm0 7.47v-.5h-1.11v1h1.11zm-1.11 0h.5v-8.55h-1v8.55zm.72-5.28v.5h10.455v-1H37.1zm10.455 0h-.5v1.05h1v-1.05zm0 1.05v-.5H37.1v1h10.455zm-10.455 0h.5v-1.05h-1v1.05zm0 2.295v.5h10.455v-1H37.1zm10.455 0h-.5v1.08h1v-1.08zm0 1.08v-.5H37.1v1h10.455zm-10.455 0h.5v-1.08h-1v1.08zm4.47-9.675v.5h1.17v-1h-1.17zm1.17 0h-.5v13.785h1V10.4zm0 13.785v-.5h-1.17v1h1.17zm-1.17 0h.5V10.4h-1v13.785zm14.655-13.02v-.5h-.5v.5zm3.15 0h.5v-.5h-.5zm0 1.065v.5h.5v-.5zm-3.15 0h-.5v.5h.5zm2.46-1.065v-.5h-.5v.5zm1.23 0 .498-.044-.04-.456h-.458zm.45 3.24-.49.096v.001zm.825 2.775-.462.192.003.007zm1.335 2.19-.383.322.003.003zm1.935 1.53.243.437.813-.452-.825-.429zm-.3.225-.336-.37zm-.33.315-.354-.354-.008.009-.008.009zm-.255.3-.25.433.377.218.268-.344zm-1.965-1.65-.39.314.006.006zm-1.35-2.28-.461.193v.002zm-.855-2.82-.49.1zm-.48-3.285.498-.047-.043-.453h-.455zm-.24 0h-.5v.5h.5zm.06 2.355.077-.494-.476-.074-.092.472zm1.155.18.49.1.106-.513-.519-.081zm-1.605 4.425-.433-.25-.002.003zM55.55 21.74l-.407.29.29.407.408-.29zm-.24-.255-.37.336.016.018.018.016zm-.33-.315-.338.369.009.008.009.007zm-.315-.27-.267-.423-.603.38.563.438zm2.64-2.79-.435-.247-.001.003zm-3.225-1.785h.5v-.5h-.5zm0 5.31v.5h.5v-.5zm-1.095 0h-.5v.5h.5zm0-4.26h.5v-.5h-.5zm-2.1 0h-.5v.5h.5zm0-1.05v-.5h-.5v.5zm3.195 4.815.418-.274-.148-.226h-.27zm3.765 1.68.024-.5h-.007zm1.485.045-.009.5h.009zm1.845-.015-.008-.5zm1.875-.045.017.5zm1.575-.075.424.265.518-.829-.975.065zm-.285.75-.48-.137-.003.008zm-.09.39.024.5.397-.02.07-.39zm-1.455.045.009.5zm-1.74.015v-.5h-.008zm-1.755 0 .009-.5H59.3zm-1.455-.015-.02.5h.008zm-2.52-.48-.188.463.002.001zm-1.755-1.32.39-.312-.329-.412-.393.35zm-1.11.96-.322-.383-.006.006zm-1.185 1.005-.446.226.283.559.482-.4zm-.585-1.155-.277-.416-.37.246.2.396zm1.155-.825.302.399.001-.001zm1.215-.96v-.5h-.179l-.138.113zm-2.01-9.705-.317-.387-.515.422.549.377zm.825-.675.268-.422-.305-.194-.28.229zm1.005.735-.318.386.007.006zm.93.825-.354.354.007.006zm.705.78.32.384.365-.304-.285-.38zm-.9.75-.424.265.304.486.44-.367zm-.66-.795-.36.347.006.007zm-.93-.855-.33.376.006.005.006.005zm4.2-1.035v.5h3.15v-1h-3.15zm3.15 0h-.5v1.065h1v-1.065zm0 1.065v-.5h-3.15v1h3.15zm-3.15 0h.5v-1.065h-1v1.065zm2.46-1.065v.5h1.23v-1h-1.23zm1.23 0-.498.044q.152 1.734.457 3.292l.491-.096.49-.096a30 30 0 0 1-.442-3.188zm.45 3.24-.49.097q.308 1.559.853 2.87l.462-.192.462-.192a14 14 0 0 1-.797-2.68zm.825 2.775-.459.199q.566 1.306 1.411 2.313l.383-.322.383-.322a8.3 8.3 0 0 1-1.26-2.067zm1.335 2.19-.38.325a6.9 6.9 0 0 0 2.084 1.649l.231-.444.23-.444a5.9 5.9 0 0 1-1.785-1.411zm1.935 1.53-.243-.437a2.2 2.2 0 0 0-.393.292l.336.37.336.37c.093-.085.162-.133.207-.158zm-.3.225-.336-.37q-.174.159-.348.331l.354.354.354.354q.157-.158.312-.299zm-.33.315-.37-.336q-.16.175-.28.329l.395.307.395.307a5 5 0 0 1 .23-.27zm-.255.3.25-.433a6.8 6.8 0 0 1-1.83-1.537l-.385.32-.384.32a7.8 7.8 0 0 0 2.099 1.763zm-1.965-1.65.39-.314a9 9 0 0 1-1.28-2.161l-.46.195-.46.195q.564 1.335 1.42 2.399zm-1.35-2.28.461-.193a15 15 0 0 1-.826-2.728l-.49.101-.49.1q.323 1.574.884 2.913zm-.855-2.82.49-.1a31 31 0 0 1-.472-3.232l-.498.047-.498.047q.168 1.764.488 3.338zm-.48-3.285v-.5h-.24v1h.24zm-.24 0h.5v-.54h-1v.54zm.06 2.355-.077.494 1.155.18.077-.494.077-.494-1.155-.18zm1.155.18-.49-.1c-.341 1.657-.86 3.08-1.548 4.275l.433.25.433.25c.752-1.305 1.303-2.832 1.662-4.574zm-1.605 4.425-.435-.247a9 9 0 0 1-2.6 2.915l.29.407.29.407a10 10 0 0 0 2.89-3.235zM55.55 21.74l.407-.29a2.2 2.2 0 0 0-.31-.335l-.337.37-.336.37c.1.09.15.148.17.176zm-.24-.255.37-.336a4 4 0 0 0-.38-.363l-.32.384-.32.384q.154.129.28.267zm-.33-.315.338-.369a6 6 0 0 0-.346-.296l-.307.395-.307.395q.114.088.284.244zm-.315-.27.267.423a8.2 8.2 0 0 0 2.81-2.969l-.437-.244-.436-.244a7.2 7.2 0 0 1-2.47 2.611zm2.64-2.79.435.247c.69-1.214 1.187-2.617 1.496-4.201l-.491-.096-.49-.096c-.292 1.496-.756 2.793-1.385 3.899zm-3.225-1.785h-.5v5.31h1v-5.31zm0 5.31v-.5h-1.095v1h1.095zm-1.095 0h.5v-4.26h-1v4.26zm0-4.26v-.5h-2.1v1h2.1zm-2.1 0h.5v-1.05h-1v1.05zm0-1.05v.5h3.195v-1h-3.195zm3.195 4.815-.418.274c.417.638.998 1.11 1.724 1.417l.194-.461.194-.46a2.76 2.76 0 0 1-1.276-1.044zm1.5 1.23-.194.46c.708.3 1.526.458 2.442.49l.017-.5.017-.5c-.824-.028-1.516-.17-2.088-.41zm2.265.45-.024.5q.625.03 1.5.045l.009-.5.009-.5a48 48 0 0 1-1.47-.044zm1.485.045v.5q.889 0 1.853-.015l-.008-.5-.008-.5q-.956.015-1.837.015zm1.845-.015.008.5q.978-.015 1.884-.045l-.017-.5-.017-.5q-.894.03-1.866.045zm1.875-.045.017.5a49 49 0 0 0 1.591-.076l-.033-.499-.033-.499q-.664.045-1.559.074zm1.575-.075-.424-.265c-.077.123-.14.27-.197.427l.471.168.47.168a1.3 1.3 0 0 1 .104-.233zm-.15.33-.47-.168q-.081.225-.146.45l.481.138.48.137a6 6 0 0 1 .126-.389zm-.135.42-.483-.129a6 6 0 0 0-.099.43l.492.089.492.09q.025-.14.081-.351zm-.09.39-.024-.5q-.605.03-1.44.045l.009.5.009.5q.845-.015 1.47-.046zm-1.455.045-.009-.5q-.836.015-1.731.015v1q.904 0 1.749-.015zm-1.74.015-.008-.5q-.892.015-1.738 0l-.009.5-.009.5q.864.015 1.772 0zm-1.755 0v-.5q-.835 0-1.443-.015l-.012.5-.012.5q.623.015 1.467.015zm-1.455-.015.02-.5c-.94-.038-1.72-.19-2.354-.444l-.186.464-.186.464c.766.307 1.665.474 2.686.516zm-2.52-.48.188-.463a3.8 3.8 0 0 1-1.553-1.17l-.39.313-.39.312a4.8 4.8 0 0 0 1.957 1.471zm-1.755-1.32-.332-.374a55 55 0 0 1-1.1.951l.322.383.322.383q.575-.484 1.12-.97zm-1.11.96-.328-.377q-.566.491-1.176.997l.319.385.32.385q.618-.513 1.193-1.012zm-1.185 1.005.446-.226-.585-1.155-.446.226-.446.226.585 1.155zm-.585-1.155.277.416q.555-.37 1.18-.842l-.302-.399-.302-.399q-.605.457-1.13.808zm1.155-.825.303.398a44 44 0 0 0 1.23-.972l-.318-.386-.317-.387q-.578.475-1.201.95zm1.215-.96v.5h1.02v-1h-1.02zm-2.01-9.705.317.387.825-.675-.317-.387-.317-.387-.825.675zm.825-.675-.268.422q.465.296.955.699l.318-.386.318-.386a11 11 0 0 0-1.055-.77zm1.005.735-.31.392q.488.388.886.787l.354-.354.354-.354q-.443-.441-.973-.863zm.93.825-.347.36q.414.4.652.72l.4-.3.4-.3a7 7 0 0 0-.758-.84zm.705.78-.32-.384-.9.75.32.384.32.384.9-.75zm-.9.75.424-.265a5.2 5.2 0 0 0-.73-.884l-.354.354-.354.354c.275.274.467.509.59.706zm-.66-.795.36-.347a12 12 0 0 0-.972-.894l-.318.386-.318.386q.49.403.888.816zm-.93-.855.33-.376a11 11 0 0 0-1.022-.801l-.283.412-.283.412q.451.311.928.729zm16.92-.195.026-.5-.553-.028.028.553zm.585.03-.025.5h.001zm1.305 0-.016-.5zm.99-.045.03.5zm.96-.045.017.5h.008l.008-.001zm.675-.045.033.499.017-.001.016-.002zm.405-.06.082.493.015-.002.015-.004zm.345-.105.317-.387-.228-.187-.275.11zm.75.615.376.33.34-.39-.399-.327zm-.21.24-.376-.33-.013.015-.011.015zm-.18.255-.416-.277-.005.007-.005.008zm-.57 1.11.453.212.001-.004zm-.705 1.545-.457-.204-.001.004zm-.72 1.59-.453-.213-.004.011zm-.495 1.11-.456-.205-.002.005zm-.525 1.2.456.205.002-.004zm-.54 1.125-.445-.229-.005.01zm-.495.87.408.29.002-.005zm-.855.81.224.447.011-.006zm-2.43-.33-.354.354zm-.18-3.06-.442-.234-.001.003zm1.065-1.275-.308-.394-.004.004zm1.635-.84-.15-.477h-.001zm4.53 0-.124.484.007.002zm2.205.75-.207.455.008.003zm1.875.96-.26.427.01.006zm1.455.93.46.198.157-.368-.323-.235zm-.555 1.29-.327.378.517.446.27-.626zm-1.485-1.125-.284.411.005.004zm-3.87-1.785-.128.483h.002zm-4.35.135.211.453.003-.001zm-1.335 1.05-.406-.292v.001zm-.18 2.085-.354.354.01.01.01.009zm1.095.135.248.434zm.435-.405.392.31.006-.007zM71 17.915l-.462-.192zm.45-1.005.45.218.005-.011zm.6-1.365-.457-.204-.003.008zm.615-1.365-.451-.215-.004.008zm.57-1.2.452.213.363-.768-.848.056zm-.645.03-.018-.5zm-.885.045.016.5h.007l.008-.001zm-.915.045.018.5h.008l.008-.001zm-.675.03-.03-.5-.001.001zm-.54.045.025.5.012-.001.013-.002zm-.57.045-.5.025.027.53.528-.058zm9.315 2.07.5.024.022-.47-.467-.05zm-.315 2.895-.492-.09zm-.735 2.355.452.213zm-1.35 1.89.347.36.003-.003zm-2.16 1.47-.32.384.25.208.291-.144zm-.99-.825-.194-.46-.758.318.632.526zm2.145-1.32.34.367.004-.004zm1.275-1.665-.444-.23-.002.003zm.645-1.815-.49-.104v.008zm.27-1.74.498.045.001-.011v-.012zm.015-.705-.5-.02v.02zm-.015-.675.055-.497-.611-.068.058.612zm-8.16-3.15-.026.5.586.03.025-.5.025-.5-.584-.03zm.585.03-.024.5q.323.015.564.015v-1q-.21 0-.516-.014zm.54.015v.5q.311 0 .781-.015l-.016-.5-.016-.5q-.46.015-.749.015zm.765-.015.016.5q.488-.015 1.003-.046l-.029-.499-.03-.5q-.502.03-.976.045zm.99-.045.03.5q.503-.03.947-.045l-.017-.5-.017-.5q-.457.015-.972.046zm.96-.045.033.499.675-.045-.033-.499-.033-.499-.675.045zm.675-.045.066.496q.231-.03.421-.063l-.082-.493-.082-.493q-.17.028-.39.057zm.405-.06.112.487q.225-.05.419-.128l-.186-.464-.186-.464a2 2 0 0 1-.271.082zm.345-.105-.317.387.75.615.317-.387.317-.387-.75-.615zm.75.615-.376-.33-.21.24.376.33.376.33.21-.24zm-.21.24-.4-.3q-.099.131-.196.278l.416.277.416.277q.083-.124.164-.232zm-.18.255-.426-.262c-.175.285-.375.676-.599 1.164l.455.208.454.208c.217-.472.397-.821.542-1.056zm-.57 1.11-.453-.212q-.332.709-.709 1.553l.457.204.457.204q.373-.837.7-1.537zm-.705 1.545-.458-.2a61 61 0 0 1-.714 1.577l.452.213.452.213a62 62 0 0 0 .726-1.603zm-.72 1.59-.457-.202q-.225.509-.494 1.107l.456.205.456.205q.27-.6.496-1.113zm-.495 1.11-.458-.2-.525 1.199.458.201.458.201.525-1.201zm-.525 1.2-.456-.205q-.265.59-.529 1.101l.445.229.445.229q.276-.538.551-1.149zm-.54 1.125-.45-.218q-.244.5-.456.803l.411.285.41.285a7 7 0 0 0 .535-.936zm-.495.87-.408-.29c-.24.34-.471.546-.682.659l.235.441.235.441c.39-.207.728-.54 1.028-.961zm-.855.81-.224-.447c-.22.11-.486.172-.811.172v1c.455 0 .879-.088 1.259-.278zm-1.035.225v-.5c-.438 0-.772-.14-1.041-.409l-.354.354-.354.354c.471.47 1.067.701 1.749.701zm-1.395-.555.354-.354c-.258-.257-.409-.62-.409-1.146h-1c0 .734.219 1.371.701 1.854zm-.555-1.5h.5c0-.483.107-.923.319-1.329l-.444-.231-.444-.231a3.8 3.8 0 0 0-.431 1.791zm.375-1.56.442.234q.339-.64.935-1.119l-.312-.39-.312-.39q-.754.601-1.195 1.43zm1.065-1.275.308.394a4.7 4.7 0 0 1 1.478-.757l-.151-.477-.151-.477q-1.022.323-1.792.923zm1.635-.84.15.477a6.5 6.5 0 0 1 1.95-.277v-1q-1.207-.001-2.25.323zm2.1-.3v.5q1.2 0 2.306.284l.124-.484.124-.484a10.2 10.2 0 0 0-2.554-.316zm2.43.3-.117.486q1.142.275 2.115.719l.207-.455.207-.455a12.7 12.7 0 0 0-2.295-.781zm2.205.75-.2.459q1.009.439 1.816.928l.259-.427.26-.427a16 16 0 0 0-1.936-.992zm1.875.96-.25.433q.839.486 1.412.902l.293-.405.294-.405a18 18 0 0 0-1.499-.958zm1.455.93-.46-.198-.554 1.29.459.198.46.198.554-1.29zm-.555 1.29.327-.378a16 16 0 0 0-1.533-1.162l-.279.415-.28.415q.805.54 1.438 1.088zm-1.485-1.125.284-.411a13.5 13.5 0 0 0-1.869-1.075l-.215.451-.215.451q.941.45 1.73.995zm-1.8-1.035.215-.451q-1.02-.487-2.16-.783l-.125.484-.126.484q1.05.274 1.98.717zm-2.07-.75.128-.483a9.2 9.2 0 0 0-2.363-.302v1q1.092 0 2.107.268zm-2.235-.285v-.5c-.876 0-1.657.15-2.33.468l.215.452.214.452c.508-.241 1.137-.372 1.901-.372zm-2.115.42-.211-.453c-.642.298-1.16.698-1.53 1.21l.406.293.406.292c.25-.347.622-.647 1.14-.889zm-1.335 1.05-.407-.29c-.353.493-.543 1.033-.543 1.61h1c0-.343.11-.683.357-1.03zm-.45 1.32h-.5c0 .422.117.82.416 1.119l.354-.354.354-.354c-.061-.06-.124-.173-.124-.411zm.27.765-.333.373c.27.242.596.382.963.382v-1a.43.43 0 0 1-.297-.128zm.63.255v.5c.252 0 .493-.06.713-.186l-.248-.434-.248-.434a.4.4 0 0 1-.217.054zm.465-.12.248.434c.216-.123.408-.312.58-.53l-.393-.309-.392-.31a1.1 1.1 0 0 1-.291.28zm.435-.405.398.303q.27-.355.523-.833l-.441-.235-.441-.235q-.226.422-.437.697zm.48-.765.441.235q.249-.465.494-1.002l-.455-.208-.455-.208q-.235.513-.466.948zm.48-.975.455.208q.244-.532.472-1.08L71 17.914l-.462-.192q-.22.532-.458 1.05zM71 17.915l.462.192q.22-.528.438-.98l-.45-.217-.45-.218q-.232.48-.462 1.03zm.45-1.005.455.207q.303-.666.605-1.376l-.46-.196-.46-.196q-.298.7-.595 1.354zm.6-1.365.457.204q.315-.704.613-1.362l-.455-.207-.455-.207q-.3.661-.616 1.368zm.615-1.365.451.215.571-1.201-.452-.214-.452-.213-.57 1.198zm.57-1.2-.033-.499q-.212.015-.63.03l.018.499.018.5q.422-.015.66-.031zm-.645.03-.019-.5q-.412.016-.897.046l.031.499.031.499q.475-.03.873-.044zm-.885.045-.016-.5q-.488.016-.933.046l.034.499.034.499q.425-.03.897-.044zm-.915.045-.018-.5q-.423.015-.686.03l.029.5.03.5q.246-.015.663-.03zm-.675.03-.031-.499q-.252.016-.559.046l.05.498.05.497q.293-.028.521-.043zm-.54.045-.025-.5q-.314.017-.6.048l.055.497.055.497q.254-.028.54-.043zm-.57.045.5-.025-.06-1.215-.5.025-.5.025.06 1.215zm9.315 2.07-.5-.024a21 21 0 0 1-.307 2.829l.492.09.492.09a22 22 0 0 0 .322-2.961zm-.315 2.895-.492-.09a9 9 0 0 1-.695 2.232l.452.213.452.213q.525-1.117.775-2.478zm-.735 2.355-.452-.213a6 6 0 0 1-1.248 1.746l.35.357.35.357a7 7 0 0 0 1.452-2.034zm-1.35 1.89-.347-.36c-.526.507-1.2.97-2.034 1.382l.221.448.221.448c.907-.448 1.672-.965 2.286-1.558zm-2.16 1.47.32-.384-.99-.825-.32.384-.32.384.99.825zm-.99-.825.194.46c.92-.386 1.688-.855 2.291-1.413l-.34-.367-.34-.367c-.497.461-1.159.873-1.999 1.226zm2.145-1.32.343.363a6.6 6.6 0 0 0 1.378-1.801l-.446-.227-.446-.227a5.6 5.6 0 0 1-1.172 1.529zm1.275-1.665.444.23q.496-.958.692-1.948l-.491-.097-.49-.096q-.164.84-.6 1.681zm.645-1.815.489.104q.201-.94.279-1.799l-.498-.045-.498-.045a14 14 0 0 1-.261 1.68zm.27-1.74.5.022q.015-.357.015-.727h-1q0 .349-.014.683zm.015-.705.5.02q.016-.389-.017-.742l-.498.047-.498.047q.028.277.013.607zm-.015-.675-.055.497 1.215.135.055-.497.055-.497-1.215-.135zm9.93-1.02.046-.498-.546-.05v.548zm1.26.09.024-.5zm3.975-.075-.04-.498zm2.475-.33h.5v-.608l-.597.117zm0 1.155.08.494.42-.069v-.425zm-2.535.285-.034-.499zm-2.655.105v.5h.006zm-1.26-.03-.025.5zm-1.26-.075h-.5v.467l.466.032zm5.25-3.81.496.066.075-.566h-.571zm-.06.45-.496-.066-.002.016v.017zm-.03.45-.499-.033v.005zm-.03.69.5.018zm.015 3.525.5-.018zm.075 1.665.5-.028zm.075 1.53-.5.02.001.012zm-.09 2.175-.477-.148-.003.007-.002.008zm-.42.78-.377-.328-.008.01zm-.795.54-.179-.467-.008.003-.008.004zm-3.57-.36-.291.406.003.003zm-.435-2.715-.407-.29-.001.002zm1.05-.825-.2-.459-.003.002zm3.435-.075-.136.481.01.003zm1.485.57-.235.441.011.006zm1.26.78-.303.398.006.005zm1.05.84.418.274.239-.363-.328-.287zm-.66 1.005-.347.36.434.418.33-.503zm-1.575-1.305-.29.407.004.003zm-4.8-.84.266.423.003-.002zm-.015 1.755-.263.425.01.006zm2.31.09-.252-.432-.008.005zm.495-.57-.462-.192-.003.008-.003.008zm.12-1.95-.5.022zm-.075-1.5-.5.027zm-.075-1.68-.5.017zm-.045-4.56-.5.028v.001zm-.045-.465v-.5h-.583l.089.576zm-6.06.09.468.176.233-.622-.661-.052zm-.105.315-.478-.147-.004.013-.003.013zm-.09.375-.487-.112-.004.018-.003.018zm-.06.33-.488-.109v.004zm-.195 1.005-.492-.088-.002.01zm-.195 1.245.494.079v-.002zm-.195 1.35-.496-.065v.01zm-.12 1.305.499.036zM83.9 19.64l-.5.03.001.008.001.007zm.12 1.05-.495.067.967.097zm.27-.735-.467-.18zm.3-.78-.46-.195-.004.008-.003.008zm.285-.69.308-.394-.525-.41-.247.618zm.615.48.472.166.12-.339-.284-.221zm-.405 1.155-.472-.165-.002.007zm-.405 1.215-.474-.158-.003.007zm-.255.945.49.098zm-.06.345-.494-.076-.003.019-.001.019zm0 .33h.5v-.028l-.003-.027zm0 .255h-.5v.025l.003.025zm.03.27.036.499.526-.038-.066-.523zm-1.05.075-.482.134.11.394.408-.03zm-.405-2.01-.495.067v.007zm-.09-4.47-.498-.049v.008zm.195-1.785-.495-.068-.001.008zm.225-1.59-.493-.08-.002.008zm.195-1.2.494.08.001-.011.002-.01zm.06-.54-.497-.052zm.03-.525.04-.498-.54-.043v.541zm3.48 2.7-.046.498q.655.06 1.282.091l.024-.499.024-.5q-.603-.028-1.238-.088zm1.26.09-.024.5q.628.03 1.314.03v-1q-.664 0-1.266-.03zm1.29.03v.5q1.37 0 2.724-.107l-.039-.498-.04-.498q-1.314.103-2.645.103zm2.685-.105.04.498a22 22 0 0 0 2.532-.338l-.097-.49-.097-.49q-1.107.218-2.417.322zm2.475-.33h-.5v1.155h1V13.82zm0 1.155-.08-.493q-1.175.19-2.489.28l.034.498.034.499a28 28 0 0 0 2.581-.29zm-2.535.285-.034-.499q-1.305.09-2.627.104l.006.5.006.5q1.348-.016 2.683-.106zm-2.655.105v-.5q-.633 0-1.236-.03l-.024.5-.024.5q.627.03 1.284.03zm-1.26-.03.025-.5q-.595-.03-1.251-.074l-.034.499-.034.499q.664.045 1.269.075zm-1.26-.075h.5v-1.125h-1v1.125zm5.25-3.81-.496-.066-.06.45.496.066.496.066.06-.45zm-.06.45-.499-.033-.03.45.499.033.499.033.03-.45zm-.03.45-.5-.028q-.015.277-.03.7l.5.018.5.018q.015-.417.03-.68zm-.03.69-.5-.018q-.015.43-.015.918h1q0-.473.015-.882zm-.015.9h-.5v.915h1v-.915zm0 .915h-.5q0 .864.03 1.727l.5-.017.5-.018q-.03-.846-.03-1.692zm.03 1.71-.5.017q.03.86.076 1.676l.499-.028.5-.028a81 81 0 0 1-.075-1.655zm.075 1.665-.5.028q.046.807.075 1.523l.5-.021.5-.02q-.03-.725-.076-1.538zm.075 1.53-.499.032q.044.691.044 1.258h1q0-.603-.046-1.322zm.045 1.29h-.5q0 .374-.112.737l.477.148.478.148a3.5 3.5 0 0 0 .157-1.033zm-.135.885-.482-.133q-.09.324-.315.585l.377.328.377.328q.374-.429.525-.975zm-.42.78-.385-.318c-.125.15-.312.285-.589.391l.179.467.179.467c.403-.154.746-.379 1.002-.689zm-.795.54-.195-.46c-.25.105-.592.17-1.05.17v1c.542 0 1.03-.075 1.44-.25zm-1.245.21v-.5c-.958 0-1.615-.182-2.037-.479l-.288.409-.288.409c.658.463 1.551.661 2.613.661zm-2.325-.57.291-.406c-.394-.283-.586-.655-.586-1.169h-1c0 .826.339 1.504 1.004 1.981zm-.795-1.575h.5c0-.318.089-.597.269-.852l-.409-.288-.408-.288a2.43 2.43 0 0 0-.452 1.428zm.36-1.14.407.29c.19-.267.466-.489.846-.658l-.203-.457-.203-.457c-.52.231-.945.559-1.254.991zm1.05-.825.2.459c.38-.166.868-.259 1.48-.259v-1c-.708 0-1.34.107-1.88.341zm1.68-.3v.5q.901.001 1.619.206l.136-.481.136-.481a7 7 0 0 0-1.891-.244zm1.755.225-.126.484q.758.197 1.376.527l.235-.441.235-.441a7.2 7.2 0 0 0-1.594-.613zm1.485.57-.224.447q.65.325 1.18.73l.304-.397.303-.397a8.4 8.4 0 0 0-1.34-.83zm1.26.78-.297.402q.555.41 1.018.814l.329-.376.33-.376q-.498-.436-1.083-.867zm1.05.84-.418-.274-.66 1.005.418.274.418.274.66-1.005zm-.66 1.005.347-.36a13.6 13.6 0 0 0-1.636-1.355l-.286.41-.286.41q.76.53 1.514 1.255zm-1.575-1.305.29-.407a7.6 7.6 0 0 0-1.734-.931l-.176.468-.176.468a6.6 6.6 0 0 1 1.506.81zm-1.62-.87.176-.468a5.5 5.5 0 0 0-1.961-.347v1a4.5 4.5 0 0 1 1.61.283zm-1.785-.315v-.5c-.634 0-1.201.128-1.664.424l.269.421.27.421c.256-.164.62-.266 1.125-.266zm-1.395.345-.266-.423c-.47.295-.759.733-.759 1.293h1c0-.16.061-.302.291-.447zm-.525.87h-.5c0 .564.269 1.015.747 1.31l.263-.425.263-.425c-.202-.125-.273-.264-.273-.46zm.51.885-.254.431c.44.259.976.369 1.574.369v-1c-.482 0-.827-.09-1.066-.231zm1.32.3v.5c.472 0 .908-.075 1.25-.283l-.26-.427-.26-.427c-.118.072-.342.137-.73.137zm.99-.21.252.432c.33-.193.577-.47.711-.826l-.468-.176-.468-.176a.6.6 0 0 1-.279.314zm.495-.57.461.192a2.7 2.7 0 0 0 .189-1.047h-1c0 .281-.043.498-.111.663zm.15-.855h.5q0-.421-.03-1.117l-.5.022-.5.022q.03.685.03 1.073zm-.03-1.095.5-.022q-.03-.693-.076-1.506l-.499.028-.5.028q.046.807.076 1.494zm-.075-1.5.5-.027a86 86 0 0 1-.075-1.67l-.5.017-.5.017q.03.86.076 1.69zm-.075-1.68.5-.018a46 46 0 0 1-.03-1.587h-1q0 .76.03 1.623zm-.03-1.605h.5v-1.44h-1v1.44zm0-1.44h.5v-1.065h-1v1.065zm0-1.065h.5q0-.213-.016-.48l-.499.03-.5.03q.015.243.015.42zm-.015-.45.5-.028a5 5 0 0 0-.05-.513l-.495.076-.494.076q.025.164.04.417zm-.045-.465v.5h1.35v-1h-1.35zm-6.06.09-.468-.176a6 6 0 0 0-.115.344l.478.147.478.147q.057-.187.095-.286zm-.105.315-.485-.121q-.046.184-.092.384l.487.112.487.112.088-.366zm-.09.375-.494-.076a5 5 0 0 1-.054.297l.488.109.488.108a6 6 0 0 0 .066-.362zm-.06.33-.489-.105q-.091.43-.198 1.022l.492.088.492.088q.104-.579.192-.988zm-.195 1.005-.494-.078-.195 1.246.494.077.494.077.195-1.244zm-.195 1.245-.494-.079q-.105.668-.197 1.364l.496.065.496.065q.089-.684.193-1.336zm-.195 1.35-.497-.055q-.075.684-.122 1.324l.499.036.499.036q.045-.62.118-1.286zm-.12 1.305-.499-.036q-.046.645-.046 1.176h1q0-.489.044-1.104zm-.045 1.14h-.5q0 .554.03 1.065l.5-.03.5-.03q-.03-.48-.03-1.005zm.03 1.035-.498.045q.046.508.123 1.072l.495-.067.496-.067q-.075-.546-.118-1.028zm.12 1.05.472.164q.117-.336.265-.72l-.467-.179-.467-.18q-.152.398-.275.75zm.27-.735.467.18v-.004l.001-.001.001-.002v-.001l.001-.002v-.001l.001-.002v-.001l.002-.002v-.003l.001-.001v-.002l.002-.001v-.003l.001-.002v-.002l.001-.001.001-.002v-.001l.001-.002v-.001l.001-.002v-.001l.001-.002.001-.001v-.002l.001-.001v-.002l.001-.001.001-.002v-.001l.001-.002v-.001l.001-.002v-.001l.001-.002.001-.001v-.002l.001-.002v-.001l.001-.002.001-.001v-.002l.001-.001v-.002l.001-.001.001-.002v-.001l.001-.002v-.001l.001-.002v-.001l.002-.002v-.003l.001-.001v-.002l.001-.001.001-.002v-.002l.001-.001v-.002l.001-.001v-.002l.001-.001.001-.002v-.001l.001-.002v-.001l.001-.002.001-.001v-.002l.001-.001v-.002l.001-.001.001-.002v-.001l.001-.002v-.001l.001-.002v-.002l.001-.001.001-.002v-.001l.001-.002.001-.002.001-.001v-.002l.001-.001v-.002l.001-.001v-.002l.002-.001v-.003l.001-.002v-.001l.001-.002.001-.001v-.002l.001-.002v-.001l.001-.002v-.001l.001-.002.001-.001v-.002l.001-.001v-.002l.001-.001.001-.002v-.001l.001-.002v-.001l.001-.002.001-.001v-.002l.001-.001v-.002l.001-.001v-.002l.002-.002v-.003l.001-.001v-.002l.001-.001.001-.002v-.001l.001-.002v-.001l.001-.002v-.001l.002-.002v-.003l.001-.001v-.002l.002-.001v-.003l.001-.002v-.002l.001-.001.001-.002v-.001l.001-.002v-.001l.001-.002V19.9l.001-.002.001-.001v-.002l.001-.001v-.002l.001-.001.001-.002v-.001l.001-.002v-.001l.001-.002v-.001l.002-.002v-.003l.001-.002v-.001l.002-.002v-.003l.001-.001v-.002l.001-.001.001-.002v-.001l.001-.002v-.001l.001-.002v-.001l.002-.002v-.003l.001-.001v-.002l.001-.001.001-.002v-.002l.001-.001v-.002l.001-.001v-.002l.001-.001.001-.002v-.001l.001-.002v-.001l.001-.002.001-.001v-.002l.001-.001v-.002l.001-.001.001-.002v-.001l.001-.002v-.001l.001-.002v-.002l.002-.001v-.003l.001-.002v-.001l.001-.002.001-.001v-.002l.001-.001v-.002l.001-.001v-.002l.001-.001.001-.002v-.001l.001-.002v-.001l.001-.002.001-.001v-.002l.001-.002v-.001l.001-.002.001-.001v-.002l.001-.001v-.002l.001-.001v-.002l.001-.001.001-.002v-.001l.001-.002v-.001l.001-.002.001-.001v-.002l.001-.001v-.002l.001-.001v-.002l.002-.002v-.003l.001-.001v-.002l.001-.001.001-.002v-.001l.001-.002v-.001l.001-.002v-.001l.001-.002.001-.001v-.002l.001-.001v-.002l.001-.001.001-.002v-.001l.001-.002v-.002l.001-.001.001-.002v-.001l.001-.002v-.001l.001-.002v-.001l.001-.002.001-.001V19.7l.001-.001v-.002l.001-.001.001-.002v-.001l.001-.002v-.001l.001-.002v-.001l.002-.002v-.003l.001-.002v-.001l.001-.002.001-.001v-.002l.001-.001v-.002l.001-.001.001-.002v-.001l.001-.002v-.001l.001-.002v-.001l.001-.002.001-.001v-.002l.001-.001v-.002l.001-.001.001-.002v-.002l.001-.001v-.002l.001-.001v-.002l.002-.001v-.003l.001-.002v-.001l.001-.002.001-.001v-.002l.001-.001v-.002l.001-.001.001-.002v-.001l.001-.002v-.001l.001-.002v-.002l.002-.001v-.003l.001-.002v-.001l.001-.002.001-.001v-.002l.001-.001V19.6l.001-.001v-.002l.001-.001.001-.002v-.001l.001-.002v-.001l.001-.002.001-.001v-.002l.001-.002v-.001l.001-.002v-.001l.002-.002v-.003l.001-.001v-.002l.002-.001v-.003l.001-.002v-.001l.001-.002.001-.001v-.002l.001-.001v-.002l.001-.001v-.002l.002-.002v-.003l.001-.001v-.002l.001-.001.001-.002v-.001l.001-.002v-.001l.001-.002v-.001l.001-.002.001-.001v-.002l.001-.001v-.002l.001-.001.001-.002v-.001l.001-.002v-.002l.001-.001.001-.002v-.001l.001-.001v-.002l.001-.002v-.001l.002-.002v-.003l.001-.001v-.002L85 19.5l.001-.002v-.001l.001-.002v-.001l.001-.002v-.001l.001-.002.001-.001v-.002l.001-.002v-.001l.001-.002.001-.001v-.002l.001-.001v-.002l.001-.001.001-.002v-.001l.001-.002v-.001l.001-.002v-.001l.001-.002.001-.001v-.002l.001-.001v-.002l.001-.001.001-.002v-.002l.001-.001v-.002l.001-.001v-.002l.002-.001v-.003l.001-.002v-.001l.001-.002.001-.001v-.002l.001-.001v-.002l.001-.001.001-.002v-.001l.001-.002v-.001l.001-.002v-.001l.001-.002.001-.002v-.001l.001-.002v-.001l.001-.002.001-.001v-.002l.001-.001v-.002l.001-.001v-.002l.001-.001.001-.002v.001l.001-.002v-.001l.001-.002.001-.001v-.002l.001-.001v-.002l.001-.002.001-.001v-.002l.001-.001v-.002l.001-.001v-.002l.002-.001v-.003l.001-.002v-.001l.001-.002.001-.001v-.002l.001-.001v-.002l.001-.001v-.002l.001-.002.001-.001v-.002l-.466-.179-.467-.18V19l-.001.001-.001.002v.001l-.001.002v.001l-.001.002-.001.001v.002l-.001.001v.002l-.001.001v.002l-.001.001-.002.005v.002l-.001.001-.001.002v.001l-.001.002v.001l-.001.002v.001l-.001.002-.001.001v.002l-.001.001v.002l-.001.001-.001.002v.001l-.001.002v.001l-.001.002v.001l-.002.002v.001l-.001.003v.002l-.002.002v.003l-.001.001v.002l-.001.001-.001.002v.001l-.001.002v.001l-.001.002v.001l-.001.002-.001.001v.002l-.001.001v.002l-.001.001-.001.002v.002l-.001.001v.002l-.001.001v.002l-.001.001-.001.002v.001l-.001.002v.001l-.001.002-.001.001v.002l-.001.001v.002l-.001.001-.001.002v.001l-.001.002v.001l-.001.002v.002l-.002.001v.003l-.001.002v.001l-.001.002-.001.001v.002l-.001.001v.002l-.001.001v.002l-.001.001-.001.002v.001l-.001.002v.001l-.001.002-.001.001v.002l-.001.002v.001l-.001.002-.001.001v.002l-.001.001v.002l-.001.001v.002l-.002.001v.003l-.001.002v.001l-.001.002-.001.001v.002l-.001.001v.002l-.001.001v.002l-.002.002v.003l-.001.001-.001.003-.001.002v.001l-.001.002v.001l-.001.002v.001l-.001.002-.001.001v.002l-.001.001v.002l-.001.001-.001.002v.001l-.001.002v.002l-.001.001-.001.002v.001l-.001.002v.001l-.001.002v.001l-.002.002v.003l-.001.001v.002l-.001.001-.001.002v.001l-.001.002v.001l-.001.002v.001l-.002.002v.003l-.001.002v.001l-.002.002v.003l-.001.001v.002l-.001.001-.001.002v.001l-.001.002v.001l-.001.002v.001l-.001.002-.001.001v.002l-.001.001v.002l-.001.001-.001.002v.002l-.001.001v.002l-.001.001v.002l-.002.001v.003l-.001.002v.001l-.002.002v.003l-.001.001v.002l-.001.001-.001.002v.001l-.001.002v.001l-.001.002v.002l-.001.001-.001.002v.001l-.001.002v.001l-.001.002-.001.001-.001.003v.002l-.001.001v.002l-.001.001-.001.002v.001l-.002.003v.002l-.001.001v.002l-.001.002v.001l-.001.002-.001.001v.002l-.001.001v.002l-.001.001v.002l-.002.001v.003l-.001.002v.001l-.001.002-.001.001v.002l-.001.001v.002l-.001.001v.002l-.001.002-.001.001v.002l-.001.001v.002l-.001.001-.001.002v.001l-.001.002v.001l-.001.002-.001.001v.002l-.001.001v.002l-.001.001v.002l-.001.001-.001.002v.001l-.001.002v.002l-.001.001-.001.002v.001l-.001.002v.001l-.001.002v.001l-.002.002v.003l-.001.001v.002l-.001.001-.001.002v.001l-.001.002v.001l-.001.002v.001l-.001.002-.001.001v.002l-.001.002v.001l-.001.002-.001.001v.002l-.001.001v.002l-.001.001-.001.002v.001l-.001.002v.001l-.001.002v.001l-.001.002-.001.001v.002l-.001.001v.002l-.001.001-.001.002v.002l-.001.001v.002l-.001.001v.002l-.002.001v.003l-.001.002v.001l-.002.002v.003l-.001.001v.002l-.001.001-.001.002v.001l-.001.002v.001l-.001.002v.002l-.001.001-.001.002v.001l-.001.002v.001l-.001.002-.001.001v.002l-.001.001v.002l-.001.001v.002l-.002.001v.003l-.001.002v.001l-.001.002-.001.001v.002l-.002.003v.002l-.001.001v.002l-.001.001v.002l-.001.001v.002l-.002.001v.003l-.001.002v.001l-.001.002-.001.001v.002l-.001.001v.002l-.001.001v.002l-.001.002-.001.001v.002l-.001.001v.002l-.001.001-.001.002v.001l-.001.002v.001l-.001.002v.001l-.002.002v.003l-.001.001v.002l-.002.001v.003l-.001.002v.002l-.001.001-.001.002v.001l-.001.002v.001l-.001.002v.001l-.002.002v.003l-.001.001v.002l-.001.001-.001.002v.001l-.001.002v.001l-.001.002v.001l-.001.002-.001.001v.002l-.001.002v.001l-.001.002-.001.001v.002l-.001.001v.002l-.001.001-.001.002v.001l-.001.002v.001l-.001.002v.001l-.002.002v.003l-.001.001v.002l-.001.001-.001.002v.002l-.001.001v.002l-.002.003v.001l-.001.002v.001l-.001.002v.001l-.001.002-.001.001v.002l-.001.001v.002l-.001.001-.001.002v.001l-.001.002v.001l-.001.002v.002l-.001.001-.001.002v.001l-.001.002v.001l-.001.002-.001.001v.002l-.001.001v.002l-.001.001v.002l-.002.001v.003l-.001.002v.001l-.001.002-.001.001v.002l-.001.002v.001l-.001.002-.001.001v.002l-.001.001v.002l-.001.001v.002l-.001.001-.001.002v.001l-.001.002v.001l-.001.002-.001.001v.002l-.001.001v.002l-.001.001v.002l-.001.002-.001.001v.002zm.3-.78.46.195q.167-.393.29-.7l-.465-.185-.464-.186q-.118.295-.282.681zm.285-.69-.308.394.615.48.308-.394.308-.394-.615-.48zm.615.48-.471-.166-.406 1.156.472.165.472.165.404-1.154zm-.405 1.155-.474-.158-.405 1.215.474.158.474.158.405-1.215zm-.405 1.215-.477-.15a10 10 0 0 0-.268.997l.49.098.49.098a9 9 0 0 1 .242-.892zm-.255.945-.49-.098a8 8 0 0 0-.064.367l.494.076.494.076q.03-.187.056-.323zm-.06.345-.498-.038c-.012.148-.014.292.001.423l.497-.055.497-.055a1.3 1.3 0 0 1 .002-.237zm0 .33h-.5v.255h1v-.255zm0 .255-.497.05.03.282.497-.062.496-.062q-.015-.112-.029-.258zm.03.27-.036-.499-1.05.075.036.499.036.499 1.05-.075zm-1.05.075.482-.134a17 17 0 0 1-.392-1.95l-.495.074-.495.074q.183 1.22.418 2.07zm-.405-2.01.495-.067q-.16-1.175-.16-2.663h-1q0 1.541.17 2.797zm-.165-2.73h.5q0-.817.073-1.699l-.498-.041-.498-.041a22 22 0 0 0-.077 1.781zm.075-1.74.498.049q.09-.91.193-1.774l-.496-.06-.496-.06a81 81 0 0 0-.197 1.796zm.195-1.785.495.068q.12-.868.225-1.586l-.495-.072-.495-.072q-.105.722-.225 1.594zm.225-1.59.493.08.196-1.2-.494-.08-.494-.08-.195 1.2zm.195-1.2.497.058q.03-.258.06-.546l-.497-.052-.497-.052q-.03.282-.06.534zm.06-.54.497.052q.033-.306.033-.577h-1q0 .21-.027.473zm.03-.525-.04.498 1.32.105.04-.498.04-.498-1.32-.105zm19.11-.42.488.108.135-.608h-.623zm-.045.315.498.045v-.004zm-.03.36.499.038zm-.03.36-.498-.045-.001.011-.001.012zm-.045.9-.499-.027-.001.014zm-.03 1.23.5.011zm-.03 1.35.5.011zm-.015 2.55h-.5v.01zm.03 1.38-.5.01v.012zm.03 1.26h-.5v.013zm-.15 2.01-.463-.189zm-.465.57-.241-.438-.013.007-.013.008zm-1.665-.03.181-.466-.011-.004zm-1.035-.54-.292.406.006.004zm-.6-3.06-.388-.316-.004.006zm1.35-1.2-.276-.417-.003.002zm1.77-.9.174.469.011-.004zm2.085-.6.09.492.007-.001zm3.885.165-.204.457h.003zm1.335 1.05-.408.29.008.01zm.12 3.15-.439-.239-.004.008zm-1.08 1.155-.271-.42-.004.003zm-1.74.72.104.49.008-.003.008-.002zm-.99.135-.03-.5-.008.001-.009.001zm-.87.075-.473.163.127.365.384-.03zm-.42-1.215.018-.5-.729-.026.238.69zm.87 0-.016-.5h-.001zm.885-.105-.089-.492-.008.002-.008.001zm1.23-.405.224.447.004-.002zm.93-.78-.4-.3-.006.008zm.015-2.235.392-.31zm-.93-.66.179-.467zm-3.24-.015.108.488zm-1.92.6.176.468.01-.004zm-1.32.675.273.42.007-.006zm-.96.825-.385-.319-.007.008zm-.18 1.32-.412.283.01.015.012.014zm.435.405-.288.409zm.54.285-.173.47.011.003.011.004zm.885-.09-.384-.32-.008.01-.008.01zm.135-1.755-.5.01zm-.03-1.68-.5.008zm-.015-3.12-.5-.01v.01zm.015-1.425-.5-.01v.01zm.015-1.215-.5-.014v.014zm0-1.095h-.5v.02l.001.018zm-.015-.405.499-.038zm-.045-.315v-.5h-.64l.155.621zm5.985 1.665.233-.442-.418-.221-.244.406zm1.2.69-.262.426.008.005zm1.26.795-.28.415.005.003zm.975.705.421.27.238-.372-.339-.282zm-.615.96-.354.354.44.439.335-.523zm-.69-.57-.3.4.009.007zm-.9-.615-.274.418.009.006zm-.945-.585-.261.426.01.006zm-.825-.48-.429-.257-.269.448.46.249zm-8.46.135.06-.496-.575-.07.015.58zm1.05.105-.034.499h.018zm3.54-.195.061.496.01-.001zm1.425-.24.096.49h.008zm1.26-.315.5-.013-.017-.652-.625.186zm.03 1.17.112.487.398-.092-.01-.408zm-1.305.27.082.493.01-.002zm-1.47.21-.06-.496h-.001zm-1.41.15-.044-.498zm-2.265.045-.017.5zm-.825-.06-.5.013.012.434.43.05zm4.32-3.84-.488-.109a3 3 0 0 0-.055.383l.498.041.498.041q.014-.154.035-.248zm-.045.315-.498-.045-.031.367.499.038.499.038q.014-.192.029-.353zm-.03.36-.499-.038q-.014.192-.029.353l.498.045.498.045.031-.367zm-.03.36-.5-.022a65 65 0 0 1-.044.895l.499.027.499.027q.03-.556.046-.905zm-.045.9-.5-.013-.03 1.232.5.011.5.011.03-1.228zm-.03 1.23-.5-.011-.03 1.35.5.011.5.01.03-1.349zm-.03 1.35-.5-.011q-.015.68-.015 1.271h1q0-.579.015-1.249zm-.015 1.26h-.5v1.29h1v-1.29zm0 1.29-.5.01.03 1.38.5-.01.5-.01-.03-1.38zm.03 1.38-.5.022q.03.666.03 1.238h1q0-.598-.03-1.282zm.03 1.26-.5.013q.015.567.015.902h1q0-.354-.015-.928zm.015.915h-.5c0 .428-.052.72-.128.906l.463.189.463.189c.144-.355.202-.793.202-1.284zm-.165 1.095-.463-.189c-.079.194-.168.28-.243.32l.241.439.241.438c.325-.179.546-.473.687-.82zm-.465.57-.267-.423a.77.77 0 0 1-.423.103v1c.345 0 .672-.077.957-.257zm-.69.18v-.5c-.211 0-.473-.051-.794-.176l-.181.466-.181.466c.399.155.787.244 1.156.244zm-.975-.21.17-.47a4 4 0 0 1-.92-.48l-.285.41-.286.41q.546.382 1.151.6zm-1.035-.54.292-.406a2.8 2.8 0 0 1-.677-.676l-.41.287-.41.287q.369.525.913.914zm-.795-.795.41-.287a1.12 1.12 0 0 1-.225-.658h-1c0 .444.143.857.405 1.232zm-.315-.945h.5c0-.314.116-.648.402-1.01l-.392-.31-.392-.31c-.394.498-.618 1.044-.618 1.63zm.51-1.32.388.316a5.6 5.6 0 0 1 1.241-1.101l-.279-.415-.28-.415a6.6 6.6 0 0 0-1.458 1.3zm1.35-1.2.276.417a8 8 0 0 1 1.668-.848l-.174-.469-.174-.469q-.984.366-1.872.952zm1.77-.9.185.465a10.5 10.5 0 0 1 1.99-.573l-.09-.492-.09-.492q-1.114.204-2.18.627zm2.085-.6.097.49a9.7 9.7 0 0 1 1.853-.2v-1q-.944 0-2.047.22zm1.95-.21v.5c.673 0 1.246.115 1.731.332l.204-.457.204-.457c-.635-.283-1.352-.418-2.139-.418zm1.935.375-.201.458c.498.218.867.515 1.129.882l.407-.29.407-.29c-.378-.532-.899-.936-1.541-1.218zm1.335 1.05-.4.3c.259.346.395.758.395 1.26h1c0-.698-.194-1.326-.595-1.86zm.495 1.56h-.5c0 .529-.11.975-.314 1.351l.439.239.439.239c.296-.544.436-1.158.436-1.829zm-.375 1.59-.443-.231a2.55 2.55 0 0 1-.908.966l.271.42.271.42c.545-.352.968-.8 1.252-1.344zm-1.08 1.155-.275-.417c-.412.271-.936.492-1.585.651l.12.486.12.485c.731-.18 1.367-.44 1.895-.788zm-1.74.72-.104-.49a6 6 0 0 1-.916.126l.03.499.03.5q.533-.032 1.064-.146zm-.99.135-.047-.498q-.477.045-.861.075l.038.498.038.498q.396-.03.879-.075zm-.87.075.473-.163-.42-1.215-.473.163-.473.163.42 1.215zm-.42-1.215-.018.5q.438.015.905 0l-.017-.5-.017-.5q-.433.015-.835 0zm.87 0 .016.5q.506-.017.974-.116l-.105-.489-.105-.489a4.5 4.5 0 0 1-.796.094zm.885-.105.089.492q.728-.131 1.365-.45l-.224-.447-.224-.447q-.502.252-1.095.36zm1.23-.405.228.445a3.05 3.05 0 0 0 1.108-.933l-.406-.292-.406-.292a2.06 2.06 0 0 1-.752.627zm.93-.78.4.3c.313-.417.46-.911.46-1.455h-1c0 .356-.093.632-.26.855zm.36-1.155h.5c0-.524-.142-.998-.453-1.39l-.392.31-.392.31c.149.188.237.434.237.77zm-.345-1.08.392-.31a2.64 2.64 0 0 0-1.143-.817l-.179.467-.179.467c.317.122.55.292.717.504zm-.93-.66.179-.467a4.1 4.1 0 0 0-1.484-.258v1c.428 0 .801.067 1.126.192zm-1.305-.225v-.5q-1.044 0-2.043.222l.108.488.108.488a8.4 8.4 0 0 1 1.827-.198zm-1.935.21-.108-.488q-.989.22-1.998.624l.186.464.186.464q.94-.375 1.842-.576zm-1.92.6-.176-.468a6.8 6.8 0 0 0-1.424.729l.28.414.28.414q.547-.37 1.216-.62zm-1.32.675-.272-.42a4.7 4.7 0 0 0-1.073.926l.385.319.385.319c.201-.242.479-.485.847-.725zm-.96.825-.392-.31c-.27.341-.453.723-.453 1.135h1c0-.108.048-.276.237-.514zm-.345.825h-.5c0 .285.094.547.253.778l.412-.283.412-.283a.37.37 0 0 1-.077-.212zm.165.495-.39.312q.228.285.537.502l.288-.409.288-.408a1.6 1.6 0 0 1-.333-.31zm.435.405-.288.409q.306.217.655.345l.173-.469.173-.47a2 2 0 0 1-.425-.223zm.54.285-.151.477c.22.07.438.113.646.113v-1c-.072 0-.184-.016-.344-.067zm.495.09v.5a.96.96 0 0 0 .79-.38l-.4-.3-.4-.3.008-.008.017-.011.007-.003-.022.002zm.39-.18.384.32c.208-.25.266-.574.266-.875h-1c0 .094-.01.157-.02.196-.011.038-.019.045-.014.039zm.15-.555h.5q0-.443-.015-1.21l-.5.01-.5.01q.015.763.015 1.19zm-.015-1.2.5-.01-.03-1.678-.5.008-.5.008.03 1.682zm-.03-1.68.5-.008a106 106 0 0 1-.015-1.732h-1q0 .83.015 1.748zm-.015-1.74h.5v-1.38h-1v1.38zm0-1.38.5.01q.015-.74.015-1.435h-1q0 .684-.015 1.415zm.015-1.425.5.01q.015-.693.015-1.225h-1q0 .518-.015 1.204zm.015-1.215.5.014q.015-.526.015-.764h-1q0 .212-.015.736zm.015-.75h.5q0-.174-.016-.383l-.499.038-.499.038q.015.181.014.307zm-.015-.345h.5q0-.228-.016-.443l-.499.038-.499.038q.014.175.014.367zm-.015-.405.499-.038a2.5 2.5 0 0 0-.059-.398l-.485.121-.485.121c.01.042.023.116.031.232zm-.045-.315v.5h1.335v-1h-1.335zm5.985 1.665-.233.442q.522.275 1.171.674l.262-.426.262-.426q-.67-.412-1.229-.706zm1.2.69-.254.43q.648.383 1.234.78l.28-.415.28-.414a26 26 0 0 0-1.286-.811zm1.26.795-.275.418q.602.396.93.671l.32-.384.32-.384q-.392-.325-1.02-.739zm.975.705-.421-.27-.615.96.421.27.421.27.615-.96zm-.615.96.354-.354a6 6 0 0 0-.753-.623l-.291.407-.291.407q.396.283.627.517zm-.69-.57.3-.4a13 13 0 0 0-.935-.639l-.265.424-.265.424q.463.29.865.591zm-.9-.615.274-.418q-.49-.322-.968-.6l-.251.433-.251.432q.453.263.922.571zm-.945-.585.261-.426a18 18 0 0 0-.848-.494l-.238.44-.238.44q.345.187.802.466zm-.825-.48.429.257.54-.9-.429-.257-.429-.257-.54.9zm-8.46.135-.06.496q.623.077 1.076.108l.034-.499.034-.499q-.417-.029-1.023-.102zm1.05.105-.017.5q.458.015.887.015v-1q-.41 0-.853-.015zm.87.015v.5q.581 0 1.288-.062l-.043-.498-.043-.498a14 14 0 0 1-1.202.058zm1.245-.06.043.498q.7-.06 1.443-.152l-.061-.496-.061-.496q-.727.088-1.407.148zm1.425-.15.071.495a29 29 0 0 0 1.45-.244l-.096-.491-.096-.49a28 28 0 0 1-1.4.235zm1.425-.24.104.49q.72-.154 1.298-.326l-.142-.479-.142-.48q-.532.159-1.222.306zm1.26-.315-.5.013.03 1.17.5-.013.5-.013-.03-1.17zm.03 1.17-.112-.487q-.574.132-1.285.266l.092.491.092.491a33 33 0 0 0 1.325-.274zm-1.305.27-.082-.493a32 32 0 0 1-1.448.207l.06.496.06.496a33 33 0 0 0 1.492-.213zm-1.47.21-.061-.496q-.727.089-1.393.148l.044.498.044.498q.684-.06 1.427-.152zm-1.41.15-.044-.498q-.66.059-1.126.058v1q.525 0 1.214-.062zm-1.17.06v-.5q-.64 0-1.078-.015l-.017.5-.017.5q.462.015 1.112.015zm-1.095-.015.017-.5a10 10 0 0 1-.785-.057l-.057.497-.057.497q.412.046.865.063zm-.825-.06.5-.013-.03-1.14-.5.013-.5.013.03 1.14zm20.475 2.31v-.5h-.5v.5zm1.155 0h.5v-.5h-.5zm0 7.035v.5h.5v-.5zm-1.155 0h-.5v.5h.5zm-3.48-9.525v-.5h-.5v.5zm0 1.635h-.5v.5h.5zm8.115 0v.5h.5v-.5zm0-1.635h.5v-.5h-.5zm-8.115-2.565v-.5h-.5v.5zm0 1.605h-.5v.5h.5zm8.115 0v.5h.5v-.5zm0-1.605h.5v-.5h-.5zm-9.225-1.005v-.5h-.5v.5zm10.38 0h.5v-.5h-.5zm0 6.225v.5h.5v-.5zm-10.38 0h-.5v.5h.5zm-1.575 2.22v-.5h-.5v.5zm13.65 0h.5v-.5h-.5zm0 1.095v.5h.5v-.5zm-13.65 0h-.5v.5h.5zm6.165-3.48v.5h1.155v-1h-1.155zm1.155 0h-.5V24.2h1v-7.035zm0 7.035v-.5h-1.155v1h1.155zm-1.155 0h.5v-7.035h-1V24.2zm-3.48-9.525h-.5v1.635h1v-1.635zm0 1.635v.5h8.115v-1h-8.115zm8.115 0h.5v-1.635h-1v1.635zm0-1.635v-.5h-8.115v1h8.115zm-8.115-2.565h-.5v1.605h1V12.11zm0 1.605v.5h8.115v-1h-8.115zm8.115 0h.5V12.11h-1v1.605zm0-1.605v-.5h-8.115v1h8.115zm-9.225-1.005v.5h10.38v-1h-10.38zm10.38 0h-.5v6.225h1v-6.225zm0 6.225v-.5h-10.38v1h10.38zm-10.38 0h.5v-6.225h-1v6.225zm-1.575 2.22v.5h13.65v-1h-13.65zm13.65 0h-.5v1.095h1V19.55zm0 1.095v-.5h-13.65v1h13.65zm-13.65 0h.5V19.55h-1v1.095zm24.78-9.255.485.121.141-.565-.58-.054zm-.09.405.489.105.001-.007zm-.09.42-.489-.105-.004.017-.002.017zm-.075.345-.474-.158-.009.024-.005.025zm-.51 1.95-.479-.143-.002.007zm-.645 1.995.47.17zm-.78 1.845-.449-.22-.003.006zm-.855 1.485.404.295.003-.004zm-1.155 1.41-.366-.34h-.001zm-3.495.99-.274.418zm-.765-.915-.452.215zm.06-3.36-.467-.178-.003.006zm.975-1.74-.392-.31-.003.004zm1.41-1.32.279.415.005-.003zm2.235-1.08-.135-.482zm4.875.3-.237.44.002.001zm1.8 1.725-.432.251.004.007zm-.015 5.16-.427-.26-.001.002zm-1.875 1.77.241.438h.002zm-2.805.885-.417.276.174.263.312-.044zm-.705-1.065-.044-.498-.836.074.463.7zm2.085-.45-.176-.468-.003.001zm1.53-.9.335.371zm.93-1.29-.456-.205-.004.008zm-.165-3.555-.435.247.002.004zm-1.41-1.365-.241.438.003.002zm-4.185-.135.167.471.004-.001zm-1.86.99.291.407.003-.003zM130.76 17l.409.288zm-.735 1.38-.468-.176-.002.006zm.045 2.565-.412.284.006.008.006.008zm1.56.21.244.436.007-.003.006-.004zm.735-.585.354.354zm.69-.795-.397-.304-.001.002zm.615-.9-.421-.27-.004.006-.004.007zm.735-1.35-.452-.213zm.675-1.635-.469-.175-.001.005zm.57-1.77-.481-.136-.002.005zm.405-1.71-.49-.098-.002.007zm.06-.555-.498-.045-.001.011v.011zm.03-.585.046-.498-.546-.05v.548zm-4.845.795.491-.094-.106-.557-.54.175zm.135.675-.489.102.002.012.003.012zm.165.66-.486.116.002.009.002.009zm.375 1.215-.474.158zm.465 1.35-.471.168.003.009zm.525 1.275-.456.205.002.005zm.51.975.431-.254-.005-.008zm.885 1.35.406-.292zm1.035 1.2.318.386.437-.36-.412-.39zm-.945.78-.375.33.32.364.373-.308zm-.87-1.08.403-.297zm-.84-1.305.434-.248-.007-.013-.009-.013zm-.57-1.05-.456.206.002.004zm-.585-1.35-.465.184.003.008zm-.555-1.47-.472.166.002.003zm-.48-1.47-.48.14.001.003zm-.24-.705-.474.158.004.012.004.012zm-.255-.645-.155-.476-.54.176.243.514zm7.38-1.08-.485-.121a10 10 0 0 0-.095.428l.49.098.49.098q.043-.216.085-.382zm-.09.405-.489-.105v.003h-.001v.005h-.001v.004h-.001v.005h-.001v.004l-.001.001v.004h-.001v.004l-.001.001v.004l-.001.001v.004h-.001v.004l-.001.001v.004l-.001.001v.003l-.001.001v.004l-.001.001v.004l-.001.001v.004l-.001.001v.003l-.001.001v.004l-.001.001v.004l-.001.001v.003l-.001.001v.004l-.001.001v.004l-.001.001v.003l-.001.001v.004l-.001.001v.004l-.001.001v.003l-.001.001v.004l-.001.001v.004h-.001v.004l-.001.001v.004h-.001v.005h-.001v.005h-.001v.004h-.001v.005h-.001v.004l-.001.002v.003h-.001v.004l-.001.002v.003l-.001.002v.003h-.001v.004l-.001.002v.003l-.001.002v.002l-.001.002v.003l-.001.002v.004h-.001v.003l-.001.002v.003l-.001.002v.004h-.001v.005h-.001v.004h-.001v.005h-.001v.004l-.001.001v.004h-.001v.004l-.001.001v.004l-.001.001v.004h-.001v.004l-.001.001v.004l-.001.001v.003l-.001.001v.004l-.001.001v.004l-.001.001v.004l-.001.001v.003l-.001.001v.004l-.001.001v.004l-.001.001v.003l-.001.001v.004l-.001.001v.004l-.001.001V12l-.001.001v.004l-.001.001v.004l-.001.001v.003l-.001.001v.004l-.001.001v.004h-.001v.004l-.001.001v.004h-.001v.005h-.001v.005h-.001v.004h-.001v.005h-.001v.004l-.001.002v.003h-.001v.004l-.001.002v.003l-.001.002v.003h-.001v.004l-.001.002v.003l-.001.002v.002l-.001.002v.003l-.001.002v.004h-.001v.005h-.001v.003l-.001.002v.001l.489.105.489.105v-.003h.001v-.005h.001v-.004h.001v-.005h.001v-.004l.001-.001v-.004h.001v-.004l.001-.001v-.004l.001-.001v-.004h.001v-.004l.001-.001v-.004l.001-.001v-.004l.001-.001v-.003l.001-.001v-.004l.001-.001v-.004l.001-.001v-.003l.001-.001v-.004l.001-.001v-.004l.001-.001v-.003l.001-.001v-.004l.001-.001v-.004l.001-.001v-.003l.001-.001v-.004l.001-.001v-.004l.001-.001v-.003l.001-.001V12.2l.001-.001v-.004h.001v-.005h.001v-.004h.001v-.005h.001v-.005h.001v-.004h.001v-.005h.001v-.004l.001-.002v-.003h.001v-.004l.001-.002v-.003l.001-.002v-.003h.001v-.004l.001-.002v-.003l.001-.002v-.002l.001-.002v-.003l.001-.002v-.004h.001v-.005h.001v-.003l.001-.002v-.004h.001v-.005h.001v-.004h.001v-.005h.001v-.004l.001-.001v-.004h.001v-.004l.001-.001v-.004l.001-.001v-.004h.001v-.004l.001-.001v-.004l.001-.001v-.004l.001-.001v-.003l.001-.001v-.004l.001-.001v-.004l.001-.001v-.003l.001-.001v-.004l.001-.001v-.004l.001-.001v-.003l.001-.001v-.004l.001-.001v-.004l.001-.001v-.003l.001-.001v-.004l.001-.001V12l.001-.001v-.003l.001-.001v-.004l.001-.001v-.004h.001v-.005h.001v-.004h.001v-.005h.001v-.005h.001v-.004h.001v-.005h.001v-.004l.001-.002v-.003h.001v-.004l.001-.002v-.003l.001-.002v-.003h.001v-.004l.001-.002v-.003l.001-.002v-.004h.001v-.003l.001-.002v-.004h.001v-.005h.001v-.003l.001-.002V11.9zm-.09.42-.495-.07a1.6 1.6 0 0 1-.054.257l.474.158.474.158q.064-.195.096-.432zm-.075.345-.488-.109a28 28 0 0 1-.501 1.916l.479.143.479.143q.305-1.02.519-1.985zm-.51 1.95-.481-.136a29 29 0 0 1-.634 1.96l.47.171.47.17q.366-1.006.656-2.029zm-.645 1.995-.47-.17a18 18 0 0 1-.759 1.794l.449.221.449.22q.432-.881.801-1.894zm-.78 1.845-.452-.214a9 9 0 0 1-.81 1.408l.407.291.407.29q.48-.673.9-1.561zm-.855 1.485-.404-.295q-.555.758-1.117 1.365l.366.34.366.34a16 16 0 0 0 1.193-1.455zm-1.155 1.41-.367-.34q-.529.568-1.052.866l.249.434.249.434c.452-.26.88-.615 1.288-1.054zm-1.17.96-.249-.433a2.05 2.05 0 0 1-1.041.278v1c.548 0 1.064-.138 1.539-.412zm-1.29.345v-.5c-.269 0-.519-.075-.761-.233l-.274.418-.274.418c.398.262.838.397 1.309.397zm-1.035-.315.274-.418c-.232-.152-.43-.381-.587-.712l-.452.215-.452.215c.223.47.535.85.943 1.118zm-.765-.915.452-.215c-.15-.315-.237-.727-.237-1.255h-1c0 .632.103 1.2.333 1.685zm-.285-1.47h.5q-.001-.851.315-1.719l-.47-.171-.47-.172a6 6 0 0 0-.375 2.062zm.345-1.89.467.178a6.3 6.3 0 0 1 .903-1.612l-.395-.306-.395-.306a7.2 7.2 0 0 0-1.047 1.868zm.975-1.74.392.31a5.8 5.8 0 0 1 1.297-1.215l-.279-.415-.279-.415a6.8 6.8 0 0 0-1.523 1.425zm1.41-1.32.284.412c.701-.484 1.396-.817 2.086-1.01l-.135-.482-.135-.482q-1.215.344-2.384 1.15zm2.235-1.08.135.482a8 8 0 0 1 2.13-.297v-1q-1.21 0-2.4.333zm2.265-.315v.5c.908 0 1.695.19 2.373.555l.237-.44.237-.44c-.842-.454-1.795-.675-2.847-.675zm2.61.615-.235.441c.689.367 1.22.877 1.603 1.535l.432-.251.432-.251a4.96 4.96 0 0 0-1.997-1.915zm1.8 1.725-.428.258c.386.641.588 1.404.588 2.307h1c0-1.057-.238-2.004-.732-2.823zm.66 2.565h-.5c0 .912-.206 1.684-.602 2.335l.427.26.427.26c.504-.83.748-1.787.748-2.855zm-.675 2.595-.428-.258c-.391.649-.949 1.18-1.69 1.59l.243.438.243.437c.879-.488 1.571-1.138 2.06-1.949zm-1.875 1.77-.241-.438c-.738.406-1.613.685-2.633.828l.069.495.069.495c1.12-.157 2.115-.468 2.977-.942zm-2.805.885.417-.276-.705-1.065-.417.276-.417.276.705 1.065zm-.705-1.065.044.498q1.24-.108 2.22-.481l-.179-.467-.179-.467q-.82.317-1.95.419zm2.085-.45.176.468c.658-.248 1.225-.578 1.689-.997l-.335-.371-.335-.371c-.356.321-.81.591-1.371.803zm1.53-.9.335.371a4.2 4.2 0 0 0 1.055-1.464l-.46-.197-.46-.197q-.269.63-.805 1.116zm.93-1.29.456.205a4.3 4.3 0 0 0 .374-1.795h-1c0 .504-.097.963-.286 1.385zm.33-1.59h.5c0-.817-.183-1.56-.562-2.215l-.433.25-.433.25c.281.485.428 1.052.428 1.715zm-.495-1.965.435-.247a4 4 0 0 0-1.607-1.558l-.238.44-.238.44c.531.287.932.677 1.213 1.172zm-1.41-1.365.241-.438c-.685-.377-1.471-.557-2.341-.557v1c.73 0 1.344.15 1.859.433zm-2.1-.495v-.5q-1.18 0-2.256.39l.171.47.171.47q.904-.33 1.914-.33zm-2.085.36-.167-.471q-1.048.371-1.987 1.057l.294.404.294.404a6.8 6.8 0 0 1 1.733-.923zm-1.86.99-.291-.407a5.1 5.1 0 0 0-1.213 1.229l.409.288.409.288q.418-.593.977-.991zM130.76 17l-.409-.288a6.7 6.7 0 0 0-.794 1.492l.468.176.468.176q.246-.658.676-1.268zm-.735 1.38-.47-.17a4.5 4.5 0 0 0-.285 1.55h1q-.001-.579.225-1.21zm-.255 1.38h-.5c0 .56.111 1.067.388 1.469l.412-.284.412-.284c-.123-.178-.212-.462-.212-.901zm.3 1.185-.4.3c.301.402.722.62 1.225.62v-1a.49.49 0 0 1-.425-.22zm.825.42v.5c.341 0 .669-.1.979-.274l-.244-.436-.244-.436c-.19.106-.352.146-.491.146zm.735-.21.257.429q.435-.263.832-.66l-.354-.354-.354-.354a3.3 3.3 0 0 1-.638.51zm.735-.585.354.354a8 8 0 0 0 .734-.847l-.398-.302-.398-.302q-.312.409-.646.743zm.69-.795.397.304q.36-.471.647-.947l-.429-.257-.429-.257a9 9 0 0 1-.583.853zm.615-.9.421.27q.396-.618.766-1.407l-.452-.213-.452-.213q-.35.741-.704 1.293zm.735-1.35.452.213q.371-.788.693-1.678l-.47-.17-.47-.17a19 19 0 0 1-.657 1.592zm.675-1.635.468.175q.338-.906.585-1.814l-.483-.131-.483-.13a20 20 0 0 1-.555 1.725zm.57-1.77.481.136q.26-.92.416-1.755l-.492-.091-.492-.091a18 18 0 0 1-.394 1.665zm.405-1.71.49.098q.055-.276.069-.63l-.499-.023-.499-.023q-.016.306-.051.48zm.06-.555.498.045q.032-.346.032-.63h-1q0 .226-.028.54zm.03-.585-.046.498 1.29.12.046-.498.046-.498-1.29-.12zm-4.845.795-.491.094q.06.319.137.683l.489-.102.489-.102q-.073-.357-.133-.667zm.135.675-.484.126q.088.34.163.65l.486-.116.486-.116a32 32 0 0 0-.167-.67zm.165.66-.482.134q.155.555.383 1.24l.474-.159.474-.158a25 25 0 0 1-.367-1.19zm.375 1.215-.474.158q.227.68.468 1.36l.471-.168.471-.168a71 71 0 0 1-.462-1.34zm.465 1.35-.468.177q.26.688.537 1.303l.456-.205.456-.205q-.263-.585-.513-1.247zm.525 1.275-.454.21c.185.4.365.745.538 1.027l.426-.262.426-.262a9 9 0 0 1-.482-.922zm.51.975-.43.254q.402.681.909 1.387l.406-.291.406-.292a18 18 0 0 1-.861-1.312zm.885 1.35-.406.291q.518.725 1.098 1.272l.343-.363.343-.364a8 8 0 0 1-.972-1.128zm1.035 1.2-.318-.386-.945.78.318.386.318.386.945-.78zm-.945.78.375-.33q-.435-.494-.842-1.047l-.403.297-.403.297q.433.585.898 1.114zm-.87-1.08.403-.297a13 13 0 0 1-.809-1.256l-.434.248-.434.248q.432.756.871 1.354zm-.84-1.305.418-.274a8 8 0 0 1-.534-.986l-.454.21-.454.21q.296.64.606 1.114zm-.57-1.05.456-.206q-.282-.622-.579-1.336l-.462.192-.462.192q.303.726.591 1.364zm-.585-1.35.465-.184a52 52 0 0 1-.55-1.455l-.47.169-.47.17q.272.756.56 1.484zm-.555-1.47.471-.166a32 32 0 0 1-.472-1.447l-.479.143-.479.143q.213.718.488 1.493zm-.48-1.47.48-.14a9 9 0 0 0-.254-.747l-.466.182-.466.182q.127.324.226.663zm-.24-.705.474-.158a6 6 0 0 0-.277-.701l-.452.214-.452.214q.12.253.233.59zm-.255-.645.155.475 1.245-.405-.155-.475-.155-.476-1.245.406zm19.635.405.072-.495-.572-.084v.579zm1.425.15-.037.499h.01zm1.695.045v.5h.008zm1.68-.06.028.5.009-.001zm1.365-.15h.5v-.588l-.58.094zm0 1.215.05.498.45-.046v-.452zm-1.41.105.019.5h.009zm-3.33 0-.028.5h.009zm-1.425-.105h-.5v.454l.451.044zm.585 4.905.484.125.147-.566-.583-.057zm-.12 1.89-.462.19.007.017.008.017zm.39.435-.293.405.013.01.013.008zm.78.3-.118.486.007.002.007.001zm3.18.015.05.498.008-.001zm1.8-.3.5-.012-.015-.605-.591.128zm.03 1.26.104.49.406-.087-.01-.415zm-1.65.24.04.498h.007zm-4.875-.525-.284.412.003.002zM149 19.85l-.493-.085-.001.007-.001.007zm.195-.975.048-.498-.44-.043-.096.433zm-2.37-7.155.485.121.142-.567-.582-.052zm-.09.315-.478-.147-.004.013-.003.013zm-.105.375-.478-.147-.004.013-.003.013zm-.075.315-.488-.108-.002.01-.002.01zm-.18.975.491.095v-.002zm-.21 1.17-.493-.082-.002.01zm-.18 1.26-.495-.07-.001.01zm-.135 1.23-.498-.05-.001.013zm-.015 2.16-.499.03v.008l.001.007zm.105 1.05-.497.054.963.128zm.585-1.5-.461-.195-.003.01zm.285-.69.303-.398-.523-.398-.244.61zm.63.48.47.17.125-.345-.292-.223zm-.42 1.185.472.165zm-.405 1.245-.479-.144-.002.008zm-.24.93-.489-.106-.001.008-.002.009zm-.06.36-.494-.076zm-.015.315-.496.062zm.015.255h-.5v.025l.002.025zm.03.27.035.499.527-.037-.066-.524zm-1.08.075-.481.136.111.39.405-.027zm-.39-2.04-.496.065zm-.09-4.455.498.044v-.001zm.195-1.68.495.073v-.001zm.225-1.5-.493-.086-.001.01zm.18-1.155-.493-.082-.002.009-.001.009zm.075-.54.497.055v-.003zm.03-.525.045-.498-.545-.049v.547zm4.2 1.275-.072.495q.637.093 1.46.154l.037-.499.037-.499a20 20 0 0 1-1.39-.146zm1.425.15-.027.5q.838.045 1.722.045v-1q-.857 0-1.668-.044zm1.695.045.008.5q.894-.015 1.7-.06l-.028-.5-.028-.5q-.784.045-1.66.06zm1.68-.06.037.499q.824-.061 1.408-.155l-.08-.494-.08-.494q-.526.086-1.322.145zm1.365-.15h-.5v1.215h1V12.86zm0 1.215-.05-.497a32 32 0 0 1-1.388.103l.028.499.028.5q.817-.046 1.432-.107zm-1.41.105-.019-.5q-.785.03-1.646.03v1q.879 0 1.684-.03zm-1.665.03v-.5q-.846 0-1.646-.03l-.019.5-.019.5q.82.03 1.684.03zm-1.665-.03.028-.5a34 34 0 0 1-1.404-.103l-.049.498-.049.498q.629.06 1.446.106zm-1.425-.105h.5v-1.2h-1v1.2zm.585 4.905-.484-.125q-.108.419-.173.77l.492.09.492.09q.055-.309.157-.7zm-.165.735-.492-.09a4 4 0 0 0-.068.735h1q0-.267.052-.556zm-.06.645h-.5q.002.361.143.7l.462-.19.462-.19a.8.8 0 0 1-.067-.32zm.105.51-.447.224c.124.247.314.45.544.616l.293-.405.293-.405a.7.7 0 0 1-.236-.254zm.39.435-.267.423c.253.16.571.276.929.363l.118-.486.118-.486c-.302-.073-.504-.157-.631-.237zm.78.3-.104.49c.377.079.835.115 1.364.115v-1c-.491 0-.873-.034-1.156-.094zm1.26.105v.5q1.042 0 1.97-.093l-.05-.497-.05-.498q-.872.088-1.87.088zm1.92-.09.058.497a19 19 0 0 0 1.848-.308l-.106-.489-.106-.489q-.876.19-1.752.292zm1.8-.3-.5.012.03 1.26.5-.012.5-.012-.03-1.26zm.03 1.26-.104-.49q-.67.144-1.593.232l.047.498.047.498a15 15 0 0 0 1.707-.249zm-1.65.24-.04-.498q-.906.073-2.06.073v1q1.185 0 2.14-.077zm-2.1.075v-.5c-1.227 0-2.029-.199-2.494-.514l-.281.414-.281.414c.715.485 1.763.686 3.056.686zm-2.775-.6.284-.412c-.446-.307-.654-.704-.654-1.238h-1c0 .866.372 1.569 1.086 2.062zm-.87-1.65h.5q0-.335.055-.724L149 19.85l-.495-.07q-.065.45-.065.865zm.06-.795.493.085q.072-.42.19-.951l-.488-.109-.488-.108q-.122.549-.2.998zm.195-.975-.048.498 1.08.105.048-.498.048-.498-1.08-.105zm-2.37-7.155-.485-.121a6 6 0 0 1-.083.289l.478.147.478.147a7 7 0 0 0 .097-.34zm-.09.315-.485-.121q-.041.165-.098.349l.478.147.478.147a8 8 0 0 0 .112-.4zm-.105.375-.485-.121q-.047.184-.078.328l.488.108.488.109q.029-.128.072-.303zm-.075.315-.492-.088q-.075.417-.179.97l.491.093.491.093q.106-.557.181-.98zm-.18.975-.491-.095q-.107.548-.212 1.183l.493.082.493.082q.105-.624.208-1.157zm-.21 1.17-.495-.072q-.09.616-.18 1.263l.495.069.495.07q.09-.645.18-1.258zm-.18 1.26-.496-.06q-.076.636-.137 1.24l.498.05.498.05q.059-.596.134-1.22zm-.135 1.23-.499-.037q-.046.615-.046 1.147h1q0-.488.044-1.073zm-.045 1.11h-.5q0 .57.031 1.08l.499-.03.499-.03a17 17 0 0 1-.029-1.02zm.03 1.05-.498.045q.046.5.106 1.059l.497-.054.497-.054a62 62 0 0 1-.104-1.041zm.105 1.05.466.182.286-.737-.467-.18-.467-.18q-.149.39-.284.733zm.285-.735.467.18q.149-.387.297-.76l-.464-.185-.464-.186q-.152.379-.303.771zm.3-.765.46.195q.167-.393.289-.7l-.464-.185-.464-.186q-.118.295-.281.681zm.285-.69-.303.398.63.48.303-.398.303-.398-.63-.48zm.63.48-.47-.17q-.197.543-.422 1.19l.472.165.472.165q.225-.643.418-1.18zm-.42 1.185-.472-.165q-.228.656-.412 1.266l.479.144.479.144q.176-.589.398-1.224zm-.405 1.245-.481-.136a18 18 0 0 0-.248.96l.489.106.489.106q.069-.322.232-.9zm-.24.93-.492-.09q-.032.174-.062.374l.494.076.494.076q.03-.19.058-.347zm-.06.36-.494-.076c-.023.15-.035.307-.017.453l.496-.062.496-.062a.7.7 0 0 1 .013-.177zm-.015.315-.496.062q.01.085.011.193h1q0-.162-.019-.317zm.015.255-.498.05q.016.155.032.282l.496-.062.496-.062-.028-.258zm.03.27-.035-.499-1.08.075.035.499.035.499 1.08-.075zm-1.08.075.481-.136c-.141-.499-.267-1.153-.375-1.97l-.496.066-.496.066q.167 1.267.405 2.11zm-.39-2.04.496-.065a21 21 0 0 1-.161-2.71h-1q0 1.542.169 2.84zm-.165-2.775h.5q0-.802.073-1.636l-.498-.044-.498-.044a20 20 0 0 0-.077 1.724zm.075-1.68.498.043q.073-.855.192-1.65l-.495-.073-.495-.073q-.121.825-.198 1.71zm.195-1.68.495.072q.12-.823.224-1.495l-.494-.077-.494-.077q-.106.678-.226 1.505zm.225-1.5.493.086q.12-.696.183-1.177l-.496-.064-.496-.064q-.058.45-.177 1.133zm.18-1.155.493.082q.048-.284.079-.567l-.497-.055-.497-.055q-.029.256-.071.513zm.075-.54.497.052q.033-.307.033-.577h-1q0 .21-.027.473zm.03-.525-.045.498 1.335.12.045-.498.045-.498-1.335-.12zm19.815 7.77-.499.026.024.474h.475zm-.3-5.82-.5.008v.01l.001.008zm-.03-1.77v-.5h-.509l.009.509zm1.65 0 .5.009.009-.509h-.509zm-.03 1.77.499.026.001-.009v-.008zm-.3 5.82v.5h.475l.024-.474zm-1.185 3.435-.354.354.01.009zm.015-1.44.344.363.01-.01zm1.35 0-.354.354.01.009zm0 1.44.344.363zm-1.17-3.435.499-.026-.3-5.82-.499.026-.499.026.3 5.82zm-.3-5.82.5-.009-.03-1.77-.5.009-.5.009.03 1.77zm-.03-1.77v.5h1.65v-1h-1.65zm1.65 0-.5-.008-.03 1.77.5.008.5.008.03-1.77zm-.03 1.77-.499-.026-.3 5.82.499.026.499.026.3-5.82zm-.3 5.82v-.5h-.99v1h.99zm-.495 3.705v-.5a.47.47 0 0 1-.346-.133l-.344.363-.344.363c.286.271.641.407 1.034.407zm-.69-.27.354-.354c-.07-.07-.124-.173-.124-.366h-1c0 .407.126.783.416 1.074zm-.27-.72h.5c0-.185.053-.286.129-.357l-.344-.363-.344-.363c-.304.289-.441.668-.441 1.083zm.285-.72.354.354a.42.42 0 0 1 .321-.139v-1c-.398 0-.748.151-1.029.431zm.675-.285v.5c.123 0 .222.039.321.139l.354-.354.354-.354a1.43 1.43 0 0 0-1.029-.431zm.675.285-.344.363c.076.071.129.172.129.357h1c0-.415-.137-.794-.441-1.083zm.285.72h-.5c0 .185-.053.286-.129.357l.344.363.344.363c.304-.289.441-.668.441-1.083zm-.285.72-.344-.363a.45.45 0 0 1-.331.133v1c.389 0 .737-.14 1.019-.407z"/><path fill="#000" fill-rule="evenodd" d="M192.59 3.098c.995.393-4.016 9.79-5.686 13.007-2.039 3.93-3.599 7.517-5.429 11.239-.627 1.265-2.924 6.141-4.041 5.589-.442-.21 1.277-4.201 1.67-4.938 1.732-3.267 3.673-7.873 5.404-11.41 1.106-2.26 6.363-14.027 8.082-13.487m-1.252 24.259c-.541.479-3.771 3.758-5.884 5.22-1.019.7-1.682.872-1.437-.16.332-1.216 6.854-7.456 8.009-8.549.589-.552 5.134-5.429 4.839-2.469-.123 1.278-3.845 4.385-5.527 5.97zM11.536 4.573c.332.491 1.412 1.879 4.643 7.492 3.132 5.466 8.389 15.108 10.293 18.412.994 1.72-.492 2.112-.995 1.474-.221-.283-4.692-7.358-8.844-14.371-3.267-5.49-6.325-11.079-7-12.418-.455-.909 1.03-2.002 1.89-.577zm-1.314 20.143c1.314 1.265 4.74 4.336 6.08 6.142 1.424 1.768-.615 1.805-1.536.909-.982-.958-5.158-5.11-6.166-6.338-1.56-1.904-.331-2.641 1.634-.7z" clip-rule="evenodd"/></svg>