<svg width="310" height="245" viewBox="0 0 310 245" fill="none" xmlns="http://www.w3.org/2000/svg">
<path d="M215.668 75.1339C215.517 79.8727 213.217 85.2704 212.333 89.5353C211.449 93.8002 210.137 96.031 209.027 99.8856C214.778 101.694 220.447 103.758 226.157 105.694C230.976 104.728 235.808 103.792 240.645 102.908C242.893 98.9089 245.095 94.8809 247.36 90.8934C245.707 84.0741 241.436 78.6938 239.356 72.0363C234.588 73.273 229.74 74.1572 224.972 75.4055C221.869 75.2495 218.783 75.1859 215.668 75.1397V75.1339Z" fill="#FFE0D2"/>
<path d="M212.073 68.6325C212.258 73.3193 212.009 77.9657 210.813 82.5196C210.241 84.6925 209.496 86.8192 208.53 88.8534C207.86 90.2635 206.866 93.2513 205.52 94.1528C202.422 96.2159 205.329 101.249 208.45 99.169C212.402 96.5338 214.535 90.2057 215.905 85.8541C217.65 80.3004 218.112 74.4347 217.887 68.644C217.742 64.9166 211.934 64.8992 212.079 68.644L212.073 68.6325Z" fill="#3E3A39"/>
<path d="M232.964 60.6688C235.01 71.7531 238.576 82.635 244.28 92.4016C246.164 95.6264 251.186 92.7079 249.296 89.4717C243.835 80.1154 240.529 69.742 238.57 59.1258C237.894 55.4561 232.294 57.0107 232.97 60.6688H232.964Z" fill="#3E3A39"/>
<path d="M233.231 100.111C230.52 100.435 227.706 100.267 224.591 99.5563C217.691 97.9844 212.906 93.7194 207.462 88.5587C207.092 88.2062 201.001 89.1193 199.972 89.1713C196.794 89.3447 194.476 88.5356 191.483 88.7494C186.068 89.1366 182.514 89.5643 177.596 92.8352C150.243 111.01 151.769 151.337 163.466 177.949C168.655 189.762 174.354 200.378 184.149 208.099C190.98 213.479 198.279 213.698 206.537 214.034C210.71 214.201 214.801 213.294 219.095 212.78C222.672 212.352 226.775 212.155 229.971 210.127C229.971 210.127 230.907 209.532 231.844 208.936C231.919 208.948 232 208.954 232 208.954C240.033 209.965 246.598 212.127 254.902 212.392C270.396 212.884 280.607 212.687 290.582 198.02C309.745 169.83 316.669 121.291 289.097 95.4474C284.109 90.7721 279.313 88.7321 273.037 88.0502C265.108 87.1891 258.034 89.9804 250.262 87.8363C248.973 91.7141 246.592 94.933 243.026 96.817C239.663 98.5969 236.519 99.7181 233.231 100.111Z" fill="#3E3A39"/>
<path d="M233.231 97.655C228.555 98.1174 223.816 97.3372 219.656 95.1007C215.778 93.0087 212.888 89.94 209.548 87.1545C207.398 85.363 204.688 86.1663 202.087 86.4783C198.504 86.906 195.054 86.1258 191.483 86.2934C183.19 86.6864 176.602 89.732 170.47 95.2799C165.384 99.88 161.368 105.642 158.6 111.9C146.764 138.692 154.583 172.055 169.956 195.795C174.434 202.718 180.445 209.925 188.125 213.363C195.701 216.756 205.3 217.108 213.414 216.028C217.916 215.426 222.794 215.253 227.168 213.982C228.966 213.462 230.468 212.15 232.167 211.624L232.075 211.514C231.664 211.069 232.104 211.098 233.398 211.607C233.901 211.682 234.404 211.768 234.906 211.849C236.218 212.069 237.524 212.317 238.83 212.566C247.262 214.196 255.555 215.207 264.166 214.924C270.494 214.716 276.851 213.589 282.225 210.058C288.288 206.076 292.541 199.967 296.101 193.772C303.411 181.058 307.867 166.669 309.364 152.1C310.861 137.531 309.133 122.748 302.66 109.704C299.447 103.232 294.939 97.106 289.391 92.4366C282.595 86.7153 274.395 84.9238 265.657 85.5942C260.681 85.9756 255.809 86.6806 250.891 85.4555C249.533 85.1145 248.325 85.8947 247.875 87.1718C245.505 93.812 239.218 96.7882 232.56 97.736C229.445 98.1809 230.769 102.908 233.866 102.469C242.396 101.25 249.66 96.7535 252.613 88.4779L249.597 90.1943C258.439 92.3961 267.385 89.0038 276.215 91.0496C283.451 92.7313 289.016 98.0307 293.339 103.844C301.475 114.796 304.85 128.457 304.954 141.946C305.058 155.434 302.042 169.46 296.557 181.995C291.524 193.501 284.341 206.648 271.002 209.324C264.524 210.624 257.231 210.341 250.695 209.642C246.153 209.156 241.703 208.087 237.207 207.29C235.571 207.001 233.577 206.388 231.907 206.486C230.237 206.585 228.856 208.052 227.33 208.717C223.481 210.393 218.829 210.324 214.714 210.925C210.08 211.601 205.612 211.635 200.949 211.3C196.979 211.011 192.951 210.364 189.367 208.549C185.698 206.689 182.589 203.759 179.838 200.73C174.284 194.628 170.36 187.236 166.945 179.781C164.165 173.719 161.929 167.478 160.403 160.982C157.415 148.297 156.802 134.67 160.206 122.002C161.871 115.813 164.541 109.872 168.418 104.74C172.296 99.6084 178.145 94.0027 184.611 92.1765C188.524 91.0727 192.552 91.1016 196.557 91.4946C199.411 91.772 202.058 91.3385 204.884 91.0669C205.416 91.0149 205.953 90.9745 206.485 90.9398C206.63 90.9282 206.918 90.8878 207.063 90.934C205.63 90.4717 206.988 91.4368 207.121 91.6159C208.225 93.1069 210.172 94.4014 211.617 95.5515C214.576 97.9151 217.737 99.9147 221.326 101.169C225.105 102.492 229.243 102.954 233.219 102.561C236.334 102.255 236.363 97.343 233.219 97.655H233.231Z" fill="#3E3A39"/>
<path d="M218.54 172.453C216.812 170.91 213.796 165.842 212.53 163.877C208.606 157.774 202.665 154.677 195.673 153.405C193.396 152.989 192.997 152.937 193.228 155.37C193.396 157.156 193.818 158.924 194.453 160.6C195.73 163.952 197.903 166.98 200.741 169.188C205.665 173.019 212.472 174.302 218.454 172.517" fill="#FFE0D2"/>
<path d="M220.274 170.714C215.772 166.339 213.952 160.196 208.791 156.278C206.052 154.197 202.896 152.735 199.597 151.793C197.406 151.169 193.586 149.753 191.668 151.678C189.483 153.862 191.2 158.901 192.09 161.254C193.401 164.721 195.499 167.923 198.314 170.356C204.023 175.291 211.883 176.851 219.112 174.886C222.158 174.06 220.863 169.321 217.806 170.153C212.31 171.644 206.196 170.627 201.787 166.882C199.608 165.033 197.869 162.612 196.823 159.947C196.597 159.364 195.805 154.735 195.632 154.648L194.332 155.648L195.025 155.769C195.505 156.087 196.534 156.075 197.088 156.208C202.012 157.41 206.537 159.855 209.617 163.964C212.108 167.281 213.801 171.257 216.807 174.181C219.072 176.383 222.545 172.916 220.28 170.708L220.274 170.714Z" fill="#3E3A39"/>
<path d="M236.247 198.465C236.218 194.211 236.652 190.23 235.363 186.109C234.958 184.358 234.392 182.694 234.057 180.885C237.9 179.544 245.494 177.429 247.99 175.002C255.561 167.639 259.519 159.098 268.905 155.064C268.408 159.086 267.535 162.768 266.645 166.72C265.281 172.783 264.039 178.966 260.664 184.289C259.67 185.861 258.271 187.398 257.167 188.698C253.746 192.744 250.094 195.338 245.852 198.465C244.419 199.522 242.864 200.123 240.865 200.378C240.373 200.441 238.316 201.88 237.848 201.69C237.01 201.349 236.403 201.724 236.288 200.944C236.172 200.164 236.241 199.268 236.236 198.471L236.247 198.465Z" fill="#FFE0D2"/>
<path d="M234.323 207.307C246.025 201.638 259.155 194.807 265.148 182.596C268.367 176.042 269.558 168.466 271.251 161.41C273.216 153.203 275.036 144.957 276.331 136.612C276.81 133.52 272.083 132.191 271.598 135.306C270.413 142.963 268.777 150.533 267.003 158.069C265.362 165.027 264.258 172.725 261.317 179.267C255.931 191.235 243.055 197.639 231.849 203.065C229.006 204.441 231.491 208.677 234.329 207.301L234.323 207.307Z" fill="#3E3A39"/>
<path d="M231.676 211.618C236.525 207.399 237.917 198.904 237.709 192.801C237.553 188.345 236.438 183.982 235.097 179.752C234.149 176.764 233.462 173.227 231.191 170.927C228.665 168.361 225.412 167.737 222.037 168.858C217.754 170.28 214.189 171.731 209.577 171.823C202.342 171.968 196.903 168.281 194.575 161.392C192.194 154.353 190.968 146.904 189.766 139.599C189.258 136.49 184.525 137.808 185.033 140.905C186.276 148.476 187.507 156.254 190.119 163.501C192.864 171.13 199.157 176.215 207.346 176.706C212.039 176.99 216.801 176.209 221.152 174.476C223.458 173.557 226.018 172.181 227.943 174.614C229.191 176.198 229.601 178.665 230.208 180.555C231.93 185.924 233.364 191.455 232.589 197.135C232.081 200.898 231.202 205.538 228.209 208.144C225.822 210.219 229.307 213.681 231.682 211.618H231.676Z" fill="#3E3A39"/>
<path d="M198.741 41.0724C198.348 40.795 197.996 40.4482 197.522 40.2806C194.933 39.3733 191.72 38.9168 189.396 40.7256C185.334 43.8925 185.53 50.6367 188.668 54.3526C191.581 57.7912 196.117 57.9472 200.238 58.7563" fill="#FFE0D2"/>
<path d="M199.926 39.0497C192.997 33.8023 184.178 39.2982 183.993 47.3368C183.912 50.8967 185.27 54.5317 187.934 56.9358C191.165 59.8543 195.516 60.253 199.614 61.0159C202.567 61.5649 203.827 57.0456 200.862 56.4908C196.088 55.6009 190.252 55.2541 188.905 49.6022C187.634 44.2566 192.471 39.2404 197.556 43.095C199.96 44.9154 202.301 40.8469 199.926 39.0439V39.0497Z" fill="#3E3A39"/>
<path d="M213.841 77.6421C211.674 75.972 207.421 73.0304 205.652 71.5568C203.884 70.0831 204.225 69.7364 203.225 68.4014C202.231 67.0607 199.018 59.1838 198.995 59.0856C197.625 54.1618 197.51 49.5155 197.608 45.9151C197.741 41.0491 199.752 38.8935 199.897 34.6055C202.717 30.7855 220.36 16.8927 234.415 20.2792C247.973 23.5444 258.011 44.0311 258.005 44.1814C257.722 49.5039 258.739 63.2407 253.844 65.2114C252.538 65.7373 243.979 76.3823 242.91 76.9082C239.5 78.5899 238.061 77.8444 235.455 79.4163" fill="#FFE0D2"/>
<path d="M258.115 52.5783C258.578 52.4396 259.017 52.22 259.526 52.2142C262.271 52.1796 265.461 52.769 267.085 55.2309C269.928 59.5305 267.593 65.8586 263.432 68.3783C259.578 70.7072 256.179 69.5514 252.019 69.0024" fill="#FFE0D2"/>
<path d="M258.734 54.8437C263.969 53.0869 267.31 58.1205 265.304 62.7206C262.895 68.2511 257.572 67.4479 252.642 66.7486C249.689 66.3267 248.412 70.8459 251.394 71.2736C255.567 71.8688 259.762 72.8686 263.732 70.8864C267.05 69.2336 269.506 65.9684 270.338 62.3681C272.106 54.7397 265.281 47.7066 257.485 50.3303C254.636 51.2896 255.861 55.8204 258.734 54.8553V54.8437Z" fill="#3E3A39"/>
<path d="M199.371 33.5306C197.441 41.5577 195.453 50.2841 197.186 58.5193C198.735 65.8702 204.11 72.678 210.154 76.9371C216.142 81.1558 223.608 83.0687 230.89 82.7451C239.188 82.3694 246.256 78.7633 251.585 72.3948C254.803 68.5459 256.93 64.2116 258.392 59.4381C259.138 57.0052 259.721 54.5202 260.328 52.0467C260.663 50.6771 261.097 49.2959 261.334 47.9089C261.571 46.5219 261.322 45.1928 261.577 43.8578C262.137 40.9105 257.618 39.6449 257.052 42.6095C256.583 45.0598 256.635 47.4177 256.029 49.8738C255.422 52.3299 254.844 54.8322 254.133 57.2768C252.665 62.3277 250.481 66.8353 246.84 70.6784C240.483 77.4052 231.502 79.3932 222.597 77.359C214.281 75.4635 207.56 69.9676 203.636 62.449C199.186 53.9249 201.763 43.6266 203.89 34.7789C204.595 31.8431 200.076 30.5949 199.365 33.5306H199.371Z" fill="#3E3A39"/>
<path d="M218.251 50.8622C218.742 51.1107 219.1 51.5615 219.216 52.0527C219.331 52.5439 219.17 52.9658 219.077 53.3761C218.915 54.0811 218.441 54.6995 217.644 54.5897C217.205 54.5319 216.812 54.2314 216.592 53.8442C216.136 53.0236 216.546 50.816 217.731 50.7351C217.915 50.7235 218.106 50.7871 218.251 50.8622Z" fill="#3E3A39"/>
<path d="M217.655 51.8733C217.742 51.9195 217.823 51.9773 217.904 52.0235C217.644 51.8733 217.759 51.9079 217.846 51.9831C217.881 52.0177 217.916 52.0466 217.95 52.0813C217.973 52.1044 218.014 52.1738 218.043 52.1911C218.002 52.1738 217.864 51.9426 217.973 52.116C218.031 52.2027 218.077 52.2894 218.118 52.3876L218.002 52.1102C218.054 52.2373 218.089 52.3703 218.112 52.509L218.072 52.1969C218.089 52.3529 218.089 52.5032 218.072 52.6592L218.112 52.3471C218.06 52.717 217.968 53.1158 217.823 53.4625L217.939 53.1851C217.904 53.2602 217.869 53.3354 217.823 53.4047C217.8 53.4394 217.777 53.4741 217.754 53.5087C217.702 53.6012 217.962 53.2776 217.835 53.4047C217.788 53.4509 217.598 53.6128 217.777 53.4741C217.944 53.3411 217.823 53.4336 217.777 53.4625C217.736 53.4856 217.696 53.5087 217.65 53.5261L217.927 53.4105C217.835 53.4452 217.742 53.4683 217.644 53.4856L217.956 53.4452C217.846 53.4567 217.742 53.4567 217.632 53.4452L217.944 53.4856C217.829 53.4683 217.719 53.4394 217.609 53.3932L217.887 53.5087C217.806 53.4741 217.736 53.4278 217.655 53.3874C217.54 53.3238 217.864 53.5781 217.731 53.4452C217.696 53.4105 217.661 53.3816 217.627 53.3411C217.598 53.3065 217.505 53.1967 217.627 53.3469C217.754 53.5087 217.644 53.3643 217.621 53.3238C217.592 53.2718 217.563 53.2198 217.54 53.1678L217.655 53.4452C217.598 53.3065 217.569 53.162 217.546 53.0175L217.586 53.3296C217.551 53.0637 217.563 52.7979 217.592 52.5321L217.551 52.8441C217.592 52.5668 217.661 52.2894 217.765 52.0293L217.65 52.3067C217.69 52.2084 217.736 52.1102 217.794 52.0177C217.812 51.9831 217.835 51.9484 217.858 51.9195C217.991 51.7114 217.667 52.1275 217.788 52.0062C217.846 51.9426 217.91 51.8848 217.968 51.827C217.713 52.0871 217.765 51.9715 217.875 51.9079C217.916 51.8848 217.956 51.8617 217.996 51.8444L217.719 51.96C217.794 51.9311 217.875 51.9079 217.956 51.8964L217.644 51.9368C217.713 51.9253 217.783 51.9253 217.852 51.9368L217.54 51.8964C217.632 51.9079 217.719 51.9311 217.806 51.9657L217.528 51.8501C217.569 51.8675 217.603 51.8848 217.644 51.9022C217.933 52.0409 218.228 52.1102 218.545 52.0177C218.817 51.9426 219.112 51.7346 219.245 51.4803C219.522 50.9544 219.412 50.1569 218.823 49.8737C218.447 49.6946 218.066 49.5616 217.638 49.5963C217.303 49.6252 217.014 49.7061 216.719 49.8679C216.315 50.0933 215.974 50.4747 215.748 50.8735C215.355 51.5728 215.159 52.4569 215.234 53.2602C215.28 53.7399 215.379 54.208 215.656 54.6068C216.124 55.2887 216.8 55.699 217.627 55.7857C218.915 55.9186 219.904 54.8842 220.192 53.711C220.366 53.0002 220.528 52.272 220.268 51.5554C220.008 50.8388 219.511 50.2262 218.829 49.8679C218.285 49.5848 217.528 49.7119 217.222 50.2898C216.933 50.833 217.066 51.5901 217.644 51.8964L217.655 51.8733Z" fill="#3E3A39"/>
<path d="M235.074 53.041C235.565 53.2895 235.924 53.7402 236.039 54.2315C236.155 54.7227 235.993 55.1446 235.901 55.5549C235.739 56.2599 235.265 56.8783 234.467 56.7685C234.028 56.7107 233.629 56.4102 233.416 56.023C232.959 55.2023 233.369 52.9947 234.554 52.9138C234.739 52.9023 234.93 52.9659 235.074 53.041Z" fill="#3E3A39"/>
<path d="M234.479 54.0518C234.565 54.0981 234.646 54.1558 234.727 54.2021C234.467 54.0518 234.583 54.0865 234.669 54.1616C234.704 54.1963 234.739 54.2252 234.773 54.2599C234.796 54.283 234.837 54.3523 234.866 54.3697C234.825 54.3523 234.687 54.1212 234.796 54.2945C234.854 54.3812 234.9 54.4679 234.941 54.5662L234.825 54.2888C234.877 54.4159 234.912 54.5488 234.935 54.6875L234.895 54.3754C234.912 54.5315 234.912 54.6817 234.895 54.8378L234.935 54.5257C234.883 54.8956 234.791 55.2943 234.646 55.6411L234.762 55.3637C234.727 55.4388 234.692 55.5139 234.646 55.5833C234.623 55.6179 234.6 55.6526 234.577 55.6873C234.525 55.7798 234.785 55.4561 234.658 55.5833C234.612 55.6295 234.421 55.7913 234.6 55.6526C234.768 55.5197 234.646 55.6122 234.6 55.6411C234.56 55.6642 234.519 55.6873 234.473 55.7046L234.75 55.5891C234.658 55.6237 234.565 55.6468 234.467 55.6642L234.779 55.6237C234.669 55.6353 234.565 55.6353 234.455 55.6237L234.768 55.6642C234.652 55.6468 234.542 55.6179 234.432 55.5717L234.71 55.6873C234.629 55.6526 234.56 55.6064 234.479 55.5659C234.363 55.5024 234.687 55.7566 234.554 55.6237C234.519 55.5891 234.484 55.5602 234.45 55.5197C234.421 55.485 234.328 55.3752 234.45 55.5255C234.577 55.6873 234.467 55.5428 234.444 55.5024C234.415 55.4504 234.386 55.3983 234.363 55.3463L234.479 55.6237C234.421 55.485 234.392 55.3406 234.369 55.1961L234.409 55.5081C234.375 55.2423 234.386 54.9765 234.415 54.7106L234.375 55.0227C234.415 54.7453 234.484 54.4679 234.588 54.2079L234.473 54.4853C234.513 54.387 234.559 54.2888 234.617 54.1963C234.635 54.1616 234.658 54.127 234.681 54.0981C234.814 53.89 234.49 54.3061 234.612 54.1847C234.669 54.1212 234.733 54.0634 234.791 54.0056C234.536 54.2656 234.588 54.1501 234.698 54.0865C234.739 54.0634 234.779 54.0403 234.82 54.0229L234.542 54.1385C234.617 54.1096 234.698 54.0865 234.779 54.0749L234.467 54.1154C234.536 54.1038 234.606 54.1038 234.675 54.1154L234.363 54.0749C234.455 54.0865 234.542 54.1096 234.629 54.1443L234.351 54.0287C234.392 54.046 234.427 54.0634 234.467 54.0807C234.756 54.2194 235.051 54.2888 235.369 54.1963C235.64 54.1212 235.935 53.9131 236.068 53.6588C236.345 53.133 236.235 52.3354 235.646 52.0523C235.27 51.8731 234.889 51.7402 234.461 51.7749C234.126 51.8038 233.837 51.8847 233.542 52.0465C233.138 52.2719 232.797 52.6533 232.572 53.052C232.179 53.7513 231.982 54.6355 232.057 55.4388C232.103 55.9185 232.202 56.3866 232.479 56.7853C232.947 57.4672 233.623 57.8776 234.45 57.9642C235.738 58.0972 236.727 57.0627 237.016 55.8896C237.189 55.1787 237.351 54.4506 237.091 53.734C236.831 53.0174 236.334 52.4048 235.652 52.0465C235.109 51.7633 234.351 51.8905 234.045 52.4684C233.756 53.0116 233.889 53.7686 234.467 54.0749L234.479 54.0518Z" fill="#3E3A39"/>
<path d="M223.539 31.745C227.26 28.1793 231.589 27.4801 235.617 31.0053C237.645 32.7795 238.969 34.9119 240.153 37.3102C241.338 39.7085 241.494 42.1184 242.032 44.7074C242.766 48.2384 244.366 51.9544 247.539 53.9366C250.879 56.0228 254.237 55.0808 257.739 54.3238C259.502 53.9424 260.744 51.7521 260.166 50.0473L260.085 49.8103C259.45 47.9264 257.745 47.0075 255.809 47.3831L255.618 47.4178C251.232 48.2673 253.087 54.971 257.468 54.1215L257.658 54.0868C256.231 53.2778 254.809 52.4687 253.382 51.6596L253.463 51.8966L255.89 47.6201C256.722 47.4409 255.485 47.6259 255.3 47.6721C254.688 47.8281 254.121 48.1286 253.492 48.2442C252.896 48.354 252.278 48.4523 251.688 48.2442C250.463 47.8281 249.857 46.5105 249.417 45.3778C248.579 43.1933 248.574 40.8701 248.053 38.6221C247.412 35.8655 245.95 33.2129 244.505 30.803C241.991 26.619 237.628 22.8164 232.727 21.8917C227.232 20.8573 222.545 23.0706 218.626 26.827C215.39 29.9304 220.308 34.8426 223.544 31.745H223.539Z" fill="#FF7B18"/>
<path d="M222.84 26.2834C217.806 22.4173 210.883 23.9314 206.317 27.7918C203.896 29.8376 202.636 32.652 201.451 35.5184C201.053 36.4835 200.677 37.4601 200.249 38.4195C200.001 38.9685 199.631 39.5406 199.423 40.0954C199.111 40.9218 198.435 40.7022 199.556 40.6791L202.908 45.0827C203.659 42.8173 204.052 40.4364 204.803 38.171C206.213 33.9118 199.504 32.0856 198.1 36.3217C197.348 38.5871 196.955 40.968 196.204 43.2334C195.499 45.3601 197.383 47.6891 199.556 47.6371C204.428 47.5215 206.133 42.3203 207.664 38.5986C208.733 35.998 209.721 33.5015 212.281 32.0509C214.842 30.6004 217.084 30.5657 219.332 32.2937C220.834 33.4437 223.21 32.5133 224.088 31.0454C225.157 29.2654 224.319 27.4277 222.84 26.2892V26.2834Z" fill="#FF7B18"/>
<path d="M262.715 48.7757C262.103 45.8515 263.652 43.2451 264.761 40.6272C266.269 37.0789 267.281 33.8831 266.697 29.9995C265.634 22.9202 261.086 16.5979 256.653 11.1829C251.874 5.34608 245.147 1.4221 237.657 0.347198C233.988 -0.178697 230.214 -0.300057 226.822 1.39321C223.62 2.98823 221.129 5.61192 218.332 7.77329L221.014 7.42077C214.449 4.79707 204.185 9.69193 200.463 15.3496C198.626 18.1409 197.608 21.9031 196.77 25.0989C196.256 27.0522 195.852 29.1096 195.927 31.138C196.019 33.6461 196.927 36.004 197.395 38.4485C198.227 42.8406 204.931 40.9798 204.098 36.5992C203.757 34.7904 203.006 32.9758 202.879 31.138C202.763 29.4621 203.22 27.8266 203.671 26.2316C204.301 23.9951 204.971 20.9149 206.341 19.0482C207.988 16.806 211.339 15.1647 213.9 14.321C215.142 13.9106 216.564 13.5003 217.881 13.7142C219.945 14.0551 220.956 14.4134 222.759 13.0727C225.544 11.0038 228.324 7.42077 231.959 6.98734C235.906 6.51923 240.35 7.68082 243.829 9.48389C250.568 12.9744 256.208 20.545 258.89 27.5666C260.629 32.1089 259.612 35.166 257.751 39.4772C256.121 43.2451 255.162 46.5103 256.023 50.6308C256.936 55.0113 263.64 53.1562 262.727 48.7815L262.715 48.7757Z" fill="#FF7B18"/>
<path d="M215.073 11.5239C215.073 11.5239 202.561 16.1934 202.174 16.4823C201.787 16.7713 197.955 32.5192 198.163 34.1316C198.371 35.7439 199.683 43.0891 199.683 43.0891L209.49 29.6412L219.077 29.8724L232.809 26.3703L240.68 33.8195L249.498 48.3712L256.035 52.7979L263.247 35.5301L258.023 21.2385L247.875 9.5359C247.875 9.5359 234.739 4.87798 234.086 4.8433C233.438 4.80863 215.073 11.5123 215.073 11.5123V11.5239Z" fill="#FF7B18"/>
<path d="M222.008 68.2107C222.135 68.1529 222.146 68.1471 222.036 68.1933C222.106 68.1644 222.175 68.1413 222.25 68.124C222.377 68.0893 222.505 68.0662 222.626 68.0315C222.713 68.0142 222.701 68.02 222.591 68.0315C222.666 68.0257 222.741 68.0142 222.811 68.0142C222.961 68.0026 223.111 68.0026 223.262 68.0084C223.377 68.0084 223.487 68.02 223.603 68.0257C223.678 68.0315 223.753 68.0431 223.828 68.0489C223.707 68.0315 223.718 68.0373 223.857 68.0546C224.123 68.1066 224.389 68.1529 224.649 68.2164C225.157 68.3378 225.671 68.4707 226.163 68.6441C226.301 68.6903 226.446 68.7423 226.579 68.8001C226.371 68.7134 226.66 68.8406 226.7 68.8637C226.833 68.9273 226.96 69.0024 227.082 69.0775C227.145 69.118 227.203 69.1584 227.266 69.1989C227.174 69.1238 227.186 69.1295 227.29 69.2162C227.758 69.6092 228.492 69.7132 228.948 69.2162C229.347 68.7828 229.451 67.9795 228.948 67.5576C227.862 66.6503 226.515 66.2342 225.157 65.9222C223.683 65.587 222.21 65.5061 220.817 66.1764C220.262 66.4423 220.072 67.2802 220.395 67.783C220.765 68.3551 221.407 68.4881 222.002 68.2049L222.008 68.2107Z" fill="#3E3A39"/>
<path d="M126.03 224.932C127.515 225.589 128.842 225.969 130.484 225.768C131.866 225.6 132.738 224.976 133.237 223.667C138.959 208.646 144.649 193.054 143.457 176.708C143.192 173.06 137.48 173.033 137.751 176.708C138.911 192.555 133.28 207.593 127.737 222.147L130.49 220.046C129.958 220.187 129.433 220.171 128.913 219.992C125.585 218.526 122.675 223.45 126.035 224.927L126.03 224.932Z" fill="#3E3A39"/>
<path d="M33.7122 108.392C33.3004 125.77 32.9806 147.186 31.0948 161.524C39.8465 166.839 59.4468 171.155 68.2905 165.047C67.494 147.512 69.2226 122.013 69.9975 103.457C57.9187 103.908 45.8127 105.173 33.6851 107.258" fill="#F0891D"/>
<path d="M32.4391 108.392C32.0977 122.675 31.9297 136.98 30.8513 151.231C30.5912 154.672 30.2715 158.103 29.8217 161.524C29.7675 161.958 30.1035 162.414 30.4503 162.626C35.3815 165.606 41.169 167.354 46.7993 168.391C52.4296 169.428 59.1003 169.971 64.8498 168.098C66.1016 167.691 67.3371 167.159 68.4588 166.464C68.7894 166.258 69.1904 166.04 69.3909 165.693C69.651 165.253 69.5481 164.694 69.5264 164.205C69.4939 163.407 69.4668 162.604 69.4451 161.806C69.3476 158.283 69.3421 154.759 69.3747 151.236C69.4559 143.581 69.7486 135.932 70.0954 128.288C70.4422 120.645 70.8324 113.403 71.1629 105.954C71.2008 105.124 71.2388 104.288 71.2713 103.457C71.2984 102.784 70.6644 102.154 69.9978 102.181C60.4388 102.54 50.9123 103.414 41.4454 104.755C38.7413 105.14 36.0427 105.563 33.3494 106.025C32.6721 106.139 32.2927 106.98 32.4607 107.594C32.6558 108.316 33.3494 108.604 34.0268 108.484C43.3095 106.893 52.668 105.77 62.0645 105.14C64.7089 104.961 67.3534 104.825 70.0032 104.727L68.7298 103.452C68.3938 111.465 67.9549 119.467 67.5918 127.48C67.2287 135.492 66.8874 144.103 66.8277 152.425C66.7952 156.632 66.8332 160.845 67.0228 165.047L67.6514 163.945C63.8256 166.551 58.786 166.92 54.2178 166.714C48.8856 166.475 43.5642 165.329 38.5354 163.549C36.1836 162.713 33.8913 161.719 31.7454 160.427L32.374 161.529C33.2194 155.101 33.6421 148.614 33.9672 142.143C34.3357 134.852 34.5416 127.55 34.7204 120.248C34.818 116.296 34.8993 112.344 34.9968 108.397C35.0347 106.752 32.4878 106.752 32.4499 108.397L32.4391 108.392Z" fill="#F0891D"/>
<path d="M107.594 181.062C101.26 190.818 82.1524 216.702 87.4305 222.446C92.7139 228.19 108.933 240.187 114.487 237.25C125.022 231.68 131.671 209.466 135.226 200.378C131.259 197.544 105.08 184.928 107.594 181.057V181.062Z" fill="#FFE0D2"/>
<path d="M54.3428 132.035C53.9147 134.125 53.4974 136.22 53.0801 138.31C50.5495 139.054 48.0188 139.787 45.499 140.569C47.0814 143.213 48.7125 145.835 50.3327 148.457C55.9576 149.852 61.5825 151.225 67.1911 152.68C72.0682 150.862 76.9561 149.07 81.8711 147.355C85.3663 143.761 88.8778 140.183 92.4489 136.665C89.1054 136.247 85.7564 135.84 82.4075 135.509C81.5297 132.822 80.6518 130.135 79.7522 127.453C76.5984 128.81 73.4825 130.254 70.3341 131.622C65.0073 131.731 59.675 131.866 54.3482 132.024L54.3428 132.035Z" fill="#FFE0D2"/>
<path d="M38.7464 179.412C37.8306 183.418 36.904 187.414 35.8744 191.393C37.0611 193.043 38.2587 194.683 39.3913 196.371C42.0032 192.24 44.6531 188.141 47.368 184.08C44.4851 182.544 41.6131 180.991 38.7519 179.417L38.7464 179.412Z" fill="#3E3A39"/>
<path d="M53.2692 132.453C53.0145 133.614 52.8627 135.172 52.2721 136.22C51.5839 137.447 50.9878 137.643 49.5409 138.012C47.1512 138.62 44.6639 138.815 42.2145 138.994C39.0552 139.222 39.0336 144.184 42.2145 143.951C45.8452 143.685 50.0557 143.527 53.4155 142.018C56.7752 140.509 57.355 136.937 58.0433 133.772C58.7315 130.607 53.9519 129.331 53.2692 132.453Z" fill="#3E3A39"/>
<path d="M89.04 241.083C89.7716 237.88 89.3002 234.759 89.5765 231.529C89.815 228.76 90.5248 226.029 91.3214 223.38C93.0989 217.484 95.597 211.833 98.2306 206.274C98.7888 205.101 99.3523 203.929 99.9213 202.756C100.106 202.371 101.287 200.085 100.891 200.242C101.563 199.982 103.633 201.149 104.208 201.399C105.823 202.099 107.416 202.843 108.976 203.663C115.544 207.11 121.516 211.556 127.802 215.47C131.015 217.468 133.963 212.392 130.761 210.4C123.651 205.975 116.931 200.867 109.323 197.3C106.549 195.997 103.016 193.896 99.8238 194.504C96.865 195.063 95.895 197.664 94.7137 200.101C91.7116 206.296 88.7799 212.56 86.5528 219.08C85.4473 222.311 84.5206 225.606 84.0167 228.988C83.5127 232.37 84.163 236.122 83.3827 239.525C82.5427 243.201 88.1893 244.775 89.0346 241.083H89.04Z" fill="#3E3A39"/>
<path d="M99.5036 206.111C100.089 205.003 100.669 203.89 101.238 202.772C101.666 201.925 102.04 200.552 102.679 199.873L101.422 200.606C102.847 200.069 104.348 200.025 105.86 200.069C109.534 200.166 109.529 194.45 105.86 194.352C103.497 194.287 100.051 194.271 98.3439 196.154C97.4931 197.094 97.0325 198.462 96.469 199.585C95.8512 200.807 95.2226 202.017 94.5831 203.228C92.8599 206.475 97.7858 209.368 99.509 206.111H99.5036Z" fill="#3E3A39"/>
<path d="M102.002 196.882C102.311 196.92 102.62 196.958 102.929 196.996C103.319 197.012 103.688 196.931 104.029 196.751C104.381 196.637 104.69 196.437 104.945 196.16C105.221 195.899 105.422 195.595 105.535 195.242C105.714 194.9 105.795 194.537 105.779 194.14C105.747 193.402 105.503 192.636 104.945 192.121L104.365 191.676C103.921 191.415 103.438 191.285 102.923 191.285C102.615 191.247 102.306 191.209 101.997 191.171C101.607 191.154 101.238 191.236 100.897 191.415C100.545 191.529 100.236 191.73 99.981 192.007C99.7046 192.267 99.5041 192.571 99.3903 192.924C99.2115 193.266 99.1302 193.63 99.1464 194.026C99.179 194.765 99.4228 195.53 99.981 196.046L100.561 196.491C101.005 196.751 101.487 196.882 102.002 196.882Z" fill="#3E3A39"/>
<path d="M59.6636 57.9422C62.0967 65.9389 58.97 72.7249 51.1233 75.2981C43.2767 77.8714 36.2104 73.2298 33.929 65.7488C31.6476 58.2679 34.9423 50.5482 42.8757 48.2898C50.809 46.0314 57.2359 49.9401 59.6636 57.9368V57.9422Z" fill="#FF7B18" stroke="#FF7B18" stroke-width="8.73" stroke-miterlimit="10"/>
<path d="M59.5389 135.943C57.496 135.379 54.1416 134.809 52.3425 134.266C50.5434 133.718 50.7114 133.3 49.1779 132.453C48.8852 131.617 44.8264 127.502 44.7777 127.436C42.35 124.033 40.2637 120.227 38.8168 117.35C36.9419 113.62 36.4758 111.324 35.1211 107.714C37.5921 99.3315 37.332 89.6302 40.54 81.6172C42.2037 77.4588 43.3146 78.5988 46.1974 77.3013C49.6168 75.7595 50.0991 77.6596 53.9628 75.9876C56.8348 74.7444 58.699 72.8714 62.9312 70.8628C72.8153 66.1723 81.3502 91.6497 89.0993 92.35C89.7713 94.5215 89.9826 96.5899 90.221 98.984C90.221 99.0329 89.923 100.129 89.8417 100.395C89.82 100.466 89.7929 100.662 89.8254 100.835C90.2969 103.588 90.7954 106.465 91.229 109.234C91.2994 109.69 91.1043 109.825 90.8876 110.135C90.8171 110.238 90.6979 110.222 90.622 110.298C90.4703 110.461 90.3403 110.52 90.2644 110.759C89.0451 114.576 87.8259 118.419 86.6987 122.274C86.677 122.355 86.6554 122.388 86.6012 122.458C85.008 124.57 83.4311 126.698 81.9734 128.924" fill="#FFE0D2"/>
<path d="M38.3019 110.981C37.6624 111.047 36.9851 110.965 36.3565 111.144C35.0451 111.519 33.6416 111.562 32.4819 112.404C30.8888 113.56 29.8483 115.134 29.4907 117.187C29.1384 119.239 29.5449 121.182 30.3794 122.963C31.2735 124.874 32.547 126.258 34.2106 127.252C35.6954 128.136 37.2181 128.147 38.8275 127.968C40.5724 127.778 42.0518 126.855 43.7046 126.334" fill="#FFE0D2"/>
<path d="M38.3021 108.685C34.7364 108.826 31.1491 109.706 28.949 112.73C27.0198 115.373 26.6297 118.908 27.5671 122.013C28.5046 125.118 30.7156 128.191 33.7989 129.613C37.4134 131.28 40.8653 129.781 44.3171 128.555C47.0808 127.572 45.8886 123.131 43.0979 124.125C41.2012 124.798 39.3263 125.889 37.2454 125.764C34.964 125.634 33.2462 123.804 32.3575 121.807C31.4688 119.809 31.2954 117.463 32.4984 115.623C33.7014 113.783 36.2104 113.365 38.2967 113.283C41.2392 113.169 41.2554 108.571 38.2967 108.685H38.3021Z" fill="#3E3A39"/>
<path d="M88.8176 93.8429C89.0561 93.6475 89.2511 93.2458 89.5763 93.1589C92.7247 92.3174 95.4125 92.8712 96.8973 95.9982C98.5392 99.4618 97.4609 102.844 95.3366 105.651C93.8302 107.643 91.9715 107.382 89.9556 108.251" fill="#FFE0D2"/>
<path d="M90.2699 95.2926C90.9581 94.5325 92.8601 94.766 93.6621 95.2383C95.2065 96.1449 95.7376 98.3164 95.6021 99.9722C95.4721 101.519 94.7676 103.235 93.6947 104.375C92.5513 105.586 90.9202 105.71 89.4137 106.27C86.9643 107.182 88.0264 111.15 90.5029 110.227C93.44 109.131 95.7701 108.772 97.618 105.971C99.4658 103.17 100.268 99.9342 99.3575 96.7421C98.6367 94.2231 96.9785 91.9321 94.41 91.1124C92.1557 90.3958 89.0398 90.5424 87.3762 92.3827C85.6096 94.3371 88.4979 97.2469 90.2753 95.2871L90.2699 95.2926Z" fill="#3E3A39"/>
<path d="M33.5662 111.579C36.1456 117.99 38.595 125.102 44.144 129.597C49.8339 134.206 57.5397 136.866 64.8553 136.638C72.1708 136.41 78.9337 133.528 83.9191 128.495C88.3952 123.978 90.6495 117.936 91.381 111.698C92.2914 103.973 90.7091 96.742 89.04 89.272C88.3952 86.3893 83.9733 87.6053 84.6182 90.4935C86.1951 97.5509 87.7395 104.391 86.7966 111.698C85.8374 119.109 82.1526 125.374 75.5577 129.06C68.2529 133.148 59.4417 132.822 52.0394 129.152C48.1811 127.236 45.0815 124.738 42.8435 121.02C40.8222 117.665 39.4404 113.979 37.9827 110.357C36.8934 107.649 32.4553 108.832 33.5608 111.579H33.5662Z" fill="#3E3A39"/>
<path d="M51.1938 64.5981C48.4301 66.1616 46.2517 66.2267 43.5043 68.3223C37.8794 72.6164 32.2925 77.5295 30.0599 84.8096C27.7243 92.4425 28.8785 100.26 30.8239 108.077C30.9757 108.685 32.5201 110.917 33.1541 111.253C35.5439 112.518 38.5189 111.568 40.4209 110.624C46.4901 107.605 52.1421 107.095 57.7453 102.931C59.1868 101.861 56.5531 96.1558 58.8128 94.7443C61.9125 92.8116 63.717 100.347 65.5215 100.591C71.4715 101.384 75.3298 98.311 80.6892 96.9104C83.3878 96.2046 85.9835 94.6086 88.4383 93.2188C88.7038 93.0668 88.9368 92.7574 88.8664 92.4425C86.5796 82.3829 83.9026 75.1463 74.9559 69.4189C67.4344 64.6089 59.8262 63.8326 51.2155 64.5438C51.1667 64.5438 51.2263 64.5872 51.1938 64.6089V64.5981Z" fill="#FF7B18"/>
<path d="M50.1587 62.8227C47.1512 64.4079 44.1382 65.2385 41.4017 67.3666C38.6651 69.4947 35.8256 71.878 33.5117 74.6141C28.6671 80.3578 26.5375 87.3664 26.7163 94.8527C26.8084 98.7994 27.4804 102.741 28.3582 106.579C28.9056 108.968 29.9026 111.649 32.119 113.023C34.7147 114.635 38.1991 113.837 40.7893 112.708C44.4309 111.112 48.1645 109.891 51.8494 108.419C54.3042 107.437 58.2655 106.101 59.7286 103.745C60.7799 102.046 60.1946 99.098 59.9128 97.2522C59.7232 96.009 59.734 96.3782 60.4601 97.2522C61.105 98.0286 61.5277 99.0057 62.0696 99.8526C63.4677 102.03 64.6869 102.757 67.3368 102.773C70.5665 102.795 73.5361 101.709 76.4948 100.542C80.0226 99.1523 83.6262 98.2349 86.9751 96.4053C90.0205 94.7441 91.3373 93.8809 90.4811 90.3196C89.7442 87.2686 88.8825 84.2502 87.6579 81.3567C84.9755 75.0158 80.364 70.0322 74.376 66.6609C67.2392 62.6435 59.2463 61.8618 51.2154 62.4753C50.2508 62.5513 49.5572 63.0724 49.2321 63.9845L49.2104 64.0496C48.3325 66.5523 52.2992 67.6326 53.1716 65.1462L53.1933 65.0811L51.21 66.5903C63.0775 65.6837 75.8825 68.7075 82.2931 79.7389C83.4961 81.8018 84.3848 84.0168 85.111 86.286C85.4903 87.4749 85.8263 88.6801 86.1351 89.8908C86.2706 90.4174 86.6499 91.2534 86.6012 91.7963C86.7421 92.2794 86.7258 92.312 86.5687 91.894C86.0105 92.2143 85.4524 92.5292 84.8888 92.844C82.0926 94.3695 79.0959 95.1133 76.148 96.2642C73.2001 97.4151 70.5069 98.4791 67.3259 98.6474C65.5431 98.7452 65.2071 96.9591 64.2805 95.5856C63.3539 94.2121 62.3134 92.8603 60.6823 92.4749C56.2388 91.4325 55.6427 96.4488 55.9787 99.5269C56.0708 100.358 56.2388 101.123 55.9028 101.709C55.3555 102.659 52.9115 103.49 51.8819 103.957C48.8256 105.347 45.558 106.204 42.4475 107.464C40.2041 108.376 36.297 111.107 33.9885 109.228C31.821 107.464 31.7017 102.904 31.317 100.385C30.1302 92.6106 30.8889 84.4999 35.8852 78.1482C37.9281 75.5533 40.4371 73.3329 43.0057 71.2754C45.8723 68.979 49.0316 68.0398 52.2233 66.3623C54.5643 65.1299 52.4889 61.5741 50.1479 62.8064L50.1587 62.8227Z" fill="#FF7B18"/>
<path d="M66.3888 125.156C67.8303 124.369 69.3421 124.016 70.9787 124.043C73.2546 124.081 73.2546 120.542 70.9787 120.504C68.7027 120.466 66.5731 121.02 64.606 122.1C62.6389 123.18 64.3892 126.248 66.3888 125.156Z" fill="#3E3A39"/>
<path d="M51.0094 115.661C52.1907 118.05 55.209 118.799 57.6476 118.158C60.4438 117.42 62.0424 114.917 61.6251 112.1C61.3487 110.211 58.4875 111.014 58.7639 112.892C59.1595 115.59 54.6238 116.285 53.5779 114.163C52.7272 112.447 50.164 113.951 51.0148 115.667L51.0094 115.661Z" fill="#3E3A39"/>
<path d="M67.933 110.129C70.8105 115.309 79.6271 112.046 78.4295 106.199C78.0448 104.326 75.1835 105.119 75.5683 106.992C76.1048 109.608 71.6775 110.754 70.5016 108.631C69.5749 106.959 67.0063 108.457 67.9384 110.135L67.933 110.129Z" fill="#3E3A39"/>
<path d="M97.8403 141.589C103.796 138.207 110.391 136.318 116.926 134.282C122.627 136.486 128.322 138.701 133.958 141.074C136.667 145.439 139.398 149.776 141.869 154.282C141.902 163.332 143.414 172.273 144.021 181.285C141.311 186.524 131.725 209.281 129.763 214.851C121.521 210.318 99.0541 198.31 101.628 194.081C91.6139 210.535 93.18 214.65 92.9307 233.57C84.2821 233.792 90.1291 242.891 81.8164 243.564C73.5038 244.237 64.7359 241.583 57.6208 240.975C50.5057 240.367 47.8613 240.405 41.7595 239.281C48.246 231.577 57.0356 220.991 61.9776 213.277C66.9197 205.563 69.2553 200.943 72.6801 194.01C76.1049 187.078 79.3942 178.256 82.5101 172.474C85.626 166.692 87.2083 163.527 89.636 159.467C92.0637 155.406 93.581 153.082 95.185 149.776C96.789 146.47 96.5939 144.673 97.8349 141.589H97.8403Z" fill="#3E3A39"/>
<path d="M14.0524 217.5C11.4297 212.082 9.82022 206.463 8.01029 200.752C5.73975 193.581 4.63428 186.143 3.51798 178.662C2.39625 171.138 2.30955 163.581 5.0678 156.263C6.73142 151.855 9.58179 147.805 13.5539 144.96C19.6177 140.617 26.386 138.196 33.9021 138.028C37.8633 137.941 41.2989 138.831 44.7346 140.992C47.1893 142.539 48.1431 145.748 50.5491 147.583C56.2119 151.904 63.1102 153.049 70.1115 152.029C79.638 150.639 83.4151 147.534 88.1729 139.314" fill="#3E3A39"/>
<path d="M16.518 216.056C11.3266 205.085 8.55213 192.891 6.73136 180.959C5.04065 169.89 4.49875 156.801 13.5755 148.592C20.5605 142.273 34.3193 137.599 42.8975 143.218C44.6966 144.396 45.6015 146.394 46.9508 148.011C48.6361 150.036 50.9988 151.513 53.3669 152.61C58.1681 154.835 63.4895 155.601 68.7405 155.053C73.2761 154.575 78.0448 153.614 81.8923 151.024C85.7397 148.435 88.33 144.678 90.6276 140.753C92.4863 137.572 87.5605 134.695 85.7018 137.87C83.6589 141.361 81.3991 144.852 77.7684 146.85C73.8072 149.032 68.6646 149.673 64.2211 149.488C58.8075 149.26 53.3235 147.246 50.1209 142.735C47.0484 138.408 42.697 136.052 37.4243 135.373C27.3234 134.07 15.3529 138.348 8.32454 145.742C0.0443738 154.445 -0.947295 167.094 0.624202 178.44C2.54793 192.294 5.57171 206.23 11.5867 218.944C13.1582 222.267 18.0787 219.368 16.5126 216.062L16.518 216.056Z" fill="#3E3A39"/>
<path d="M98.7184 145.335C100.951 142.642 103.281 141.383 106.565 140.346C110.174 139.206 113.832 137.772 117.658 137.642C123.586 137.441 129.281 140.248 133.243 144.559C142.774 154.917 141.03 171.833 137.583 184.308C135.448 192.055 132.581 199.618 129.715 207.115C127.146 213.83 124.924 220.964 121.218 227.158C118.682 231.398 115.241 235.241 110.645 237.261C104.853 239.807 98.0085 238.857 91.8796 238.672C75.1296 238.162 58.4122 236.761 41.6459 236.919C37.9773 236.951 37.9665 242.668 41.6459 242.635C58.2442 242.483 74.7937 243.846 91.3757 244.373C98.4366 244.595 105.926 245.415 112.602 242.603C118.107 240.285 122.378 235.996 125.558 231.007C129.715 224.482 132.088 216.811 134.847 209.628C138.087 201.197 141.398 192.663 143.609 183.885C147.153 169.819 147.82 152.295 137.523 140.791C132.679 135.378 125.45 131.861 118.134 131.926C113.599 131.964 109.318 133.484 105.053 134.836C100.788 136.187 97.5262 137.881 94.6866 141.296C92.3565 144.108 96.3719 148.169 98.7238 145.34L98.7184 145.335Z" fill="#3E3A39"/>
<path d="M96.7565 205.133C81.4967 198.456 83.0357 199.249 69.239 193.174L47.9263 215.144C67.6079 228.57 96.5505 249.248 115.631 237.174" fill="#FFE0D2"/>
<path d="M98.0843 202.859C88.9208 198.847 79.7194 194.928 70.5668 190.899C69.4939 190.427 68.2584 190.405 67.3859 191.312C60.2817 198.635 53.1774 205.959 46.0732 213.282C44.8322 214.564 45.2061 216.458 46.6042 217.414C57.9732 225.171 69.3692 233.195 82.0929 238.597C93.1151 243.277 106.11 246.083 116.959 239.444C119.836 237.679 117.202 233.13 114.309 234.9C104.219 241.078 91.82 237.381 81.8654 232.783C70.2796 227.424 59.7614 220.041 49.2541 212.87L49.7851 217.001C56.8894 209.678 63.9936 202.354 71.0979 195.031L67.917 195.443C77.0696 199.471 86.271 203.391 95.4344 207.403C98.5015 208.744 101.179 204.211 98.0843 202.859Z" fill="#3E3A39"/>
<path d="M43.5638 191.654C47.3733 185.514 52.5051 179.037 55.751 172.756C58.997 166.475 62.1291 161.399 65.2342 155.254C64.4593 151.258 59.2679 135.298 63.3755 133.017C65.4184 131.883 68.7131 137.23 71.0108 135.531C73.8124 133.463 80.9275 120.732 84.2818 122.768C89.4515 125.906 94.6049 139.603 94.3123 144.619C93.9004 151.785 92.4157 154.657 90.4269 160.786C85.7937 175.047 78.348 188.5 72.0946 202.137C65.8411 215.774 57.1437 226.502 46.4141 237.37C44.6259 239.178 36.3782 241.024 33.3816 241.3C30.4445 240.101 27.8109 239.08 25.1339 237.636C23.4107 233.684 20.5007 231.056 18.9671 226.892C17.4336 222.729 13.7649 225.085 14.0684 219.01C14.4098 212.126 29.4095 198.283 35.8201 194.092C38.7843 192.153 39.7543 197.789 43.5638 191.654Z" fill="#FFE0D2"/>
<path d="M36.2159 191.095C36.579 193.206 39.2614 194.851 41.2339 195.068C42.2039 195.177 43.228 194.45 43.6995 193.652C50.0993 182.81 57.8592 172.924 65.0393 162.615C65.8955 161.388 66.7409 160.15 67.5754 158.907C68.4099 157.664 69.743 156.236 70.1061 154.814C70.7021 152.474 68.0469 149.032 67.1582 146.92C65.9931 144.141 65.0231 141.253 64.4649 138.283C64.3132 137.485 64.0748 136.627 64.1344 135.818C64.1723 135.265 63.0127 134.754 64.5462 135.58C65.7655 136.236 66.703 137.165 67.6242 138.185C68.5454 139.206 70.7347 139.358 71.6613 138.185C74.1432 135.037 76.6576 131.91 79.3616 128.946C80.4183 127.784 81.5075 126.291 82.7918 125.39C83.1007 125.173 84.0707 124.445 84.553 124.657C83.881 124.358 85.3983 127.111 85.5176 127.344C86.2437 128.734 86.9482 130.14 87.8206 131.448C88.628 132.659 90.0261 133.609 90.5464 134.939C91.0666 136.269 90.4597 137.642 90.7523 138.978C90.8878 139.597 91.1966 140.237 91.641 140.688C91.9228 140.959 92.2425 141.177 92.6001 141.334C93.4943 141.698 93.5105 141.72 92.6381 141.388C92.2587 142.615 91.6735 143.679 91.5543 144.977C91.408 146.578 92.1991 147.816 92.2533 149.38C92.3671 152.881 89.0941 155.851 87.2896 158.543C83.7293 163.847 82.1036 170.59 79.7084 176.469C74.322 189.672 68.0794 202.577 60.3032 214.547C56.3419 220.644 52.0447 226.838 47.0267 232.115C43.7483 235.567 38.2697 238.901 33.3168 237.734C28.7703 236.659 25.6652 232.185 23.3676 228.45C20.6364 224.009 18.4905 219.243 15.9274 214.704C14.1174 211.501 9.18618 214.379 11.0015 217.587C15.1362 224.905 18.2683 233.488 24.6627 239.216C32.2222 245.985 41.6999 243.982 49.0914 237.945C54.0334 233.912 57.9297 227.973 61.5929 222.793C65.2561 217.614 68.7351 212.012 71.8672 206.355C78.2182 194.895 83.6209 182.783 88.162 170.492C89.3163 167.376 90.3513 164.2 92.2208 161.421C94.0903 158.641 96.6535 155.948 97.591 152.528C98.057 150.829 98.095 148.94 97.7427 147.219C97.6452 146.736 97.2063 145.976 97.2063 145.531C97.2063 144.798 97.7969 143.951 98.0191 143.261C99.0379 140.134 97.9378 137.67 95.1091 136.182L96.4205 137.892C96.1658 137.154 96.4639 135.829 96.3609 135.01C96.2471 134.135 96.0737 133.397 95.754 132.572C95.0658 130.813 93.8519 129.955 92.7627 128.544C90.5734 125.71 89.7769 120.064 85.8698 119.027C81.9627 117.99 79.004 121.003 76.6955 123.424C73.4712 126.812 70.5342 130.449 67.6404 134.119H71.6776C69.7701 131.997 66.7951 129.412 63.7442 129.38C60.6933 129.347 58.6667 132.301 58.4716 135.031C57.9839 141.942 61.9343 149.466 64.9039 155.46V152.577C56.5262 165.525 46.6312 177.425 38.7791 190.725L41.2447 189.309C42.3773 189.683 42.594 189.689 41.8896 189.336C41.3639 188.896 41.3152 188.961 41.7324 189.531C41.1092 185.91 35.609 187.446 36.2322 191.051L36.2159 191.095Z" fill="#3E3A39"/>
<path d="M18.4959 217.392C19.7206 214.482 22.7119 212.283 24.9987 210.204C27.2855 208.125 29.8541 206.149 32.5148 204.384C36.9908 201.415 41.1472 198.412 43.2064 193.261C44.1168 190.975 40.9738 188.673 39.0175 190.03C33.4631 193.885 27.7027 197.403 21.7365 200.584C18.4905 202.31 21.3734 207.251 24.6139 205.519C30.5802 202.343 36.3406 198.825 41.895 194.965L37.7061 191.735C35.8041 196.502 30.1955 198.858 26.3263 201.724C23.942 203.488 21.7148 205.437 19.5581 207.468C17.4013 209.498 14.784 211.637 13.5755 214.509C12.1612 217.859 17.0762 220.774 18.5014 217.392H18.4959Z" fill="#3E3A39"/>
<path d="M96.6807 206.773C101.542 208.689 105.275 212.522 109.253 215.768C113.664 219.368 118.519 222.011 123.607 224.514C125.277 225.334 127.238 224.666 127.796 222.804C128.468 220.573 129.048 218.331 129.536 216.056C129.937 214.205 128.712 212.506 126.783 212.44C123.727 212.332 121.039 209.764 118.649 208.087C115.68 206.002 112.715 203.917 109.746 201.833C105.974 199.178 99.2493 193.76 96.8595 200.85C96.0846 203.157 94.3126 205.285 96.2689 207.636C98.0354 209.759 101.585 211.013 103.969 212.326C110.309 215.828 116.736 219.167 123.234 222.359C126.517 223.971 129.227 219.433 126.111 217.424L108.689 206.192C105.589 204.194 102.728 209.14 105.812 211.127C111.621 214.873 117.424 218.613 123.234 222.359L126.111 217.424C121.006 214.916 115.94 212.321 110.933 209.623C108.505 208.315 106.088 206.984 103.682 205.633C103.08 205.296 102.479 204.954 101.883 204.612C101.428 204.352 99.9592 203.119 100.864 204.531C101.449 205.448 101.341 205.09 101.764 204.259C101.915 203.961 102.609 202.603 102.354 202.37L101.108 202.935L101.65 203.152C101.964 203.515 102.647 203.814 103.043 204.091C104.181 204.878 105.302 205.682 106.435 206.474C108.695 208.065 110.954 209.65 113.214 211.241C117.343 214.14 121.483 217.978 126.767 218.162L124.014 214.547C123.526 216.821 122.946 219.064 122.274 221.295L126.463 219.585C121.001 216.903 115.94 214.031 111.29 210.079C107.204 206.604 103.211 203.26 98.1709 201.268C94.7516 199.916 93.2722 205.443 96.6536 206.778L96.6807 206.773Z" fill="#3E3A39"/>
<path d="M0.299397 172.674C1.44822 180.335 -0.150376 188.141 0.526993 195.85C1.20436 203.559 1.77335 211.55 1.86548 219.493C1.88173 221.04 3.16061 222.348 4.72127 222.354C8.10269 222.354 11.1698 221.615 14.237 220.231C16.4154 219.248 15.8897 215.426 13.5542 215.008C13.1206 214.932 11.5979 214.428 11.1156 214.569C10.319 214.324 10.4003 214.569 11.3595 215.291L11.4028 214.254C11.896 212.886 11.5654 210.546 11.6304 209.064C11.7822 205.606 11.9339 202.148 12.0856 198.684C12.2482 195.003 6.54203 195.014 6.37947 198.684C6.15729 203.7 5.94053 208.716 5.71835 213.733C5.64249 215.459 5.46908 217.202 6.66667 218.602C7.98348 220.144 10.1727 220.182 12.0314 220.513L11.3486 215.291C9.21358 216.252 7.04058 216.637 4.71043 216.632L7.56622 219.493C7.46868 211.197 6.76421 203.065 6.14103 194.808C5.51785 186.551 6.97555 179.037 5.79422 171.154C5.25232 167.528 -0.247917 169.07 0.293978 172.674H0.299397Z" fill="#3E3A39"/>
<path d="M124.334 222.967C126.696 224.107 129.059 225.247 131.422 226.382C133.21 227.245 134.906 226.48 135.61 224.672C139.366 215.101 141.582 204.819 143.392 194.705C144.189 190.264 144.487 185.704 145.002 181.22C145.565 176.318 146.069 171.405 145.961 166.464C145.879 162.789 140.173 162.778 140.255 166.464C140.352 171.09 139.919 175.693 139.398 180.286C138.878 184.879 138.585 189.591 137.708 194.135C135.811 203.945 133.763 213.831 130.105 223.152L134.294 221.442C131.931 220.302 129.568 219.162 127.206 218.027C123.911 216.442 121.012 221.366 124.328 222.962L124.334 222.967Z" fill="#3E3A39"/>
</svg>
