<?xml version="1.0" encoding="UTF-8"?>
<svg id="_レイヤー_1" data-name="レイヤー_1" xmlns="http://www.w3.org/2000/svg" version="1.1" viewBox="0 0 314.82 76.34">
  <!-- Generator: Adobe Illustrator 29.5.1, SVG Export Plug-In . SVG Version: 2.1.0 Build 141)  -->
  <path d="M296.92,53.72c-.02-.11-.06-.17-.09-.21l-.04-.03c-.06-.04-.12-.07-.25-.06-.14,0-.18.05-.22.1-.03.04-.06.1-.03.25l.02.09c.03.07.06.11.1.14.06.04.12.07.25.06l.19.98c-.38.03-.72-.07-1.01-.3-.26-.2-.43-.45-.52-.77l-.03-.14c-.07-.33-.02-.62.12-.87l.07-.1c.2-.26.49-.41.87-.43h.14c.32,0,.61.1.87.3.3.23.48.53.56.92l.02.14c.03.31-.04.59-.22.82l-.08.09c-.2.2-.46.32-.79.34l-.19-.98c.14,0,.18-.05.22-.1.04-.05.06-.1.04-.24ZM298.22,46.45c-.08-.43-.24-.73-.42-.94l-.08-.09h0s0-.02,0-.02c-.22-.23-.51-.42-.89-.54.18.1.36.22.52.36l.14.13c.37.38.58.83.67,1.29.02.11.04.23.04.34,0-.02.01-.03.02-.05h0c.04-.12.06-.27.02-.49ZM299.21,46.38c.07.36.05.69-.05.97-.1.28-.25.53-.46.76-.2.22-.41.44-.64.66l-.33.31c-.11.11-.2.22-.3.33l-.13.17c-.12.17-.21.36-.27.56l-.03.1c-.05.24-.03.51.05.81l-1.93.13-.08-.28c-.06-.28-.07-.53-.03-.75.06-.3.18-.58.34-.83.17-.25.37-.48.59-.7.23-.22.44-.42.64-.63.15-.15.28-.31.38-.46l.09-.16c.11-.21.14-.43.1-.66-.05-.26-.15-.48-.3-.66l-.07-.08c-.19-.2-.44-.34-.75-.43-.22-.07-.48-.1-.76-.1h-.29c-.46.04-.86.17-1.2.39-.34.22-.66.54-.95.95l-1.44-1.03c.33-.5.74-.92,1.22-1.27l.22-.14c.59-.38,1.28-.6,2.07-.65h.27c.62-.03,1.2.03,1.72.19.61.18,1.12.47,1.52.89.41.41.68.94.81,1.6Z"/>
  <path d="M279.19,44.34c-.01.19-.02.4-.03.63,0,.22,0,.42,0,.61,0,.22,0,.47,0,.75,0,.26-.01.52-.02.79.15-.02.29-.04.42-.06.34-.04.61-.07.83-.09h.2c.45-.02.87.04,1.25.17.44.14.82.41,1.13.8l.11.16c.26.38.45.88.57,1.5l.08.44c.08.45.14.94.2,1.45l.05.51c.05.5.07.99.07,1.46,0,.63-.07,1.16-.2,1.61l-.06.19c-.15.43-.39.74-.72.94-.37.22-.84.36-1.41.4-.29.02-.6.02-.94,0-.33-.02-.62-.04-.89-.07l-.71-1.92c.21.03.43.07.67.1.25.03.48.06.7.07h.3c.09.01.17.01.23,0,.25-.02.46-.08.63-.18.17-.11.29-.29.37-.53.08-.29.12-.67.11-1.13,0-.46-.03-.95-.09-1.47-.04-.4-.09-.79-.15-1.16l-.07-.37c-.08-.39-.19-.68-.33-.86-.13-.16-.29-.26-.48-.31l-.08-.02c-.22-.05-.49-.07-.81-.05-.22.02-.52.06-.92.12-.04,0-.07.01-.11.02-.01.19-.02.39-.04.6-.04.57-.1,1.19-.17,1.85l-.06.49c-.07.49-.15.99-.24,1.49l-.2.99c-.07.33-.15.65-.23.97-.16.63-.35,1.2-.58,1.71l-2.09-.63c.26-.49.48-1.02.67-1.61.2-.6.36-1.21.49-1.84.13-.63.23-1.24.31-1.84.08-.6.15-1.17.19-1.69,0-.05,0-.1,0-.15-.13.02-.26.05-.39.07-.37.08-.66.13-.86.16-.2.05-.47.12-.8.19-.32.06-.59.12-.82.18l-.57-1.99c.27,0,.54,0,.8-.03l.8-.09.87-.11c.33-.05.67-.1,1.02-.16,0-.47-.02-.93-.05-1.38-.04-.62-.12-1.21-.24-1.76l2.27.07ZM282.82,54.82c-.13.23-.3.44-.55.6h-.02s0,.01,0,.01c.07-.03.14-.06.2-.1h0c.13-.08.27-.23.36-.52ZM277.02,55.33c-.05.14-.1.27-.15.4h.02c.05-.13.09-.26.13-.4ZM284.61,45.37c.3.3.62.68.97,1.14l.26.34c.26.35.52.72.78,1.1l.51.76c.16.25.32.49.46.73.31.48.55.88.72,1.22l-1.73,1c-.13-.3-.3-.63-.49-.98l-.2-.36c-.27-.5-.57-1-.9-1.5-.24-.39-.49-.75-.75-1.11l-.26-.35c-.34-.45-.68-.83-1.01-1.12l1.64-.88ZM286.94,50.25h.01c-.06-.1-.11-.2-.18-.29.06.1.11.2.16.29ZM278.09,45.29c.02.15.04.31.05.47,0-.1,0-.19,0-.28h0s0-.03,0-.03c0-.05,0-.1,0-.16h-.05Z"/>
  <path d="M266.08,45.96c-.05.1-.11.22-.17.36-.06.12-.11.25-.17.37-.13.28-.27.6-.42.97-.14.36-.29.74-.44,1.15l-.45,1.2c-.14.4-.27.76-.39,1.1.25-.18.51-.31.79-.4.28-.09.56-.14.85-.16h.21c.47,0,.87.14,1.21.41.39.3.66.76.81,1.38.05.22.11.48.17.78l.18.91c.07.3.13.56.19.76.08.28.23.48.43.6.16.08.33.12.51.13h.18c.32-.02.59-.14.81-.34.23-.21.42-.48.57-.82.14-.35.25-.73.32-1.16.08-.43.13-.88.15-1.34l1.87,1.18c-.1.85-.28,1.61-.56,2.28-.28.66-.67,1.18-1.18,1.56-.5.39-1.13.62-1.9.67l-.19-.98c.33-.02.61-.09.86-.18-.17.06-.36.09-.56.1-.36.03-.74-.03-1.1-.18l-.15-.07h-.03s-.03-.03-.03-.03c-.32-.18-.55-.43-.72-.69h0s0,.02,0,.02h0c.05.22.14.41.28.58.07.08.17.17.31.25l.17.08h0s.01,0,.01,0c.2.09.51.14.94.11l.19.98h-.2c-.46.02-.88-.05-1.23-.2-.36-.14-.65-.33-.87-.57l-.09-.11c-.24-.3-.41-.63-.5-1-.07-.26-.14-.56-.22-.88-.06-.32-.13-.64-.2-.94-.06-.31-.12-.57-.18-.76-.07-.25-.19-.45-.37-.59-.18-.14-.4-.2-.67-.18-.33.02-.62.15-.88.38l-.19.18c-.18.19-.34.42-.48.69-.17.35-.31.73-.41,1.15l-.08.36c-.03.13-.05.27-.08.42l-.07.46c-.02.16-.05.31-.06.47l-.11.9c-.03.29-.06.54-.08.74l-2.25-.56c.09-.5.22-1.08.36-1.73.08-.33.16-.67.25-1.01l.28-1.06c.19-.72.39-1.44.6-2.15l.59-2.01c.19-.64.36-1.19.51-1.66l.37-1.08.21-.69c.08-.25.16-.54.23-.87l2.29.69ZM262,55.1c-.09.35-.17.69-.25,1.02-.06.25-.11.49-.16.71l.16.04c.03-.21.05-.43.08-.66.04-.34.09-.66.14-.98,0-.05.02-.09.03-.14ZM262.42,53.54s-.01.04-.02.06c0-.02.02-.04.02-.06h0ZM265.94,51.52c.08.03.16.07.23.12l.17.12.15.13c.16.15.29.32.39.5-.08-.31-.19-.49-.28-.6l-.1-.09h-.01s-.01-.02-.01-.02c-.1-.08-.26-.16-.55-.15ZM264.54,46.53c-.08.25-.15.48-.21.67h0s0,.03,0,.03c-.07.19-.15.45-.26.78.11-.28.21-.54.31-.8h0c.1-.25.2-.48.29-.68l-.1-.03s0,.02,0,.03Z"/>
  <path d="M253.85,46.55c.02.15.04.31.06.47.02.17.04.32.06.46l.09.48c.03.16.05.31.08.46.04.23.08.45.12.66.4-.06.76-.11,1.1-.16.21-.03.44-.07.69-.09.27-.04.51-.08.72-.11l.35,1.81c-.08,0-.21,0-.39.01-.18.01-.37.03-.57.06-.19.01-.35.03-.47.05l-.64.07c-.16.02-.33.04-.51.07.03.21.07.43.1.65.07.47.13.91.18,1.32.05.4.07.74.07.99,0,.39-.09.66-.27.81-.18.14-.46.23-.85.25-.17.01-.41.02-.71.02l-.89-.04c-.29-.02-.52-.03-.7-.04l-.27-1.64c.24.03.5.06.77.08.14,0,.27.02.38.02h.26c.11-.01.2-.03.26-.06l.06-.03c.07-.05.1-.15.08-.29,0-.19-.03-.43-.08-.71-.04-.29-.08-.6-.14-.93,0-.05-.02-.1-.02-.16-.09.01-.18.03-.27.04-.63.09-1.27.2-1.93.31l-.95.16c-.29.05-.57.1-.84.15.06.31.12.62.17.94l.27,1.4.11.57c.03.17.07.31.1.43.08.36.16.66.25.89.09.22.23.39.4.51.18.12.43.19.76.22h.27c.2.02.42.02.67,0l.4-.02c.49-.03,1.01-.09,1.55-.15.27-.04.54-.08.8-.12l.76-.13c.5-.09.93-.18,1.3-.27l.31,2.01-.54.09c-.2.03-.42.06-.66.1-.48.07-.98.14-1.51.19-.52.07-1.02.12-1.5.15-.97.07-1.75.07-2.35,0-.52-.06-.95-.18-1.29-.37l-.14-.08c-.31-.21-.55-.48-.73-.83l-.07-.15c-.18-.42-.35-.96-.49-1.59-.04-.22-.1-.51-.18-.87l-.5-2.56c-.4.07-.73.13-.98.17-.16.03-.35.07-.57.13l-.67.15c-.21.04-.38.08-.51.11l-.58-1.87c.22-.02.49-.04.82-.09.33-.04.68-.09,1.05-.15.26-.04.63-.1,1.11-.18-.05-.29-.1-.55-.14-.78l-.14-.71c-.06-.3-.12-.59-.2-.85-.07-.26-.15-.52-.24-.77l2.11-.15c0,.25.03.49.07.73.03.23.08.5.14.81l.19,1.06c.02.12.04.23.07.35.1-.02.21-.03.31-.05.73-.12,1.5-.24,2.29-.37.48-.08.95-.16,1.41-.23l-.32-1.67c-.02-.13-.06-.27-.12-.44-.04-.18-.09-.35-.13-.51-.04-.17-.08-.3-.12-.39l2-.14c0,.08.02.2.04.36ZM249.06,56.77c.11.25.24.39.38.49.12.08.33.17.71.23-.19-.06-.38-.15-.55-.26-.24-.16-.43-.36-.58-.57l.04.11ZM253.89,53.63c-.04.06-.08.12-.13.17.05,0,.09-.02.12-.02,0-.03.01-.08.01-.15Z"/>
  <path d="M236.76,47.54c.02.18.05.36.08.55.02.16.05.36.09.61.21-.02.42-.05.63-.08,1-.14,2.03-.34,3.08-.59l.31,1.69c-.5.1-1.07.21-1.73.31l-1.02.15c-.32.04-.65.09-.99.13l.29,1.51c.74-.09,1.43-.19,2.07-.29.65-.1,1.27-.22,1.86-.34l.32,1.74-.75.13c-.25.04-.49.08-.73.12-.47.07-.96.14-1.46.21-.3.04-.62.07-.95.11,0,.02,0,.03.01.05.12.5.24,1.01.37,1.53.02.06.03.11.04.17.56.11,1.08.25,1.57.43.64.23,1.22.49,1.74.76.52.27.96.52,1.33.74l-.76,1.72c-.32-.23-.66-.46-1.03-.68l-.38-.22c-.5-.29-1.04-.55-1.62-.78-.13-.05-.26-.1-.39-.15.05.2.09.38.12.54.08.41.05.8-.11,1.16l-.06.13c-.16.29-.42.54-.77.74-.39.23-.91.36-1.57.41l-.44.02c-.99.02-1.8-.14-2.41-.48-.62-.34-1.02-.83-1.21-1.46l-.07-.28c-.1-.5-.04-.95.18-1.34.23-.4.59-.73,1.1-.99.52-.25,1.16-.41,1.93-.46.32-.02.63-.03.94-.02,0-.01,0-.03,0-.04-.11-.45-.21-.89-.32-1.32-.25.02-.51.04-.78.06l-1.08.06c-.43.01-.88.02-1.33.02-.22,0-.43,0-.63,0l-.56-.02-.35-1.74c.25.02.54.04.88.06.34.02.68.02,1.02.02.35,0,.69,0,1,0l.77-.04c.25-.02.48-.04.72-.06l-.16-.82c-.04-.23-.08-.47-.13-.7-.18.01-.36.03-.55.04-.31.02-.69.04-1.16.05h-1.37c-.46-.03-.86-.04-1.19-.06l-.37-1.68c.28.02.58.04.92.05.34.02.68.03,1.03.05.35,0,.69,0,1,0,.31-.01.58-.03.81-.04.19-.01.38-.03.57-.04-.05-.28-.09-.51-.12-.69-.03-.14-.07-.3-.13-.5-.05-.21-.1-.38-.16-.51l2.02-.14c0,.15.02.32.04.5ZM237.91,57.98c-.02.13-.06.26-.12.39.02-.03.03-.05.04-.08.04-.1.07-.2.08-.31ZM235.48,56.58c-.52.04-.91.15-1.16.35-.24.2-.34.42-.29.68.04.19.13.34.27.47.15.13.34.22.58.27.24.05.54.07.89.04.27-.02.49-.06.67-.14.14-.05.25-.14.33-.24l.07-.11c.08-.16.09-.39.04-.67-.03-.16-.08-.37-.14-.63-.33-.04-.67-.05-1.02-.04h-.24Z"/>
  <path d="M216.98,49.81c0,.18,0,.38.01.61.02.23.05.45.07.67l.09.53c.05.32.11.66.18,1,.08.34.16.7.24,1.06.09.35.18.7.28,1.06.21.7.43,1.32.66,1.85.24.53.49.94.76,1.23.23.24.49.37.76.39h.12c.17-.01.32-.12.44-.32.13-.2.24-.45.31-.75.08-.31.14-.64.17-.98.04-.34.08-.66.1-.96l1.85,1.69c-.16.88-.36,1.58-.59,2.12-.22.52-.49.91-.79,1.16-.31.24-.67.37-1.07.4l-.19-.98c.22-.02.4-.08.56-.21.16-.14.36-.39.55-.83h0c.03-.07.06-.15.09-.23-.03.06-.06.11-.1.16h0s0,.01-.01.02c0,0,0,0,0,0h0c-.2.31-.55.65-1.12.69-.61.04-1.16-.19-1.6-.57l-.18-.17h0s0-.01,0-.01c-.39-.42-.7-.95-.96-1.55-.01-.03-.02-.06-.04-.09.21.51.43.93.65,1.28h0c.43.67.83,1.05,1.16,1.24.39.22.71.29,1.01.27l.19.98h-.2c-.4,0-.82-.1-1.23-.31l-.21-.11c-.55-.32-1.07-.86-1.56-1.62-.49-.77-.94-1.81-1.33-3.12-.14-.45-.27-.92-.4-1.42-.12-.5-.22-.97-.32-1.43l-.22-1.12c-.04-.21-.1-.45-.17-.73-.07-.28-.15-.54-.24-.76l2.31-.13ZM224.53,49.63c.34.31.69.7,1.04,1.17.35.46.69.96,1.02,1.5.33.53.63,1.08.91,1.65.28.56.52,1.11.73,1.65.21.53.38,1.02.5,1.47l-1.83.89c-.12-.45-.28-.92-.46-1.43l-.19-.51c-.2-.52-.43-1.05-.68-1.57l-.26-.52c-.27-.53-.56-1.03-.87-1.51l-.32-.47c-.42-.62-.88-1.14-1.38-1.57l1.78-.74ZM226.22,53.57c.28.55.54,1.1.77,1.65l.22.55c.1.26.19.51.27.75l.06-.03c-.03-.09-.06-.18-.1-.28l-.14-.36h0s0-.02,0-.02c-.14-.38-.31-.76-.49-1.16l-.19-.39h0c-.18-.37-.38-.73-.58-1.09l.2.37ZM216.23,52.11c-.03-.14-.05-.29-.07-.43-.03-.16-.06-.35-.1-.57v-.02s0-.02,0-.02c0-.07-.01-.14-.02-.21h-.06c.05.19.08.36.11.51l.14.74Z"/>
  <path d="M211.65,51.6c-.27.02-.58.05-.93.08-.35.03-.69.08-1.03.13l-.24.04c-.24.04-.45.09-.65.15-.43.15-.81.38-1.14.69l-.23.24c-.22.24-.42.52-.58.82l-.15.31c-.13.31-.23.64-.29.98l-.03.33c-.02.33,0,.66.06,1l.04.18c.1.41.25.77.46,1.09.24.35.54.65.89.89.36.23.76.42,1.2.57.44.14.9.23,1.39.29.5.05,1,.08,1.51.07l-.31,2.07h-.48c-.32-.02-.63-.05-.95-.09l-.47-.07c-.46-.09-.92-.21-1.35-.36l-.43-.17c-.49-.21-.95-.47-1.36-.77l-.18-.13c-.41-.33-.76-.7-1.06-1.12l-.12-.18c-.32-.5-.54-1.08-.67-1.72-.14-.72-.15-1.38-.04-1.98.12-.6.3-1.14.55-1.6.25-.48.52-.85.81-1.12-.27.05-.6.11-.99.19-.38.07-.8.15-1.24.24l-1.35.26-.67.14c-.22.05-.44.1-.65.16l-.59.15c-.19.05-.37.1-.53.14l-.59-2c.3-.03.58-.06.85-.09.26-.04.47-.07.62-.09l1.12-.18c.44-.07.94-.15,1.49-.24.56-.09,1.15-.18,1.78-.27.63-.1,1.28-.21,1.96-.32.51-.08,1.02-.15,1.54-.21.51-.08.99-.14,1.45-.19.46-.06.86-.11,1.2-.14l.38,1.88ZM205.6,57.02c.1.44.27.82.47,1.14.25.38.55.72.91,1.01.38.3.8.55,1.26.75.49.21,1.01.36,1.56.46.31.06.62.1.93.12l.02-.12-.33-.03h0c-.41-.05-.82-.12-1.21-.22l-.39-.11h-.01s-.01,0-.01,0c-.4-.13-.77-.3-1.12-.49l-.35-.21h-.02s-.02-.02-.02-.02c-.41-.29-.77-.63-1.06-1.02l-.12-.17h0c-.22-.34-.39-.7-.51-1.07Z"/>
  <path d="M193.84,54.23c.68-.01,1.29.09,1.86.31.65.24,1.2.62,1.63,1.14.43.52.72,1.15.87,1.89l.04.25c.08.57.03,1.11-.14,1.61l-.08.21c-.2.49-.52.93-.98,1.33-.52.45-1.2.84-2.05,1.16-.84.33-1.84.57-3.02.72l-1.14-1.76c.85-.08,1.63-.21,2.32-.39.62-.16,1.15-.35,1.59-.58l.19-.1c.49-.28.85-.62,1.06-1.01.23-.39.29-.84.2-1.33-.06-.33-.19-.61-.38-.85l-.08-.1c-.2-.24-.44-.42-.74-.56l-.13-.05c-.31-.12-.65-.17-1.02-.16h-.16c-.35.03-.73.1-1.14.22l-.31.09c-.31.1-.63.21-.96.34-.42.17-.84.35-1.24.54l-.59.28c-.19.09-.37.18-.55.27l-.48.24c-.14.07-.27.14-.39.21l-1.15-1.86c.22-.07.47-.14.76-.23l.75-.28.94-.38c.39-.16.83-.32,1.3-.48.48-.16.97-.31,1.46-.43.5-.12.98-.2,1.44-.23h.29ZM197.2,58.79s.02-.09.03-.14c0,.05-.02.09-.03.14ZM197.26,58.16c0,.15,0,.3-.02.45.02-.14.03-.29.02-.45ZM197.25,58.05s0-.05,0-.08c0,.03,0,.05,0,.08ZM196.48,56.14h0s0,0,.01.01c0,0,.01.01.02.02h0c.19.23.35.47.46.72-.09-.19-.18-.37-.29-.52l-.1-.13s-.08-.09-.12-.14c0,.01.02.02.03.03Z"/>
  <path d="M179.4,50.5l.31,1.6,3.04-.21.31,1.6-3.04.21.25,1.28,3.7-.26.31,1.6-1.77.12.23,1.18,1.66-.12.31,1.59-1.66.12.59,3.05.05.31c.04.29.04.52,0,.71-.05.25-.21.46-.47.62l-.21.1c-.22.09-.48.16-.78.21-.39.06-.86.1-1.4.14-.08-.24-.2-.52-.36-.84-.16-.31-.32-.57-.47-.79.34-.01.68-.03,1.02-.04.34-.02.56-.04.65-.06.12,0,.2-.03.23-.06.02-.03.03-.08.03-.14v-.07s-.59-3-.59-3l-5.51.39-.31-1.59,5.51-.39-.23-1.18-5.64.39-.31-1.6,3.71-.26-.25-1.28-3.08.22-.31-1.6,3.08-.22-.31-1.6,1.71-.12ZM172.46,50.93l.54,2.78,1.29-.09.32,1.62-1.29.09.42,2.17c.37-.13.75-.26,1.12-.4l.53,1.57c-.44.17-.88.34-1.33.5l.7,3.61.05.29c.04.27.04.5,0,.68-.03.25-.15.45-.35.61l-.16.1c-.18.09-.39.17-.64.22-.32.07-.73.12-1.22.15-.06-.21-.17-.48-.32-.8-.15-.31-.3-.58-.46-.8.27,0,.52-.02.75-.02.24-.02.4-.03.49-.05.07,0,.12-.02.15-.04l.03-.02s.04-.11.02-.21l-.61-3.13c-.52.19-1,.37-1.46.54l-.72-1.67c.52-.16,1.14-.36,1.84-.6l-.51-2.6-1.69.12-.32-1.62,1.69-.12-.54-2.78,1.65-.12ZM178.08,59.65c.27.23.54.49.82.78.28.28.53.56.77.84.24.27.43.53.59.77l-1.37.98c-.12-.23-.3-.49-.53-.77-.12-.15-.23-.29-.36-.44l-.39-.45c-.26-.3-.53-.58-.8-.83l1.27-.88Z"/>
  <path d="M161.01,52.43c0,.27-.01.62-.04,1.05,0,.14-.02.29-.04.44.63-.07,1.26-.16,1.9-.26.79-.13,1.54-.29,2.25-.46l.32,1.71c-.51.11-1.08.21-1.68.31-.6.09-1.21.18-1.84.26-.44.05-.87.1-1.28.14-.05.16-.09.32-.15.48-.12.4-.26.75-.41,1.07.12-.07.27-.13.46-.18.19-.06.39-.11.59-.15.21-.04.4-.07.57-.08.63-.04,1.18.1,1.66.42.23.15.41.34.56.57,0,0,.02-.01.03-.02.17-.1.33-.19.49-.27l.46-.24c.3-.16.59-.32.86-.48.26-.15.52-.29.77-.43.24-.15.49-.3.75-.46l1.08,1.66c-.15.06-.33.14-.53.23-.2.08-.4.17-.6.27l-.28.12c-.09.04-.17.08-.25.12l-1.57.8c-.23.12-.45.24-.68.37h0c.07.29.13.59.2.9.07.3.14.6.2.9s.12.56.17.79l-1.8.13c-.01-.17-.04-.37-.08-.59-.04-.24-.08-.48-.13-.74-.02-.16-.05-.31-.08-.46-.26.18-.48.36-.66.54-.26.25-.46.49-.57.74l-.04.09c-.08.21-.1.44-.05.68l.04.15c.04.14.11.26.2.36.11.12.27.21.46.28.2.07.43.1.71.11.27.01.6,0,.97-.02.48-.03.99-.09,1.54-.17l.55-.08c.75-.13,1.45-.29,2.08-.46l.31,1.9c-.31.06-.71.13-1.19.2-.48.08-.98.15-1.51.21l-.76.08c-.25.02-.49.04-.73.06l-.57.03c-.47,0-.91-.01-1.32-.06l-.24-.04c-.65-.1-1.18-.32-1.61-.65-.37-.3-.62-.7-.76-1.22l-.05-.23c-.1-.51-.07-.98.07-1.41.14-.38.34-.72.61-1.05l.12-.14c.24-.27.51-.52.8-.76l.3-.23c.28-.21.57-.41.85-.59-.07-.09-.16-.16-.26-.21-.29-.17-.58-.24-.89-.22-.42.03-.82.16-1.21.4l-.27.18c-.26.18-.48.38-.65.61-.18.23-.36.49-.53.77-.17.28-.35.6-.54.95l-1.83-1.07c.53-.63.98-1.24,1.34-1.83.37-.58.67-1.16.9-1.72.1-.25.19-.5.26-.75-.06,0-.12.01-.18.01l-.75.05-.9.03c-.31,0-.61,0-.89,0l-.33-1.72c.39.03.84.05,1.34.04.51,0,.95-.02,1.33-.05.23-.02.47-.04.72-.06.01-.16.02-.32.02-.49.02-.44,0-.85-.05-1.22l2.01.02ZM160.67,62.89c.09.37.24.57.38.69.07.05.14.1.22.14-.03-.02-.06-.05-.09-.08l-.11-.1h-.01s-.01-.03-.01-.03c-.17-.19-.29-.41-.38-.62Z"/>
  <path d="M153.55,58.52c-.49,1.07-1.16,2.1-2.01,3.08l-.32.36c-.76.83-1.62,1.59-2.58,2.27l-.35.23c-.36.23-.75.46-1.17.68l-.42.21c-.42.2-.84.39-1.25.55-.54.22-1.03.38-1.45.49l-1.5-1.85c.4-.1.81-.22,1.22-.35l.41-.14c.55-.19,1.09-.4,1.62-.65.4-.19.78-.41,1.15-.64l.37-.24c.76-.53,1.44-1.12,2.06-1.76.47-.48.89-.98,1.26-1.49l.36-.52c.46-.71.81-1.43,1.07-2.16l1.54,1.92ZM152.32,58.5c-.15.29-.32.57-.5.85h0c-.49.75-1.07,1.46-1.72,2.13h0c-.65.68-1.38,1.3-2.18,1.86h0c-.52.36-1.06.68-1.63.95h0s0,0,0,0c-.56.26-1.13.49-1.71.69-.13.04-.26.09-.39.13l.1.13c.21-.07.45-.16.69-.26h0c.53-.21,1.06-.45,1.59-.72.52-.28.99-.56,1.41-.85,1.04-.75,1.96-1.58,2.76-2.5.66-.77,1.21-1.56,1.63-2.37l-.04-.05ZM141.58,57.41c.27.11.59.25.94.41s.71.33,1.07.51c.36.16.69.33,1.01.5.32.16.59.3.81.42l-.77,1.73c-.25-.13-.53-.28-.86-.45-.16-.08-.32-.17-.49-.25l-.52-.26c-.35-.17-.69-.34-1.04-.5-.33-.17-.64-.3-.91-.41l.76-1.69ZM144.08,59.63h0c-.13-.07-.27-.14-.42-.21.14.07.28.14.41.21ZM143.23,53.9c.27.11.58.25.93.41.35.16.7.34,1.06.52.36.17.7.34,1.02.51.32.16.59.3.81.42l-.79,1.7-.84-.43c-.16-.08-.32-.17-.49-.25l-.52-.26c-.35-.17-.69-.34-1.04-.5-.34-.17-.64-.31-.9-.43l.76-1.69ZM149.79,53.72c.18.2.38.43.59.69.22.25.44.51.65.78.21.25.4.49.57.72l-1.2.64-.3-.43c-.1-.14-.19-.26-.28-.38-.18-.25-.37-.48-.56-.71-.19-.24-.39-.47-.62-.7l1.16-.6ZM151.71,52.87c.2.18.4.39.63.64.22.25.44.51.65.76.21.25.4.48.56.69l-1.16.65c-.22-.29-.43-.56-.62-.79-.19-.24-.38-.46-.57-.68-.19-.22-.41-.44-.65-.67l1.17-.6Z"/>
  <path d="M139.09,61.36c-.17,0-.43,0-.77,0-.34,0-.68.02-.99.04l-.19-.98c.25-.02.5-.03.76-.03l-.04-.22c-.24.03-.49.05-.75.07l-8.04.56-.89.05h0c-.18,0-.36.01-.53.02l.05.25s.05,0,.07,0c.45-.05.9-.09,1.33-.12l.19.98c-.43.03-.87.07-1.31.12l-.61.06c-.18.02-.34.04-.48.06l-.45-2.31c.18,0,.41,0,.7,0,.28,0,.57-.02.87-.03.31-.01.6-.03.85-.05l8.04-.56c.35-.02.68-.06.98-.1.3-.05.55-.09.75-.11l.45,2.31ZM137.14,60.43l.19.98-.78.05-.19-.98.78-.05ZM136.36,60.49l.19.98-1.11.08-.19-.98,1.11-.08ZM135.25,60.56l.19.98-1.3.09-.19-.98,1.3-.09ZM133.95,60.65l.19.98-1.38.1-.19-.98,1.38-.1ZM132.57,60.75l.19.98-1.36.1-.19-.98,1.36-.1ZM131.21,60.85l.19.98-1.2.08-.19-.98,1.2-.08ZM130.01,60.93l.19.98-.91.06-.19-.98.91-.06Z"/>
  <path d="M121.94,56.16c-.07.17-.13.4-.2.69-.07.27-.13.5-.17.68-.08.5-.2,1.05-.36,1.65-.16.59-.35,1.18-.58,1.79-.09.24-.19.47-.29.7.61.39,1.2.78,1.8,1.19.89.61,1.7,1.22,2.43,1.82l-1.22,1.79c-.6-.52-1.2-1.02-1.8-1.47l-.6-.45c-.49-.36-1.01-.73-1.55-1.09-.24.39-.5.78-.79,1.18-.46.64-1.01,1.27-1.65,1.91l-.24.24c-.58.55-1.25,1.08-2.01,1.61l-1.97-1.37c1.09-.65,2.01-1.35,2.78-2.11l.32-.33c.66-.71,1.23-1.48,1.73-2.3-.09-.06-.19-.12-.29-.18-.2-.12-.41-.24-.63-.37l-.67-.39c-.23-.13-.46-.27-.7-.4l-.74-.4c-.51-.27-1.02-.54-1.55-.79l.98-1.59c.42.2.87.43,1.35.68.48.24.97.5,1.45.76.5.26.97.52,1.41.78.1.06.21.12.3.17.2-.44.36-.88.47-1.32.22-.79.38-1.56.49-2.32.04-.2.07-.43.08-.69.02-.27.03-.5.02-.69l2.38.61ZM117.97,63.63c-.4.58-.84,1.13-1.32,1.65h0c-.61.65-1.32,1.26-2.12,1.83l.09.06c.6-.45,1.13-.9,1.59-1.35.61-.6,1.13-1.21,1.56-1.8.09-.12.17-.24.25-.35-.01,0-.02-.02-.04-.02ZM120.75,63.24c.25.18.5.36.75.54.53.38,1.05.79,1.58,1.22l.14-.2c-.31-.23-.62-.47-.95-.71l-.64-.45c-.26-.18-.53-.36-.79-.54-.02.05-.05.09-.07.14ZM118.95,62.02s.02.02.04.03c.02-.03.03-.06.05-.09-.01,0-.02-.02-.04-.02-.02.03-.03.06-.05.09ZM116.45,60.51h0c.24.14.48.27.7.4,0,0,.01-.02.02-.03-.02-.01-.05-.03-.07-.04l-.71-.38h0c-.13-.08-.26-.15-.39-.22.16.09.32.18.47.27ZM120.53,56.79c-.01.13-.03.26-.06.39-.11.79-.28,1.6-.51,2.43-.05.2-.12.41-.19.61,0,0,0,0,.01,0,.17-.47.31-.93.44-1.39.15-.58.26-1.1.34-1.57v-.03s.01-.03.01-.03c.03-.11.06-.23.09-.37l-.14-.04Z"/>
  <path d="M103.68,62.84s-.08.05-.12.08l.81,4.14.13.74c0,.07.02.14.03.2h.18c-.02-.08-.03-.15-.05-.22-.06-.26-.12-.51-.16-.74l-.82-4.21ZM98.98,63.17c-.37.16-.75.32-1.15.47l.03.04c.38-.16.75-.33,1.12-.51ZM106.17,57.56c-.14.19-.29.39-.45.58-.25.31-.52.62-.81.93l.06-.02h0c.25-.24.5-.49.74-.75h0c.2-.22.4-.44.58-.65l-.12-.09ZM105.65,67.69c.06.25.12.49.18.7.06.22.12.39.17.51l-2.36.17c0-.12-.02-.29-.06-.52-.01-.11-.02-.22-.04-.34l-.05-.37-.12-.71-.92-4.73c-.21.13-.42.27-.65.41-.63.39-1.31.77-2.02,1.13l-.54.26c-.54.26-1.09.49-1.65.71l-1.3-1.79c1.12-.38,2.13-.8,3.04-1.25l.38-.2c1.01-.54,1.88-1.09,2.61-1.64.46-.35.91-.75,1.35-1.18.45-.45.86-.91,1.24-1.37.38-.46.7-.9.94-1.32l1.91,1.4c-.37.47-.79.96-1.25,1.45-.45.49-.93.96-1.44,1.41-.24.21-.48.42-.71.61l1.16,5.95.15.71Z"/>
  <path d="M83.35,59.16c0,.18,0,.38.01.61.02.23.05.45.07.67l.09.53c.05.32.11.66.18,1,.08.34.16.7.24,1.06.09.35.18.7.28,1.05.21.7.43,1.32.66,1.85.23.53.49.94.75,1.23.23.24.49.37.76.39h.12c.17-.01.32-.12.44-.32.13-.2.24-.45.31-.75.08-.31.14-.64.17-.98.04-.34.08-.66.1-.96l1.85,1.69c-.16.88-.36,1.58-.59,2.12-.22.52-.49.91-.79,1.16-.31.24-.67.37-1.07.4l-.19-.98c.22-.02.4-.08.56-.21.16-.14.36-.39.55-.83h0c.03-.07.06-.15.09-.23-.03.06-.06.11-.1.16h0s0,.01-.01.02c0,0,0,0,0,0h0c-.2.31-.55.65-1.12.69-.61.04-1.16-.19-1.6-.57l-.18-.17h0s0-.01,0-.01c-.39-.42-.7-.95-.96-1.55-.01-.03-.02-.06-.04-.09.21.51.43.93.65,1.28h0c.43.67.83,1.05,1.16,1.24.39.22.71.29,1.01.27l.19.98h-.2c-.41,0-.82-.1-1.23-.31l-.21-.11c-.55-.32-1.07-.86-1.56-1.62-.43-.67-.82-1.55-1.18-2.64l-.15-.48c-.07-.22-.14-.45-.2-.69l-.19-.73c-.12-.5-.22-.97-.32-1.43l-.22-1.12c-.04-.21-.1-.45-.17-.73-.08-.28-.15-.54-.24-.76l2.31-.13ZM90.9,58.97c.34.31.69.7,1.04,1.17.35.46.69.96,1.02,1.5.33.53.63,1.08.91,1.65.28.56.52,1.11.73,1.65.21.53.38,1.02.5,1.47l-1.83.89c-.12-.45-.28-.92-.46-1.43l-.19-.51c-.2-.52-.43-1.05-.68-1.57l-.26-.52c-.36-.7-.75-1.36-1.19-1.98-.42-.62-.88-1.14-1.38-1.57l1.78-.74ZM92.59,62.91c.28.55.54,1.1.77,1.65l.22.55c.1.26.19.51.27.75l.06-.03c-.03-.09-.06-.18-.1-.28l-.14-.36h0s0-.02,0-.02c-.14-.38-.31-.76-.49-1.16l-.19-.39h0c-.18-.37-.38-.73-.58-1.09l.2.37ZM82.59,61.45c-.03-.14-.05-.29-.07-.43-.03-.16-.06-.35-.09-.57v-.02s0-.02,0-.02c0-.07-.01-.14-.02-.21h-.06c.04.19.08.35.11.51l.14.74Z"/>
  <path d="M72.55,69.67l.03.13c.04.12.1.19.17.23.11.03.33.04.65.01l1.9-.13c.13,0,.23-.03.31-.06l.07-.04c.08-.06.12-.16.13-.32.01-.16,0-.4-.05-.71.13.07.3.14.5.22.2.07.42.12.64.18.22.04.41.08.58.09.04.56.01,1-.08,1.3l-.04.11c-.1.25-.27.43-.5.54-.26.14-.61.22-1.07.25l-2.3.16c-.64.04-1.14.01-1.5-.09-.35-.09-.62-.28-.81-.57-.18-.28-.31-.66-.41-1.15l-.31-1.58,1.78-.12.3,1.55ZM70.03,68.66c-.07.57-.2,1.14-.4,1.7-.19.56-.48,1.04-.87,1.43l-1.74-.94c.37-.34.66-.75.87-1.22.22-.48.36-.98.41-1.49l1.74.52ZM77.69,67.25c.41.23.82.5,1.25.79.42.3.81.61,1.17.93.36.31.66.62.89.91l-1.38,1.1c-.2-.28-.47-.59-.82-.91-.35-.32-.73-.65-1.14-.96-.41-.32-.82-.6-1.23-.85l1.26-1ZM78.21,58.07l.29,1.47-4.16.29.15.78,3.17-.22.78,4.02-3.17.22.16.79,4.37-.31.29,1.49-6.64.46s.02,0,.03.01c.37.16.71.34,1.04.52.34.18.61.35.83.54l-1.03,1.09c-.15-.13-.33-.27-.55-.4l-.23-.14c-.32-.2-.67-.38-1.03-.55-.36-.18-.7-.34-1.03-.47l.47-.5-5.29.37-.29-1.49,4.17-.29-.15-.79-3.01.21-.78-4.02,3.01-.21-.15-.78-3.92.27-.29-1.47,12.96-.91ZM72.27,65.65l1.42-.1-.16-.79-1.42.1.15.79ZM74.75,61.95l.26,1.32,1.44-.1-.26-1.32-1.44.1ZM68.77,63.72l1.36-.1-.26-1.32-1.36.1.26,1.32ZM71.85,63.5l1.42-.1-.26-1.32-1.42.1.26,1.32ZM71.33,60.83l1.42-.1-.15-.78-1.42.1.15.78Z"/>
  <path d="M53.79,60.46c-.02.1-.04.24-.05.42-.02.18-.03.36-.05.53,0,.17-.01.3-.02.39v.36c.01.14,0,.29,0,.46,0,.33.01.7.02,1.12.02.41.04.82.06,1.25.02.43.05.84.09,1.23.05.39.1.74.16,1.03l.09.47c.04.18.1.34.15.48.04-.17.08-.34.13-.52.05-.17.09-.35.14-.52.05-.18.08-.35.11-.51l1.07.66c-.06.41-.12.85-.18,1.33-.05.47-.09.92-.13,1.34-.03.41-.05.75-.06,1.02v.37c.03.14.04.25.06.33l.05.28c.03.12.06.22.09.32l-1.71.24-.19-.41c-.13-.29-.26-.63-.4-1l-.21-.6c-.21-.63-.4-1.31-.57-2.03l-.15-.74c-.08-.41-.15-.83-.2-1.26l-.05-.43c-.06-.57-.11-1.12-.14-1.65-.03-.53-.06-1.02-.09-1.46-.01-.44-.02-.8-.03-1.09-.02-.21-.04-.44-.06-.7-.01-.27-.04-.52-.07-.76l2.13.03ZM58.7,67.49c-.01.25-.01.47,0,.67,0,.19.03.38.07.58l.03.12c.04.11.1.22.18.32l.09.09c.09.08.21.16.34.22.19.08.42.13.68.16.21.02.44.02.71,0l.27-.02c.67-.05,1.29-.12,1.87-.22.58-.11,1.18-.25,1.81-.43l.42,1.99c-.46.12-1,.23-1.62.32-.61.09-1.34.17-2.19.23l-.47.02c-1.06.03-1.91-.12-2.53-.46-.67-.36-1.09-.89-1.26-1.58l-.03-.14c-.06-.28-.09-.58-.11-.89-.01-.32-.01-.67,0-1.04l1.75.04ZM53.72,69.5c.08.28.16.56.25.82.12.35.23.66.34.93,0-.11,0-.21,0-.31l-.58-1.44ZM58.23,69.76c.12.2.29.36.54.49.08.04.18.08.29.12h-.03c-.29-.15-.57-.35-.8-.61ZM63.08,62.72c-.45.07-.95.14-1.49.21l-.83.08c-.28.02-.57.05-.85.07l-.86.05-.85.04c-.55,0-1.07,0-1.55,0l-.37-1.88c.47.03.99.04,1.57.03l.88-.04c.29-.02.59-.03.88-.05.6-.05,1.17-.11,1.71-.18.54-.08,1.01-.15,1.4-.22l.37,1.9Z"/>
  <path d="M46.57,60.86l.86-.56c.38.33.74.71,1.1,1.13l.25.3c.24.29.43.57.59.82l-1.12.77c-.17-.33-.44-.71-.8-1.15-.27-.33-.54-.64-.8-.92.14.72.28,1.42.43,2.11.08.34.15.67.23,1l2.32-.16.27,1.37-2.26.16c.07.29.14.57.21.85.12.45.23.88.34,1.28.11-.52.19-1.07.23-1.63l1.5.21c-.13,1.45-.44,2.75-.93,3.91.07.19.15.36.21.51.17.35.31.55.43.59h.05c.1,0,.14-.17.13-.5,0-.33-.05-.79-.13-1.38.11.1.25.22.43.34.18.13.35.24.52.34.17.1.31.17.41.22.02.8-.02,1.42-.12,1.86-.1.43-.23.73-.4.89-.17.17-.34.26-.51.27-.37.02-.72-.13-1.05-.44l-.14-.14c-.23-.25-.46-.58-.68-.98-.46.7-1,1.31-1.63,1.84-.08-.08-.19-.2-.35-.33-.15-.14-.31-.28-.47-.41-.16-.14-.3-.25-.41-.33.33-.24.62-.51.9-.79l-2.24.16.17.85-1.36.1-1.21-6.2,4.15-.29.95,4.86c.29-.37.54-.76.76-1.19-.21-.58-.43-1.23-.64-1.95-.21-.74-.42-1.54-.63-2.4l-5.27.37-.27-1.37.95-.07c-.06-.22-.15-.47-.26-.76-.13-.36-.27-.68-.42-.97l.87-.28-1.22.09-.1-.53-.57.04,2.28,11.72-1.51.11-.49-2.53c-.35.1-.71.21-1.06.32-.66.19-1.28.36-1.84.52l-.61-1.58c.27-.06.56-.13.87-.2l-1.57-8.06-.6.04-.3-1.56,5.16-.36.16.81,1.48-.1-.26-1.32,1.53-.11.26,1.32,1.53-.11.25,1.28-1.29.09,1.08.12c-.05.35-.1.7-.15,1.04-.04.29-.08.55-.12.78l1.18-.08s0-.03-.01-.04c-.31-1.41-.64-2.93-.98-4.56l1.59-.11c.07.38.14.75.21,1.12ZM49.63,72.42s.07.05.1.07h0s.01-.02.03-.06c-.04,0-.09,0-.13,0ZM43.67,70.84l1.39-.1-.17-.9-1.39.1.17.9ZM38.82,70.33c.31-.08.62-.16.94-.24l-.31-1.6-.97.07.35,1.78ZM43.27,68.8l1.39-.1-.17-.87-1.39.1.17.87ZM38.2,67.11l.97-.07-.31-1.58-.97.07.31,1.58ZM41.95,62.73c.15.27.3.57.43.9.15.34.25.64.31.9l-.58.19,2.04-.14-.76-.11c.03-.27.04-.59.04-.94.01-.33,0-.63,0-.89l-1.48.1ZM37.61,64.1l.97-.07-.31-1.59-.97.07.31,1.59Z"/>
  <path d="M35.02,70.27c-.22.67-.57,1.27-1.05,1.79-.22.25-.47.48-.73.7.11.02.22.04.33.06.85.13,1.74.21,2.65.23-.15.17-.3.4-.44.69-.13.3-.24.55-.31.77l-.72-.06c-.72-.07-1.41-.19-2.09-.34-.37-.09-.74-.19-1.09-.3-.44.22-.91.42-1.4.59l-.59.2c-.6.19-1.22.35-1.87.5-.11-.19-.26-.41-.45-.67-.18-.26-.36-.46-.53-.6.78-.13,1.53-.31,2.25-.52.26-.08.51-.17.76-.26-.59-.32-1.12-.68-1.6-1.08l.94-.45-2.05.14-.24-1.25,6.82-.48.27-.09,1.12.44ZM26.78,74.31l-2.6.18.12.6-1.41.1-.98-5.06,4.01-.28.87,4.46ZM38.35,72.13c-.42.12-.81.23-1.19.33l-.14-.37,1.33.04ZM23.58,71.41l.33,1.69,1.17-.08-.33-1.69-1.17.08ZM29.71,71.46c.43.29.94.55,1.54.77.05.02.1.03.14.05.41-.24.77-.51,1.07-.81.08-.07.15-.15.22-.22l-2.97.21ZM28.45,61.74l1.74-.12-.15-.76,1.6-.11.15.76,1.89-.13.24,1.25-1.88.13.14.71-.75.05c-.08.27-.17.53-.26.76l2.63-.18.21,1.09-2.72.19.08.43,2.41-.17.17.88-2.41.17.09.44,2.41-.17.17.87-2.41.17.09.47,3.08-.22.21,1.09-7.71.54-.6-3.09c-.11.17-.23.33-.35.47-.08-.07-.21-.16-.37-.27-.16-.11-.33-.21-.5-.31-.14-.09-.27-.16-.38-.22l.13.67-3.98.28-.26-1.34,3.98-.28.11.58c.33-.36.62-.79.86-1.28.26-.53.45-1.06.55-1.59l.52.09-.1-.49-1.87.13-.24-1.25,1.87-.13-.15-.77,1.6-.11.15.77ZM25.53,67.81l.26,1.32-3.98.28-.26-1.32,3.98-.28ZM28.81,68.69l1.51-.11-.09-.47-1.51.11.09.47ZM28.55,67.35l1.51-.11-.09-.44-1.51.11.09.44ZM28.29,66.02l1.51-.11-.08-.43-1.51.11.08.43ZM25.4,65.09l-4.98.35-.27-1.4,4.98-.35.27,1.4ZM28.83,63.7l-.75.05h.06c-.05.26-.12.51-.2.76l1.61-.11c.02-.09.04-.19.07-.29.07-.28.11-.54.13-.76l.79.06-.11-.54-1.73.12.14.71ZM24.58,63.07l-3.85.27-.26-1.32,3.85-.27.26,1.32Z"/>
  <path d="M11.1,67.75l.35,1.83.07.4c.06.4.11.82.15,1.26l.02.43c0,.43-.03.87-.11,1.32-.1.59-.31,1.18-.65,1.75-.32.57-.81,1.11-1.46,1.61l-.23-.19c-.09-.07-.18-.14-.29-.22-.2-.15-.41-.29-.63-.43-.22-.13-.42-.24-.59-.32.57-.43,1.01-.88,1.32-1.35.3-.47.5-.94.6-1.42.07-.36.11-.72.11-1.07v-.35c-.04-.47-.1-.91-.18-1.33l-.35-1.78,1.86-.13ZM17.9,75.73l-1.87.13-1.64-8.42,1.87-.13,1.64,8.42ZM12.56,62.06c.51.59,1.06,1.15,1.64,1.66.6.52,1.21.99,1.84,1.41.64.41,1.29.78,1.96,1.09.67.31,1.33.56,1.98.76-.19.24-.35.52-.49.83-.14.3-.27.59-.38.88l-.66-.27c-.66-.29-1.32-.62-1.99-1-.89-.51-1.72-1.05-2.49-1.65-.76-.6-1.41-1.21-1.95-1.82-.26.64-.64,1.31-1.13,1.99l-.39.51c-.4.5-.85.99-1.34,1.46-.65.62-1.35,1.18-2.1,1.67-.05-.07-.11-.15-.17-.22l-.22-.24c-.16-.17-.33-.33-.51-.5-.17-.17-.34-.31-.49-.41.81-.48,1.54-1.06,2.2-1.74.67-.67,1.24-1.38,1.71-2.12.47-.75.82-1.46,1.04-2.13l1.93-.13ZM21.68,66.49l-.35.46-.12-.6.47.14Z"/>
  <path d="M289.64,8.49l18.65-1.3-1.19-6.14-27.68,1.94,6.18,31.81,28.03-1.96-1.19-6.14-19,1.33-1.38-7.12,15.96-1.12-1.13-5.79-15.96,1.12-1.29-6.63ZM291.73,14.07l15.96-1.12,1.51,7.76-15.96,1.12,1,5.15,19-1.33,1.57,8.1-30.03,2.1-6.56-33.77,29.68-2.08,1.58,8.1-18.65,1.3.91,4.66Z"/>
  <path d="M274.29,17.47l3.66,18.85-5.69.4-1.74-3.26c-2.62,2.84-6.45,4.43-11.51,4.78l-.19-.98c4.87-.34,8.47-1.87,10.91-4.5l.95-1.03,2.12,3.96,3.96-.28-3.28-16.88-16.31,1.14.95,4.91,7.78-.54.19.98.05.31c.2,1.55-.38,2.86-1.59,3.9h0s0,.01,0,.01c-1.27,1.04-2.91,1.61-4.87,1.75-2.76.19-5.16-.37-7.05-1.85h-.01c-1.87-1.51-3.01-3.66-3.53-6.32l-.61-3.14c-.52-2.66-.23-4.9,1.03-6.59,1.26-1.73,3.38-2.63,6.14-2.82,1.96-.14,3.79.23,5.44,1.14,1.38.74,2.36,1.77,2.86,3.06l8.58-.6c-.57-2.1-1.62-3.83-3.13-5.22h0s0-.01,0-.01c-1.75-1.67-3.93-2.9-6.59-3.65-2.68-.76-5.61-1.04-8.8-.81-5.64.39-9.63,2.05-12.13,4.85l-.24.28c-2.44,2.91-3.21,7.06-2.13,12.6,1.1,5.64,3.28,9.63,6.42,12.14,3.13,2.47,7.37,3.61,12.89,3.22l.19.98-.53.03c-5.26.28-9.54-.8-12.81-3.25l-.32-.25c-3.43-2.74-5.71-7.01-6.84-12.81-1.11-5.73-.34-10.17,2.31-13.34,2.68-3.21,7.01-5.02,13-5.44l.61-.04c3.06-.16,5.91.14,8.55.89,2.82.8,5.18,2.11,7.08,3.93,1.93,1.79,3.16,4.06,3.7,6.81l-10.52.74c-.27-1.41-1.12-2.49-2.55-3.25-1.35-.75-2.85-1.09-4.51-1.02l-.33.02c-2.59.18-4.42,1.01-5.48,2.47-1.07,1.43-1.36,3.4-.88,5.88l.61,3.14.1.46c.52,2.26,1.53,3.99,3.02,5.19,1.49,1.17,3.42,1.71,5.8,1.63l.48-.03c1.79-.13,3.24-.64,4.35-1.55,1.1-.94,1.52-2.06,1.27-3.37l-7.78.54-1.34-6.87,18.3-1.28Z"/>
  <path d="M239.96,38.98l-11.67.82-2.37-4.66-12.02.84-.52,4.86-11.27.79,5.96-34.64,12.82-.9,19.08,32.89ZM203.34,40.54l9.1-.64.52-4.86,13.51-.94,2.37,4.66,9.5-.66-17.97-30.98-11.42.8-5.61,32.63ZM216.78,14.93l6.9,13.7-10.1.71,1.51-14.28,1.69-.12ZM214.72,28.26l7.43-.52-5.93-11.77h-.2s-1.3,12.29-1.3,12.29Z"/>
  <path d="M175.47,29.01h.2s1.35-19.86,1.35-19.86l15.01-1.05,6.56,33.77-10.92.76-2.37-12.17c-.22-1.13-.42-2.28-.59-3.45l-.16-1.18c-.18-1.61-.31-2.96-.38-4.05-.08-1.09-.13-1.78-.15-2.08h-.2s-1.89,23.33-1.89,23.33l-8.63.6-10.82-22.38h-.2c.09.31.31.99.65,2.06.37,1.04.78,2.35,1.22,3.94.44,1.56.8,3.09,1.1,4.6l2.37,12.17-10.13.71-6.56-33.77,15.56-1.09,8.98,19.12ZM188.48,41.58l8.93-.62-6.18-31.81-13.24.93-1.35,19.85-1.74.12-8.98-19.12-13.79.96,6.18,31.81,8.13-.57-2.18-11.19c-.21-1.11-.47-2.23-.77-3.37l-.31-1.15h0c-.44-1.58-.84-2.87-1.2-3.88v-.02s-.01-.02-.01-.02c-.34-1.07-.56-1.76-.65-2.05l-.33-1.08,2.07-.15,10.82,22.38,7.11-.5,1.89-23.31,2.08-.15.09,1.1c.03.3.08,1,.15,2.09.08,1.07.2,2.4.38,3.99h0c.2,1.56.45,3.08.74,4.56l2.18,11.19Z"/>
  <path d="M143.77,11.48l6.56,33.77-11.02.77-6.56-33.77,11.02-.77ZM140.12,44.97l9.03-.63-6.18-31.81-9.03.63,6.18,31.81Z"/>
  <path d="M111.97,30.81c-1.06-5.46-3.28-9.28-6.52-11.66-3.25-2.38-7.72-3.46-13.58-3.05l-13.86.97,6.18,31.81,13.87-.97.19.98-14.86,1.04-6.56-33.77,14.86-1.04c12-.84,19.1,4.37,21.29,15.62l.1.52c1.94,10.92-3.01,16.79-14.82,17.62l-.19-.98c5.86-.41,9.8-2.08,12.05-4.85,2.24-2.76,2.93-6.78,1.87-12.25ZM92.86,22.25l.19.98-3.64.25,3.42,17.57,3.64-.25c4.62-.32,6.46-2.92,5.51-7.8l-.57-2.94c-.92-4.72-3.56-7.01-7.93-6.85l-.43.02-.19-.98c2.48-.17,4.65.34,6.35,1.73,1.68,1.37,2.7,3.44,3.2,6.01l.57,2.94c.5,2.57.3,4.73-.81,6.29-1.12,1.58-3.03,2.38-5.51,2.56l-4.64.32-3.8-19.53,4.64-.32Z"/>
  <path d="M79.22,50.22l-11.67.82-2.37-4.66-12.02.84-.52,4.86-11.27.79,5.96-34.64,12.82-.9,19.08,32.89ZM42.6,51.78l9.1-.64.52-4.86,13.51-.94,2.37,4.66,9.5-.66-17.97-30.98-11.42.8-5.61,32.63ZM56.04,26.17l6.9,13.7-10.1.71,1.52-14.28,1.69-.12ZM53.98,39.5l7.43-.52-5.93-11.77h-.2s-1.3,12.29-1.3,12.29Z"/>
  <path d="M36.94,44.07c-.42-2.18-1.25-3.78-2.4-4.9-1.07-1.05-2.52-1.78-4.43-2.12l-.39-.06-.81-.12-.33-1.72.68-.25c1.65-.61,2.71-1.52,3.3-2.67.59-1.16.75-2.66.37-4.59-.25-1.3-.81-2.44-1.67-3.45l-.18-.2h-.01c-.88-1.01-1.97-1.77-3.27-2.29l-.26-.1h-.01s-.01-.01-.01-.01c-1.4-.55-2.89-.78-4.47-.67l-21.85,1.53,6.18,31.81,22.15-1.55.19.98-23.14,1.62L0,21.53l22.84-1.6c1.73-.12,3.38.13,4.95.75,1.6.58,2.93,1.49,4.01,2.7,1.11,1.22,1.82,2.61,2.13,4.18.81,4.16-.6,6.91-4.21,8.25l.04.2c4.55.68,7.27,3.34,8.18,7.98l.06.33c.26,1.64.1,3.13-.49,4.48l-.12.26c-.61,1.28-1.57,2.33-2.86,3.13l-.26.16c-1.23.71-2.64,1.14-4.22,1.3l-.34.03-.19-.98c1.68-.12,3.14-.57,4.39-1.35,1.25-.77,2.12-1.78,2.65-3.01h0c.55-1.26.69-2.67.38-4.27ZM23.12,39.32l.19.98-8.38.59,1.13,5.79,8.38-.59c.73-.05,1.28-.34,1.65-.86.35-.49.49-1.05.42-1.69l-.04-.28-.1-.49c-.15-.75-.52-1.36-1.11-1.81-.5-.43-1.06-.65-1.68-.67h-.27s-.19-.98-.19-.98c.99-.07,1.93.24,2.73.92.82.64,1.33,1.49,1.52,2.47l.1.49.03.18c.14.92-.04,1.76-.55,2.47h0c-.53.75-1.34,1.16-2.32,1.23l-9.38.66-1.51-7.76,9.38-.66ZM19.85,26.66l.19.98-7.58.53,1.12,5.74,7.58-.53c.73-.05,1.28-.34,1.65-.86.35-.49.49-1.05.42-1.69l-.04-.28-.1-.49c-.12-.63-.42-1.16-.89-1.59l-.21-.18c-.53-.43-1.09-.65-1.69-.67h-.26s-.19-.98-.19-.98c.99-.07,1.92.25,2.74.92h0c.81.63,1.32,1.46,1.5,2.42l.1.49.03.18c.14.92-.04,1.76-.55,2.47h0c-.53.75-1.34,1.16-2.32,1.23l-8.58.6-1.5-7.71,8.58-.6Z"/>
</svg>