<?xml version="1.0" encoding="UTF-8"?>
<svg id="_レイヤー_1" data-name="レイヤー_1" xmlns="http://www.w3.org/2000/svg" version="1.1" viewBox="0 0 372.27 372.26">
  <!-- Generator: Adobe Illustrator 29.5.1, SVG Export Plug-In . SVG Version: 2.1.0 Build 141)  -->
  <defs>
    <style>
      .st0 {
        fill: #59b6e9;
      }

      .st1 {
        fill: none;
        stroke: #498db3;
        stroke-width: 3.48px;
      }
    </style>
  </defs>
  <path class="st0" d="M291.2,34.82v.16l.03.16,5.4,30.48h0c.91,5.02,4.6,8.7,9.61,9.61h0l30.5,5.4h.03s.03.01.03.01c4.23.6,7.18,4.92,6.53,9.47l-.02.13v.68l-7.27,29.83c-1.41,4.78,1.01,9.79,5.01,12.45h0s25.86,17.36,25.86,17.36h0c3.71,2.47,4.69,7.38,2.28,11.16l-.25.25-.09.09-.07.1-18.91,24.68h0c-3.2,4.13-3.18,9.19-.93,13.24l.03.05.03.04,16.6,26.23v.02s.02.02.02.02c2.49,3.72,1.24,8.69-2.48,10.86l-.21.12-.17.17-.2.2-27.53,14.9c-4.58,2.3-6.9,7.34-6,11.99l4.24,30.81h0c.62,4.32-2.44,8.38-6.79,9.07h-.77s-30.89,2.32-30.89,2.32h-.02s-.01,0-.01,0c-4.97.45-9.13,3.65-10.51,8.68,0,0,0,0,0,.01l-8.49,29.68c-1.27,4.44-5.66,6.92-10.05,5.66l-.08-.02-.19-.19-.4-.14-29.31-10.4c-4.64-1.84-9.73-.41-12.91,3.66l-20.06,23.89h0s0,.02,0,.02c-2.76,3.37-7.7,3.76-11.21.95l-.32-.32h-.01s-.01-.02-.01-.02l-22.39-21.6-.03-.03-.03-.03c-3.61-3.15-8.59-4.06-13.11-2.26l-.06.02-.06.03-27.76,13.49h-.02c-4.07,1.87-8.62.35-10.54-3.51-.1-.43-.29-.83-.56-1.18l-11.47-28.65c-1.87-4.66-6.48-7.34-11.38-7.34h-.07s-31.62,1.16-31.62,1.16c-4.41-.02-8.18-3.48-8.53-7.85v-.67l1.16-31.21v-.03s0-.03,0-.03c0-4.9-2.69-9.51-7.35-11.37l-28.96-11.57h-.01s-.01,0-.01,0c-4.05-1.56-6.25-6.23-4.36-10.64l.15-.34.07-.07.14-.29,13.5-28.13h0c2.29-4.61,1.34-9.7-2.27-13.33,0,0,0,0-.01-.01l-21.6-22.35h-.01s-.01-.02-.01-.02c-3.16-3.16-3.06-8.43.25-11.13l.07-.06.07-.07.33-.33,23.87-20.01h.01s.01-.03.01-.03c3.65-3.19,5.01-8.2,3.65-12.74l-.02-.06-.02-.06-10.81-28.55h0c-1.51-3.93.53-8.54,4.45-10.22.23-.02.53-.08.82-.23.22-.11.39-.24.5-.34l29.29-8.36h.01s.01,0,.01,0c4.54-1.36,8.2-5.44,8.65-10.49h0s0-.03,0-.03l2.32-30.86h0c.31-4.39,4.07-7.86,8.83-7.54h.06s.71,0,.71,0l30.76,4.23h.04s.04,0,.04,0c4.91.45,9.51-1.79,11.83-5.97h0s0-.02,0-.02l14.67-27.38h0c2.14-3.96,6.66-5.32,10.8-3.56l.14.14.15.15.18.11,26.23,16.19c4.18,2.76,9.69,2.3,13.39-.9l24.28-18.87h.02s.02-.03.02-.03c3.39-2.77,8.36-2.22,11.23,1.6l.56.75h.42l.05.03,17.05,25.37h0c2.75,4.12,7.81,5.99,12.46,4.62l30.04-7.31c4.45-.94,8.69,1.56,9.69,5.72v.56Z"/>
  <path class="st1" d="M221.47,5.46h-.02M291.2,34.82v.16l.03.16,5.4,30.48h0c.91,5.02,4.6,8.7,9.61,9.61h0l30.5,5.4h.03s.03.01.03.01c4.23.6,7.18,4.92,6.53,9.47l-.02.13v.68l-7.27,29.83c-1.41,4.78,1.01,9.79,5.01,12.45h0s25.86,17.36,25.86,17.36h0c3.71,2.47,4.69,7.38,2.28,11.16l-.25.25-.09.09-.07.1-18.91,24.68h0c-3.2,4.13-3.18,9.19-.93,13.24l.03.05.03.04,16.6,26.23v.02s.02.02.02.02c2.49,3.72,1.24,8.69-2.48,10.86l-.21.12-.17.17-.2.2-27.53,14.9c-4.58,2.3-6.9,7.34-6,11.99l4.24,30.81h0c.62,4.32-2.44,8.38-6.79,9.07h-.77s-30.89,2.32-30.89,2.32h-.02s-.01,0-.01,0c-4.97.45-9.13,3.65-10.51,8.68,0,0,0,0,0,.01l-8.49,29.68c-1.27,4.44-5.66,6.92-10.05,5.66l-.08-.02-.19-.19-.4-.14-29.31-10.4c-4.64-1.84-9.73-.41-12.91,3.66l-20.06,23.89h0s0,.02,0,.02c-2.76,3.37-7.7,3.76-11.21.95l-.32-.32h-.01s-.01-.02-.01-.02l-22.39-21.6-.03-.03-.03-.03c-3.61-3.15-8.59-4.06-13.11-2.26l-.06.02-.06.03-27.76,13.49h-.02c-4.07,1.87-8.62.35-10.54-3.51-.1-.43-.29-.83-.56-1.18l-11.47-28.65c-1.87-4.66-6.48-7.34-11.38-7.34h-.07s-31.62,1.16-31.62,1.16c-4.41-.02-8.18-3.48-8.53-7.85v-.67l1.16-31.21v-.03s0-.03,0-.03c0-4.9-2.69-9.51-7.35-11.37l-28.96-11.57h-.01s-.01,0-.01,0c-4.05-1.56-6.25-6.23-4.36-10.64l.15-.34.07-.07.14-.29,13.5-28.13h0c2.29-4.61,1.34-9.7-2.27-13.33,0,0,0,0-.01-.01l-21.6-22.35h-.01s-.01-.02-.01-.02c-3.16-3.16-3.06-8.43.25-11.13l.07-.06.07-.07.33-.33,23.87-20.01h.01s.01-.03.01-.03c3.65-3.19,5.01-8.2,3.65-12.74l-.02-.06-.02-.06-10.81-28.55h0c-1.51-3.93.53-8.54,4.45-10.22.23-.02.53-.08.82-.23.22-.11.39-.24.5-.34l29.29-8.36h.01s.01,0,.01,0c4.54-1.36,8.2-5.44,8.65-10.49h0s0-.03,0-.03l2.32-30.86h0c.31-4.39,4.07-7.86,8.83-7.54h.06s.71,0,.71,0l30.76,4.23h.04s.04,0,.04,0c4.91.45,9.51-1.79,11.83-5.97h0s0-.02,0-.02l14.67-27.38h0c2.14-3.96,6.66-5.32,10.8-3.56l.14.14.15.15.18.11,26.23,16.19c4.18,2.76,9.69,2.3,13.39-.9l24.28-18.87h.02s.02-.03.02-.03c3.39-2.77,8.36-2.22,11.23,1.6l.56.75h.42l.05.03,17.05,25.37h0c2.75,4.12,7.81,5.99,12.46,4.62l30.04-7.31c4.45-.94,8.69,1.56,9.69,5.72v.56Z"/>
</svg>