<?xml version="1.0" encoding="UTF-8"?>
<svg id="_レイヤー_1" data-name="レイヤー_1" xmlns="http://www.w3.org/2000/svg" version="1.1" viewBox="0 0 253.07 167.49">
  <!-- Generator: Adobe Illustrator 29.5.1, SVG Export Plug-In . SVG Version: 2.1.0 Build 141)  -->
  <defs>
    <style>
      .st0 {
        fill: #fff;
      }

      .st1 {
        fill: #6c8600;
      }

      .st2 {
        fill: #d4f15f;
      }
    </style>
  </defs>
  <path class="st2" d="M235.34,109.05l-198.1,27.41c-8.53,1.18-14.49,9.05-13.31,17.58,1.18,8.53,9.05,14.49,17.58,13.31l198.1-27.41c8.53-1.18,14.49-9.05,13.31-17.58-1.18-8.53-9.05-14.49-17.58-13.31Z"/>
  <path class="st1" d="M77.51,143.66c-.18-.61-.41-1.63-.44-2.42,2.22.12,6.29-.42,8.27-1.05.17.66.29,1.75.28,2.35-1.94.62-5.95,1.13-8.11,1.12ZM77.36,147.45c.7.04,1.79.22,2.41.47-.16.39-.31.91-.25,1.4.09.67.65,1.28,2.81.98,1.89-.26,3.63-.88,4.81-1.62.41.57.81,1.68.94,2.39-.92.57-2.86,1.28-5.32,1.62-3.19.44-5.44-.43-5.72-2.48-.14-1.03.12-2.19.33-2.77ZM91.71,140.42l.02-.63c.01-.58-.02-1.37-.07-1.95.73-.03,2.03.05,2.63.2-.04.25-.11.96-.18,1.86,1.39-.36,2.88-.84,4.01-1.44.11.38.3,1.74.29,2.3-1.25.54-2.9,1.02-4.47,1.39-.06,1.09-.12,2.13-.12,2.68.96-.95,2.13-1.65,3.84-1.88,2.33-.32,3.99,1.03,4.25,2.91.43,3.1-2.03,5.1-6.34,5.39-.36-.39-1.03-1.6-1.22-2.25,3.3-.01,5.43-.95,5.17-2.83-.12-.86-.96-1.26-1.95-1.13-1.91.26-2.97,1.67-3.5,2.52-.15.25-.29.62-.42.92-.54-.08-1.77-.35-2.25-.63.06-.48.08-1.07.11-1.72.02-.84.08-2.18.12-3.5-.71.11-1.34.22-1.8.25-.25-.5-.57-1.5-.74-2.25.55.01,1.24-.02,1.91-.11.21-.03.45-.06.7-.11ZM105.66,138.11c0-.61.24-1.68.39-2.14,1.59.28,4.14.58,5.38.64,0,.62-.13,1.55-.4,2.18-1.04-.05-4.59-.47-5.37-.69ZM107.04,139.24c-.01.78.08,2.98.17,3.67,1.13-1.15,2.45-1.86,4.01-2.07,2.57-.35,4.24,1.07,4.51,3.05.49,3.55-3.04,5.3-6.46,5.48-.41-.43-.92-1.57-1.07-2.25,3.46-.05,5.38-1.2,5.14-2.96-.11-.84-.88-1.34-2.09-1.17-1.73.24-2.98,1.44-3.68,2.53-.15.25-.34.62-.46.88-.52-.13-1.56-.42-1.99-.68,0-.94-.4-5.99-.48-6.56.68-.03,1.87-.01,2.4.08ZM125.58,144.97c1.34-.19,2.78-.76,3.58-1.24.2.79.19,1.81.08,2.54-.51.25-2.09.68-3.41.87-2.31.32-4.48-.17-4.78-2.35-.26-1.86,1.17-3.08,2.82-4.22-.22-.24-.57-.39-.99-.33-1.01.14-1.8,1.04-2.83,2.85-.64-.34-1.43-.93-1.88-1.49,1.29-1.47,2.1-2.81,2.6-3.93-.65.12-1.27.24-1.8.31-.27-.52-.58-1.49-.67-2.13.49,0,1-.02,1.48-.08.45-.06,1.03-.16,1.69-.29.13-.62.21-1.31.22-1.94.66-.05,1.79.09,2.33.24-.04.28-.12.7-.22,1.14.89-.24,1.73-.54,2.33-.84.25.48.46,1.44.49,1.98-.84.33-2.13.72-3.5,1.08-.22.58-.51,1.13-.74,1.59.43-.2.88-.32,1.22-.37.75-.1,1.59.16,2.08.97.93-.64,1.72-1.19,2.32-1.67.33-.24.71-.56,1.08-.97.44.43.96,1.45,1.12,2.02-.36.38-2.5,1.73-4.02,2.68.12.74.25,1.73.35,2.34-.69.19-1.4.28-2.12.28,0-.27-.05-.8-.13-1.38-.84.66-1.08,1.12-1.01,1.63.09.63.68.94,2.29.72ZM142.66,135.95c-.47-.49-1.05-.87-1.68-1.12-.62-.25-1.21-.34-1.78-.26-.45.06-.86.21-1.23.44-.36.23-.66.53-.91.89-.25.37-.43.79-.53,1.23-.09.48-.11.97-.03,1.45.07.51.21.98.43,1.41.23.41.51.76.85,1.04.34.28.71.48,1.12.61.42.12.85.15,1.3.09.52-.07,1.05-.29,1.59-.65.54-.37,1.01-.83,1.39-1.36l2.64,2.14c-.42.6-.92,1.14-1.48,1.61-.56.48-1.18.88-1.85,1.19-.64.29-1.31.49-2.01.59-1.03.14-2,.1-2.91-.12-.88-.23-1.71-.62-2.45-1.17-.73-.54-1.34-1.23-1.8-2.02-.47-.85-.78-1.78-.91-2.75-.14-1-.09-1.93.16-2.82.23-.88.65-1.7,1.21-2.42.58-.72,1.29-1.32,2.1-1.77.87-.48,1.82-.79,2.8-.91.69-.1,1.39-.09,2.09.02.7.1,1.38.28,2.03.56.64.26,1.23.61,1.77,1.04l-1.92,3.06ZM146.46,130.45l3.99-.55,1.4,10.1,5.64-.78.46,3.34-9.62,1.33-1.86-13.44ZM158.43,128.79l3.99-.55,1.86,13.44-3.99.55-1.86-13.44ZM176.03,131.34c-.47-.49-1.05-.87-1.68-1.12-.62-.25-1.21-.34-1.78-.26-.45.06-.86.21-1.23.44-.36.23-.66.53-.91.89-.25.37-.44.79-.53,1.23-.09.48-.1.97-.03,1.45.07.51.21.98.43,1.41.23.41.51.76.85,1.04.34.28.71.48,1.12.61.42.12.85.16,1.3.09.52-.07,1.05-.29,1.59-.65.54-.37,1.01-.83,1.39-1.36l2.64,2.13c-.42.6-.92,1.14-1.48,1.61-.56.48-1.18.88-1.85,1.19-.64.29-1.32.49-2.01.59-1.04.14-2.01.1-2.91-.12-.88-.23-1.71-.62-2.45-1.17-.73-.54-1.35-1.23-1.8-2.02-.48-.85-.78-1.78-.91-2.75-.14-1-.09-1.93.16-2.82.23-.88.64-1.7,1.21-2.41.58-.72,1.29-1.32,2.1-1.78.87-.48,1.82-.79,2.8-.92.69-.1,1.39-.09,2.09.02.7.1,1.38.28,2.03.56.64.26,1.23.61,1.77,1.04l-1.92,3.06ZM179.83,125.83l3.99-.55.75,5.39,3.76-6.01,4.6-.64-7.7,11.4.46,3.3-3.99.55-1.86-13.44ZM188.47,129.77l6.63,7.64-4.77.66-4.08-4.81,2.23-3.49ZM195.11,123.75l3.68-.51.48,3.49.04,5.21-2.32.32-1.4-5.02-.48-3.49ZM198.27,133.46c.52-.07.98.03,1.35.32.39.28.62.7.7,1.23.07.54-.04.99-.34,1.38-.29.38-.69.6-1.22.68-.54.07-.99-.03-1.37-.32-.38-.29-.6-.7-.68-1.24s.03-.99.32-1.37c.29-.38.7-.6,1.24-.68Z"/>
  <path class="st0" d="M226.08,1.04c.56,0,1.17-.04,1.84-.1.67-.07,1.33-.16,2.01-.26.68-.11,1.33-.22,1.94-.34.62-.12,1.17-.24,1.63-.35l.36,2.63c-.54.12-1.13.24-1.75.36-.63.11-1.26.21-1.91.3-.65.09-1.3.17-1.94.23-.63.05-1.23.1-1.8.13l-.38-2.61ZM228.84,8.18c-.02.28-.03.52-.04.73,0,.21.02.42.06.64.02.18.09.33.2.45.11.12.25.21.43.27.19.05.42.09.68.09.26,0,.57-.03.92-.08.75-.1,1.45-.23,2.09-.39.65-.17,1.35-.39,2.09-.65l.43,2.75c-.54.18-1.15.34-1.85.5-.69.15-1.53.3-2.53.44-1.47.2-2.61.1-3.43-.32-.8-.42-1.26-1.07-1.39-1.97-.05-.36-.08-.73-.08-1.1,0-.38.03-.79.07-1.25l2.35-.12ZM223.7.33c-.03.13-.06.32-.09.56-.03.25-.06.48-.09.72-.02.23-.04.4-.05.5,0,.18-.02.46-.04.83-.02.37-.03.79-.05,1.28,0,.47,0,.96,0,1.46,0,.49,0,.97.03,1.42.01.44.04.82.09,1.14,0,.02.01.08.03.19.01.1.03.17.04.2.06-.17.11-.32.16-.47.06-.15.12-.29.16-.43.06-.16.11-.32.16-.48l1.37.81c-.1.53-.19,1.08-.29,1.65-.08.57-.15,1.11-.21,1.61-.06.5-.1.91-.12,1.24,0,.13,0,.28,0,.45,0,.17,0,.3.02.38.01.09.03.2.05.34.02.15.04.29.07.42l-2.34.48c-.25-.54-.51-1.29-.79-2.26-.27-.98-.49-2.04-.65-3.19-.09-.64-.16-1.29-.2-1.95-.03-.66-.06-1.29-.07-1.89,0-.62,0-1.17,0-1.66.01-.49.02-.9.02-1.22,0-.26,0-.57,0-.93,0-.35-.02-.69-.05-1.01l2.88-.16Z"/>
  <path class="st0" d="M204.79,14.96c1.02-.18,2.18-.37,3.49-.59,1.32-.23,2.69-.47,4.12-.72,1.44-.26,2.85-.51,4.24-.76l.23,2.25c-1.34.26-2.7.53-4.08.79-1.37.26-2.69.5-3.95.74-1.25.24-2.38.46-3.4.64l-.65-2.35ZM204.06,10.07l14.03-1.94.32,2.27-14.03,1.94-.32-2.27ZM206.68,6.39l7.81-1.08.31,2.24-7.81,1.08-.31-2.24ZM208.11,11.03l2.92.37c-.19.55-.38,1.11-.59,1.68-.21.56-.42,1.08-.62,1.58-.19.5-.39.94-.57,1.33l-2.24-.41c.16-.43.31-.91.45-1.44.16-.53.29-1.06.4-1.6.12-.54.2-1.05.25-1.51ZM212.64,12.14l2.02-1.43c.55.36,1.11.76,1.66,1.19.55.43,1.06.87,1.54,1.31.47.45.87.87,1.19,1.26l-2.1,1.7c-.28-.4-.67-.83-1.14-1.32-.47-.47-.98-.95-1.54-1.42-.55-.48-1.09-.92-1.62-1.3ZM210.22,3.22c-.36.68-.85,1.39-1.46,2.12-.6.73-1.28,1.45-2.06,2.14-.76.69-1.57,1.31-2.44,1.86-.12-.19-.28-.4-.48-.62-.2-.23-.42-.46-.64-.67-.21-.22-.42-.41-.61-.57.91-.54,1.75-1.18,2.53-1.91.79-.74,1.48-1.5,2.07-2.29.59-.79,1.04-1.53,1.36-2.21l2.59-.36c.53.56,1.1,1.06,1.7,1.51.61.45,1.24.86,1.9,1.21.66.34,1.34.63,2.02.87s1.38.42,2.08.55c-.26.36-.5.76-.71,1.2-.2.44-.39.86-.56,1.26-.88-.27-1.79-.62-2.7-1.05-.92-.43-1.78-.91-2.58-1.44-.81-.53-1.48-1.07-2.03-1.61Z"/>
  <path class="st0" d="M187.06,4.88l4.85-.67,1.45,10.51-4.85.67-.31-2.22,2.59-.36-.84-6.08-2.59.36-.31-2.21ZM187.66,9.01l3.42-.47.3,2.17-3.42.47-.3-2.17ZM194.3,3.68l4.87-.67.31,2.26-4.87.67-.31-2.26ZM194.85,7.65l4.87-.67.3,2.19-4.87.67-.3-2.19ZM195.4,11.56l4.87-.67.3,2.19-4.87.67-.3-2.19ZM185.78,5.06l2.26-.31,1.65,11.91-2.26.31-1.65-11.91ZM198.26,3.13l2.43-.34,1.75,12.66c.08.6.07,1.08-.02,1.44-.09.37-.3.67-.63.91-.34.24-.77.43-1.28.55-.5.13-1.1.24-1.79.33-.06-.22-.16-.47-.29-.75-.13-.28-.27-.55-.42-.82-.15-.27-.3-.49-.45-.68.27-.03.55-.05.83-.08.29-.04.56-.08.79-.11.24-.03.4-.06.49-.07.16-.02.26-.06.31-.13.05-.06.06-.17.04-.31l-1.75-12.63ZM192.82,3.88l2.41-.33.85,6.16c.1.74.17,1.54.2,2.41.03.85-.02,1.73-.15,2.61-.13.88-.38,1.73-.76,2.56-.38.82-.92,1.56-1.63,2.23-.15-.14-.35-.3-.6-.48s-.52-.36-.79-.53c-.26-.17-.49-.29-.69-.37.64-.6,1.12-1.24,1.45-1.92.33-.69.55-1.39.65-2.1.11-.71.14-1.42.1-2.11-.04-.69-.1-1.36-.19-2l-.85-6.15Z"/>
  <path class="st0" d="M178.13,10.46l.27,1.94,3.7-.51-.27-1.94-3.7.51ZM175.49,8.7l8.57-1.19.84,6.1-8.57,1.19-.84-6.1ZM180.92,4.82l2.63.27c-.16.57-.32,1.11-.48,1.63-.16.51-.31.96-.45,1.33l-2.2-.3c.08-.27.15-.58.21-.92.08-.34.14-.69.18-1.04.05-.35.09-.68.1-.98ZM175.29,6.43l2.08-.99c.33.37.64.78.93,1.24.3.46.54.88.7,1.24l-2.16,1.12c-.13-.37-.35-.8-.64-1.28-.3-.5-.6-.94-.9-1.33ZM180.63,13.74l2.31-.32.62,4.45c.04.27.07.44.09.5.03.06.09.09.17.08.02,0,.05,0,.07,0,.03,0,.07,0,.1-.01.03,0,.06,0,.07,0,.07,0,.11-.07.13-.17.03-.12.03-.34,0-.67-.02-.34-.08-.84-.16-1.51.16.1.37.2.62.29.26.09.53.17.81.23.28.05.53.09.74.12.07.93.06,1.66-.02,2.18-.09.54-.26.93-.51,1.17-.25.24-.6.39-1.05.45-.08.01-.16.02-.24.03-.08.01-.16.02-.24.03-.08.01-.16.02-.24.03-.08.01-.16.02-.24.03-.56.08-1,.05-1.32-.09-.31-.13-.56-.39-.72-.77-.16-.39-.28-.92-.37-1.58l-.62-4.46ZM177.69,14.23l2.46-.34c.06.74.08,1.46.06,2.17-.02.71-.1,1.4-.26,2.06-.15.65-.41,1.27-.77,1.87-.35.6-.85,1.16-1.5,1.68-.13-.2-.3-.41-.52-.63-.2-.22-.42-.44-.66-.65-.23-.2-.46-.35-.67-.47.69-.52,1.18-1.08,1.45-1.69.28-.61.43-1.26.45-1.93.02-.68,0-1.37-.05-2.07ZM169.76,11.84l4.93-.68.25,1.82-4.93.68-.25-1.82ZM169.19,6.98l4.87-.67.25,1.82-4.87.67-.25-1.82ZM170.09,14.23l4.93-.68.25,1.82-4.93.68-.25-1.82ZM168.59,9.48l6.38-.88.26,1.9-6.38.88-.26-1.9ZM171.56,16.5l3.96-.55.73,5.24-3.96.55-.26-1.9,1.89-.26-.2-1.43-1.89.26-.26-1.9ZM170.36,16.67l2.04-.28.81,5.84-2.04.28-.81-5.84Z"/>
  <path class="st0" d="M159.51,22.5l-1.74-12.55,4.38-.61c.87-.12,1.66-.13,2.4-.04.73.08,1.34.32,1.81.71.48.39.77.99.88,1.8.05.37.04.75-.05,1.14-.09.38-.23.73-.44,1.06-.2.31-.45.56-.77.74v.07c.66.08,1.23.33,1.73.76.49.42.8,1.05.91,1.88.12.85,0,1.59-.37,2.2-.36.6-.9,1.09-1.6,1.46-.71.36-1.51.6-2.42.73l-4.73.65ZM161.48,14.52l1.25-.17c.64-.09,1.09-.28,1.34-.58.27-.3.37-.66.31-1.09-.06-.45-.26-.75-.59-.9-.33-.16-.81-.2-1.44-.11l-1.25.17.37,2.68ZM162.2,19.77l1.5-.21c.73-.1,1.26-.31,1.58-.61.33-.32.46-.75.39-1.29-.07-.52-.31-.86-.71-1.03-.39-.17-.95-.21-1.68-.11l-1.5.21.42,3.05Z"/>
  <path class="st0" d="M148.9,23.96l-1.74-12.55,7.95-1.1.35,2.51-4.93.68.32,2.32,4.19-.58.35,2.53-4.19.58.37,2.66,5.12-.71.35,2.53-8.13,1.13Z"/>
  <path class="st0" d="M134.24,25.99l-4.01-12.23,3.06-.42,1.58,5.62c.18.64.35,1.28.53,1.94.18.65.36,1.31.53,1.97h.07c.03-.7.06-1.38.09-2.06.03-.68.06-1.35.1-2.02l.49-5.9,2.54-.35,2.09,5.55c.21.62.42,1.26.63,1.92.22.65.43,1.3.65,1.95h.08c-.01-.7-.03-1.37-.04-2.05-.01-.67-.03-1.34-.04-2l.03-5.84,2.85-.39-.43,12.85-3.79.52-1.88-5.3c-.17-.47-.33-.94-.49-1.43-.15-.48-.28-.96-.4-1.42h-.07c-.01.49-.03.99-.05,1.49,0,.5-.03,1-.05,1.5l-.34,5.61-3.72.52Z"/>
  <path class="st0" d="M125.91,30.29l1.4-17.29,1.94-.27-1.38,17.28-1.95.27Z"/>
  <path class="st0" d="M109.74,28.11c1.02-.18,2.18-.37,3.49-.59,1.32-.23,2.69-.47,4.12-.72,1.44-.26,2.85-.51,4.24-.76l.23,2.25c-1.34.26-2.7.53-4.08.79-1.37.26-2.69.5-3.95.74-1.25.24-2.38.46-3.4.64l-.65-2.35ZM109.01,23.22l14.03-1.94.31,2.27-14.03,1.94-.31-2.27ZM111.63,19.55l7.81-1.08.31,2.24-7.81,1.08-.31-2.24ZM113.06,24.19l2.92.37c-.19.55-.38,1.11-.59,1.68-.21.56-.42,1.08-.62,1.58-.19.5-.39.94-.57,1.33l-2.24-.41c.16-.43.31-.91.45-1.44.16-.52.29-1.06.4-1.6.12-.54.2-1.05.25-1.51ZM117.59,25.29l2.02-1.43c.55.36,1.11.76,1.66,1.19.55.43,1.06.87,1.54,1.31.47.45.87.87,1.19,1.26l-2.1,1.7c-.28-.4-.67-.83-1.14-1.32-.47-.47-.98-.95-1.53-1.42-.55-.48-1.09-.92-1.62-1.3ZM115.17,16.38c-.36.68-.85,1.39-1.46,2.12-.6.73-1.28,1.45-2.06,2.14-.76.69-1.57,1.31-2.44,1.86-.12-.19-.28-.4-.48-.62-.2-.23-.42-.46-.64-.67-.21-.22-.42-.41-.61-.57.91-.54,1.75-1.18,2.53-1.91.79-.74,1.48-1.5,2.07-2.29.59-.79,1.04-1.53,1.36-2.21l2.59-.36c.53.56,1.1,1.06,1.7,1.51.61.45,1.25.86,1.9,1.21.67.34,1.34.63,2.03.87s1.38.42,2.08.55c-.26.36-.5.76-.71,1.2-.2.44-.39.86-.56,1.26-.88-.27-1.79-.62-2.7-1.05-.92-.43-1.78-.91-2.58-1.44-.81-.53-1.48-1.07-2.03-1.61Z"/>
  <path class="st0" d="M94.34,22.75l7.44-1.03.29,2.1-7.44,1.03-.29-2.11ZM91.74,26.93l15.17-2.1.31,2.24-15.17,2.1-.31-2.24ZM97.92,25.05l2.51-.35.68,4.93c.08.6.06,1.07-.06,1.43-.11.36-.38.66-.82.9-.43.23-.92.4-1.47.51-.56.12-1.18.23-1.88.33-.13-.34-.32-.72-.57-1.16-.25-.43-.5-.79-.73-1.08.32-.03.65-.07,1.01-.11.37-.04.7-.08,1-.12.29-.04.49-.07.61-.08.17-.02.28-.06.33-.11.06-.05.08-.14.07-.25l-.67-4.85ZM100.97,21.83l.61-.08.51-.19,1.7.97c-.32.48-.69.97-1.12,1.48-.42.5-.88.99-1.36,1.46-.47.45-.97.87-1.49,1.24-.18-.19-.42-.41-.73-.65-.3-.24-.55-.44-.75-.58.38-.29.75-.63,1.11-1.01s.68-.76.96-1.15c.28-.38.49-.72.63-1.01l-.06-.45ZM90.92,19.98l14.9-2.06.6,4.33-2.41.33-.3-2.19-10.2,1.41.3,2.19-2.29.32-.6-4.33ZM102.02,15.9l2.78.39c-.32.64-.66,1.26-1,1.85-.33.59-.64,1.1-.92,1.52l-2.12-.43c.17-.32.34-.67.49-1.05.16-.39.31-.78.44-1.18.14-.4.25-.77.33-1.11ZM91.82,18.29l1.96-1.22c.34.27.67.59,1.01.96.35.35.61.68.79.99l-2.08,1.33c-.16-.3-.4-.64-.72-1.02-.32-.39-.63-.74-.95-1.05ZM95.96,17.34l2.06-1.11c.31.31.61.68.92,1.09.31.4.54.77.7,1.09l-2.2,1.21c-.12-.31-.33-.69-.62-1.12-.29-.43-.58-.82-.87-1.17Z"/>
  <path class="st0" d="M78.65,24.33l.09.66,6.45-.89-.09-.66-6.45.89ZM79.01,26.96l.09.66,6.45-.89-.09-.66-6.45.89ZM78.29,21.72l.09.66,6.45-.89-.09-.66-6.45.89ZM75.64,19.93l11.3-1.56,1.4,10.14-11.3,1.56-1.4-10.14ZM82.99,27.54l2.51-.35.55,3.94c.04.29.1.47.18.54.09.06.27.07.55.03.06,0,.14-.02.25-.03.12-.02.25-.03.39-.05.15-.02.28-.04.4-.06.13-.02.24-.03.3-.04.18-.02.31-.09.38-.21.08-.11.11-.33.12-.65,0-.32-.03-.8-.1-1.45.19.11.42.22.7.32.29.09.58.16.89.22.31.06.57.1.79.13.05.94,0,1.68-.12,2.21-.12.54-.35.94-.69,1.19-.33.25-.8.42-1.41.5-.09.01-.2.03-.34.05-.13.02-.28.04-.44.06-.15.02-.3.04-.45.06-.15.02-.28.04-.4.06-.12.02-.23.03-.32.04-.74.1-1.33.09-1.76-.05-.43-.12-.75-.39-.97-.81-.2-.41-.36-.97-.46-1.7l-.55-3.96ZM78.95,28.99l2.63-.36c.04.78.03,1.51-.04,2.19-.07.67-.26,1.3-.58,1.88-.31.57-.8,1.1-1.48,1.59s-1.59.96-2.76,1.39c-.1-.22-.24-.45-.44-.69-.18-.25-.39-.5-.62-.74-.22-.23-.42-.42-.61-.57.97-.32,1.73-.64,2.27-.97.55-.33.94-.67,1.18-1.04.25-.38.39-.78.43-1.21.04-.44.05-.93.02-1.48Z"/>
  <path class="st0" d="M68.92,38.17l1.4-17.29,1.94-.27-1.38,17.28-1.95.27Z"/>
  <path class="st0" d="M60.7,30.01l.16,1.18,3.76-.52-.16-1.18-3.76.52ZM58.49,28.55l7.8-1.08.64,4.65-7.8,1.08-.64-4.65ZM61.55,23.54c-.19.46-.44.96-.75,1.49-.31.54-.68,1.06-1.1,1.58-.41.5-.85.95-1.33,1.33-.15-.28-.36-.59-.63-.94-.27-.36-.51-.66-.74-.88.48-.36.92-.8,1.33-1.32.42-.53.78-1.08,1.09-1.64.31-.57.55-1.1.71-1.59l2.1-.29c.39.45.83.89,1.3,1.31.48.43.98.8,1.49,1.11.52.32,1.04.55,1.56.71-.17.31-.35.68-.51,1.12-.16.42-.29.81-.4,1.17-.5-.22-1.01-.5-1.52-.84-.51-.35-.99-.73-1.44-1.14-.45-.41-.83-.81-1.14-1.2ZM61,26.48l2.16-.3.44,3.2c.09.68.14,1.39.14,2.13,0,.73-.11,1.47-.33,2.22-.21.74-.57,1.46-1.09,2.18-.51.71-1.23,1.38-2.17,2.02-.12-.15-.29-.33-.5-.51-.2-.19-.41-.38-.63-.57-.22-.18-.42-.31-.59-.42.81-.52,1.44-1.07,1.88-1.63.45-.58.76-1.16.94-1.74.18-.59.27-1.16.27-1.74.01-.58-.02-1.14-.09-1.67l-.44-3.17ZM64.03,31.47c.41.78.95,1.47,1.63,2.07.68.6,1.45,1.03,2.32,1.27-.15.17-.31.38-.48.63-.16.25-.31.51-.46.77-.15.27-.26.52-.34.73-.99-.39-1.85-1.01-2.57-1.86-.72-.85-1.34-1.82-1.86-2.92l1.77-.71ZM59.34,25.89l5.17-.72.26,1.85-5.17.72-.26-1.85ZM52.2,25.88l4.87-.67.25,1.82-4.87.67-.25-1.82ZM52.55,28.44l4.87-.67.25,1.82-4.87.67-.25-1.82ZM51.76,31.16l5.84-.81.26,1.87-5.84.81-.26-1.87ZM53.7,24.23l1.92-.27,1.05,7.58-1.92.27-1.05-7.58ZM55.49,33.25l.85-.41c.2.3.4.65.59,1.03.19.37.33.7.41.99l-.9.47c-.09-.29-.22-.62-.4-1.01-.18-.4-.37-.76-.56-1.07ZM54.44,33.61l.95-.3c.18.42.36.88.52,1.39.16.49.27.92.33,1.28l-1,.34c-.06-.37-.17-.81-.32-1.31-.15-.51-.31-.97-.48-1.39ZM53.3,33.83l.98-.24c.15.48.27,1.02.36,1.6.1.58.17,1.08.21,1.5l-1.03.28c-.03-.43-.09-.94-.19-1.52-.09-.58-.2-1.12-.33-1.62ZM51.96,33.6l1.33.07c.05.53.08,1.05.08,1.57.01.51-.02,1-.09,1.45-.06.44-.19.84-.38,1.2l-1.28-.47c.16-.32.27-.68.33-1.08.06-.41.08-.85.08-1.31,0-.47-.02-.95-.06-1.43ZM50.7,23.48l6.33-.88.27,1.95-4.34.6.97,7.04-1.99.28-1.24-8.99ZM56.55,30.5l1.99-.27s.01.1.04.3c.03.19.04.35.05.47.14,1.34.24,2.44.29,3.31.06.85.08,1.51.05,1.98-.03.47-.09.81-.2,1.01-.12.23-.25.41-.41.52-.15.12-.34.22-.54.28-.17.07-.39.13-.65.18-.26.05-.53.08-.83.11-.05-.29-.15-.61-.29-.96-.14-.34-.3-.62-.48-.84.19,0,.36-.01.51-.02.15-.02.27-.04.37-.05.09-.01.17-.04.23-.08.06-.04.12-.11.18-.2.06-.12.1-.37.1-.74s-.02-.92-.08-1.67c-.06-.75-.16-1.75-.29-3l-.05-.34Z"/>
  <path class="st0" d="M36.03,24.98l2.4.39c-.19,1-.46,2.02-.79,3.06-.33,1.04-.7,2.04-1.13,3.01-.42.95-.87,1.79-1.37,2.52-.1-.19-.24-.44-.45-.74-.2-.3-.41-.61-.62-.91-.22-.31-.41-.56-.58-.74.39-.56.75-1.19,1.08-1.9.33-.72.62-1.48.87-2.28.26-.8.45-1.6.59-2.4ZM35.42,29.99l2-2.65v.02s1.86,13.39,1.86,13.39l-2.32.32-1.53-11.08ZM41.98,24.19l2.39-.33,2.18,15.76-2.39.33-2.18-15.76ZM38.34,27.42l10.84-1.5.32,2.32-10.84,1.5-.32-2.32ZM41.6,35.5l6.3-.87.3,2.17-6.3.87-.3-2.17ZM45.7,27.76c.41.88.9,1.76,1.46,2.65.57.88,1.17,1.7,1.82,2.46.65.74,1.31,1.37,1.98,1.89-.25.25-.53.59-.84,1.01-.31.41-.55.79-.72,1.15-.68-.64-1.35-1.4-2-2.3-.65-.91-1.26-1.88-1.83-2.92-.56-1.06-1.07-2.12-1.52-3.2l1.65-.73ZM41.83,28.09l1.82.23c-.14,1.23-.34,2.45-.61,3.65-.27,1.2-.61,2.34-1.02,3.4-.4,1.06-.88,2-1.45,2.81-.16-.17-.36-.36-.61-.57-.23-.21-.48-.4-.73-.59-.24-.19-.47-.35-.66-.46.56-.68,1.05-1.49,1.48-2.42.44-.93.82-1.92,1.12-2.97.31-1.05.54-2.08.67-3.1Z"/>
  <path class="st0" d="M22.83,26.74l2.49-.34,1.91,13.79c.08.55.06.98-.05,1.28-.11.3-.33.56-.66.78-.34.2-.75.34-1.24.45-.48.11-1.08.22-1.81.32-.09-.27-.25-.58-.46-.93-.21-.34-.41-.62-.6-.84.24-.02.49-.04.75-.07.27-.04.52-.07.74-.1.22-.03.38-.05.47-.07.16-.03.26-.08.31-.15.06-.07.08-.17.06-.32l-1.91-13.79ZM16.82,28.55l14.94-2.07.26,1.9-14.94,2.07-.26-1.9ZM21.4,31.9l.08.57,6.74-.93-.08-.57-6.74.93ZM18.85,30.72l11.59-1.6.49,3.57-11.59,1.6-.49-3.57ZM19.05,34.85l12.26-1.7.95,6.84-2.49.35-.72-5.22-9.77,1.35-.22-1.62ZM17.58,37.16l15.78-2.18.25,1.84-15.78,2.18-.25-1.84ZM19.54,39.28l11.23-1.55.24,1.73-11.23,1.55-.24-1.73Z"/>
  <path class="st0" d="M8.86,29.03l2.53-.35,1.97,14.25-2.53.35-1.97-14.25ZM5.2,34.24l10.78-1.49.33,2.37-10.78,1.49-.33-2.37ZM6.77,42.25l10.02-1.39.33,2.36-10.02,1.39-.33-2.36ZM2.23,34.84l2.06-2.72.04.03,1.82,13.17-2.42.34-1.5-10.81ZM3.23,29.47l2.48.43c-.26,1.04-.58,2.1-.99,3.17-.4,1.06-.86,2.08-1.38,3.06-.51.97-1.05,1.83-1.62,2.57-.11-.19-.27-.43-.48-.72-.2-.3-.42-.61-.66-.9-.22-.3-.42-.54-.6-.72.48-.58.93-1.24,1.34-1.99.42-.74.79-1.53,1.11-2.37.33-.85.59-1.69.78-2.53Z"/>
  <path class="st0" d="M233.7,72.71l-3.72-15.75-1.46-8.34,9.9-1.37.86,8.43.69,16.17-6.26.87ZM238.78,86.32c-1.52.21-2.83-.11-3.94-.95-1.08-.85-1.72-2.01-1.93-3.49-.21-1.48.11-2.76.96-3.84.85-1.08,2.01-1.72,3.49-1.93,1.48-.21,2.78.1,3.88.9,1.11.81,1.76,1.95,1.97,3.43.21,1.48-.11,2.78-.95,3.89-.84,1.11-2,1.77-3.49,1.98Z"/>
  <path class="st0" d="M186.79,52.94c.79,0,1.64-.04,2.56-.1.91-.09,1.79-.2,2.63-.31.54-.07,1.33-.18,2.37-.33,1.04-.18,2.2-.36,3.48-.53,1.31-.22,2.6-.43,3.88-.64,1.31-.22,2.48-.41,3.52-.59,1.07-.22,1.9-.38,2.51-.5,1.2-.27,2.14-.5,2.84-.7.73-.2,1.25-.38,1.57-.53l4.54,4.88c-.58.49-1.18.99-1.8,1.49-.59.46-1.17.97-1.74,1.53-.64.57-1.35,1.25-2.14,2.05-.79.76-1.58,1.58-2.39,2.44-.81.83-1.61,1.65-2.39,2.44-.75.79-1.44,1.5-2.07,2.14.66-.23,1.25-.4,1.78-.5.54-.11,1.1-.2,1.71-.29,2.9-.4,5.59-.19,8.07.63,2.52.82,4.6,2.13,6.26,3.92,1.65,1.76,2.65,3.92,3.01,6.48.36,2.63.04,5.16-.96,7.6-1,2.44-2.79,4.52-5.37,6.25-2.57,1.76-6.04,2.95-10.42,3.55-2.36.33-4.58.27-6.66-.16-2.09-.43-3.81-1.22-5.17-2.37-1.37-1.18-2.18-2.7-2.43-4.55-.21-1.48,0-2.94.63-4.36.66-1.43,1.68-2.65,3.04-3.67s3.01-1.65,4.93-1.92c2.36-.33,4.43-.13,6.21.58,1.78.68,3.21,1.75,4.31,3.21,1.13,1.46,1.83,3.15,2.09,5.07l-7.05,1.85c-.23-1.65-.78-2.91-1.66-3.79-.85-.91-1.86-1.29-3.04-1.12-.84.12-1.47.43-1.88.93-.38.46-.54.95-.47,1.45.11.77.58,1.36,1.43,1.76.85.4,1.91.51,3.19.33,2.83-.39,5.11-1.03,6.84-1.92,1.73-.89,2.93-1.99,3.61-3.28.71-1.33.95-2.81.73-4.43-.2-1.45-.83-2.63-1.88-3.55-1.02-.96-2.33-1.62-3.93-1.98-1.59-.36-3.32-.42-5.17-.16-1.85.26-3.55.77-5.09,1.53-1.51.72-2.91,1.66-4.19,2.79-1.29,1.11-2.5,2.39-3.64,3.85-1.11,1.42-2.17,2.96-3.17,4.61l-6.35-4.99c.72-.75,1.56-1.64,2.51-2.66.96-1.02,1.94-2.09,2.96-3.19,1.01-1.14,1.98-2.21,2.9-3.23.92-1.02,1.71-1.88,2.37-2.59.63-.67,1.33-1.42,2.11-2.25.81-.83,1.62-1.68,2.43-2.55.84-.91,1.63-1.75,2.38-2.54.74-.82,1.38-1.55,1.91-2.17-.51.07-1.11.17-1.81.3-.67.13-1.39.26-2.16.4-.77.11-1.56.23-2.37.38-.77.14-1.5.29-2.2.46-.7.13-1.32.25-1.85.36-.74.14-1.52.31-2.35.53-.83.18-1.54.37-2.14.55l-1.35-7.9Z"/>
  <path class="st0" d="M164.19,54.11c0,.31.03.82.06,1.54.03.68.07,1.36.13,2.04.06.68.09,1.17.1,1.48.06.68.15,1.61.28,2.79.16,1.15.33,2.42.53,3.84.2,1.41.39,2.85.59,4.29.23,1.41.43,2.74.6,3.98.21,1.24.37,2.27.48,3.07l-7.99-1.16c-.1-.74-.23-1.67-.38-2.78-.15-1.11-.32-2.31-.5-3.59s-.37-2.52-.57-3.73c-.17-1.25-.34-2.36-.51-3.33-.17-1.01-.31-1.76-.42-2.26-.27-1.2-.51-2.23-.74-3.09-.23-.9-.4-1.52-.52-1.88l8.84-1.22ZM135.45,64.06c1.58-.22,3.35-.46,5.3-.73,1.95-.3,3.96-.62,6.05-.94,2.08-.32,4.12-.64,6.1-.95,1.98-.31,3.8-.58,5.45-.81,1.68-.27,3.07-.48,4.19-.63,1.15-.16,2.48-.34,3.99-.55,1.54-.25,3.09-.48,4.64-.69,1.58-.22,3.03-.42,4.35-.6,1.35-.19,2.39-.33,3.13-.43l.9,7.24c-1.66.16-3.86.4-6.6.71-2.74.31-5.97.72-9.71,1.24-2.36.33-4.71.69-7.06,1.08-2.35.36-4.67.73-6.95,1.12-2.25.38-4.43.77-6.53,1.16-2.11.36-4.12.72-6.03,1.09l-1.22-7.3ZM165.38,75.32c.42,3.03.43,5.6.04,7.72-.4,2.08-1.22,3.72-2.46,4.92s-2.96,1.95-5.15,2.26c-.91.13-1.91.06-3.01-.2-1.1-.26-2.16-.73-3.18-1.41-1.02-.68-1.9-1.59-2.64-2.72-.74-1.13-1.22-2.51-1.45-4.12-.28-2.05-.04-3.87.74-5.46.77-1.62,1.91-2.92,3.42-3.92,1.54-1.04,3.28-1.69,5.24-1.96,2.36-.33,4.42-.06,6.18.79,1.76.82,3.17,2.07,4.22,3.74,1.09,1.63,1.78,3.55,2.08,5.74.22,1.62.18,3.37-.14,5.27-.32,1.9-1.02,3.81-2.09,5.75-1.04,1.89-2.54,3.7-4.5,5.41-1.96,1.75-4.45,3.28-7.5,4.59l-7.42-5.61c2-.69,3.9-1.47,5.7-2.33,1.8-.9,3.37-1.96,4.71-3.17,1.34-1.22,2.33-2.66,2.96-4.32.66-1.67.83-3.65.52-5.94-.18-1.28-.65-2.21-1.42-2.79-.77-.58-1.64-.8-2.62-.67-.5.07-.99.26-1.47.56-.48.27-.85.68-1.12,1.24-.24.51-.3,1.16-.2,1.93.13.91.57,1.6,1.32,2.08.75.48,1.53.66,2.34.55.67-.09,1.25-.4,1.73-.91.51-.55.75-1.42.72-2.62-.03-1.2-.54-2.79-1.54-4.78l5.98.41Z"/>
  <path class="st0" d="M111.56,94.38l15.97-2.21,1.25,9.01-15.97,2.21-1.25-9.01ZM70.06,64.36l22.92-3.17,1.27,9.14-22.92,3.17-1.27-9.14ZM101.93,55.69l24.27-3.36,7.22,52.15-9.4,1.3-5.97-43.14-5.92.82,6.04,43.65-8.95,1.24-7.29-52.67ZM90.73,61.5l9.08-1.26s.04.26.11.77c.07.52.15,1.12.25,1.8.09.64.14,1.16.15,1.55.8,6.76,1.45,12.53,1.94,17.32.53,4.78.9,8.76,1.12,11.92.21,3.12.27,5.61.18,7.46-.1,1.81-.35,3.13-.76,3.98-.65,1.31-1.37,2.29-2.15,2.92-.74.67-1.65,1.21-2.73,1.62-.95.39-2.11.71-3.48.94-1.37.23-2.81.43-4.31.6-.23-1.37-.73-2.92-1.5-4.65-.72-1.69-1.55-3.15-2.51-4.38,1.17-.08,2.25-.16,3.25-.25.99-.09,1.79-.18,2.39-.26.47-.06.87-.21,1.19-.43.31-.26.59-.65.82-1.16.28-.52.42-1.52.44-3.01.05-1.54-.03-3.71-.25-6.53-.22-2.86-.59-6.48-1.11-10.87-.48-4.4-1.09-9.76-1.83-16.09l-.28-2ZM75.47,53.18l9.21-1.27c.91,6.57,1.68,12.8,2.33,18.71.64,5.86.96,11.37.98,16.53.01,5.16-.46,9.95-1.42,14.37-.96,4.42-2.59,8.47-4.88,12.16-.58-.71-1.32-1.46-2.21-2.25-.9-.8-1.85-1.54-2.87-2.23-.97-.7-1.88-1.23-2.71-1.59,1.62-2.54,2.81-5.27,3.59-8.17.77-2.95,1.23-6.1,1.38-9.44.14-3.39.06-6.99-.25-10.79-.27-3.86-.71-7.95-1.31-12.29-.56-4.34-1.17-8.92-1.83-13.72Z"/>
  <path class="st0" d="M23.38,59.41l10.84,1.06c-1.27,2.49-2.62,4.93-4.04,7.32-1.38,2.38-2.65,4.41-3.81,6.11l-8.01-1.45c.7-1.28,1.36-2.66,1.99-4.15.66-1.54,1.26-3.06,1.79-4.58.53-1.56.94-3,1.24-4.31ZM40.71,63.24l6.9-5.15c1.85,1.06,3.84,2.29,5.96,3.7,2.16,1.36,4.21,2.76,6.16,4.2,1.99,1.39,3.61,2.72,4.88,3.98l-7.46,5.82c-1.13-1.24-2.63-2.59-4.5-4.04-1.83-1.5-3.8-2.99-5.94-4.49-2.09-1.5-4.09-2.85-6-4.03ZM8.53,71.57c2.99-.5,6.33-1.05,10.01-1.65,3.68-.6,7.57-1.22,11.68-1.88,4.1-.7,8.27-1.41,12.5-2.12,4.27-.77,8.48-1.5,12.62-2.21l.74,7.71c-5.37,1.01-10.81,2.02-16.31,3.05-5.46.98-10.69,1.92-15.69,2.83-5,.87-9.48,1.64-13.46,2.32l-2.1-8.04ZM7.96,82.67l59.17-8.19,1.08,7.79-59.17,8.19-1.08-7.79ZM39.24,87.73l7.63,2.49c-1.56,1.35-3.35,2.63-5.38,3.83-2.03,1.16-4.13,2.23-6.31,3.24-2.19.96-4.3,1.8-6.34,2.52-.67-.74-1.55-1.56-2.64-2.46-1.09-.9-2.13-1.65-3.13-2.26,1.85-.56,3.79-1.25,5.82-2.05,2.07-.81,4.03-1.67,5.88-2.58,1.84-.95,3.33-1.86,4.48-2.72ZM45.66,93.79l7.83,2.53c-1.87,1.97-4.11,3.78-6.73,5.46-2.61,1.67-5.42,3.2-8.42,4.58-2.97,1.33-5.97,2.53-9.02,3.61-.65-.92-1.51-1.93-2.59-3.05-1.07-1.12-2.15-2.07-3.21-2.84,2.74-.77,5.52-1.68,8.35-2.73,2.87-1.1,5.5-2.27,7.91-3.52,2.44-1.3,4.4-2.64,5.87-4.03ZM53.91,99.34l8.75,2.53c-2.47,3.32-5.59,6.2-9.37,8.65-3.74,2.4-7.96,4.47-12.66,6.21-4.7,1.79-9.75,3.38-15.15,4.79-.6-1.14-1.38-2.39-2.36-3.74-.97-1.31-1.95-2.42-2.95-3.33,4.85-1.02,9.47-2.23,13.87-3.62,4.39-1.44,8.32-3.1,11.78-4.98,3.46-1.88,6.16-4.04,8.09-6.5ZM26.99,73.67l9.57.91c-1.43,7.02-3.94,13.28-7.51,18.76-3.53,5.48-7.9,10.06-13.12,13.76-.52-.58-1.27-1.27-2.25-2.05-.95-.83-1.93-1.61-2.95-2.35-.98-.78-1.86-1.4-2.62-1.87,5.14-3.03,9.31-6.84,12.52-11.45,3.25-4.65,5.37-9.89,6.36-15.71ZM50.02,78.82c1.53,1.89,3.39,3.66,5.59,5.33,2.2,1.66,4.61,3.12,7.23,4.38,2.66,1.21,5.35,2.15,8.07,2.82-.57.65-1.17,1.47-1.82,2.48-.65.97-1.26,1.97-1.81,3.01-.56,1-1.03,1.89-1.4,2.69-2.98-.99-5.87-2.29-8.68-3.92-2.81-1.67-5.46-3.6-7.95-5.79-2.45-2.2-4.66-4.56-6.62-7.09l7.4-3.91Z"/>
</svg>