<?xml version="1.0" encoding="UTF-8"?>
<svg id="_レイヤー_1" xmlns="http://www.w3.org/2000/svg" version="1.1" viewBox="0 0 276.7 178.39">
  <!-- Generator: Adobe Illustrator 29.5.1, SVG Export Plug-In . SVG Version: 2.1.0 Build 141)  -->
  <defs>
    <style>
      .st0 {
        fill: #fff;
      }
    </style>
  </defs>
  <path class="st0" d="M58.22,21.1c-3.04,2.57-6.2,5.07-9.71,7.65-.8.56-1,.59-1.72.11-1.42-1.02-2.85-2.03-4.27-3.04,9.37-6.09,16.81-12.07,24.1-21.48l.48-.06c1.67.96,3.34,1.92,5.01,2.89.01.16.03.32.04.48-2.57,2.93-5.05,5.5-7.41,7.8v9.24c.07,4.18.13,8.36.2,12.53-2.31.29-4.62.59-6.92.91.07-4.16.13-8.31.2-12.47,0,0,0-4.56,0-4.56Z"/>
  <path class="st0" d="M98.33,17.01c-3.06,2.37-6.23,4.64-9.77,6.98-.8.51-1,.53-1.73-.01-1.43-1.11-2.86-2.22-4.3-3.33,9.43-5.44,16.91-10.91,24.23-19.83.16,0,.32-.02.48-.03,1.68,1.07,3.35,2.15,5.03,3.24.01.16.03.32.04.48-2.58,2.75-5.07,5.16-7.44,7.29v9.24l.2,12.55c-2.32.13-4.64.27-6.96.43.07-4.15.13-8.3.2-12.45v-4.56h.02Z"/>
  <path class="st0" d="M128.44.03c1.89-.02,3.79-.03,5.68-.03.11.09.21.19.32.28-.2,4.96-.4,8.36-.6,12.48-.16,3.48-.4,7.96-.4,11.08,0,2.88,1.37,4.15,3.79,4.14,4.63,0,9.87-3.55,13.29-9.67,1.17,1.57,2.34,3.14,3.5,4.72.36.45.44.77.12,1.28-3.99,6.17-10.31,9.74-16.47,9.75-6.08,0-10.23-2.74-10.23-9.5,0-5.56.28-9.28.4-12.93.12-3.12.32-6.64.32-11.32.09-.1.19-.19.28-.29h0ZM143.42,5.24c.7-.49,1.4-.97,2.09-1.46.13,0,.27-.02.4-.04,1.49,1.26,2.9,2.68,4.11,4.31,0,.13-.03.27-.04.4-.74.51-1.48,1.01-2.22,1.52h-.4c-1.25-1.66-2.38-2.99-3.99-4.37,0-.12.03-.24.04-.36h.01ZM147.21,2.77c.68-.48,1.37-.96,2.05-1.45.13,0,.27-.02.4-.03,1.49,1.27,2.78,2.58,3.99,4.21,0,.13-.03.27-.04.4-.7.49-1.4.98-2.09,1.47h-.4c-1.25-1.67-2.34-2.85-3.95-4.23,0-.12.03-.24.04-.36h0Z"/>
  <path class="st0" d="M182.1,23.6c3.74.28,5.87-.65,5.87-2.7,0-1.2-1.08-2.17-2.45-2.28-1.04-.08-2.53.28-4.7,1.12-1.85.67-2.69,1.09-3.58,1.47,2.37,4.68,3.9,8.02,6.11,13.79-.05.13-.11.26-.16.39-1.43.45-2.87.91-4.3,1.37-.15-.05-.29-.1-.44-.15-1.77-4.96-3.46-9.03-5.75-13.4-1.64.82-3.27,1.66-4.91,2.5-.15-.03-.3-.07-.44-.1-.71-1.27-1.42-2.55-2.13-3.82.03-.12.05-.24.08-.36,1.73-.81,3.46-1.62,5.19-2.42-1.09-1.86-1.89-3.14-3.18-5.04.03-.12.05-.24.08-.36,1.3-.64,2.6-1.28,3.9-1.92.15,0,.29.02.44.02,1.13,1.62,2.13,3.28,3.34,5.36,1.69-.73,2.94-1.21,4.18-1.69-1.21-1.28-2.57-2.33-4.5-3.57,0-.13.03-.26.04-.4.94-.93,1.88-1.86,2.82-2.78.15,0,.29.02.44.03,1.81,1.08,3.7,2.3,5.19,3.65,0,.13.03.27.04.4-.67.66-1.34,1.31-2.01,1.97,2.01-.65,3.14-.81,4.7-.72,4.22.18,7.51,3.53,7.51,7.45,0,3.48-1.73,5.67-5.7,6.57-1.25.3-2.65.34-4.22.22-.68-.05-.88-.19-1.25-.77-.8-1.34-1.61-2.68-2.41-4.01.74.05,1.47.1,2.21.16v.02h0Z"/>
  <path class="st0" d="M217.24,4.66c1.77.98,3.55,1.98,5.32,2.98.04.15.08.3.12.46-2.56,4.31-4.68,7.58-6.8,11.22,1.16-.49,2-.61,3.12-.46,3.92.54,6.04,3.3,6.08,6.55.04,2.49-.04,4.83-.08,5.99-.04,1.15.12,1.94,1.12,2.09,2.48.37,5.31-1.99,8.22-7.75,1.18,1.78,2.37,3.56,3.55,5.35.4.63.44.83.08,1.49-3.31,5.67-7.53,7.9-12.13,7.22-4.55-.68-6.87-3.1-6.87-7.06,0-1.76.2-4.33.2-6.45s-.44-2.66-1.76-2.84c-2-.27-3.56,1.29-4.88,3.48-1.6,2.64-3.16,5.93-4.89,10.04-.13.04-.27.08-.4.11-1.79-.86-3.58-1.72-5.37-2.56-.04-.15-.08-.3-.12-.45,4.93-10.51,9.98-19.94,15.1-29.33.13-.02.27-.04.4-.07h-.01Z"/>
  <path class="st0" d="M21.99,94.4c3.1,7.9,8.41,12.61,16.3,14.61-1.34,1.79-2.68,3.58-4.02,5.38-.16.23-.32.34-.44.36-.16.03-.32-.02-.48-.07-6.41-2.09-11.49-6.74-14.14-13.23-.59,2.48-1.51,4.83-2.74,7.01-2.81,4.95-6.53,8.99-11.39,12.35-.2.13-.39.25-.55.29-.16.04-.28-.02-.43-.1-1.37-1.05-2.74-2.1-4.1-3.15,5.24-3.34,9.28-7.75,11.42-11.42,1.5-2.57,2.81-5.89,3.4-10.53-2.23.48-4.46.96-6.69,1.47-2.19.53-4.37,1.08-6.56,1.64-.09-.07-.18-.14-.28-.21v-4.88c.09-.12.18-.23.28-.35,2.18-.48,4.37-.94,6.56-1.4,2.35-.53,4.69-1.04,7.04-1.54v-9.44c.09-.11.19-.23.28-.34,1.89-.4,3.78-.79,5.67-1.17.09.07.19.15.28.22v9.44c2.84-.57,5.69-1.12,8.54-1.65,2.2-.45,4.4-.89,6.61-1.31.09.08.19.15.28.23v4.88c-.09.11-.19.22-.28.33-2.2.34-4.41.7-6.61,1.07-2.65.49-5.3,1-7.94,1.53v-.02h-.01Z"/>
  <path class="st0" d="M55.78,73.4c.09-.11.19-.21.28-.32,1.79-.25,3.57-.49,5.36-.73.09.08.19.16.28.24v3.96c3.03-.39,6.06-.77,9.09-1.11,1.86-.25,3.71-.5,5.57-.73.11.08.21.16.32.25-.04,1.02-.08,2.03-.12,3.05v1.16c.07,1.83.13,3.67.2,5.5-1.94.2-3.88.41-5.81.64v-5.08c-8.06.92-16.1,2.01-24.12,3.26v5.08c-1.93.3-3.86.61-5.78.93.07-1.72.13-3.43.2-5.15v-1.2c-.04-1.13-.08-2.25-.12-3.38.12-.11.24-.23.36-.34,2.17-.32,4.33-.63,6.5-.92,2.59-.4,5.19-.78,7.79-1.15,0-1.32,0-2.64,0-3.96ZM61.1,94.44c-.24.83-.44,1.66-.68,2.49,2.32-.31,4.64-.6,6.97-.88,1.99-.27,3.98-.52,5.97-.77.09.08.19.17.28.25-.03,1.38-.05,2.75-.08,4.13v3.92c.07,1.9.13,3.8.2,5.7-1.99.22-3.98.45-5.97.69v-1.64c-5.9.71-11.8,1.5-17.68,2.39v1.64c-1.93.29-3.86.59-5.79.9.07-1.88.13-3.75.2-5.63v-4.08c-.04-1.37-.08-2.73-.12-4.1.09-.11.19-.22.28-.32,1.98-.28,3.96-.54,5.95-.8,1.33-.2,2.66-.39,4-.58.2-.83.36-1.65.48-2.47-.44.06-.88.13-1.32.19-1.86.31-3.73.63-5.59.95-.09-.08-.19-.16-.28-.24.04-1.27.08-2.55.12-3.82v-3.32c-.04-1.18-.08-2.36-.12-3.54.09-.11.19-.22.28-.32,1.93-.26,3.86-.5,5.79-.74,3.32-.48,6.64-.93,9.96-1.35,1.85-.27,3.71-.54,5.57-.8.09.08.19.16.28.25-.04,1.19-.08,2.38-.12,3.57v3.32c.04,1.26.08,2.52.12,3.79-.09.1-.19.21-.28.31-1.72.16-3.45.33-5.17.51-1.08.14-2.16.28-3.24.42v-.02h0ZM67.78,103.67v-3.04c-5.9.71-11.8,1.5-17.68,2.39v3.04c5.88-.89,11.78-1.68,17.68-2.39ZM64.22,90.11v-3.04c-3.64.46-7.28.95-10.92,1.48v3.04c3.64-.53,7.28-1.02,10.92-1.48Z"/>
  <path class="st0" d="M89.93,70.84c.09-.11.19-.23.28-.34,1.73-.14,3.46-.27,5.18-.4.11.09.21.17.32.26v7.08c2.2-.16,4.4-.3,6.59-.44v-7.04c.09-.11.19-.22.28-.34,1.76-.11,3.51-.2,5.27-.29.11.09.21.18.32.26v7.08c.66-.03,1.31-.07,1.97-.1,1.77-.12,3.54-.24,5.31-.35.08.06.16.13.24.19v4.76c-.08.07-.16.14-.24.21-1.77.03-3.54.06-5.31.11-.66.03-1.31.06-1.97.1v7.12c1.01-.05,2.01-.1,3.02-.15,2.17-.14,4.35-.27,6.52-.38.08.06.16.13.24.19v4.76c-.08.07-.16.14-.24.21-2.17.04-4.35.08-6.52.14-8.16.37-16.31.92-24.44,1.63-2.09.22-4.18.46-6.26.7-.09-.07-.19-.14-.28-.21v-4.68c.08-.09.16-.18.24-.26,2.1-.17,4.2-.32,6.3-.46,1.06-.09,2.11-.18,3.17-.27v-7.12c-.67.05-1.34.11-2.01.17-1.74.19-3.48.38-5.22.59-.09-.07-.19-.14-.28-.21v-4.68c.08-.09.16-.18.24-.26,1.75-.13,3.51-.24,5.26-.35.67-.06,1.34-.11,2.01-.17v-7.06h.01ZM96.93,97.91c.01.15.03.29.04.44-3.26,3.83-7.11,7.17-10.93,9.47-.28.19-.52.29-.72.3-.2.02-.36-.05-.56-.23-1.28-1.18-2.57-2.35-3.85-3.52,4.33-2.46,8.15-5.62,11.04-9.13.12-.02.24-.05.36-.07,1.54.91,3.08,1.82,4.62,2.74ZM95.72,82.36v7.12c2.2-.16,4.4-.3,6.59-.44v-7.12c-2.2.13-4.4.28-6.59.44ZM113.18,105.99c-.16,0-.32,0-.48-.02-3.62-3.2-7.04-5.67-11.3-7.8.01-.13.03-.27.04-.4,1.22-1.13,2.44-2.25,3.66-3.38.16,0,.32-.02.48-.03,4.3,1.96,7.56,3.9,11.55,6.91-.01.15-.03.29-.04.44-1.3,1.42-2.6,2.84-3.9,4.27h-.01Z"/>
  <path class="st0" d="M140.4,98.94c1.81-6.43,3.1-12.62,4.03-18.41.13-.07.27-.13.4-.2,1.92.5,3.84,1.01,5.76,1.53.07.13.13.27.2.4-1.21,5.69-2.74,11.46-4.63,16.72,1.84.02,3.68.06,5.52.1,2.03,0,4.05.02,6.08.05.09.1.19.19.28.29v4.64c-.09.09-.19.18-.28.27-2.03-.11-4.05-.2-6.08-.29-8.25-.19-16.51-.2-24.77-.04-2.01.08-4.03.17-6.04.27-.09-.1-.19-.21-.28-.31v-4.64c.11-.08.21-.17.32-.25,2-.02,4-.03,6-.03,4.5-.09,8.99-.12,13.49-.11h0ZM135.89,67.91c.09-.11.19-.21.28-.32h5.72l.28.28v6.44c2.35.02,4.7.04,7.05.09,2.03,0,4.05,0,6.08.02.09.1.19.19.28.29v4.64c-.09.09-.19.18-.28.27-2.03-.1-4.05-.19-6.08-.26-6.68-.12-13.37-.13-20.06-.03-2.01.07-4.03.15-6.04.24-.09-.1-.19-.21-.28-.31v-4.64c.11-.08.21-.17.32-.25,2-.01,4-.01,6,0,2.24-.03,4.48-.06,6.73-.07v-6.4h0ZM136.82,96.02c-1.76.58-3.52,1.16-5.28,1.76-.15-.06-.3-.13-.44-.19-.85-5.15-2.17-10.21-3.91-14.74.07-.13.13-.27.2-.4,1.72-.62,3.44-1.23,5.15-1.83.12.05.24.1.36.16,1.81,4.7,3.3,9.82,4.19,14.85-.09.13-.19.27-.28.4h.01Z"/>
  <path class="st0" d="M160.74,102.24c3.02-3.44,4.55-6.85,4.95-12.31-1.09.67-2.25,1.26-3.46,1.77-.2.07-.4.14-.56.14-.24,0-.4-.14-.44-.34-.4-1.66-.81-3.31-1.21-4.96.09-.09.19-.18.28-.27,2.05-.44,3.94-.96,5.51-1.53v-4.08c-1.15.61-2.31,1.23-3.46,1.85-.13-.03-.27-.06-.4-.1-.56-2.54-1.17-4.56-1.97-6.39.07-.12.13-.23.2-.35,1.14-.61,2.28-1.22,3.42-1.82.13.02.27.04.4.06.68,1.27,1.33,2.58,1.81,4.12-.04-2.04-.08-4.08-.12-6.12.09-.09.19-.18.28-.27,2.23.14,4.45.3,6.68.47,2.23.13,4.45.27,6.67.42v-3.44c.09-.09.19-.17.28-.26,1.8.13,3.59.26,5.39.4.09.1.19.2.28.3v3.44c2.12.17,4.23.35,6.35.54,2.22.16,4.44.33,6.66.52.09.1.19.21.28.31v4.48c-.09.08-.19.17-.28.25-2.22-.27-4.44-.52-6.66-.76-6.83-.62-13.66-1.11-20.5-1.49v10.84c0,7-1.37,13.27-5.79,18.3-.16.15-.28.23-.4.22-.08,0-.16-.05-.24-.13-1.31-1.27-2.63-2.54-3.94-3.8h0ZM189.09,101.27c-.15-.03-.29-.05-.44-.08-1.25-1.79-2.41-3.24-3.74-4.55-1.04,1.56-2.33,3.02-3.62,4.01-.2.15-.32.22-.44.21-.16,0-.32-.14-.56-.4-.78-.8-1.55-1.6-2.33-2.4v8.96c-1.84-.12-3.67-.24-5.51-.34.07-3.49.13-6.98.2-10.47v-4.6c0-1.88-.03-3.76-.04-5.64.09-.09.19-.18.28-.26,1.97.16,3.94.32,5.91.49,1.14.08,2.28.16,3.42.24v-2.36c-1.06-.08-2.12-.15-3.18-.23-2.22-.11-4.45-.21-6.68-.3-.09-.1-.19-.2-.28-.3v-4.2c.09-.09.19-.18.28-.26,2.23.17,4.45.35,6.68.54,4.13.28,8.25.61,12.37.98,2.22.16,4.44.33,6.66.52.09.1.19.21.28.31v4.2c-.09.08-.19.17-.28.25-2.22-.26-4.44-.52-6.66-.76-1.27-.11-2.54-.22-3.81-.33v2.36c1.1.09,2.2.19,3.29.28,1.99.14,3.99.29,5.98.44.09.1.19.21.28.31-.04,1.88-.08,3.75-.12,5.63v4.6c.07,2.06.13,4.12.2,6.18,0,3.45-1.16,4.22-7.43,3.66-.72-.06-.88-.28-1.04-.69-.59-1.49-1.18-2.98-1.77-4.47,1.69.18,2.69.27,3.53.26.96,0,1.12-.18,1.12-1.06v-2.88c-.86.71-1.71,1.42-2.57,2.13l.02.02h0ZM177.96,96.18c1.49-1.06,2.45-2.15,3.06-3.43.2-.47.44-1.09.64-1.95-1.23-.09-2.47-.18-3.7-.26v5.64h0ZM191.66,91.62c-1.51-.14-3.03-.27-4.54-.39-.08.47-.2.94-.32,1.41,1.77,1.34,3.41,2.85,4.86,4.5v-5.52Z"/>
  <path class="st0" d="M219.68,77.75c1.24.17,2.48.35,3.72.53v-4.4c.09-.08.19-.16.28-.24,1.68.24,3.36.5,5.03.75.09.11.19.22.28.32v4.4c1.29.2,2.58.4,3.87.61,1.57.21,3.14.43,4.7.66.09.11.19.22.28.33-.04,1.03-.08,2.07-.12,3.1v1.04c.07,1.5.13,3.01.2,4.51-1.38-.24-2.76-.47-4.15-.69v2.44c-.08.05-.16.11-.24.16-1.44-.27-2.87-.54-4.31-.8-1.97-.31-3.94-.6-5.91-.89-1.43-.17-2.85-.33-4.28-.48l-.28-.28v-2.4c-1.31-.18-2.61-.35-3.92-.52.07-1.48.13-2.97.2-4.45v-1c-.03-.58-.05-1.15-.08-1.73-.88,2.96-1.92,5.83-2.84,8.19,2.28,3.85,2.96,6.14,2.96,9.62,0,4.28-2.48,6.27-5.72,5.88-.6-.07-.8-.22-.96-.71-.47-1.56-.93-3.12-1.4-4.68,2.36.28,3.2-.02,3.2-2.14,0-1.44-.44-3.53-2.16-7.06-.32-.6-.48-.98-.48-1.38,0-.24.04-.48.16-.82.76-2.23,1.52-4.82,2.12-7.78-.97-.12-1.95-.23-2.92-.35v16.96c.09,5,.19,9.99.28,14.99-1.91-.22-3.82-.44-5.73-.64.09-4.98.19-9.95.28-14.93v-15.6c-.04-2-.08-4.01-.12-6.01.09-.08.19-.17.28-.25,1.74.23,3.47.46,5.21.7,1.18.14,2.35.28,3.53.42.81.06,1.63.12,2.44.19.75.77,1.49,1.55,2.24,2.33.2.19.28.4.28.64,0,.2-.04.39-.12.66,0,.04-.03.08-.04.11,1.41.23,2.83.46,4.24.69h0ZM215.72,95.41c-.09-.09-.19-.18-.28-.28v-4.16l.24-.21c1.69.26,3.39.53,5.08.81,4.04.57,8.07,1.18,12.1,1.83,1.69.23,3.38.47,5.06.72l.24.24v4.24c-.08.05-.16.11-.24.16-1.69-.33-3.37-.65-5.06-.96-.29-.05-.58-.09-.88-.14v8.64c0,.84.12.94.96,1.07,1,.16,1.24.08,1.48-3.6,1.4.8,2.79,1.61,4.18,2.42.4.23.44.36.4.75-.16,2.85-.6,4.18-1.63,4.84-1.24.83-2.47.98-5.42.51-4.31-.68-5.47-1.32-5.43-4.8.03-1.77.05-3.54.08-5.31v-5.36c-.63-.09-1.25-.19-1.88-.28-.08,3.63-.52,6.4-1.64,8.52-1.56,2.94-4.08,4.57-7.96,5.38-.16.02-.28.04-.44.02-.2-.03-.4-.13-.6-.36-1.16-1.34-2.32-2.67-3.48-4,3.96-.79,6.12-2.09,7.44-4.16.96-1.51,1.24-3.51,1.28-6.14-1.2-.14-2.4-.27-3.6-.41v.02h0ZM223.32,85.18c1.97.29,3.94.58,5.91.89,1.13.15,2.26.3,3.39.46v-2.6c-4.2-.68-8.41-1.31-12.62-1.89v2.6c1.11.18,2.21.36,3.32.55h0Z"/>
  <path class="st0" d="M258.16,111.13c8.52.33,12.35-2.86,12.35-7.67,0-6.08-3.32-10.68-7.36-12.39-.79,7.39-3.37,13.88-6.1,17.36-2.14,2.72-4.36,3.44-7.46,2.84-2.38-.45-4.09-1.93-5.61-4.6-1.15-2.01-1.95-4.35-1.95-7.59,0-9.67,7.21-16.29,18.11-14.01,10.82,2.29,16.56,11.06,16.56,19.92,0,7.29-5.04,11.55-13.43,11.74-.55-.08-.83-.14-1.27-.67-1.28-1.65-2.56-3.29-3.84-4.93h0ZM247.52,100.08c0,1.32.24,2.32.68,3.17.44.88.99,1.51,1.63,1.63.91.17,2.07-.52,3.14-2.47,2.22-4.04,3.33-8.05,3.93-12.81-5.79-.18-9.37,4.33-9.37,10.48h0Z"/>
  <path class="st0" d="M108.03,164.87c.07,3.86.13,7.72.2,11.59-2.09.11-4.18.22-6.28.35.07-3.9.13-7.79.2-11.69v-10.2c.09-.11.19-.22.28-.34,1.62-.1,3.24-.19,4.87-.28-3.22-2.43-6.19-5.17-8.57-8.37-2.41,3.44-5.15,6.68-8.24,9.53,1.47-.12,2.95-.23,4.42-.34.11.09.21.17.32.26v5.12c0,4.24-.48,7.71-1.89,10.58-1.41,2.83-4.14,5.4-8.11,7.19-.16.09-.28.11-.4.12-.28.03-.44-.08-.72-.37-1.14-1.22-2.27-2.43-3.41-3.64,3.81-1.65,6.3-3.38,7.47-5.56.96-1.8,1.29-4.11,1.29-7.39v-5.04c-1.45,1.28-2.93,2.49-4.58,3.68-.4.28-.68.46-.96.49-.24.02-.44-.08-.64-.26-1.31-1.08-2.62-2.15-3.93-3.22,6.38-4.04,12.41-9.93,16.63-18.31.15-.05.29-.1.44-.15,1.93.37,3.86.75,5.79,1.14.04.13.08.26.12.39-.2.37-.44.75-.64,1.12,4.1,4.71,9.17,8.42,16.94,11.91-1.31,1.42-2.63,2.84-3.94,4.26-.48.5-.81.75-1.17.77-.2,0-.44-.06-.68-.21-1.69-1.01-3.26-2.05-4.79-3.13v10h-.02Z"/>
  <path class="st0" d="M120.31,149.38c-.09-.08-.19-.15-.28-.23v-4.2c.08-.08.16-.16.24-.25h4.67c1.37-.03,2.74-.06,4.11-.08,1.6-.07,3.19-.12,4.79-.18.08.07.16.13.24.2v4.28c-.08.07-.16.13-.24.2-1.6-.03-3.19-.05-4.79-.06-1.37.02-2.74.05-4.11.08-1.54.07-3.09.16-4.63.24h0ZM126.23,173.22v2.2c-1.64.03-3.27.07-4.91.12.07-2.4.13-4.8.2-7.2v-2c-.04-1.33-.08-2.66-.12-4,.08-.1.16-.19.24-.29h4.63c.58,0,1.15-.02,1.73-.03,1.66-.07,3.33-.13,4.99-.19.09.09.19.18.28.28-.04,1.33-.08,2.67-.12,4v2.12c.04,1.25.08,2.51.12,3.76,2.34-.3,4.63-.67,6.93-1.22-.85-.56-1.61-1.16-2.34-1.84v-.36c.82-.47,1.64-.93,2.46-1.4h-1.05c-1.5.08-3.01.16-4.51.25l-.24-.24v-3.36c.08-.07.16-.13.24-.2,1.57.03,3.14.07,4.71.11,3.81,0,7.63.05,11.44.13.99-.03,1.99-.06,2.98-.09.66.59,1.32,1.18,1.97,1.77.2.17.36.37.36.57,0,.16-.12.36-.36.59-1.65,1.59-3.42,2.91-5.32,4.07,2.42.45,5.11.72,8.41.99-.79,1.27-1.58,2.53-2.37,3.8-.24.39-.48.42-1.01.37-3.9-.43-7.45-1.26-10.47-2.41-2.7,1.05-5.6,1.71-8.5,2.12-.64.08-.89-.04-1.13-.4-.74-1.08-1.48-2.15-2.22-3.22.03.93.05,1.87.08,2.8-1.69,0-3.38.04-5.07.06v-1.72c-.68,0-1.37.02-2.05.04l.02.02h0ZM136.54,154.98c-.24.2-.44.4-.68.6-.24.24-.4.32-.56.32s-.28-.12-.44-.32c-.71-.88-1.42-1.75-2.13-2.62v1.64c-.08.07-.16.13-.24.2-1.4-.03-2.79-.05-4.19-.06-.63,0-1.26.02-1.89.04-1.38.07-2.76.14-4.15.22-.09-.08-.19-.16-.28-.23v-3.92c.08-.08.16-.16.24-.25,1.4,0,2.79,0,4.19.02.63,0,1.26-.02,1.89-.04,1.4-.06,2.79-.12,4.19-.18.08.07.16.13.24.2v1.76c2.34-1.9,4.59-4.63,6.04-7.39.13-.04.27-.08.4-.12.04,0,.08.03.12.04,0-.4.03-.8.04-1.2-1.72.04-3.44.08-5.15.13l-.28-.28v-3.48l.28-.28c1.75.03,3.49.06,5.24.11v-2.24l.28-.28c1.32,0,2.63,0,3.95.02l.28.28v2.24c1.26,0,2.52.03,3.78.05v-2.24c.09-.09.19-.18.28-.28,1.36.02,2.71.05,4.07.08.09.1.19.19.28.29v2.24c.21,0,.43,0,.64.02,1.76,0,3.52,0,5.27.03.09.1.19.19.28.29v3.4c-.09.09-.19.18-.28.27-1.76-.07-3.52-.14-5.27-.19h-.56c.03.64.05,1.28.08,1.92-1.21-.03-2.42-.05-3.62-.08.86.26,1.72.51,2.58.77.07.12.13.24.2.36-.16.28-.32.59-.52.87.63,0,1.26.03,1.89.04h4.23c.09.08.19.17.28.25v2.8c-.09.09-.19.18-.28.27-1.41-.08-2.82-.16-4.23-.24-1.06-.03-2.12-.05-3.18-.07v1.12c.55,0,1.1.02,1.65.03h4.23c.09.1.19.19.28.29v2.32c-.09.08-.19.15-.28.23-1.41-.07-2.82-.13-4.23-.19-.55,0-1.1-.02-1.65-.03v1.16c.56,0,1.13.02,1.69.04h4.23c.09.1.19.19.28.29v2.32c-.09.09-.19.18-.28.27-1.41-.08-2.82-.16-4.23-.23-.56,0-1.13-.02-1.69-.04v1.24c.83.02,1.66.03,2.5.05,1.91,0,3.81.02,5.72.04.08.06.16.11.24.17v3c-.08.06-.16.13-.24.19-1.91-.1-3.81-.2-5.72-.28-3.33-.08-6.66-.13-9.99-.15-1.88.03-3.76.06-5.64.11-.09-.08-.19-.16-.28-.24.04-1.49.08-2.99.12-4.48v-3l-.02.02v-.03h0ZM122.24,143.36c-.09-.08-.19-.15-.28-.23v-3.92c.08-.08.16-.16.24-.25,1.4,0,2.79,0,4.19.02.63,0,1.26-.02,1.89-.04,1.4-.06,2.79-.12,4.19-.18.08.07.16.13.24.2v4c-.08.07-.16.14-.24.2-1.4-.03-2.79-.05-4.19-.06-.63,0-1.26.02-1.89.04-1.38.07-2.76.14-4.15.22h0ZM122.24,160.68c-.09-.08-.19-.16-.28-.23v-3.92c.08-.08.16-.16.24-.25,1.4,0,2.79,0,4.19.02.63,0,1.26-.02,1.89-.04,1.4-.06,2.79-.12,4.19-.18.08.07.16.13.24.2v4c-.08.07-.16.13-.24.2-1.4-.03-2.79-.05-4.19-.06-.63,0-1.26.02-1.89.04-1.38.07-2.76.14-4.15.22h0ZM128.28,166.1c-.68,0-1.37.02-2.05.04v3c.68,0,1.37-.03,2.05-.04v-3ZM145.11,151.82v-1.12c-1.29,0-2.58-.03-3.87-.03v1.12c1.29,0,2.58.02,3.87.03ZM141.25,155.59c1.29,0,2.58.02,3.87.03v-1.16c-1.29,0-2.58-.03-3.87-.03v1.16ZM141.25,159.47c1.29,0,2.58.02,3.87.03v-1.24c-1.29,0-2.58-.03-3.87-.03v1.24ZM145.92,147.63c.4-.87.72-1.63.88-2.19.11-.08.22-.16.32-.24.13.04.27.08.4.13.03-.52.05-1.04.08-1.56-1.21-.02-2.42-.03-3.62-.05.03.64.05,1.28.08,1.92-.9,0-1.8-.02-2.7-.02.54.19,1.07.38,1.61.57.03.13.05.27.08.4-.2.36-.4.68-.56,1,1.14,0,2.28.02,3.42.03h0ZM142.5,167.19c.93.61,1.89,1.22,2.9,1.75,1.13-.47,2.13-1.05,3.02-1.68-1.97-.03-3.95-.06-5.92-.07Z"/>
  <path class="st0" d="M192.87,158.45c.08,1.69.12,3.33.28,5.03.6-1.34,1.04-2.74,1.41-4.07.11-.04.21-.09.32-.13,1.08.84,2.17,1.68,3.25,2.52.05.14.11.28.16.42-1.04,2.89-2.45,5.55-4.13,7.95.28,1.03.48,1.29.68,1.3.36.03.68-.29,1.08-3.57.88.78,1.77,1.56,2.65,2.34.44.41.6.62.52,1.09-.64,5.01-2.01,6.83-4.29,6.61-1.44-.14-2.97-1-4.17-3.66-1.12,1.06-2.37,1.99-3.65,2.85-.24.18-.48.24-.68.22s-.4-.11-.64-.33c-1-.89-2.01-1.78-3.01-2.67.72-.43,1.45-.89,2.13-1.4-.76-.09-1.53-.17-2.29-.26-1.06-.08-2.12-.16-3.18-.23v2.44c-1.5-.1-3-.2-4.5-.29.07-2.6.13-5.19.2-7.79v-4c-.04-1.38-.08-2.75-.12-4.13.09-.09.19-.18.28-.26,1.27.12,2.55.24,3.82.37,1.26.09,2.52.18,3.78.27,1.27.06,2.54.12,3.82.18.08.1.16.2.24.3-.04,1.3-.08,2.61-.12,3.91v5.08c.03.92.05,1.84.08,2.77.8-.73,1.61-1.51,2.29-2.33-.68-3.66-.88-7.31-1.04-10.97-2.81-.24-5.62-.45-8.44-.65-1.84-.09-3.67-.17-5.51-.24-.09-.09-.19-.17-.28-.26v-3.84c.08-.09.16-.18.24-.27.84.06,1.69.13,2.53.2-.36-1.34-.76-2.77-1.33-4.16.04-.1.08-.21.12-.31,1.09-.33,2.17-.66,3.26-.99.11.09.21.17.32.26.6,1.28,1.09,2.52,1.61,4.27-.05.12-.11.23-.16.35-.83.23-1.66.47-2.49.71.56.05,1.13.1,1.69.16.5.03.99.07,1.49.11.52-1.84.92-3.69,1.21-5.59.03-.02.05-.05.08-.07-1.23-.09-2.47-.18-3.7-.26-1.33-.05-2.65-.1-3.98-.14-.09-.09-.19-.17-.28-.26v-2.84c-.42-.04-.83-.08-1.25-.11v18.6c.07,4.7.13,9.39.2,14.09-1.68-.1-3.35-.19-5.03-.28.04-2.73.08-5.46.12-8.19-1.89.58-4.18,1.12-6.76,1.73-.12-.07-.24-.14-.36-.21-.46-1.52-.91-3.05-1.37-4.57.07-.12.13-.24.2-.35.68-.09,1.29-.15,1.89-.25v-21.12c-.48,0-.97,0-1.45-.02-.09-.1-.19-.19-.28-.29v-4.2c.12-.06.24-.12.36-.19,1.53.1,3.06.2,4.59.31,1.45.07,2.9.14,4.35.21,1.62.05,3.24.1,4.87.16.09.1.19.2.28.3v3.12c1.23.12,2.47.24,3.7.36v-3.16c.08-.09.16-.18.24-.26,1.47.1,2.95.21,4.42.32.09.1.19.2.28.3v3.16c1.15.05,2.3.1,3.46.15.08.07.16.15.24.22v3.96l-.24.18c-1.3-.15-2.6-.29-3.9-.43,1.1.5,2.2,1,3.29,1.5.05.12.11.25.16.37-.48,1.52-.88,2.85-1.33,4.05.94.07,1.88.15,2.81.23-.08-3.57-.12-7.97-.12-13.57.08-.1.16-.2.24-.3,1.47.12,2.95.25,4.42.39.09.1.19.2.28.31v5.12c1.02-.51,2.03-1.01,3.05-1.51.09.05.19.1.28.15,1.32,2.33,1.85,3.62,2.45,5.68-.04.12-.08.23-.12.35-1.22.61-2.43,1.22-3.65,1.84-.09-.06-.19-.12-.28-.19-.48-1.85-.96-3.49-1.73-5.24.04,2.48.04,4.92.08,7.41,1.91.14,3.83.28,5.74.44.09.09.19.18.28.27v3.88c-.09.07-.19.14-.28.21-1.89-.23-3.77-.46-5.66-.67h-.02ZM168.51,147.43v-3.68c-.67-.03-1.34-.07-2.01-.1v3.68c.67.03,1.34.06,2.01.1ZM166.5,151.61v3.84c.67.03,1.34.06,2.01.1v-3.84c-.67-.03-1.34-.07-2.01-.1ZM166.5,159.73v4.24c.68-.13,1.33-.26,2.01-.38v-3.76c-.67-.03-1.34-.07-2.01-.1ZM182.42,162.58c-1.04-.08-2.09-.15-3.13-.23v1.6c1.05.07,2.09.15,3.13.23v-1.6ZM179.29,167.31v1.64c1.05.07,2.09.15,3.13.23v-1.64c-1.04-.08-2.09-.15-3.13-.23Z"/>
</svg>