<?xml version="1.0" encoding="UTF-8"?>
<svg id="_レイヤー_1" data-name="レイヤー_1" xmlns="http://www.w3.org/2000/svg" version="1.1" viewBox="0 0 303.2 75.07">
  <!-- Generator: Adobe Illustrator 29.5.1, SVG Export Plug-In . SVG Version: 2.1.0 Build 141)  -->
  <path d="M237.41,56.53c-.02-.11-.06-.17-.09-.21l-.04-.03c-.06-.04-.12-.07-.25-.06-.14,0-.18.05-.22.1-.03.04-.06.1-.03.25l.02.09c.03.07.06.11.1.14.06.04.12.07.25.06l.19.98c-.38.03-.72-.07-1.01-.3-.26-.2-.43-.45-.52-.77l-.03-.14c-.07-.33-.02-.62.12-.87l.07-.1c.2-.26.49-.41.87-.43h.14c.32,0,.61.1.87.3.3.23.48.53.56.92l.02.14c.03.31-.04.59-.21.82l-.08.09c-.2.2-.46.32-.79.34l-.19-.98c.14,0,.18-.05.22-.1.04-.05.06-.1.04-.24ZM236.77,48.82l.57,5.06-1.52.11-1.38-5.01-.5-2.19,2.48-.17.35,2.2ZM235.42,48.84l.59,2.13-.24-2.15-.18-1.15-.42.03.26,1.14Z"/>
  <path d="M224.19,53.76c-.05-.28-.17-.54-.35-.77l-.08-.1c-.21-.25-.5-.45-.85-.58-.35-.14-.77-.2-1.25-.17-.54.04-1.05.12-1.55.24-.48.12-.91.26-1.29.4l-.92.35-.33.13c-.11.05-.23.11-.36.17-.24.12-.46.22-.67.31l-.98-2.07c.26-.04.53-.09.82-.16.29-.07.55-.14.78-.2.18-.06.37-.12.57-.18l.64-.19c.46-.14.96-.27,1.5-.39s1.1-.2,1.68-.24c.8-.06,1.53.04,2.18.3l.24.1c.56.24,1.03.59,1.42,1.04.44.52.74,1.16.89,1.92.15.79.12,1.51-.11,2.17-.23.66-.61,1.26-1.15,1.78l-.21.19c-.51.44-1.11.82-1.82,1.15-.81.37-1.72.67-2.73.88l-1.43-1.75c.91-.17,1.71-.39,2.42-.65.63-.23,1.16-.49,1.6-.79l.18-.13c.48-.36.81-.77,1.01-1.22.18-.4.24-.85.17-1.35l-.04-.21ZM216.93,47.1c.45.06.98.11,1.59.14l.95.05c.32.01.64.02.96.03.66.01,1.28.02,1.87.02.59-.01,1.09-.03,1.48-.04l.05,1.83h-1.56s-1.86-.04-1.86-.04l-1.87-.08c-.59-.04-1.12-.08-1.57-.11l-.04-1.79ZM225.23,53.97c.08.65.01,1.26-.24,1.82-.26.61-.7,1.12-1.27,1.55h0c-.55.42-1.23.76-2.01,1.04-.36.13-.73.25-1.13.36h0c.69-.18,1.33-.4,1.89-.66.74-.34,1.33-.74,1.8-1.18.45-.44.76-.92.94-1.44.17-.5.2-1.06.08-1.7-.11-.54-.29-.96-.53-1.28l-.11-.13c-.29-.34-.65-.59-1.1-.77.35.18.67.43.94.74h0c.36.41.58.88.68,1.38l.04.28Z"/>
  <path d="M202.57,53.28l.92,4.73.15.17c.36.38.79.66,1.29.83.57.19,1.24.27,2.01.25.45-.01.99-.03,1.62-.07.64-.04,1.3-.1,1.99-.15.35-.03.69-.06,1.03-.09l1-.1c.66-.08,1.26-.16,1.77-.24-.04.13-.09.31-.12.53-.03.21-.06.43-.09.65-.02.22-.03.41-.02.58-.45.06-.98.12-1.58.17l-.91.08c-.31.02-.62.05-.94.07-.64.05-1.25.1-1.85.13-.3.02-.58.04-.85.05l-.74.03c-.91.02-1.7-.07-2.37-.27-.68-.2-1.29-.57-1.85-1.11-.23.31-.49.63-.76.93-.26.32-.55.65-.87.99l-1.19-1.69c.28-.23.57-.48.87-.76.26-.23.5-.48.74-.72l-.63-3.22-1.69.12-.32-1.63,3.41-.24ZM211.89,54.08l-1.96.14.1.52,2.71-.19.23,1.18-2.71.19.13.68,3.11-.22.23,1.19-3.11.22.18.9-1.68.12-.17-.9-4.91.34-.23-1.19,1.57-.11-.13-.68-1.15.08-.23-1.18,4.49-.31-.1-.52-3.85.27-.53-2.74,7.48-.52.53,2.74ZM206.99,56.83l1.72-.12-.13-.68-1.72.12.13.68ZM205.84,53.49l4.11-.29-.14-.74-4.12.29.14.74ZM207.12,47.34c-.02.26-.05.53-.08.81l3.24-.23.35,1.78,1.66-.12.23,1.19-9.89.69-.23-1.19,2.68-.19c.02-.14.04-.28.06-.42,0-.07.02-.15.03-.23l-1.9.13-.22-1.15,2.25-.16c.03-.36.06-.69.07-1.02l1.76.09ZM199.56,48.11c.31.2.63.42.97.68.33.25.64.5.94.76.3.26.55.5.73.73l-1.31,1.15c-.18-.23-.4-.47-.69-.73-.21-.2-.43-.4-.67-.6l-.25-.2c-.33-.28-.64-.52-.95-.72l1.22-1.06ZM206.87,49.64c-.02.11-.03.23-.05.33l2.13-.15-.12-.63-1.92.13c-.01.11-.03.21-.04.32ZM197.37,49.44c-.01.06-.02.11-.03.17l-.62-.43.04-.04.61.3Z"/>
  <path d="M192.78,62.13l-1.75.12-.13-.68-2.8.2.14.74-1.66.12-1.12-5.74,6.21-.43,1.1,5.68ZM197.37,49.44c-.13.74-.28,1.51-.44,2.33-.16.81-.32,1.53-.49,2.18.5.41.9.82,1.19,1.21.3.39.52.76.66,1.12.15.36.26.7.32,1.02l.07.4c.05.38.05.71,0,.99-.06.37-.21.67-.46.88-.24.22-.56.36-.96.44l-.26.04-.3.04-.61.04c-.06-.24-.16-.53-.3-.86-.13-.33-.3-.61-.48-.85.17,0,.33.01.47.01.14,0,.27-.02.39-.04.1-.02.19-.04.28-.06.1-.03.17-.07.23-.12.11-.09.18-.21.2-.37.03-.17.02-.38-.03-.64-.08-.41-.27-.87-.58-1.36-.3-.51-.81-1.02-1.53-1.55.08-.36.15-.77.22-1.21.07-.45.14-.91.19-1.36.06-.43.11-.84.15-1.22l-1.82.13,2.2,11.34-1.75.12-2.52-12.99,4.25-.3.25-.09,1.48.72ZM187.43,58.3l.38,1.94,2.8-.2-.38-1.94-2.8.2ZM190.56,51.71c-.08.41-.16.83-.24,1.24-.07.38-.14.72-.21,1l1.75-.12.31,1.61-7.75.54-.31-1.61,1.7-.12c-.07-.29-.19-.63-.36-1.02-.18-.42-.38-.79-.58-1.12l1.42-.4c.21.31.41.67.6,1.06.19.39.33.74.43,1.04l-1.38.42,3.97-.28-1.29-.22c.04-.21.07-.45.1-.71.03-.27.05-.54.06-.81.02-.28.03-.53.04-.75l1.74.24ZM183.26,54.04c-.06.08-.13.17-.19.26l-.07-.35c.09.03.17.06.25.09ZM187.86,48.61l.25,1.31,2.74-.19.3,1.53-7.23.51-.3-1.53,2.74-.19-.26-1.31,1.75-.12ZM198.45,49.24s-.07-.05-.11-.08l.14-.12-.04.2Z"/>
  <path d="M175.82,49.29c.51.53,1.06,1.04,1.66,1.53.6.49,1.22.93,1.85,1.35.64.4,1.3.77,1.96,1.09.67.31,1.33.57,1.97.79-.19.24-.35.51-.5.8-.15.29-.28.58-.39.86l-.48-.21c-.44-.2-.88-.42-1.33-.66l.22,1.14-3.52.25.33,1.71,4.21-.29.3,1.53-4.2.29.35,1.78,5.55-.39.31,1.58-12.79.89-.31-1.58,5.36-.37-.35-1.78-4.14.29-.3-1.53,4.14-.29-.33-1.71-3.38.24-.23-1.17c-.47.41-.96.79-1.48,1.14-.15-.2-.37-.43-.65-.69-.27-.27-.53-.49-.76-.65.78-.5,1.51-1.08,2.18-1.73.67-.66,1.25-1.35,1.75-2.06.5-.71.88-1.38,1.13-2l1.87-.13ZM184.15,54.62l-.05-.25.26-.02-.21.27ZM175.3,51.07c-.23.45-.51.93-.85,1.42l-.26.36c-.27.36-.57.73-.89,1.09-.32.36-.67.7-1.04,1.04l7.62-.53c-.47-.27-.94-.55-1.39-.84-.47-.31-.92-.63-1.34-.94l-.42-.32c-.55-.43-1.03-.85-1.43-1.27Z"/>
  <path d="M157.04,51.81c-.01.1-.03.24-.05.42-.02.18-.03.36-.04.53,0,.17,0,.3,0,.39,0,.21,0,.49,0,.85l.03,1.19c.02.44.05.89.08,1.35l.05.67c.02.22.04.43.07.64.05.4.1.75.16,1.05l.09.49c.04.17.09.32.15.47.04-.18.07-.36.11-.53.05-.17.1-.34.14-.52.05-.17.09-.34.13-.52l1.06.67c-.06.41-.12.84-.19,1.3-.05.45-.1.88-.15,1.28-.03.4-.05.74-.06,1,0,.1,0,.22,0,.36.02.14.03.25.05.34l.05.28c.03.12.06.22.09.32l-1.67.25c-.2-.38-.4-.84-.6-1.39l-.21-.57c-.21-.6-.39-1.26-.56-1.98l-.15-.73c-.11-.55-.19-1.13-.26-1.73-.07-.61-.13-1.2-.18-1.76-.02-.28-.04-.55-.05-.81l-.04-.74c-.02-.48-.04-.86-.06-1.15-.01-.21-.03-.44-.04-.7-.02-.27-.05-.52-.09-.75l2.1.03ZM164.34,51.6c.02.17.04.34.07.5.02.16.05.37.09.63.04.26.09.56.16.89.82-.14,1.57-.31,2.25-.51l.36,1.84c-.7.15-1.45.29-2.27.41.08.41.17.8.25,1.18.13.58.26,1.12.39,1.61.07.28.14.54.2.79.23.07.46.15.68.24.53.21,1,.45,1.43.72l.62.38c.2.13.38.25.56.37l-.73,1.62c-.67-.49-1.31-.91-1.93-1.25-.06-.03-.12-.06-.18-.1.03.28.03.55,0,.8-.04.33-.15.63-.33.89l-.07.1c-.18.22-.42.39-.73.53-.34.16-.78.26-1.32.3l-.38.02c-.87.01-1.6-.14-2.19-.46-.59-.32-.99-.8-1.18-1.44l-.07-.28c-.09-.44-.06-.83.08-1.19l.07-.15c.17-.35.44-.64.82-.87l.17-.09c.46-.25,1.02-.4,1.7-.45.34-.02.67-.03.99-.02-.05-.19-.1-.39-.15-.59-.12-.51-.24-1.04-.37-1.59-.07-.28-.13-.56-.19-.84-.35.03-.7.06-1.05.09l-1.32.08c-.43.01-.87.02-1.32.02l-.34-1.75c.44,0,.87.01,1.31.01l.67-.02.67-.04c.35-.02.69-.06,1.04-.09-.04-.21-.08-.41-.13-.6l-.2-1.03c-.02-.11-.06-.26-.12-.45-.06-.19-.12-.37-.18-.51l2.14-.15c0,.14.02.29.03.46ZM162.99,60.07c-.42.03-.75.13-.99.31-.23.18-.32.4-.26.69.06.29.23.5.53.62.3.12.64.16,1.03.14.31-.02.54-.09.71-.2.16-.12.25-.28.29-.48.04-.21.03-.46-.02-.74-.02-.08-.03-.16-.05-.25-.34-.07-.67-.09-1.01-.09h-.21ZM157.12,61.28c.07.22.13.43.2.64h0c.1.29.2.55.3.8,0-.07,0-.14,0-.21l-.49-1.23ZM165.27,61.48c-.05.26-.17.5-.33.69.07-.06.12-.11.16-.17.1-.14.16-.3.18-.49h0v-.03s-.01,0-.02,0Z"/>
  <path d="M150.01,52.28l.86-.56c.38.33.74.71,1.1,1.13l.25.3c.24.29.43.57.59.82l-1.12.77c-.18-.33-.44-.71-.8-1.15-.27-.33-.54-.64-.8-.92.14.72.28,1.42.43,2.11.07.34.15.67.23,1l2.32-.16.27,1.37-2.26.16c.07.29.14.57.21.85.12.45.23.88.34,1.28.11-.52.19-1.07.23-1.63l1.5.21c-.13,1.45-.44,2.75-.93,3.91.07.19.15.36.22.51.17.35.31.55.43.59h.05c.1,0,.14-.17.13-.5,0-.33-.05-.79-.13-1.38.11.1.25.22.43.34.18.13.35.24.52.34.17.1.31.17.41.23.02.8-.02,1.42-.12,1.86-.1.43-.23.73-.4.89-.17.17-.34.26-.51.27-.37.02-.72-.13-1.05-.44l-.14-.14c-.23-.25-.46-.58-.68-.98-.46.7-1,1.31-1.63,1.84-.08-.08-.2-.2-.35-.33-.15-.14-.31-.28-.47-.41-.16-.14-.3-.25-.41-.33.33-.24.62-.51.9-.79l-2.24.16.17.85-1.36.1-1.21-6.2,4.15-.29.94,4.86c.29-.37.54-.76.76-1.19-.21-.58-.43-1.23-.64-1.95-.21-.74-.42-1.54-.63-2.4l-5.27.37-.27-1.37.95-.07c-.06-.22-.15-.47-.26-.76-.13-.36-.27-.68-.42-.97l.87-.28-1.22.09-.1-.53-.57.04,2.28,11.72-1.51.11-.49-2.53c-.35.1-.71.21-1.06.32-.66.19-1.28.36-1.84.52l-.61-1.58c.27-.06.56-.13.87-.2l-1.57-8.06-.6.04-.3-1.56,5.16-.36.16.81,1.48-.1-.26-1.32,1.52-.11.26,1.32,1.53-.11.25,1.28-1.29.09,1.07.12c-.05.35-.1.7-.15,1.04-.04.29-.08.55-.12.78l1.18-.08s0-.03-.01-.04c-.31-1.41-.64-2.93-.98-4.56l1.59-.11c.07.38.14.75.21,1.12ZM153.07,63.84s.07.05.1.07h0s.01-.02.03-.06c-.04,0-.09,0-.13,0ZM147.11,62.27l1.39-.1-.17-.9-1.39.1.17.9ZM142.26,61.75c.31-.08.62-.16.94-.24l-.31-1.6-.97.07.34,1.78ZM146.71,60.22l1.39-.1-.17-.87-1.39.1.17.87ZM141.64,58.53l.97-.07-.31-1.58-.97.07.31,1.58ZM145.39,54.15c.15.27.3.57.43.9.15.34.25.64.31.9l-.58.19,2.04-.14-.76-.11c.03-.27.04-.59.04-.94,0-.33,0-.63,0-.89l-1.48.1ZM141.05,55.53l.97-.07-.31-1.59-.97.07.31,1.59Z"/>
  <path d="M138.46,61.69c-.22.67-.57,1.27-1.05,1.79-.22.25-.47.48-.73.7.11.02.22.04.33.06.85.13,1.74.21,2.65.23-.15.17-.3.4-.44.69-.13.3-.24.55-.3.77l-.72-.06c-.72-.07-1.41-.19-2.09-.34-.37-.09-.74-.19-1.09-.3-.44.22-.91.42-1.4.59l-.59.2c-.6.19-1.22.35-1.87.5-.11-.19-.26-.41-.45-.67-.18-.26-.36-.46-.53-.6.78-.13,1.53-.31,2.25-.52.26-.08.51-.17.76-.26-.59-.32-1.12-.68-1.6-1.08l.94-.45-2.05.14-.24-1.25,6.82-.48.27-.09,1.12.44ZM130.22,65.73l-2.6.18.12.6-1.41.1-.98-5.06,4.01-.28.87,4.46ZM141.79,63.55c-.42.12-.81.23-1.19.33l-.15-.37,1.33.04ZM127.02,62.84l.33,1.69,1.17-.08-.33-1.69-1.17.08ZM133.15,62.88c.43.29.94.55,1.54.77.05.02.1.03.14.05.41-.24.77-.51,1.07-.81.08-.07.15-.15.22-.22l-2.97.21ZM131.89,53.17l1.74-.12-.15-.76,1.6-.11.15.76,1.88-.13.24,1.25-1.88.13.14.71-.75.05c-.08.27-.17.52-.26.76l2.63-.18.21,1.09-2.72.19.08.43,2.41-.17.17.88-2.41.17.09.44,2.41-.17.17.87-2.41.17.09.47,3.08-.22.21,1.09-7.71.54-.6-3.09c-.11.17-.23.33-.35.47-.08-.07-.21-.16-.37-.27-.16-.11-.33-.21-.5-.31-.14-.09-.27-.16-.38-.22l.13.67-3.98.28-.26-1.34,3.98-.28.11.58c.33-.36.62-.79.86-1.28.26-.53.45-1.06.56-1.59l.52.09-.1-.49-1.87.13-.24-1.25,1.87-.13-.15-.76,1.6-.11.15.76ZM128.97,59.24l.26,1.32-3.98.28-.26-1.32,3.98-.28ZM132.25,60.11l1.51-.11-.09-.47-1.51.11.09.47ZM131.99,58.77l1.51-.11-.09-.44-1.51.11.08.44ZM131.73,57.45l1.51-.11-.08-.43-1.51.11.08.43ZM128.84,56.51l-4.98.35-.27-1.4,4.98-.35.27,1.4ZM132.27,55.13l-.75.05h.06c-.05.26-.12.51-.2.76l1.61-.11c.02-.09.04-.19.07-.29.07-.28.11-.53.13-.76l.79.06-.1-.54-1.74.12.14.71ZM128.02,54.5l-3.85.27-.26-1.32,3.85-.27.26,1.32Z"/>
  <path d="M114.54,59.17l.36,1.83.07.4c.07.4.11.82.15,1.26.05.57.02,1.16-.08,1.75-.1.59-.31,1.18-.65,1.75-.32.57-.81,1.11-1.46,1.61l-.23-.19c-.09-.07-.18-.14-.29-.22-.2-.15-.41-.29-.63-.43-.22-.13-.42-.24-.59-.32.57-.43,1.01-.88,1.32-1.35.3-.47.5-.94.6-1.42.07-.36.11-.72.11-1.07v-.35c-.04-.47-.1-.91-.18-1.33l-.35-1.78,1.85-.13ZM121.34,67.16l-1.87.13-1.64-8.42,1.87-.13,1.64,8.42ZM116,53.49c.51.59,1.06,1.15,1.64,1.66.6.52,1.21.99,1.84,1.41.64.41,1.29.78,1.96,1.09.67.31,1.33.56,1.98.76-.19.24-.35.52-.49.83-.15.3-.27.59-.38.88l-.66-.27c-.66-.29-1.32-.62-1.99-1-.67-.38-1.3-.78-1.9-1.21l-.59-.44c-.76-.6-1.41-1.21-1.95-1.82-.26.64-.64,1.31-1.13,1.99l-.39.51c-.4.5-.85.99-1.34,1.46-.65.62-1.35,1.18-2.1,1.67-.05-.07-.11-.15-.17-.22l-.22-.24c-.16-.17-.33-.33-.51-.5-.17-.17-.34-.3-.49-.41.81-.48,1.54-1.06,2.2-1.74.58-.59,1.1-1.2,1.53-1.84l.18-.28c.47-.75.82-1.46,1.04-2.13l1.93-.13ZM125.12,57.91l-.35.46-.12-.6.47.14Z"/>
  <path d="M106,61.59c-.1-.51-.26-.97-.48-1.39l-.1-.18c-.24-.41-.53-.77-.88-1.07l-.15-.13c-.42-.34-.9-.58-1.43-.74-.27-.08-.56-.14-.86-.17.02.46.03.95.03,1.45v.64c-.02.65-.07,1.3-.14,1.96l-.04.37c-.1.86-.26,1.61-.48,2.26l-.1.27c-.23.62-.52,1.11-.87,1.48l-.15.15c-.35.32-.77.5-1.25.53l-.19-.98c.29-.02.55-.13.8-.4.16-.18.32-.4.46-.68-.01.02-.03.04-.04.06-.25.35-.64.67-1.21.71-.43.03-.83-.1-1.18-.3l-.15-.09-.03-.02-.02-.02c-.33-.25-.59-.58-.81-.93.06.11.12.22.19.33h0c.33.51.68.85,1.03,1.08.35.21.66.29.96.26l.19.98h-.2c-.48,0-.96-.15-1.43-.44-.47-.3-.88-.71-1.25-1.22l-.15-.23c-.35-.55-.6-1.18-.77-1.88l-.07-.3c-.14-.75-.15-1.47-.01-2.16l.07-.29c.18-.68.47-1.31.88-1.87l.18-.24c.51-.63,1.15-1.15,1.91-1.54.77-.39,1.64-.62,2.61-.69.93-.06,1.79.02,2.58.27l.3.1c.68.24,1.3.57,1.85.99.63.48,1.15,1.06,1.57,1.74.42.68.7,1.42.86,2.22l.06.38c.12.88.07,1.69-.17,2.43l-.11.31c-.29.71-.76,1.32-1.41,1.84-.74.59-1.71,1.03-2.93,1.31l-1.46-1.67c.28-.05.53-.1.74-.16.21-.05.41-.11.6-.18.46-.15.87-.35,1.23-.59.28-.19.53-.41.74-.65l.2-.25c.24-.36.41-.76.49-1.21.08-.4.09-.82.02-1.28l-.03-.2ZM100.08,58.09c-.34.1-.65.23-.94.39-.56.32-1,.71-1.33,1.18l-.12.18c-.27.42-.45.86-.56,1.32-.11.52-.12,1.02-.03,1.48.1.49.24.9.42,1.23l.14.22c.14.21.29.37.44.48.18.13.36.19.54.2h.08c.21-.02.39-.13.55-.35.12-.17.24-.41.33-.7l.09-.31c.12-.45.21-1,.28-1.68.07-.54.11-1.11.13-1.7v-.6c.01-.45,0-.89-.02-1.33ZM107.04,61.76c.08.55.08,1.08-.02,1.59h0c-.1.57-.31,1.09-.63,1.54h0s0,.01,0,.01c-.31.43-.69.8-1.14,1.11h0s-.03.02-.05.03c.19-.11.36-.23.52-.36h0c.62-.5,1.03-1.08,1.25-1.75.22-.68.26-1.46.08-2.35-.09-.44-.21-.85-.38-1.23.15.37.27.77.35,1.17l.04.24Z"/>
  <path d="M83.77,57.02c-.04.42-.09.88-.14,1.37-.06.49-.12.97-.19,1.45-.06.47-.12.9-.19,1.3.57.53.97,1.04,1.21,1.53.24.49.4.95.48,1.39.09.47.11.87.06,1.19-.04.32-.16.57-.37.76l-.08.06c-.08.06-.18.11-.29.16-.13.06-.27.11-.43.15l-.22.03c-.22.03-.48.05-.77.06-.05-.21-.14-.45-.26-.74-.12-.29-.26-.53-.42-.73.14,0,.26,0,.36-.01l.3-.02c.18-.02.31-.08.39-.16.08-.07.12-.18.12-.32,0-.11,0-.24-.02-.38l-.03-.15c-.05-.26-.14-.54-.28-.85l-.15-.32c-.22-.43-.58-.88-1.1-1.34.03-.34.06-.71.09-1.11.03-.41.06-.82.08-1.23.03-.34.04-.65.06-.94l-1.17.08,2.26,11.62-1.57.11-2.57-13.21,3.28-.23.24-.08,1.29.58ZM93.39,62.1l.31,1.58-2.26.16.62,3.18c.04.23.08.36.11.41.03.04.08.06.15.06h.08s.51-.04.51-.04c.07,0,.12-.05.14-.13.03-.08.04-.25.01-.49-.03-.26-.09-.64-.17-1.14.13.08.28.16.47.24.2.08.4.14.6.2.21.05.39.1.54.13.09.69.11,1.23.06,1.62-.05.39-.16.67-.35.83-.18.17-.45.27-.81.3l-1,.07c-.43.03-.78-.01-1.04-.12-.25-.11-.46-.32-.6-.61-.1-.22-.19-.49-.28-.83l-.08-.36-.62-3.2-1.11.08c.06.48.09.93.1,1.35.02.64-.04,1.23-.2,1.76-.15.52-.44.98-.85,1.39-.42.42-1,.79-1.74,1.11-.08-.14-.19-.3-.33-.47-.13-.16-.28-.32-.44-.48-.16-.16-.31-.28-.45-.37.56-.21,1.01-.45,1.34-.72l.14-.12c.34-.31.57-.67.69-1.06.12-.41.17-.86.14-1.37-.02-.28-.04-.58-.08-.9l-1.65.12-.31-1.58,8.4-.59ZM88.54,55.51l.3,1.55,3.59-.25.57,2.92-1.15.08.25,1.3-6.42.45-.25-1.3-1.11.08-.57-2.92,3.34-.23-.3-1.55,1.75-.12ZM85.63,58.8l.23,1.19,5.43-.38-.23-1.19-5.43.38Z"/>
  <path d="M78.25,61.86l-4.1.29.21,1.06,3.68-.26,1.06,5.43c.07.37.08.68.02.91l-.02.09c-.06.19-.19.35-.4.48l-.19.1c-.2.09-.43.16-.69.2-.34.06-.75.11-1.23.13-.07-.22-.2-.48-.38-.76-.17-.29-.33-.53-.49-.73.3-.01.59-.02.87-.03.29-.02.48-.04.57-.05.1,0,.17-.03.2-.06.03-.04.04-.1.02-.18l-.22-1.13-.78.93c-.21-.19-.48-.42-.8-.68-.32-.26-.67-.51-1.03-.76-.08-.06-.17-.12-.25-.17-.11.3-.26.59-.46.88l-.11.14c-.27.33-.62.64-1.05.94-.13-.16-.33-.35-.58-.56-.08-.07-.16-.13-.24-.19l.53,2.72-1.62.11-1.39-7.16,3.4-.24-.21-1.06-3.71.26-.29-1.49,9.37-.65.29,1.49ZM71.95,56.6l.31,1.59,5.3-.37.31,1.57-9.98.7.55,2.83c.11.59.21,1.23.29,1.94.08.7.1,1.41.07,2.13-.03.71-.15,1.4-.34,2.07-.19.67-.5,1.28-.92,1.83-.1-.11-.25-.24-.45-.39-.19-.15-.38-.29-.58-.42-.19-.14-.35-.23-.48-.28.37-.49.63-1.02.78-1.59.16-.57.25-1.15.27-1.73,0-.08,0-.16,0-.23-.09.07-.19.14-.28.21-.4.3-.79.58-1.17.86l-.85-1.63c.33-.16.71-.38,1.15-.65.34-.2.68-.41,1.03-.62-.07-.48-.14-.94-.22-1.37l-.08-.42-1.17.78c-.09-.25-.22-.54-.39-.85-.08-.16-.17-.32-.26-.48l-.29-.48c-.2-.33-.4-.65-.62-.94l1.18-.71c.33.4.65.86.96,1.35.21.33.38.63.51.91l-.69-3.54,4.5-.32-.31-1.59,1.88-.13ZM64.69,70.3l-.31-.12.22-.3.08.42ZM74.58,64.7c0,.11,0,.22,0,.33,0,.08,0,.17,0,.25.27.17.55.35.84.56.36.24.71.49,1.04.73.25.17.46.33.64.47l-.48-2.48-2.04.14ZM71.78,67.36c.28-.19.5-.39.67-.62.23-.3.39-.62.47-.94.09-.33.12-.67.09-.99l-1.71.12.47,2.43Z"/>
  <path d="M60.82,62.64c-.03.61-.07,1.23-.12,1.87-.05.64-.11,1.27-.18,1.89-.06.61-.13,1.19-.21,1.75-.04.33-.09.63-.15.92l4.23-.3.34,1.77-13.63.95-.34-1.77,7.5-.52c.08-.42.14-.87.2-1.37.06-.57.11-1.17.15-1.79.02-.31.04-.63.05-.94l.03-.93c.01-.62,0-1.21,0-1.76l2.14.22ZM53.61,62.84c.36.58.69,1.21,1.02,1.88.33.66.62,1.31.88,1.95.26.63.47,1.21.63,1.73l-1.76.62c-.1-.39-.23-.81-.39-1.28l-.18-.47c-.19-.49-.39-.98-.62-1.48l-.24-.5c-.31-.68-.64-1.31-.97-1.89l1.63-.56ZM59.71,63.99c.01-.16.02-.32.03-.48h-.03c0,.16,0,.32,0,.48ZM56.24,57.7l.5,2.59,5.48-.38.34,1.74-12.7.89-.34-1.74,5.34-.37-.5-2.59,1.89-.13Z"/>
  <path d="M41.35,69.27c-.3.45-.64.9-1.03,1.36l-.29.34c-.3.33-.61.65-.94.96-.43.42-.87.78-1.3,1.09-.07-.06-.15-.12-.24-.19l-.29-.21c-.21-.14-.42-.28-.63-.42-.2-.13-.38-.23-.55-.32.32-.22.64-.45.95-.71l.31-.26c.42-.36.79-.73,1.13-1.12.35-.39.62-.76.82-1.1l2.06.59ZM44.91,68.23c.49.27,1.02.58,1.61.93.59.34,1.16.68,1.72,1.03.55.35,1.01.67,1.38.95l-1.58,1.15-.26-.21c-.19-.15-.4-.31-.65-.48l-.38-.26c-.53-.36-1.08-.73-1.65-1.09-.58-.38-1.13-.72-1.64-1.02l1.46-1ZM51.27,71.23l-.19.14-.06-.33.25.19ZM38.66,59.03l.53,2.74,3.44-.24-.53-2.74,1.89-.13.53,2.74,2.8-.2.33,1.71-2.8.2.55,2.83,3.26-.23.33,1.72-13.69.96-.33-1.72,3.23-.23-.55-2.83-2.71.19-.33-1.71,2.71-.19-.53-2.74,1.87-.13ZM40.07,66.3l3.44-.24-.55-2.83-3.44.24.55,2.83Z"/>
  <path d="M30.8,67.38l-2.92.2c-.03.3-.06.59-.08.89,0,.02,0,.03,0,.04l4.53-.32.98,5.07-1.87.13-.1-.53-6.6.46.11.54-1.8.13-.99-5.08,3.93-.27c-.01-.16-.03-.33-.05-.5-.02-.14-.03-.28-.05-.41l-2.93.21-.8-4.12,7.84-.55.8,4.12ZM24.15,70.31l.29,1.5,6.6-.46-.29-1.5-6.6.46ZM24.13,65.11l.25,1.3,4.37-.31-.25-1.3-4.37.31ZM26.25,59.79l.24,1.24,5.61-.39.72,3.7-1.84.13-.41-2.11-9.29.65.41,2.11-1.77.12-.72-3.7,5.4-.38-.24-1.24,1.89-.13Z"/>
  <path d="M11.38,60.85c.13.75.26,1.54.39,2.38l.09.62c.04.32.08.65.11.97l5.92-.41.35,1.83-5.29.37c.39.7.82,1.36,1.3,1.98.72.93,1.54,1.74,2.46,2.41.93.67,1.96,1.18,3.09,1.53-.12.14-.25.31-.38.52-.12.21-.24.42-.36.64-.11.23-.2.43-.26.6l-.46-.18c-.91-.37-1.75-.83-2.52-1.38l-.38-.28c-.86-.68-1.64-1.47-2.34-2.38l-.3-.39c-.3-.41-.58-.84-.86-1.28-.1.84-.31,1.65-.63,2.45-.32.8-.79,1.56-1.41,2.28-.61.72-1.4,1.37-2.36,1.96l-.15-.17c-.16-.18-.36-.37-.58-.57-.3-.27-.61-.48-.9-.65.81-.46,1.49-.96,2.03-1.5l.22-.24c.57-.65,1.01-1.33,1.3-2.05.3-.73.5-1.47.58-2.23.03-.28.05-.57.06-.85l-5.17.36-.35-1.83,5.46-.38c-.06-.64-.14-1.26-.24-1.88-.12-.74-.24-1.44-.36-2.09l1.96-.14ZM14.82,70.64c.38.39.77.75,1.18,1.07.66.52,1.39.96,2.2,1.32.01-.02.03-.05.04-.07-.59-.26-1.15-.57-1.69-.92l-.39-.27h0c-.47-.35-.91-.72-1.33-1.13Z"/>
  <path d="M299.54,14.37l3.66,18.85-5.69.4-1.75-3.26c-2.62,2.84-6.45,4.43-11.51,4.78l-.19-.98c4.87-.34,8.47-1.87,10.91-4.5l.95-1.03,2.12,3.96,3.96-.28-3.28-16.88-16.31,1.14.95,4.91,7.78-.54.19.98.05.31c.2,1.55-.38,2.86-1.59,3.9h0s0,.01,0,.01c-1.27,1.04-2.91,1.61-4.87,1.75-2.76.19-5.16-.37-7.05-1.85h0c-1.87-1.51-3.01-3.66-3.53-6.32l-.61-3.14c-.52-2.66-.23-4.9,1.03-6.59,1.26-1.73,3.38-2.63,6.14-2.82,1.96-.14,3.79.23,5.44,1.14,1.38.74,2.36,1.77,2.86,3.06l8.58-.6c-.57-2.1-1.62-3.83-3.13-5.22h0s0-.01,0-.01c-1.75-1.67-3.93-2.9-6.59-3.65-2.68-.76-5.61-1.04-8.8-.81-5.64.39-9.63,2.05-12.13,4.85l-.24.28c-2.44,2.91-3.21,7.06-2.13,12.6,1.1,5.64,3.28,9.63,6.42,12.14,3.13,2.47,7.37,3.61,12.89,3.22l.19.98-.53.03c-5.44.29-9.82-.88-13.14-3.5-3.43-2.74-5.71-7.01-6.84-12.81-1.11-5.73-.34-10.17,2.31-13.34,2.68-3.21,7.01-5.02,13-5.44l.62-.04c3.06-.16,5.91.14,8.55.89,2.82.8,5.18,2.11,7.08,3.93,1.93,1.79,3.16,4.06,3.7,6.81l-10.52.74c-.27-1.41-1.12-2.49-2.55-3.25-1.35-.75-2.85-1.09-4.51-1.02l-.33.02c-2.59.18-4.42,1.01-5.48,2.47-1.07,1.43-1.36,3.4-.88,5.88l.61,3.14.1.46c.52,2.26,1.53,3.99,3.02,5.19,1.49,1.17,3.42,1.71,5.8,1.63l.48-.03c1.8-.13,3.25-.64,4.35-1.55,1.1-.94,1.52-2.06,1.27-3.37l-7.78.54-1.34-6.87,18.3-1.28Z"/>
  <path d="M247.65,19.74l-3.23-16.64,10.12-.71,6.56,33.77-9.63.67-17.6-15.39,3.19,16.39-10.12.71-6.56-33.77,9.63-.67,17.65,15.63ZM227.74,37.5l8.13-.57-3.51-18.05,19.38,16.94,8.17-.57-6.18-31.81-8.13.57,3.56,18.32-19.43-17.21-8.17.57,6.18,31.81Z"/>
  <path d="M212.51,5.33l6.56,33.77-11.02.77-6.56-33.77,11.02-.77ZM208.85,38.82l9.03-.63-6.18-31.81-9.03.63,6.18,31.81Z"/>
  <path d="M197.05,21.53l3.66,18.85-5.69.4-1.74-3.26c-2.62,2.84-6.45,4.43-11.51,4.78l-.19-.98c4.87-.34,8.47-1.87,10.91-4.5l.95-1.03,2.12,3.96,3.96-.28-3.28-16.88-16.31,1.14.95,4.91,7.78-.54.19.98.05.31c.2,1.55-.38,2.86-1.59,3.9h0s0,.01,0,.01c-1.27,1.04-2.91,1.61-4.87,1.75-2.76.19-5.16-.37-7.05-1.85h-.01c-1.87-1.51-3.01-3.66-3.53-6.32l-.61-3.14c-.52-2.66-.23-4.9,1.03-6.59,1.26-1.73,3.38-2.63,6.14-2.82,1.96-.14,3.79.23,5.44,1.14,1.38.74,2.36,1.77,2.86,3.06l8.58-.6c-.57-2.1-1.62-3.83-3.13-5.22h0s0-.01,0-.01c-1.75-1.67-3.93-2.9-6.59-3.65-2.68-.76-5.61-1.04-8.8-.81-5.64.39-9.63,2.05-12.13,4.85l-.24.28c-2.44,2.91-3.21,7.06-2.13,12.6,1.1,5.64,3.28,9.63,6.42,12.14,3.13,2.47,7.37,3.61,12.89,3.22l.19.98-.53.03c-5.44.29-9.82-.88-13.14-3.5-3.43-2.74-5.71-7.01-6.84-12.81-1.11-5.73-.34-10.17,2.31-13.34,2.68-3.21,7.01-5.02,13-5.44l.62-.04c3.06-.16,5.91.14,8.55.89,2.82.8,5.18,2.11,7.08,3.93,1.93,1.79,3.16,4.06,3.7,6.81l-10.52.74c-.27-1.41-1.12-2.49-2.55-3.25-1.35-.75-2.85-1.09-4.51-1.02l-.33.02c-2.59.18-4.42,1.01-5.49,2.47-1.07,1.43-1.36,3.4-.88,5.88l.61,3.14.1.46c.52,2.26,1.53,3.99,3.02,5.19,1.49,1.17,3.42,1.71,5.8,1.63l.48-.03c1.8-.13,3.25-.64,4.35-1.55,1.1-.94,1.52-2.06,1.27-3.37l-7.78.54-1.34-6.87,18.3-1.28Z"/>
  <path d="M145.16,26.9l-3.23-16.64,10.13-.71,6.56,33.77-9.63.67-17.6-15.39,3.19,16.39-10.12.71-6.56-33.77,9.63-.67,17.65,15.63ZM125.26,44.66l8.13-.57-3.51-18.05,19.38,16.94,8.17-.57-6.18-31.81-8.13.57,3.56,18.32-19.43-17.21-8.17.57,6.18,31.81Z"/>
  <path d="M120.3,46l-11.67.82-2.37-4.66-12.02.84-.52,4.86-11.27.79,5.96-34.64,12.82-.9,19.08,32.89ZM83.67,47.57l9.1-.64.52-4.86,13.51-.94,2.37,4.66,9.5-.66-17.97-30.98-11.42.8-5.61,32.63ZM97.12,21.95l6.9,13.7-10.1.71,1.52-14.28,1.69-.12ZM95.06,35.28l7.43-.52-5.93-11.77h-.2s-1.3,12.29-1.3,12.29Z"/>
  <path d="M71.68,15.18l6.56,33.77-11.02.77-2.49-12.81-12.12.85,2.49,12.81-11.02.77-6.56-33.77,11.02-.77,2.39,12.32,12.12-.85-2.39-12.32,11.02-.77ZM64.24,29.18l-14.12.99-2.39-12.32-9.03.63,6.18,31.81,9.03-.63-2.49-12.81,14.12-.99,2.49,12.81,9.03-.63-6.18-31.81-9.03.63,2.39,12.32Z"/>
  <path d="M10.5,34.98c-.5-2.58-.38-4.76.51-6.45h0s0-.01,0-.01c.98-1.77,2.81-2.68,5.26-2.85,2.14-.15,4.05.37,5.58,1.69h0c1.29,1.08,2.16,2.51,2.64,4.21l8.55-.6c-.93-3.79-2.78-6.58-5.52-8.49l-.29-.2h0c-3.18-2.14-7.19-3.09-12.11-2.75-5.69.4-9.56,2.12-11.81,5.02-2.22,2.89-2.88,7.05-1.79,12.65,1.09,5.6,3.33,9.56,6.6,12.06,3.3,2.51,7.73,3.65,13.42,3.25l.19.98c-5.85.41-10.58-.75-14.18-3.49-3.56-2.74-5.91-6.98-7.03-12.74-1.12-5.76-.47-10.22,1.95-13.37,2.45-3.16,6.61-4.94,12.46-5.35l.48-.03c4.88-.26,8.99.72,12.33,2.96,3.44,2.28,5.62,5.74,6.52,10.39l-10.53.74c-.38-1.96-1.22-3.48-2.5-4.55-1.18-1.01-2.65-1.48-4.42-1.43l-.36.02c-2.23.16-3.74.96-4.54,2.41-.76,1.45-.91,3.4-.43,5.85l.61,3.14.09.45c.49,2.21,1.35,3.94,2.57,5.19,1.25,1.22,2.86,1.8,4.84,1.74l.4-.02c2-.14,3.44-.72,4.35-1.75l.17-.21c.83-1.08,1.11-2.52.82-4.32l-.06-.36,10.18-.71c.9,4.61.14,8.25-2.28,10.9-2.38,2.65-6.2,4.16-11.45,4.53l-.19-.98c5.11-.36,8.66-1.81,10.85-4.24h0c2.02-2.23,2.81-5.24,2.24-9.16l-8.2.57c.17,1.73-.15,3.22-1.06,4.41-1.09,1.42-2.88,2.13-5.17,2.29-2.24.16-4.22-.39-5.8-1.77l-.31-.29-.02-.02c-1.51-1.55-2.47-3.65-2.96-6.19l-.61-3.14Z"/>
</svg>