<?xml version="1.0" encoding="UTF-8"?>
<svg id="_レイヤー_1" xmlns="http://www.w3.org/2000/svg" version="1.1" viewBox="0 0 228.47 228.4">
  <!-- Generator: Adobe Illustrator 29.5.1, SVG Export Plug-In . SVG Version: 2.1.0 Build 141)  -->
  <defs>
    <style>
      .st0 {
        fill: #498db3;
      }
    </style>
  </defs>
  <path class="st0" d="M214.17,161.77c-.15.31-.36.57-.63.76-.27.18-.56.3-.88.32s-.65-.03-.96-.18c-.3-.15-.55-.35-.76-.63-.18-.27-.3-.56-.32-.88s.03-.65.18-.96c.15-.3.35-.55.63-.76.27-.18.56-.3.88-.32.33-.03.65.04.96.18.31.15.57.36.76.63.18.27.3.56.32.88.03.33-.04.65-.18.96h0Z"/>
  <path class="st0" d="M206.16,176.7l-7.49-4.94,2.13-3.24,7.49,4.94,2.18-3.3,2.57,1.7-6.48,9.83-2.57-1.7,2.17-3.29Z"/>
  <path class="st0" d="M189.71,183.13l1.62.72,2.76-3.2-.96-1.49,2.58-3,6.27,11.19-2.93,3.41-12-4.53,2.67-3.11h0ZM195.6,183.02l-1.71,1.98,4.07,1.84.05-.06-2.42-3.77Z"/>
  <path class="st0" d="M188.6,200.88l-3.6,3.18-.05-6.58-8-2.39,3.42-3.02,4.8,1.65.44-2.67-1.79-2.02,2.9-2.56,7.98,9.02-2.9,2.56-3.41-3.85.19,6.7v-.02Z"/>
  <path class="st0" d="M182.55,205.87l-8.65,5.83-1.61-2.4,5.43-3.66-.93-1.38-4.65,3.13-1.55-2.3,4.65-3.13-1.02-1.52-5.53,3.72-1.61-2.4,8.75-5.89,6.73,9.99h0Z"/>
  <path class="st0" d="M153.34,208.59l3.54-1.58,1.9,4.28,7.37,4.79-4.07,1.81-3.74-2.73-.06.03-.48,4.6-3.85,1.71,1.31-8.66-1.9-4.27h0Z"/>
  <path class="st0" d="M146.4,223.99c-1.99.58-3.69.52-5.07-.18s-2.36-2.03-2.92-3.98c-.57-1.95-.45-3.6.33-4.93.79-1.34,2.18-2.3,4.19-2.88,1.99-.58,3.69-.53,5.06.17,1.37.71,2.34,2.04,2.91,4,.57,1.96.46,3.6-.32,4.92-.79,1.34-2.18,2.3-4.19,2.88h0ZM145.6,221.21c.79-.23,1.34-.65,1.6-1.25.28-.6.3-1.32.06-2.13l-.31-1.08c-.24-.82-.64-1.41-1.19-1.77-.55-.36-1.23-.42-2.03-.19-.79.23-1.33.65-1.6,1.25-.29.61-.31,1.32-.07,2.14l.31,1.08c.24.82.64,1.41,1.21,1.77.55.36,1.24.42,2.03.19h0Z"/>
  <path class="st0" d="M123.82,220.92c-.23-1.63.1-2.95,1.01-3.95.9-1,2.3-1.64,4.2-1.91,1.9-.27,3.43-.06,4.59.65,1.15.71,1.84,1.88,2.07,3.5l1.02,7.13-3.83.55-1.01-7.07c-.09-.67-.35-1.18-.77-1.54-.41-.34-.96-.46-1.64-.37-.68.1-1.17.38-1.47.83-.31.46-.42,1.01-.32,1.68l1.01,7.07-3.83.55-1.02-7.13h0Z"/>
  <path class="st0" d="M108.57,224.74c0-.74.19-1.4.58-2,.4-.6.97-1.04,1.72-1.33l-2.71-5.02,4.34-.03,2.17,4.38h1.44l-.03-4.41,3.87-.03.08,12.05-7.37.05c-.87,0-1.6-.16-2.21-.5-.62-.32-1.09-.77-1.39-1.34-.32-.56-.48-1.17-.49-1.83h0ZM112.51,224.56c0,.31.11.58.32.78.21.21.47.31.77.31l2.54-.02-.02-2.22-2.54.02c-.3,0-.56.11-.77.32-.21.22-.31.49-.31.81h0Z"/>
  <path class="st0" d="M99.44,227.48l-9.61-1.6.48-2.85,5.79.97.34-2.04-4.98-.83.46-2.73,4.98.83.71-4.27,3.82.64-1.98,11.88h0Z"/>
  <path class="st0" d="M82.56,224.48l3.12-11.64,3.74,1-3.12,11.64-3.74-1Z"/>
  <path class="st0" d="M68.72,215.08c.26-.69.68-1.24,1.26-1.66.58-.41,1.28-.62,2.08-.62l-.72-5.67,4.07,1.54.44,4.87,1.35.51,1.56-4.11,3.62,1.37-4.27,11.27-6.9-2.61c-.81-.3-1.44-.73-1.88-1.25-.46-.53-.74-1.11-.82-1.75-.09-.64-.03-1.26.21-1.89h0ZM72.45,216.33c-.11.3-.11.58.02.85.12.27.32.46.61.57l2.38.89.78-2.08-2.38-.9c-.29-.11-.56-.1-.83.02-.28.13-.47.35-.58.65h0Z"/>
  <path class="st0" d="M60.42,215.13c-1.36-.73-2.32-1.6-2.9-2.63-.58-1.01-.59-2.06-.04-3.16l.1-.18,3.2,1.71-.04.06c-.17.3-.19.63-.07.95.12.33.41.62.87.87.45.24.84.36,1.16.36.3,0,.52-.11.62-.3.15-.28.09-.57-.17-.88-.26-.31-.71-.74-1.36-1.27-.76-.64-1.36-1.19-1.8-1.68-.46-.48-.77-1.05-.96-1.71-.18-.65-.07-1.36.31-2.1.67-1.25,1.6-1.95,2.77-2.11,1.17-.16,2.46.15,3.88.91,1.66.88,2.8,1.86,3.43,2.91.62,1.04.55,2.28-.2,3.69l-3.23-1.73c.29-.53.34-.97.17-1.3-.18-.32-.57-.65-1.15-.96-.43-.23-.81-.38-1.14-.43-.34-.06-.58.05-.74.34-.14.26-.08.53.18.83.24.3.67.71,1.31,1.24.77.65,1.38,1.23,1.84,1.72.45.51.77,1.11.94,1.8s.05,1.43-.38,2.22c-.63,1.16-1.53,1.78-2.72,1.84-1.21.07-2.5-.27-3.87-1h0Z"/>
  <path class="st0" d="M48.83,204.02l5.16-7.34,3.16,2.23-5.16,7.34,3.24,2.28-1.77,2.53-9.62-6.78,1.77-2.52,3.23,2.27h0Z"/>
  <path class="st0" d="M33.42,195.12c-1.09-1.1-1.76-2.21-2.01-3.36-.26-1.14.04-2.15.88-3.03l.15-.15,2.55,2.57-.05.05c-.25.25-.37.54-.35.89s.21.71.58,1.08c.36.37.7.59,1,.68.29.08.53.05.68-.11.22-.22.26-.52.1-.89-.16-.37-.47-.91-.94-1.61-.54-.83-.95-1.54-1.24-2.13-.29-.6-.43-1.24-.41-1.91.02-.67.32-1.32.91-1.92,1.01-1,2.1-1.41,3.27-1.21,1.16.19,2.31.86,3.45,2,1.33,1.33,2.14,2.59,2.43,3.78.29,1.18-.14,2.34-1.27,3.47l-2.58-2.6c.43-.42.61-.83.53-1.2-.08-.36-.36-.78-.83-1.25-.35-.35-.66-.6-.97-.75-.3-.16-.57-.12-.8.11-.2.2-.23.49-.07.84.14.36.43.88.88,1.57.54.84.96,1.57,1.25,2.18.29.62.41,1.28.38,1.99s-.37,1.38-1,2.02c-.93.93-1.98,1.25-3.13.97-1.17-.29-2.31-.98-3.41-2.09v.02Z"/>
  <path class="st0" d="M25.6,181.14l7.07-5.51,2.38,3.05-7.07,5.51,2.43,3.13-2.43,1.9-7.24-9.28,2.43-1.9,2.42,3.11h0Z"/>
  <path class="st0" d="M18.97,177.28l-5.34-8.95,2.48-1.48,3.36,5.62,1.43-.86-2.88-4.81,2.38-1.42,2.88,4.81,1.58-.94-3.42-5.73,2.48-1.48,5.4,9.05-10.34,6.18v.02Z"/>
  <path class="st0" d="M9.21,158.89c-.3-.68-.41-1.36-.32-2.04.07-.67.32-1.28.75-1.83.41-.54.96-.96,1.65-1.26l.21-.09c.68-.3,1.37-.42,2.06-.37.69.06,1.31.28,1.86.67.54.4.97.94,1.27,1.62l1.16,2.65,3.56-1.57,1.56,3.54-11.03,4.85-2.72-6.19h0ZM15.27,159.38l-.65-1.46c-.17-.38-.39-.61-.65-.71-.28-.11-.58-.09-.91.06l-.13.06c-.34.15-.56.36-.65.64-.11.27-.08.59.07.96l.65,1.46,2.28-1h0Z"/>
  <path class="st0" d="M14.52,136.19l-4.44,1.06.99,4.14,4.44-1.06.9,3.76-11.72,2.8-.9-3.76,4.28-1.02-.99-4.14-4.28,1.02-.9-3.76,11.72-2.8s.9,3.76.9,3.76Z"/>
  <path class="st0" d="M1.26,131.44l-1.09-10.36,2.88-.3.68,6.52,1.66-.18-.59-5.58,2.76-.29.59,5.58,1.83-.19-.7-6.64,2.88-.3,1.1,10.49-11.98,1.26h0Z"/>
  <path class="st0" d="M3.96,105.25c.74.02,1.39.23,1.98.65s1.01,1,1.27,1.76l5.11-2.56-.1,4.34-4.44,2.03-.04,1.44,4.4.1-.09,3.87-12.05-.29.18-7.37c.02-.87.2-1.59.56-2.19.34-.61.8-1.06,1.38-1.36.57-.3,1.18-.44,1.85-.42h0ZM4.03,109.2c-.31,0-.58.09-.79.29s-.32.46-.33.77l-.06,2.54,2.22.06.06-2.54c0-.3-.09-.56-.29-.77-.22-.21-.48-.32-.8-.33Z"/>
  <path class="st0" d="M.55,102.64l1.56-10.31,2.86.43-.98,6.48,1.64.25.84-5.54,2.74.41-.84,5.54,1.82.28,1-6.6,2.86.43-1.58,10.43-11.92-1.8h0Z"/>
  <path class="st0" d="M10.9,88.95l-7.74-.95,1.02-4.06,7.26,2.86-.54,2.16h0ZM14.92,90.59l-3.14-.79.85-3.36,3.14.79-.85,3.36Z"/>
  <path class="st0" d="M13.12,69.39c.14-.32.34-.58.6-.77.26-.19.55-.3.88-.34s.65,0,.97.16c.31.14.56.34.77.6.19.26.3.55.34.88s0,.65-.16.97c-.14.31-.34.56-.6.77-.26.19-.55.3-.88.34-.33.04-.65-.02-.97-.16-.32-.14-.58-.34-.77-.6-.19-.26-.3-.55-.34-.88-.04-.33.02-.65.16-.97Z"/>
  <path class="st0" d="M20.73,54.25l7.61,4.74-2.05,3.28-7.61-4.74-2.09,3.36-2.62-1.63,6.22-9.99,2.62,1.63s-2.08,3.35-2.08,3.35Z"/>
  <path class="st0" d="M36.96,47.41l-1.64-.68-2.66,3.27,1,1.47-2.5,3.07-6.55-11.03,2.85-3.48,12.11,4.21-2.59,3.17h0ZM31.07,47.67l1.65-2.02-4.12-1.73-.05.06,2.52,3.71h0Z"/>
  <path class="st0" d="M37.66,29.54l3.51-3.27.21,6.57,8.07,2.18-3.35,3.12-4.84-1.52-.37,2.69,1.83,1.97-2.83,2.64-8.21-8.82,2.83-2.64,3.51,3.77-.37-6.69Z"/>
  <path class="st0" d="M43.12,24.75l8.47-6.07,1.69,2.35-5.33,3.82.97,1.36,4.55-3.26,1.61,2.25-4.55,3.26,1.07,1.49,5.42-3.89,1.69,2.35-8.57,6.14s-7.02-9.8-7.02-9.8Z"/>
  <path class="st0" d="M72.06,21.21l-3.49,1.68-2.02-4.21-7.5-4.58,4.01-1.93,3.82,2.62.06-.03.35-4.62,3.81-1.83-1.06,8.68,2.02,4.21h0Z"/>
  <path class="st0" d="M78.52,5.55c1.98-.64,3.67-.63,5.07.04s2.42,1.96,3.04,3.9.56,3.58-.19,4.94c-.76,1.36-2.12,2.36-4.09,3-1.98.64-3.67.64-5.07-.02-1.39-.66-2.41-1.97-3.03-3.92-.63-1.95-.57-3.59.18-4.93.76-1.36,2.11-2.36,4.09-3h0ZM79.42,8.3c-.79.26-1.31.69-1.57,1.3s-.26,1.32,0,2.13l.34,1.07c.26.81.67,1.39,1.24,1.73.56.34,1.24.39,2.03.14.79-.26,1.31-.69,1.57-1.3.27-.62.27-1.33,0-2.14l-.34-1.07c-.26-.81-.68-1.39-1.25-1.73-.56-.34-1.24-.39-2.03-.14h0Z"/>
  <path class="st0" d="M101.27,7.88c.29,1.62-.02,2.95-.89,3.97-.88,1.03-2.26,1.71-4.15,2.04s-3.42.16-4.61-.52c-1.17-.67-1.9-1.83-2.18-3.45l-1.24-7.09,3.82-.66,1.23,7.04c.12.66.39,1.17.81,1.51.42.33.98.43,1.66.31.68-.12,1.16-.41,1.45-.88.29-.47.39-1.02.28-1.69l-1.23-7.04,3.82-.66,1.23,7.09v.02Z"/>
  <path class="st0" d="M116.94,3.56c.03.74-.16,1.41-.53,2.02s-.94,1.07-1.69,1.37l2.85,4.95-4.34.15-2.28-4.32-1.44.05.15,4.4-3.87.13-.4-12.04L112.75,0c.87-.03,1.6.12,2.22.43.63.3,1.11.74,1.43,1.3.33.55.52,1.16.53,1.83ZM113,3.86c0-.31-.13-.57-.34-.77-.22-.2-.48-.3-.78-.29l-2.54.08.07,2.22,2.54-.08c.3,0,.55-.12.76-.34.2-.23.29-.5.29-.81h0Z"/>
  <path class="st0" d="M125.69.52l9.64,1.35-.4,2.87-5.81-.81-.29,2.05,5,.7-.38,2.74-5-.7-.6,4.29-3.83-.53,1.66-11.94h0Z"/>
  <path class="st0" d="M135.01,14.19l2.76-11.73,3.77.88-2.76,11.74-3.77-.88h0Z"/>
  <path class="st0" d="M156.4,11.9c-.24.69-.65,1.25-1.22,1.69-.57.43-1.26.65-2.06.67l.88,5.64-4.1-1.43-.57-4.86-1.36-.47-1.45,4.15-3.66-1.27,3.96-11.38,6.96,2.42c.81.29,1.46.68,1.92,1.21.48.52.77,1.09.87,1.73.11.64.06,1.26-.16,1.89h0ZM152.62,10.75c.1-.29.09-.58-.04-.85s-.34-.45-.63-.55l-2.4-.84-.73,2.1,2.4.84c.29.1.56.08.83-.05.27-.14.46-.36.56-.65h0Z"/>
  <path class="st0" d="M164.64,11.5c1.38.68,2.37,1.53,2.98,2.54.61,1,.65,2.05.13,3.15l-.09.18-3.24-1.61.03-.06c.16-.31.18-.64.05-.96-.13-.32-.42-.6-.89-.84-.46-.23-.85-.34-1.17-.32-.3.02-.52.12-.61.32-.14.29-.07.57.19.88.27.3.74.71,1.4,1.23.78.61,1.39,1.15,1.85,1.62.47.47.8,1.02,1,1.68.2.65.12,1.35-.25,2.11-.64,1.27-1.54,2.01-2.71,2.19-1.16.19-2.47-.07-3.91-.79-1.69-.84-2.86-1.77-3.51-2.8-.65-1.02-.62-2.26.09-3.69l3.27,1.63c-.27.54-.31.98-.12,1.31.19.32.59.63,1.19.92.44.22.82.35,1.15.4.34.06.58-.06.73-.36.13-.26.06-.53-.19-.82-.25-.29-.69-.69-1.35-1.2-.78-.63-1.41-1.18-1.89-1.67-.47-.5-.8-1.09-1-1.77s-.09-1.43.31-2.23c.59-1.18,1.47-1.83,2.65-1.93,1.2-.11,2.5.18,3.9.88h0Z"/>
  <path class="st0" d="M176.85,22.39l-4.97,7.47-3.23-2.15,4.97-7.47-3.3-2.19,1.71-2.56,9.8,6.52-1.71,2.56-3.28-2.18h0Z"/>
  <path class="st0" d="M192.9,31.12c1.12,1.06,1.82,2.17,2.09,3.31.3,1.13.02,2.15-.81,3.05l-.15.15-2.62-2.51.05-.05c.24-.25.35-.55.32-.9s-.23-.7-.61-1.06c-.37-.35-.71-.57-1.01-.65-.3-.07-.53-.04-.68.13-.22.23-.24.53-.08.89.17.37.49.89.98,1.59.56.81,1,1.51,1.29,2.1.31.59.47,1.22.46,1.9,0,.67-.29,1.33-.86,1.94-.99,1.03-2.06,1.46-3.24,1.29-1.17-.17-2.33-.8-3.5-1.92-1.36-1.3-2.2-2.54-2.53-3.72-.31-1.17.07-2.34,1.18-3.49l2.65,2.53c-.42.44-.59.85-.51,1.22.09.36.38.77.86,1.24.35.34.68.58.99.72.31.15.57.11.8-.13.2-.21.22-.49.06-.85-.15-.35-.46-.87-.93-1.54-.56-.83-1-1.55-1.31-2.15-.3-.61-.45-1.27-.43-1.98s.33-1.39.96-2.04c.91-.96,1.95-1.31,3.11-1.05,1.18.26,2.33.92,3.47,2h.03Z"/>
  <path class="st0" d="M200.91,44.67l-6.93,5.69-2.45-3,6.93-5.69-2.51-3.06,2.38-1.95,7.47,9.1-2.38,1.95-2.5-3.04h0Z"/>
  <path class="st0" d="M207.83,48.57l5.57,8.81-2.44,1.54-3.5-5.54-1.4.88,3,4.74-2.34,1.47-3-4.74-1.56.99,3.57,5.64-2.44,1.54-5.63-8.91,10.19-6.43h0Z"/>
  <path class="st0" d="M217.89,66.27c.32.67.45,1.36.39,2.03-.06.67-.29,1.29-.69,1.84-.4.55-.93.99-1.6,1.31l-.2.1c-.67.32-1.36.46-2.05.43-.69-.04-1.32-.24-1.88-.62-.55-.38-1-.91-1.32-1.59l-1.24-2.61-3.51,1.67-1.66-3.49,10.89-5.17,2.9,6.1h-.02ZM211.82,65.94l.68,1.44c.18.37.4.6.67.69.28.1.58.07.91-.08l.13-.06c.34-.16.55-.38.64-.65.1-.27.06-.59-.11-.96l-.68-1.44-2.25,1.07h0Z"/>
  <path class="st0" d="M213.27,89.07l4.42-1.2-1.12-4.11-4.42,1.2-1.01-3.73,11.63-3.15,1.01,3.73-4.24,1.15,1.12,4.11,4.24-1.15,1.01,3.73-11.63,3.15-1.01-3.73Z"/>
  <path class="st0" d="M226.77,93.88l1.36,10.33-2.87.38-.86-6.5-1.65.22.73,5.56-2.75.36-.73-5.56-1.83.24.87,6.62-2.87.38-1.37-10.45,11.95-1.58h0Z"/>
  <path class="st0" d="M224.79,120.16c-.74,0-1.4-.19-2-.59s-1.03-.97-1.32-1.73l-5.03,2.69v-4.34l4.38-2.15v-1.44h-4.4s0-3.86,0-3.86l12.04-.04.02,7.37c0,.87-.17,1.6-.5,2.2-.32.62-.77,1.08-1.35,1.39-.56.31-1.17.48-1.83.48h0ZM224.62,116.21c.31,0,.58-.11.78-.32.21-.21.31-.47.31-.77v-2.54h-2.23v2.54c0,.3.11.56.32.77.22.21.49.31.81.31v.02Z"/>
  <path class="st0" d="M228.28,122.63l-1.28,10.34-2.87-.35.8-6.5-1.65-.2-.69,5.56-2.75-.34.69-5.56-1.83-.22-.82,6.62-2.87-.36,1.29-10.46,11.96,1.48h0Z"/>
  <path class="st0" d="M218.31,136.61l7.76.75-.91,4.08-7.34-2.65.48-2.17h0ZM214.24,135.08l3.16.7-.76,3.38-3.16-.7.76-3.38Z"/>
</svg>