<?xml version="1.0" encoding="UTF-8"?>
<svg id="_レイヤー_1" data-name="レイヤー_1" xmlns="http://www.w3.org/2000/svg" version="1.1" viewBox="0 0 167.96 63.78">
  <!-- Generator: Adobe Illustrator 29.5.1, SVG Export Plug-In . SVG Version: 2.1.0 Build 141)  -->
  <path d="M160.53,46.96c-.16.36-.28.71-.34,1.05l-.04.25c-.03.25-.01.49.03.74l.06.22c.16.5.5.86,1.03,1.07l.24.08c.49.15,1.1.21,1.82.19l.37-.02c.82-.06,1.55-.14,2.19-.26.65-.12,1.24-.24,1.75-.38l.26,1.86-.33.08c-.35.08-.78.17-1.27.27-.65.13-1.44.22-2.36.28-1.01.06-1.91,0-2.71-.21-.7-.17-1.28-.44-1.75-.82l-.2-.17c-.44-.41-.75-.91-.9-1.5l-.06-.26c-.09-.45-.11-.9-.06-1.34.05-.45.16-.94.32-1.45l1.95.3ZM159.45,49.82c.11.28.28.51.49.71.08.07.16.14.25.2-.14-.11-.28-.24-.4-.39-.14-.17-.25-.34-.35-.53ZM163.11,39.38c.15.38.32.75.49,1.13.17.37.35.73.54,1.08,0,.01.02.03.02.04.19-.04.38-.08.57-.13.43-.1.84-.21,1.24-.34.41-.13.79-.26,1.15-.41l.6,1.84c-.31.11-.66.22-1.03.33-.36.1-.74.21-1.14.3-.13.03-.27.05-.4.08.22.34.45.67.7,1,.43.56.8.99,1.1,1.31.17.18.33.35.49.5.17.15.34.29.51.43l-.67,1.39-.37-.03c-.14-.01-.29-.02-.45-.03-.16-.01-.34-.03-.51-.03l-.56-.02c-.38-.01-.76-.03-1.14-.04-.38-.01-.72-.02-1.04-.02l-.15-1.57c.25,0,.52,0,.81.02.28,0,.55,0,.79,0,.25,0,.46,0,.62,0-.24-.27-.49-.58-.76-.93-.27-.35-.54-.71-.8-1.09-.13-.18-.25-.37-.37-.55-.71.1-1.46.19-2.26.26l-.93.07c-.97.06-2.03.08-3.19.07l-.4-1.88c.95.04,1.84.06,2.66.04.82-.02,1.59-.06,2.3-.13.29-.03.56-.06.83-.1,0-.01-.01-.02-.02-.03-.17-.33-.32-.61-.45-.85-.09-.16-.2-.36-.33-.6-.13-.24-.26-.48-.41-.72l1.97-.38Z"/>
  <path d="M148.85,40.94c.02.17.04.34.07.52.02.17.04.29.04.37.02.12.04.28.08.46l.95-.07,1.33-.11,2.05-.14.32,1.74c-.24,0-.51.02-.82.03l-1.04.05c-.69.03-1.52.08-2.48.14l.19,1c.09.4.17.78.24,1.15,0,.02,0,.04,0,.05.09.11.18.22.26.35.32.47.55,1.02.67,1.64.09.48.11.99.05,1.52l-.03.2c-.07.46-.23.93-.47,1.39-.26.52-.67,1-1.21,1.44-.53.44-1.23.83-2.1,1.15l-1.9-1.45c.46-.13.89-.28,1.29-.45l.39-.18c.51-.24.94-.54,1.28-.88.14-.13.26-.27.36-.43-.2.06-.42.1-.67.12-.21.01-.43,0-.67-.05l-.24-.06c-.32-.1-.63-.25-.94-.46-.23-.16-.43-.34-.62-.56l-.18-.23c-.16-.24-.29-.52-.38-.84l-.08-.33c-.11-.56-.07-1.05.12-1.47.19-.43.49-.78.89-1.03.41-.27.9-.42,1.44-.46.21-.01.41-.01.61,0l-.07-.34c-.04-.22-.09-.43-.13-.64-.19.02-.37.03-.56.05-.7.06-1.39.12-2.07.19-.68.07-1.34.14-1.98.21l-.92.1c-.3.04-.59.07-.87.11l-.39-1.78,1.49-.12,3.54-.31c.49-.04.96-.08,1.41-.11-.04-.19-.08-.35-.11-.46-.08-.3-.15-.57-.23-.79-.08-.23-.13-.39-.17-.48l2.17-.15c0,.08.01.21.03.39ZM147.36,46.61c-.19.01-.37.07-.53.17l-.11.08c-.1.09-.19.21-.24.34l-.04.15c-.03.15-.03.32,0,.51l.03.12c.08.28.24.5.47.66.28.18.57.26.87.24.24-.02.43-.1.59-.26.16-.16.24-.41.23-.76,0-.22-.06-.48-.17-.79-.06-.06-.12-.12-.18-.17-.27-.22-.58-.32-.91-.3Z"/>
  <path d="M131.12,41.39c.21.11.48.28.79.5l.47.32c.16.11.32.22.48.33.32.22.59.41.8.59l-1.02.94c.21-.08.41-.15.62-.21.51-.17,1.01-.26,1.47-.3.78-.05,1.47.04,2.07.27l.22.09c.51.23.93.54,1.27.94.39.45.64.96.75,1.53l.04.25c.08.58.03,1.11-.14,1.57l-.08.19c-.21.43-.54.79-.98,1.06-.51.31-1.14.5-1.91.55-.4.03-.82.01-1.27-.05-.44-.06-.81-.13-1.12-.21l-.32-1.86c.37.12.74.22,1.12.29.28.05.55.07.81.07h.25c.28-.03.52-.08.74-.17l.21-.1c.24-.14.42-.32.54-.53l.05-.09c.11-.23.14-.49.1-.79l-.02-.13c-.05-.25-.17-.47-.36-.66-.18-.2-.42-.34-.71-.44-.21-.08-.45-.13-.72-.13h-.28c-.49.04-1.02.17-1.61.4l-.44.18c-.44.19-.89.4-1.36.65-.25.13-.49.27-.73.4.2.3.4.6.59.89.25.39.54.86.86,1.4.34.54.68,1.11,1.01,1.71.34.59.66,1.16.96,1.71.31.55.56,1.02.76,1.42l-1.95.67c-.13-.3-.28-.62-.44-.95l-.51-1.03c-.36-.71-.73-1.41-1.12-2.1-.29-.52-.58-1.01-.85-1.47l-.27-.44c-.19-.3-.39-.59-.58-.89-.41.26-.8.5-1.16.74l-.68.42c-.21.13-.4.24-.56.33l-1.25-1.81c.29-.09.56-.19.82-.31.27-.12.46-.21.57-.26.41-.21.82-.42,1.24-.65-.03-.04-.05-.08-.08-.12-.27-.4-.54-.76-.82-1.09-.14-.18-.31-.39-.53-.62-.21-.23-.41-.44-.6-.61l1.8-.87c.07.08.15.2.25.34.1.14.2.28.31.43.11.13.2.25.26.34l.32.42c.22.29.44.6.67.93.09-.05.19-.1.28-.15.53-.3,1.05-.56,1.56-.8.22-.1.43-.2.65-.28-.19-.16-.42-.34-.69-.54-.31-.24-.62-.46-.94-.68-.32-.23-.59-.4-.82-.53l1.19-1.04ZM133.07,52.34c.19.37.36.73.53,1.07l.06-.02-.24-.43h0s0-.01,0-.01c-.16-.29-.32-.58-.48-.88l.14.27ZM138.08,47.34c-.03.18-.09.36-.17.53-.07.16-.17.3-.27.44.15-.16.26-.33.34-.53.05-.13.08-.28.1-.43Z"/>
  <path d="M115.7,50.78c-.13.26-.24.52-.32.8-.08.26-.09.56-.03.88l.05.19c.14.44.46.75.94.93.49.17,1.15.25,1.97.21l.36-.02c.71-.05,1.37-.13,1.99-.23.63-.1,1.2-.22,1.71-.36l.26,1.88-.39.09c-.4.09-.84.17-1.32.24l-.48.07c-.47.06-.94.11-1.4.14l-.37.02c-.73.03-1.39,0-1.99-.1l-.29-.05c-.66-.14-1.22-.37-1.67-.69l-.19-.15c-.49-.41-.8-.97-.95-1.67-.1-.47-.12-.9-.07-1.28.07-.39.15-.77.25-1.14l1.92.22ZM117.76,42.56c.15.46.31.91.49,1.35.02.06.05.11.07.17.37-.07.72-.16,1.06-.25.61-.16,1.19-.36,1.77-.59l.57,1.68c-.51.18-1.07.35-1.68.51l-.46.11c-.17.04-.34.07-.51.11.12.24.24.47.36.69.11.2.25.42.39.66.49-.09.92-.2,1.29-.31.55-.18,1.03-.34,1.44-.49l.64,1.72c-.43.14-.9.28-1.42.41-.28.07-.58.14-.88.21.04.05.08.11.12.16.31.41.62.77.91,1.1.13.13.25.26.38.38.13.11.28.22.44.33l-.65,1.42-.49-.06c-.18-.02-.38-.03-.59-.05-.21-.02-.42-.03-.64-.04l-.67-.03c-.45-.02-.86-.03-1.24-.05l-.12-1.41c.32,0,.65.01,1.02.02.38,0,.68.01.9.03-.42-.5-.8-.99-1.15-1.48-.37.05-.76.1-1.17.15l-.62.06c-.63.06-1.28.11-1.96.15l-1.37.05c-.46.01-.91.03-1.37.03l-.44-1.73c.92.01,1.8,0,2.63-.02.83-.03,1.61-.08,2.33-.16.33-.04.65-.08.96-.12-.1-.17-.2-.34-.29-.5-.18-.33-.34-.61-.46-.84-.55.06-1.16.12-1.82.17l-.76.04c-.78.03-1.61.03-2.49.01l-.43-1.69c1.12.05,2.15.06,3.07.02l.68-.04c.33-.02.66-.05.97-.09-.1-.21-.2-.41-.31-.61-.14-.27-.3-.54-.46-.82l1.98-.36Z"/>
  <path d="M106.14,42.94l.64,3.31,2.29-.16.14.71c.26,1.54.48,2.85.66,3.92.19,1.07.32,1.95.41,2.64.09.69.15,1.23.16,1.62.01.38-.02.64-.1.8-.1.24-.21.4-.34.5-.13.11-.3.19-.5.24l-.3.06c-.11.02-.23.03-.36.05-.25.03-.52.05-.81.06-.05-.22-.15-.48-.29-.77-.13-.29-.27-.53-.43-.73.23,0,.45,0,.64,0,.19,0,.35,0,.47-.02.07,0,.13-.02.18-.05l.05-.03c.06-.04.11-.12.16-.22.04-.11.05-.33.04-.66,0-.17-.02-.37-.05-.62l-.11-.83c-.08-.64-.21-1.47-.39-2.48-.12-.73-.27-1.59-.43-2.57l-.77.05.05.28c.14.71.25,1.45.34,2.23.1.78.15,1.56.14,2.35,0,.79-.08,1.55-.25,2.29-.17.74-.46,1.42-.86,2.03-.11-.09-.25-.19-.42-.3-.17-.11-.35-.21-.53-.32-.15-.08-.29-.15-.41-.2-.58.11-1.15.22-1.73.32-.97.18-1.83.33-2.59.46l-.52-1.43c.49-.06,1.05-.14,1.67-.24.19-.03.39-.06.59-.09l-.17-.89-1.96.14-.25-1.28,1.96-.14-.14-.69-1.93.13-.86-4.4,1.93-.14-.12-.63-2.1.15-.25-1.28,2.1-.15-.1-.53c-.6.09-1.18.17-1.74.24-.06-.17-.16-.37-.28-.59-.06-.11-.11-.21-.17-.31-.08.58-.18,1.17-.31,1.76-.01.07-.03.15-.05.22l2.06,10.59-1.59.11-1.45-7.48c-.18.44-.38.86-.59,1.23-.07-.14-.18-.33-.32-.56-.07-.12-.14-.24-.21-.36l-.23-.36c-.16-.25-.3-.44-.42-.58.27-.5.51-1.06.72-1.68.21-.62.39-1.28.53-1.98.15-.71.24-1.41.28-2.12l1.69.33c-.02.18-.04.37-.06.55.49-.08.99-.16,1.5-.25.6-.11,1.16-.23,1.71-.36.54-.13,1.01-.25,1.4-.37l1.13,1.19c-.5.14-1.05.28-1.66.42-.15.03-.29.06-.44.08l.13.68,2.15-.15.13.69.72-.05-.64-3.31,1.51-.11ZM104.01,54.94c.57-.09,1.14-.18,1.71-.26.04-.14.08-.28.11-.42.02-.08.03-.15.05-.23l-2.02.14.15.77ZM102.63,47.78l2.01-.14.86,4.4-2.02.14.13.69,2.05-.14.23,1.2c.11-.57.17-1.15.16-1.75,0-.71-.04-1.4-.13-2.08-.08-.69-.18-1.34-.3-1.93l-.06-.29-.78.05-.18-.93-2.1.15.12.63ZM101,51.29l.93-.06-.13-.66-.93.06.13.66ZM103.12,51.14l.97-.07-.13-.66-.97.07.13.66ZM100.68,49.67l.93-.06-.13-.66-.93.06.13.66ZM102.81,49.52l.97-.07-.13-.66-.97.07.13.66Z"/>
  <path d="M91.15,46.35c-.15.12-.3.24-.46.36-.16.12-.31.25-.46.39-.17.15-.38.35-.61.59l-.76.75c-.26.27-.52.53-.77.79-.24.26-.47.48-.67.69.24-.08.47-.13.7-.17.22-.05.45-.08.69-.09.85-.06,1.64.05,2.37.33.74.28,1.36.68,1.86,1.21.51.52.83,1.14.97,1.86l.05.29c.08.67,0,1.28-.24,1.86l-.11.24c-.29.55-.76,1.01-1.4,1.39-.72.43-1.69.69-2.9.77h-.26c-.51.03-.99-.01-1.44-.11l-.23-.05c-.59-.16-1.08-.41-1.47-.75-.34-.3-.57-.65-.68-1.07l-.04-.18c-.08-.4-.04-.78.11-1.14.16-.37.42-.68.78-.92.37-.24.81-.39,1.34-.42h.25c.58-.02,1.1.08,1.56.29l.19.09c.44.22.81.53,1.11.91.25.31.44.65.57,1.02.3-.2.53-.44.67-.72.19-.35.26-.75.2-1.19l-.03-.19c-.07-.39-.25-.72-.52-1.01l-.12-.12c-.29-.28-.65-.49-1.07-.64l-.19-.06c-.44-.13-.92-.2-1.42-.18h-.22c-.58.05-1.09.16-1.54.34l-.33.14c-.32.15-.63.34-.91.56-.37.28-.72.63-1.06,1.03-.33.39-.65.83-.96,1.31l-1.63-1.29.77-.78c.29-.3.57-.61.87-.93.3-.32.58-.62.84-.9.27-.29.49-.53.68-.72l.62-.64c.24-.25.48-.5.73-.75.25-.27.49-.52.72-.75.23-.24.41-.45.56-.62-.15.01-.34.03-.58.06-.24.03-.5.06-.79.09-.28.03-.56.06-.85.09-.28.03-.54.06-.78.1l-.59.07-.62.09c-.22.03-.41.07-.58.11l-.43-1.91c.22.01.44.02.69.01l.69-.03.72-.05c.32-.03.68-.07,1.07-.1.41-.04.81-.08,1.21-.11.4-.04.76-.07,1.07-.1.33-.04.58-.08.76-.1.3-.05.54-.09.72-.13.17-.04.3-.08.39-.12l1.23,1.24ZM87.79,54.37c-.28.02-.49.11-.63.27l-.09.12c-.07.12-.1.25-.07.39.05.27.24.49.55.63.31.15.69.21,1.14.17.31-.02.6-.06.86-.1-.11-.37-.27-.68-.5-.93l-.12-.12c-.28-.28-.61-.42-.98-.43h-.16ZM86.61,49.99c-.24.25-.44.46-.62.64h0c-.09.09-.18.19-.29.31.25-.14.51-.26.78-.37.3-.12.61-.21.94-.27l-.47-.66c-.12.12-.23.24-.34.35Z"/>
  <path d="M71.19,46.22c-.01.19-.02.4-.03.63,0,.22,0,.42,0,.61,0,.22,0,.47,0,.75,0,.26-.01.52-.02.79.15-.02.29-.04.42-.06.34-.04.61-.07.83-.09h.2c.45-.02.87.04,1.25.17l.16.06c.37.15.69.4.96.74l.11.16c.26.38.45.88.57,1.5l.08.44c.08.45.14.94.2,1.45.08.68.12,1.33.12,1.96,0,.63-.07,1.16-.2,1.61l-.06.19c-.15.43-.39.74-.72.94-.37.22-.84.36-1.41.4-.29.02-.6.02-.94,0-.16,0-.32-.02-.47-.03l-.42-.04-.71-1.92c.21.04.43.07.67.1.25.03.48.06.7.07h.3c.09.01.17.01.23,0,.25-.02.46-.08.63-.18.13-.08.23-.2.3-.36l.07-.17c.08-.29.12-.67.11-1.13,0-.46-.03-.95-.09-1.47-.04-.4-.09-.79-.15-1.16l-.07-.37c-.08-.39-.19-.68-.33-.86-.13-.16-.29-.26-.48-.31l-.08-.02c-.22-.05-.49-.07-.81-.05-.22.02-.52.06-.92.12-.04,0-.07.01-.11.02-.01.19-.02.39-.04.6-.04.57-.1,1.19-.17,1.85-.08.65-.18,1.31-.3,1.98l-.2.99c-.07.33-.15.65-.23.97-.16.63-.35,1.2-.58,1.71l-2.09-.63c.26-.49.48-1.02.67-1.61.2-.6.36-1.21.49-1.84.13-.63.23-1.24.31-1.84.08-.6.15-1.17.19-1.69,0-.05,0-.1.01-.15-.13.02-.26.05-.39.07-.37.08-.66.13-.86.16-.2.05-.47.12-.8.19-.32.06-.59.12-.82.18l-.57-1.99c.27,0,.54,0,.8-.03l.8-.09.87-.11c.33-.05.67-.1,1.02-.16,0-.47-.02-.93-.05-1.38-.04-.62-.12-1.21-.24-1.76l2.27.07ZM74.82,56.7c-.13.23-.3.44-.55.6h-.02s0,.01,0,.01c.07-.03.14-.06.2-.1h0c.13-.08.27-.23.36-.52ZM69.02,57.22c-.05.13-.09.26-.14.39h.02c.04-.12.09-.26.13-.39ZM76.61,47.25c.3.3.62.68.96,1.14l.26.35c.26.35.52.72.78,1.1.35.51.68,1.01.97,1.48.31.48.55.88.72,1.22l-1.73,1c-.18-.41-.41-.85-.69-1.34-.27-.5-.57-1-.9-1.5-.24-.39-.49-.75-.75-1.11l-.26-.35c-.34-.45-.68-.83-1.01-1.12l1.64-.88ZM78.94,52.13h.01c-.06-.1-.11-.2-.18-.29.06.1.11.2.16.29ZM70.1,47.17c.02.15.03.31.05.47,0-.1,0-.2,0-.28h0s0-.03,0-.03c0-.05,0-.1,0-.16h-.05Z"/>
  <path d="M62.73,53.41c-.04-.21-.11-.42-.21-.62l-.11-.2c-.16-.26-.37-.48-.63-.67-.25-.2-.54-.35-.86-.45-.24-.07-.5-.11-.77-.11h-.28c-.95.08-1.78.38-2.51.93l-.27.21c-.39.31-.75.67-1.09,1.07.07.43.14.84.21,1.22l.24,1.22c.09.41.18.83.28,1.26.09.43.2.88.32,1.34.03.13.08.3.15.53.07.23.13.43.18.6l-2.07.14c-.01-.17-.04-.37-.08-.59l-.08-.5-.23-1.34c-.07-.41-.15-.85-.24-1.31-.03-.19-.06-.39-.1-.6-.1.23-.21.46-.32.7-.19.4-.37.79-.55,1.16l-.26.52c-.08.16-.16.31-.23.45l-1.49-1.52.5-.86c.19-.33.38-.68.57-1.04.2-.37.4-.74.59-1.1.19-.37.37-.72.53-1.04.07-.14.14-.28.2-.41-.04-.34-.09-.69-.13-1.04-.08.02-.16.03-.25.06-.24.05-.51.1-.79.16-.27.05-.55.1-.83.16-.28.06-.54.11-.79.16l-.56-1.87c.22,0,.43-.01.62-.03.2-.02.43-.05.68-.08.24-.04.51-.08.84-.13.29-.05.57-.11.86-.18-.03-.22-.05-.41-.08-.58-.02-.14-.03-.25-.04-.35l-.03-.21-.13-.65c-.04-.23-.11-.45-.19-.67l2.2-.08c0,.23,0,.56.01,1,0,.33.03.7.05,1.1l.7.67c-.07.12-.14.28-.23.46-.08.18-.15.37-.24.57-.03.06-.05.12-.08.17,0,.08.01.17.02.25,0,.05.01.1.02.15.52-.49,1.07-.88,1.64-1.15.85-.4,1.68-.62,2.48-.68h.29c.66-.02,1.29.1,1.89.35l.26.12c.58.28,1.09.68,1.51,1.18.49.57.81,1.25.96,2.04l.05.28c.1.64.09,1.23-.02,1.77l-.05.23c-.14.52-.37,1-.7,1.42l-.15.18c-.36.41-.82.77-1.38,1.09l-.25.13c-.59.3-1.27.56-2.05.78l-1.24-1.72c.48-.11.92-.24,1.33-.39l.4-.16c.51-.22.94-.5,1.28-.82.31-.28.53-.61.68-.98l.06-.16c.12-.39.14-.83.07-1.33l-.04-.21ZM63.78,53.6c.09.61.06,1.19-.1,1.72h0c-.18.59-.51,1.09-.96,1.51h0c-.06.06-.13.11-.19.17.26-.2.48-.42.66-.65.3-.38.5-.81.59-1.29.1-.48.09-1.04-.03-1.68-.11-.55-.31-1-.59-1.38l-.12-.16s-.01-.01-.02-.02c.05.06.1.13.15.19l.09.14c.23.37.39.77.47,1.18l.04.26Z"/>
  <path d="M48.06,50.41c-.27.02-.58.04-.92.08-.35.03-.69.08-1.04.13-.34.04-.63.11-.89.2-.43.15-.81.38-1.14.69-.34.3-.61.65-.83,1.06-.21.39-.35.82-.42,1.27l-.04.33c-.03.33,0,.66.06.99.09.48.26.9.5,1.26.25.35.55.65.9.89.36.23.76.42,1.2.57.44.14.91.23,1.39.29.5.05,1,.08,1.52.07l-.31,2.07h-.48c-.32-.02-.63-.05-.95-.09l-.47-.08c-.46-.09-.92-.21-1.35-.36l-.43-.17c-.5-.21-.96-.47-1.38-.77l-.18-.13c-.4-.33-.75-.7-1.05-1.12l-.13-.18c-.28-.44-.49-.93-.62-1.48l-.05-.24c-.12-.62-.14-1.2-.07-1.74l.04-.23c.11-.61.3-1.16.55-1.62.26-.48.54-.85.83-1.12-.27.06-.6.12-1,.19-.38.07-.8.14-1.24.24-.44.08-.89.17-1.34.26-.46.09-.9.19-1.32.3l-.59.15c-.19.05-.37.09-.53.14l-.59-2c.3-.03.58-.06.85-.09.27-.04.47-.07.61-.09.31-.04.68-.1,1.12-.17.45-.08.95-.17,1.5-.25l3.74-.57c.51-.09,1.02-.16,1.52-.23.26-.04.5-.07.74-.1l.7-.09c.46-.06.87-.11,1.22-.15l.38,1.88ZM42,55.83c.1.43.26.8.47,1.13.26.39.57.73.93,1.03.28.22.59.41.92.58l.35.16c.5.21,1.01.36,1.56.46.31.06.62.09.93.12l.02-.12c-.11,0-.22-.02-.33-.03h0c-.55-.06-1.08-.17-1.6-.34h-.01s0,0,0,0c-.53-.18-1.02-.41-1.47-.7h-.01s-.02-.02-.02-.02c-.41-.28-.76-.62-1.06-1.01l-.13-.17-.02-.03c-.22-.33-.39-.68-.51-1.05ZM46.2,52c.16.17.34.37.53.6.2.23.39.46.57.69.19.23.35.43.48.62l-1.04.58-.39-.56c-.13-.18-.25-.34-.37-.49-.23-.3-.5-.61-.8-.91l1.02-.53ZM47.74,51.21c.16.17.34.36.54.59.2.21.4.44.6.67.2.23.36.43.5.61l-1.02.61c-.28-.38-.54-.71-.79-1-.24-.29-.51-.59-.83-.9l1-.58ZM44.69,49.91c-.3.04-.61.09-.91.14h0c-.56.09-1.1.17-1.62.25l.64,1.02c.16-.2.34-.39.53-.57l.16-.14c.36-.3.76-.54,1.21-.71Z"/>
  <path d="M31.89,53.19c-.26.39-.55.79-.89,1.2-.33.4-.69.78-1.1,1.15-.24.22-.49.43-.74.62l.02.11,5.63-.39.33,1.68-5.63.39.43,2.22.05.33c.03.32.02.58-.05.78-.08.27-.29.49-.63.66l-.26.11c-.27.1-.59.17-.95.22-.47.07-1.02.13-1.65.18l-.05-.14c-.06-.14-.14-.29-.24-.46-.13-.21-.27-.42-.41-.63-.14-.21-.28-.39-.41-.54.31-.01.63-.02.95-.04l1.39-.1c.15-.01.25-.04.29-.08.04-.03.06-.08.06-.14v-.07s-.43-2.18-.43-2.18l-5.55.39-.33-1.68,5.55-.39-.18-.93.65-.05c.24-.2.48-.43.71-.68.16-.18.31-.36.46-.54l-5.04.35-.31-1.6,6.61-.46.39-.1,1.34.79ZM28.99,60.79c-.02.07-.05.14-.09.2.02-.02.04-.03.05-.04,0,0,.01-.02.01-.02h0s0-.03,0-.03c0-.02.01-.06.02-.12ZM27.63,48.37l.27,1.41,5.52-.39.74,3.83-1.85.13-.42-2.15-9.31.65.42,2.15-1.77.12-.74-3.83,5.49-.38-.27-1.41,1.92-.13Z"/>
  <path d="M9.37,49.64l.49,2.5,1.19-.08-1.07-.36c.12-.27.24-.58.36-.95.12-.38.21-.71.26-1l1.63.5c-.18.34-.35.68-.53,1.02-.15.3-.29.55-.43.78l1.42-.1.27,1.4-2.48.17s.04.02.06.03c.28.12.57.25.88.4.32.14.61.27.86.39.27.12.46.21.57.27l-.7,1.29c-.16-.12-.37-.26-.63-.43-.26-.17-.53-.35-.82-.52-.12-.08-.24-.15-.36-.22l.35,1.79-.97.07.68.09c-.07.24-.14.48-.22.73l3.56-.25.28,1.43-1.15.08c-.01.66-.09,1.24-.24,1.75-.04.14-.09.28-.14.41.15.07.3.14.45.21.35.16.66.32.95.48.78-.5,1.39-1.09,1.83-1.78.13-.2.26-.41.37-.63-.21-.32-.42-.65-.62-.99l-.24-.44c-.24-.46-.48-.93-.7-1.43-.15.41-.31.79-.5,1.14-.11-.11-.27-.24-.47-.38-.2-.15-.41-.29-.63-.42-.22-.14-.4-.26-.55-.35.32-.54.56-1.17.73-1.89.17-.73.28-1.51.33-2.35.05-.85.04-1.72-.02-2.61l1.88.14c.03.83.02,1.65-.01,2.45l4-.28.32,1.63-.84.06c.07,1.51.01,2.85-.18,4.04-.09.56-.21,1.09-.38,1.59.15.17.3.34.46.5.78.78,1.67,1.38,2.67,1.78-.11.12-.23.27-.35.46-.12.2-.24.4-.35.61-.1.21-.18.39-.24.55l-.41-.2c-.95-.49-1.79-1.13-2.53-1.9-.01-.01-.03-.03-.04-.04-.02.03-.04.06-.06.1-.62.98-1.5,1.82-2.63,2.53-.09-.13-.21-.3-.37-.5-.13-.16-.27-.32-.41-.48l-.56.74c-.36-.25-.81-.52-1.34-.79-.14-.07-.29-.15-.44-.22-.34.32-.75.6-1.23.84-.6.31-1.33.59-2.19.82-.1-.24-.24-.5-.44-.76-.19-.27-.38-.48-.57-.65.96-.2,1.74-.45,2.32-.77.13-.07.26-.15.38-.23-.3-.12-.6-.23-.9-.34-.04.1-.07.19-.11.29l-1.66-.36c.17-.39.34-.84.51-1.36.07-.2.13-.4.2-.6l-1.45.1-.28-1.43,2.19-.15c.12-.38.22-.74.31-1.08l.34.04-.27-1.4c-.25.32-.52.63-.81.92-.36.36-.73.68-1.11.94-.14-.18-.32-.39-.55-.63-.22-.24-.42-.44-.61-.58.37-.19.73-.44,1.09-.73.36-.3.68-.63.96-.98.09-.11.16-.21.24-.31l-2.34.16-.27-1.4,1.16-.08c-.1-.21-.24-.45-.42-.72-.23-.34-.46-.65-.7-.94l1.18-.62c.25.26.5.56.73.89.24.33.41.62.53.87l-.88.48,1.25-.09-.49-2.5,1.65-.12ZM9.73,58.86c-.09.27-.18.55-.27.81.47.14.94.29,1.42.47.17-.39.27-.85.3-1.38l-1.45.1ZM15.16,53.6c.42,1.1.9,2.14,1.44,3.11.05.1.11.19.17.29.01-.08.03-.16.04-.24.14-.98.17-2.07.09-3.28l-1.74.12Z"/>
  <path d="M145.86,32.89l-11.67.82-2.37-4.66-12.02.84-.52,4.86-11.27.79L113.95.9l12.82-.9,19.08,32.89ZM109.23,34.46l9.1-.64.52-4.86,13.51-.94,2.37,4.66,9.5-.66L126.27,1.03l-11.43.8-5.61,32.63ZM122.68,8.84l6.9,13.7-10.1.71,1.51-14.28,1.69-.12ZM120.62,22.17l7.43-.52-5.93-11.77h-.2s-1.3,12.29-1.3,12.29Z"/>
  <path d="M92.28,10.17l11.22-.78-1.3-6.68-31.52,2.2,1.3,6.68,11.27-.79,4.88,25.13,9.03-.63-4.89-25.13ZM98.36,36.21l-11.02.77-4.88-25.13-11.27.79-1.68-8.64,33.52-2.34,1.68,8.64-11.22.78,4.88,25.13Z"/>
  <path d="M77.91,37.64l-11.67.82-2.37-4.66-12.02.84-.52,4.86-11.27.79,5.96-34.64,12.82-.9,19.08,32.89ZM41.28,39.21l9.1-.64.52-4.86,13.51-.94,2.37,4.66,9.5-.66L58.32,5.78l-11.42.8-5.61,32.63ZM54.73,13.6l6.9,13.7-10.1.71,1.52-14.28,1.69-.12ZM52.67,26.92l7.43-.52-5.93-11.77h-.2s-1.3,12.29-1.3,12.29Z"/>
  <path d="M35.15,23.52c-1.06-5.46-3.28-9.28-6.52-11.66-3.25-2.38-7.72-3.46-13.58-3.05l-13.87.97,6.18,31.81,13.87-.97.19.98-14.86,1.04L0,8.86l14.86-1.04c12-.84,19.1,4.37,21.29,15.63l.1.52c1.94,10.92-3.01,16.79-14.82,17.62l-.19-.98c5.86-.41,9.8-2.08,12.05-4.85,2.24-2.76,2.93-6.78,1.87-12.25ZM16.05,14.96l.19.98-3.64.25,3.42,17.57,3.64-.25c4.62-.32,6.46-2.92,5.51-7.8l-.57-2.94c-.92-4.72-3.56-7.01-7.93-6.85l-.43.02-.19-.98c2.48-.17,4.65.34,6.34,1.73,1.68,1.37,2.7,3.44,3.2,6.01l.57,2.94c.5,2.57.3,4.73-.8,6.29-1.12,1.58-3.03,2.38-5.51,2.56l-4.64.32-3.8-19.53,4.64-.32Z"/>
</svg>