<svg width="222" height="166" viewBox="0 0 222 166" fill="none" xmlns="http://www.w3.org/2000/svg">
<g clip-path="url(#clip0_1244_4579)">
<path d="M216.969 81.1627C218.204 65.2434 188.935 52.1027 188.935 52.1027C185.037 50.351 180.278 45.7883 178.365 41.9563C178.365 41.9563 169.536 24.3032 155.215 23.1918C150.226 22.8046 148.62 23.2905 148.62 23.2905C144.524 24.5225 138.981 22.8108 136.291 19.4755C136.291 19.4755 127.874 9.03337 116.657 8.16283C102.323 7.05036 90.8734 23.1632 90.8734 23.1632C88.3911 26.654 83.109 28.23 79.1221 26.6727C79.1221 26.6727 76.1628 25.5171 70.188 25.0534C51.7839 23.6251 36.014 33.4113 34.9659 46.9163C34.6274 51.278 35.0464 52.1827 35.0464 52.1827C36.8491 56.0664 34.9807 60.2825 30.9014 61.556C30.9014 61.556 6.1988 69.2735 5.06839 83.8389C3.93798 98.4044 17.5098 112.018 35.4411 113.409C41.629 113.889 45.1578 112.889 45.1578 112.889C49.2754 111.725 53.873 114.048 55.3779 118.056C55.3779 118.056 62.841 137.938 77.7482 139.095C84.9486 139.654 90.0354 136.969 90.0354 136.969C93.816 134.968 99.3134 135.884 102.248 138.997C102.248 138.997 107.078 144.115 114.944 144.726C122.018 145.275 126.611 142.216 126.611 142.216C130.173 139.843 136.351 139.155 140.346 140.686C140.346 140.686 144.368 142.226 150.909 142.733C172.218 144.387 190.51 132.576 191.769 116.357L192.03 112.989C191.131 109.464 193.515 104.999 197.324 103.06C197.324 103.06 216.012 93.5745 216.976 81.1499L216.969 81.1627Z" fill="white"/>
<path d="M81.4031 155.374C81.1833 155.356 80.9692 155.266 80.7941 155.105C80.4009 154.732 80.3685 154.112 80.7352 153.705C81.0214 153.385 81.4153 152.973 81.8968 152.466C82.6666 151.614 83.4934 150.631 84.3565 149.611C86.0383 147.628 87.8975 145.431 89.8707 143.491C91.5552 141.213 92.6954 139.128 92.1879 138.068C91.8534 137.372 90.3671 137.095 88.1123 137.309C86.1481 137.492 84.3916 138.108 82.5387 138.755C79.6941 139.749 76.7526 140.782 73.0725 140.107C64.9058 138.615 62.7773 132.626 60.727 126.838C59.5117 123.415 58.2585 119.876 55.7452 117.206C51.2079 112.378 45.4024 112.927 39.2592 113.511C35.688 113.851 31.9958 114.195 28.4956 113.447C16.5451 110.889 7.21308 101.013 6.31573 89.9537C5.14474 75.5988 14.7214 70.6659 24.8558 65.4543L26.2173 64.7482C32.2559 61.6273 33.7895 59.0492 36.8485 53.9124L37.1871 53.3483C37.4719 52.8739 38.0869 52.7203 38.5611 52.9987C39.0349 53.2837 39.1882 53.8994 38.9101 54.3743L38.5714 54.9385C35.4201 60.2291 33.6859 63.1472 27.1377 66.5305L25.7696 67.2361C15.4255 72.559 7.25189 76.7687 8.31221 89.7866C9.14259 99.9822 17.8091 109.109 28.9163 111.48C32.1198 112.165 35.6506 111.828 39.0732 111.504C45.4322 110.903 52.0007 110.279 57.2061 115.823C60.0041 118.797 61.335 122.544 62.6158 126.159C64.6502 131.892 66.4034 136.846 73.4337 138.129C76.5923 138.703 79.1545 137.808 81.8751 136.859C83.7623 136.2 85.7115 135.52 87.9192 135.308C91.2403 134.996 93.2295 135.613 93.9908 137.202C94.3709 138.003 94.3712 138.949 94.0675 140.012C95.2179 139.263 96.3882 138.69 97.5655 138.372C101.364 137.352 104.854 139.172 107.939 140.78C108.667 141.159 109.356 141.521 110.048 141.843L110.191 141.908C114.574 143.972 118.033 145.596 122.765 143.937C125.431 143.003 127.391 141.84 129.287 140.72C133.038 138.495 136.276 136.572 142.895 137.804C145.207 138.231 147.459 138.748 149.645 139.247C159.165 141.428 167.389 143.308 176.767 137.749C181.929 134.687 188.01 128.349 189.239 123.05C189.923 120.111 189.847 117.63 189.779 115.229C189.636 110.159 189.507 105.781 197.13 100.898C197.595 100.599 198.214 100.734 198.513 101.2C198.812 101.666 198.677 102.286 198.212 102.586C191.547 106.859 191.646 110.342 191.787 115.17C191.855 117.577 191.937 120.314 191.194 123.504C189.793 129.548 183.243 136.245 177.785 139.472C167.72 145.433 158.726 143.373 149.199 141.198C147.039 140.702 144.807 140.193 142.535 139.769C136.655 138.682 133.853 140.336 130.313 142.436C128.423 143.558 126.281 144.827 123.43 145.82C117.919 147.748 113.943 145.876 109.34 143.714L109.198 143.649C108.473 143.311 107.733 142.925 107.018 142.547C104.12 141.041 101.131 139.48 98.0861 140.298C95.91 140.88 93.6525 142.597 91.4854 144.703C89.5306 147.356 86.7833 150.289 83.9787 153.185C83.7602 153.409 83.5561 153.622 83.3664 153.822C82.9627 154.273 82.5689 154.686 82.1976 155.066C81.9797 155.284 81.6906 155.382 81.4108 155.361L81.4031 155.374Z" fill="#231815"/>
<path d="M43.0141 74.3441L54.0901 74.3441L54.0901 75.8651L43.0141 75.8651L43.0141 74.3441ZM48.8251 78.7381L53.4271 78.7381L53.4271 80.2591L48.8251 80.2591L48.8251 78.7381ZM42.5721 83.7041L54.4541 83.7041L54.4541 85.2251L42.5721 85.2251L42.5721 83.7041ZM48.0711 74.9551L49.7221 74.9551L49.7221 84.4451L48.0711 84.4451L48.0711 74.9551ZM44.1841 77.8931L45.8091 77.8931L45.8091 84.5101L44.1841 84.5101L44.1841 77.8931ZM57.1061 83.6911L67.4411 83.6911L67.4411 85.1341L57.1061 85.1341L57.1061 83.6911ZM55.7281 74.5651L67.2981 74.5651L67.2981 75.9951L55.7281 75.9951L55.7281 74.5651ZM56.3261 77.1131L57.8731 77.1131L57.8731 85.7321L56.3261 85.7321L56.3261 77.1131ZM60.3951 79.4921L60.3951 80.1421L64.4121 80.1421L64.4121 79.4921L60.3951 79.4921ZM60.3951 81.1691L60.3951 81.8451L64.4121 81.8451L64.4121 81.1691L60.3951 81.1691ZM60.3951 77.8151L60.3951 78.4651L64.4121 78.4651L64.4121 77.8151L60.3951 77.8151ZM58.9261 76.7231L65.9591 76.7231L65.9591 82.9371L58.9261 82.9371L58.9261 76.7231ZM60.8891 73.4601L62.7221 73.5121C62.6615 73.9714 62.5921 74.4351 62.5141 74.9031C62.4361 75.3624 62.3581 75.8001 62.2801 76.2161C62.2108 76.6234 62.1371 76.9831 62.0591 77.2951L60.4991 77.1911C60.5685 76.8531 60.6291 76.4674 60.6811 76.0341C60.7331 75.6007 60.7765 75.1587 60.8111 74.7081C60.8545 74.2574 60.8805 73.8414 60.8891 73.4601ZM71.3151 85.4461C71.0551 85.1167 70.7648 84.7831 70.4441 84.4451C70.1235 84.1071 69.7985 83.7777 69.4691 83.4571C69.1398 83.1277 68.8235 82.8331 68.5201 82.5731L69.8721 81.4031C70.1841 81.6544 70.5178 81.9534 70.8731 82.3001C71.2285 82.6381 71.5665 82.9804 71.8871 83.3271C72.2165 83.6737 72.4895 83.9814 72.7061 84.2501L71.3151 85.4461ZM90.2501 64.6741L104.2 64.6741L104.2 67.4741L90.2501 67.4741L90.2501 64.6741ZM89.1751 70.4241L105.2 70.4241L105.2 73.2241L89.1751 73.2241L89.1751 70.4241ZM93.2751 75.7241L101.9 75.7241L101.9 78.3991L93.2751 78.3991L93.2751 75.7241ZM94.4001 66.2741L97.5751 66.2741C97.3751 67.3741 97.1501 68.5324 96.9001 69.7491C96.6501 70.9491 96.3918 72.1491 96.1251 73.3491C95.8751 74.5324 95.6168 75.6657 95.3501 76.7491C95.1001 77.8157 94.8585 78.7741 94.6251 79.6241L91.5501 79.2491C91.8001 78.3991 92.0585 77.4491 92.3251 76.3991C92.5918 75.3324 92.8501 74.2241 93.1001 73.0741C93.3501 71.9074 93.5835 70.7491 93.8001 69.5991C94.0335 68.4324 94.2335 67.3241 94.4001 66.2741ZM100.75 75.7241L103.825 75.7241C103.825 75.7241 103.817 75.7991 103.8 75.9491C103.8 76.0991 103.792 76.2741 103.775 76.4741C103.758 76.6574 103.742 76.8074 103.725 76.9241C103.592 78.7407 103.442 80.2407 103.275 81.4241C103.108 82.5907 102.917 83.5157 102.7 84.1991C102.483 84.8657 102.225 85.3574 101.925 85.6741C101.575 86.0407 101.2 86.2991 100.8 86.4491C100.4 86.5991 99.9335 86.6991 99.4001 86.7491C98.9501 86.7824 98.3585 86.7991 97.6251 86.7991C96.9085 86.7991 96.1501 86.7824 95.3501 86.7491C95.3335 86.3157 95.2251 85.8241 95.0251 85.2741C94.8418 84.7407 94.6085 84.2741 94.3251 83.8741C95.1085 83.9574 95.8668 84.0074 96.6001 84.0241C97.3335 84.0407 97.8668 84.0491 98.2001 84.0491C98.4501 84.0491 98.6668 84.0324 98.8501 83.9991C99.0335 83.9491 99.2001 83.8657 99.3501 83.7491C99.5668 83.5657 99.7585 83.1907 99.9251 82.6241C100.092 82.0407 100.242 81.2157 100.375 80.1491C100.508 79.0824 100.625 77.7491 100.725 76.1491L100.75 75.7241ZM83.2001 65.6241L84.8501 63.4241C85.3835 63.6241 85.9418 63.8741 86.5251 64.1741C87.1251 64.4574 87.6918 64.7657 88.2251 65.0991C88.7751 65.4157 89.2168 65.7241 89.5501 66.0241L87.8001 68.4491C87.4835 68.1491 87.0668 67.8241 86.5501 67.4741C86.0335 67.1241 85.4751 66.7907 84.8751 66.4741C84.2918 66.1407 83.7335 65.8574 83.2001 65.6241ZM81.7001 72.3991L83.3001 70.1491C83.8335 70.3324 84.4001 70.5741 85.0001 70.8741C85.6001 71.1574 86.1751 71.4574 86.7251 71.7741C87.2751 72.0741 87.7168 72.3657 88.0501 72.6491L86.3751 75.1241C86.0418 74.8241 85.6168 74.5074 85.1001 74.1741C84.5835 73.8407 84.0251 73.5241 83.4251 73.2241C82.8251 72.9074 82.2501 72.6324 81.7001 72.3991ZM82.5751 84.4991C83.0085 83.8657 83.4835 83.1241 84.0001 82.2741C84.5168 81.4074 85.0418 80.4907 85.5751 79.5241C86.1251 78.5407 86.6335 77.5741 87.1001 76.6241L89.3501 78.5741C88.9335 79.4407 88.4918 80.3324 88.0251 81.2491C87.5585 82.1491 87.0835 83.0407 86.6001 83.9241C86.1168 84.8074 85.6335 85.6574 85.1501 86.4741L82.5751 84.4991ZM130.375 83.2491C129.792 83.7824 129.117 84.2241 128.35 84.5741C127.583 84.9241 126.692 85.0991 125.675 85.0991C124.742 85.0991 123.983 84.7741 123.4 84.1241C122.833 83.4741 122.55 82.5407 122.55 81.3241C122.55 80.6574 122.592 79.9407 122.675 79.1741C122.775 78.3907 122.883 77.6074 123 76.8241C123.117 76.0407 123.217 75.2991 123.3 74.5991C123.4 73.8824 123.45 73.2407 123.45 72.6741C123.45 72.0574 123.3 71.5991 123 71.2991C122.7 70.9824 122.283 70.8241 121.75 70.8241C121.167 70.8241 120.517 71.0324 119.8 71.4491C119.083 71.8491 118.35 72.3657 117.6 72.9991C116.85 73.6324 116.133 74.3074 115.45 75.0241C114.783 75.7407 114.2 76.4241 113.7 77.0741L113.675 73.2241C113.975 72.8907 114.367 72.4991 114.85 72.0491C115.35 71.5991 115.908 71.1324 116.525 70.6491C117.158 70.1657 117.817 69.7157 118.5 69.2991C119.2 68.8657 119.9 68.5157 120.6 68.2491C121.317 67.9824 122.008 67.8491 122.675 67.8491C123.575 67.8491 124.308 68.0157 124.875 68.3491C125.458 68.6657 125.892 69.1074 126.175 69.6741C126.458 70.2241 126.6 70.8491 126.6 71.5491C126.6 72.1991 126.558 72.9074 126.475 73.6741C126.392 74.4241 126.292 75.1907 126.175 75.9741C126.058 76.7574 125.958 77.5324 125.875 78.2991C125.808 79.0657 125.775 79.7657 125.775 80.3991C125.775 80.7324 125.858 81.0074 126.025 81.2241C126.192 81.4241 126.425 81.5241 126.725 81.5241C127.192 81.5241 127.708 81.3741 128.275 81.0741C128.842 80.7574 129.408 80.3074 129.975 79.7241L130.375 83.2491ZM113.1 71.3241C112.833 71.3574 112.492 71.3991 112.075 71.4491C111.658 71.4991 111.208 71.5574 110.725 71.6241C110.258 71.6907 109.783 71.7574 109.3 71.8241C108.817 71.8907 108.367 71.9491 107.95 71.9991L107.625 68.7991C107.992 68.8157 108.333 68.8241 108.65 68.8241C108.983 68.8074 109.367 68.7907 109.8 68.7741C110.2 68.7407 110.675 68.6991 111.225 68.6491C111.792 68.5824 112.358 68.5074 112.925 68.4241C113.508 68.3407 114.05 68.2491 114.55 68.1491C115.05 68.0491 115.442 67.9491 115.725 67.8491L116.725 69.1241C116.575 69.3241 116.4 69.5741 116.2 69.8741C116.017 70.1741 115.825 70.4824 115.625 70.7991C115.425 71.0991 115.25 71.3657 115.1 71.5991L113.625 76.2991C113.358 76.6824 113.025 77.1657 112.625 77.7491C112.242 78.3324 111.833 78.9491 111.4 79.5991C110.967 80.2491 110.542 80.8741 110.125 81.4741C109.708 82.0741 109.333 82.5991 109 83.0491L107.025 80.3241C107.342 79.9241 107.7 79.4657 108.1 78.9491C108.517 78.4157 108.95 77.8574 109.4 77.2741C109.85 76.6741 110.292 76.0824 110.725 75.4991C111.158 74.8991 111.558 74.3407 111.925 73.8241C112.308 73.2907 112.625 72.8324 112.875 72.4491L112.925 71.7991L113.1 71.3241ZM112.8 66.5241C112.8 66.1574 112.8 65.7907 112.8 65.4241C112.8 65.0407 112.767 64.6574 112.7 64.2741L116.35 64.3991C116.25 64.7824 116.142 65.3407 116.025 66.0741C115.925 66.7907 115.817 67.6157 115.7 68.5491C115.6 69.4824 115.5 70.4657 115.4 71.4991C115.317 72.5157 115.242 73.5324 115.175 74.5491C115.125 75.5657 115.1 76.5157 115.1 77.3991C115.1 78.0824 115.1 78.7741 115.1 79.4741C115.117 80.1741 115.133 80.8907 115.15 81.6241C115.167 82.3574 115.2 83.1157 115.25 83.8991C115.267 84.1157 115.292 84.4157 115.325 84.7991C115.358 85.1991 115.392 85.5407 115.425 85.8241L111.975 85.8241C112.008 85.5241 112.025 85.1907 112.025 84.8241C112.042 84.4574 112.05 84.1741 112.05 83.9741C112.067 83.1574 112.083 82.3991 112.1 81.6991C112.117 80.9991 112.125 80.2574 112.125 79.4741C112.142 78.6907 112.167 77.7824 112.2 76.7491C112.217 76.3657 112.242 75.8824 112.275 75.2991C112.308 74.6991 112.342 74.0491 112.375 73.3491C112.425 72.6324 112.475 71.9074 112.525 71.1741C112.575 70.4407 112.617 69.7574 112.65 69.1241C112.7 68.4741 112.733 67.9241 112.75 67.4741C112.783 67.0074 112.8 66.6907 112.8 66.5241ZM136.5 65.4991C136.85 65.5491 137.225 65.5824 137.625 65.5991C138.025 65.6157 138.408 65.6241 138.775 65.6241C139.042 65.6241 139.442 65.6241 139.975 65.6241C140.508 65.6074 141.108 65.5907 141.775 65.5741C142.458 65.5574 143.133 65.5407 143.8 65.5241C144.467 65.5074 145.067 65.4907 145.6 65.4741C146.15 65.4407 146.575 65.4157 146.875 65.3991C147.392 65.3491 147.8 65.3074 148.1 65.2741C148.4 65.2241 148.625 65.1741 148.775 65.1241L150.4 67.3491C150.117 67.5324 149.825 67.7157 149.525 67.8991C149.225 68.0824 148.933 68.2824 148.65 68.4991C148.317 68.7324 147.917 69.0407 147.45 69.4241C146.983 69.7907 146.483 70.1824 145.95 70.5991C145.433 71.0157 144.925 71.4241 144.425 71.8241C143.942 72.2241 143.5 72.5824 143.1 72.8991C143.517 72.7991 143.917 72.7324 144.3 72.6991C144.683 72.6491 145.075 72.6241 145.475 72.6241C146.892 72.6241 148.158 72.8991 149.275 73.4491C150.408 73.9991 151.3 74.7491 151.95 75.6991C152.617 76.6324 152.95 77.7074 152.95 78.9241C152.95 80.2407 152.617 81.4324 151.95 82.4991C151.283 83.5657 150.275 84.4157 148.925 85.0491C147.592 85.6824 145.917 85.9991 143.9 85.9991C142.75 85.9991 141.708 85.8324 140.775 85.4991C139.858 85.1657 139.133 84.6907 138.6 84.0741C138.067 83.4574 137.8 82.7324 137.8 81.8991C137.8 81.2157 137.983 80.5824 138.35 79.9991C138.733 79.3991 139.258 78.9157 139.925 78.5491C140.608 78.1824 141.392 77.9991 142.275 77.9991C143.425 77.9991 144.392 78.2324 145.175 78.6991C145.975 79.1491 146.583 79.7574 147 80.5241C147.433 81.2907 147.658 82.1324 147.675 83.0491L144.75 83.4491C144.733 82.5324 144.5 81.7991 144.05 81.2491C143.617 80.6824 143.033 80.3991 142.3 80.3991C141.833 80.3991 141.458 80.5241 141.175 80.7741C140.892 81.0074 140.75 81.2824 140.75 81.5991C140.75 82.0657 140.983 82.4407 141.45 82.7241C141.917 83.0074 142.525 83.1491 143.275 83.1491C144.692 83.1491 145.875 82.9824 146.825 82.6491C147.775 82.2991 148.483 81.8074 148.95 81.1741C149.433 80.5241 149.675 79.7574 149.675 78.8741C149.675 78.1241 149.442 77.4657 148.975 76.8991C148.525 76.3324 147.908 75.8907 147.125 75.5741C146.342 75.2574 145.458 75.0991 144.475 75.0991C143.508 75.0991 142.625 75.2241 141.825 75.4741C141.025 75.7074 140.267 76.0491 139.55 76.4991C138.85 76.9324 138.158 77.4657 137.475 78.0991C136.808 78.7157 136.142 79.4074 135.475 80.1741L133.2 77.8241C133.65 77.4574 134.158 77.0491 134.725 76.5991C135.292 76.1324 135.867 75.6491 136.45 75.1491C137.05 74.6491 137.608 74.1824 138.125 73.7491C138.658 73.2991 139.108 72.9241 139.475 72.6241C139.825 72.3407 140.233 72.0074 140.7 71.6241C141.167 71.2407 141.65 70.8491 142.15 70.4491C142.65 70.0324 143.125 69.6407 143.575 69.2741C144.025 68.8907 144.4 68.5657 144.7 68.2991C144.45 68.2991 144.125 68.3074 143.725 68.3241C143.325 68.3407 142.883 68.3574 142.4 68.3741C141.933 68.3907 141.458 68.4074 140.975 68.4241C140.508 68.4407 140.067 68.4657 139.65 68.4991C139.25 68.5157 138.917 68.5324 138.65 68.5491C138.317 68.5657 137.967 68.5907 137.6 68.6241C137.233 68.6574 136.9 68.6991 136.6 68.7491L136.5 65.4991ZM160.381 78.7511L168.623 78.7511L168.623 80.0641L160.381 80.0641L160.381 78.7511ZM161.798 80.6751L167.141 80.6751L167.141 81.9101L161.798 81.9101L161.798 80.6751ZM162.292 79.2321L163.631 79.5701C163.31 80.3154 162.873 81.0044 162.318 81.6371C161.772 82.2611 161.191 82.7767 160.576 83.1841C160.498 83.0974 160.394 82.9934 160.264 82.8721C160.143 82.7421 160.013 82.6207 159.874 82.5081C159.744 82.3954 159.627 82.3044 159.523 82.2351C160.13 81.9057 160.676 81.4811 161.161 80.9611C161.655 80.4324 162.032 79.8561 162.292 79.2321ZM166.907 80.6751L168.35 80.6751C168.35 80.6751 168.346 80.7444 168.337 80.8831C168.337 81.0131 168.328 81.1257 168.311 81.2211C168.259 82.0617 168.194 82.7551 168.116 83.3011C168.047 83.8384 167.969 84.2544 167.882 84.5491C167.795 84.8524 167.691 85.0691 167.57 85.1991C167.449 85.3464 167.314 85.4504 167.167 85.5111C167.028 85.5717 166.872 85.6151 166.699 85.6411C166.552 85.6584 166.361 85.6714 166.127 85.6801C165.902 85.6887 165.655 85.6844 165.386 85.6671C165.377 85.4851 165.343 85.2727 165.282 85.0301C165.221 84.7961 165.139 84.6011 165.035 84.4451C165.243 84.4624 165.429 84.4754 165.594 84.4841C165.759 84.4841 165.884 84.4841 165.971 84.4841C166.058 84.4841 166.127 84.4754 166.179 84.4581C166.24 84.4407 166.296 84.4017 166.348 84.3411C166.426 84.2544 166.495 84.0897 166.556 83.8471C166.625 83.5957 166.686 83.2317 166.738 82.7551C166.799 82.2784 166.855 81.6587 166.907 80.8961L166.907 80.6751ZM162.916 76.5541L162.916 77.1781L166.27 77.1781L166.27 76.5541L162.916 76.5541ZM162.916 74.9161L162.916 75.5271L166.27 75.5271L166.27 74.9161L162.916 74.9161ZM161.525 73.8371L167.713 73.8371L167.713 78.2571L161.525 78.2571L161.525 73.8371ZM156.585 76.2421L160.55 76.2421L160.55 77.7111L156.585 77.7111L156.585 76.2421ZM157.898 73.6681L159.354 73.6681L159.354 81.7541L157.898 81.7541L157.898 73.6681ZM156.286 82.0141C156.624 81.8927 157.014 81.7411 157.456 81.5591C157.907 81.3771 158.383 81.1821 158.886 80.9741C159.389 80.7574 159.887 80.5407 160.381 80.3241L160.719 81.6631C160.069 82.0011 159.406 82.3391 158.73 82.6771C158.054 83.0151 157.434 83.3227 156.871 83.6001L156.286 82.0141ZM165.412 80.9351L166.465 81.5071C166.309 82.0271 166.088 82.5601 165.802 83.1061C165.516 83.6434 165.195 84.1461 164.84 84.6141C164.485 85.0821 164.112 85.4677 163.722 85.7711C163.592 85.6237 163.423 85.4677 163.215 85.3031C163.007 85.1384 162.803 85.0041 162.604 84.9001C163.029 84.6314 163.423 84.2847 163.787 83.8601C164.151 83.4354 164.472 82.9674 164.749 82.4561C165.035 81.9447 165.256 81.4377 165.412 80.9351ZM163.449 80.9481L164.463 81.5461C164.246 81.9967 163.96 82.4517 163.605 82.9111C163.258 83.3704 162.877 83.7994 162.461 84.1981C162.045 84.5967 161.629 84.9261 161.213 85.1861C161.092 85.0301 160.936 84.8654 160.745 84.6921C160.563 84.5187 160.381 84.3757 160.199 84.2631C160.624 84.0464 161.044 83.7604 161.46 83.4051C161.885 83.0497 162.27 82.6597 162.617 82.2351C162.964 81.8017 163.241 81.3727 163.449 80.9481ZM173.68 79.2321L177.034 79.2321L177.034 80.4541L173.68 80.4541L173.68 79.2321ZM173.68 81.4291L177.047 81.4291L177.047 82.6511L173.68 82.6511L173.68 81.4291ZM171.171 83.6131L179.946 83.6131L179.946 85.0561L171.171 85.0561L171.171 83.6131ZM170.183 76.8921L180.804 76.8921L180.804 85.7191L179.218 85.7191L179.218 78.3221L171.691 78.3221L171.691 85.7191L170.183 85.7191L170.183 76.8921ZM173.017 77.8411L174.408 77.8411L174.408 84.2631L173.017 84.2631L173.017 77.8411ZM176.41 77.8411L177.814 77.8411L177.814 84.2501L176.41 84.2501L176.41 77.8411ZM174.499 74.9291L176.332 75.3191C176.176 75.7957 176.024 76.2724 175.877 76.7491C175.738 77.2171 175.604 77.6201 175.474 77.9581L174.057 77.5811C174.118 77.3297 174.178 77.0524 174.239 76.7491C174.3 76.4371 174.352 76.1251 174.395 75.8131C174.447 75.4924 174.482 75.1977 174.499 74.9291ZM169.65 74.2531L181.402 74.2531L181.402 75.7221L169.65 75.7221L169.65 74.2531ZM86.3546 92.3701C86.3199 92.5347 86.2809 92.7167 86.2376 92.9161C86.1942 93.1067 86.1552 93.2844 86.1206 93.4491C86.0859 93.6397 86.0426 93.8564 85.9906 94.0991C85.9386 94.3331 85.8866 94.5714 85.8346 94.8141C85.7912 95.0481 85.7436 95.2777 85.6916 95.5031C85.6049 95.8757 85.4966 96.3091 85.3666 96.8031C85.2366 97.2971 85.0849 97.8301 84.9116 98.4021C84.7382 98.9654 84.5432 99.5331 84.3266 100.105C84.1099 100.677 83.8802 101.236 83.6376 101.782C83.3949 102.319 83.1349 102.805 82.8576 103.238L81.1676 102.562C81.4709 102.155 81.7526 101.7 82.0126 101.197C82.2812 100.686 82.5239 100.166 82.7406 99.6371C82.9572 99.0997 83.1479 98.5711 83.3126 98.0511C83.4859 97.5224 83.6332 97.0327 83.7546 96.5821C83.8846 96.1314 83.9842 95.7457 84.0536 95.4251C84.1749 94.8357 84.2702 94.2681 84.3396 93.7221C84.4089 93.1761 84.4349 92.6604 84.4176 92.1751L86.3546 92.3701ZM90.8266 93.6831C91.0346 93.9691 91.2469 94.3201 91.4636 94.7361C91.6889 95.1434 91.9099 95.5767 92.1266 96.0361C92.3432 96.4954 92.5382 96.9374 92.7116 97.3621C92.8849 97.7867 93.0192 98.1551 93.1146 98.4671L91.4636 99.2211C91.3856 98.8571 91.2686 98.4541 91.1126 98.0121C90.9652 97.5701 90.7919 97.1237 90.5926 96.6731C90.3932 96.2137 90.1809 95.7804 89.9556 95.3731C89.7389 94.9657 89.5136 94.6234 89.2796 94.3461L90.8266 93.6831ZM81.0766 95.0351C81.3106 95.0524 81.5402 95.0611 81.7656 95.0611C81.9996 95.0524 82.2336 95.0437 82.4676 95.0351C82.6842 95.0264 82.9442 95.0134 83.2476 94.9961C83.5509 94.9701 83.8716 94.9441 84.2096 94.9181C84.5562 94.8921 84.9029 94.8661 85.2496 94.8401C85.5962 94.8054 85.9169 94.7794 86.2116 94.7621C86.5062 94.7447 86.7489 94.7361 86.9396 94.7361C87.4076 94.7361 87.8149 94.8141 88.1616 94.9701C88.5082 95.1174 88.7812 95.3731 88.9806 95.7371C89.1886 96.1011 89.2926 96.5951 89.2926 97.2191C89.2926 97.7304 89.2709 98.2851 89.2276 98.8831C89.1842 99.4811 89.1062 100.053 88.9936 100.599C88.8896 101.145 88.7422 101.609 88.5516 101.99C88.3436 102.441 88.0576 102.753 87.6936 102.926C87.3382 103.099 86.9136 103.186 86.4196 103.186C86.1769 103.186 85.9126 103.164 85.6266 103.121C85.3406 103.086 85.0849 103.047 84.8596 103.004L84.5866 101.288C84.7512 101.331 84.9332 101.375 85.1326 101.418C85.3406 101.461 85.5356 101.496 85.7176 101.522C85.9082 101.548 86.0599 101.561 86.1726 101.561C86.3892 101.561 86.5799 101.522 86.7446 101.444C86.9092 101.357 87.0436 101.21 87.1476 101.002C87.2689 100.751 87.3686 100.426 87.4466 100.027C87.5246 99.6284 87.5809 99.1994 87.6156 98.7401C87.6589 98.2721 87.6806 97.8257 87.6806 97.4011C87.6806 97.0544 87.6286 96.7987 87.5246 96.6341C87.4292 96.4694 87.2862 96.3611 87.0956 96.3091C86.9136 96.2484 86.6882 96.2181 86.4196 96.2181C86.2202 96.2181 85.9516 96.2354 85.6136 96.2701C85.2756 96.2961 84.9116 96.3307 84.5216 96.3741C84.1402 96.4087 83.7849 96.4477 83.4556 96.4911C83.1262 96.5344 82.8706 96.5647 82.6886 96.5821C82.4979 96.6167 82.2552 96.6557 81.9606 96.6991C81.6746 96.7337 81.4319 96.7684 81.2326 96.8031L81.0766 95.0351ZM90.5926 91.8761C90.7052 92.0321 90.8222 92.2184 90.9436 92.4351C91.0736 92.6517 91.1992 92.8684 91.3206 93.0851C91.4419 93.3017 91.5459 93.4924 91.6326 93.6571L90.5796 94.1121C90.4929 93.9301 90.3932 93.7307 90.2806 93.5141C90.1679 93.2974 90.0509 93.0807 89.9296 92.8641C89.8082 92.6474 89.6869 92.4611 89.5656 92.3051L90.5926 91.8761ZM92.1396 91.2911C92.2522 91.4557 92.3736 91.6464 92.5036 91.8631C92.6336 92.0797 92.7592 92.2964 92.8806 92.5131C93.0106 92.7297 93.1102 92.9117 93.1796 93.0591L92.1526 93.5011C92.0139 93.2324 91.8492 92.9291 91.6586 92.5911C91.4679 92.2444 91.2816 91.9497 91.0996 91.7071L92.1396 91.2911ZM96.5726 94.7361L97.6126 93.8651C97.8812 93.9864 98.1629 94.1294 98.4576 94.2941C98.7522 94.4587 99.0296 94.6277 99.2896 94.8011C99.5582 94.9744 99.7749 95.1391 99.9396 95.2951L98.8476 96.2571C98.6916 96.1011 98.4836 95.9321 98.2236 95.7501C97.9636 95.5681 97.6906 95.3861 97.4046 95.2041C97.1186 95.0221 96.8412 94.8661 96.5726 94.7361ZM102.436 92.4871L102.722 92.4871L102.982 92.4091L103.983 93.0071C103.567 93.7871 103.034 94.4847 102.384 95.1001C101.734 95.7067 101.001 96.2354 100.187 96.6861C99.3806 97.1367 98.5226 97.5224 97.6126 97.8431C96.7026 98.1551 95.7796 98.4064 94.8436 98.5971C94.7742 98.3977 94.6702 98.1681 94.5316 97.9081C94.4016 97.6394 94.2672 97.4227 94.1286 97.2581C95.0039 97.1194 95.8662 96.9201 96.7156 96.6601C97.5649 96.3914 98.3622 96.0664 99.1076 95.6851C99.8529 95.3037 100.512 94.8661 101.084 94.3721C101.656 93.8694 102.106 93.3147 102.436 92.7081L102.436 92.4871ZM98.3146 92.4871L102.787 92.4871L102.787 93.7611L98.3146 93.7611L98.3146 92.4871ZM99.0426 91.4601L100.746 91.8241C100.078 92.5781 99.2982 93.2627 98.4056 93.8781C97.5216 94.4934 96.4772 95.0437 95.2726 95.5291C95.1946 95.4077 95.0949 95.2734 94.9736 95.1261C94.8609 94.9787 94.7352 94.8357 94.5966 94.6971C94.4666 94.5584 94.3452 94.4501 94.2326 94.3721C94.9952 94.1294 95.6842 93.8477 96.2996 93.5271C96.9149 93.2064 97.4522 92.8727 97.9116 92.5261C98.3709 92.1707 98.7479 91.8154 99.0426 91.4601ZM98.3406 99.6631L99.4716 98.7791C99.7402 98.9264 100.022 99.0911 100.317 99.2731C100.611 99.4551 100.893 99.6457 101.162 99.8451C101.43 100.036 101.647 100.213 101.812 100.378L100.603 101.34C100.455 101.175 100.252 100.993 99.9916 100.794C99.7402 100.595 99.4672 100.395 99.1726 100.196C98.8866 99.9967 98.6092 99.8191 98.3406 99.6631ZM104.074 97.2191L104.386 97.2191L104.659 97.1541L105.686 97.6871C105.287 98.6577 104.763 99.4897 104.113 100.183C103.471 100.876 102.722 101.457 101.864 101.925C101.014 102.393 100.083 102.77 99.0686 103.056C98.0632 103.342 97.0016 103.563 95.8836 103.719C95.8229 103.511 95.7276 103.268 95.5976 102.991C95.4676 102.714 95.3376 102.484 95.2076 102.302C96.2389 102.198 97.2226 102.029 98.1586 101.795C99.0946 101.561 99.9526 101.253 100.733 100.872C101.513 100.482 102.184 100.005 102.748 99.4421C103.32 98.8701 103.762 98.2027 104.074 97.4401L104.074 97.2191ZM100.239 97.2191L104.49 97.2191L104.49 98.5191L100.239 98.5191L100.239 97.2191ZM101.149 95.9581L102.852 96.3481C102.132 97.2061 101.257 97.9817 100.226 98.6751C99.2029 99.3597 97.9679 99.9621 96.5206 100.482C96.4686 100.352 96.3862 100.213 96.2736 100.066C96.1609 99.9101 96.0439 99.7584 95.9226 99.6111C95.8012 99.4637 95.6842 99.3467 95.5716 99.2601C96.4816 98.9827 97.2919 98.6707 98.0026 98.3241C98.7219 97.9687 99.3416 97.5917 99.8616 97.1931C100.39 96.7857 100.819 96.3741 101.149 95.9581ZM109.625 92.6041C109.833 92.6127 110.036 92.6214 110.236 92.6301C110.435 92.6387 110.643 92.6431 110.86 92.6431C110.981 92.6431 111.159 92.6387 111.393 92.6301C111.627 92.6214 111.895 92.6127 112.199 92.6041C112.511 92.5867 112.823 92.5694 113.135 92.5521C113.455 92.5347 113.746 92.5174 114.006 92.5001C114.274 92.4827 114.491 92.4654 114.656 92.4481C114.872 92.4221 115.054 92.3961 115.202 92.3701C115.349 92.3441 115.466 92.3137 115.553 92.2791L116.58 93.4751C116.441 93.5617 116.268 93.6787 116.06 93.8261C115.86 93.9647 115.691 94.0861 115.553 94.1901C115.371 94.3374 115.176 94.4977 114.968 94.6711C114.76 94.8444 114.543 95.0221 114.318 95.2041C114.101 95.3774 113.884 95.5551 113.668 95.7371C113.451 95.9104 113.239 96.0837 113.031 96.2571C112.831 96.4217 112.641 96.5691 112.459 96.6991C113.039 96.6384 113.65 96.5864 114.292 96.5431C114.942 96.4911 115.579 96.4521 116.203 96.4261C116.835 96.4001 117.416 96.3871 117.945 96.3871L117.945 97.9211C117.329 97.8864 116.718 97.8691 116.112 97.8691C115.505 97.8691 115.002 97.8994 114.604 97.9601C114.3 97.9947 114.019 98.0727 113.759 98.1941C113.499 98.3154 113.265 98.4714 113.057 98.6621C112.857 98.8441 112.701 99.0521 112.589 99.2861C112.476 99.5114 112.42 99.7584 112.42 100.027C112.42 100.365 112.502 100.642 112.667 100.859C112.831 101.076 113.061 101.24 113.356 101.353C113.659 101.466 114.001 101.544 114.383 101.587C114.755 101.63 115.119 101.652 115.475 101.652C115.83 101.652 116.129 101.643 116.372 101.626L116.021 103.329C114.357 103.398 113.061 103.182 112.134 102.679C111.215 102.176 110.756 101.383 110.756 100.3C110.756 100.031 110.799 99.7714 110.886 99.5201C110.981 99.2601 111.098 99.0217 111.237 98.8051C111.384 98.5884 111.54 98.4021 111.705 98.2461C111.107 98.2894 110.461 98.3587 109.768 98.4541C109.083 98.5494 108.411 98.6534 107.753 98.7661L107.597 97.1931C107.943 97.1584 108.325 97.1151 108.741 97.0631C109.157 97.0111 109.538 96.9677 109.885 96.9331C110.171 96.7424 110.483 96.5171 110.821 96.2571C111.159 95.9971 111.497 95.7284 111.835 95.4511C112.173 95.1651 112.489 94.8964 112.784 94.6451C113.087 94.3851 113.338 94.1641 113.538 93.9821C113.434 93.9907 113.291 93.9994 113.109 94.0081C112.935 94.0167 112.74 94.0297 112.524 94.0471C112.316 94.0557 112.103 94.0687 111.887 94.0861C111.67 94.0947 111.471 94.1077 111.289 94.1251C111.115 94.1337 110.977 94.1424 110.873 94.1511C110.708 94.1597 110.522 94.1771 110.314 94.2031C110.114 94.2204 109.911 94.2421 109.703 94.2681L109.625 92.6041ZM128.345 98.2981C128.345 98.0121 128.271 97.7521 128.124 97.5181C127.985 97.2841 127.773 97.0977 127.487 96.9591C127.209 96.8117 126.863 96.7381 126.447 96.7381C125.979 96.7381 125.524 96.7771 125.082 96.8551C124.648 96.9331 124.258 97.0241 123.912 97.1281C123.574 97.2234 123.292 97.3057 123.067 97.3751C122.876 97.4271 122.664 97.5007 122.43 97.5961C122.204 97.6827 121.996 97.7607 121.806 97.8301L121.312 95.9711C121.537 95.9537 121.78 95.9234 122.04 95.8801C122.3 95.8367 122.534 95.7934 122.742 95.7501C123.062 95.6721 123.426 95.5897 123.834 95.5031C124.25 95.4077 124.7 95.3254 125.186 95.2561C125.671 95.1867 126.165 95.1521 126.668 95.1521C127.361 95.1521 127.968 95.2821 128.488 95.5421C129.016 95.7934 129.428 96.1574 129.723 96.6341C130.017 97.1107 130.165 97.6871 130.165 98.3631C130.165 99.0564 130.013 99.6847 129.71 100.248C129.406 100.811 128.977 101.305 128.423 101.73C127.868 102.146 127.214 102.493 126.46 102.77C125.706 103.047 124.878 103.247 123.977 103.368L123.041 101.756C123.847 101.661 124.575 101.522 125.225 101.34C125.883 101.158 126.442 100.928 126.902 100.651C127.37 100.365 127.725 100.031 127.968 99.6501C128.219 99.2601 128.345 98.8094 128.345 98.2981ZM123.236 92.0581C123.608 92.1361 124.055 92.2097 124.575 92.2791C125.103 92.3484 125.645 92.4091 126.2 92.4611C126.763 92.5131 127.296 92.5564 127.799 92.5911C128.31 92.6171 128.735 92.6344 129.073 92.6431L128.813 94.2421C128.431 94.2161 127.985 94.1814 127.474 94.1381C126.962 94.0947 126.434 94.0471 125.888 93.9951C125.342 93.9344 124.813 93.8737 124.302 93.8131C123.799 93.7437 123.357 93.6787 122.976 93.6181L123.236 92.0581ZM133.051 101.639C133.051 101.24 133.163 100.963 133.389 100.807C133.614 100.642 133.887 100.56 134.208 100.56C134.511 100.56 134.775 100.642 135.001 100.807C135.226 100.963 135.339 101.24 135.339 101.639C135.339 102.02 135.226 102.298 135.001 102.471C134.775 102.636 134.511 102.718 134.208 102.718C133.887 102.718 133.614 102.636 133.389 102.471C133.163 102.298 133.051 102.02 133.051 101.639ZM136.756 101.639C136.756 101.24 136.868 100.963 137.094 100.807C137.319 100.642 137.592 100.56 137.913 100.56C138.216 100.56 138.48 100.642 138.706 100.807C138.931 100.963 139.044 101.24 139.044 101.639C139.044 102.02 138.931 102.298 138.706 102.471C138.48 102.636 138.216 102.718 137.913 102.718C137.592 102.718 137.319 102.636 137.094 102.471C136.868 102.298 136.756 102.02 136.756 101.639ZM140.461 101.639C140.461 101.24 140.573 100.963 140.799 100.807C141.024 100.642 141.297 100.56 141.618 100.56C141.921 100.56 142.185 100.642 142.411 100.807C142.636 100.963 142.749 101.24 142.749 101.639C142.749 102.02 142.636 102.298 142.411 102.471C142.185 102.636 141.921 102.718 141.618 102.718C141.297 102.718 141.024 102.636 140.799 102.471C140.573 102.298 140.461 102.02 140.461 101.639Z" fill="black"/>
</g>
<defs>
<clipPath id="clip0_1244_4579">
<rect width="211.065" height="149.504" fill="white" transform="translate(11.5681) rotate(4.43777)"/>
</clipPath>
</defs>
</svg>
