<svg width="193" height="153" viewBox="0 0 193 153" fill="none" xmlns="http://www.w3.org/2000/svg">
<g clip-path="url(#clip0_1244_4565)">
<path d="M186.311 63.8867C186.311 47.3518 155.861 35.5114 155.861 35.5114C150.819 33.5462 146.809 31.0352 146.958 29.9336V28.9113C146.958 12.9421 125.421 0 98.8621 0C75.8165 0 59.0037 15.9692 59.0037 15.9692C55.0833 19.691 49.2673 22.4105 46.0914 22.0035H43.0742C20.0285 22.0035 1.35974 36.8016 1.35974 55.0535C1.35974 67.42 14.8378 77.8411 14.8378 77.8411C19.1154 81.1461 21.2096 88.0539 19.4826 93.1851C19.4826 93.1851 19.1452 94.1974 19.1452 99.9142C19.1452 121.818 37.3773 139.584 59.8771 139.584C75.7172 139.584 89.4136 125.074 89.4136 125.074C93.1255 121.144 100.162 119.833 105.035 122.176C105.035 122.176 113.71 126.334 124.935 126.334C147.474 126.334 165.746 113.392 165.746 97.423V95.3487C165.25 93.1652 168.406 88.7486 172.763 85.5429C172.763 85.5429 186.311 75.5485 186.311 63.8966V63.8867Z" fill="white"/>
<path d="M186.311 63.8867C186.311 47.3518 155.861 35.5114 155.861 35.5114C150.819 33.5462 146.809 31.0352 146.958 29.9336V28.9113C146.958 12.9421 125.421 0 98.8621 0C75.8165 0 59.0037 15.9692 59.0037 15.9692C55.0833 19.691 49.2673 22.4105 46.0914 22.0035H43.0742C20.0285 22.0035 1.35974 36.8016 1.35974 55.0535C1.35974 67.42 14.8378 77.8411 14.8378 77.8411C19.1154 81.1461 21.2096 88.0539 19.4826 93.1851C19.4826 93.1851 19.1452 94.1974 19.1452 99.9142C19.1452 121.818 37.3773 139.584 59.8771 139.584C75.7172 139.584 89.4136 125.074 89.4136 125.074C93.1255 121.144 100.162 119.833 105.035 122.176C105.035 122.176 113.71 126.334 124.935 126.334C147.474 126.334 165.746 113.392 165.746 97.423V95.3487C165.25 93.1652 168.406 88.7486 172.763 85.5429C172.763 85.5429 186.311 75.5485 186.311 63.8966V63.8867Z" fill="white"/>
<path d="M99.7157 152.794C99.7157 152.794 99.6164 152.794 99.5668 152.794C98.8026 152.725 98.217 152.07 98.217 151.305C98.227 149.618 98.3659 147.653 98.5148 145.579C98.9912 138.81 99.5767 130.374 96.1129 126.682C94.8624 125.342 93.1256 124.677 90.813 124.707C84.9871 124.726 80.1041 129.332 74.9332 134.205C70.8342 138.066 66.5962 142.055 61.6735 143.753C53.5152 146.571 45.9425 145.757 38.5286 141.281C25.5071 133.421 24.4054 122.454 23.2343 110.842C22.7479 106.018 22.2418 101.016 20.8622 96.0434C18.9765 89.2548 15.1256 84.6794 11.0564 79.8361C8.19801 76.4318 5.24039 72.9184 2.90803 68.5117C0.287852 63.579 -1.8857 49.7636 2.57058 42.8955C4.34714 40.1463 7.01695 38.8064 10.3021 39.0347C11.1259 39.0943 11.7412 39.7989 11.6817 40.6227C11.6221 41.4465 10.9075 42.0618 10.0937 42.0122C7.89034 41.8633 6.25273 42.6871 5.06174 44.5232C1.39944 50.1705 3.20578 62.7354 5.52821 67.1222C7.72162 71.251 10.5701 74.6453 13.3292 77.9305C17.4282 82.8036 21.6562 87.8455 23.7206 95.2594C25.1796 100.49 25.6956 105.611 26.1919 110.564C27.3333 121.888 28.3158 131.664 40.057 138.75C46.667 142.74 53.4259 143.465 60.7008 140.954C65.0182 139.465 69.0179 135.694 72.8886 132.051C78.258 126.999 83.806 121.779 90.8031 121.749H90.8627C93.9791 121.749 96.4802 122.732 98.2865 124.667C101.492 128.091 101.988 133.957 101.82 139.743C106.475 130.87 114.444 129.5 127.515 130.274C147.822 131.485 158.114 124.131 163.076 104.906C165.359 96.0335 171.185 91.5574 176.822 87.2202C181.447 83.6571 185.824 80.3025 188.147 74.6255C193.586 61.3559 186.509 55.8277 177.567 48.8207C175.701 47.3617 173.775 45.8531 171.929 44.2354C171.314 43.6895 171.255 42.7566 171.79 42.1313C172.336 41.5159 173.269 41.4564 173.895 41.9923C175.671 43.5605 177.567 45.0393 179.403 46.4685C188.147 53.3067 197.198 60.3832 190.906 75.747C188.276 82.1684 183.383 85.93 178.639 89.5724C173.17 93.7806 167.999 97.7605 165.965 105.641C160.645 126.275 149.102 134.522 127.347 133.242C111.705 132.309 104.509 133.768 101.175 151.603C101.046 152.318 100.42 152.814 99.7157 152.814V152.794Z" fill="#231815"/>
<path d="M44.101 63.9163L50.406 63.9163L50.406 65.2813L44.101 65.2813L44.101 63.9163ZM43.191 69.5583L52.72 69.5583L52.72 70.9103L43.191 70.9103L43.191 69.5583ZM40.955 66.6723L53.071 66.6723L53.071 68.0633L40.955 68.0633L40.955 66.6723ZM43.607 61.6283L52.499 61.6283L52.499 63.0193L43.607 63.0193L43.607 61.6283ZM49.899 63.9163L51.446 63.9163C51.446 63.9163 51.4417 63.9596 51.433 64.0463C51.433 64.133 51.433 64.2326 51.433 64.3453C51.433 64.4493 51.4287 64.5316 51.42 64.5923C51.3593 65.8663 51.2987 66.9453 51.238 67.8293C51.1773 68.7046 51.108 69.424 51.03 69.9873C50.9607 70.5506 50.8783 70.9926 50.783 71.3133C50.6877 71.634 50.5837 71.868 50.471 72.0153C50.315 72.2233 50.146 72.3706 49.964 72.4573C49.782 72.544 49.574 72.6046 49.34 72.6393C49.1233 72.6653 48.8547 72.6783 48.534 72.6783C48.2133 72.6783 47.871 72.6696 47.507 72.6523C47.4983 72.4876 47.4593 72.2926 47.39 72.0673C47.3293 71.8506 47.2513 71.66 47.156 71.4953C47.468 71.5213 47.7497 71.5386 48.001 71.5473C48.261 71.5646 48.4603 71.5733 48.599 71.5733C48.7203 71.5733 48.8157 71.556 48.885 71.5213C48.963 71.4866 49.0367 71.426 49.106 71.3393C49.1927 71.244 49.275 71.0446 49.353 70.7413C49.431 70.4293 49.5003 69.996 49.561 69.4413C49.6303 68.8866 49.691 68.1803 49.743 67.3223C49.8037 66.4643 49.8557 65.433 49.899 64.2283L49.899 63.9163ZM43.438 63.9163L45.011 63.9163C44.933 64.549 44.8463 65.2163 44.751 65.9183C44.6643 66.6116 44.569 67.305 44.465 67.9983C44.3697 68.6916 44.27 69.3503 44.166 69.9743C44.0707 70.5983 43.9753 71.1573 43.88 71.6513L42.294 71.5343C42.398 71.0403 42.502 70.4856 42.606 69.8703C42.7187 69.2463 42.827 68.592 42.931 67.9073C43.035 67.2226 43.1303 66.5423 43.217 65.8663C43.3123 65.1816 43.386 64.5316 43.438 63.9163ZM46.636 64.5923L48.092 64.5923C48.0573 65.069 48.014 65.5673 47.962 66.0873C47.91 66.6073 47.8537 67.123 47.793 67.6343C47.741 68.137 47.6847 68.6223 47.624 69.0903C47.5633 69.5496 47.507 69.9613 47.455 70.3253L45.986 70.3253C46.0467 69.9526 46.1073 69.5323 46.168 69.0643C46.2373 68.5963 46.298 68.1066 46.35 67.5953C46.4107 67.084 46.4627 66.5726 46.506 66.0613C46.558 65.5413 46.6013 65.0516 46.636 64.5923ZM43.867 60.4323L45.544 60.7183C45.3013 61.2556 45.024 61.7886 44.712 62.3173C44.4087 62.846 44.062 63.3573 43.672 63.8513C43.2907 64.3453 42.8573 64.8176 42.372 65.2683C42.268 65.1556 42.138 65.0386 41.982 64.9173C41.8347 64.7873 41.6787 64.666 41.514 64.5533C41.3493 64.432 41.1977 64.341 41.059 64.2803C41.527 63.9076 41.9387 63.5046 42.294 63.0713C42.658 62.6293 42.97 62.183 43.23 61.7323C43.49 61.2816 43.7023 60.8483 43.867 60.4323ZM55.502 61.2253L64.576 61.2253L64.576 72.4703L62.899 72.4703L62.899 62.7983L57.101 62.7983L57.101 72.4963L55.502 72.4963L55.502 61.2253ZM56.594 65.5933L63.588 65.5933L63.588 67.1273L56.594 67.1273L56.594 65.5933ZM56.594 70.0653L63.601 70.0653L63.601 71.6383L56.594 71.6383L56.594 70.0653ZM66.975 64.1823C67.5583 63.9323 68.2417 63.6156 69.025 63.2323C69.825 62.8323 70.65 62.424 71.5 62.0073L72.2 64.2573C71.4833 64.7073 70.75 65.1573 70 65.6073C69.2667 66.0406 68.5417 66.4656 67.825 66.8823L66.975 64.1823ZM69.375 54.6323C69.725 55.4323 70.0417 56.2906 70.325 57.2073C70.6083 58.124 70.7917 58.899 70.875 59.5323L68.575 60.5823C68.525 60.1323 68.4333 59.624 68.3 59.0573C68.1833 58.474 68.025 57.874 67.825 57.2573C67.6417 56.6406 67.4417 56.0656 67.225 55.5323L69.375 54.6323ZM81.775 50.2323L81.775 53.8823L78.625 53.8823L78.625 50.2323L81.775 50.2323ZM73.55 60.3823C73.55 61.3823 73.5 62.474 73.4 63.6573C73.3167 64.8406 73.1417 66.0406 72.875 67.2573C72.625 68.474 72.25 69.649 71.75 70.7823C71.2667 71.899 70.625 72.899 69.825 73.7823C69.675 73.5823 69.4667 73.349 69.2 73.0823C68.95 72.8323 68.6917 72.5823 68.425 72.3323C68.1583 72.0823 67.925 71.899 67.725 71.7823C68.425 70.999 68.9833 70.1323 69.4 69.1823C69.8167 68.2323 70.125 67.249 70.325 66.2323C70.525 65.2156 70.65 64.2156 70.7 63.2323C70.7667 62.2323 70.8 61.2823 70.8 60.3823L70.8 52.2573L73.55 52.2573L73.55 60.3823ZM90.375 52.2573L90.375 54.7823L72.225 54.7823L72.225 52.2573L90.375 52.2573ZM87.5 57.0323L87.95 56.9573L90.025 57.3073C89.8083 58.0906 89.5583 58.899 89.275 59.7323C89.0083 60.549 88.7583 61.2406 88.525 61.8073L86.05 61.3823C86.2333 60.8823 86.425 60.2573 86.625 59.5073C86.825 58.7573 86.9833 58.049 87.1 57.3823L87.1 57.0323L87.5 57.0323ZM77.825 61.9323C77.825 62.8156 77.775 63.7823 77.675 64.8323C77.5917 65.8656 77.4333 66.924 77.2 68.0073C76.9833 69.074 76.6667 70.1156 76.25 71.1323C75.8333 72.1323 75.275 73.0406 74.575 73.8573C74.425 73.6906 74.2167 73.499 73.95 73.2823C73.6833 73.0656 73.4 72.8573 73.1 72.6573C72.8167 72.474 72.5667 72.3323 72.35 72.2323C72.9833 71.499 73.4833 70.6906 73.85 69.8073C74.2333 68.924 74.5167 68.024 74.7 67.1073C74.8833 66.1906 75 65.2906 75.05 64.4073C75.1 63.5073 75.125 62.674 75.125 61.9073L75.125 57.0323L77.825 57.0323L77.825 61.9323ZM80.375 63.6323C81.125 65.649 82.325 67.299 83.975 68.5823C85.625 69.8656 87.775 70.7406 90.425 71.2073C90.125 71.5073 89.8 71.899 89.45 72.3823C89.1167 72.8823 88.85 73.3323 88.65 73.7323C86.75 73.299 85.1 72.6573 83.7 71.8073C82.3167 70.9573 81.15 69.9073 80.2 68.6573C79.25 67.3906 78.4583 65.899 77.825 64.1823L80.375 63.6323ZM86.375 62.0823L86.875 62.0073L88.675 62.5823C88.2917 64.1656 87.7583 65.5656 87.075 66.7823C86.3917 67.999 85.575 69.0573 84.625 69.9573C83.675 70.8406 82.6083 71.5906 81.425 72.2073C80.2583 72.824 78.9833 73.3323 77.6 73.7323C77.4667 73.3823 77.25 72.9573 76.95 72.4573C76.6667 71.974 76.3917 71.5823 76.125 71.2823C77.3417 71.0156 78.4667 70.6323 79.5 70.1323C80.55 69.6323 81.4917 69.024 82.325 68.3073C83.175 67.574 83.8917 66.724 84.475 65.7573C85.075 64.7906 85.525 63.7073 85.825 62.5073L85.825 62.0823L86.375 62.0823ZM83.675 55.2323L83.675 63.2823L81 63.2823L81 55.2323L83.675 55.2323ZM87.35 57.0323L87.35 59.5323L76.425 59.5323L76.425 57.0323L87.35 57.0323ZM86.55 62.0823L86.55 64.5073L76.425 64.5073L76.425 62.0823L86.55 62.0823ZM115.875 70.1823C115.292 70.7156 114.617 71.1573 113.85 71.5073C113.083 71.8573 112.192 72.0323 111.175 72.0323C110.242 72.0323 109.483 71.7073 108.9 71.0573C108.333 70.4073 108.05 69.474 108.05 68.2573C108.05 67.5906 108.092 66.874 108.175 66.1073C108.275 65.324 108.383 64.5406 108.5 63.7573C108.617 62.974 108.717 62.2323 108.8 61.5323C108.9 60.8156 108.95 60.174 108.95 59.6073C108.95 58.9906 108.8 58.5323 108.5 58.2323C108.2 57.9156 107.783 57.7573 107.25 57.7573C106.667 57.7573 106.017 57.9656 105.3 58.3823C104.583 58.7823 103.85 59.299 103.1 59.9323C102.35 60.5656 101.633 61.2406 100.95 61.9573C100.283 62.674 99.7 63.3573 99.2 64.0073L99.175 60.1573C99.475 59.824 99.8667 59.4323 100.35 58.9823C100.85 58.5323 101.408 58.0656 102.025 57.5823C102.658 57.099 103.317 56.649 104 56.2323C104.7 55.799 105.4 55.449 106.1 55.1823C106.817 54.9156 107.508 54.7823 108.175 54.7823C109.075 54.7823 109.808 54.949 110.375 55.2823C110.958 55.599 111.392 56.0406 111.675 56.6073C111.958 57.1573 112.1 57.7823 112.1 58.4823C112.1 59.1323 112.058 59.8406 111.975 60.6073C111.892 61.3573 111.792 62.124 111.675 62.9073C111.558 63.6906 111.458 64.4656 111.375 65.2323C111.308 65.999 111.275 66.699 111.275 67.3323C111.275 67.6656 111.358 67.9406 111.525 68.1573C111.692 68.3573 111.925 68.4573 112.225 68.4573C112.692 68.4573 113.208 68.3073 113.775 68.0073C114.342 67.6906 114.908 67.2406 115.475 66.6573L115.875 70.1823ZM98.6 58.2573C98.3333 58.2906 97.9917 58.3323 97.575 58.3823C97.1583 58.4323 96.7083 58.4906 96.225 58.5573C95.7583 58.624 95.2833 58.6906 94.8 58.7573C94.3167 58.824 93.8667 58.8823 93.45 58.9323L93.125 55.7323C93.4917 55.749 93.8333 55.7573 94.15 55.7573C94.4833 55.7406 94.8667 55.724 95.3 55.7073C95.7 55.674 96.175 55.6323 96.725 55.5823C97.2917 55.5156 97.8583 55.4406 98.425 55.3573C99.0083 55.274 99.55 55.1823 100.05 55.0823C100.55 54.9823 100.942 54.8823 101.225 54.7823L102.225 56.0573C102.075 56.2573 101.9 56.5073 101.7 56.8073C101.517 57.1073 101.325 57.4156 101.125 57.7323C100.925 58.0323 100.75 58.299 100.6 58.5323L99.125 63.2323C98.8583 63.6156 98.525 64.099 98.125 64.6823C97.7417 65.2656 97.3333 65.8823 96.9 66.5323C96.4667 67.1823 96.0417 67.8073 95.625 68.4073C95.2083 69.0073 94.8333 69.5323 94.5 69.9823L92.525 67.2573C92.8417 66.8573 93.2 66.399 93.6 65.8823C94.0167 65.349 94.45 64.7906 94.9 64.2073C95.35 63.6073 95.7917 63.0156 96.225 62.4323C96.6583 61.8323 97.0583 61.274 97.425 60.7573C97.8083 60.224 98.125 59.7656 98.375 59.3823L98.425 58.7323L98.6 58.2573ZM98.3 53.4573C98.3 53.0906 98.3 52.724 98.3 52.3573C98.3 51.974 98.2667 51.5906 98.2 51.2073L101.85 51.3323C101.75 51.7156 101.642 52.274 101.525 53.0073C101.425 53.724 101.317 54.549 101.2 55.4823C101.1 56.4156 101 57.399 100.9 58.4323C100.817 59.449 100.742 60.4656 100.675 61.4823C100.625 62.499 100.6 63.449 100.6 64.3323C100.6 65.0156 100.6 65.7073 100.6 66.4073C100.617 67.1073 100.633 67.824 100.65 68.5573C100.667 69.2906 100.7 70.049 100.75 70.8323C100.767 71.049 100.792 71.349 100.825 71.7323C100.858 72.1323 100.892 72.474 100.925 72.7573L97.475 72.7573C97.5083 72.4573 97.525 72.124 97.525 71.7573C97.5417 71.3906 97.55 71.1073 97.55 70.9073C97.5667 70.0906 97.5833 69.3323 97.6 68.6323C97.6167 67.9323 97.625 67.1906 97.625 66.4073C97.6417 65.624 97.6667 64.7156 97.7 63.6823C97.7167 63.299 97.7417 62.8156 97.775 62.2323C97.8083 61.6323 97.8417 60.9823 97.875 60.2823C97.925 59.5656 97.975 58.8406 98.025 58.1073C98.075 57.374 98.1167 56.6906 98.15 56.0573C98.2 55.4073 98.2333 54.8573 98.25 54.4073C98.2833 53.9406 98.3 53.624 98.3 53.4573ZM122 52.4323C122.35 52.4823 122.725 52.5156 123.125 52.5323C123.525 52.549 123.908 52.5573 124.275 52.5573C124.542 52.5573 124.942 52.5573 125.475 52.5573C126.008 52.5406 126.608 52.524 127.275 52.5073C127.958 52.4906 128.633 52.474 129.3 52.4573C129.967 52.4406 130.567 52.424 131.1 52.4073C131.65 52.374 132.075 52.349 132.375 52.3323C132.892 52.2823 133.3 52.2406 133.6 52.2073C133.9 52.1573 134.125 52.1073 134.275 52.0573L135.9 54.2823C135.617 54.4656 135.325 54.649 135.025 54.8323C134.725 55.0156 134.433 55.2156 134.15 55.4323C133.817 55.6656 133.417 55.974 132.95 56.3573C132.483 56.724 131.983 57.1156 131.45 57.5323C130.933 57.949 130.425 58.3573 129.925 58.7573C129.442 59.1573 129 59.5156 128.6 59.8323C129.017 59.7323 129.417 59.6656 129.8 59.6323C130.183 59.5823 130.575 59.5573 130.975 59.5573C132.392 59.5573 133.658 59.8323 134.775 60.3823C135.908 60.9323 136.8 61.6823 137.45 62.6323C138.117 63.5656 138.45 64.6406 138.45 65.8573C138.45 67.174 138.117 68.3656 137.45 69.4323C136.783 70.499 135.775 71.349 134.425 71.9823C133.092 72.6156 131.417 72.9323 129.4 72.9323C128.25 72.9323 127.208 72.7656 126.275 72.4323C125.358 72.099 124.633 71.624 124.1 71.0073C123.567 70.3906 123.3 69.6656 123.3 68.8323C123.3 68.149 123.483 67.5156 123.85 66.9323C124.233 66.3323 124.758 65.849 125.425 65.4823C126.108 65.1156 126.892 64.9323 127.775 64.9323C128.925 64.9323 129.892 65.1656 130.675 65.6323C131.475 66.0823 132.083 66.6906 132.5 67.4573C132.933 68.224 133.158 69.0656 133.175 69.9823L130.25 70.3823C130.233 69.4656 130 68.7323 129.55 68.1823C129.117 67.6156 128.533 67.3323 127.8 67.3323C127.333 67.3323 126.958 67.4573 126.675 67.7073C126.392 67.9406 126.25 68.2156 126.25 68.5323C126.25 68.999 126.483 69.374 126.95 69.6573C127.417 69.9406 128.025 70.0823 128.775 70.0823C130.192 70.0823 131.375 69.9156 132.325 69.5823C133.275 69.2323 133.983 68.7406 134.45 68.1073C134.933 67.4573 135.175 66.6906 135.175 65.8073C135.175 65.0573 134.942 64.399 134.475 63.8323C134.025 63.2656 133.408 62.824 132.625 62.5073C131.842 62.1906 130.958 62.0323 129.975 62.0323C129.008 62.0323 128.125 62.1573 127.325 62.4073C126.525 62.6406 125.767 62.9823 125.05 63.4323C124.35 63.8656 123.658 64.399 122.975 65.0323C122.308 65.649 121.642 66.3406 120.975 67.1073L118.7 64.7573C119.15 64.3906 119.658 63.9823 120.225 63.5323C120.792 63.0656 121.367 62.5823 121.95 62.0823C122.55 61.5823 123.108 61.1156 123.625 60.6823C124.158 60.2323 124.608 59.8573 124.975 59.5573C125.325 59.274 125.733 58.9406 126.2 58.5573C126.667 58.174 127.15 57.7823 127.65 57.3823C128.15 56.9656 128.625 56.574 129.075 56.2073C129.525 55.824 129.9 55.499 130.2 55.2323C129.95 55.2323 129.625 55.2406 129.225 55.2573C128.825 55.274 128.383 55.2906 127.9 55.3073C127.433 55.324 126.958 55.3406 126.475 55.3573C126.008 55.374 125.567 55.399 125.15 55.4323C124.75 55.449 124.417 55.4656 124.15 55.4823C123.817 55.499 123.467 55.524 123.1 55.5573C122.733 55.5906 122.4 55.6323 122.1 55.6823L122 52.4323ZM54.1485 78.6923L55.7605 78.6923L55.7605 89.6383L54.1485 89.6383L54.1485 78.6923ZM50.6905 82.3713L59.0625 82.3713L59.0625 83.8923L50.6905 83.8923L50.6905 82.3713ZM51.0285 88.6503L58.8285 88.6503L58.8285 90.1583L51.0285 90.1583L51.0285 88.6503ZM48.6105 82.2543L50.1315 80.7333L50.1445 80.7593L50.1445 90.6263L48.6105 90.6263L48.6105 82.2543ZM49.9755 78.4583L51.4835 78.9393C51.1801 79.702 50.8205 80.4603 50.4045 81.2143C49.9885 81.9596 49.5378 82.6703 49.0525 83.3463C48.5671 84.0136 48.0688 84.5943 47.5575 85.0883C47.5055 84.9583 47.4275 84.7936 47.3235 84.5943C47.2195 84.395 47.1068 84.1956 46.9855 83.9963C46.8641 83.7883 46.7558 83.6193 46.6605 83.4893C47.1025 83.082 47.5271 82.614 47.9345 82.0853C48.3505 81.548 48.7318 80.9716 49.0785 80.3563C49.4338 79.7323 49.7328 79.0996 49.9755 78.4583ZM65.0945 78.4323L66.6805 78.4323L66.6805 89.1573C66.6805 89.5386 66.6285 89.8246 66.5245 90.0153C66.4205 90.206 66.2428 90.3576 65.9915 90.4703C65.7401 90.5656 65.4281 90.6263 65.0555 90.6523C64.6915 90.6783 64.2321 90.6913 63.6775 90.6913C63.6428 90.5093 63.5735 90.297 63.4695 90.0543C63.3655 89.8203 63.2615 89.621 63.1575 89.4563C63.3741 89.465 63.5908 89.4736 63.8075 89.4823C64.0241 89.4823 64.2191 89.4823 64.3925 89.4823C64.5745 89.4823 64.7001 89.4823 64.7695 89.4823C64.8908 89.4736 64.9731 89.4476 65.0165 89.4043C65.0685 89.361 65.0945 89.2786 65.0945 89.1573L65.0945 78.4323ZM60.2325 79.2903L71.6725 79.2903L71.6725 80.5123L60.2325 80.5123L60.2325 79.2903ZM63.0535 82.0333L63.0535 82.6443L68.7865 82.6443L68.7865 82.0333L63.0535 82.0333ZM61.5585 81.0453L70.3855 81.0453L70.3855 83.6323L61.5585 83.6323L61.5585 81.0453ZM61.2465 84.2173L70.6065 84.2173L70.6065 89.3003L69.0205 89.3003L69.0205 85.2703L61.2465 85.2703L61.2465 84.2173ZM59.9335 85.8293L71.9715 85.8293L71.9715 87.0123L59.9335 87.0123L59.9335 85.8293ZM61.1425 87.6103L69.8785 87.6103L69.8785 88.7413L61.1425 88.7413L61.1425 87.6103ZM78.3545 79.3033C78.3198 79.468 78.2808 79.65 78.2375 79.8493C78.1941 80.04 78.1551 80.2176 78.1205 80.3823C78.0858 80.573 78.0425 80.7896 77.9905 81.0323C77.9385 81.2663 77.8865 81.5046 77.8345 81.7473C77.7911 81.9813 77.7435 82.211 77.6915 82.4363C77.6048 82.809 77.4965 83.2423 77.3665 83.7363C77.2365 84.2303 77.0848 84.7633 76.9115 85.3353C76.7381 85.8986 76.5431 86.4663 76.3265 87.0383C76.1098 87.6103 75.8801 88.1693 75.6375 88.7153C75.3948 89.2526 75.1348 89.738 74.8575 90.1713L73.1675 89.4953C73.4708 89.088 73.7525 88.633 74.0125 88.1303C74.2811 87.619 74.5238 87.099 74.7405 86.5703C74.9571 86.033 75.1478 85.5043 75.3125 84.9843C75.4858 84.4556 75.6331 83.966 75.7545 83.5153C75.8845 83.0646 75.9841 82.679 76.0535 82.3583C76.1748 81.769 76.2701 81.2013 76.3395 80.6553C76.4088 80.1093 76.4348 79.5936 76.4175 79.1083L78.3545 79.3033ZM82.8265 80.6163C83.0345 80.9023 83.2468 81.2533 83.4635 81.6693C83.6888 82.0766 83.9098 82.51 84.1265 82.9693C84.3431 83.4286 84.5381 83.8706 84.7115 84.2953C84.8848 84.72 85.0191 85.0883 85.1145 85.4003L83.4635 86.1543C83.3855 85.7903 83.2685 85.3873 83.1125 84.9453C82.9651 84.5033 82.7918 84.057 82.5925 83.6063C82.3931 83.147 82.1808 82.7136 81.9555 82.3063C81.7388 81.899 81.5135 81.5566 81.2795 81.2793L82.8265 80.6163ZM73.0765 81.9683C73.3105 81.9856 73.5401 81.9943 73.7655 81.9943C73.9995 81.9856 74.2335 81.977 74.4675 81.9683C74.6841 81.9596 74.9441 81.9466 75.2475 81.9293C75.5508 81.9033 75.8715 81.8773 76.2095 81.8513C76.5561 81.8253 76.9028 81.7993 77.2495 81.7733C77.5961 81.7386 77.9168 81.7126 78.2115 81.6953C78.5061 81.678 78.7488 81.6693 78.9395 81.6693C79.4075 81.6693 79.8148 81.7473 80.1615 81.9033C80.5081 82.0506 80.7811 82.3063 80.9805 82.6703C81.1885 83.0343 81.2925 83.5283 81.2925 84.1523C81.2925 84.6636 81.2708 85.2183 81.2275 85.8163C81.1841 86.4143 81.1061 86.9863 80.9935 87.5323C80.8895 88.0783 80.7421 88.542 80.5515 88.9233C80.3435 89.374 80.0575 89.686 79.6935 89.8593C79.3381 90.0326 78.9135 90.1193 78.4195 90.1193C78.1768 90.1193 77.9125 90.0976 77.6265 90.0543C77.3405 90.0196 77.0848 89.9806 76.8595 89.9373L76.5865 88.2213C76.7511 88.2646 76.9331 88.308 77.1325 88.3513C77.3405 88.3946 77.5355 88.4293 77.7175 88.4553C77.9081 88.4813 78.0598 88.4943 78.1725 88.4943C78.3891 88.4943 78.5798 88.4553 78.7445 88.3773C78.9091 88.2906 79.0435 88.1433 79.1475 87.9353C79.2688 87.684 79.3685 87.359 79.4465 86.9603C79.5245 86.5616 79.5808 86.1326 79.6155 85.6733C79.6588 85.2053 79.6805 84.759 79.6805 84.3343C79.6805 83.9876 79.6285 83.732 79.5245 83.5673C79.4291 83.4026 79.2861 83.2943 79.0955 83.2423C78.9135 83.1816 78.6881 83.1513 78.4195 83.1513C78.2201 83.1513 77.9515 83.1686 77.6135 83.2033C77.2755 83.2293 76.9115 83.264 76.5215 83.3073C76.1401 83.342 75.7848 83.381 75.4555 83.4243C75.1261 83.4676 74.8705 83.498 74.6885 83.5153C74.4978 83.55 74.2551 83.589 73.9605 83.6323C73.6745 83.667 73.4318 83.7016 73.2325 83.7363L73.0765 81.9683ZM82.5925 78.8093C82.7051 78.9653 82.8221 79.1516 82.9435 79.3683C83.0735 79.585 83.1991 79.8016 83.3205 80.0183C83.4418 80.235 83.5458 80.4256 83.6325 80.5903L82.5795 81.0453C82.4928 80.8633 82.3931 80.664 82.2805 80.4473C82.1678 80.2306 82.0508 80.014 81.9295 79.7973C81.8081 79.5806 81.6868 79.3943 81.5655 79.2383L82.5925 78.8093ZM84.1395 78.2243C84.2521 78.389 84.3735 78.5796 84.5035 78.7963C84.6335 79.013 84.7591 79.2296 84.8805 79.4463C85.0105 79.663 85.1101 79.845 85.1795 79.9923L84.1525 80.4343C84.0138 80.1656 83.8491 79.8623 83.6585 79.5243C83.4678 79.1776 83.2815 78.883 83.0995 78.6403L84.1395 78.2243ZM88.5725 81.6693L89.6125 80.7983C89.8811 80.9196 90.1628 81.0626 90.4575 81.2273C90.7521 81.392 91.0295 81.561 91.2895 81.7343C91.5581 81.9076 91.7748 82.0723 91.9395 82.2283L90.8475 83.1903C90.6915 83.0343 90.4835 82.8653 90.2235 82.6833C89.9635 82.5013 89.6905 82.3193 89.4045 82.1373C89.1185 81.9553 88.8411 81.7993 88.5725 81.6693ZM94.4355 79.4203L94.7215 79.4203L94.9815 79.3423L95.9825 79.9403C95.5665 80.7203 95.0335 81.418 94.3835 82.0333C93.7335 82.64 93.0011 83.1686 92.1865 83.6193C91.3805 84.07 90.5225 84.4556 89.6125 84.7763C88.7025 85.0883 87.7795 85.3396 86.8435 85.5303C86.7741 85.331 86.6701 85.1013 86.5315 84.8413C86.4015 84.5726 86.2671 84.356 86.1285 84.1913C87.0038 84.0526 87.8661 83.8533 88.7155 83.5933C89.5648 83.3246 90.3621 82.9996 91.1075 82.6183C91.8528 82.237 92.5115 81.7993 93.0835 81.3053C93.6555 80.8026 94.1061 80.248 94.4355 79.6413L94.4355 79.4203ZM90.3145 79.4203L94.7865 79.4203L94.7865 80.6943L90.3145 80.6943L90.3145 79.4203ZM91.0425 78.3933L92.7455 78.7573C92.0781 79.5113 91.2981 80.196 90.4055 80.8113C89.5215 81.4266 88.4771 81.977 87.2725 82.4623C87.1945 82.341 87.0948 82.2066 86.9735 82.0593C86.8608 81.912 86.7351 81.769 86.5965 81.6303C86.4665 81.4916 86.3451 81.3833 86.2325 81.3053C86.9951 81.0626 87.6841 80.781 88.2995 80.4603C88.9148 80.1396 89.4521 79.806 89.9115 79.4593C90.3708 79.104 90.7478 78.7486 91.0425 78.3933ZM90.3405 86.5963L91.4715 85.7123C91.7401 85.8596 92.0218 86.0243 92.3165 86.2063C92.6111 86.3883 92.8928 86.579 93.1615 86.7783C93.4301 86.969 93.6468 87.1466 93.8115 87.3113L92.6025 88.2733C92.4551 88.1086 92.2515 87.9266 91.9915 87.7273C91.7401 87.528 91.4671 87.3286 91.1725 87.1293C90.8865 86.93 90.6091 86.7523 90.3405 86.5963ZM96.0735 84.1523L96.3855 84.1523L96.6585 84.0873L97.6855 84.6203C97.2868 85.591 96.7625 86.423 96.1125 87.1163C95.4711 87.8096 94.7215 88.3903 93.8635 88.8583C93.0141 89.3263 92.0825 89.7033 91.0685 89.9893C90.0631 90.2753 89.0015 90.4963 87.8835 90.6523C87.8228 90.4443 87.7275 90.2016 87.5975 89.9243C87.4675 89.647 87.3375 89.4173 87.2075 89.2353C88.2388 89.1313 89.2225 88.9623 90.1585 88.7283C91.0945 88.4943 91.9525 88.1866 92.7325 87.8053C93.5125 87.4153 94.1841 86.9386 94.7475 86.3753C95.3195 85.8033 95.7615 85.136 96.0735 84.3733L96.0735 84.1523ZM92.2385 84.1523L96.4895 84.1523L96.4895 85.4523L92.2385 85.4523L92.2385 84.1523ZM93.1485 82.8913L94.8515 83.2813C94.1321 84.1393 93.2568 84.915 92.2255 85.6083C91.2028 86.293 89.9678 86.8953 88.5205 87.4153C88.4685 87.2853 88.3861 87.1466 88.2735 86.9993C88.1608 86.8433 88.0438 86.6916 87.9225 86.5443C87.8011 86.397 87.6841 86.28 87.5715 86.1933C88.4815 85.916 89.2918 85.604 90.0025 85.2573C90.7218 84.902 91.3415 84.525 91.8615 84.1263C92.3901 83.719 92.8191 83.3073 93.1485 82.8913ZM101.624 79.5373C101.832 79.546 102.036 79.5546 102.235 79.5633C102.435 79.572 102.643 79.5763 102.859 79.5763C102.981 79.5763 103.158 79.572 103.392 79.5633C103.626 79.5546 103.895 79.546 104.198 79.5373C104.51 79.52 104.822 79.5026 105.134 79.4853C105.455 79.468 105.745 79.4506 106.005 79.4333C106.274 79.416 106.491 79.3986 106.655 79.3813C106.872 79.3553 107.054 79.3293 107.201 79.3033C107.349 79.2773 107.466 79.247 107.552 79.2123L108.579 80.4083C108.441 80.495 108.267 80.612 108.059 80.7593C107.86 80.898 107.691 81.0193 107.552 81.1233C107.37 81.2706 107.175 81.431 106.967 81.6043C106.759 81.7776 106.543 81.9553 106.317 82.1373C106.101 82.3106 105.884 82.4883 105.667 82.6703C105.451 82.8436 105.238 83.017 105.03 83.1903C104.831 83.355 104.64 83.5023 104.458 83.6323C105.039 83.5716 105.65 83.5196 106.291 83.4763C106.941 83.4243 107.578 83.3853 108.202 83.3593C108.835 83.3333 109.416 83.3203 109.944 83.3203L109.944 84.8543C109.329 84.8196 108.718 84.8023 108.111 84.8023C107.505 84.8023 107.002 84.8326 106.603 84.8933C106.3 84.928 106.018 85.006 105.758 85.1273C105.498 85.2486 105.264 85.4046 105.056 85.5953C104.857 85.7773 104.701 85.9853 104.588 86.2193C104.476 86.4446 104.419 86.6916 104.419 86.9603C104.419 87.2983 104.502 87.5756 104.666 87.7923C104.831 88.009 105.061 88.1736 105.355 88.2863C105.659 88.399 106.001 88.477 106.382 88.5203C106.755 88.5636 107.119 88.5853 107.474 88.5853C107.83 88.5853 108.129 88.5766 108.371 88.5593L108.02 90.2623C106.356 90.3316 105.061 90.115 104.133 89.6123C103.215 89.1096 102.755 88.3166 102.755 87.2333C102.755 86.9646 102.799 86.7046 102.885 86.4533C102.981 86.1933 103.098 85.955 103.236 85.7383C103.384 85.5216 103.54 85.3353 103.704 85.1793C103.106 85.2226 102.461 85.292 101.767 85.3873C101.083 85.4826 100.411 85.5866 99.7525 85.6993L99.5965 84.1263C99.9431 84.0916 100.324 84.0483 100.74 83.9963C101.156 83.9443 101.538 83.901 101.884 83.8663C102.17 83.6756 102.482 83.4503 102.82 83.1903C103.158 82.9303 103.496 82.6616 103.834 82.3843C104.172 82.0983 104.489 81.8296 104.783 81.5783C105.087 81.3183 105.338 81.0973 105.537 80.9153C105.433 80.924 105.29 80.9326 105.108 80.9413C104.935 80.95 104.74 80.963 104.523 80.9803C104.315 80.989 104.103 81.002 103.886 81.0193C103.67 81.028 103.47 81.041 103.288 81.0583C103.115 81.067 102.976 81.0756 102.872 81.0843C102.708 81.093 102.521 81.1103 102.313 81.1363C102.114 81.1536 101.91 81.1753 101.702 81.2013L101.624 79.5373ZM120.344 85.2313C120.344 84.9453 120.271 84.6853 120.123 84.4513C119.985 84.2173 119.772 84.031 119.486 83.8923C119.209 83.745 118.862 83.6713 118.446 83.6713C117.978 83.6713 117.523 83.7103 117.081 83.7883C116.648 83.8663 116.258 83.9573 115.911 84.0613C115.573 84.1566 115.292 84.239 115.066 84.3083C114.876 84.3603 114.663 84.434 114.429 84.5293C114.204 84.616 113.996 84.694 113.805 84.7633L113.311 82.9043C113.537 82.887 113.779 82.8566 114.039 82.8133C114.299 82.77 114.533 82.7266 114.741 82.6833C115.062 82.6053 115.426 82.523 115.833 82.4363C116.249 82.341 116.7 82.2586 117.185 82.1893C117.671 82.12 118.165 82.0853 118.667 82.0853C119.361 82.0853 119.967 82.2153 120.487 82.4753C121.016 82.7266 121.428 83.0906 121.722 83.5673C122.017 84.044 122.164 84.6203 122.164 85.2963C122.164 85.9896 122.013 86.618 121.709 87.1813C121.406 87.7446 120.977 88.2386 120.422 88.6633C119.868 89.0793 119.213 89.426 118.459 89.7033C117.705 89.9806 116.878 90.18 115.976 90.3013L115.04 88.6893C115.846 88.594 116.574 88.4553 117.224 88.2733C117.883 88.0913 118.442 87.8616 118.901 87.5843C119.369 87.2983 119.725 86.9646 119.967 86.5833C120.219 86.1933 120.344 85.7426 120.344 85.2313ZM115.235 78.9913C115.608 79.0693 116.054 79.143 116.574 79.2123C117.103 79.2816 117.645 79.3423 118.199 79.3943C118.763 79.4463 119.296 79.4896 119.798 79.5243C120.31 79.5503 120.734 79.5676 121.072 79.5763L120.812 81.1753C120.431 81.1493 119.985 81.1146 119.473 81.0713C118.962 81.028 118.433 80.9803 117.887 80.9283C117.341 80.8676 116.813 80.807 116.301 80.7463C115.799 80.677 115.357 80.612 114.975 80.5513L115.235 78.9913ZM125.05 88.5723C125.05 88.1736 125.163 87.8963 125.388 87.7403C125.614 87.5756 125.887 87.4933 126.207 87.4933C126.511 87.4933 126.775 87.5756 127 87.7403C127.226 87.8963 127.338 88.1736 127.338 88.5723C127.338 88.9536 127.226 89.231 127 89.4043C126.775 89.569 126.511 89.6513 126.207 89.6513C125.887 89.6513 125.614 89.569 125.388 89.4043C125.163 89.231 125.05 88.9536 125.05 88.5723ZM128.755 88.5723C128.755 88.1736 128.868 87.8963 129.093 87.7403C129.319 87.5756 129.592 87.4933 129.912 87.4933C130.216 87.4933 130.48 87.5756 130.705 87.7403C130.931 87.8963 131.043 88.1736 131.043 88.5723C131.043 88.9536 130.931 89.231 130.705 89.4043C130.48 89.569 130.216 89.6513 129.912 89.6513C129.592 89.6513 129.319 89.569 129.093 89.4043C128.868 89.231 128.755 88.9536 128.755 88.5723ZM132.46 88.5723C132.46 88.1736 132.573 87.8963 132.798 87.7403C133.024 87.5756 133.297 87.4933 133.617 87.4933C133.921 87.4933 134.185 87.5756 134.41 87.7403C134.636 87.8963 134.748 88.1736 134.748 88.5723C134.748 88.9536 134.636 89.231 134.41 89.4043C134.185 89.569 133.921 89.6513 133.617 89.6513C133.297 89.6513 133.024 89.569 132.798 89.4043C132.573 89.231 132.46 88.9536 132.46 88.5723Z" fill="black"/>
</g>
<defs>
<clipPath id="clip0_1244_4565">
<rect width="193" height="152.794" fill="white"/>
</clipPath>
</defs>
</svg>
