<?xml version="1.0" encoding="UTF-8"?>
<svg id="_レイヤー_1" data-name="レイヤー_1" xmlns="http://www.w3.org/2000/svg" xmlns:xlink="http://www.w3.org/1999/xlink" version="1.1" viewBox="0 0 217.68 180.01">
  <!-- Generator: Adobe Illustrator 29.5.1, SVG Export Plug-In . SVG Version: 2.1.0 Build 141)  -->
  <defs>
    <style>
      .st0 {
        fill: none;
      }

      .st1 {
        fill: #231815;
      }

      .st2 {
        fill: #fff;
      }

      .st3 {
        clip-path: url(#clippath);
      }
    </style>
    <clipPath id="clippath">
      <rect class="st0" x="5.79" y="7.34" width="206.11" height="165.33" transform="translate(-6.31 8.23) rotate(-4.21)"/>
    </clipPath>
  </defs>
  <g class="st3">
    <g>
      <path class="st2" d="M18.86,75.42c3.09-3.52,3.84-9.78,1.65-13.92,0,0-.72-1.38-1.1-6.57-1.26-17.09,13.36-32.1,32.65-33.52,6.05-.44,8.76.29,8.76.29,4.52,1.23,11.24-.1,14.94-2.97,0,0,13.13-10.15,29.4-11.35,16.27-1.2,31.43,7.43,31.43,7.43,4.03,2.37,10.35,3.42,14.03,2.33l3.63-.27c19.87-1.46,37.12,12.78,38.52,31.82.44,6.01-.5,8.84-.5,8.84-1.49,4.44.3,10.44,3.99,13.33,0,0,13.37,10.5,14.34,23.66,1.39,18.9-13.21,35.38-32.63,36.81-7.38.54-12.42-1.44-12.42-1.44-4.35-1.71-10.75-.53-14.2,2.63,0,0-7.74,7.08-18.14,7.84l-3.89.29c-4.01-.72-10.12,1.28-13.57,4.44,0,0-11.07,10.13-23.95,11.08-18.29,1.35-34.15-17.73-34.15-17.73-2.99-3.6-6.02-6.48-6.73-6.41l-.65.05c-21.26,1.56-39.66-12.92-41.09-32.34-.91-12.31,9.64-24.32,9.64-24.32h.03Z"/>
      <path class="st2" d="M18.86,75.42c3.09-3.52,3.84-9.78,1.65-13.92,0,0-.72-1.38-1.1-6.57-1.26-17.09,13.36-32.1,32.65-33.52,6.05-.44,8.76.29,8.76.29,4.52,1.23,11.24-.1,14.94-2.97,0,0,13.13-10.15,29.4-11.35,16.27-1.2,31.43,7.43,31.43,7.43,4.03,2.37,10.35,3.42,14.03,2.33l3.63-.27c19.87-1.46,37.12,12.78,38.52,31.82.44,6.01-.5,8.84-.5,8.84-1.49,4.44.3,10.44,3.99,13.33,0,0,13.37,10.5,14.34,23.66,1.39,18.9-13.21,35.38-32.63,36.81-7.38.54-12.42-1.44-12.42-1.44-4.35-1.71-10.75-.53-14.2,2.63,0,0-7.74,7.08-18.14,7.84l-3.89.29c-4.01-.72-10.12,1.28-13.57,4.44,0,0-11.07,10.13-23.95,11.08-18.29,1.35-34.15-17.73-34.15-17.73-2.99-3.6-6.02-6.48-6.73-6.41l-.65.05c-21.26,1.56-39.66-12.92-41.09-32.34-.91-12.31,9.64-24.32,9.64-24.32h.03Z"/>
      <path class="st1" d="M124.34,171.75s.08,0,.11,0c.67-.11,1.14-.73,1.08-1.4-.29-2.84-1.26-5.89-2.3-9.11-.18-.6-.38-1.2-.58-1.8-2.35-7.32-4.31-14.73,1.56-19.82,3.29-2.85,6.9-2.25,11.07-1.55,2.74.46,5.56.93,8.49.41,4.42-.78,7.04-3.28,9.57-5.7,1.83-1.74,3.55-3.39,5.95-4.47,5.33-2.39,11.24-.94,17.48.61,4.38,1.08,8.89,2.2,13.26,1.88,14.07-.96,23.33-12.46,23.03-28.51-.17-9.15-4.91-14.99-9.49-20.63-2.53-3.11-5.14-6.33-7.02-10.12-.91-1.83-1.37-5.03-1.81-8.12-.71-4.93-1.32-9.19-3.68-10.69-.6-.39-1.39-.21-1.78.4-.38.6-.21,1.39.4,1.78,1.36.86,2,5.31,2.51,8.88.48,3.3.97,6.7,2.05,8.91,2,4.05,4.71,7.38,7.32,10.59,4.51,5.55,8.77,10.79,8.92,19.05.23,12.12-6.05,24.83-20.57,25.9h-.07c-3.96.29-8.09-.74-12.45-1.81-6.39-1.58-13.01-3.21-19.15-.45-2.8,1.26-4.77,3.13-6.67,4.95-2.36,2.25-4.59,4.38-8.24,5.02-2.48.44-5.09,0-7.61-.41-4.41-.73-8.97-1.5-13.19,2.15-3.96,3.43-5.01,7.61-4.73,11.99-1.25-1.64-2.68-3.01-4.34-3.96-2.79-1.59-5.92-1.84-9.33-.73-3.6,1.16-6.67,2.95-9.65,4.69-6.36,3.7-11.85,6.91-20.82,3.29-5.44-2.18-8.51-6.73-11.76-11.52-4.31-6.35-8.75-12.92-18.89-12.95h-1.56c-11-.02-19.69-.03-26.61-10.1-5.9-8.6-7.55-19.5-4.41-29.15,1.57-4.82,3.58-8.37,5.53-11.81,3.58-6.32,6.68-11.77,5.51-22.42-.08-.71-.69-1.22-1.42-1.14-.71.08-1.22.71-1.14,1.42,1.07,9.81-1.69,14.69-5.19,20.86-1.91,3.38-4.08,7.21-5.73,12.29-3.38,10.42-1.61,22.16,4.74,31.41,7.68,11.19,17.44,11.2,28.73,11.22h1.56c8.78.03,12.67,5.76,16.77,11.82,3.32,4.91,6.77,9.99,12.94,12.47,10.14,4.08,16.71.24,23.08-3.46,2.86-1.66,5.81-3.39,9.14-4.47,2.73-.88,5.11-.71,7.26.52,6.56,3.75,9.43,16.64,10.81,22.83.14.63.72,1.05,1.35,1h0Z"/>
      <path d="M56.88,59.76h3.05v20.63c0,.73-.1,1.28-.3,1.65s-.54.66-1.03.88c-.48.18-1.08.3-1.8.35-.7.05-1.58.07-2.65.07-.07-.35-.2-.76-.4-1.22-.2-.45-.4-.83-.6-1.15.42.02.83.03,1.25.05h1.85c.23-.02.39-.07.47-.15.1-.08.15-.24.15-.47v-20.63ZM47.53,61.41h22v2.35h-22v-2.35ZM52.95,66.68v1.18h11.02v-1.18h-11.02ZM50.08,64.78h16.98v4.98h-16.98v-4.98ZM49.47,70.88h18v9.77h-3.05v-7.75h-14.95v-2.02ZM46.95,73.98h23.15v2.28h-23.15v-2.28ZM49.28,77.41h16.8v2.18h-16.8v-2.18ZM84.95,64.23h10.3v2.82h-10.3v-2.82ZM71.78,64.36h11.45v2.8h-11.45v-2.8ZM85.47,59.76l3.05.47c-.3,1.63-.68,3.21-1.15,4.73-.45,1.52-.99,2.92-1.62,4.2-.62,1.28-1.32,2.41-2.1,3.38-.17-.18-.4-.4-.7-.65-.3-.27-.62-.52-.95-.75-.32-.25-.59-.45-.82-.6.75-.82,1.4-1.79,1.95-2.92.57-1.13,1.04-2.37,1.43-3.7.4-1.35.71-2.73.92-4.15ZM90.78,66.03l2.97.33c-.42,2.85-1.05,5.36-1.9,7.53-.85,2.15-2,3.99-3.45,5.52-1.43,1.52-3.26,2.79-5.47,3.83-.08-.25-.23-.54-.43-.88-.18-.33-.39-.67-.62-1-.22-.33-.42-.6-.6-.8,2.02-.8,3.67-1.86,4.95-3.17,1.3-1.32,2.31-2.91,3.03-4.78.72-1.88,1.22-4.08,1.53-6.58ZM86.57,66.43c.38,2.18.93,4.22,1.65,6.1.73,1.87,1.69,3.49,2.88,4.88,1.2,1.38,2.68,2.47,4.43,3.25-.22.2-.46.45-.72.75-.25.3-.5.61-.75.93-.23.33-.43.64-.58.93-1.88-.97-3.45-2.23-4.7-3.8-1.25-1.58-2.27-3.43-3.05-5.53-.77-2.12-1.39-4.46-1.88-7.03l2.72-.47ZM76.12,59.76h3v12.65h-3v-12.65ZM72.8,71.03h2.77v11.12h-2.77v-11.12ZM74.53,71.03h7.9v9.65h-7.9v-2.8h5.05v-4.08h-5.05v-2.78ZM102.84,72.74c-.15-.16-.33-.36-.56-.57-.22-.23-.46-.44-.69-.65-.23-.22-.44-.39-.61-.51l1.2-.83c.16.11.36.27.6.48.23.2.47.41.7.62.24.21.44.39.58.56l-1.22.9ZM99.3,71.35c.04.08.1.18.16.31.06.13.13.26.19.39.07.12.13.23.17.31.27.5.54,1.06.82,1.66.28.6.53,1.17.77,1.72.15.36.32.78.51,1.27.2.49.39,1.01.58,1.55s.37,1.05.53,1.55c.17.49.31.92.42,1.29l-1.78.47c-.13-.55-.29-1.14-.48-1.78-.19-.64-.39-1.27-.61-1.9-.22-.63-.43-1.21-.65-1.73-.17-.41-.35-.81-.52-1.2-.16-.39-.33-.76-.51-1.12-.16-.36-.34-.7-.52-1-.09-.16-.2-.36-.35-.57-.14-.22-.28-.41-.42-.57l1.69-.65ZM96.49,75.16c.26-.06.51-.13.75-.22.25-.09.43-.15.53-.19.48-.19.96-.39,1.44-.61.49-.22.99-.43,1.48-.65.5-.23.99-.42,1.47-.6.49-.18.96-.33,1.42-.43.47-.11.91-.17,1.31-.17.68,0,1.25.12,1.73.36.49.24.85.57,1.1.99.26.42.39.88.39,1.38,0,.61-.13,1.14-.39,1.59-.26.44-.63.78-1.12,1.03s-1.06.36-1.73.36c-.35,0-.71-.04-1.08-.12-.36-.08-.67-.16-.92-.25l.04-1.64c.29.13.6.24.91.33.31.08.61.12.9.12.32,0,.61-.06.86-.17.26-.12.46-.29.61-.51.15-.22.22-.48.22-.79,0-.22-.07-.42-.19-.6-.12-.18-.3-.32-.53-.43-.22-.11-.5-.17-.83-.17-.42,0-.91.08-1.44.25-.53.16-1.09.36-1.68.61-.59.25-1.17.52-1.73.81-.56.28-1.08.54-1.56.79-.48.24-.88.44-1.2.58l-.77-1.65ZM120.22,61.43c-.15.32-.3.67-.45,1.05-.15.38-.28.71-.38.98-.15.42-.33.88-.55,1.4-.2.52-.42,1.04-.65,1.57-.22.52-.44.99-.67,1.43-.32.63-.72,1.32-1.2,2.05-.47.72-.97,1.41-1.5,2.08-.53.65-1.08,1.22-1.65,1.7l-3.12-1.9c.45-.32.88-.69,1.27-1.12.42-.43.81-.88,1.18-1.35.38-.47.73-.92,1.05-1.38.32-.47.59-.9.82-1.3.33-.57.62-1.16.85-1.78.25-.62.45-1.16.6-1.63.15-.42.27-.85.35-1.3.1-.47.16-.89.17-1.27l3.88.77ZM116.28,65.28h13.2c.33,0,.75,0,1.25-.02.5-.03.95-.08,1.35-.15v3.42c-.47-.05-.95-.07-1.45-.07-.48-.02-.87-.03-1.15-.03h-13.48l.28-3.15ZM126.03,67.08c-.03,1.85-.22,3.55-.58,5.1-.35,1.53-.85,2.93-1.5,4.18-.63,1.25-1.42,2.38-2.35,3.4-.93,1-2,1.88-3.2,2.62l-3.38-2.28c.45-.18.88-.39,1.3-.62.42-.25.78-.5,1.08-.75.72-.55,1.38-1.18,1.97-1.88.62-.72,1.16-1.54,1.62-2.47.48-.95.86-2.03,1.12-3.23.28-1.2.43-2.56.45-4.07h3.45ZM153.23,60.98c.22.3.44.67.67,1.1.25.42.49.83.73,1.25.23.42.43.78.57,1.07l-2,.88c-.27-.52-.57-1.1-.93-1.75-.35-.67-.69-1.24-1.02-1.73l1.98-.83ZM156.18,59.86c.22.32.45.69.7,1.12.27.42.52.83.75,1.25.23.4.43.74.57,1.03l-2,.88c-.25-.53-.56-1.13-.93-1.78-.37-.65-.72-1.21-1.07-1.67l1.98-.83ZM146.8,61.21c-.03.3-.07.67-.1,1.12-.02.45-.03.83-.05,1.12-.07,2.48-.27,4.68-.62,6.6-.35,1.92-.85,3.62-1.5,5.12-.65,1.48-1.47,2.82-2.47,4-1,1.17-2.19,2.23-3.57,3.2l-2.9-2.35c.52-.28,1.07-.63,1.65-1.05.6-.42,1.14-.88,1.62-1.38.82-.82,1.51-1.7,2.07-2.65.57-.97,1.02-2.02,1.35-3.15.35-1.13.61-2.38.78-3.75.17-1.38.25-2.9.25-4.55,0-.18,0-.42-.03-.7-.02-.28-.04-.57-.07-.85-.02-.3-.04-.55-.07-.75h3.68ZM155.3,66.56c-.03.22-.07.46-.12.72-.03.27-.05.47-.05.6-.02.53-.05,1.22-.1,2.05-.03.83-.09,1.73-.17,2.7-.07.95-.16,1.91-.28,2.88-.1.95-.22,1.83-.38,2.65-.15.8-.33,1.46-.55,1.98-.27.62-.66,1.09-1.17,1.42-.5.33-1.18.5-2.05.5-.72,0-1.43-.03-2.15-.07-.72-.05-1.38-.1-2-.15l-.38-3.32c.62.1,1.23.18,1.85.25.62.05,1.17.07,1.65.07.42,0,.73-.07.93-.2.2-.13.37-.36.5-.68.13-.32.26-.75.38-1.3.12-.55.22-1.17.3-1.85.08-.7.15-1.42.2-2.15.07-.73.11-1.44.12-2.12.03-.68.05-1.3.05-1.85h-12.2c-.42,0-.93,0-1.55.03s-1.2.05-1.75.1v-3.3c.53.07,1.1.12,1.7.15.6.02,1.13.03,1.6.03h11.57c.32,0,.63,0,.95-.03.33-.03.64-.08.93-.15l2.18,1.05ZM166.68,72.1c-.09.66-.2,1.36-.34,2.11-.14.75-.32,1.5-.56,2.26-.25.88-.55,1.63-.88,2.26-.34.63-.71,1.12-1.12,1.47-.4.34-.84.51-1.31.51s-.92-.16-1.33-.48c-.4-.33-.72-.78-.96-1.35-.23-.57-.35-1.22-.35-1.95s.15-1.46.46-2.13c.3-.67.72-1.26,1.26-1.77.55-.52,1.18-.93,1.9-1.22.73-.29,1.51-.44,2.35-.44s1.53.13,2.17.39c.65.26,1.21.62,1.66,1.08.46.46.81,1,1.05,1.61.24.62.36,1.28.36,1.99,0,.91-.19,1.72-.56,2.44s-.93,1.31-1.66,1.78c-.73.47-1.64.79-2.73.96l-.98-1.55c.25-.03.47-.06.66-.09.19-.03.37-.07.55-.12.42-.1.8-.25,1.16-.44.36-.2.68-.44.95-.73.27-.29.48-.64.62-1.03.16-.39.23-.82.23-1.29,0-.51-.08-.98-.23-1.4-.16-.42-.39-.79-.69-1.1-.3-.32-.67-.56-1.1-.73-.43-.17-.93-.26-1.5-.26-.69,0-1.3.13-1.83.38-.53.24-.98.56-1.34.95s-.64.81-.83,1.26c-.18.45-.27.88-.27,1.29,0,.43.05.8.16,1.09.1.29.23.5.38.65.16.14.32.21.49.21.18,0,.36-.09.53-.27.18-.19.36-.48.53-.86.17-.38.35-.86.52-1.44.2-.62.37-1.29.51-2,.14-.71.24-1.4.3-2.08l1.77.05ZM74.88,88.92c0,.18-.02.38-.04.6,0,.21-.01.44-.01.7v2.57c0,.69-.03,1.3-.1,1.82-.06.52-.16.97-.29,1.36-.13.39-.29.74-.48,1.04-.18.29-.39.58-.64.85-.29.31-.62.59-.99.85-.37.24-.75.45-1.13.61-.37.17-.72.31-1.04.42l-1.36-1.43c.65-.15,1.24-.35,1.75-.61.53-.27.99-.61,1.38-1.03.23-.25.41-.5.55-.75.14-.25.24-.53.31-.83.08-.31.13-.66.16-1.05.03-.39.05-.84.05-1.34v-2.47c0-.26,0-.49-.03-.7,0-.22-.03-.42-.05-.6h1.96ZM68.85,89.02c0,.16-.02.31-.03.47,0,.15-.01.33-.01.53v4.39c0,.16,0,.36.01.57,0,.22.02.4.03.56h-1.88c0-.12.02-.29.04-.52.02-.23.03-.43.03-.62v-4.38c0-.12,0-.28-.01-.47,0-.2-.02-.38-.04-.53h1.87ZM88.28,90.19c-.05.08-.13.2-.23.36-.1.16-.17.32-.22.46-.18.41-.41.86-.68,1.36-.26.5-.56,1.01-.9,1.52-.33.5-.68.97-1.05,1.42-.49.55-1.02,1.09-1.61,1.62-.58.53-1.2,1.02-1.85,1.47-.64.44-1.3.82-1.98,1.14l-1.34-1.4c.7-.27,1.38-.61,2.04-1.01.66-.41,1.27-.85,1.83-1.33.56-.48,1.05-.94,1.46-1.39.29-.33.55-.68.81-1.05.26-.37.49-.74.69-1.1.2-.37.35-.72.44-1.03h-4.41c-.18,0-.37,0-.57.03-.2,0-.39.02-.57.04-.17,0-.31.02-.4.03v-1.85c.13,0,.29.02.48.04.19.02.38.03.57.04.2,0,.36.01.49.01h4.59c.29,0,.55-.02.78-.05.24-.03.43-.07.56-.12l1.07.79ZM85.37,94.24c.34.27.7.58,1.08.94.38.36.76.72,1.13,1.11.37.38.72.75,1.03,1.11.32.35.59.65.81.91l-1.48,1.29c-.32-.44-.69-.9-1.1-1.38-.41-.48-.84-.95-1.3-1.42-.45-.48-.91-.93-1.38-1.35l1.22-1.2ZM102.13,90.92c-.07.12-.14.27-.22.44-.08.16-.15.33-.21.49-.11.38-.27.82-.48,1.31-.2.49-.45.99-.75,1.52-.29.52-.64,1.02-1.03,1.51-.62.75-1.35,1.42-2.18,2.03-.82.61-1.85,1.15-3.07,1.64l-1.53-1.38c.88-.26,1.65-.56,2.29-.9.64-.34,1.2-.7,1.68-1.08.48-.39.9-.8,1.27-1.24.3-.34.58-.72.83-1.14.25-.43.47-.86.65-1.29s.3-.8.36-1.12h-4.38l.6-1.47h3.72c.2,0,.4-.01.6-.04.21-.03.39-.07.53-.12l1.33.82ZM97.89,88.87c-.16.23-.31.47-.45.73-.15.26-.26.46-.34.6-.29.52-.66,1.06-1.09,1.62-.42.55-.91,1.1-1.46,1.62-.55.52-1.13,1-1.74,1.43l-1.47-1.08c.57-.36,1.07-.72,1.51-1.09.44-.37.82-.74,1.14-1.11.32-.37.59-.73.82-1.07.23-.35.43-.65.6-.92.1-.16.21-.38.32-.64.11-.27.2-.51.26-.73l1.9.62ZM109.35,88.83c-.03.16-.07.35-.12.55-.04.19-.08.37-.12.53-.03.19-.08.41-.13.65-.05.23-.1.47-.16.72-.04.23-.09.46-.14.69-.09.37-.19.81-.33,1.3-.13.49-.28,1.03-.45,1.6-.17.56-.37,1.13-.59,1.7-.22.57-.45,1.13-.69,1.68-.24.54-.5,1.02-.78,1.46l-1.69-.68c.3-.41.58-.86.85-1.36.27-.51.51-1.03.73-1.56.22-.54.41-1.07.57-1.59.17-.53.32-1.02.44-1.47.13-.45.23-.84.3-1.16.12-.59.22-1.16.29-1.7.07-.55.1-1.06.08-1.55l1.94.19ZM113.83,90.14c.21.29.42.64.64,1.05.23.41.45.84.66,1.3.22.46.41.9.58,1.33.17.42.31.79.4,1.11l-1.65.75c-.08-.36-.19-.77-.35-1.21-.15-.44-.32-.89-.52-1.34-.2-.46-.41-.89-.64-1.3-.22-.41-.44-.75-.68-1.03l1.55-.66ZM104.08,91.49c.23.02.46.03.69.03.23,0,.47-.02.7-.03.22,0,.48-.02.78-.04.3-.03.62-.05.96-.08.35-.03.69-.05,1.04-.08.35-.03.67-.06.96-.08.29-.02.54-.03.73-.03.47,0,.88.08,1.22.23.35.15.62.4.82.77.21.36.31.86.31,1.48,0,.51-.02,1.07-.07,1.66-.04.6-.12,1.17-.23,1.72-.1.55-.25,1.01-.44,1.39-.21.45-.49.76-.86.94-.36.17-.78.26-1.27.26-.24,0-.51-.02-.79-.06-.29-.03-.54-.07-.77-.12l-.27-1.72c.17.04.35.09.55.13.21.04.4.08.58.1.19.03.34.04.45.04.22,0,.41-.04.57-.12.16-.09.3-.23.4-.44.12-.25.22-.58.3-.97s.14-.83.17-1.29c.04-.47.07-.91.07-1.34,0-.35-.05-.6-.16-.77-.1-.16-.24-.27-.43-.33-.18-.06-.41-.09-.68-.09-.2,0-.47.02-.81.05-.34.03-.7.06-1.09.1-.38.03-.74.07-1.07.12-.33.04-.58.07-.77.09-.19.03-.43.07-.73.12-.29.03-.53.07-.73.1l-.16-1.77ZM113.59,88.33c.11.16.23.34.35.56.13.22.26.43.38.65.12.22.23.41.31.57l-1.05.46c-.09-.18-.19-.38-.3-.6-.11-.22-.23-.43-.35-.65-.12-.22-.24-.4-.36-.56l1.03-.43ZM115.14,87.75c.11.16.23.36.36.57.13.22.26.43.38.65.13.22.23.4.3.55l-1.03.44c-.14-.27-.3-.57-.49-.91-.19-.35-.38-.64-.56-.88l1.04-.42ZM120.31,91.69h1.62v6.2c0,.32.04.52.12.61.09.08.29.12.6.12h1.78c.21,0,.36-.06.47-.18.11-.13.19-.37.25-.73.05-.36.09-.87.12-1.55.18.14.42.27.7.4.29.12.54.21.75.27-.05.81-.15,1.45-.29,1.92-.14.47-.35.8-.65.99-.29.2-.71.3-1.24.3h-2.11c-.55,0-.99-.07-1.3-.21-.3-.13-.52-.35-.65-.66-.12-.31-.18-.74-.18-1.29v-6.2ZM120.35,89.22l1.01-1.21c.52.18,1.05.4,1.59.66.54.26,1.05.53,1.53.81.49.28.9.55,1.25.81l-1.03,1.37c-.34-.28-.75-.56-1.24-.86-.48-.3-.99-.59-1.53-.87-.54-.28-1.07-.51-1.59-.7ZM117.97,92.61l1.52.31c-.06.6-.14,1.21-.25,1.83-.1.62-.25,1.22-.43,1.78-.18.55-.42,1.04-.72,1.47l-1.46-.84c.26-.37.48-.8.65-1.29.17-.49.32-1.01.43-1.56.11-.55.19-1.12.25-1.7ZM125.45,92.81l1.43-.7c.37.48.72.99,1.04,1.55.32.55.59,1.1.82,1.65.23.55.4,1.04.51,1.49l-1.57.78c-.09-.44-.24-.94-.45-1.5-.22-.56-.48-1.13-.78-1.7-.3-.57-.63-1.1-.99-1.57ZM137.21,92.51h3.63v1.48h-3.63v-1.48ZM136.46,92.51h1.55v5.42c0,.27.04.44.1.51.07.07.23.1.49.1h1.46c.17,0,.29-.05.36-.14.09-.1.15-.3.18-.6.04-.29.08-.73.1-1.3.11.09.25.17.42.26.16.08.33.15.51.22.18.06.34.11.48.14-.05.74-.14,1.31-.27,1.73-.13.42-.32.71-.59.88-.26.17-.61.26-1.07.26h-1.82c-.49,0-.87-.06-1.14-.18-.27-.11-.46-.32-.58-.62-.12-.29-.18-.72-.18-1.26v-5.42ZM136.42,88.55h5.19v6.25h-1.51v-4.74h-3.68v-1.51ZM130.23,90.86h5.46v9.06h-1.24v-7.77h-3.03v7.96h-1.2v-9.24ZM130.87,96.09h4.17v1.08h-4.17v-1.08ZM130.87,98.07h4.17v1.21h-4.17v-1.21ZM129.99,88.44h5.95v1.36h-5.95v-1.36ZM131.74,88.75h1.01v3.12h-1.01v-3.12ZM133.27,88.75h1.04v3.12h-1.04v-3.12ZM131.99,91.86h.73v1.33c0,.24-.02.51-.07.79-.03.28-.11.55-.22.83-.1.27-.26.52-.46.74-.06-.07-.15-.16-.27-.26-.11-.1-.21-.18-.3-.22.17-.19.3-.39.38-.61.09-.22.14-.43.17-.65.03-.23.04-.44.04-.64v-1.31ZM133.16,91.86h.73v2.39c0,.09,0,.14.01.17,0,.02.04.03.08.03h.23c.1,0,.15-.01.17-.04.08.06.18.12.31.17.13.05.25.09.36.12-.04.18-.12.32-.25.4-.11.08-.27.12-.47.12h-.46c-.28,0-.47-.06-.57-.18s-.16-.38-.16-.77v-2.4ZM143.05,98.1c0-.4.11-.68.34-.83.23-.16.5-.25.82-.25s.57.08.79.25c.23.16.34.43.34.83s-.11.66-.34.83c-.23.16-.49.25-.79.25-.32,0-.59-.08-.82-.25-.23-.17-.34-.45-.34-.83ZM146.76,98.1c0-.4.11-.68.34-.83.23-.16.5-.25.82-.25s.57.08.79.25c.23.16.34.43.34.83s-.11.66-.34.83c-.23.16-.49.25-.79.25-.32,0-.59-.08-.82-.25-.23-.17-.34-.45-.34-.83ZM150.46,98.1c0-.4.11-.68.34-.83.23-.16.5-.25.82-.25s.57.08.79.25c.23.16.34.43.34.83s-.11.66-.34.83c-.23.16-.49.25-.79.25-.32,0-.59-.08-.82-.25-.23-.17-.34-.45-.34-.83Z"/>
    </g>
  </g>
</svg>