<svg width="258" height="65" viewBox="0 0 258 65" fill="none" xmlns="http://www.w3.org/2000/svg">
<path d="M40.7544 58.9436L40.6941 59.2756C38.3123 60.0677 36.2998 60.9429 34.8903 63.1534C32.403 61.901 30.0966 60.1055 28.4384 57.9855C25.0993 53.6475 23.9461 48.1854 23.8783 42.3083C21.8733 49.1435 18.1574 55.5637 11.3814 59.4415C7.74838 61.5691 3.95711 62.6932 0.0226168 63.6513L0 63.2741C12.1728 58.5211 17.4715 51.0145 20.9689 39.3434H10.8161C9.24831 39.3434 7.76345 39.3811 6.19569 39.6376L5.75099 38.091C7.74838 38.257 9.72317 38.34 11.7582 38.34H21.2327C21.5719 36.8764 21.9713 35.3373 22.2502 33.753C22.6497 31.5048 22.8381 29.2113 22.612 27.1215L27.5565 28.5776C27.8354 28.6606 28.2424 28.7888 28.1746 29.1585C28.0841 29.6564 27.0515 30.2449 26.6294 30.4938C26.1244 33.1193 25.6194 35.7447 24.9486 38.3324H35.0185L37.8148 35.9107C38.1615 35.6165 38.4178 35.3675 38.5836 35.3675C38.8399 35.3675 39.1263 35.6617 39.3072 35.8277L41.885 38.2495C42.1036 38.4607 42.2392 38.6267 42.1865 38.9134C42.1186 39.2906 41.7719 39.3283 41.4327 39.3283H24.8129C25.2727 50.6297 29.6745 56.3785 40.7318 58.9285" fill="#00396D"/>
<path d="M51.2915 38.506C50.3192 38.506 49.3242 37.6686 49.4976 36.6727C49.7539 35.2091 50.7488 34.6282 52.3919 33.6701C54.5552 32.4177 55.6933 31.2559 56.7485 29.1284H57.0425C57.0048 30.0865 56.8917 30.9617 56.7636 31.9198H68.0997L68.2279 31.1654C68.552 29.3321 68.4917 27.9967 67.9716 26.1635L72.8558 27.4988C73.2176 27.5818 73.6246 27.71 73.5417 28.1627C73.4739 28.5399 73.2251 28.7512 72.1096 29.3321L71.6574 31.9198H81.471L83.589 30.4562C83.9281 30.2072 84.207 30.079 84.3352 30.079C84.4633 30.079 84.7648 30.2902 85.006 30.5769L87.4029 33.2853C87.6139 33.5343 87.6893 33.8285 87.629 34.1605C87.4632 35.1186 86.4079 35.3298 84.4181 35.3298C83.0086 36.122 81.2524 37.2084 79.8731 38.0835L79.6017 37.9553C80.2725 36.288 80.8755 34.5754 81.5087 32.9081H56.5978C56.2812 34.2435 55.942 35.2016 55.0149 36.371C54.0878 37.5403 52.7386 38.4985 51.299 38.4985M59.4846 47.0161C59.3187 47.7252 58.9419 49.1436 56.952 49.1436C56.4847 49.1436 55.2637 48.8946 55.4445 47.8535C55.4822 47.6422 55.5576 47.2273 55.6782 46.7671C55.9119 45.9297 56.3038 44.1794 56.5299 42.8893C56.9445 40.5505 57.359 38.1741 57.3063 35.8429L61.1503 38.0534H74.5592L76.2099 36.5898C76.4586 36.3785 76.6169 36.2125 76.828 36.2125C76.9561 36.2125 77.1069 36.2955 77.431 36.6275L79.353 38.423C79.4962 38.5437 79.6846 38.7173 79.6469 38.921C79.5791 39.2982 78.8706 39.7131 78.0792 40.1281L77.7174 42.1726C77.2953 44.5868 77.3179 45.8844 77.1822 46.6313C76.926 48.0874 75.6974 48.5928 74.3407 48.5928C73.5794 48.5928 73.2854 48.0949 73.4211 47.3405L73.4814 47.0085H68.3635C66.7505 48.97 65.1602 50.5544 63.2155 52.2217H74.4236L76.0064 50.6751C76.3682 50.2978 76.6923 50.1319 76.8204 50.1319C77.1144 50.1319 77.3405 50.2978 77.5516 50.5468L79.255 52.3801C79.5037 52.6291 79.6168 52.961 79.564 53.2552C79.5037 53.5872 79.3454 53.7984 78.0566 54.5906C77.5968 57.216 77.2576 59.8415 76.7978 62.4744C76.6546 63.2666 76.5039 63.6815 75.8104 64.2247C75.3205 64.6019 74.7477 64.7227 74.1974 64.7227C73.4362 64.7227 72.8859 64.2625 73.0518 63.3043L73.1799 62.5951H54.525L54.4722 62.8894C54.3215 63.7645 53.1306 64.7227 51.9472 64.7227C50.6357 64.7227 50.4624 63.7645 50.6659 62.6404C51.0201 60.6412 51.5025 58.5966 51.8568 56.5974C52.4673 53.1345 52.7085 51.7615 52.7386 50.1771L57.0349 52.2217H62.3638C63.1176 50.0942 63.5472 49.3473 64.1276 47.0085H59.477L59.4846 47.0161ZM54.6682 61.6068H73.3683L74.8457 53.2251H56.1078L54.6757 61.6068H54.6682ZM59.6579 46.0127H73.6623L74.8909 39.0492H60.8865L59.6579 46.0127Z" fill="#00396D"/>
<path d="M86.2949 64.1493L86.2195 63.855C89.9731 61.7728 94.4955 58.6419 97.7591 55.7222C99.3118 54.3491 100.307 53.2628 101.339 51.4672L104.724 54.3416C104.867 54.4623 105.055 54.6358 105.018 54.8395C104.912 55.4204 104.211 55.5864 103.02 55.6317C98.2189 59.5925 92.0609 62.6404 86.2949 64.1342M89.762 50.9768L89.355 49.4378C91.3147 49.6037 93.3272 49.6867 95.317 49.6867H99.8847L101.912 38.1816H98.5732C97.0506 38.1816 95.5281 38.1816 93.9603 38.4306L93.5458 36.9292C95.5055 37.0952 97.5179 37.1782 99.5078 37.1782H102.086C102.749 33.4286 103.405 29.6716 102.937 26.8349L108.176 28.0872C108.5 28.1702 108.779 28.2532 108.703 28.6682C108.628 29.0831 108.146 29.4603 106.94 30.0412C106.435 32.4177 106.058 34.7942 105.598 37.1706H113.761C113.889 36.4238 114.032 35.6241 114.175 34.7942C114.658 32.0405 115.103 29.0378 114.658 26.7896L119.919 28.125C120.401 28.2532 120.545 28.4192 120.499 28.6682C120.386 29.3321 119.256 29.7093 118.683 29.8753L117.394 37.1706H119.632L122.451 34.6282C122.904 34.2133 123.054 34.085 123.22 34.085C123.477 34.085 123.582 34.2133 123.899 34.5452L126.62 37.0877C126.868 37.3366 126.966 37.5026 126.929 37.7138C126.861 38.0911 126.507 38.174 126.175 38.174H117.205C116.527 42.0066 115.856 45.8467 115.178 49.6792H119.534L122.376 47.0085C122.828 46.5936 122.889 46.5106 123.137 46.5106C123.303 46.5106 123.537 46.6388 123.823 46.9255L126.484 49.5962C126.665 49.7622 126.838 49.9734 126.8 50.2224C126.733 50.5996 126.378 50.6826 126.084 50.6826H94.3598C92.8373 50.6826 91.3072 50.7203 89.7394 50.9768M111.56 49.6867L113.588 38.1816H105.425C105.04 40.1431 104.701 42.0594 104.354 44.0209C104.023 45.8995 103.683 47.8157 103.352 49.6943H111.56V49.6867ZM117.824 56.6049C119.625 58.1515 121.215 59.9018 120.748 62.5649C120.552 63.6891 119.58 64.3982 118.479 64.3982C117.002 64.3982 116.595 63.3118 116.158 62.1877C114.59 57.895 112.638 55.5185 109.156 52.7196L109.344 52.3876C111.99 52.9685 115.879 54.9301 117.824 56.5974" fill="#00396D"/>
<path d="M159.075 60.5281L161.781 57.9026C162.294 57.4047 162.429 57.3594 162.595 57.3594C162.852 57.3594 163.145 57.6084 163.326 57.7744L166.326 60.4451C166.507 60.611 166.733 60.777 166.681 61.0713C166.613 61.4485 166.258 61.5315 165.964 61.5315H133.984C132.461 61.5315 130.938 61.5315 129.371 61.7804L128.918 60.2791C130.916 60.4451 132.891 60.5281 134.926 60.5281H147.739C150.536 55.9411 156.075 44.1794 156.92 39.3888C156.972 39.0945 156.987 38.7626 157.003 38.4306L161.766 40.9354C161.917 41.0184 162.098 41.2296 162.06 41.4333C161.985 41.8482 161.563 42.0972 160.161 42.6027C157.048 48.276 153.023 55.5261 148.757 60.5356H159.075V60.5281ZM136.388 36.5898L135.943 35.0508C137.941 35.2167 139.915 35.2997 141.951 35.2997H150.279C150.362 35.0508 150.407 34.8018 150.46 34.5076C150.686 33.2175 150.995 30.758 150.958 29.5057C150.935 28.6682 150.731 27.9213 150.581 27.0839L155.676 28.4193C156.038 28.5023 156.392 28.6682 156.317 29.0832C156.279 29.2944 155.985 29.5434 155.691 29.7471C155.299 30.0413 154.975 30.2073 154.628 30.494C154.553 30.9089 154.478 31.1202 154.41 31.4974L153.739 35.2922H161.269L163.462 32.7045C163.733 32.3725 163.892 32.1613 164.193 32.1613C164.449 32.1613 164.698 32.4102 164.879 32.5762L167.871 35.2846C168.015 35.4129 168.203 35.5789 168.165 35.7826C168.09 36.1975 167.781 36.2805 167.404 36.2805H141.008C139.486 36.2805 137.956 36.3182 136.388 36.5747M145.704 54.3115C145.47 55.6469 144.536 57.3519 142.885 57.3519C140.307 57.3519 141.234 53.7683 141.687 49.7245C142.048 46.7219 141.483 42.0067 140.699 39.2605L140.895 39.0945C144.453 41.9312 146.563 49.4378 145.704 54.3115Z" fill="#00396D"/>
<path d="M206.546 32.712L208.754 30.5015C208.958 30.2903 209.312 29.9583 209.485 29.9583C209.696 29.9583 209.99 30.2073 210.171 30.3732L212.568 32.6215C212.749 32.7874 212.922 32.9987 212.885 33.2476C212.809 33.6626 212.462 33.7078 212.168 33.7078H187.084L187.009 34.1228C186.361 37.7893 185.712 41.4635 184.808 45.1753C183.941 48.6381 182.6 52.4329 180.64 55.8505C178.62 59.3964 175.53 62.316 171.889 64.2323L171.67 64.0211C177.143 58.6419 179.539 52.9686 181.288 46.1787C179.683 47.597 177.964 48.9701 176.283 50.3507C175.906 51.5201 175.507 52.101 175.002 52.101C174.663 52.101 174.489 51.8898 174.406 51.6408L172.68 46.8049C173.14 46.8426 174.602 46.9331 174.904 46.9331C175.921 46.9331 180.504 45.3941 181.642 44.9339C182.004 43.3495 182.373 41.7652 182.66 40.1356C183.165 37.2612 183.7 33.2552 183.647 30.4638L187.778 32.712H195.307C195.662 30.2073 195.978 28.6682 195.383 26.2917L200.169 27.7101C200.448 27.7931 200.712 28.0043 200.651 28.3363C200.569 28.7965 199.875 29.1284 199.317 29.4227L198.737 32.7195H206.561L206.546 32.712ZM181.906 39.8037C181.725 40.8448 180.798 41.7652 179.698 41.7652C178.469 41.7652 178.198 40.6788 177.828 38.9285C177.617 37.9704 176.811 36.0541 176.215 35.345L176.276 35.013C178.507 35.5562 182.426 36.8463 181.899 39.8112M204.789 45.0998L206.493 43.5985C206.84 43.3043 206.938 43.2213 207.111 43.2213C207.405 43.2213 207.586 43.3873 207.774 43.5532L209.598 45.2205C209.817 45.4318 209.953 45.5978 209.915 45.8015C209.824 46.2994 209.199 46.7596 208.294 47.3028C207.857 49.8075 207.375 52.267 206.938 54.7642C206.666 56.3032 206.395 57.8498 206.124 59.3888C205.799 61.2221 205.558 62.3462 204.066 63.3949C202.807 64.3153 201.036 64.7302 199.611 64.8962C199.672 63.6061 199.521 62.7687 199.008 62.0595C198.533 61.3956 197.712 60.7695 196.461 60.181L196.529 59.8038C197.32 59.8868 200.863 60.181 201.496 60.181C202.385 60.181 202.634 59.9698 202.852 58.9739C203.033 58.1817 203.312 56.8464 203.659 54.8849C204.171 51.9652 204.691 49.0078 205.212 46.0881H198.91C198.616 47.0463 198.322 48.0044 197.938 48.9625C200.184 49.6717 203.259 51.8822 202.777 54.6359C202.589 55.7223 201.699 56.9294 200.471 56.9294C199.159 56.9294 198.933 55.3451 198.842 53.4288C198.775 52.1387 198.24 50.8411 197.576 49.8C196.77 51.7162 195.684 53.3458 194.38 54.7189C192.858 56.3862 190.974 57.7215 188.652 58.8909L188.494 58.5967C192.654 54.6812 194.297 51.09 195.519 46.0881H190.484L190.107 48.2156C189.511 51.5955 188.825 55.0131 188.23 58.393C187.974 59.849 187.74 61.6446 187.619 62.3538C187.537 62.814 187.325 63.3119 186.715 63.6514C186.059 64.0286 185.177 64.1946 184.506 64.1946C183.79 64.1946 183.451 63.9456 183.579 63.1912C183.647 62.814 184.529 59.2304 184.725 58.3553C185.321 55.6846 185.841 52.9761 186.315 50.3054C186.738 47.8912 187.114 45.5072 187.499 43.093L191.418 45.0923H195.775C196.235 43.2137 196.604 41.3427 197.018 39.4642H192.195C190.627 39.4642 189.104 39.4642 187.574 39.7584L187.129 38.2118C189.127 38.3778 191.102 38.4608 193.137 38.4608H206.5L208.279 36.5445C208.483 36.3333 208.747 36.0466 209.041 36.0466C209.252 36.0466 209.47 36.2578 209.726 36.4615L212.055 38.3778C212.236 38.5438 212.417 38.7098 212.364 39.004C212.297 39.3812 211.942 39.4642 211.603 39.4642H200.523C200.154 41.3427 199.694 43.2137 199.197 45.0923H204.782L204.789 45.0998Z" fill="#00396D"/>
<path d="M230.1 28.8794L231.23 28.2155C231.517 28.0495 231.75 27.8835 231.924 27.8835C232.097 27.8835 232.353 28.0948 232.497 28.2155L234.23 29.6715C234.486 29.8828 234.592 30.2525 234.547 30.509C234.449 31.0522 233.582 31.4294 233.084 31.5953C232.203 33.0137 227.869 39.5999 227.032 40.724C228.999 43.0175 230.929 45.9749 230.311 49.483C229.73 52.7799 227.386 53.8587 224.386 54.7792C224.417 52.6969 224.213 51.9048 222.758 50.5694L222.819 50.2375C223.459 50.4412 224.115 50.5694 224.831 50.5694C226.519 50.5694 226.776 50.0715 226.972 48.9851C227.522 45.8542 227.024 43.3947 225.932 40.7316C227.122 38.2721 229.12 32.478 229.828 29.8903H225.894C225.517 31.3087 224.861 35.0205 224.183 38.853C223.422 43.191 222.63 47.6497 222.351 49.2341C221.598 53.5268 221.085 57.8648 220.248 62.6177C220.181 62.995 219.939 63.4099 219.284 63.7871C218.726 64.0814 218.002 64.3303 217.369 64.3303C216.525 64.3303 216.208 63.9531 216.352 63.1232C216.48 62.3763 216.706 61.3729 216.879 60.6185C218.085 54.9904 219.321 49.4 220.309 43.7719C221.289 38.2268 222.17 32.7195 222.713 27.2196L226.391 28.8869H230.069L230.1 28.8794ZM237.735 47.9741L239.567 48.6381C239.921 48.7663 240.644 49.0153 240.554 49.5132C240.479 49.9281 239.853 50.1394 239.009 50.3431C237.938 53.3005 236.604 56.0542 234.049 58.3099C230.936 61.1013 226.776 62.399 222.947 63.2288L222.796 62.8969C230.363 60.0602 234.434 55.4355 236.212 47.9666H235.956C234.434 47.9666 232.911 47.9666 231.336 48.2608L230.929 46.7142C232.888 46.8802 234.901 46.9632 236.891 46.9632H248.777L250.714 44.8357C250.978 44.5415 251.189 44.2925 251.483 44.2925C251.694 44.2925 251.913 44.5037 252.161 44.7527L254.242 46.8802C254.528 47.1744 254.588 47.2952 254.551 47.5064C254.483 47.8836 254.129 47.9666 253.789 47.9666H245.416L243.599 58.2647C243.38 59.517 243.388 59.683 246.101 59.683C248.34 59.683 248.913 59.351 249.84 57.6837C250.322 56.8539 250.827 55.6845 251.543 54.0172H251.883C251.8 54.9753 251.717 56.6426 251.965 57.8497C252.101 58.5136 252.32 58.9738 252.727 59.2681C253.096 59.5623 253.315 59.766 253.232 60.2714C253.043 61.3578 252.124 61.984 250.842 62.5197C249.652 63.0176 244.865 63.0629 242.627 63.0629C240.004 63.0629 239.627 61.8558 240.049 59.434C240.373 57.6007 240.78 55.7675 241.104 53.9342L242.152 47.9741H237.712H237.735ZM252.146 32.9232L253.503 32.1687C253.88 31.965 254.106 31.8745 254.317 31.8745C254.528 31.8745 254.679 32.0027 254.965 32.2894L257.015 34.5829C257.189 34.7866 257.196 34.9979 257.159 35.2091C257.031 35.9183 255.855 36.1295 254.694 36.2502C253.345 36.9594 251.393 38.1665 250.277 38.7549L250.021 38.5437C251.031 36.8764 251.521 35.541 251.958 33.7908H236.348L236.25 34.3339C235.888 36.3785 234.63 40.1733 231.841 40.1733C230.997 40.1733 230.235 39.4264 230.394 38.5437C230.507 37.9175 231.245 37.0876 232.157 36.2125C232.662 35.7523 233.687 34.7489 234.419 33.9643C235.255 33.0439 235.685 32.297 235.896 31.3388H236.235C236.341 31.9198 236.393 32.3422 236.423 32.9232H241.963C242.461 30.0865 242.589 29.3773 242.521 27.1291L246.983 28.4644C247.224 28.5474 247.503 28.6304 247.451 28.9246C247.383 29.3019 246.81 29.6715 245.981 30.0488L245.476 32.9232H252.161H252.146ZM240.365 40.4675H244.006L245.725 38.6342C246.041 38.3023 246.192 38.1363 246.493 38.1363C246.704 38.1363 246.938 38.2646 247.179 38.5512L248.89 40.3845C249.131 40.6788 249.244 40.7617 249.199 41.0107C249.131 41.3879 248.777 41.4709 248.483 41.4709H239.431C237.863 41.4709 236.386 41.4709 234.81 41.7651L234.366 40.2186C236.363 40.3845 238.338 40.4675 240.373 40.4675" fill="#00396D"/>
<path d="M50.4248 0.672363V2.49727H36.2325V15.1371H50.8086V16.9236H34.2654V0.681968H50.4248V0.672363ZM49.6283 8.08724V9.79689H44.792C45.5117 11.1608 47.6228 12.2845 50.1081 12.7456L49.1005 14.5128C45.4061 13.5043 43.9764 11.9195 43.2951 10.4884C42.1532 12.8032 39.8022 13.8501 37.9502 14.4456L36.9042 12.7359C37.8926 12.515 40.6178 11.9484 41.6446 9.8065H37.029V8.09685H42.1723C42.2875 7.54938 42.3355 7.08835 42.3355 6.16629H39.6678C39.1305 6.82902 38.785 7.17479 38.1613 7.75108L36.6739 6.48325C37.2209 6.06064 38.9385 4.69676 39.5431 2.80462L41.4527 3.13118C41.2128 3.66905 41.088 3.93798 40.8097 4.45664H49.1005V6.16629H44.1779C44.1779 6.97309 44.1395 7.43412 44.0339 8.09685H49.6379L49.6283 8.08724Z" fill="#00396D"/>
<path d="M54.0904 2.91994C54.3495 3.41939 54.8485 4.32224 55.1364 6.25279L53.5914 7.01157C53.2652 5.2635 53.1692 4.82168 52.6895 3.6403L54.0904 2.91994ZM58.5333 9.74893L57.8904 10.1523L57.0651 8.90371C56.6813 13.9078 55.8849 15.4926 54.5318 17.3463L53.0445 16.1841C53.8889 15.0604 54.6662 13.8886 55.0692 11.0552C54.2056 11.4778 53.9081 11.6026 53.1021 11.9388L52.7374 10.0851C54.1384 9.70091 54.4455 9.60486 55.2515 9.30711C55.2899 8.78845 55.3091 8.02007 55.3091 7.63588V1.54646H61.5176V0.144165H63.408V1.54646H70.1539V3.15046H57.1227V7.6743C57.1227 8.0777 57.1035 8.33703 57.0843 8.57715C57.4298 8.43308 57.7273 8.2794 58.4086 7.89521C57.9288 7.37655 57.8808 7.30932 57.5833 7.0692L58.5909 6.18556L59.5313 7.12683C59.9535 6.80027 60.3949 6.42568 60.8747 5.859H57.5833V4.4471H61.7575C61.9206 4.10133 62.0166 3.88042 62.1797 3.40018L64.0317 3.60188C63.811 4.0437 63.7342 4.22619 63.6095 4.4471H70.1539V5.859H66.1428C66.4786 6.2624 66.8625 6.74264 67.5726 7.29011C68.1771 6.62738 68.417 6.34884 68.6185 6.10872L69.866 6.82908C69.4246 7.36695 68.9256 7.81837 68.7049 8.03928C69.3478 8.38505 69.7508 8.51952 70.269 8.6828L69.463 10.1523C69.0407 9.95063 68.7433 9.82577 68.3402 9.58565V13.6485H64.2812V16.1457C64.2812 17.2695 63.5615 17.3367 63.0338 17.3367H60.8459L60.5005 15.6847H62.103C62.4004 15.6847 62.4676 15.627 62.4676 15.4061V13.6389H58.5333V9.73932V9.74893ZM60.9611 14.9355C59.4353 16.2994 57.8712 16.8661 57.1227 17.1446L56.1631 15.579C58.3702 15.0123 59.1762 14.2536 59.6368 13.8117L60.9611 14.9355ZM60.1838 10.0371H66.6898V9.0766H60.1838V10.0371ZM60.1838 12.3614H66.6898V11.2569H60.1838V12.3614ZM65.9221 7.79916C65.0201 6.95394 64.5787 6.36805 64.214 5.84939H62.7267C62.0262 6.83868 61.3353 7.52062 61.0186 7.79916H65.9221ZM69.415 17.2118C69.0311 17.0485 67.1504 16.309 65.5191 14.9643L66.6993 13.7541C67.6397 14.5801 68.5514 15.118 70.4129 15.6463L69.4246 17.2118H69.415Z" fill="#00396D"/>
<path d="M76.8612 10.959C76.0935 12.7455 74.5294 15.5597 73.2052 17.2309L71.9578 15.3868C72.7638 14.4263 73.5795 13.437 75.3163 9.77761L76.8612 10.959ZM72.9845 5.14812C74.4047 5.79163 75.2683 6.29108 76.1991 6.89618L75.0572 8.60583C74.0976 7.88547 73.1476 7.31879 72.0441 6.81934L72.9845 5.14812ZM73.8481 0.105613C74.5966 0.422571 76.3335 1.39265 76.986 1.8921L75.7769 3.62096C74.9133 2.93902 74.6926 2.81416 72.8022 1.6904L73.8481 0.105613ZM82.7435 9.3454C82.043 11.4392 81.3329 12.9472 80.2102 14.9162C82.3212 14.8393 83.1465 14.8201 86.1308 14.532C85.4111 13.2641 84.6243 12.198 84.2212 11.6794L85.8909 10.7381C87.6181 12.7071 88.8656 15.1371 89.4893 16.6066L87.5798 17.4902C87.3399 16.9428 87.1767 16.549 86.9368 16.0591C84.2692 16.5009 79.0299 16.7795 76.9956 16.8467L76.7173 15.0218C76.9764 15.0218 77.9647 14.9834 78.1183 14.9834C79.3274 12.7551 79.9895 11.2663 80.5076 9.33579H76.9956V7.56852H82.3212V4.47578H77.7248V2.6893H82.3212V0.0960083H84.1828V2.6893H88.7984V4.47578H84.1828V7.56852H89.4893V9.33579H82.7435V9.3454Z" fill="#00396D"/>
<path d="M99.0948 0.144065H101.244V2.41079C101.244 5.98376 102.367 11.9771 109.017 15.3964L107.75 17.2694C104.372 15.5789 101.427 12.1404 100.16 7.48211C99.018 11.9003 96.264 15.3772 92.608 17.2694L91.2454 15.4252C93.9322 14.119 96.168 12.0252 97.4731 9.31662C98.4614 7.2708 99.0948 4.71593 99.0948 2.46842V0.13446V0.144065Z" fill="#00396D"/>
<path d="M113.805 14.0518C113.565 14.6185 112.846 16.2993 111.8 17.4039L110.514 16.2033C111.291 15.3773 111.896 14.1575 112.203 13.3506L113.805 14.0518ZM111.339 0.566707H117.989V12.9473H111.339V0.566707ZM113.124 4.13008H116.233V2.30517H113.124V4.13008ZM113.124 7.62621H116.233V5.76289H113.124V7.62621ZM113.124 11.1992H116.233V9.30704H113.124V11.1992ZM116.943 13.4083C117.691 14.5897 118.104 15.3196 118.574 16.501L116.828 17.0869C116.55 16.2609 116.022 15.0123 115.283 13.975L116.933 13.4083H116.943ZM118.181 12.4286C121.271 10.1427 123.267 6.90585 124.025 5.29225H118.584V3.41932H124.226V0.0672607H126.155V3.41932H128.122V5.29225H126.155V14.8394C126.155 16.6451 126.03 17.375 124.101 17.375H121.194L120.829 15.4637H123.123C124.226 15.4637 124.226 15.1371 124.226 14.3592V7.91435C123.046 10.3444 121.338 12.4766 119.284 14.2439L118.181 12.419V12.4286Z" fill="#00396D"/>
<path d="M146.69 16.9045H130.866V0.730042H146.69V16.9045ZM132.776 15.0988H144.8V2.51653H132.776V15.0988ZM142.19 12.8705C142.19 14.1575 141.067 14.4745 140.338 14.4745H137.948L137.651 12.6303H139.858C140.28 12.6303 140.376 12.5055 140.376 12.1885V6.85788H133.611V5.18665H140.376V3.14084H142.199V5.18665H144.022V6.85788H142.199V12.8705H142.19ZM135.684 7.64547C137.171 9.5184 137.737 10.6806 138.015 11.2473L136.413 12.2365C136.115 11.593 135.233 9.80655 134.148 8.55793L135.674 7.63587L135.684 7.64547Z" fill="#00396D"/>
<path d="M168.329 14.4168C169.518 13.61 170.9 12.6303 172.061 10.9783H168.866V9.28783H172.599V7.57819H168.78V5.90696H170.824C170.804 5.76289 170.622 4.27415 170.267 3.27525H169.144V1.60402H172.599V0.0768657H174.364V1.60402H177.541V3.27525H176.677C176.293 4.96569 176.255 5.16739 176.015 5.90696H177.819V7.57819H174.364V9.28783H177.397V10.9783H174.71C175.132 11.4969 175.909 12.4094 176.974 13.0721L176.053 14.7241C175.094 13.8021 174.873 13.5139 174.364 12.7552V17.375H172.599V12.7936C171.092 14.801 170.046 15.6078 169.346 16.1072L168.338 14.4168H168.329ZM171.937 3.27525C172.215 4.15889 172.484 5.68605 172.503 5.90696H174.355C174.575 5.16739 174.835 3.93798 174.921 3.27525H171.927H171.937ZM185.956 1.79612C184.286 2.58371 182.243 3.10237 180.275 3.1792V5.97419H185.956V7.74147H184.152V17.3847H182.243V7.74147H180.275V8.24091C180.275 13.3699 179.268 15.3388 177.809 17.3847L176.024 16.1552C177.627 14.2439 178.433 12.3614 178.433 8.29854V1.45035C181.667 1.50797 183.711 0.643547 184.901 0.0672607L185.947 1.79612H185.956Z" fill="#00396D"/>
<path d="M191.426 5.69569C190.562 7.3285 189.756 8.14491 189.219 8.65396L187.789 7.24206C188.528 6.50249 190.236 4.75442 191.244 0.41307L193.23 0.778052C193.067 1.4792 192.808 2.58375 192.29 3.83237H195.782V0.0769043H197.769V3.83237H204.639V5.69569H197.769V9.11499H203.977V10.9879H197.769V14.7914H205.321V16.6835H188.115V14.7914H195.782V10.9879H189.497V9.11499H195.782V5.69569H191.426Z" fill="#00396D"/>
<path d="M211.136 5.8493C209.735 6.73294 208.89 7.09792 208.103 7.43409L207.019 5.66681C209.974 4.6391 213.419 2.37238 214.974 0H217.085C218.428 2.09384 221.384 4.17807 225.021 5.58997L223.84 7.43409C223.073 7.0499 221.998 6.51203 220.885 5.80128V6.8482H211.126V5.8589L211.136 5.8493ZM222.084 17.5095C221.864 17.1061 221.758 16.9044 221.336 16.2801C218.822 16.5394 214.705 16.8275 208.286 16.962L208.007 15.0507C208.391 15.0507 210.061 15.0507 210.637 15.0315C211.116 14.1286 212.038 12.1212 212.421 10.7477H207.7V8.96124H224.263V10.7477H214.686C214.062 12.2365 213.343 13.802 212.719 14.9834C216.154 14.9066 216.538 14.8874 220.213 14.7049C219.311 13.5043 218.851 12.88 218.045 12.0732L219.609 11.1127C220.175 11.6602 222.276 13.7444 223.869 16.4145L222.084 17.5191V17.5095ZM219.858 5.09052C217.872 3.68823 216.48 2.09384 216.039 1.59439C215.3 2.47803 214.312 3.60179 212.249 5.09052H219.858Z" fill="#00396D"/>
</svg>
