<svg width="163" height="145" viewBox="0 0 163 145" fill="none" xmlns="http://www.w3.org/2000/svg">
<path d="M10.7911 90.577C14.7304 84.5632 19.82 79.3163 25.7455 75.6446C31.0393 72.3646 36.6641 71.9426 42.6089 71.6888C54.6337 71.1729 72.1757 74.8115 85.9688 80.2543C92.3853 82.7867 92.4019 83.9563 95.3922 90.577C100.352 101.556 96.0405 116.072 98.8901 125.884C95.2432 129.327 93.7894 130.599 89.7812 133.562C80.5785 140.367 76.6667 141.222 65.6378 142.563C46.4544 144.894 35.0724 141.206 13.1442 130.58C8.71388 128.433 4.53734 126.251 0.887695 122.809C3.73458 112.996 5.31251 98.9411 10.7911 90.577Z" fill="#3E3A39"/>
<path d="M11.5525 91.0239C16.7001 83.2363 24.2614 75.4653 33.7124 73.4764C42.2559 71.6777 51.4613 72.4832 59.9827 73.9536C69.1164 75.526 78.3854 77.9205 86.915 81.5922C89.4281 82.6736 91.2515 83.9646 92.5205 86.4253C94.3108 89.8956 95.8253 93.5535 96.4764 97.4156C98.0708 106.878 95.4281 116.809 98.035 126.122L98.2612 125.261C93.2874 129.951 87.8833 134.519 81.7812 137.683C76.3413 140.502 70.1454 141.209 64.1344 141.854C57.6903 142.544 51.1717 142.585 44.7745 141.454C38.2145 140.295 31.9028 138.047 25.7897 135.443C21.4504 133.595 17.1801 131.581 12.9456 129.509C8.85184 127.507 4.8684 125.308 1.50842 122.188L1.73462 123.049C3.29048 117.628 4.30013 112.069 5.64909 106.599C6.99805 101.129 8.52632 95.7218 11.5498 91.0266C12.1677 90.0666 10.6367 89.1784 10.0242 90.1328C6.99805 94.8308 5.39254 100.334 4.0491 105.708C2.64772 111.313 1.62704 117.018 0.0325595 122.577C-0.0529574 122.869 0.0325595 123.228 0.258766 123.438C3.25738 126.224 6.72219 128.348 10.3608 130.193C14.2339 132.16 18.1815 134 22.1483 135.769C28.6587 138.665 35.3428 141.308 42.3359 142.775C48.7551 144.124 55.3124 144.381 61.8392 143.84C68.3661 143.3 74.7771 142.701 80.6006 140.191C87.7067 137.129 93.9329 131.771 99.5081 126.513C99.7343 126.301 99.8198 125.951 99.7343 125.653C98.5536 121.438 98.6446 116.985 98.7274 112.646C98.8184 107.923 99.0115 103.178 98.4019 98.4776C97.8474 94.2101 96.3467 90.4115 94.5343 86.5411C93.406 84.1356 92.0102 82.2294 89.6378 80.9412C85.8226 78.8722 81.453 77.5756 77.3233 76.3012C72.5261 74.8226 67.6461 73.6032 62.7165 72.6598C53.8613 70.966 44.7358 70.1053 35.7593 71.3412C30.1428 72.1136 25.4283 74.4032 21.0118 77.9122C16.5953 81.4211 13.056 85.5425 10.0215 90.1301C9.39253 91.0818 10.9236 91.9701 11.547 91.0239H11.5525Z" fill="#3E3A39"/>
<path d="M156.142 84.5963C151.102 97.6721 143.674 115.694 133.155 126.135C114.526 144.629 98.4571 131.934 70.3386 111.228C69.6903 110.751 58.6283 94.7921 60.2973 87.8708C62.1124 80.3398 69.431 69.7964 93.7123 81.9646C102.915 86.577 108.143 108.654 114.239 101.195C121.566 92.2321 124.537 81.6887 127.828 69.6529C128.816 66.0364 129.767 62.6378 130.529 59.6364C130.711 58.9136 132.727 58.2764 133.497 58.533C142.727 61.6364 149.789 63.4488 159.042 66.5384C159.916 66.8309 161.064 67.2226 161.475 68.144C161.883 69.0653 161.629 69.7881 161.254 70.7039C159.232 75.6446 158.109 79.4956 156.142 84.5963Z" fill="#3E3A39"/>
<path d="M154.923 84.2625C150.567 95.5508 145.878 106.93 139.025 116.971C133.577 124.958 125.58 133.482 115.227 133.821C105.111 134.152 95.6158 127.653 87.6406 122.191C84.8158 120.254 82.0351 118.254 79.2655 116.235C77.8034 115.17 76.3469 114.097 74.8903 113.024C73.6682 112.125 72.2586 111.297 71.1496 110.257C70.8434 109.97 70.9703 110.056 70.6779 109.647C70.2862 109.101 69.9055 108.549 69.5331 107.989C68.4986 106.436 67.5193 104.845 66.5896 103.225C64.46 99.5094 62.3 95.4653 61.5469 91.2032C61.0835 88.5853 61.9414 86.0253 63.2628 83.7743C67.0503 77.3274 74.7275 76.9191 81.3344 78.5439C84.3827 79.2943 87.3427 80.3977 90.2006 81.6888C92.4351 82.6984 94.4737 83.6832 96.2089 85.435C99.075 88.3287 101.116 91.9674 103.227 95.4156C104.885 98.1218 106.664 101.645 109.489 103.327C112.909 105.369 115.296 102.031 117.094 99.5287C124.725 88.8998 127.596 75.5205 130.926 63.0985C131.127 62.3481 131.354 61.5978 131.522 60.8392C131.676 60.1412 131.712 60.0309 132.443 59.8378C133.119 59.6585 133.508 59.8709 134.176 60.0916C135.16 60.4171 136.145 60.7399 137.133 61.0544C140.352 62.0833 143.591 63.0571 146.829 64.0337C150.289 65.0764 153.748 66.1302 157.182 67.2557C158.366 67.6447 160.556 67.8819 160.349 69.504C160.256 70.246 159.723 71.1316 159.453 71.8212C159.094 72.7371 158.747 73.6584 158.41 74.5853C157.235 77.8074 156.151 81.0598 154.923 84.2625C154.341 85.7825 156.782 86.4391 157.359 84.9356C158.702 81.4322 159.869 77.8681 161.18 74.3536C162.151 71.744 164.421 68.0861 161.216 66.1054C159.924 65.3081 158.291 64.9605 156.86 64.4971C154.962 63.8819 153.061 63.2888 151.155 62.7068C147.811 61.6833 144.457 60.6957 141.116 59.6613C139.356 59.1178 137.602 58.5606 135.85 57.9895C134.283 57.4764 133.083 56.9551 131.458 57.504C130.275 57.904 129.555 58.533 129.202 59.7357C128.711 61.4102 128.311 63.1205 127.85 64.8061C125.98 71.6502 124.239 78.5715 121.729 85.217C120.534 88.3839 119.125 91.4708 117.417 94.3977C116.606 95.788 115.732 97.137 114.785 98.4391C114.148 99.3163 113.5 100.381 112.631 101.06C111.814 101.7 111.221 101.548 110.338 100.858C109.1 99.8901 108.178 98.4749 107.321 97.1811C104.912 93.5508 102.871 89.6832 100.203 86.2267C98.9178 84.5605 97.5082 82.9908 95.7895 81.7632C93.3758 80.0391 90.3551 78.9412 87.602 77.8874C79.9661 74.9688 69.6876 73.0129 63.2959 79.5839C61.3593 81.5757 60.0407 84.1108 59.2793 86.7701C58.1869 90.5853 59.6159 94.5218 61.1248 98.0253C62.8462 102.025 65.0476 105.84 67.4696 109.454C68.0545 110.326 68.6393 111.347 69.3924 112.089C70.3607 113.04 71.6627 113.78 72.7551 114.585C74.4296 115.818 76.1041 117.051 77.7841 118.279C83.2379 122.26 88.7358 126.229 94.5675 129.642C99.0475 132.265 103.845 134.649 108.951 135.747C113.362 136.693 117.952 136.574 122.212 135.013C127.221 133.178 131.516 129.769 135.138 125.915C143.85 116.649 149.367 104.605 154.165 92.977C155.262 90.3149 156.319 87.6336 157.356 84.9439C157.941 83.4267 155.5 82.7674 154.92 84.2708L154.923 84.2625Z" fill="#3E3A39"/>
<path d="M109.903 66.8971C107.798 68.326 105.685 69.2778 103.07 70.0391C96.802 71.8626 89.9717 71.3605 83.4062 71.8543C81.6656 75.6088 77.9745 79.9536 77.878 84.2074C77.7869 88.2211 77.558 90.497 72.9152 90.7839C68.8435 91.0349 64.6918 90.5715 60.8877 89.0984C57.2601 87.6942 53.8091 85.3439 51.6684 82.0363C48.8519 77.686 49.3208 75.0653 52.2698 71.1812C54.9815 67.6116 56.7249 63.6143 58.1898 59.3881C53.7705 58.7537 49.5195 57.4047 47.627 53.4102C46.8188 51.7026 47.1664 50.1054 47.4422 48.4061C47.7181 46.7068 48.267 45.1151 49.5829 43.8572C50.8988 42.5992 52.7001 42.0723 54.6229 42.2903C56.5484 42.5082 58.0132 43.5978 59.0836 45.0489C57.4146 42.5744 57.6794 39.4627 58.2367 36.7786C59.2298 31.9869 60.2974 27.6696 63.3263 23.7C65.056 21.4324 66.9428 19.6559 69.627 18.1441C80.9511 11.7773 92.6614 11.0462 105.29 15.0048C109.075 16.191 111.792 18.2435 114.46 20.8697C117.219 28.2241 119.238 35.4599 119.792 43.242C120.198 48.9551 119.558 54.6764 116.733 59.6999C114.987 62.8061 112.846 64.8971 109.905 66.8943L109.903 66.8971Z" fill="#FCE4DE"/>
<path d="M108.78 64.9743C101.227 70.0033 92.0268 69.0129 83.4061 69.6281C82.6613 69.6805 81.831 70.0033 81.4861 70.7288C79.4889 74.9163 76.231 78.6405 75.7124 83.4074C75.6186 84.2736 75.6434 85.148 75.5799 86.0142C75.5579 86.3011 75.5524 86.4446 75.5082 86.6984C75.4724 86.9108 75.2296 87.7191 75.2903 87.5673C75.1 88.0335 75.1358 88.006 74.6282 88.2184C73.9855 88.4887 72.9537 88.5632 72.1482 88.5935C67.1027 88.7922 61.9965 87.7991 57.7372 84.9853C54.7579 83.0156 50.6973 78.8032 52.4959 74.9356C53.0724 73.697 53.9662 72.6377 54.7524 71.5315C55.5386 70.4253 56.311 69.1619 56.9759 67.9095C58.3221 65.3743 59.3841 62.6874 60.3303 59.9785C60.6945 58.9412 59.911 57.4102 58.7772 57.2419C55.2573 56.7178 49.1276 55.3771 49.3566 50.6792C49.4531 48.6737 49.9056 45.9564 51.8614 44.9275C53.6986 43.9592 55.911 44.5551 57.1552 46.1716C57.8862 47.1233 59.0697 47.6309 60.1979 46.9689C61.2103 46.3758 61.6379 44.9468 60.9952 43.9261C59.8172 42.053 59.8917 39.8847 60.2917 37.7772C60.7386 35.4048 61.2903 33.0186 62.0793 30.7344C63.5331 26.522 66.3083 22.7317 70.151 20.4117C78.7579 15.2117 89.0392 13.6835 98.8516 15.6448C101.583 16.191 104.496 16.82 107.003 18.0669C109.229 19.1731 111.108 20.7179 112.879 22.4448L112.308 21.4627C117.279 34.7923 122.945 55.2171 108.777 64.9743C106.435 66.5881 108.656 70.4474 111.023 68.8171C114.543 66.3922 117.467 63.4102 119.326 59.5178C121.387 55.2061 122.187 50.4502 122.118 45.6916C122.049 40.933 121.254 35.9896 120.09 31.3055C119.494 28.9055 118.783 26.5358 117.994 24.1938C117.607 23.0462 117.21 21.9014 116.78 20.7703C116.319 19.5565 115.585 18.8393 114.631 17.9896C107.969 12.0586 98.2254 10.18 89.5109 10.351C84.973 10.4393 80.4241 11.2421 76.1427 12.7538C71.8613 14.2655 67.5441 16.2434 64.2338 19.3441C60.6779 22.6765 58.4159 27.0351 57.1331 31.6944C55.8614 36.3096 54.4159 41.8102 57.1579 46.1716L61.0007 43.9261C58.7221 40.9689 55.4448 39.3909 51.6793 40.2737C47.8228 41.1785 45.8118 44.613 45.2159 48.2764C44.8959 50.2406 44.7111 52.1137 45.478 54.0033C46.0959 55.5233 47.1056 56.8861 48.3607 57.9398C50.9649 60.1302 54.2917 61.0433 57.5966 61.5343L56.0435 58.7978C55.1166 61.4488 54.0683 64.0419 52.6862 66.4915C51.3042 68.9412 49.329 70.9908 48.2669 73.5784C46.2035 78.6101 49.4559 83.9618 53.2876 87.1756C57.7869 90.9466 63.5303 92.7701 69.3427 93.0404C73.5965 93.2363 78.7937 92.9218 79.8006 87.8846C80.2751 85.5011 79.9551 83.2336 80.9482 80.9412C82.1537 78.1577 84.0241 75.7136 85.3289 72.9798L83.4089 74.0805C92.8351 73.4074 102.772 74.3177 111.028 68.8198C113.401 67.2391 111.174 63.3853 108.783 64.9771L108.78 64.9743Z" fill="#3E3A39"/>
<path d="M80.6146 35.3496C77.9718 36.7951 75.5443 41.6751 78.907 43.7413C80.518 44.7316 82.5925 43.9647 83.3649 42.3123C84.2035 40.5192 84.2422 38.5937 83.8835 36.6792C83.6628 35.4985 82.2366 34.8254 81.147 35.1261C79.9084 35.4682 79.3704 36.6765 79.5939 37.8627C79.6822 38.3289 79.7235 38.8309 79.6656 39.3082C79.6408 39.5261 79.3842 40.0751 79.4173 40.2737C79.4339 40.3813 82.0629 40.4668 81.7346 40.7785C81.5553 40.9495 81.8118 40.4282 81.8366 40.3592C81.7704 40.5468 82.0877 39.8682 82.0629 39.9068C82.2753 39.5785 82.5125 39.3826 82.8601 39.1923C85.3732 37.8185 83.1304 33.973 80.6146 35.3496Z" fill="#3E3A39"/>
<path d="M98.3827 34.0999C95.751 35.5592 93.3179 40.442 96.6889 42.5054C98.3027 43.493 100.377 42.7178 101.147 41.0654C101.98 39.2695 102.019 37.3413 101.652 35.4268C101.425 34.2461 100.008 33.573 98.9151 33.8737C97.6792 34.213 97.1358 35.4268 97.362 36.6102C97.453 37.082 97.4944 37.5785 97.4448 38.0585C97.4172 38.3151 97.1358 38.8171 97.1992 39.0268C97.2158 39.0847 97.431 38.7702 97.4144 38.7785L98.5372 38.4751C99.2627 38.6737 99.5882 39.0295 99.5165 39.5454C99.4558 39.7109 99.4641 39.6558 99.5413 39.3771C99.5744 39.2833 99.7289 38.8585 99.7041 38.9082C99.9303 38.4447 100.203 38.1799 100.631 37.9427C103.136 36.5551 100.896 32.7096 98.3854 34.0999H98.3827Z" fill="#3E3A39"/>
<path d="M105.387 9.89589C105.224 9.76623 104.454 9.18417 104.286 9.06279C101.343 6.97452 98.4821 5.49314 95.0034 4.16349C90.4186 2.41178 85.649 1.87936 80.758 2.3704C75.867 2.85867 71.318 4.17177 66.7884 5.84901C60.8049 8.06417 55.3843 10.7566 51.5746 15.6393C49.8643 17.8297 49.1305 20.1662 48.1815 22.6958C46.9871 25.8765 45.8671 28.522 45.4643 32.1468C45.0616 35.7717 46.416 40.3703 48.2064 43.8047C58.667 39.9316 67.8946 36.5579 77.6738 33.231C78.8766 32.8227 79.5083 32.6737 80.3332 32.0751C81.6297 31.1289 82.0876 29.8655 82.7083 28.5662C83.8228 26.2324 84.998 24.0255 86.3911 21.8489C86.5538 21.5979 86.8242 21.3469 87.0945 21.3772C87.3649 21.4076 87.4366 21.551 87.558 21.689C89.0945 23.3965 90.5566 25.1096 92.0904 26.82C92.3248 27.082 92.5207 27.3386 92.929 27.4627C93.3372 27.5869 93.82 27.46 94.2531 27.3193C100.689 25.2227 108.659 23.1372 115.307 21.6724C115.657 19.38 113.001 16.5221 111.431 14.8421C109.318 12.5828 107.809 11.8104 105.384 9.89589H105.387Z" fill="#FF7B18"/>
<path d="M106.959 8.32072C102.374 4.76763 96.9729 1.96764 91.2736 0.734536C84.6529 -0.7027 77.8254 0.105574 71.3757 1.97867C65.6185 3.65039 59.5854 5.86555 54.7579 9.50416C52.3579 11.3138 50.1151 13.471 48.5924 16.089C47.0696 18.7069 46.0986 21.8462 45.0448 24.7372C43.8917 27.8931 42.9565 31.2972 43.2186 34.6875C43.4945 38.2792 44.6586 41.7358 46.2862 44.9302C46.7 45.7385 47.9248 46.2764 48.7993 45.9537C56.6172 43.0599 64.4406 40.1854 72.3081 37.4351C74.2116 36.7703 76.115 36.1082 78.024 35.4627C79.6378 34.9165 81.1743 34.4172 82.4295 33.2034C83.7564 31.9206 84.3881 30.1524 85.1909 28.5358C85.6433 27.6227 86.115 26.7207 86.6088 25.8296C86.8571 25.3855 87.1081 24.9441 87.3674 24.5055C87.4971 24.2848 87.6295 24.0669 87.7619 23.8489C88.1702 23.3993 88.1426 23.2945 87.6819 23.5262H86.4984L86.7853 23.642L85.8033 23.071C86.744 24.1138 87.6653 25.1703 88.5922 26.2269C89.4557 27.2117 90.3219 28.5193 91.4557 29.2255C92.7384 30.0255 94.1564 29.6889 95.4888 29.2613C96.8212 28.8337 98.1977 28.4144 99.5605 28.0144C104.954 26.4282 110.407 25.0407 115.894 23.8269C116.912 23.6007 117.439 22.6296 117.527 21.6807C117.803 18.7234 115.544 16.0697 113.693 14.0255C111.676 11.7993 109.304 10.1662 106.954 8.33175C106.007 7.59244 104.73 7.41037 103.806 8.33175C103.036 9.1014 102.854 10.7345 103.806 11.4793C105.869 13.0904 108.04 14.5166 109.853 16.4255C111.114 17.7552 113.265 19.6834 113.078 21.6834L114.711 19.5372C110.995 20.3593 107.296 21.2669 103.621 22.2545C101.789 22.7455 99.9632 23.2586 98.1453 23.7965C97.2322 24.0669 96.3191 24.3427 95.4088 24.6269C94.6446 24.8641 93.7095 25.3386 92.926 25.2503L94.0488 25.5538C93.1191 25.1124 92.2557 23.6751 91.5688 22.8889C90.766 21.9731 90.0019 20.9745 89.1302 20.1276C88.3329 19.3524 87.3343 18.98 86.2336 19.2972C84.9509 19.6669 84.2888 20.991 83.6543 22.0503C82.4571 24.0503 81.4254 26.1275 80.4212 28.2296C79.9826 29.151 79.5523 30.0503 78.6116 30.5441C77.8419 30.9496 76.9371 31.1482 76.1178 31.4268C66.562 34.693 57.0806 38.1689 47.6103 41.6723L50.1234 42.6958C48.9289 40.3565 48.002 37.7634 47.7041 35.1399C47.3951 32.4282 48.0186 29.7744 48.8793 27.2144C49.74 24.6545 50.5924 22.1441 51.6986 19.7662C52.8048 17.3883 54.5592 15.3635 56.6144 13.6752C60.6337 10.3731 65.7702 8.44761 70.664 6.86417C76.2088 5.07107 82.1012 3.90694 87.9412 4.66004C91.1219 5.07107 94.2088 6.10555 97.1053 7.46279C98.4598 8.09727 99.7784 8.80899 101.05 9.59795C101.701 10.0007 102.341 10.42 102.965 10.8614C103.138 10.9855 103.309 11.1097 103.48 11.2366C103.555 11.2917 104.189 11.7773 103.806 11.4793C104.755 12.2159 106.027 12.4035 106.954 11.4793C107.72 10.7124 107.908 9.07382 106.954 8.33175L106.959 8.32072Z" fill="#FF7B18"/>
<path d="M60.9925 44.0143C58.7167 41.0544 55.4339 39.4764 51.6712 40.3592C47.8146 41.2613 45.8036 44.6985 45.2077 48.3619C44.8877 50.3261 44.7029 52.1991 45.4698 54.0888C46.0877 55.6088 47.0974 56.9715 48.3526 58.0253C50.9567 60.2157 54.2836 61.126 57.5884 61.6198L56.0353 58.8833C54.4767 63.0819 51.9387 67.1481 49.6767 71.0432C48.2367 73.526 52.0794 75.7687 53.5194 73.2887C55.9856 69.0377 58.6091 64.6846 60.3249 60.0639C60.7084 59.0295 59.8891 57.4957 58.7718 57.3274C55.2518 56.8005 49.1222 55.4598 49.3512 50.7647C49.4477 48.7592 49.9001 46.0419 51.856 45.013C53.696 44.0447 55.9084 44.6433 57.1525 46.2626C57.8836 47.2143 59.067 47.7219 60.1953 47.0599C61.1304 46.5137 61.7291 44.9743 60.9925 44.0171V44.0143Z" fill="#3E3A39"/>
<path d="M91.8283 56.864C91.5193 57.6916 91.2131 58.5192 90.9041 59.3467C90.7772 59.686 90.6448 60.0364 90.3827 60.3012C90.1207 60.566 89.6931 60.7205 89.3317 60.5798C89.0972 60.4861 88.9345 60.2874 88.7828 60.0971C86.7607 57.504 85.271 54.5578 84.4214 51.4626C87.5634 51.2806 90.7165 51.2585 93.8641 51.3909C93.1855 53.2143 92.5069 55.0405 91.8283 56.864Z" fill="white"/>
<path d="M89.9275 56.3398C89.7427 56.8364 89.5578 57.3329 89.373 57.8295C89.2489 58.1605 89.1275 58.4916 89.0034 58.8226L90.2034 58.726C90.2254 58.6985 88.6172 56.3426 88.5316 56.1936C87.5716 54.5274 86.8544 52.784 86.3275 50.9357L84.4268 53.4323C87.5744 53.2585 90.7192 53.2364 93.8696 53.3605L91.9689 50.864C91.2903 52.6874 90.6116 54.5136 89.933 56.3371C89.0475 58.7205 92.8571 59.7467 93.7371 57.3854C94.4158 55.5619 95.0944 53.7357 95.773 51.9123C96.242 50.6543 95.0475 49.4626 93.8723 49.4157C90.7247 49.2916 87.5772 49.3137 84.4296 49.4875C83.1717 49.5564 82.1593 50.693 82.5289 51.984C83.4641 55.2695 84.9868 58.3895 87.0889 61.0874C88.1592 62.464 89.8365 63.1315 91.3868 62.0005C92.7716 60.9881 93.1716 58.9109 93.7399 57.3854C94.6254 55.0019 90.8158 53.9757 89.9358 56.3371L89.9275 56.3398Z" fill="#3E3A39"/>
<path d="M85.5109 26.7013C84.7027 26.9275 84.2392 26.9772 83.3234 26.9193C82.4075 26.8613 81.5634 27.7496 81.6047 28.6379C81.6489 29.6172 82.3606 30.2986 83.3234 30.3565C84.3633 30.4199 85.4227 30.2958 86.424 30.0144C87.2902 29.7717 87.9109 28.7868 87.624 27.9013C87.3371 27.0158 86.4378 26.442 85.5109 26.7013Z" fill="#3E3A39"/>
<path d="M100.948 24.8172C100.454 25.0407 99.3951 25.3331 98.8902 25.3938C97.9689 25.5013 97.1716 26.1055 97.1716 27.1124C97.1716 27.9565 97.9634 28.9413 98.8902 28.831C100.236 28.6737 101.45 28.3482 102.683 27.7855C103.527 27.402 103.734 26.1772 103.301 25.4324C102.794 24.5634 101.798 24.431 100.948 24.8144V24.8172Z" fill="#3E3A39"/>
<path d="M142.84 71.6474C141.441 71.9812 141.908 73.8212 142.501 74.9881C143.257 76.4778 144.603 77.2805 146.09 77.5674C148.68 78.0667 149.632 78.7757 152.153 77.9536C153.85 77.4019 155.817 76.6047 156.945 75.024C157.519 74.2212 159.163 72.4447 159.345 71.3854C159.527 70.3261 159.632 68.5743 159.262 67.5205C158.829 66.2819 158.457 66.1412 158.501 65.013C158.545 63.8847 159.367 62.693 159.466 61.4654C159.563 60.2378 158.87 58.9468 158.316 57.8213C158.114 57.413 157.822 57.0268 157.731 56.613C157.64 56.1992 157.756 55.7937 157.734 55.4047C157.483 50.9716 154.332 49.4958 151.844 48.4034C149.477 47.3634 148.037 47.4654 144.989 47.5316C143.524 47.562 142.084 48.1689 141.532 47.1592C140.782 45.7855 140.683 41.9813 140.261 40.4558C139.891 39.1206 139.519 37.7744 138.873 36.5579C138.228 35.3413 137.276 34.2517 136.046 33.7276C135.822 33.6338 135.568 33.5565 135.348 33.6531C135.171 33.7303 134.515 34.1496 134.415 34.3207C134.021 35.0048 133.475 37.0213 133.32 37.8048C132.641 41.2475 133.356 43.3303 133.679 46.8392C133.797 48.1192 133.899 50.453 133.466 51.6503C133.229 52.3068 131.963 55.2806 131.797 55.9537C130.633 60.6682 132.934 61.8102 132.893 65.6226C133.243 67.9399 131.204 79.8764 144.821 78.1191" fill="#FCE4DE"/>
<path d="M142.25 69.5012C139.513 70.4695 139.301 73.1895 140.333 75.5674C141.45 78.1329 143.618 79.2805 146.225 79.8708C147.367 80.1301 148.498 80.4805 149.676 80.5467C151.119 80.6267 152.531 80.2239 153.864 79.7108C156.302 78.7701 157.96 77.3108 159.428 75.4488C161.011 73.4405 161.844 71.6584 161.728 69.035C161.701 68.3978 161.632 67.7164 161.455 67.1012C161.29 66.5191 160.854 65.9481 160.738 65.3605C160.606 64.6736 161.312 63.4819 161.502 62.6736C161.833 61.2529 161.635 59.8985 161.091 58.5605C160.807 57.8599 160.396 57.2033 160.123 56.5026C159.902 55.9426 159.966 55.4102 159.894 54.7702C159.629 52.395 158.606 50.2102 156.733 48.682C155.017 47.2833 152.771 46.1551 150.62 45.6365C149.373 45.3358 148.084 45.2668 146.807 45.2778C145.985 45.2833 145.149 45.2833 144.33 45.3606C144.037 45.3882 143.008 45.6227 142.843 45.5013L143.643 46.3013C143.196 45.7027 143.039 44.213 142.906 43.1592C142.708 41.5785 142.493 40.0668 142.024 38.5413C141.48 36.7675 140.76 35.0323 139.524 33.6227C138.289 32.213 136.148 30.7648 134.22 31.7386C131.555 33.0875 131.009 37.0489 130.838 39.7385C130.614 43.2558 132.015 46.7868 131.502 50.2957C131.353 51.3054 130.835 52.2737 130.457 53.2144C129.908 54.5826 129.48 55.8406 129.315 57.3192C129.149 58.7978 129.318 60.2047 129.734 61.5895C130.101 62.8143 130.567 63.9647 130.661 65.2502C130.678 65.4847 130.73 66.9578 130.683 65.7881C130.686 65.8764 130.705 65.9674 130.702 66.0584C130.694 66.2819 130.716 66.5109 130.719 66.7343C130.73 67.3853 130.727 68.0364 130.758 68.6874C130.835 70.384 131.044 72.1246 131.626 73.7274C133.687 79.3825 139.24 81.0322 144.818 80.3619C146.013 80.2184 147.044 79.4405 147.044 78.1356C147.044 77.0432 146.021 75.766 144.818 75.9094C142.926 76.1384 141.009 76.2239 139.174 75.6529C138.153 75.3329 137.083 74.5136 136.655 73.8902C135.422 72.086 135.249 70.3371 135.188 68.1109C135.169 67.3412 135.202 66.5633 135.135 65.7936C135.069 65.024 135.072 64.1909 134.849 63.1288C134.653 62.1992 134.3 61.3219 134.026 60.4143C132.884 56.6102 135.764 53.6061 135.982 49.9068C136.151 47.0654 135.431 44.3013 135.284 41.4792C135.213 40.1137 135.342 38.7951 135.687 37.4737C135.828 36.9358 135.944 36.3068 136.189 35.8075C136.3 35.5813 135.872 35.9068 136.468 35.5923L135.345 35.8958C135.913 35.8406 136.868 37.482 137.155 38.1082C137.662 39.2172 138.018 40.4723 138.244 41.6696C138.609 43.5813 138.564 45.6089 139.24 47.4516C140.404 50.6213 143.279 49.8047 145.946 49.7523C148.06 49.7109 149.814 49.882 151.74 50.8061C153.232 51.5206 154.661 52.3923 155.232 54.0309C155.646 55.2171 155.309 56.453 155.726 57.6281C156.167 58.8667 157.395 60.1274 157.21 61.5012C157.044 62.726 156.299 63.744 156.272 65.0295C156.244 66.315 156.843 67.1481 157.163 68.2957C157.762 70.4502 156.744 71.6998 155.511 73.2805C154.134 75.0432 151.502 76.4612 149.21 76.0253C148.035 75.8019 146.501 75.6281 145.464 75.0212C144.992 74.7453 144.642 74.3536 144.41 73.857C144.368 73.7688 144.316 73.4598 144.236 73.366C144.236 73.2888 144.211 73.2253 144.162 73.1729C144.209 72.5026 143.966 72.715 143.436 73.8101C146.12 72.8612 144.964 68.5578 142.253 69.5178L142.25 69.5012Z" fill="#3E3A39"/>
<path d="M150.324 53.1178C149.204 53.3578 148.073 53.6585 146.923 53.6723C145.706 53.6861 144.542 53.3054 143.339 53.2668C140.004 53.1674 138.928 56.3812 139.888 59.0653C141.825 64.4888 149.411 63.824 153.624 61.9812C154.614 61.5481 154.821 60.1191 154.335 59.2667C153.756 58.246 152.595 58.1274 151.621 58.555C150.161 59.1922 148.721 59.4681 147.146 59.344C145.88 59.2419 144.095 59.035 143.607 57.675C143.601 57.6585 143.4 57.0681 143.422 57.0019C143.276 57.4378 143.555 57.286 143.963 57.3467C144.757 57.4654 145.557 57.5923 146.363 57.6309C148.051 57.7136 149.742 57.2971 151.384 56.9467C153.88 56.4116 152.824 52.5854 150.327 53.1178H150.324Z" fill="#3E3A39"/>
<path d="M151.98 63.9426C150.073 64.9219 147.044 65.5233 145.025 64.5191C144.12 64.0695 143.615 63.195 143.235 62.3426C143.108 62.0557 142.973 62.6847 143.215 62.3095C143.191 62.3481 143.406 61.8819 143.411 61.846C143.464 61.7357 143.522 61.6281 143.585 61.5205L142.36 62.2764C142.369 62.2157 142.832 62.3647 142.893 62.3812C145.353 63.0819 146.404 59.2529 143.949 58.5523C143.022 58.2902 141.908 58.1385 141.036 58.6378C140.164 59.1371 139.795 60.1302 139.483 60.9936C138.752 63.0212 139.844 64.9219 141.174 66.3729C144.393 69.8874 150.043 69.3936 153.988 67.3688C156.261 66.2019 154.255 62.7757 151.985 63.9398L151.98 63.9426Z" fill="#3E3A39"/>
<path d="M152.156 69.3164C150.366 70.1357 148.175 70.406 146.308 69.6778C145.5 69.3633 144.694 68.9357 144.073 68.3316C143.924 68.1881 143.792 68.0005 143.632 67.8709C143.593 67.8405 142.975 67.2585 143.475 67.8791C143.442 68.1798 143.469 68.2791 143.555 68.1743C143.577 68.1522 143.599 68.1274 143.621 68.1054C143.502 68.0364 144.018 68.0502 143.706 68.0557C146.258 68.0226 146.266 64.0529 143.706 64.0861C141.795 64.1109 140.051 65.4929 139.646 67.3936C139.24 69.2943 140.959 71.104 142.451 72.1274C146.004 74.566 150.344 74.497 154.159 72.7481C156.479 71.686 154.465 68.2626 152.156 69.3191V69.3164Z" fill="#3E3A39"/>
</svg>
