<svg xmlns="http://www.w3.org/2000/svg" width="296" height="44" fill="none" viewBox="0 0 296 44"><mask id="a" width="297" height="45" x="-.893" y="-.401" fill="#000" maskUnits="userSpaceOnUse"><path fill="#fff" d="M-.893-.401h297v45h-297z"/><path d="M51.456 31.285q0 .448.05 1.395.05.92.075 1.768.024.846.024 1.892.025 1.022-.074 1.868-.075.821-.25 1.569-.173.722-.547 1.12a1.11 1.11 0 0 1-.872.399H38.507q-1.195-.921-1.195-6.873 0-2.168.024-5.205.025-3.062.025-4.358v-1.743q0-.224-.05-.847a10 10 0 0 1 0-.996q-.996 3.611-2.44 10.335-1.445 6.723-1.992 8.99-.25.697-2.291.697h-8.816q-1.619 0-1.892-.847L17.49 30.04a124 124 0 0 0-.723-3.312q-.374-1.719-.896-3.91-.524-2.19-.772-3.237-.3 7.969-.3 12.152v4.383q0 2.94.05 4.433-.149.548-.547.548H11.96q-1.47 0-4.308.025-2.84.024-4.308.025Q2 41.147 2 40.698V3.743a.66.66 0 0 1 .1-.373q.125-.175.348-.25.25-.1.473-.149.224-.05.573-.05.349-.025.573-.025.224-.024.573 0h3.386q7.098 0 9.986.2 2.914.2 4.458.199.597 3.337 1.892 9.911l1.893 9.911 3.984-20.12.2.049q.198.05.298.05 2.665 0 7.87-.075 5.204-.075 7.869-.075h3.685q.697.075.697 1.395.549 24.13.598 26.944m11.523 8.417v-.946q0-4.258.1-12.576t.1-12.575V3.294h28.985v8.94q0 .099-.025.373-.024.25-.1.349a4 4 0 0 1-.173.299.6.6 0 0 1-.25.249q-.15.075-.398.15-.25.05-.548.05h-.697q-6.45 0-11.754-.2-.05.398-.174 1.245-.1.822-.175 1.47-.05.621-.05 1.22h11.854q.747 0 .996.199.25.199.25.647 0 .124-.026.399a5 5 0 0 0-.025.398q0 1.196.075 3.536.075 2.341.075 3.536-.075.498-.399.498a.34.34 0 0 1-.249-.1q-7.868.4-11.654.4h-.647v3.585q2.215 0 6.4-.2 4.207-.198 6.3-.198 1.644 0 1.892.697v1.893q0 1.194.05 3.536.05 2.34.05 3.536 0 1.245-.996 1.245-1.295 0-3.984-.025a478 478 0 0 0-4.084-.025q-3.587 0-10.26.174-6.675.2-9.662.224l-.698-.796q-.1-.698-.1-.897m89.865-8.417q0 .448.05 1.395.05.92.075 1.768.025.846.025 1.892.025 1.022-.075 1.868-.075.821-.249 1.569-.174.722-.548 1.12a1.11 1.11 0 0 1-.871.399h-11.356q-1.195-.921-1.195-6.873 0-2.168.025-5.205.024-3.062.025-4.358v-1.743q0-.224-.05-.847a10 10 0 0 1 0-.996q-.996 3.611-2.441 10.335-1.443 6.723-1.992 8.99-.248.697-2.291.697h-8.815q-1.618 0-1.893-.847l-2.39-10.409a123 123 0 0 0-.723-3.312 198 198 0 0 0-.896-3.91l-.772-3.237q-.299 7.969-.299 12.152v4.383q0 2.94.05 4.433-.15.548-.548.548h-2.341q-1.468 0-4.308.025-2.838.024-4.308.025-1.345 0-1.345-.449V3.743q0-.225.1-.373a.68.68 0 0 1 .349-.25q.249-.1.473-.149.224-.05.573-.05.348-.025.572-.025.225-.024.573 0h3.387q7.097 0 9.986.2 2.913.2 4.457.199a637 637 0 0 0 1.893 9.911l1.892 9.911 3.985-20.12.199.049q.199.05.299.05 2.664 0 7.869-.075t7.869-.075h3.685q.698.075.698 1.395.547 24.13.597 26.944m9.83-9.413v-2.74q.249-3.485 1.519-6.35 1.27-2.888 3.212-4.855a18.5 18.5 0 0 1 4.533-3.312 21 21 0 0 1 5.354-1.992A26.8 26.8 0 0 1 183.094 2q1.643 0 3.411.274 1.793.274 3.786.872 1.992.597 3.81 1.768 1.842 1.145 3.038 2.714 2.464 3.013 3.561 6.325 1.12 3.288 1.12 7.321.075 8.418-3.685 13.547l-1.096 1.494q-1.445 1.992-4.134 3.337-2.69 1.32-5.379 1.818a28.4 28.4 0 0 1-5.428.523q-3.212 0-5.927-.647-2.714-.648-4.682-1.743a15.4 15.4 0 0 1-3.511-2.665q-1.544-1.569-2.54-3.312a20.5 20.5 0 0 1-1.619-3.785 26 26 0 0 1-.896-3.985 31 31 0 0 1-.249-3.984m19.822-9.861q-1.021 0-1.843.473a4.7 4.7 0 0 0-1.319 1.145q-.498.674-.872 1.818a16 16 0 0 0-.548 2.042q-.174.897-.274 2.291a56 56 0 0 0-.124 2.142v1.942q0 1.145.074 2.192.1 1.02.374 2.191a9.8 9.8 0 0 0 .747 2.017 4.6 4.6 0 0 0 1.27 1.445q.822.572 1.868.622 1.095 0 1.942-.349a4.9 4.9 0 0 0 1.419-.921q.573-.573.972-1.519.398-.946.597-1.818.225-.87.324-2.166.125-1.295.149-2.217.025-.946.025-2.365 0-1.047-.074-1.943a25 25 0 0 0-.2-1.992q-.149-1.096-.498-1.918a8.3 8.3 0 0 0-.846-1.568 3.27 3.27 0 0 0-1.32-1.146q-.797-.398-1.843-.398m66.308 28.687q-.547.547-2.316.648-1.743.1-4.308-.05t-2.739-.15q-1.694 0-2.441-.05h-2.49q-.548-.173-.921-1.618-.373-1.47-.747-4.184a669 669 0 0 0-.374-2.913q-.1-2.466-.797-3.237-.697-.797-2.54-.797h-1.095v12.152q-.05.3-.523.498-.474.2-1.37.25-.871.074-1.569.074a32 32 0 0 1-1.793 0 93 93 0 0 0-1.369-.025h-3.586q-3.039 0-4.582.05a7 7 0 0 1-.698-.349V3.843q0-.697 1.992-.697h21.715q5.654.15 8.592 2.689 2.963 2.54 2.963 7.172 0 6.026-6.076 8.815a7.3 7.3 0 0 1 2.017.972 7.4 7.4 0 0 1 1.494 1.344q.598.698 1.046 1.693.448.997.697 1.868t.424 2.067q.198 1.196.274 2.067l.174 2.092q.124 1.196.199 1.892v2.192q.075.398.448 1.12.399.723.498 1.071 0 .498-.199.498m-20.918-26.994q0 1.494.025 2.216t.274 1.893.747 1.668q1.046 0 1.967-.224a6.8 6.8 0 0 0 1.818-.722q.872-.498 1.37-1.47.523-.995.523-2.365 0-.772-.274-1.344a2.2 2.2 0 0 0-.797-.947 5.3 5.3 0 0 0-1.046-.548q-.498-.225-1.245-.299a16 16 0 0 0-1.146-.124 18 18 0 0 0-1.021-.025h-.597q-.373.174-.498.697-.1.523-.1 1.594m65.486-9.513q-1.569 3.139-5.877 11.281-4.282 8.118-6.474 12.676v12.45q-.125.424-.324.598-.2.2-.672.2-2.341 0-6.973.05-4.607.049-7.072.05-.897-.898-.897-2.093.1-.547.125-1.245.024-.697 0-1.768a76 76 0 0 1-.025-1.37v-1.793q0-5.951-2.49-10.707-.374-.773-.797-1.62l-.772-1.643q-.374-.796-.772-1.618l-.797-1.644a152 152 0 0 0-.747-1.618 73 73 0 0 0-.797-1.644 49 49 0 0 0-.797-1.619l-4.258-7.147q0-.324.523-.597a2.2 2.2 0 0 1 1.046-.274h6.275q1.295 0 3.885.025 2.615.024 3.885.025.348.049.772.722.423.672.871 1.818.474 1.145.922 2.44a53 53 0 0 1 .896 2.814q.448 1.544.772 2.714.349 1.17.672 2.39.349 1.221.449 1.595l4.557-14.593h14.045q.348.05.523.299.174.224.323.846"/></mask><path fill="#000" d="M51.456 31.285h2v-.035zm.05 1.395-1.997.105v.003zm.1 3.66h-2v.049zm-.075 1.868-1.987-.234-.003.027-.002.026zm-.25 1.569 1.945.47.002-.008.001-.008zm-.547 1.12-1.46-1.367-.023.025-.022.026zm-12.227.399-1.221 1.584.54.416h.68zm-1.17-12.078 2 .017zm-.026-6.948-1.998.077.002.042.003.041zm0-.996 1.995.143-3.922-.674zM32.88 40.6l1.883.672.036-.1.025-.102zm-13-.15-1.948.448.02.085.026.083zm-2.39-10.41-1.96.398.005.025.006.025zm-.722-3.312-1.954.425.003.013.003.014zM15.1 19.581l1.945-.463-3.944.388zm-.25 20.968 1.93.526.08-.291-.01-.302zM2.1 3.369.473 2.208l-.019.026-.018.027zm.35-.248.632 1.897.055-.019.055-.021zm1.045-.2v2h.071l.072-.005zm.573-.025v2h.11l.11-.012zm.573 0-.143 1.995.071.005h.072zm13.372.2-.137 1.995zm4.458.199 1.968-.353-.295-1.647H22.47zm1.892 9.911 1.965-.375-.002-.011zm1.893 9.911-1.965.375 3.927.014zm3.984-20.12.485-1.941-2.038-.51-.409 2.062zm19.922-.05.213-1.99-.106-.01h-.107zm.697 1.394h-2v.045zm.598 26.944h-2c0 .355.02.863.053 1.5l1.997-.105 1.997-.105a28 28 0 0 1-.047-1.29zm.05 1.395-1.997.108q.048.898.072 1.719l2-.06 1.999-.058a75 75 0 0 0-.077-1.817zm.075 1.768-2 .059q.024.81.024 1.833h4q0-1.069-.025-1.951zm.024 1.892-1.999.05q.02.904-.062 1.584l1.987.234 1.986.234c.08-.675.106-1.393.088-2.15zm-.074 1.868-1.992-.181a9.5 9.5 0 0 1-.205 1.295l1.948.455 1.947.454q.209-.892.294-1.842zm-.25 1.569-1.944-.47c-.03.126-.06.198-.076.233-.016.032-.016.021.014-.01l1.459 1.367 1.459 1.368c.556-.593.864-1.317 1.033-2.019zm-.547 1.12-1.505-1.316a.8.8 0 0 1 .281-.204.9.9 0 0 1 .352-.081v4a3.11 3.11 0 0 0 2.377-1.081zm-.872.399v-2H38.507v4h11.355zm-11.355 0 1.22-1.584c.194.149.19.252.106.048-.074-.181-.167-.495-.252-.986-.17-.98-.27-2.414-.27-4.351h-4c0 2.03.101 3.726.329 5.037.114.654.27 1.276.494 1.822.215.522.56 1.142 1.152 1.598zm-1.195-6.873h2q0-2.155.024-5.188l-2-.017-2-.016q-.024 3.044-.024 5.22zm.024-5.205 2 .017q.025-3.065.025-4.375h-4q0 1.28-.024 4.342zm.025-4.358h2v-1.743h-4v1.743zm0-1.743h2c0-.24-.023-.6-.056-1.006l-1.993.16-1.994.159c.034.424.043.63.043.687zm-.05-.847 1.999-.076a8 8 0 0 1-.004-.777l-1.994-.143-1.995-.142c-.025.343-.022.761-.004 1.215zm0-.996-1.928-.531c-.679 2.462-1.502 5.951-2.467 10.446l1.955.42 1.956.42c.96-4.47 1.764-7.871 2.413-10.223zm-2.44 10.335-1.955-.42c-.964 4.486-1.623 7.458-1.981 8.94l1.944.47 1.944.47c.372-1.54 1.041-4.562 2.004-9.04zm-1.992 8.99-1.884-.673c.113-.315.306-.517.447-.622.125-.094.203-.11.157-.096a2 2 0 0 1-.32.056 7 7 0 0 1-.691.032v4c.76 0 1.518-.06 2.176-.261.611-.186 1.598-.643 1.998-1.764zm-2.291.697v-2h-8.816v4h8.816zm-8.816 0v-2c-.185 0-.315-.013-.4-.026-.084-.014-.098-.026-.065-.011a.8.8 0 0 1 .236.175c.11.115.193.256.24.4l-1.903.615-1.903.616c.295.912.957 1.514 1.696 1.845.676.302 1.42.386 2.1.386zm-1.892-.847 1.95-.447-2.391-10.41-1.95.448-1.949.448 2.39 10.409zM17.49 30.04l1.96-.398q-.33-1.623-.735-3.366l-1.948.452-1.948.452q.393 1.694.71 3.258zm-.723-3.312 1.954-.425a202 202 0 0 0-.905-3.949l-1.945.464-1.946.465q.519 2.175.888 3.87zm-.896-3.91 1.945-.464-.772-3.236-1.945.463-1.946.463.772 3.239zm-.772-3.237-1.999-.075c-.2 5.32-.3 9.4-.3 12.227h4c0-2.75.098-6.771.297-12.077zm-.3 12.152h-2v4.383h4v-4.383zm0 4.383h-2c0 1.965.017 3.47.052 4.5l1.999-.067 1.999-.067c-.033-.962-.05-2.412-.05-4.366zm.05 4.433-1.929-.526c.002-.008.06-.234.304-.478a1.54 1.54 0 0 1 1.078-.448v4c.646 0 1.272-.245 1.75-.723.426-.426.625-.927.727-1.299zm-.547.548v-2H11.96v4h2.34zm-2.341 0v-2q-1.484 0-4.326.025l.018 2 .017 2q2.836-.025 4.29-.025zm-4.308.025-.018-2q-2.835.024-4.29.025v4q1.483 0 4.325-.026zm-4.308.025v-2c-.39 0-.465-.04-.376-.01.05.017.285.099.53.343.293.294.501.728.501 1.218H0c0 1.478 1.218 2.072 1.704 2.234.536.179 1.134.215 1.64.215zM2 40.698h2V3.743H0v36.955zM2 3.743h2c0 .147-.035.434-.236.736L2.1 3.369.435 2.26A2.65 2.65 0 0 0 0 3.743zm.1-.373 1.627 1.162a1.33 1.33 0 0 1-.646.486l-.633-1.897-.632-1.898c-.507.17-.99.489-1.344.984zm.348-.25.743 1.858a1 1 0 0 1 .164-.054L2.921 2.97l-.433-1.95c-.271.06-.533.145-.783.245zm.473-.149.434 1.953q-.047.008-.005.002.04-.004.144-.005v-4c-.311 0-.662.021-1.007.098zm.573-.05.143 1.995c.208-.015.347-.02.43-.02v-4c-.216 0-.459.012-.715.03zm.573-.025.22 1.988q-.023.002.035 0 .057 0 .175.007l.143-1.995.142-1.994a5 5 0 0 0-.936.007zm.573 0v2h.447v-4H4.64zm.448 0v2h2.938v-4H5.088zm2.938 0v2c4.733 0 7.999.067 9.849.195l.137-1.995.138-1.996C16.148.962 12.757.896 8.026.896zm9.986.2-.136 1.995c1.955.134 3.495.204 4.594.204v-4c-.96 0-2.392-.063-4.321-.195zm4.458.199-1.969.353a642 642 0 0 0 1.899 9.945l1.962-.387 1.963-.386q-1.294-6.568-1.887-9.878zm1.892 9.911-1.964.375 1.892 9.911 1.965-.375 1.964-.375-1.892-9.911zm1.893 9.911 1.962.389L32.2 3.385l-1.962-.389-1.962-.388-3.984 20.12zm3.984-20.12-.485 1.94h.006v.001h.004v.001h.004v.001h.004v.001h.004v.001h.004v.001h.004v.001h.004v.001h.004v.001h.004v.001h.004v.001h.004v.001h.004v.001h.004v.001h.004v.001h.004v.001h.004v.001h.004v.001h.004v.001h.004v.001h.004v.001h.004v.001h.004v.001h.004v.001h.004v.001h.003l.001.001h.003l.002.001h.003v.001h.004v.001h.003l.002.001h.003v.001h.004l.001.001h.003v.001h.004v.001h.004v.001h.003l.002.001h.003v.001h.004v.001h.004v.001h.004l.001.001h.002l.002.001h.003v.001h.003l.002.001h.003v.001h.003l.002.001h.003l.001.001h.003v.001h.004v.001h.003l.002.001.485-1.94.486-1.94h-.002v-.001h-.005v-.001h-.004v-.001h-.003l-.001-.001h-.003l-.002-.001h-.002L30.9 1.1h-.003v-.001h-.004l-.001-.001h-.003l-.001-.001h-.003v-.001h-.004l-.001-.001h-.004v-.001h-.004v-.001h-.004v-.001h-.004V1.09h-.003l-.001-.001h-.003v-.001h-.004l-.001-.001h-.003l-.001-.001h-.003l-.001-.001h-.003v-.001h-.005v-.001h-.003l-.001-.001h-.003l-.002-.001h-.003V1.08h-.007l-.001-.001h-.003v-.001h-.004v-.001h-.004v-.001h-.004v-.001h-.004l-.001-.001h-.003v-.001h-.004v-.001h-.004V1.07h-.004l-.001-.001h-.003v-.001h-.004l-.001-.001h-.003v-.001h-.004v-.001h-.004v-.001h-.004v-.001h-.004v-.001h-.004v-.001h-.004V1.06h-.008v-.001h-.004v-.001h-.004v-.001h-.004v-.001h-.001zm.2.049-.486 1.94c.161.04.46.11.784.11v-4a1.4 1.4 0 0 1 .205.014l-.018-.004zm.298.05v2q2.688 0 7.898-.075l-.029-2-.028-2q-5.201.075-7.84.075zm7.87-.075.028 2q5.2-.075 7.84-.075v-4q-2.687 0-7.897.075zm7.869-.075v2h3.685v-4h-3.685zm3.685 0-.213 1.989a1.4 1.4 0 0 1-.67-.264 1.3 1.3 0 0 1-.383-.444c-.051-.104-.056-.16-.051-.128.005.03.014.105.014.242h4c0-.563-.065-1.264-.385-1.903-.38-.761-1.104-1.374-2.099-1.48zm.697 1.395-2 .045c.366 16.091.565 25.065.598 26.935l2-.036 2-.035c-.034-1.883-.233-10.872-.598-26.955zm12.32-1.046v-2h-2v2zm28.986 0h2v-2h-2zm-.025 9.313 1.99.2.001-.01.001-.008zm-.1.349-1.6-1.2-.107.144-.081.162zm-.173.299-1.696-1.06-.021.033-.02.035zm-.648.398.392 1.962.093-.019.09-.027zm-12.999-.15.075-1.998-1.832-.069-.228 1.82zm-.174 1.246-1.979-.291-.004.025-.003.025zm-.175 1.47-1.986-.23-.004.035-.003.035zm-.05 1.22h-2v2h2zm13.199 8.715 1.978.297.022-.148v-.149zm-.648.399 1.415-1.414-.629-.629-.887.045zm-12.301.398v-2h-2v2zm0 3.586h-2v2h2zm6.4-.2-.095-1.997zm8.192.499h2v-.346l-.116-.327zm.05 5.429-2 .042zM73.438 41.17l-.052-1.999h-.008zm-9.662.224-1.505 1.317.604.691.917-.008zm-.698-.796-1.98.283.084.587.391.447zm-.1-.897h2v-.946h-4v.946zm0-.946h2q0-4.239.1-12.552l-2-.024-2-.024q-.1 8.322-.1 12.6zm.1-12.576 2 .024q.1-8.321.1-12.6h-4q0 4.24-.1 12.552zm.1-12.575h2V3.294h-4v10.31zm0-10.31v2h28.986v-4H63.178zm28.986 0h-2v8.168h4V3.295zm0 8.168h-2v.373h4v-.373zm0 .373h-2v.398h4v-.398zm0 .399h-2v-.026l-.001.036-.015.182 1.992.181 1.991.181c.016-.173.033-.384.033-.554zm-.025.373-1.99-.199.005-.033q.005-.032.025-.105c.023-.08.089-.284.26-.514l1.6 1.2 1.6 1.2c.398-.53.468-1.12.49-1.35zm-.1.349-1.788-.894-.081.133 1.696 1.06 1.696 1.06c.088-.141.189-.308.267-.465zm-.173.299-1.737-.992c.09-.157.274-.388.593-.548l.895 1.789.894 1.789c.519-.26.869-.657 1.091-1.046zm-.25.249-.894-1.789c.027-.013.036-.016.018-.01l-.097.033.575 1.915.575 1.916c.222-.067.475-.155.718-.276zm-.398.15-.392-1.962a1 1 0 0 1-.156.011v4c.309 0 .625-.026.94-.088zm-.548.05v-2h-.697v4h.697zm-.697 0v-2q-6.42 0-11.679-.199l-.075 1.999-.075 1.999q5.35.2 11.829.2zm-11.754-.2-1.984-.248c-.03.243-.086.64-.169 1.202l1.979.291 1.978.291c.084-.567.145-1 .18-1.288zm-.174 1.245-1.986-.24q-.1.826-.175 1.48l1.986.23 1.987.229q.075-.641.173-1.458zm-.175 1.47-1.993-.16q-.056.698-.056 1.38h4q0-.515.043-1.061zm-.05 1.22v2h11.854v-4H77.821zm11.854 0v2c.173 0 .238.012.23.01a1 1 0 0 1-.132-.041 1.4 1.4 0 0 1-.351-.209l1.25-1.561 1.249-1.562a2.85 2.85 0 0 0-1.231-.549 5.2 5.2 0 0 0-1.015-.088zm.996.199L89.42 19.2a1.4 1.4 0 0 1-.43-.582 1 1 0 0 1-.07-.332h4c0-.647-.189-1.56-1-2.21zm.25.647h-2c0-.017 0-.01-.003.037l-.014.18 1.991.182 1.992.18c.017-.188.033-.398.033-.579zm-.026.399-1.991-.181a7 7 0 0 0-.034.579h4c0 .017 0 .01.003-.037q.003-.062.014-.18zm-.025.398h-2c0 .83.026 2.034.076 3.6l2-.064 1.998-.064c-.05-1.555-.073-2.708-.073-3.472zm.075 3.536-1.999.064c.05 1.555.074 2.708.074 3.472h4c0-.83-.026-2.034-.076-3.6zm.075 3.536-1.978-.296a1 1 0 0 1 .047-.174c.034-.093.102-.243.232-.406a1.67 1.67 0 0 1 1.3-.626v4c.705 0 1.371-.31 1.824-.875.379-.474.503-.995.553-1.326zm-.399.498v-2a1.67 1.67 0 0 1 1.165.486l-1.414 1.415-1.414 1.414a2.34 2.34 0 0 0 1.663.685zm-.249-.1-.1-1.997c-5.24.266-9.084.396-11.554.396v4c2.577 0 6.504-.135 11.755-.4zm-11.654.4v-2h-.647v4h.647zm-.647 0h-2v3.585h4v-3.586zm0 3.585v2c1.526 0 3.697-.068 6.495-.201l-.095-1.998-.096-1.998c-2.78.133-4.875.197-6.304.197zm6.4-.2.094 1.999c2.8-.133 4.86-.197 6.206-.197v-4c-1.444 0-3.583.068-6.395.201zm6.3-.198v2q.307.001.468.025c.11.015.148.03.135.026a.8.8 0 0 1-.24-.154 1.3 1.3 0 0 1-.354-.527l1.883-.673 1.884-.673c-.348-.973-1.13-1.484-1.79-1.727-.632-.233-1.332-.297-1.986-.297zm1.892.697h-2v1.893h4v-1.893zm0 1.893h-2c0 .818.017 2.014.05 3.578l2-.042 2-.043c-.033-1.557-.05-2.718-.05-3.493zm.05 3.536-2 .042q.05 2.334.05 3.494h4c0-.819-.017-2.015-.05-3.579zm.05 3.536h-2c0 .201-.049-.018.19-.316.13-.162.3-.288.48-.363a.9.9 0 0 1 .334-.076v4c.773 0 1.67-.264 2.309-1.062.57-.713.687-1.554.687-2.183zm-.996 1.245v-2q-1.28 0-3.966-.025l-.018 2-.019 2q2.692.025 4.003.025zm-3.984-.025.018-2a477 477 0 0 0-4.102-.025v4q1.38 0 4.065.025zm-4.084-.025v-2c-2.417 0-5.858.059-10.312.175l.052 2 .052 1.999c4.444-.116 7.843-.174 10.208-.174zm-10.26.174-.06-1.999c-4.448.133-7.65.207-9.619.224l.017 2 .016 2c2.016-.017 5.255-.093 9.706-.226zm-9.662.224 1.505-1.317-.697-.796-1.506 1.317-1.505 1.317.698.797zm-.698-.796 1.98-.283a18 18 0 0 1-.079-.637c-.002-.03 0-.016 0 .023h-4c0 .304.059.755.12 1.18zm89.766-9.314h2v-.035zm.05 1.395-1.997.105v.003zm.1 3.66h-2v.049zm-.075 1.868-1.986-.234-.003.027-.003.026zm-.249 1.569 1.944.47.002-.008.002-.008zm-.548 1.12-1.459-1.367-.023.025-.023.026zm-12.227.399-1.221 1.584.54.416h.681zm-1.17-12.078 2 .017zm-.025-6.948-1.999.077.002.042.003.041zm0-.996 1.995.143-3.923-.674zM134.267 40.6l1.884.672.035-.1.025-.102zm-12.999-.15-1.949.448.02.085.026.083zm-2.39-10.409-1.96.398.005.025.005.025zm-.723-3.312-1.954.425.003.013.003.014zm-1.668-7.147 1.946-.463-3.945.388zm-.249 20.968 1.93.526.079-.291-.01-.302zm-12.75-37.18-1.627-1.162-.019.026-.018.027zm.349-.248.632 1.897.056-.019.054-.021zm1.046-.2v2h.071l.071-.005zm.572-.025v2h.111l.11-.012zm.573 0-.142 1.995.071.005h.071zm13.373.2-.138 1.995h.001zm4.457.199 1.969-.353-.295-1.647h-1.674zm1.893 9.911 1.964-.375-.002-.011zm1.892 9.911-1.964.375 3.926.014zm3.985-20.12.485-1.941-2.039-.51-.408 2.062zm19.921-.05.214-1.99-.107-.01h-.107zm.698 1.394h-2v.045zm.597 26.944h-2c0 .355.019.863.053 1.5l1.997-.105 1.997-.105a29 29 0 0 1-.047-1.29zm.05 1.395-1.997.108q.05.898.073 1.719l1.999-.06 1.999-.058a74 74 0 0 0-.077-1.817zm.075 1.768-1.999.059q.024.81.024 1.833h4q0-1.069-.026-1.951zm.025 1.892-2 .05a11 11 0 0 1-.061 1.584l1.986.234 1.986.234q.118-1.013.088-2.15zm-.075 1.868-1.992-.181a9.4 9.4 0 0 1-.205 1.295l1.948.455 1.948.454q.207-.892.293-1.842zm-.249 1.569-1.944-.47c-.03.126-.06.198-.077.233-.016.032-.015.021.014-.01l1.459 1.367 1.459 1.368c.556-.593.864-1.317 1.033-2.019zm-.548 1.12-1.505-1.316a.8.8 0 0 1 .282-.204.9.9 0 0 1 .352-.081v4c.933 0 1.77-.388 2.376-1.081zm-.871.399v-2h-11.356v4h11.356zm-11.356 0 1.221-1.584c.193.149.19.252.106.048-.075-.181-.167-.495-.253-.986-.17-.98-.269-2.414-.269-4.351h-4c0 2.03.1 3.726.328 5.037.114.654.27 1.276.495 1.822.214.522.56 1.142 1.151 1.598zm-1.195-6.873h2q0-2.155.025-5.188l-2-.017-2-.016q-.025 3.044-.025 5.22zm.025-5.205 2 .017q.024-3.065.025-4.375h-4q0 1.28-.025 4.342zm.025-4.358h2v-1.743h-4v1.743zm0-1.743h2c0-.24-.024-.6-.056-1.006l-1.994.16-1.994.159c.034.424.044.63.044.687zm-.05-.847 1.998-.076a8 8 0 0 1-.003-.777l-1.995-.143-1.995-.142c-.025.343-.021.761-.004 1.215zm0-.996-1.928-.531c-.68 2.462-1.502 5.951-2.468 10.446l1.955.42 1.956.42c.96-4.47 1.764-7.871 2.413-10.223zm-2.441 10.335-1.955-.42c-.964 4.486-1.622 7.458-1.981 8.94l1.944.47 1.944.47c.372-1.54 1.042-4.562 2.004-9.04zm-1.992 8.99-1.883-.673c.112-.315.306-.517.447-.622.125-.094.202-.11.157-.096a2 2 0 0 1-.32.056q-.263.031-.692.032v4c.76 0 1.519-.06 2.176-.261.612-.186 1.598-.643 1.999-1.764zm-2.291.697v-2h-8.815v4h8.815zm-8.815 0v-2a3 3 0 0 1-.4-.026c-.085-.014-.099-.026-.066-.011a.8.8 0 0 1 .236.175c.111.115.194.256.24.4l-1.903.615-1.903.616c.295.912.958 1.514 1.697 1.845.676.302 1.419.386 2.099.386zm-1.893-.847 1.949-.447-2.39-10.41-1.949.448-1.95.448 2.391 10.409zm-2.39-10.409 1.96-.398q-.33-1.623-.734-3.366l-1.949.452-1.948.452q.393 1.694.711 3.258zm-.723-3.312 1.955-.425a206 206 0 0 0-.906-3.949l-1.945.464-1.945.465q.52 2.175.887 3.87zm-.896-3.91 1.945-.464-.771-3.236-1.946.463-1.946.463.773 3.239zm-.772-3.237-1.999-.075c-.199 5.32-.3 9.4-.3 12.227h4c0-2.75.099-6.771.298-12.077zm-.299 12.152h-2v4.383h4v-4.383zm0 4.383h-2c0 1.965.017 3.47.051 4.5l1.999-.067 1.999-.067c-.032-.962-.049-2.412-.049-4.366zm.05 4.433-1.93-.526c.002-.008.061-.234.304-.478a1.54 1.54 0 0 1 1.078-.448v4a2.46 2.46 0 0 0 1.751-.723c.425-.426.625-.927.727-1.299zm-.548.548v-2h-2.341v4h2.341zm-2.341 0v-2q-1.483 0-4.325.025l.017 2 .018 2a530 530 0 0 1 4.29-.025zm-4.308.025-.017-2q-2.835.024-4.291.025v4q1.484 0 4.326-.026zm-4.308.025v-2c-.39 0-.465-.04-.376-.01.05.017.285.099.53.343.293.294.501.728.501 1.218h-4c0 1.478 1.219 2.072 1.704 2.234.537.179 1.134.215 1.641.215zm-1.345-.449h2V3.743h-4v36.955zm0-36.955h2c0 .147-.035.434-.236.736l-1.664-1.11-1.664-1.109a2.66 2.66 0 0 0-.436 1.483zm.1-.373 1.627 1.162a1.33 1.33 0 0 1-.646.486l-.632-1.897-.633-1.898a2.68 2.68 0 0 0-1.343.984zm.349-.25.742 1.858c.082-.033.136-.048.165-.054l-.434-1.953-.434-1.952c-.271.06-.532.145-.782.245zm.473-.149.434 1.953q-.047.008-.006.002.04-.004.145-.005v-4c-.312 0-.662.021-1.007.098zm.573-.05.142 1.995c.208-.015.347-.02.43-.02v-4c-.215 0-.458.012-.715.03zm.572-.025.221 1.988c-.015.002-.006 0 .035 0q.057 0 .175.007l.142-1.995.143-1.994a5 5 0 0 0-.937.007zm.573 0v2h.448v-4h-.448zm.448 0v2h2.939v-4h-2.939zm2.939 0v2c4.732 0 7.998.067 9.848.195l.138-1.995.137-1.996c-2.002-.138-5.393-.204-10.123-.204zm9.986.2-.137 1.995c1.956.134 3.496.204 4.594.204v-4c-.96 0-2.392-.063-4.321-.195zm4.457.199-1.969.353c.402 2.242 1.036 5.56 1.899 9.945l1.963-.387 1.962-.386q-1.294-6.568-1.886-9.878zm1.893 9.911-1.965.375 1.893 9.911 1.964-.375 1.965-.375-1.893-9.911zm1.892 9.911 1.962.389 3.985-20.121-1.962-.389-1.962-.388-3.985 20.12zm3.985-20.12-.485 1.94h.006v.001h.004v.001h.004v.001h.004v.001h.004v.001h.004v.001h.004v.001h.004v.001h.004v.001h.004v.001h.004v.001h.004v.001h.004v.001h.003l.001.001h.004v.001h.004v.001h.004v.001h.004v.001h.003l.001.001h.004v.001h.003l.001.001h.003l.001.001h.004v.001h.003l.001.001h.003l.001.001h.003l.001.001h.003l.001.001h.003l.001.001h.004v.001h.004v.001h.003l.001.001h.004v.001h.004v.001h.003l.001.001h.003l.001.001h.003l.001.001h.003l.001.001h.003l.001.001h.004v.001h.004v.001h.003l.001.001h.004v.001h.003l.001.001h.004v.001h.003l.001.001h.004l.001.001h.003v.001h.003l.001.001h.003l.001.001h.001l.485-1.94.485-1.94h-.002v-.001h-.004l-.001-.001h-.003l-.001-.001h-.003l-.001-.001h-.003l-.001-.001h-.003l-.001-.001h-.003V1.1h-.004l-.001-.001h-.003l-.001-.001h-.003l-.001-.001h-.003l-.001-.001h-.003l-.001-.001h-.003l-.001-.001h-.003l-.001-.001h-.003l-.001-.001h-.003l-.001-.001h-.003l-.001-.001h-.003l-.001-.001h-.003l-.001-.001h-.003l-.001-.001h-.003l-.001-.001h-.003l-.001-.001h-.003l-.001-.001h-.003l-.001-.001h-.003l-.001-.001h-.003V1.08h-.004l-.001-.001h-.003v-.001h-.004l-.001-.001h-.003l-.001-.001h-.003v-.001h-.004l-.001-.001h-.003v-.001h-.004l-.001-.001h-.003V1.07h-.004l-.001-.001h-.003v-.001h-.004l-.001-.001h-.003v-.001h-.004v-.001h-.004l-.001-.001h-.003v-.001h-.004v-.001h-.004v-.001h-.004V1.06h-.008v-.001h-.004v-.001h-.004v-.001h-.004v-.001h-.001zm.199.049-.485 1.94c.161.04.459.11.784.11v-4a2 2 0 0 1 .204.014l-.018-.004zm.299.05v2q2.688 0 7.898-.075l-.029-2-.029-2q-5.2.075-7.84.075zm7.869-.075.029 2a594 594 0 0 1 7.84-.075v-4q-2.688 0-7.898.075zm7.869-.075v2h3.685v-4h-3.685zm3.685 0-.213 1.989a1.4 1.4 0 0 1-.669-.264 1.26 1.26 0 0 1-.383-.444c-.052-.104-.057-.16-.052-.128.005.03.015.105.015.242h4c0-.563-.066-1.264-.386-1.903-.38-.761-1.104-1.374-2.098-1.48zm.698 1.395-2 .045c.366 16.091.565 25.065.598 26.935l1.999-.036 2-.035c-.033-1.883-.233-10.872-.598-26.955zm10.427 14.792-1.995-.143-.005.072v.07zm1.519-6.35 1.828.81.003-.005zm3.212-4.856-1.414-1.414-.009.009zm4.533-3.312.928 1.771.007-.003.007-.004zm5.354-1.992L176.86.67h-.004zm9.213-.35-.306 1.977.004.001zm7.596 2.64-1.083 1.682.013.009.014.008zm3.038 2.715-1.591 1.212.021.028.022.026zm3.561 6.325-1.899.628.003.009.003.008zm1.12 7.321h-2v.018zm-3.685 13.547 1.613 1.183zm-1.096 1.494-1.613-1.182-.006.008zm-4.134 3.337.881 1.796.007-.004.007-.003zm-5.379 1.818-.364-1.966-.009.001-.008.002zm-22.088-7.844-1.747.973.005.01.006.01zm-1.619-3.785-1.913.583.004.01.003.011zm-.896-3.985-1.984.255.002.012.001.013zm17.73-13.372-.998-1.733-.011.006-.012.007zm-1.319 1.145-1.579-1.227-.015.018-.014.019zm-.872 1.818 1.897.633.004-.013zm-.548 2.042 1.963.382.002-.01zm-.274 2.291 1.995.145v-.002zm-.124 2.142-1.999-.065-.001.033v.032zm.074 4.134-1.995.142.002.026.003.026zm.374 2.191-1.947.456.005.024.007.025zm.747 2.017-1.779.915.016.03.017.03zm1.27 1.445-1.2 1.6.028.02.028.02zm1.868.622-.095 1.998.047.002h.048zm1.942-.349.762 1.85.023-.01.022-.01zm1.419-.921 1.383 1.445.016-.015.016-.016zm1.569-3.337-1.937-.498-.006.026-.006.027zm.324-2.166-1.991-.192-.002.02-.001.018zm.149-2.217 2 .054v-.001zm-.049-4.308-1.997.111.001.028.003.027zm-.698-3.91-1.849.762.004.01.004.01zm-.846-1.568-1.664 1.11.008.012.009.013zm-1.32-1.146-.895 1.789.011.005.011.006zm-21.665 9.463h2v-2.74h-4v2.74zm0-2.74 1.995.143c.151-2.12.609-4.007 1.352-5.681l-1.828-.811-1.828-.811c-.951 2.144-1.505 4.49-1.686 7.018zm1.519-6.35 1.831.806c.762-1.734 1.703-3.14 2.805-4.256l-1.424-1.405-1.423-1.405c-1.489 1.507-2.689 3.338-3.62 5.456zm3.212-4.855 1.415 1.414a16.5 16.5 0 0 1 4.046-2.955l-.928-1.771-.929-1.772a20.5 20.5 0 0 0-5.018 3.67zm4.533-3.312.942 1.764a19 19 0 0 1 4.847-1.804l-.435-1.952-.436-1.952a23 23 0 0 0-5.861 2.18zm5.354-1.992.432 1.952a24.8 24.8 0 0 1 5.37-.575V0q-3.2-.001-6.234.67zM183.094 2v2q1.476-.001 3.105.25l.306-1.976.307-1.976A24 24 0 0 0 183.094 0zm3.411.274-.302 1.977a26 26 0 0 1 3.513.81l.575-1.915.574-1.916a30 30 0 0 0-4.058-.933zm3.786.872-.575 1.915c1.142.343 2.241.851 3.302 1.534l1.083-1.681 1.082-1.682a17 17 0 0 0-4.318-2.002zm3.81 1.768-1.056 1.698c1.043.648 1.867 1.394 2.503 2.228l1.591-1.212 1.591-1.212c-.959-1.258-2.159-2.322-3.574-3.201zm3.038 2.714-1.548 1.266c1.506 1.842 2.565 3.737 3.21 5.687l1.899-.628 1.899-.628c-.816-2.466-2.132-4.787-3.912-6.964zm3.561 6.325-1.893.646c.666 1.953 1.013 4.17 1.013 6.675h4c0-2.874-.399-5.536-1.227-7.966zm1.12 7.321-2 .018c.048 5.319-1.118 9.372-3.298 12.347l1.613 1.182 1.613 1.183c2.833-3.865 4.125-8.843 4.072-14.747zm-3.685 13.547-1.613-1.182-1.096 1.494 1.613 1.182 1.613 1.183 1.096-1.494zm-1.096 1.494-1.619-1.173c-.737 1.016-1.841 1.937-3.409 2.721l.894 1.79.895 1.788c2.017-1.009 3.669-2.312 4.858-3.952zm-4.134 3.337-.881-1.795c-1.644.807-3.264 1.35-4.862 1.647l.364 1.966.365 1.967c1.988-.368 3.954-1.037 5.895-1.99zm-5.379 1.818-.381-1.963a26.4 26.4 0 0 1-5.047.486v4q2.931 0 5.81-.56zm-5.428.523v-2c-2.009 0-3.826-.202-5.463-.593l-.464 1.946-.464 1.945c1.982.473 4.116.702 6.391.702zm-5.927-.647.464-1.946c-1.672-.399-3.054-.922-4.173-1.545l-.973 1.748-.973 1.747c1.504.838 3.244 1.477 5.191 1.941zm-4.682-1.743.973-1.748a13.4 13.4 0 0 1-3.058-2.32l-1.426 1.403-1.425 1.403a17.4 17.4 0 0 0 3.963 3.009zm-3.511-2.665 1.426-1.403c-.92-.935-1.659-1.902-2.229-2.901l-1.737.992-1.736.992a18 18 0 0 0 2.851 3.723zm-2.54-3.312 1.747-.973a18.5 18.5 0 0 1-1.459-3.417l-1.907.605-1.906.604a22.4 22.4 0 0 0 1.778 4.154zm-1.619-3.785 1.913-.583a24 24 0 0 1-.829-3.68l-1.98.278-1.981.28a28.4 28.4 0 0 0 .964 4.288zm-.896-3.985 1.984-.254a29 29 0 0 1-.233-3.73h-4q0 2.165.265 4.239zm19.573-13.845v-2a5.6 5.6 0 0 0-2.841.74l.998 1.733.998 1.733c.221-.127.487-.206.845-.206zm-1.843.473-1.021-1.72a6.7 6.7 0 0 0-1.877 1.638l1.579 1.227 1.578 1.228c.182-.234.427-.454.762-.653zm-1.319 1.145-1.608-1.19c-.503.68-.876 1.502-1.165 2.388l1.901.62 1.901.62c.209-.64.417-1.03.578-1.247zm-.872 1.818-1.897-.632a18 18 0 0 0-.616 2.303l1.965.371 1.965.372a14 14 0 0 1 .48-1.781zm-.548 2.042-1.963-.381c-.137.706-.236 1.557-.306 2.53l1.995.142 1.995.143c.063-.887.147-1.563.242-2.052zm-.274 2.291-1.995-.145c-.067.923-.11 1.668-.128 2.222l1.999.065 1.999.064a53 53 0 0 1 .12-2.06zm-.124 2.142h-2v1.942h4v-1.942zm0 1.942h-2q0 1.21.079 2.334l1.995-.142 1.995-.143a29 29 0 0 1-.069-2.049zm.074 2.192-1.99.194q.116 1.173.417 2.453l1.947-.456 1.947-.456a15 15 0 0 1-.33-1.93zm.374 2.191-1.935.505c.229.877.525 1.692.903 2.427l1.779-.915 1.779-.915a8 8 0 0 1-.591-1.607zm.747 2.017-1.746.976a6.6 6.6 0 0 0 1.816 2.069l1.2-1.6 1.2-1.6a2.6 2.6 0 0 1-.724-.82zm1.27 1.445-1.144 1.64c.872.608 1.861.93 2.917.98l.095-1.998.095-1.998a1.5 1.5 0 0 1-.819-.265zm1.868.622v2c.941 0 1.855-.15 2.704-.5l-.762-1.849-.761-1.849c-.281.116-.662.198-1.181.198zm1.942-.349.807 1.83a6.9 6.9 0 0 0 1.995-1.306l-1.383-1.445-1.382-1.445c-.188.18-.457.366-.844.537zm1.419-.921 1.415 1.414c.606-.606 1.06-1.349 1.4-2.157l-1.843-.776-1.844-.776c-.191.454-.385.724-.542.88zm.972-1.519 1.843.776c.304-.722.542-1.439.704-2.148l-1.95-.446-1.949-.445a9 9 0 0 1-.492 1.487zm.597-1.818 1.937.498c.188-.731.309-1.578.381-2.511l-1.994-.153-1.994-.154c-.061.794-.156 1.392-.267 1.822zm.324-2.166 1.991.191c.086-.892.14-1.68.158-2.354l-2-.054-1.999-.054q-.021.83-.141 2.08zm.149-2.217 2 .053q.025-.983.025-2.418h-4q0 1.403-.024 2.313zm.025-2.365h2q0-1.117-.081-2.109l-1.993.166-1.993.166q.066.802.067 1.777zm-.074-1.943 1.997-.11q-.057-.993-.215-2.152l-1.982.27-1.981.27q.14 1.034.184 1.833zm-.2-1.992 1.982-.27c-.118-.866-.323-1.684-.638-2.429l-1.842.781-1.841.782c.149.35.277.812.358 1.406zm-.498-1.918 1.85-.761q-.426-1.037-1.05-1.943l-1.646 1.136-1.647 1.135q.372.538.644 1.195zm-.846-1.568 1.664-1.11a5.27 5.27 0 0 0-2.112-1.835l-.872 1.8-.873 1.799c.233.113.398.259.529.455zm-1.32-1.146.894-1.789c-.853-.426-1.783-.61-2.737-.61v4c.441 0 .739.084.948.188zm64.465 28.29v-2h-.828l-.586.585zm-2.316.647-.112-1.997h-.002zm-9.488-.25.133-1.995-.066-.004H237zm-2.49 0-.606 1.907.296.094h.31zm-.921-1.618-1.939.493.002.008zm-.747-4.184-1.984.253.001.01.001.01zm-.374-2.913-1.998.08.004.102.014.1zm-.797-3.237-1.505 1.317.011.011.01.012zm-3.635-.797v-2h-2v2zm0 12.152 1.972.329.028-.163v-.166zm-1.893.747-.111-1.997-.03.002-.03.002zm-1.569.075v-2h-.037l-.037.001zm-11.33.025-.788 1.838.408.175.444-.014zm-.698-.349h-2v1.16l1.008.577zm23.707-37.851.053-2h-.053zm8.592 2.689-1.308 1.513.006.005zm-3.113 15.987-.834-1.817-4.743 2.177 4.983 1.55zm3.511 2.316-1.541 1.275.011.014.012.013zm2.167 5.628-1.979.289.002.02.004.02zm.448 4.159-1.994.163.002.022.003.022zm.199 1.892h2v-.106l-.011-.107zm0 2.192h-2v.186l.034.182zm.448 1.12-1.776.92.012.023.013.024zm.498 1.071h2v-.28l-.077-.27zm-20.071-20.719-1.414 1.415.586.585h.828zm1.967-.224-.461-1.946-.011.003zm3.188-2.191-1.771-.93-.004.009-.005.008zm.249-3.71-1.818.833.007.015.007.014zm-1.843-1.495-.821 1.824.054.024.055.021zm-1.245-.299-.273 1.982.037.005.037.004zm-2.764-.149v-2h-.444l-.402.188zm-.498.697-1.946-.463-.01.044-.009.045zm20.818 28.588-1.414-1.414c.159-.159.244-.138.023-.076-.199.055-.531.112-1.037.14l.112 1.998.113 1.997c.672-.038 1.315-.123 1.889-.283.55-.154 1.204-.423 1.728-.948zm-2.316.648-.114-1.997c-1.059.06-2.412.047-4.078-.05l-.116 1.997-.116 1.996c1.754.103 3.273.123 4.538.05zm-4.308-.05.116-1.997c-1.651-.096-2.662-.152-2.855-.152v4c-.013 0 .165.007.663.034l1.96.111zm-2.739-.15v-2c-1.126 0-1.881-.017-2.308-.045L237 41.097l-.133 1.995c.57.038 1.442.055 2.574.055zm-2.441-.05v-2h-2.49v4H237zm-2.49 0 .607-1.905c.264.084.437.22.527.307.085.083.112.139.1.117a1.4 1.4 0 0 1-.082-.189 5 5 0 0 1-.137-.449l-1.936.501-1.937.5c.146.564.339 1.13.616 1.616.256.45.753 1.127 1.636 1.408zm-.921-1.618 1.938-.493c-.221-.871-.458-2.179-.704-3.963l-1.981.272-1.982.273c.253 1.835.514 3.316.79 4.404zm-.747-4.184 1.984-.252c-.231-1.81-.358-2.808-.378-2.944l-1.98.283-1.98.283.003.016.006.046.02.16.073.565.268 2.096zm-.374-2.913 1.999-.08c-.037-.9-.13-1.725-.306-2.44-.169-.687-.457-1.45-1.006-2.058l-1.484 1.34-1.484 1.341c-.084-.093-.006-.059.09.333.09.363.163.9.193 1.645zm-.797-3.237 1.505-1.317c-1.047-1.198-2.644-1.48-4.045-1.48v4c.483 0 .787.053.958.107.162.051.142.08.077.007zm-2.54-.797v-2h-1.095v4h1.095zm-1.095 0h-2v12.152h4V28.347zm0 12.152-1.973-.329c.067-.405.273-.689.438-.845.145-.139.257-.18.235-.171l.777 1.843.776 1.843c.502-.211 1.512-.768 1.719-2.012zm-.523.498-.777-1.843c.015-.006-.028.013-.16.037a5 5 0 0 1-.544.058l.111 1.997.111 1.997c.682-.038 1.406-.138 2.035-.403zm-1.37.25-.171-1.994q-.806.07-1.398.068v4q.802-.001 1.74-.082zm-1.569.074-.074-1.999c-.391.015-.945.015-1.674 0l-.045 1.999-.044 2c.764.016 1.406.017 1.911-.002zm-1.793 0 .045-2a92 92 0 0 0-1.414-.025v4c.138 0 .568.008 1.325.024zm-1.369-.025v-2h-3.586v4h3.586zm-3.586 0v-2c-2.031 0-3.584.017-4.647.05l.065 2 .064 1.999a153 153 0 0 1 4.518-.05zm-4.582.05.787-1.839a5 5 0 0 1-.492-.246l-.993 1.736-.992 1.737q.442.253.902.45zm-.698-.349h2V3.843h-4v37.154zm0-37.154h2a1.57 1.57 0 0 1-.427 1.074 1.1 1.1 0 0 1-.414.29c-.018.007.035-.013.194-.031.152-.018.362-.03.639-.03v-4c-.726 0-1.497.056-2.154.286a2.9 2.9 0 0 0-1.161.726 2.42 2.42 0 0 0-.677 1.685zm1.992-.697v2h21.715v-4h-21.715zm21.715 0-.053 1.999c3.512.093 5.856.923 7.337 2.203l1.308-1.513 1.308-1.513c-2.438-2.107-5.821-3.07-9.847-3.176zm8.592 2.689-1.302 1.518c1.449 1.242 2.265 3.03 2.265 5.654h4c0-3.552-1.159-6.545-3.662-8.69zm2.963 7.172h-2c0 1.656-.411 2.988-1.166 4.082-.763 1.107-1.966 2.1-3.744 2.916l.834 1.817.834 1.818c2.272-1.043 4.107-2.45 5.37-4.281 1.271-1.844 1.872-3.99 1.872-6.352zm-6.076 8.815-.594 1.91a5.3 5.3 0 0 1 1.47.704l1.141-1.642 1.141-1.643a9.3 9.3 0 0 0-2.564-1.238zm2.017.972-1.141 1.642c.472.328.829.657 1.094.977l1.541-1.275 1.541-1.275a9.4 9.4 0 0 0-1.894-1.712zm1.494 1.344-1.518 1.302c.253.295.505.69.74 1.212l1.824-.82 1.824-.821a9 9 0 0 0-1.351-2.174zm1.046 1.693-1.824.821c.267.594.463 1.125.598 1.597l1.923-.55 1.923-.55a16 16 0 0 0-.796-2.138zm.697 1.868-1.923.55c.135.472.26 1.07.368 1.806l1.979-.289 1.979-.288a18 18 0 0 0-.48-2.328zm.424 2.067-1.973.329c.127.763.21 1.396.254 1.909l1.993-.171 1.992-.17a28 28 0 0 0-.294-2.226zm.274 2.067-1.993.17q.074.867.173 2.084l1.994-.162 1.993-.163q-.1-1.223-.175-2.1zm.174 2.092-1.989.207.199 1.898 1.989-.213 1.989-.213q-.075-.693-.199-1.886zm.199 1.892h-2v2.192h4v-2.192zm0 2.192-1.966.368c.106.566.37 1.154.638 1.671l1.776-.919 1.777-.918a6 6 0 0 1-.219-.466c-.047-.118-.048-.146-.04-.105zm.448 1.12-1.751.967c.119.215.204.381.262.506.062.134.072.175.064.148l1.923-.55 1.923-.55c-.134-.468-.399-.997-.67-1.487zm.498 1.071h-2c0 .092-.017-.092.094-.37.062-.155.205-.442.514-.7a1.87 1.87 0 0 1 1.193-.432v4c.489 0 .974-.166 1.368-.494a2.2 2.2 0 0 0 .638-.888c.178-.442.193-.875.193-1.116zm-21.117-26.496h-2c0 1 .008 1.768.026 2.285l1.999-.069 1.999-.069a70 70 0 0 1-.024-2.147zm.025 2.216-1.999.07c.023.648.14 1.408.317 2.24l1.956-.417 1.956-.416c-.155-.73-.22-1.232-.231-1.545zm.274 1.893-1.956.416c.196.924.553 1.93 1.289 2.667l1.414-1.415 1.414-1.414c.049.05.029.05-.024-.069a3 3 0 0 1-.181-.601zm.747 1.668v2c.84 0 1.656-.09 2.44-.28l-.473-1.944-.472-1.943a6.3 6.3 0 0 1-1.495.167zm1.967-.224.461 1.946a8.8 8.8 0 0 0 2.349-.931l-.992-1.737-.992-1.736q-.63.358-1.287.512zm1.818-.722.992 1.737c.948-.542 1.665-1.332 2.157-2.293l-1.779-.913-1.78-.913c-.171.334-.367.523-.582.646zm1.37-1.47 1.771.93c.528-1.006.752-2.128.752-3.295h-4c0 .659-.125 1.115-.294 1.436zm.523-2.365h2c0-.75-.134-1.504-.47-2.207l-1.804.862-1.804.863c.029.06.078.203.078.482zm-.274-1.344 1.818-.834a4.2 4.2 0 0 0-1.506-1.777l-1.109 1.664-1.109 1.664c.025.017.052.038.088.116zm-.797-.947 1.109-1.664a7.3 7.3 0 0 0-1.443-.753l-.712 1.87-.712 1.868c.193.074.409.184.649.343zm-1.046-.548.821-1.824c-.587-.264-1.229-.4-1.867-.465l-.199 1.99-.199 1.99c.358.036.547.099.623.133zm-1.245-.299.273-1.98c-.502-.07-.943-.12-1.301-.14l-.118 1.996-.117 1.996c.206.013.529.046.99.11zm-1.146-.124.118-1.997q-.502-.029-1.139-.028v4q.56 0 .904.021zm-1.021-.025v-2h-.597v4h.597zm-.597 0-.846-1.812c-.962.449-1.42 1.299-1.598 2.046l1.946.463 1.945.464a.8.8 0 0 1-.131.263c-.109.153-.27.295-.47.389zm-.498.697-1.965-.374c-.103.541-.135 1.228-.135 1.968h4c0-.687.035-1.064.064-1.22zm65.386-7.919 1.789.895.326-.652-.17-.71zm-5.877 11.281-1.767-.935-.002.002zm-6.474 12.676-1.803-.867-.197.41v.457zm0 12.45 1.918.565.082-.276v-.288zm-.324.598-1.317-1.505-.05.044-.047.047zm-7.645.25-.022-2zm-7.072.05-1.414 1.413.585.586h.829zm-.897-2.093-1.967-.358-.033.178v.18zm-2.39-16.883-1.801.87.014.03.015.027zm-.797-1.62-1.81.853.01.021.011.021zm-2.341-4.905-1.821.828.01.022.011.023zm-1.544-3.262-1.81.851.01.022.011.021zm-.797-1.619 1.777-.917-.028-.054-.031-.052zm-4.258-7.147h-2v.55l.282.474zm11.729-.846-.019 2zm3.885.025.282-1.98-.14-.02h-.142zm1.643 2.54-1.862.728.006.018.008.017zm.922 2.44-1.89.654.004.012zm1.668 5.528-1.928.534.006.018.005.02zm.672 2.39-1.933.514.005.018.005.018zm.449 1.595-1.933.515 1.781 6.679 2.061-6.598zm4.557-14.593v-2h-1.471l-.438 1.404zm14.045 0 .282-1.98-.14-.02h-.142zm.523.299-1.639 1.147.029.04.031.04zm.323.846-1.789-.894c-1.034 2.069-2.983 5.81-5.855 11.24l1.767.935 1.768.935c2.872-5.427 4.841-9.206 5.898-11.321zm-5.877 11.281-1.769-.933c-2.859 5.42-5.031 9.67-6.508 12.742l1.803.867 1.802.866c1.445-3.004 3.59-7.204 6.441-12.609zm-6.474 12.676h-2v12.45h4v-12.45zm0 12.45-1.919-.564c-.013.044-.012.027.017-.027.029-.053.106-.18.261-.316l1.317 1.505 1.317 1.505c.551-.482.799-1.109.925-1.538zm-.324.598-1.414-1.414c.22-.22.448-.315.578-.354.124-.037.191-.032.164-.032v4c.506 0 1.392-.091 2.086-.785zm-.672.2v-2q-2.359 0-6.995.05l.022 2 .022 2q4.627-.05 6.951-.05zm-6.973.05-.022-2q-4.603.05-7.05.05v4q2.482-.001 7.094-.05zm-7.072.05 1.414-1.415c-.248-.248-.311-.446-.311-.678h-4c0 1.362.535 2.559 1.483 3.506zm-.897-2.093 1.968.358c.087-.48.136-.993.155-1.531l-1.998-.072-1.999-.071a7 7 0 0 1-.093.958zm.125-1.245 1.998.072a33 33 0 0 0 .001-1.886l-1.999.046-2 .047c.016.693.016 1.24.001 1.65zm0-1.768 1.999-.046a75 75 0 0 1-.024-1.324h-4c0 .228.009.71.025 1.417zm-.025-1.37h2v-1.793h-4v1.794zm0-1.793h2c0-4.255-.893-8.148-2.719-11.635l-1.771.928-1.772.927c1.494 2.855 2.262 6.1 2.262 9.78zm-2.49-10.707 1.8-.872q-.38-.784-.808-1.642l-1.789.895-1.789.894q.418.837.785 1.596zm-.797-1.62 1.809-.85-.77-1.642-1.811.85-1.811.848.773 1.646zm-.772-1.643 1.811-.849q-.38-.809-.784-1.642l-1.799.873-1.8.872q.393.81.761 1.595zm-.772-1.618 1.799-.873-.001-.003-.002-.003-.001-.004-.002-.003-.001-.003-.002-.003-.001-.003-.002-.004-.002-.003-.001-.003-.002-.003-.001-.003-.002-.004-.001-.003-.002-.003-.001-.003-.002-.003-.002-.004-.001-.003-.002-.003-.001-.003-.002-.004-.001-.003-.002-.003-.001-.003-.002-.003-.002-.003-.001-.004-.002-.003-.001-.003-.002-.003-.001-.004-.002-.003-.001-.003-.002-.003-.002-.003-.001-.004-.002-.003-.001-.003-.002-.003-.001-.004-.002-.003-.001-.003-.002-.003-.002-.003-.001-.003-.002-.004-.001-.003-.002-.003-.001-.003-.002-.004-.002-.003-.001-.003-.002-.003-.001-.003-.002-.004-.001-.003-.002-.003-.001-.003-.002-.004-.002-.003-.001-.003-.002-.003-.001-.003-.002-.003-.001-.004-.002-.003-.001-.003-.002-.003-.002-.004-.001-.003-.002-.003-.001-.003-.002-.003-.001-.004-.002-.003-.001-.003-.002-.003-.002-.003-.001-.004-.002-.003-.001-.003-.002-.003-.001-.003-.002-.004-.001-.003-.002-.003-.002-.003-.001-.004-.002-.003-.001-.003-.002-.003-.001-.003-.002-.004-.001-.003-.002-.003-.002-.003-.001-.003-.002-.004-.001-.003-.002-.003-.001-.003-.002-.003-.001-.004-.002-.003-.002-.003-.001-.003-.002-.004-.001-.003-.002-.003-.001-.003-.002-.003-.001-.004-.002-.003-.002-.003-.001-.003-.002-.003-.001-.004-.002-.003-.001-.003-.002-.003-.001-.003-.002-.004-.002-.003-.001-.003-.002-.003-.001-.004-.002-.003-.001-.003-.002-.003-.001-.003-.002-.004-.002-.003-.001-.003-.002-.003-.001-.003-.002-.004-.001-.003-.002-.003-.001-.003-.002-.003-.002-.004-.001-.003-.002-.003-.001-.003-.002-.003-.001-.004-.002-.003-.001-.003-.002-.003-.002-.004-.001-.003-.002-.003-.001-.003-.002-.003-.001-.004-.002-.003-.001-.003-.002-.003-.002-.003-.001-.004-.002-.003-.001-.003-.002-.003-.001-.003-.002-.004-.001-.003-.002-.003-.002-.003-.001-.004-.002-.003-.001-.003-.002-.003-.001-.003-.002-.004-.001-.003-.002-.003-.002-.003-.001-.003-.002-.004-.001-.003-.002-.003-.001-.003-.002-.003-.002-.004-.001-.003-.002-.003-.001-.003-.002-.004-.001-.003-.002-.003-.001-.003-.002-.003-.002-.004-.001-.003-.002-.003-.001-.003-.002-.003-.001-.004-.002-.003-.001-.003-.002-.003-.002-.003-.001-.004-.002-.003-.001-.003-.002-.003-.001-.004-.002-.003-.001-.003-.002-.003-.002-.003-.001-.004-.002-.003-.001-.003-.002-.003-.001-.003-.002-.004-.001-.003-.002-.003-.002-.003-.001-.003-.002-.004-.001-.003-.002-.003-.001-.003-.002-.004-.001-.003-.002-.003-.002-.003-.001-.003-.002-.004-.001-.003-.002-.003-.001-.003-.002-.003-.001-.004-.002-.003-.002-.003-.001-.003-.002-.004-.001-.003-.002-.003-.001-.003-.002-.003-.001-.004-.002-.003-.002-.003-.001-.003-.002-.003-.001-.004-.002-.003-.001-.003-.002-.003-.001-.003-.002-.004-.002-.003-.001-.003-.002-.003-.001-.004-.002-.003-.001-.003-.002-.003-.001-.003-.002-.004-.002-.003-.001-.003-.002-.003-.001-.003-.002-.004-.001-.003-.002-.003-.001-.003-.002-.003-.002-.004-.001-.003-.002-.003-.001-.003-.002-.004-.001-.003-.002-.003-.001-.003-.002-.003-.002-.004-.001-.003-.002-.003-.001-.003-.002-.003-.001-.004-.002-.003-.001-.003-.002-.003-.002-.003-.001-.004-.002-.003-.001-.003-.002-.003-.001-.004-.002-.003-.001-.003-.002-.003-.002-.003-.001-.004-.002-.003-.001-.003-.002-.003-.001-.003-.002-.004-.001-.003-.002-.003-.002-.003-.001-.003-.002-.004-.001-.003-.002-.003-.001-.003-.002-.004-.002-.003-.001-.003-.002-.003-.001-.003-.002-.004-.001-.003-.002-.003-.001-.003-.002-.003-.002-.004-.001-.003-.002-.003-.001-.003-.002-.003-.001-.004-.002-.003-.001-.003-.002-.003-.002-.004-.001-.003-.002-.003-.001-.003-.002-.003-.001-.004-.002-.003-.001-.003-.002-.003-.002-.003-.001-.004-.002-.003-.001-.003-.002-.003-.001-.003-.002-.004-.001-.003-.002-.003-.002-.003-.001-.004-.002-.003-.001-.003-.002-.003-.001-.003-.002-.004-.001-.003-.002-.003-.002-.003-.001-.003-.002-.004-.001-.003-.002-.003-.001-.003-.002-.003-.001-.004-.002-.003-.002-.003-.001-.003-.002-.003-.001-.004-.002-.003-.001-.003-.002-.003-.001-.004-.002-.003-.002-.003-.001-.003-.002-.003-.001-.004-.002-.003-.001-.003-.002-.003-.001-.003-.002-.004-.002-.003-.001-.003-.002-.003-.001-.003-.002-.004-.001-.003-.002-.003-.001-.003-.002-.004-.002-.003-.001-.003-.002-.003-.001-.003-.002-.004-.001-.003-.002-.003-.001-.003-.002-.003-.002-.004-.001-.003-.002-.003-.001-.003-.002-.003-.001-.004-.002-.003-.001-.003-.002-.003-.002-.003-.001-.004-.002-.003-.001-.003-.002-.003-.001-.003-.002-.004-.001-.003-.002-.003-.002-.003-.001-.004-.002-.003-.001-.003-.002-.003-.001-.003-.002-.004-.001-.003-.002-.003-.002-.003-.001-.003-.002-.004-.001-.003-.002-.003-.001-.003-.002-.003-.001-.004-.002-.003-.002-.003-.001-.003-.002-.004-.001-.003-.002-.003-.001-.003-.002-.003-.002-.004-.001-.003-.002-.003-.001-.003-.002-.003-.001-.004-.002-.003-.001-.003-.002-.003-.002-.003-.001-.004-.002-.003-.001-.003-.002-.003-.001-.004-.002-.003-.001-.003-.002-.003-.002-.003-.001-.004-.002-.003-.001-.003-.002-.003-.001-.003-.002-.004-.001-.003-.002-.003-.002-.003-.001-.003-.002-.004-.001-.003-.002-.003-.001-.003-.002-.003-.001-.004-.002-.003-.002-.003-.001-.003-.002-.004-.001-.003-.002-.003-.001-.003-.002-.003-.001-.004-.002-.003-.002-.003-.001-.003-.002-.003-.001-.004-.002-.003-.001-.003-.002-.003-.001-.003-.002-.004-.002-.003-.001-.003-.002-.003-.001-.004-.002-.003-.001-.003-.002-.003-.001-.003-1.8.872-1.8.873.002.003.001.003.002.003.002.004.001.003.002.003.001.003.002.003.001.004.002.003.001.003.002.003.002.003.001.004.002.003.001.003.002.003.001.003.002.004.001.003.002.003.002.003.001.004.002.003.001.003.002.003.001.003.002.003.001.004.002.003.002.003.001.003.002.004.001.003.002.003.001.003.002.003.001.004.002.003.002.003.001.003.002.004.001.003.002.003.001.003.002.003.001.003.002.004.002.003.001.003.002.003.001.004.002.003.001.003.002.003.001.003.002.004.002.003.001.003.002.003.001.004.002.003.001.003.002.003.001.003.002.003.002.004.001.003.002.003.001.003.002.004.001.003.002.003.001.003.002.003.002.004.001.003.002.003.001.003.002.004.001.003.002.003.001.003.002.003.002.003.001.004.002.003.001.003.002.003.001.004.002.003.001.003.002.003.002.003.001.004.002.003.001.003.002.003.001.004.002.003.002.003.001.003.002.003.001.003.002.004.001.003.002.003.001.003.002.004.002.003.001.003.002.003.001.003.002.004.001.003.002.003.001.003.002.004.002.003.001.003.002.003.001.003.002.003.001.004.002.003.001.003.002.003.002.004.001.003.002.003.001.003.002.003.001.004.002.003.001.003.002.003.002.003.001.004.002.003.001.003.002.003.001.003.002.004.001.003.002.003.002.003.001.004.002.003.001.003.002.003.001.003.002.004.001.003.002.003.002.003.001.003.002.004.001.003.002.003.001.003.002.003.001.004.002.003.002.003.001.003.002.004.001.003.002.003.001.003.002.003.001.004.002.003.002.003.001.003.002.003.001.004.002.003.001.003.002.003.001.003.002.004.002.003.001.003.002.003.001.004.002.003.001.003.002.003.001.003.002.004.002.003.001.003.002.003.001.003.002.004.001.003.002.003.001.003.002.003.002.004.001.003.002.003.001.003.002.004.001.003.002.003.001.003.002.003.002.004.001.003.002.003.001.003.002.003.001.004.002.003.001.003.002.003.002.003.001.004.002.003.001.003.002.003.001.004.002.003.001.003.002.003.002.003.001.004.002.003.001.003.002.003.001.003.002.004.002.003.001.003.002.003.001.003.002.004.001.003.002.003.001.003.002.004.002.003.001.003.002.003.001.003.002.004.001.003.002.003.001.003.002.003.002.004.001.003.002.003.001.003.002.003.001.004.002.003.001.003.002.003.002.003.001.004.002.003.001.003.002.003.001.003.002.004.001.003.002.003.002.003.001.004.002.003.001.003.002.003.001.003.002.004.001.003.002.003.002.003.001.003.002.004.001.003.002.003.001.003.002.003.001.004.002.003.002.003.001.003.002.004.001.003.002.003.001.003.002.003.001.004.002.003.002.003.001.003.002.003.001.004.002.003.001.003.002.003.001.003.002.004.002.003.001.003.002.003.001.004.002.003.001.003.002.003.001.003.002.004.002.003.001.003.002.003.001.003.002.004.001.003.002.003.001.003.002.003.002.004.001.003.002.003.001.003.002.004.001.003.002.003.001.003.002.003.002.004.001.003.002.003.001.003.002.003.001.004.002.003.001.003.002.003.002.003.001.004.002.003.001.003.002.003.001.004.002.003.001.003.002.003.002.003.001.004.002.003.001.003.002.003.001.003.002.004.001.003.002.003.002.003.001.003.002.004.001.003.002.003.001.003.002.003.002.004.001.003.002.003.001.003.002.004.001.003.002.003.001.003.002.003.002.004.001.003.002.003.001.003.002.003.001.004.002.003.001.003.002.003.002.003.001.004.002.003.001.003.002.003.001.004.002.003.001.003.002.003.002.003.001.004.002.003.001.003.002.003.001.003.002.004.001.003.002.003.002.003.001.003.002.004.001.003.002.003.001.003.002.004.001.003.002.003.002.003.001.003.002.004.001.003.002.003.001.003.002.003.001.004.002.003.002.003.001.003.002.003.001.004.002.003.001.003.002.003.001.004.002.003.002.003.001.003.002.003.001.004.002.003.001.003.002.003.001.003.002.004.002.003.001.003.002.003.001.003.002.004.001.003.002.003.001.003.002.004.002.003.001.003.002.003.001.003.002.004.001.003.002.003.001.003.002.003.002.004.001.003.002.003.001.003.002.003.001.004.002.003.001.003.002.003.002.004.001.003.002.003.001.003.002.003.001.004.002.003.001.003.002.003.002.003.001.004.002.003.001.003.002.003.001.003.002.004.001.003.002.003.002.003.001.003.002.004.001.003.002.003.001.003.002.004.002.003.001.003.002.003.001.003.002.004.001.003.002.003.001.003.002.003.002.004.001.003.002.003.001.003.002.003.001.004.002.003.001.003.002.003.002.004.001.003.002.003.001.003zm-.797-1.644 1.821-.827q-.379-.833-.757-1.64l-1.811.848-1.811.85q.368.785.737 1.597zm-.747-1.618 1.811-.85q-.385-.82-.819-1.688l-1.789.894-1.789.894q.413.825.775 1.598zm-.797-1.644 1.81-.852a52 52 0 0 0-.83-1.684l-1.777.917-1.777.917q.38.738.764 1.553zm-.797-1.619 1.718-1.023-4.258-7.147-1.718 1.023-1.718 1.024 4.258 7.147zm-4.258-7.147h2c0 .48-.208.827-.364 1.006-.135.154-.237.196-.185.168l-.928-1.771-.928-1.772c-.459.24-1.595.946-1.595 2.37zm.523-.597.928 1.771a.5.5 0 0 1 .101-.042l.017-.003v-4a4.2 4.2 0 0 0-1.974.502zm1.046-.274v2h6.275v-4h-6.275zm6.275 0v2q1.278 0 3.866.025l.019-2 .019-2a444 444 0 0 0-3.904-.025zm3.885.025-.019 2q2.617.024 3.904.025v-4q-1.254 0-3.866-.025zm3.885.025-.283 1.98a1.5 1.5 0 0 1-.515-.171 1 1 0 0 1-.201-.144c-.043-.04-.013-.022.078.122l1.693-1.065 1.692-1.066a4.6 4.6 0 0 0-.731-.912c-.286-.268-.772-.627-1.451-.724zm.772.722-1.693 1.065c.189.3.427.779.702 1.481l1.862-.728 1.863-.73c-.323-.824-.667-1.558-1.042-2.154zm.871 1.818-1.848.763q.448 1.086.88 2.331l1.89-.654 1.89-.654a48 48 0 0 0-.963-2.55zm.922 2.44-1.886.666q.426 1.207.861 2.706l1.921-.558 1.921-.558a55 55 0 0 0-.931-2.922zm.896 2.814-1.921.558q.446 1.535.765 2.69l1.928-.534 1.928-.533q-.329-1.186-.779-2.739zm.772 2.714-1.917.571q.34 1.14.656 2.333l1.933-.513 1.933-.513q-.33-1.249-.688-2.449zm.672 2.39-1.923.55c.234.818.378 1.331.439 1.56l1.933-.515 1.932-.516c-.072-.269-.226-.818-.458-1.628zm.449 1.595 1.909.596 4.557-14.593-1.909-.596-1.909-.596-4.558 14.593zm4.557-14.593v2h14.045v-4h-14.045zm14.045 0-.283 1.98a1.2 1.2 0 0 1-.405-.144 1.3 1.3 0 0 1-.428-.39l1.639-1.147 1.638-1.147c-.485-.692-1.193-1.034-1.879-1.132zm.523.299-1.579 1.228a1 1 0 0 1-.074-.106l-.037-.064-.01-.02.03.093q.022.07.049.182l1.944-.467 1.945-.466c-.103-.43-.286-1.09-.69-1.608z" mask="url(#a)"/></svg>