<svg xmlns="http://www.w3.org/2000/svg" width="20" height="269" fill="none" viewBox="0 0 20 269"><path fill="#000" d="M2.702.5V0h-.013zm15.116 0 .5-.017L18.3 0h-.483zm.337 9.703h.5v-.018zm-.54 3.268-.464-.183-.003.008zm-.797 1.37-.375-.33-.007.008zm-5.435.674-.29.407.002.002zm-1.539-1.853.44-.24-.59-1.08-.331 1.186zM8.44 15.863l-.3-.4-.005.005zm-4.525.337-.217.45.002.002zm-2.898-4.492.494-.08-.002-.007zM.882 8.26l-.5-.01zM.815.904.55.48.305.633l.01.289zm9.995 6.38-.496-.063-.008.067.01.066zm.067.538-.496.059.002.012zm.247 1.157-.465.183.003.008zm.832.82-.186.464.005.002zm2.515-2.224h.5v-.041l-.007-.04zm-.157-.55.354-.354-.012-.011-.013-.011zM4.701 8.35l-.499.036v.008l.001.008zm.449 1.292-.381.324.005.005.004.005zm2.628.056-.336-.37-.01.008-.008.008zm.202-.337-.46-.194-.007.014-.005.015zm.135-.36-.462-.192-.01.023-.006.023zm.157-1.246-.499-.037v.019zm.022-.382h.5v-.5h-.5zm-.426 0-.046.498.023.002h.023zm-.831-.123.078-.494-.008-.001zM2.702.5V1h15.116V0H2.702zm15.116 0-.5.017.337 9.704.5-.018.5-.017-.337-9.703zm.337 9.703h-.5q0 .868-.108 1.614l.495.07.495.072q.119-.826.118-1.756zm-.113 1.685-.495-.07q-.102.723-.396 1.47l.465.183.465.184q.335-.847.457-1.696zm-.426 1.583-.468-.175q-.277.733-.705 1.215l.375.33.376.33a4.9 4.9 0 0 0 .89-1.524zm-.798 1.37-.382-.322c-.265.315-.63.583-1.112.798l.203.457.203.457c.596-.265 1.092-.618 1.47-1.067zm-1.291.933-.203-.457c-.464.206-1.014.316-1.661.316v1c.76 0 1.453-.13 2.067-.402zm-1.864.359v-.5c-.865 0-1.515-.19-1.992-.526l-.288.408-.288.409c.69.487 1.56.709 2.568.709zm-2.28-.618.29-.407c-.498-.356-.966-.907-1.39-1.685l-.439.24-.439.239c.474.869 1.033 1.553 1.687 2.02zm-1.539-1.853-.481-.134c-.247.882-.661 1.513-1.223 1.936l.3.4.301.399c.771-.58 1.292-1.417 1.585-2.466zM8.44 15.863l-.305-.395c-.554.428-1.275.66-2.199.66v1c1.097 0 2.046-.279 2.81-.869zm-2.504.764v-.5c-.684 0-1.283-.13-1.807-.378l-.214.451-.215.452c.674.32 1.423.475 2.236.475zM3.915 16.2l.216-.45a3.75 3.75 0 0 1-1.281-.97l-.384.32-.384.32c.425.51.968.92 1.616 1.23zm-1.45-1.1.385-.32a5.5 5.5 0 0 1-.853-1.452l-.463.188-.463.189a6.5 6.5 0 0 0 1.01 1.715zm-.931-1.584.463-.188a7.8 7.8 0 0 1-.486-1.7l-.494.08-.493.08q.155.96.547 1.917zm-.517-1.808.492-.087a10 10 0 0 1-.15-1.732h-1q0 .975.166 1.906zM.86 9.888h.5q0-.53.022-1.617l-.5-.01-.5-.01A87 87 0 0 0 .36 9.888zM.882 8.26l.5.01q.023-1.08.023-1.638h-1q0 .541-.023 1.618zm.023-1.628h.5q0-3.129-.09-5.745l-.5.017-.5.018q.09 2.595.09 5.71zM.815.904l.264.425c.281-.175.8-.307 1.636-.329L2.702.5 2.689 0C1.802.023 1.063.16.55.48zm13.252 6.042v-.5q-.52 0-1.522.034l.017.5.017.5a48 48 0 0 1 1.488-.034zm-1.505.034-.017-.5q-.997.034-1.488.034v1q.52 0 1.522-.034zm-1.505.034v-.5a.72.72 0 0 0-.537.23.85.85 0 0 0-.206.477l.496.062.496.062c.005-.034.007.014-.049.074a.3.3 0 0 1-.11.076.3.3 0 0 1-.09.019zm-.247.27-.495.07q.021.146.066.527l.496-.059.497-.058q-.045-.383-.069-.551zm.067.538-.495.071.09.621.495-.074.495-.074-.09-.614zm.09.618-.494.074c.03.2.096.419.186.648l.465-.183.466-.183a2 2 0 0 1-.128-.43zm.157.54-.462.19c.106.256.243.488.423.668l.354-.353.354-.354a1.1 1.1 0 0 1-.207-.343zm.315.505-.354.353c.184.184.422.32.685.425l.186-.464.185-.464a1 1 0 0 1-.348-.204zm.517.314-.18.466c.3.117.633.169.988.169v-1c-.259 0-.465-.038-.628-.101zm.808.135v.5c.698 0 1.29-.25 1.686-.797.373-.516.521-1.23.521-2.062h-1c0 .741-.136 1.206-.332 1.476-.173.24-.435.383-.875.383zm1.707-2.359.493-.082a4 4 0 0 0-.09-.428 1.4 1.4 0 0 0-.064-.18.7.7 0 0 0-.143-.214l-.353.354-.354.354a.4.4 0 0 1-.064-.087l.005.012.01.035q.03.097.067.319zm-.157-.55.33-.376a.86.86 0 0 0-.577-.203v1c.011 0 .006.002-.011-.003a.2.2 0 0 1-.071-.042zm-8.805.124v-.5c-.28 0-.51.007-.677.025a1.3 1.3 0 0 0-.256.05.6.6 0 0 0-.187.095.53.53 0 0 0-.21.42h1c0 .21-.129.334-.186.377s-.104.057-.109.059c-.015.005-.004 0 .056-.007a6 6 0 0 1 .57-.02zm-.83.09h-.5v.359h1v-.36zm0 .359h-.5q0 .45.023.788L4.7 8.35l.498-.035a10 10 0 0 1-.02-.717zm.022.752-.498.052q.041.38.165.79l.479-.145.478-.146a3 3 0 0 1-.127-.602zm.146.697-.479.145c.089.293.218.558.4.774l.382-.324.38-.324a1.2 1.2 0 0 1-.205-.416zm.303.595-.372.334c.195.216.447.38.733.506l.2-.458.2-.459a1.1 1.1 0 0 1-.39-.258zm.561.382-.2.458c.317.138.673.199 1.054.199v-1c-.278 0-.49-.045-.653-.116zm.854.157v.5q.331.001.632-.07l-.115-.486-.116-.487a1.7 1.7 0 0 1-.401.043zm.517-.056.115.486c.212-.05.41-.135.585-.263l-.296-.403-.296-.403a.6.6 0 0 1-.224.096zm.404-.18.296.403q.194-.141.35-.297l-.354-.353-.354-.354a2 2 0 0 1-.234.198zm.292-.247.336.37c.165-.15.269-.345.338-.542l-.472-.165-.472-.165a.6.6 0 0 1-.047.104q-.019.031-.02.028zm.202-.337.46.194q.097-.226.153-.406l-.478-.147-.478-.147a4 4 0 0 1-.118.312zm.135-.36.461.193c.065-.155.101-.35.125-.548l-.496-.06-.497-.06a1.3 1.3 0 0 1-.055.283zm.09-.415.496.06q.034-.283.046-.419l-.497-.045-.498-.046a16 16 0 0 1-.044.39zm.045-.404.497.045a10 10 0 0 0 .025-.453l-.5-.019-.5-.018a9 9 0 0 1-.02.4zm.022-.427.499.037c.014-.196.023-.344.023-.419h-1c0 .03-.005.136-.02.345zm.022-.382v-.5h-.426v1h.426zm-.426 0 .045-.498a23 23 0 0 1-.798-.12l-.078.495-.079.493c.462.074.76.119.864.128zm-.831-.123.07-.495a9 9 0 0 0-1.193-.106v1q.361-.002 1.052.096zm-1.123-.101v-.5h-.405v1h.405zm12.084 14.293h.5v-.5h-.5zm0 13.072v.5h.5v-.5zm-4.2-.011-.05.497h.004zm-.158-.045.3-.4-.036-.027-.04-.02zm-.135-.079.265-.424-.008-.005-.009-.005zm-.18-.292-.49.098.005.023.007.023zm.068-5.862.5.019.017-.458-.455-.057zm-.562-.079.073-.495-.012-.001zm-.662-.078.057-.497h-.008l-.01-.002zm-.55-.023v-.5h-.5v.5zm-3.931 5.953-.074.494.037.006h.037zm-.18-.292.354.353.157-.157-.011-.222zm-.18-5.548h.5v-.5h-.5zm-1.617 0v-.5h-.5v.5zm.09 2.886.5-.024zm-.224 3.695v.5h.086l.082-.03zm-4.661-8.67.5-.013v-.002zM.815 21.71l-.33-.376-.172.151.002.23zm.36-.314-.071-.495-.147.02-.112.099zm.404-.045v.5h.426v-1H1.58zm.426 0v.5q1.916 0 5.666.045l.006-.5.006-.5q-3.752-.045-5.678-.045zm5.672.045-.006.5q3.751.045 5.677.045v-1q-1.915 0-5.665-.045zm5.671.045v.5h4.65v-1h-4.65zm4.65 0h-.5v13.072h1V21.442zm0 13.072v-.5h-3.684v1h3.684zm-3.684 0v-.5h-.168v1h.168zm-.168 0v-.5h-.18v1h.179zm-.18 0v-.5l-.031-.002-.092-.007-.046.498-.045.498c.08.007.158.013.214.013zm-.169-.011.05-.498q-.026-.004-.008 0l.035.013q.025.011.066.04l-.3.4-.3.4a.8.8 0 0 0 .408.142zm-.157-.045.224-.447-.094-.056-.265.424-.265.424c.062.04.124.076.176.102zm-.135-.079.248-.434a.24.24 0 0 1 .087.098l-.447.224-.447.224c.075.15.19.254.311.322zm-.112-.112.447-.224a1 1 0 0 1-.035-.1l-.48.144-.478.144c.027.089.059.179.099.26zm-.067-.18.49-.098a1 1 0 0 1-.013-.149h-1q0 .176.032.345zm-.023-.247h.5v-.314h-1v.314zm0-.314h.5q0-2.901.09-5.282l-.5-.019-.5-.019a143 143 0 0 0-.09 5.32zm.09-5.301.062-.496q-.17-.021-.55-.077l-.073.494-.073.495q.384.057.572.08zm-.562-.079.06-.496-.665-.079-.057.497-.057.496.66.079zm-.662-.078.04-.499a7 7 0 0 0-.59-.024v1q.248 0 .51.021zm-.55-.023h-.5v5.346h1v-5.346zm0 5.346h-.5a1 1 0 0 1-.013.183l-.002.01a.2.2 0 0 1 .034-.056l.39.312.391.313a.9.9 0 0 0 .167-.383q.034-.18.033-.379zm-.09.45-.39-.313a.23.23 0 0 1 .092-.07c.023-.009.029-.005.006-.005v1c.222 0 .493-.064.682-.3zm-.292.111v-.5c-.013 0-.054-.001-.135-.009l-.045.498-.045.498c.084.008.163.014.225.014zm-.18-.01.045-.499a3 3 0 0 0-.225-.013v1c.013 0 .054.002.135.01zm-.18-.012v-.5q-.551 0-1.61.034l.016.5.016.5a54 54 0 0 1 1.578-.034zm-1.594.034-.016-.5q-1.053.034-1.579.034v1q.553 0 1.61-.034zm-1.595.034.074-.495c-.033-.005.01-.006.07.042a.35.35 0 0 1 .131.273h-1c0 .198.086.382.244.508a.85.85 0 0 0 .407.166zm-.225-.18h.5a.35.35 0 0 1-.102.241l-.353-.353-.353-.354a.65.65 0 0 0-.192.466zm.045-.112.5-.026q-.18-3.545-.18-5.23h-1c0 1.15.061 2.913.18 5.28zm-.18-5.256h.5v-.292h-1v.292zm0-.292v-.5H5.712v1H7.33zm-1.617 0h-.5q0 1.018.09 2.91l.5-.024.5-.024a65 65 0 0 1-.09-2.862zm.09 2.886-.5.023q.09 1.895.09 2.818h1q0-.963-.09-2.865zm.09 2.841h-.5c0 .22-.024.348-.048.411-.02.057-.015 0 .065-.028l.169.47.168.471c.29-.103.453-.339.537-.567.081-.222.11-.483.11-.757zm-.314.854v-.5h-.854v1h.854zm-.854 0v-.5q-.548 0-1.605.022l.01.5.011.5q1.054-.022 1.584-.022zm-1.595.022-.01-.5a81 81 0 0 1-1.584.023v1q.547 0 1.605-.023zm-1.594.023v-.5a.5.5 0 0 1-.117-.012c-.017-.004-.01-.005.008.009a.15.15 0 0 1 .044.058c.007.017.003.019.003-.005h-1c0 .26.087.535.328.728.22.176.493.222.734.222zm-.562-.45h.5q0-.58.011-1.792l-.5-.005-.5-.004q-.01 1.214-.01 1.801zm.011-1.797.5.005q.012-1.214.012-1.846h-1q0 .625-.012 1.837zm.012-1.841h.5q0-1.629-.08-4.64l-.499.013-.5.013q.08 3.007.079 4.614zm-.079-4.627.5-.015q-.09-3.008-.101-4.347l-.5.004-.5.005q.01 1.356.101 4.368zM.815 21.71l.33.377.359-.315-.33-.376-.329-.376-.36.314zm.36-.314.07.495q.153-.022.243-.032c.066-.007.09-.008.09-.008v-1c-.102 0-.275.021-.474.05zM.5 46.382 0 46.36v.024l.001.023zM.736 44l.493.084.001-.005zm.55-2.044-.463-.187-.003.006zm.978-1.651-.372-.334-.006.006zm1.516-1.112-.215-.452-.004.003zm2.134-.539v-.5h-.021l-.021.002zm.247.225.474.158.038-.114-.018-.119zm-.09 6.255-.326-.38-.007.006-.006.006zm-.37.213-.166-.472-.015.006-.014.006zm-.439.203-.223-.448-.014.007-.013.008zm-.37.404-.437-.244-.005.01-.006.01zm.157 1.707-.404.294.001.002zm1.954-.887-.475-.156-.004.011zm.314-1.123-.484-.124-.003.012zm.225-1.09-.492-.088-.002.01zm.124-.651-.483-.131-.003.01zm1.841-3.93-.367-.34-.001.002zm5.425-.697-.21.454h.001zm1.752 1.291-.382.323.002.003zm1.134 1.887-.462.19.001.005zm.64 2.201-.494.08.001.005zm-.977 7.334.353.353.041-.04.03-.049zm-1.045 1-.329-.377-.006.006-.006.005zm-.82.617-.262-.425-.008.004zm-.931.416-.119-.486-.007.001-.007.002zm-1.112.168-.354.353.16.161.228-.015zm-.405-.404-.5.02.009.195.138.138zm-.01-5.75-.47-.173-.003.008zm.201-.292-.24-.44-.014.009-.014.009zm.259-.146-.224-.448-.014.008-.014.008zm.258-.135-.207-.455-.017.007-.015.009zm.202-.258-.462-.19-.004.008zm.045-.809.493-.082v-.005zm-.112-.46-.484.126.002.007.002.007zm-.225-.45-.397.304.005.007.006.007zm-.797.056-.387-.316-.007.008zm-.292.54.476.152zm-.202.696-.483-.13-.003.012zm-.135.516-.474-.158-.006.018-.005.018zm-.764 2.92.477.15v-.002zm-2.033 3.482.315.389v-.001zm-4.874.662.153-.476-.006-.002zm-3.313-3.212.464-.187v-.002zm-.74-3.178.497-.053-.001-.008zM.5 46.382l.5.02q.056-1.3.23-2.317L.735 44l-.493-.084A20 20 0 0 0 0 46.359zM.736 44l.494.079q.16-1.005.523-1.943l-.466-.18-.467-.18q-.4 1.038-.577 2.146zm.55-2.044.464.186q.37-.912.892-1.51l-.378-.327-.378-.328q-.646.749-1.063 1.792zm.978-1.651.372.334c.347-.387.798-.721 1.363-.997l-.22-.449-.218-.45q-.998.484-1.67 1.228zm1.516-1.112.215.452c.55-.262 1.2-.43 1.96-.493l-.041-.498-.042-.498c-.857.071-1.63.263-2.307.586zm2.134-.539v.5a.27.27 0 0 1-.168-.074.3.3 0 0 1-.077-.117l-.003-.01.495-.074.494-.075a.77.77 0 0 0-.237-.464.74.74 0 0 0-.504-.186zm.247.225-.475-.159a1.3 1.3 0 0 0-.048.383h1q0-.061.003-.085l.001-.008-.007.027zm-.023.224h-.5q0 .943.045 2.842l.5-.012.5-.012q-.045-1.896-.045-2.818zm.045 2.83-.5.012q.045 1.897.045 2.818h1q0-.942-.045-2.842zm.045 2.83h-.5c0 .023-.004.025 0 .016a.1.1 0 0 1 .017-.025l.326.38.325.38a.96.96 0 0 0 .332-.75zm-.157.37-.34-.367a.6.6 0 0 1-.196.11l.165.471.165.472c.202-.07.388-.173.545-.318zm-.37.214-.195-.46a8 8 0 0 0-.467.215l.223.447.224.448q.21-.105.408-.189zm-.439.203-.25-.433c-.24.139-.421.35-.557.593l.437.244.436.244a.55.55 0 0 1 .185-.216zm-.37.404-.448-.224c-.142.285-.198.615-.198.965h1c0-.25.04-.413.093-.518zm-.146.741h-.5c0 .465.13.892.399 1.26l.404-.294.404-.295a1.1 1.1 0 0 1-.207-.671zm.303.966-.403.296c.304.412.734.63 1.245.63v-1a.5.5 0 0 1-.44-.223zm.842.427v.5c.429 0 .772-.23 1.028-.544l-.388-.316-.388-.315c-.133.164-.217.175-.252.175zm.64-.36.388.316c.247-.305.43-.687.563-1.126l-.48-.144-.478-.145c-.107.355-.239.609-.38.784zm.472-.954.475.155q.197-.603.327-1.167l-.488-.111-.487-.112q-.119.514-.302 1.08zm.314-1.123.485.123q.141-.55.234-1.134l-.494-.079-.494-.079q-.087.54-.215 1.045zm.225-1.09.492.089.116-.615v-.004l-.484-.121-.486-.121c-.02.08-.065.32-.13.684zm.124-.651.482.13c.487-1.79 1.074-3.01 1.728-3.723l-.369-.338-.368-.337c-.814.888-1.454 2.29-1.956 4.137zm1.841-3.93.367.339c.623-.673 1.483-1.03 2.643-1.03v-1c-1.385 0-2.532.437-3.377 1.35zm3.01-1.191v.5c.837 0 1.568.153 2.205.448l.21-.454.21-.454c-.786-.364-1.665-.54-2.625-.54zm2.415.494-.209.454c.661.303 1.183.692 1.579 1.16l.382-.323.381-.322c-.502-.595-1.149-1.068-1.925-1.424zm1.752 1.291-.38.326q.628.729 1.052 1.752l.462-.19.462-.191a7.4 7.4 0 0 0-1.217-2.023zm1.134 1.887-.46.195q.436 1.036.606 2.086l.494-.08.494-.08a10 10 0 0 0-.674-2.316zm.64 2.201-.493.085q.184 1.067.184 2.218h1q0-1.231-.198-2.387zm.19 2.303h-.5c0 2.048-.38 3.623-1.091 4.766l.424.265.424.264c.845-1.357 1.244-3.136 1.244-5.296zm-1.167 5.03-.354-.353q-.681.681-1.02.977l.33.376.329.377q.38-.333 1.069-1.023zm-1.045 1-.341-.365a4.7 4.7 0 0 1-.741.558l.263.425.263.425q.508-.314.898-.678zm-.82.618-.27-.42c-.276.177-.536.29-.78.35l.119.486.118.485c.37-.09.731-.254 1.084-.48zm-.931.416-.133-.483q-.384.107-1.013.152l.034.499.034.499a6.2 6.2 0 0 0 1.21-.185zm-1.112.168.353-.354-.404-.404-.354.354-.353.353.404.404zm-.405-.404.5-.02a133 133 0 0 1-.09-5.146h-1q0 2.87.09 5.185zm-.09-5.166h.5c0-.21.024-.342.051-.42l-.472-.164-.472-.165a2.3 2.3 0 0 0-.106.749zm.08-.584.468.173a.3.3 0 0 1 .032-.068c.004-.006-.005.008-.03.024l-.269-.421-.268-.422c-.213.136-.332.35-.403.54zm.201-.292.24.439q.13-.072.27-.154l-.251-.431-.252-.432q-.129.075-.246.139zm.259-.146.223.447q.143-.07.274-.143l-.239-.44-.24-.438a7 7 0 0 1-.242.126zm.258-.135.207.455c.255-.116.389-.346.461-.532l-.466-.181-.466-.182c-.014.036-.022.045-.018.04a.2.2 0 0 1 .075-.055zm.202-.258.463.19a1.9 1.9 0 0 0 .116-.707h-1a.9.9 0 0 1-.041.326zm.079-.517h.5a2.5 2.5 0 0 0-.04-.374l-.494.082-.493.082a3 3 0 0 1 .027.206v.004zm-.034-.292.492-.087a5 5 0 0 0-.124-.514l-.48.14-.48.14q.073.254.1.408zm-.112-.46.484-.127a1.65 1.65 0 0 0-.323-.64l-.386.317-.386.318c.055.067.099.15.127.258zm-.225-.45.397-.303a.93.93 0 0 0-.745-.388v1a.1.1 0 0 1-.052-.014c-.015-.007-.012-.01.003.009zm-.348-.19v-.5c-.356 0-.636.186-.836.43l.387.316.387.317a.3.3 0 0 1 .067-.064q.005-.002 0 0h-.005zm-.45.246-.393-.308a2.2 2.2 0 0 0-.374.695l.476.153.476.152a1.2 1.2 0 0 1 .21-.383zm-.291.54-.476-.153a17 17 0 0 0-.21.718l.484.13.482.131q.112-.408.196-.674zm-.202.696-.486-.118c-.07.284-.11.433-.123.476l.474.158.474.159c.03-.092.08-.288.146-.557zm-.135.516-.485-.122c-.414 1.64-.664 2.596-.757 2.895l.478.147.478.148c.102-.33.36-1.32.77-2.945zm-.764 2.92-.477-.15c-.503 1.597-1.141 2.65-1.87 3.244l.314.388.316.388c.947-.77 1.664-2.037 2.194-3.72zm-2.033 3.482-.314-.39c-.674.546-1.535.833-2.617.833v1c1.27 0 2.363-.341 3.246-1.054zm-2.93.943v-.5a5.9 5.9 0 0 1-1.79-.257l-.154.476-.152.477a6.8 6.8 0 0 0 2.095.304zm-1.944-.28.147-.478c-.54-.167-.981-.384-1.331-.643l-.298.402-.298.401c.459.34 1.007.602 1.633.795zm-1.482-.72.298-.401a4.3 4.3 0 0 1-.966-1.008l-.41.287-.41.286q.515.736 1.19 1.238zm-1.078-1.122.41-.287a6.4 6.4 0 0 1-.699-1.27l-.464.186-.463.188q.304.753.806 1.47zm-.753-1.37.463-.19a9 9 0 0 1-.446-1.478l-.488.106-.489.107q.198.911.498 1.644zm-.471-1.562.488-.106q-.186-.854-.26-1.564l-.498.053-.497.053q.083.773.278 1.67zm-.27-1.617.497-.06A22 22 0 0 1 1 46.355l-.5.026-.499.026q.045.88.138 1.63zm14.589 9.959-.029.499zm2.729.359-.475-.158-.025.077v.08zm.056 6.952.5-.006zm-.045 7.625-.411-.284-.005.007-.005.007zm-2.437.169-.005-.5zm-2.269-4.055h.5v-.5h-.5zm-12.039 0-.113.487.056.013h.057zm-.36-.382h-.5v.019l.002.018zm0-2.335h-.5v.207l.147.146zm.012-1.393-.5-.006zm.011-2h.5v-.024l-.002-.025zm-.022-.65-.32-.385-.18.15v.235zm.539-.45v-.5h-.181l-.14.116zm10.41.214v-.5h-.031zm.573-.023-.033-.499-.016.002-.017.002zm.27-.056-.144-.479-.03.01-.03.012zm.213-.09-.223-.447-.01.005-.01.005zm.158-.157-.425-.265-.018.03-.014.032zm.056-3.436-.481-.138-.02.068v.07zm1.55-.315v.5q.178 0 .566.022l.029-.5.028-.499a12 12 0 0 0-.624-.023zm.595.023-.028.499c.268.015.465.023.578.023v-1c-.081 0-.252-.007-.523-.022zm.55.022v.5c.058 0 .215-.01.436-.023l-.032-.5-.032-.498-.27.016-.077.004-.025.001zm.404-.023.032.5q.337-.022.575-.022v-1q-.28 0-.639.024zm.607-.022v.5c.39 0 .649.02.8.048.08.015.09.026.07.014a.39.39 0 0 1-.18-.337h1c0-.3-.21-.467-.328-.534a1.2 1.2 0 0 0-.377-.126 5.7 5.7 0 0 0-.985-.065zm1.19.225h-.5v.013l.003-.014.475.158.474.158a1 1 0 0 0 .048-.315zm-.022.157h-.5q0 2.352.056 6.958l.5-.006.5-.006q-.056-4.604-.056-6.946zm.056 6.952-.5.006q.056 4.614.056 6.9h1q0-2.296-.056-6.912zm.056 6.906h-.5a3 3 0 0 1-.02.397l-.016.079c-.004.013 0-.007.024-.041l.41.284.412.285c.104-.151.141-.335.16-.468q.03-.23.03-.536zm-.101.72-.42-.271a.2.2 0 0 1 .085-.076q.012-.004-.004 0l-.054.003v1c.264 0 .61-.07.813-.387zm-.393.156v-.5h-.315v1h.315zm-.315 0v-.5q-.588 0-1.734.011l.005.5.005.5q1.144-.01 1.724-.01zm-1.73.011-.004-.5q-1.133.012-1.725.012v1q.6 0 1.735-.011zm-1.729.012v-.5a1 1 0 0 1-.167-.012c-.037-.007-.044-.013-.034-.007a.25.25 0 0 1 .117.204h-1a.76.76 0 0 0 .41.676c.206.111.451.139.674.139zm-.584-.315h.5q0-.621.023-1.866l-.5-.01-.5-.008q-.023 1.247-.023 1.884zm.023-1.875.5.009q.022-1.248.022-1.885h-1q0 .621-.022 1.867zm.022-1.876v-.5H1.22v1h12.04zm-12.039 0 .114-.487c-.047-.01-.034-.018-.008.01q.02.022.029.044l.004.014-.498.037-.499.037a.9.9 0 0 0 .236.553 1 1 0 0 0 .509.28zm-.36-.382h.5q0-.387.012-1.138l-.5-.007-.5-.007q-.01.754-.011 1.153zm.012-1.145.5.007q.012-.753.011-1.153h-1q0 .388-.01 1.139zm.011-1.145h.5c0-.195-.1-.33-.169-.399l-.353.353-.354.354a.44.44 0 0 1-.124-.308zm-.022-.046h.5q0-.488.011-1.386l-.5-.006-.5-.006q-.01.9-.011 1.398zm.011-1.392.5.006q.012-.888.011-1.331h-1q0 .433-.01 1.319zm.011-1.325h.5v-.674h-1v.674zm0-.674.498-.05a7 7 0 0 1-.02-.601h-1c0 .289.007.526.025.7zm-.022-.651.32.384.539-.45-.32-.384-.32-.384-.54.45zm.539-.45v.5q1.694 0 5.06.112l.016-.5.017-.5a167 167 0 0 0-5.093-.112zm5.076.113-.017.5q3.373.111 5.093.112v-1q-1.693 0-5.06-.112zm5.076.112v.5c.07 0 .17-.005.29-.012l-.031-.5-.032-.498c-.119.007-.191.01-.227.01zm.259-.011v.5h.291v-1h-.291zm.292 0v.5q.159 0 .346-.027l-.066-.496-.066-.495q-.149.019-.214.018zm.28-.023.034.5a1.3 1.3 0 0 0 .439-.099l-.203-.457-.203-.457-.017.004-.083.01zm.27-.056.144.479q.163-.05.312-.132l-.243-.437-.243-.437a.6.6 0 0 1-.114.048zm.213-.09.224.447a.82.82 0 0 0 .39-.4l-.456-.204-.457-.203a.2.2 0 0 1 .041-.06.1.1 0 0 1 .035-.027zm.158-.157.424.265a.9.9 0 0 0 .132-.49h-1c0 .022-.005-.001.02-.04zm.056-.225h.5v-3.212h-1v3.212zm0-3.212.48.138c-.036.129-.124.171-.11.164a.7.7 0 0 1 .161-.047c.21-.043.542-.069 1.018-.069v-1c-.497 0-.909.026-1.216.089a1.6 1.6 0 0 0-.442.149.74.74 0 0 0-.372.44zm-7.704 51.699v.5h.008zm-.63.023-.026-.5v.001zm-.797.033-.014-.499zm-.853.012v-.5h-.012zm-.843-.034.059-.497-.013-.001zm-.707-.112-.117.486.003.001zm-.505-.247.342-.365-.007-.006-.006-.006zm-.18-5.515-.396-.305-.104.135v.17zm5.447-.527-.004.5zm3.133-.012-.02-.499h-.01l-.01.001zm.45 0-.036.499.168-.981zm-8.716-1.999-.168.471.025.009.026.006zm.068-5.862-.112-.487-.021.005-.021.006zm4.694-1.078-.1-.49-.012.003zm1.494-.326-.107-.488-.006.001zm3.223-.752.116.486-.097-.986zm-9.456-.112-.132.482.073.02.075-.003zm16.767-5.75.29-.407-.006-.005-.007-.004zm.112.157-.474.158.005.014.005.013zm.09.471h-.5v.018l.001.018zm.011.259h-.5v.027l.003.028zm0 .258-.498-.036-.002.018v.018zm-.09 6.03-.498-.034zm-.09 2.011.089.492.412-.073v-.419zm-4.47.854.095.49h.002zm-4.469.853-.094-.491-.003.982zm9.074 1.797.485.121.128-.51-.516-.102zm.023 8.984.497.054.003-.027v-.027zm-.63.315v-.5h-.01zm-12.15.269v-.5q-.226 0-.656.023l.027.5.026.499q.423-.022.603-.022zm-.63.023-.026-.499q-.41.021-.785.033l.014.499.015.5q.389-.011.81-.034zm-.797.033-.014-.499q-.374.01-.84.011v1q.479 0 .869-.012zm-.853.012-.012-.5a5.5 5.5 0 0 1-.772-.031l-.059.497-.058.497q.423.05.913.037zm-.843-.034.046-.498a5 5 0 0 1-.64-.101l-.113.487-.114.487q.374.087.776.123zm-.707-.112.117-.486a.6.6 0 0 1-.28-.126l-.342.365-.342.364c.201.189.457.303.73.369zm-.505-.247.329-.377q-.01-.008-.01-.01v.002l.002.003-.001-.011h-1a1 1 0 0 0 .35.769zm-.18-.393h.5v-5.122h-1v5.122zm0-5.122.396.306c-.006.008.02-.028.144-.079a2.6 2.6 0 0 1 .528-.138c.476-.083 1.148-.128 2.031-.128v-1c-.906 0-1.644.046-2.202.143a3.6 3.6 0 0 0-.738.198c-.203.084-.41.205-.555.393zm3.1-.539v.5q.974 0 2.343.012l.004-.5.004-.5a275 275 0 0 0-2.352-.012zm2.347.012-.004.5q1.38.01 1.969.011v-1q-.58 0-1.961-.011zm1.965.011v.5h.786v-1h-.786zm.786 0v.5c.09 0 .237-.009.422-.024l-.04-.499-.04-.498a6 6 0 0 1-.342.021zm.382-.023.02.5c.188-.007.316-.006.394-.001l.035-.499.036-.498a5 5 0 0 0-.504-.001zm.45 0 .132-.482q-1.651-.454-4.688-1.107l-.105.489-.106.489q3.027.65 4.633 1.093zm-4.661-1.1.105-.489a197 197 0 0 1-4.042-.896l-.118.486-.117.486a196 196 0 0 0 4.066.902zm-4.055-.899.168-.47c.118.041.11.125.075.01-.032-.103-.057-.286-.057-.573h-1c0 .327.027.623.1.865.07.229.22.522.546.639zm-.314-1.033h.5v-3.975h-1v3.975zm0-3.975h.5c0-.209.028-.323.052-.375.01-.022.015-.025.01-.019a.1.1 0 0 1-.026.016l-.154-.476-.154-.476a.97.97 0 0 0-.59.547c-.103.232-.138.504-.138.783zm.382-.854.112.487 4.694-1.078-.112-.487-.112-.487-4.694 1.078zm4.694-1.078.1.49q.726-.147 1.507-.329l-.113-.487-.113-.487q-.77.179-1.48.323zm1.494-.326.106.489q.78-.17 1.773-.407l-.116-.486-.116-.486q-.985.234-1.754.402zm1.763-.404.116.486 1.46-.348-.116-.486-.116-.487-1.46.349zm1.46-.348.019-.5q-3.597-.135-5.5-.135v1q1.872 0 5.462.134zm-5.48-.135v-.5H3.195v1h1.976zm-1.977 0v-.5q-1.328 0-2.016.023l.017.5.016.5q.66-.023 1.983-.023zm-2 .022.132-.482c-.035-.01-.005-.009.037.034a.3.3 0 0 1 .085.201h-1c0 .189.07.368.208.506a.9.9 0 0 0 .407.224zM.95 93.17h.5v-1.056h-1v1.055zm0-1.056h.5q0-.667-.012-1.948l-.5.005-.5.004q.012 1.28.012 1.939zM.938 90.17l.5-.005q-.01-1.279-.01-1.938h-1q0 .666.01 1.947zm-.01-1.943h.5q0-.131.009-.21l.015-.087c.003-.01-.008.032-.057.082a.37.37 0 0 1-.266.109v-1c-.4 0-.57.327-.626.493-.06.18-.076.396-.076.613zm.201-.606v.5h16.666v-1H1.13zm16.666 0v.5a.2.2 0 0 1-.109-.04l.278-.415.277-.416a.8.8 0 0 0-.446-.13zm.169.044-.29.407a.2.2 0 0 1-.072-.091l.474-.158.474-.158a.8.8 0 0 0-.296-.406zm.112.158-.464.185q.032.081.044.137l.488-.109.488-.108a2 2 0 0 0-.092-.29zm.068.213-.488.109c.004.018.01.064.01.15h1c0-.125-.009-.251-.034-.367zm.022.258-.499.036q.01.147.01.223h1q0-.127-.012-.294zm.011.259-.497.055a1 1 0 0 1-.002.167l.5.036.498.036c.009-.12.01-.24-.002-.35zm0 .258h-.5v.202h1v-.202zm0 .202h-.5v1.325h1v-1.325zm0 1.325h-.5c0 2.134-.03 3.62-.088 4.47l.498.034.5.034c.06-.887.09-2.404.09-4.538zm-.09 4.504-.498-.034q-.09 1.32-.091 2.044h1q0-.668.088-1.976zm-.09 2.01-.088-.492q-1.51.27-4.478.855l.097.49.096.491q2.964-.584 4.462-.852zm-4.47.854-.093-.492-4.47.854.094.491.094.491 4.47-.853zm-4.469.853-.097.49 9.074 1.797.097-.49.097-.49-9.074-1.797zm9.074 1.797-.485-.121v.003c-.002.005 0-.003-.001.002l-.002.007-.002.01-.002.006v.003l-.001.002v.002l-.004.015-.003.009v.005l-.002.004-.002.011-.001.002v.002c-.002.004 0-.003 0 .001l-.002.003v.003l.485.121.485.121.017-.067.004-.017.001-.004v-.002zm-.022.09-.485-.121a1 1 0 0 0-.038.256h1v.026l.002-.014.006-.026zm-.023.135h-.5q0 1.207.034 3.556l.5-.008.5-.007a269 269 0 0 1-.034-3.541zm.034 3.548-.5.008q.034 2.346.034 3.541h1q0-1.207-.034-3.556zm.034 3.549h-.5v1.662h1v-1.662zm0 1.662-.497-.053a.22.22 0 0 1 .1-.158c.002-.001-.013.006-.055.013a1 1 0 0 1-.177.013v1c.229 0 .472-.028.678-.132a.79.79 0 0 0 .448-.629zm-.63.315-.01-.5q-10.883.247-12.15.269l.01.5.008.5q1.273-.023 12.154-.269zm-6.67 4.702.036-.499-.018-.001h-.018zm2.864.685-.203.457.002.001zm2.19 1.449.353-.354-.002-.002zm1.493 2.044-.443.232.002.003zm.899 2.414.488-.108zm.157 4.156-.494-.077v.001zm-1.19 3.425-.42-.271-.005.007zm-1.224 1.37-.304-.398-.007.006-.006.005zm-2.853 1.606-.157-.475-.004.002zm-3.302.506v-.501l-.004.001zm-6.11-1.663-.295.404zm-.673-.494.296-.403-.003-.002zm-1.505-1.864-.449.22.002.004zm-.82-2.426.492-.091-.001-.004zm3.538-9.961-.244-.437-.004.003zm1.707-.73-.146-.478-.005.001zm1.797-.404-.064-.496h-.006zm6.03 7.996.434-.25-.004-.006zm-.516-.596.307-.394-.01-.007zm-.82-.393-.158.475.003.001zm-.92-.247-.096.491.002.001zm-1.034-.123-.036.498zm-.966-.056.016-.5h-.016zm-1.864.033-.036-.499-.013.002zm-.988.169-.114-.487-.013.003zm-.91.337-.229-.445-.007.004-.008.004zm-.651.572-.4-.3-.006.007-.005.007zm-.281.843-.5-.024v.024zm.157.876-.462.19.005.011zm.416.64-.362.345.008.008zm1.504.707.125-.484-.013-.003zm.978.146.047-.497-.01-.001zm.999.068-.013.5zm1.943-.023-.028-.499-.014.001zm1.763-.314-.19-.463-.005.002zm.708-.382-.278-.416-.006.004zm.516-.595-.447-.224-.003.006zm-4.267-9.771v.5h1.235v-1H9.62zm1.235 0-.036.499q1.495.108 2.697.643l.203-.457.202-.457q-1.38-.61-3.03-.727zm2.864.685-.201.458c.82.361 1.497.811 2.04 1.347l.35-.356.352-.356c-.64-.632-1.424-1.148-2.34-1.55zm2.19 1.449-.354.354a7.9 7.9 0 0 1 1.404 1.922l.443-.232.443-.232a8.9 8.9 0 0 0-1.583-2.166zm1.493 2.044-.44.235q.585 1.098.85 2.288l.489-.109.488-.108a10 10 0 0 0-.946-2.542zm.899 2.414-.488.109q.268 1.213.268 2.508h1q0-1.4-.292-2.725zm.28 2.617h-.5q0 .7-.117 1.462l.494.077.494.076q.13-.832.13-1.615zm-.123 1.539-.494-.076a12 12 0 0 1-.378 1.639l.479.144.479.143q.278-.927.408-1.775zm-.393 1.707-.479-.144a6.2 6.2 0 0 1-.739 1.591l.42.271.421.271q.565-.877.856-1.846zm-.797 1.718-.425-.264a4.5 4.5 0 0 1-1.103 1.236l.304.398.302.398q.787-.601 1.346-1.504zm-1.224 1.37-.317-.387c-.864.707-1.762 1.21-2.693 1.518l.157.475.157.475q1.59-.528 3.012-1.694zm-2.853 1.606-.161-.473c-.93.316-1.974.479-3.14.479v1q1.889.002 3.462-.533zm-3.302.506-.004-.5c-2.458.021-4.379-.517-5.81-1.566l-.295.403-.296.404c1.654 1.212 3.806 1.782 6.41 1.758zm-6.11-1.663.296-.403-.673-.494-.296.403-.296.403.674.495zm-.673-.494.293-.405c-.52-.377-.974-.93-1.35-1.683l-.448.224-.447.224c.432.864.982 1.554 1.658 2.045zm-1.505-1.864.449-.22a9 9 0 0 1-.777-2.297l-.492.091-.491.091a10 10 0 0 0 .862 2.555zm-.82-2.426.491-.095a12.3 12.3 0 0 1-.227-2.353h-1q0 1.284.245 2.544zm-.236-2.448h.5q0-1.399.279-2.557l-.487-.116-.486-.116q-.307 1.29-.306 2.789zm.292-2.673.487.116c.186-.782.434-1.441.736-1.984l-.436-.243-.437-.244q-.534.962-.836 2.239zm.787-2.111.436.243a6.5 6.5 0 0 1 1.116-1.47l-.35-.357-.352-.356a7.5 7.5 0 0 0-1.287 1.696zm1.201-1.584.35.357a6.8 6.8 0 0 1 1.392-1.068l-.248-.434-.248-.434a7.7 7.7 0 0 0-1.597 1.223zm1.494-1.145.243.437a8.7 8.7 0 0 1 1.615-.691l-.151-.476-.151-.477a10 10 0 0 0-1.8.77zm1.707-.73.146.478q.885-.27 1.72-.387l-.07-.495-.07-.496a12 12 0 0 0-1.872.422zm1.797-.404.063.495a14 14 0 0 1 1.734-.108v-1q-.952 0-1.86.117zm6.244 8.827h.5c0-.388-.09-.752-.28-1.081l-.434.25-.433.249c.095.165.147.355.147.582zm-.213-.831.43-.256a2.6 2.6 0 0 0-.64-.734l-.307.394-.307.395c.149.116.28.265.394.456zm-.517-.596.297-.401c-.26-.193-.587-.345-.962-.467l-.155.475-.155.476c.314.102.533.212.677.319zm-.82-.393.158-.474a7.5 7.5 0 0 0-.986-.264l-.093.491-.093.492q.375.07.856.23zm-.92-.247.095-.491a10 10 0 0 0-1.093-.131l-.036.499-.036.498q.612.045.974.116zm-1.034-.123.036-.499a27 27 0 0 0-.986-.057l-.016.5-.016.499q.332.011.946.055zm-.966-.056v-.5h-.876v1h.876zm-.876 0v-.5q-.532 0-1.024.035l.036.498.036.499q.452-.033.952-.032zm-.988.033-.049-.497a8 8 0 0 0-1.053.179l.114.487.114.487a7 7 0 0 1 .922-.158zm-.988.169-.127-.484a5 5 0 0 0-1.012.376l.229.445.229.444q.333-.173.807-.297zm-.91.337-.244-.437a2.6 2.6 0 0 0-.807.709l.4.3.4.3q.208-.276.495-.436zm-.651.572-.41-.286a2.06 2.06 0 0 0-.37 1.105l.499.024.5.023c.01-.224.075-.413.19-.58zm-.281.843h-.5c0 .382.06.74.195 1.066l.462-.19.462-.191a1.8 1.8 0 0 1-.12-.685zm.157.876-.457.201c.131.299.3.564.511.784l.362-.345.36-.346a1.7 1.7 0 0 1-.318-.496zm.416.64-.354.353c.228.229.516.407.845.546l.194-.461.194-.461a1.6 1.6 0 0 1-.526-.331zm.685.438-.194.461q.46.195.902.296l.111-.488.112-.487a4.5 4.5 0 0 1-.737-.243zm.82.269-.125.485q.451.114 1.063.16l.039-.499.038-.498a5.3 5.3 0 0 1-.891-.132zm.977.146-.048.498q.594.058 1.034.07l.013-.5.014-.5a15 15 0 0 1-.966-.065zm.999.068-.013.5q.435.01 1.08.011v-1q-.636 0-1.054-.011zm1.067.011v.5q.49 0 .917-.036l-.041-.498-.042-.498q-.38.032-.834.032zm.876-.034.028.499q.428-.023.938-.093l-.068-.496-.067-.495q-.479.065-.859.086zm.898-.09.068.496c.363-.05.696-.134.992-.26l-.195-.46-.195-.461q-.296.128-.737.19zm.865-.224.19.462q.43-.177.802-.432l-.284-.412-.284-.412q-.28.194-.614.331zm.708-.382.277.416q.45-.302.69-.793l-.45-.218-.45-.218a1 1 0 0 1-.345.397zm.516-.595.447.223c.16-.32.233-.676.233-1.054h-1c0 .25-.047.448-.127.607zm-8.512 35.316v.5h.008zm-.63.023-.026-.499zm-.797.034-.014-.5zm-.853.011v-.5h-.012zm-.843-.034.059-.497-.013-.001zm-.707-.112-.117.486.003.001zm-.505-.247.342-.365-.007-.006-.006-.006zm-.18-5.514-.396-.306-.104.135v.171zm5.447-.528-.004.5zm3.133-.012-.02-.499h-.01l-.01.001zm.45 0-.036.499.168-.981zm-8.716-1.999-.168.471.025.009.026.006zm.068-5.862-.112-.487-.021.005-.021.006zm4.694-1.078-.1-.49-.012.003zm1.494-.326-.107-.488-.006.001zm3.223-.752.116.486-.097-.986zm-9.456-.112-.132.482.073.02.075-.003zm16.767-5.75.29-.407-.006-.005-.007-.004zm.112.157-.474.158.005.014.005.014zm.09.472h-.5v.017l.001.018zm.011.258h-.5v.028l.003.027zm0 .258-.498-.036-.002.018v.018zm-.09 6.031-.498-.035v.001zm-.09 2.01.089.492.412-.073v-.419zm-4.47.854.095.491.002-.001zm-4.469.853-.094-.491-.003.982zm9.074 1.797.485.121.128-.509-.516-.102zm.023 8.984.497.054.003-.027v-.027zm-.63.315v-.5h-.01zm-12.15.269v-.5q-.226 0-.656.024l.027.499.026.499q.423-.022.603-.022zm-.63.023-.026-.499q-.41.021-.785.033l.014.5.015.499q.389-.011.81-.034zm-.797.034-.014-.5q-.374.01-.84.011v1q.479 0 .869-.012zm-.853.011-.012-.5a6 6 0 0 1-.772-.03l-.059.496-.058.497q.424.05.913.037zm-.843-.034.046-.498a5 5 0 0 1-.64-.101l-.113.487-.114.487q.374.087.776.123zm-.707-.112.117-.486c-.162-.039-.243-.09-.28-.126l-.342.365-.342.364c.201.19.457.303.73.369zm-.505-.247.329-.377q-.01-.008-.01-.01v.002l.002.003-.001-.011h-1a1 1 0 0 0 .35.769zm-.18-.393h.5v-5.121h-1v5.121zm0-5.121.396.305c-.006.008.02-.028.144-.079a2.6 2.6 0 0 1 .528-.138c.476-.083 1.148-.128 2.031-.128v-1c-.906 0-1.644.046-2.202.143a3.6 3.6 0 0 0-.738.198c-.203.084-.41.205-.555.393zm3.1-.54v.5q.974 0 2.343.012l.004-.5.004-.5a275 275 0 0 0-2.352-.012zm2.347.012-.004.5q1.38.01 1.969.011v-1q-.58 0-1.961-.011zm1.965.011v.5h.786v-1h-.786zm.786 0v.5c.09 0 .237-.009.422-.024l-.04-.499-.04-.498a6 6 0 0 1-.342.021zm.382-.023.02.5c.188-.007.316-.006.394-.001l.035-.499.036-.498a5 5 0 0 0-.504-.001zm.45 0 .132-.482q-1.651-.454-4.688-1.107l-.105.489-.106.489q3.027.65 4.633 1.093zm-4.661-1.1.105-.489a197 197 0 0 1-4.042-.896l-.118.486-.117.486c.688.167 2.046.468 4.066.902zm-4.055-.899.168-.47c.118.041.11.125.075.01-.032-.103-.057-.286-.057-.573h-1c0 .327.027.623.1.865.07.229.22.523.546.639zm-.314-1.033h.5v-3.975h-1v3.975zm0-3.975h.5c0-.209.028-.322.052-.375.01-.022.015-.024.01-.019a.1.1 0 0 1-.026.016l-.154-.476-.154-.476a.97.97 0 0 0-.59.547c-.103.232-.138.504-.138.783zm.382-.854.112.487 4.694-1.078-.112-.487-.112-.487-4.694 1.078zm4.694-1.078.1.49q.726-.147 1.507-.329l-.113-.487-.113-.487q-.77.179-1.48.323zm1.494-.326.106.489q.78-.17 1.773-.407l-.116-.486-.116-.486q-.985.234-1.754.402zm1.763-.404.116.486 1.46-.348-.116-.486-.116-.487-1.46.349zm1.46-.348.019-.5q-3.597-.135-5.5-.135v1q1.872 0 5.462.135zm-5.48-.135v-.5H3.195v1h1.976zm-1.977 0v-.5q-1.328 0-2.016.023l.017.5.016.499q.66-.022 1.983-.022zm-2 .023.132-.483c-.035-.009-.005-.009.037.034a.3.3 0 0 1 .063.096q.024.061.022.106h-1c0 .188.07.367.208.505a.9.9 0 0 0 .407.224zm-.246-.247h.5v-1.056h-1v1.056zm0-1.056h.5q0-.666-.012-1.947l-.5.004-.5.004q.012 1.28.012 1.939zm-.012-1.943.5-.004q-.01-1.28-.01-1.939h-1q0 .666.01 1.947zm-.01-1.943h.5q0-.131.009-.21l.015-.087c.003-.01-.008.032-.057.082a.38.38 0 0 1-.266.109v-1c-.4 0-.57.327-.626.493a2 2 0 0 0-.076.613zm.201-.606v.5h16.666v-1H1.13zm16.666 0v.5a.2.2 0 0 1-.109-.039l.278-.416.277-.416a.8.8 0 0 0-.446-.129zm.169.045-.29.406a.2.2 0 0 1-.05-.048.2.2 0 0 1-.022-.043l.474-.158.474-.158a.8.8 0 0 0-.296-.406zm.112.157-.464.186a1 1 0 0 1 .044.136l.488-.109.488-.108a2 2 0 0 0-.092-.291zm.067.213-.488.109a.7.7 0 0 1 .011.15h1c0-.125-.009-.251-.034-.367zm.023.259-.499.035q.01.147.01.223h1q0-.127-.012-.294zm.011.258-.497.055a1 1 0 0 1-.002.167l.5.036.498.036a2 2 0 0 0-.002-.349zm0 .258h-.5v.202h1v-.202zm0 .202h-.5v1.325h1v-1.325zm0 1.325h-.5c0 2.134-.03 3.62-.088 4.469l.498.035.5.034c.06-.887.09-2.404.09-4.538zm-.09 4.504-.498-.034a32 32 0 0 0-.091 2.044h1q0-.668.088-1.976zm-.09 2.01-.088-.492q-1.51.27-4.478.855l.097.491.096.49q2.964-.583 4.462-.852zm-4.47.854-.093-.491-4.47.853.094.491.094.491 4.47-.853zm-4.469.853-.097.491 9.074 1.797.097-.491.097-.49-9.074-1.797zm9.074 1.797-.485-.121v.001c0 .002 0-.002 0 0v.002c-.002.005 0-.003-.001.002l-.002.007-.002.01-.002.006v.003l-.001.002v.002l-.004.015-.003.009v.005l-.002.005-.002.01-.001.002v.002c-.002.004 0-.003 0 .001l-.002.003v.003l.485.121.485.121.017-.067.004-.017.001-.004v-.002zm-.022.09-.485-.121a1 1 0 0 0-.038.256h1v.026l.002-.014.006-.026zm-.023.135h-.5q0 1.207.034 3.556l.5-.008.5-.007a269 269 0 0 1-.034-3.541zm.034 3.548-.5.008q.034 2.346.034 3.541h1q0-1.207-.034-3.556zm.034 3.549h-.5v1.662h1v-1.662zm0 1.662-.497-.053a.23.23 0 0 1 .043-.106.2.2 0 0 1 .056-.052c.003-.001-.012.006-.054.014a1 1 0 0 1-.177.012v1c.229 0 .472-.028.678-.132a.79.79 0 0 0 .448-.629zm-.63.315-.01-.5q-10.883.248-12.15.269l.01.5.008.5q1.273-.023 12.154-.269zm.473 5.556h.5v-.5h-.5zm0 13.072v.5h.5v-.5zm-4.2-.011-.05.497.004.001zm-.158-.045.3-.4-.036-.027-.04-.02zm-.135-.079.265-.424-.008-.005-.009-.005zm-.18-.292-.49.098.005.023.007.023zm.068-5.862.5.019.017-.458-.455-.057zm-.562-.079.073-.494-.012-.002zm-.662-.078.057-.497-.009-.001-.008-.001zm-.55-.023v-.5h-.5v.5zm-3.931 5.952-.074.495.037.005h.037zm-.18-.292.354.354.157-.157-.011-.222zm-.18-5.547h.5v-.5h-.5zm-1.617 0v-.5h-.5v.5zm.09 2.886.5-.024zm-.224 3.695v.5h.086l.082-.029zm-4.661-8.67.5-.013v-.002zM.815 165l-.33-.376-.172.151.002.229zm.36-.314-.071-.495-.147.021-.112.098zm.404-.045v.5h.426v-1H1.58zm.426 0v.5q1.917 0 5.666.045l.006-.5.006-.5a514 514 0 0 0-5.678-.045zm5.672.045-.006.5q3.751.045 5.677.045v-1q-1.915 0-5.665-.045zm5.671.045v.5h4.65v-1h-4.65zm4.65 0h-.5v13.072h1v-13.072zm0 13.072v-.5h-3.684v1h3.684zm-3.684 0v-.5h-.168v1h.168zm-.168 0v-.5h-.18v1h.179zm-.18 0v-.5l-.031-.002-.092-.007-.046.498-.045.498c.08.007.158.013.214.013zm-.169-.011.05-.498q-.026-.003-.008 0l.035.013q.025.01.066.04l-.3.4-.3.4a.8.8 0 0 0 .408.142zm-.157-.045.224-.447-.094-.056-.265.424-.265.424c.062.039.124.076.176.102zm-.135-.079.248-.434a.24.24 0 0 1 .087.098l-.447.224-.447.224c.075.149.19.254.311.322zm-.112-.112.447-.224a1 1 0 0 1-.035-.099l-.48.143-.478.144c.027.089.059.179.099.26zm-.067-.18.49-.098a1 1 0 0 1-.013-.149h-1q0 .176.032.345zm-.023-.247h.5v-.314h-1v.314zm0-.314h.5q0-2.901.09-5.282l-.5-.019-.5-.019q-.09 2.404-.09 5.32zm.09-5.301.062-.496q-.17-.021-.55-.077l-.073.494-.073.495q.384.056.572.08zm-.562-.079.06-.496-.665-.079-.057.497-.057.496.66.079zm-.662-.078.04-.499a7 7 0 0 0-.59-.024v1q.248 0 .51.021zm-.55-.023h-.5v5.346h1v-5.346zm0 5.346h-.5c0 .093-.007.151-.013.183l-.002.01a.2.2 0 0 1 .034-.056l.39.312.391.313a.9.9 0 0 0 .167-.383 2 2 0 0 0 .033-.379zm-.09.449-.39-.312a.2.2 0 0 1 .092-.07c.023-.009.029-.005.006-.005v1c.222 0 .493-.064.682-.3zm-.292.113v-.5c-.013 0-.054-.002-.135-.01l-.045.498-.045.498c.084.008.163.014.225.014zm-.18-.012.045-.498a3 3 0 0 0-.225-.013v1c.013 0 .054.002.135.009zm-.18-.011v-.5q-.551 0-1.61.034l.016.5.016.5a52 52 0 0 1 1.578-.034zm-1.594.034-.016-.5q-1.053.033-1.579.033v1q.553 0 1.61-.033zm-1.595.033.074-.494c-.033-.005.01-.006.07.042a.36.36 0 0 1 .131.273h-1c0 .198.086.382.244.508a.85.85 0 0 0 .407.166zm-.225-.179h.5a.34.34 0 0 1-.101.241l-.354-.354-.353-.353a.65.65 0 0 0-.192.466zm.045-.113.5-.025q-.18-3.545-.18-5.23h-1q0 1.728.18 5.281zm-.18-5.255h.5v-.292h-1v.292zm0-.292v-.5H5.712v1H7.33zm-1.617 0h-.5q0 1.019.09 2.91l.5-.024.5-.024a65 65 0 0 1-.09-2.862zm.09 2.886-.5.023q.09 1.895.09 2.818h1q0-.963-.09-2.865zm.09 2.841h-.5c0 .221-.024.348-.048.411-.02.057-.015.001.065-.028l.169.471.168.471c.29-.104.453-.34.537-.568a2.2 2.2 0 0 0 .11-.757zm-.314.854v-.5h-.854v1h.854zm-.854 0v-.5q-.548 0-1.605.022l.01.5.011.5q1.054-.022 1.584-.022zm-1.595.022-.01-.5q-1.054.023-1.584.023v1q.547 0 1.605-.023zm-1.594.023v-.5a.5.5 0 0 1-.117-.012c-.017-.004-.01-.005.008.009a.2.2 0 0 1 .044.058c.007.017.003.019.003-.005h-1c0 .26.087.535.328.728.22.176.493.222.734.222zm-.562-.45h.5q0-.58.011-1.792l-.5-.005-.5-.004q-.01 1.214-.01 1.801zm.011-1.797.5.005q.012-1.214.012-1.846h-1q0 .625-.012 1.837zm.012-1.841h.5q0-1.628-.08-4.64l-.499.013-.5.013q.08 3.007.079 4.614zm-.079-4.627.5-.015q-.09-3.008-.101-4.347l-.5.004-.5.004q.01 1.358.101 4.369zM.815 165l.33.377.359-.315-.33-.376-.329-.376-.36.314zm.36-.314.07.495q.153-.022.243-.032c.066-.007.09-.008.09-.008v-1a4 4 0 0 0-.474.05zm-.046 17.707v-.5H.833l-.143.261zm5.077 0v.5h.004zm10.624.18-.013.5h.013zm1.213.09h.5v-.118l-.053-.106zm-.854 8.175-.184-.465-.005.003zm-2.201.832-.169-.471-.005.002zm-1.842.696.179.467.007-.003zm-4.11 1.572-.179-.467.179.967zm6.412.023.011-.5h-.003zm2.347.022v-.5h-.006zm.202 5.57v-.5h-.01zm-16.733.068-.13.483.064.017h.066zm-.337-7.749-.47-.168-.03.081v.087zm1.415-.652-.169-.47h-.002zm7.367-2.74.178.468-.178-.968zm-8.85-5.593-.438-.239-.061.112v.127zm.27-.494v.5h5.077v-1H1.129zm5.077 0 .004.5q2.769-.022 10.607.18l.013-.5.013-.5c-5.225-.135-8.775-.195-10.641-.18zm10.624.18v.5h.92v-1h-.92zm.92 0v.5c.06 0 .07.006.05 0a.36.36 0 0 1-.205-.187l.448-.223.447-.224a.65.65 0 0 0-.396-.322 1.2 1.2 0 0 0-.344-.044zm.293.09h-.5v7.726h1v-7.726zm0 7.726h-.5a.45.45 0 0 1 .122-.31l.014-.012s-.021.016-.083.048a6 6 0 0 1-.59.258l.183.465.183.466c.29-.115.523-.216.69-.304.08-.042.166-.092.237-.148a.7.7 0 0 0 .128-.129.55.55 0 0 0 .116-.334zm-.854.449-.189-.462q-.84.342-2.18.823l.168.471.168.47a56 56 0 0 0 2.222-.839zm-2.201.832-.174-.469q-1.337.494-1.854.701l.186.464.186.464q.494-.198 1.83-.691zm-1.842.696-.179-.467-4.11 1.572.179.467.178.467 4.11-1.572zm-4.11 1.572v.5h4.357v-1H9.036zm4.357 0v.5q.555 0 2.048.023l.007-.5.008-.5q-1.494-.023-2.063-.023zm2.055.023-.011.499q1.509.035 2.365.023l-.007-.5-.006-.5q-.828.01-2.33-.022zm2.347.022v.5a.38.38 0 0 1-.291-.135l-.014-.02a1.4 1.4 0 0 1 .048.19c.045.256.072.67.072 1.262h1c0-.606-.026-1.09-.086-1.434a1.7 1.7 0 0 0-.148-.483c-.07-.131-.246-.38-.58-.38zm.315 1.797h-.5q0 .553-.023 1.527l.5.011.5.012q.023-.98.023-1.55zm-.023 1.538-.5-.011a78 78 0 0 0-.022 1.213h1q0-.211.022-1.19zm-.022 1.202h-.5v.854h1v-.854zm0 .854h-.5c0 .043-.006.015.015-.041a.4.4 0 0 1 .115-.165.46.46 0 0 1 .302-.115v1a.545.545 0 0 0 .52-.369.9.9 0 0 0 .048-.31zm-.068.179-.01-.5q-3.114.068-8.929.068v1q5.82 0 8.95-.068zm-8.939.068v-.5H1.264v1h7.794zm-7.794 0 .13-.483q.058.017.096.055c.021.021.024.034.018.021a.5.5 0 0 1-.023-.099 2 2 0 0 1-.013-.213h-1c0 .241.026.482.11.688.09.22.262.436.552.514zm-.292-.719h.5v-.292h-1v.292zm0-.292h.5q0-.592-.022-1.728l-.5.01-.5.01q.022 1.132.022 1.708zm-.022-1.718.5-.01a94 94 0 0 1-.023-1.709h-1q0 .593.023 1.729zm-.023-1.719h.5v-3.301h-1v3.301zm0-3.301.471.168c-.037.103-.098.155-.1.157-.011.01-.013.009.006-.002.036-.023.104-.06.214-.111q.324-.149.995-.394l-.17-.47-.172-.47q-.687.25-1.071.426a3 3 0 0 0-.33.173 1 1 0 0 0-.145.108.6.6 0 0 0-.169.247zm1.415-.652.17.471q1.476-.53 4.262-1.575l-.175-.468-.176-.468a350 350 0 0 1-4.25 1.57zm4.257-1.572.175.468 3.113-1.168-.178-.468-.177-.467-3.109 1.167zm3.11-1.168v-.5q-.659 0-1.972-.011l-.004.5-.004.5q1.315.01 1.98.011zm-1.976-.011.004-.5q-1.315-.012-1.98-.011v1q.658 0 1.972.011zm-1.977-.011v-.5q-.503 0-1.493.022l.01.5.012.5a70 70 0 0 1 1.471-.022zm-1.482.022-.011-.5a72 72 0 0 1-1.471.023v1q.503 0 1.493-.023zm-1.482.023v-.5H1.376v1h1.416zm-1.416 0v-.5a.3.3 0 0 1-.086-.009c-.008-.002.006.001.027.019a.2.2 0 0 1 .027.03l.015.028c.005.013 0 .01 0-.018h-1c0 .247.075.517.302.715.214.185.482.235.715.235zm-.516-.45h.5v-5.166h-1v5.166zm0-5.166.439.24.27-.494-.44-.24-.439-.239-.27.494zm17.16 16.666v-.5h-.045v1h.045zm-.045 0v.5h.045v-1h-.045zm-2.751 4.388-.029.499v.001zm2.729.36-.475-.158-.025.077v.081zm.056 6.951.5-.006zm-.045 7.626-.411-.285-.005.007-.005.007zm-2.437.168-.005-.5zm-2.269-4.054h.5v-.5h-.5zm-12.039 0-.113.487.056.013h.057zm-.36-.382h-.5v.019l.002.018zm0-2.336h-.5v.207l.147.147zm.012-1.392-.5-.007zm.011-1.999h.5v-.025l-.002-.025zm-.022-.652-.32-.384-.18.15v.234zm.539-.449v-.5h-.181l-.14.116zm10.41.214v-.5h-.031zm.573-.023-.033-.499-.016.001-.017.002zm.27-.056-.144-.479-.03.009-.03.013zm.213-.09-.223-.447-.01.005-.01.005zm.158-.157-.425-.265-.018.03-.014.032zm.056-3.437-.481-.137-.02.067v.07zm1.55-.314v.5c.12 0 .306.007.566.021l.029-.499.028-.499a12 12 0 0 0-.624-.023zm.595.022-.028.5c.268.014.465.023.578.023v-1c-.081 0-.252-.007-.523-.022zm.55.023v.5c.058 0 .215-.009.436-.024l-.032-.499-.032-.499-.27.017-.077.004-.025.001zm.404-.023.032.499q.337-.021.575-.021v-1q-.28 0-.639.023zm.607-.022v.5c.39 0 .649.019.8.047.08.015.09.026.07.014a.39.39 0 0 1-.18-.337h1c0-.3-.21-.466-.328-.533a1.2 1.2 0 0 0-.377-.126c-.245-.047-.581-.065-.985-.065zm1.19.224h-.5v.014l.003-.014.475.158.474.158a1 1 0 0 0 .048-.316zm-.022.158h-.5q0 2.352.056 6.957l.5-.006.5-.006a621 621 0 0 1-.056-6.945zm.056 6.951-.5.006q.056 4.615.056 6.901h1q0-2.296-.056-6.913zm.056 6.907h-.5q-.001.267-.02.397l-.016.078c-.004.014 0-.006.024-.041l.41.285.412.284c.104-.15.141-.335.16-.467a4 4 0 0 0 .03-.536zm-.101.719-.42-.271a.2.2 0 0 1 .047-.052.1.1 0 0 1 .038-.023q.012-.004-.004 0-.014.002-.054.003v1c.264 0 .61-.071.813-.387zm-.393.157v-.5h-.315v1h.315zm-.315 0v-.5q-.588 0-1.734.011l.005.5.005.5q1.144-.01 1.724-.011zm-1.73.011-.004-.5q-1.133.012-1.725.012v1q.6 0 1.735-.012zm-1.729.012v-.5q-.113-.001-.167-.012c-.037-.007-.044-.013-.034-.007a.25.25 0 0 1 .117.204h-1a.76.76 0 0 0 .41.676c.206.111.451.139.674.139zm-.584-.315h.5q0-.622.023-1.866l-.5-.009-.5-.009q-.023 1.247-.023 1.884zm.023-1.875.5.009q.022-1.249.022-1.885h-1q0 .621-.022 1.867zm.022-1.876v-.5H1.22v1h12.04zm-12.039 0 .114-.487c-.047-.011-.034-.018-.008.01a.1.1 0 0 1 .029.044l.004.014-.498.037-.499.037a.9.9 0 0 0 .236.553 1 1 0 0 0 .509.279zm-.36-.382h.5q0-.387.012-1.138l-.5-.007-.5-.008q-.01.754-.011 1.153zm.012-1.145.5.007q.011-.754.011-1.153h-1q0 .387-.01 1.138zm.011-1.146h.5c0-.194-.1-.329-.169-.398l-.353.353-.354.354a.44.44 0 0 1-.124-.309zm-.022-.045h.5q0-.489.011-1.386l-.5-.006-.5-.007q-.01.9-.011 1.399zm.011-1.392.5.006q.012-.888.011-1.331h-1q0 .432-.01 1.318zm.011-1.325h.5v-.674h-1v.674zm0-.674.498-.05a7 7 0 0 1-.02-.602h-1c0 .29.007.527.025.701zm-.022-.652.32.384.539-.449-.32-.384-.32-.384-.54.449zm.539-.449v.5q1.694 0 5.06.112l.016-.5.017-.499q-3.372-.113-5.093-.113zm5.076.112-.017.5q3.373.113 5.093.113v-1q-1.693 0-5.06-.112zm5.076.113v.5c.07 0 .17-.005.29-.012l-.031-.499-.032-.5a4 4 0 0 1-.227.011zm.259-.011v.5h.291v-1h-.291zm.292 0v.5q.159-.002.346-.027l-.066-.496-.066-.496q-.149.02-.214.019zm.28-.023.034.499c.143-.01.297-.035.439-.098l-.203-.457-.203-.457-.017.004-.083.01zm.27-.056.144.479a1.6 1.6 0 0 0 .312-.132l-.243-.437-.243-.437a.5.5 0 0 1-.114.048zm.213-.09.224.447a.82.82 0 0 0 .39-.401l-.456-.203-.457-.203a.2.2 0 0 1 .041-.061.1.1 0 0 1 .035-.026zm.158-.157.424.265a.9.9 0 0 0 .132-.49h-1c0 .022-.005-.002.02-.04zm.056-.225h.5v-3.212h-1v3.212zm0-3.212.48.138c-.036.129-.124.171-.11.164a.7.7 0 0 1 .161-.048c.21-.042.542-.068 1.018-.068v-1c-.497 0-.909.026-1.216.088a1.6 1.6 0 0 0-.442.15.74.74 0 0 0-.372.439zM.792 237.897l.487.115v-.004zm1.707-3.156-.336-.369-.004.003zm1.36-.977-.232-.443-.009.004zm1.662-.651-.138-.481h-.001zm1.864-.416-.073-.495-.006.001zm2.055-.213v-.5h-.017l-.018.001zm9.141 7.861h.5v-.019l-.001-.02zm-.314 2.482-.481-.135-.002.006zm-2.089 3.347-.317-.387-.003.003zm-3.313 1.595-.12-.486h-.001zm-7.412-.203.173-.469-.003-.001zm-2.74-1.695.357-.35-.002-.002zm4.672-7.311-.034-.499-.013.001zm-.854.112-.09-.492H6.44zm-.752.191-.15-.477-.012.004zm-1.078.763-.424-.265-.007.011-.006.01zm.01 1.326.442-.237-.004-.006zm.405.505.326-.38-.011-.009zm1.382.539-.105.489.003.001zm.842.101-.033.499h.001zm.797.034.021-.5h-.02zm.899.011.058-.497-.03-.003h-.028zm1.64.045.014-.5h-.015zm2.066-.112.094.491zm.662-.191-.158-.475-.013.005zm.584-.303-.312-.391-.01.008zm.37-.461-.435-.244-.004.007-.004.006zm-.19-1.617.354-.354zm-1.471-.753-.152.477.006.002zm-.674-.123-.054.497h.002zm-.685-.079.062-.496-.01-.001-.009-.001zm-.741-.033-.012.499zM.545 240.21h.5q.002-1.22.234-2.198l-.487-.115-.486-.115q-.261 1.11-.26 2.428zm.247-2.313.488.111q.226-.978.603-1.669l-.44-.239-.438-.239q-.453.837-.7 1.925zm.652-1.797.439.239a4.8 4.8 0 0 1 .957-1.232l-.34-.366-.341-.366a5.8 5.8 0 0 0-1.154 1.486zm1.055-1.359.337.37q.6-.545 1.262-.908l-.24-.439-.24-.439a7.5 7.5 0 0 0-1.455 1.047zm1.36-.977.231.443a8.5 8.5 0 0 1 1.57-.614l-.14-.48-.138-.481a9.5 9.5 0 0 0-1.755.689zm1.662-.651.137.481q.915-.262 1.805-.403l-.078-.494-.079-.494a16 16 0 0 0-1.923.429zm1.864-.416.072.495a26 26 0 0 1 2.018-.209l-.035-.499-.035-.499q-1.15.079-2.093.218zm2.055-.213v.5c2.77 0 4.82.639 6.221 1.844 1.396 1.2 2.223 3.025 2.422 5.556l.498-.039.499-.039c-.213-2.71-1.115-4.815-2.767-6.236-1.645-1.415-3.961-2.086-6.873-2.086zm9.141 7.861h-.5q-.001 1.301-.295 2.347l.481.135.482.135q.333-1.2.332-2.617zm-.314 2.482-.483-.129c-.192.717-.446 1.31-.756 1.789l.42.272.419.272c.379-.585.67-1.279.883-2.075zm-.82 1.932-.42-.272q-.472.73-1.166 1.3l.317.387.317.386q.811-.665 1.372-1.529zm-1.269 1.415-.32-.384q-.694.578-1.438.918l.208.454.209.455a7.4 7.4 0 0 0 1.661-1.059zm-1.55.988-.208-.454a9.5 9.5 0 0 1-1.675.575l.12.486.12.485a10.5 10.5 0 0 0 1.852-.637zm-1.763.607-.121-.486a12 12 0 0 1-1.739.314l.052.497.052.498a14 14 0 0 0 1.877-.338zm-1.808.325-.052-.497q-.837.087-1.745.087v1q.957 0 1.849-.092zm-1.797.09v-.5c-1.374 0-2.583-.199-3.634-.587l-.173.469-.173.469c1.18.436 2.51.649 3.98.649zm-3.807-.618.17-.47c-1.056-.383-1.902-.911-2.553-1.575l-.357.35-.357.349c.771.789 1.752 1.391 2.927 1.816zm-2.74-1.695.355-.352a6.7 6.7 0 0 1-1.505-2.343l-.467.179-.467.179a7.7 7.7 0 0 0 1.728 2.688zm-1.617-2.516.467-.179q-.516-1.341-.518-2.966h-1q-.001 1.79.584 3.324zm7.895-4.852v-.5q-.444 0-.792.012l.017.5.016.499q.326-.01.759-.011zm-.775.012-.017-.5a25 25 0 0 0-.848.046l.034.499.034.498q.489-.032.813-.044zm-.831.045-.047-.498q-.498.046-.896.118l.09.492.089.492q.344-.063.81-.107zm-.854.112-.092-.492a7 7 0 0 0-.81.206l.15.477.15.477q.368-.115.694-.177zm-.752.191-.162-.473c-.293.1-.555.224-.775.377l.285.41.286.411a2.1 2.1 0 0 1 .528-.252zm-.652.314-.285-.41a2 2 0 0 0-.565.594l.424.265.424.265q.115-.183.288-.303zm-.426.449-.437-.244c-.15.268-.22.563-.22.873h1a.76.76 0 0 1 .093-.384zm-.158.629h-.5c0 .336.073.654.232.939l.437-.242.437-.243a.9.9 0 0 1-.106-.454zm.169.697-.44.236a2.1 2.1 0 0 0 .53.658l.314-.389.315-.389a1.1 1.1 0 0 1-.278-.352zm.404.505-.325.38c.223.191.506.33.822.433l.155-.476.154-.476c-.238-.077-.39-.163-.48-.241zm.652.337-.155.476q.433.14.78.215l.105-.489.104-.489a7 7 0 0 1-.68-.189zm.73.202-.102.49q.375.076.911.11l.033-.499.032-.499a6 6 0 0 1-.773-.092zm.842.101-.032.499q.533.035.83.035v-1q-.244 0-.766-.033zm.797.034-.02.499q.285.012.773.012v-1q-.48 0-.732-.011zm.753.011v.5h.145v-1H8.89zm.146 0-.059.497c.286.033.707.048 1.25.048v-1c-.537 0-.91-.015-1.133-.042zm1.19.045v.5h.449v-1h-.448zm.45 0-.015.5q.397.01.643.011v-1q-.225 0-.614-.011zm.628.011v.5q.277 0 .734-.035l-.037-.498-.038-.499a10 10 0 0 1-.659.032zm.697-.033.037.498q.466-.034.798-.097l-.094-.491-.095-.491q-.252.049-.684.082zm.74-.09.095.491a5 5 0 0 0 .74-.212l-.172-.47-.17-.47q-.344.124-.587.17zm.663-.191.158.474a2.3 2.3 0 0 0 .748-.395l-.322-.382-.322-.383a1.3 1.3 0 0 1-.42.211zm.584-.303.313.39q.313-.254.502-.62l-.444-.231-.444-.231a.9.9 0 0 1-.24.301zm.37-.461.437.244c.152-.27.221-.569.221-.884h-1a.8.8 0 0 1-.093.396zm.158-.64h.5q.002-.36-.102-.691l-.476.152-.477.151q.054.164.055.388zm-.079-.539.477-.152a1.6 1.6 0 0 0-.393-.64l-.353.354-.354.353a.6.6 0 0 1 .147.236zm-.269-.438.354-.354a4 4 0 0 0-.42-.369l-.305.397-.303.397q.162.125.32.282zm-.37-.326.303-.397a2.1 2.1 0 0 0-.672-.327l-.148.477-.148.478c.182.056.295.116.36.166zm-.517-.247.148-.477-.587-.181-.145.478-.146.479.582.179zm-.584-.18.151-.476a4 4 0 0 0-.773-.144l-.052.497-.052.497c.27.029.456.065.574.103zm-.674-.123.054-.497q-.413-.045-.677-.078l-.062.496-.062.496q.275.035.693.08zm-.685-.079.043-.498a13 13 0 0 0-.773-.035l-.011.5-.012.499c.319.008.553.019.71.032zm-.741-.033.012-.5a31 31 0 0 0-.709-.012v1q.215 0 .685.011zm-.697-.012v-.5h-.696v1H9.9zm-.696 0v-.5H8.99v1h.213zm2.28 28.837.162-.473-.006-.002zm-1.393-.696.3-.401-.006-.004zm-1.168-1.056.367-.34-.004-.004zm-1.033-1.224-.406.291.003.005zm-1.033-1.359.391-.311-.002-.003zm-1.146-1.291.354-.354-.854-.853v1.207zm.045 2.336.5-.015zm-.483 3.447-.227-.445-.011.006zm-2.526.247-.024.5zm-1.842-.483h-.5v.042l.007.041zm0-.808-.5-.013v.013zm.09-3.639.5.012v-.012zm-.18-9.815v-.5H.298l.017.517zm.225 0v.5h.283l.145-.243zm.404-.281-.158-.474-.008.002-.008.003zm4.717.663-.417.276.002.004zm3.032 4.424-.409.289.007.009.006.009zm.539.697-.395.306v.001zm4.11 2.145-.353-.354-.007.007zm.09-1.359-.4.3.002.003zm-.427-.315.165-.472-.013-.004zm-.505-.134.106-.489-.01-.002-.01-.002zm-.472-.146.214-.452-.01-.005-.01-.004zm-.258-.281h-.5v.058l.013.056zm.337-5.84.052-.497-.026-.003h-.026zm2.774.775-.232.443.001.001zm2.819 3.897-.487.116.001.004zm.123 5.143-.492-.088v.005zm-.595 2.033-.46-.197-.001.004zm-1.01 1.662-.378-.328-.005.006zm-3.46 1.539v-.5a5 5 0 0 1-1.612-.254l-.162.473-.162.473q.906.31 1.936.308zm-1.774-.281.156-.475a4.4 4.4 0 0 1-1.25-.622l-.299.401-.298.401q.651.482 1.535.77zm-1.393-.696.294-.405a7.7 7.7 0 0 1-1.095-.991l-.367.34-.366.341q.62.669 1.24 1.12zm-1.168-1.056.363-.344a13 13 0 0 1-.993-1.176l-.403.296-.403.296q.46.624 1.073 1.272zm-1.033-1.224.406-.291q-.435-.608-1.048-1.379l-.391.311-.392.311q.601.757 1.019 1.339zm-1.033-1.359.39-.314a17 17 0 0 0-1.182-1.331l-.354.354-.353.353q.516.516 1.11 1.252zm-1.146-1.291h-.5q0 .775.046 2.35l.5-.014.5-.015a90 90 0 0 1-.046-2.321zm.045 2.336-.5.014q.045 1.58.045 2.389h1q0-.832-.045-2.418zm.045 2.403h-.5c0 .396-.123.532-.255.599l.227.445.228.446c.572-.292.8-.853.8-1.49zm-.528 1.044-.238-.439c-.238.129-.638.22-1.255.22v1c.686 0 1.281-.096 1.732-.341zm-1.493.281v-.5q-.283 0-1.01-.033l-.023.499-.023.5q.73.034 1.056.034zm-1.033-.034.023-.499a25 25 0 0 0-1.124-.034v1q.363 0 1.077.033zm-1.101-.033v-.5h-.202v1h.202zm-.202 0v-.5a1 1 0 0 1-.106-.004l-.031-.004-.121.485-.122.485c.12.03.254.038.38.038zm-.258-.023.12-.485c.084.021.115.067.106.055l-.395.307-.395.307a.82.82 0 0 0 .442.301zm-.169-.123.395-.307c.012.015.012.021.007.007l-.021-.086-.493.082-.493.083c.028.172.085.367.21.528zm-.112-.304h.5v-.808h-1v.808zm0-.808.5.013.09-3.64-.5-.012-.5-.012-.09 3.638zm.09-3.639h.5q0-4.502-.18-9.832l-.5.017-.5.017q.18 5.316.18 9.798zm-.18-9.815v.5h.225v-1H.815zm.225 0 .428.257c-.01.018-.015.015.008-.001a.6.6 0 0 1 .141-.068l-.173-.469-.174-.469c-.245.091-.506.237-.66.493zm.404-.281.158.474q.214-.073.516-.075v-1q-.44-.002-.832.127zm.674-.101v.5h3.279v-1h-3.28zm3.279 0v.5c-.079 0-.12-.028-.112-.023.006.004.032.021.078.067.093.093.22.253.38.496l.418-.276.417-.276a4.3 4.3 0 0 0-.507-.651 1.4 1.4 0 0 0-.273-.219.8.8 0 0 0-.401-.118zm.764.764-.415.28a309 309 0 0 0 3.038 4.433l.409-.289.408-.288a301 301 0 0 1-3.026-4.417zm3.032 4.424-.396.307.54.696.395-.306.395-.306-.539-.697zm.539.697-.395.307c.646.83 1.274 1.476 1.888 1.918s1.243.7 1.876.7v-1c-.355 0-.782-.145-1.291-.512-.51-.366-1.071-.933-1.683-1.72zm3.37 2.425v.5c.419 0 .807-.128 1.101-.434l-.36-.346-.361-.347c-.066.069-.172.127-.38.127zm.74-.28.354.353c.292-.292.416-.673.416-1.083h-1c0 .204-.056.309-.123.376zm.27-.73h.5c0-.336-.077-.663-.282-.932l-.398.303-.398.303c.035.045.078.138.078.326zm-.18-.629.4-.3a1.4 1.4 0 0 0-.662-.487l-.165.472-.164.473a.4.4 0 0 1 .191.142zm-.427-.315.152-.476a6 6 0 0 0-.55-.147l-.107.489-.106.488q.235.051.46.123zm-.505-.134.086-.493a1.3 1.3 0 0 1-.344-.105l-.214.452-.214.452q.283.131.6.186zm-.472-.146.194-.461c-.019-.008-.012-.009.003.007a.14.14 0 0 1 .032.058l-.487.115-.487.114a.9.9 0 0 0 .551.627zm-.258-.281h.5v-5.211h-1v5.211zm0-5.211h.5q.001-.125.013-.187c.008-.044.016-.055.012-.049a.23.23 0 0 1-.188.107v-1a.77.77 0 0 0-.693.421c-.115.214-.144.47-.144.708zm.337-.629-.052.497c1.03.108 1.89.352 2.594.721l.232-.443.232-.443c-.84-.44-1.828-.712-2.954-.829zm2.774.775-.23.444c.71.368 1.257.853 1.656 1.45l.416-.277.416-.277c-.5-.75-1.18-1.344-2.028-1.784zm1.842 1.617-.416.277q.622.931.906 2.119l.487-.116.486-.116a7.5 7.5 0 0 0-1.047-2.441zm.977 2.28-.486.12q.299 1.197.3 2.777h1q.001-1.676-.329-3.017zm.314 2.897h-.5q0 1.14-.183 2.158l.492.088.492.089q.2-1.115.2-2.335zm-.19 2.246-.494-.083a8.4 8.4 0 0 1-.561 1.919l.459.197.46.198a9.3 9.3 0 0 0 .628-2.148zm-.596 2.033-.461-.193a5.6 5.6 0 0 1-.927 1.527l.377.328.377.329a6.6 6.6 0 0 0 1.095-1.798zm-1.01 1.662-.383-.322a3.8 3.8 0 0 1-1.312.993l.212.452.212.453a4.8 4.8 0 0 0 1.653-1.254zm-1.483 1.123-.212-.452c-.518.242-1.104.368-1.765.368v1c.792 0 1.524-.151 2.189-.463z"/></svg>