<?xml version="1.0" encoding="UTF-8"?>
<svg id="_レイヤー_1" data-name="レイヤー_1" xmlns="http://www.w3.org/2000/svg" version="1.1" viewBox="0 0 320.01 71.94">
  <!-- Generator: Adobe Illustrator 29.5.1, SVG Export Plug-In . SVG Version: 2.1.0 Build 141)  -->
  <path d="M310.84,37.34l1.04,5.35-3.99.28,1.54,7.92-1.78.12-2.58-13.27,5.78-.4ZM317.75,36.85l2.17,11.18.05.34c.04.32.04.58,0,.79l-.03.1c-.07.23-.23.43-.46.57-.28.17-.64.29-1.08.36-.43.07-.97.13-1.62.17-.05-.18-.13-.37-.23-.58-.1-.21-.21-.43-.34-.65-.02-.04-.05-.08-.07-.11l-3.74.26.15.75-1.63.11-1.25-6.42,5.79-.4,1.02,5.26c.06,0,.11,0,.17,0l.72-.05.45-.05c.14,0,.23-.04.27-.09.03-.04.04-.1.04-.18v-.09s-1.14-5.77-1.14-5.77l-4.1.29-1.05-5.37,5.91-.41ZM312.15,47.98l2.47-.17-.18-.91-2.47.17.18.91ZM311.73,45.81l2.47-.17-.17-.88-2.47.17.17.88ZM314.35,41.26l2.39-.17-.17-.87-2.39.17.17.87ZM307.64,41.7l2.3-.16-.16-.84-2.3.16.16.84ZM307.24,39.66l2.3-.16-.15-.77-2.3.16.15.77ZM313.95,39.2l2.39-.17-.15-.77-2.39.17.15.77Z"/>
  <path d="M302.99,38.44c-.52.2-1.1.38-1.75.54-.63.16-1.31.31-2.03.44.19.23.38.48.57.75.21.3.37.57.47.8l-.98.59,1.85-.13-.35-.11c.1-.21.2-.44.29-.71.09-.27.17-.55.25-.82.08-.28.13-.54.17-.76l1.6.44c-.17.4-.35.81-.54,1.22-.11.24-.22.47-.33.66l1.62-.11.49,2.5-1.02.07.1.53,1.05-.07.27,1.37-1.05.07.38,1.96,1.24-.09.27,1.38-1.24.09.42,2.15-1.5.1-.42-2.15-3.02.21-.27-1.38.99-.07-.38-1.96-.36.03-.07-.35c-.04,1.26-.25,2.34-.62,3.26-.48,1.19-1.2,2.13-2.18,2.82-.13-.18-.3-.38-.53-.61-.21-.22-.41-.4-.59-.53.83-.52,1.46-1.28,1.9-2.3-.17-.14-.37-.29-.61-.45-.12-.09-.25-.17-.37-.25-.13.25-.27.48-.42.69-.1-.07-.23-.15-.4-.24-.08-.05-.17-.09-.25-.14l.27,1.36-2.45.17.25,1.28-1.51.11-2.3-11.85,3.97-.28,1.58,8.15c.18-.33.33-.7.45-1.1.14-.46.25-.94.31-1.44l-.79.06-.49-2.5,1.5-.1c-.1-.16-.21-.33-.34-.51-.23-.32-.45-.62-.69-.88l.8-.51c-.42.05-.83.1-1.24.15-.07-.17-.16-.38-.29-.61-.12-.24-.23-.44-.34-.59.66-.08,1.34-.16,2.03-.26.35-.05.69-.1,1.03-.15l1-.17c.66-.13,1.28-.26,1.85-.4.58-.14,1.08-.29,1.49-.46l1.27,1.06ZM301.82,47.83l.73-.05-.38-1.96-.73.05.38,1.96ZM293.16,47.95l.93-.06-.32-1.62-.93.06.32,1.62ZM297.42,45.68c-.05.19-.1.38-.15.56-.03.11-.07.22-.11.32.21.12.43.25.65.39.09.05.17.1.25.16.11-.47.18-.96.2-1.49l-.85.06ZM296.77,43.53l.95.11c-.01.25-.04.5-.07.75l.84-.06.24-.06.98.19c0,.05,0,.1,0,.15l2.2-.15-.18-.94.93-.06-.15-.75-5.82.41.08.43ZM292.56,44.87l.93-.06-.29-1.52-.93.06.3,1.52ZM298.84,39.48c-.59.1-1.19.2-1.8.28-.13.02-.27.03-.4.05.19.21.39.43.58.69.24.31.43.58.55.81l-.62.4,1.8-.13c-.09-.21-.22-.45-.4-.72-.2-.32-.41-.62-.61-.88l.89-.5ZM291.98,41.9l.93-.06-.3-1.52-.93.06.29,1.52Z"/>
  <path d="M280.1,43.43l1.83,9.41-4.97.35-.31-1.59,3.19-.22-1.52-7.82,1.78-.12Z"/>
  <path d="M266.12,40.66c-.02.2-.04.44-.04.73,0,.29,0,.51,0,.67,0,.17,0,.35-.01.56.16-.04.33-.07.49-.11.65-.15,1.29-.33,1.92-.52l.36,1.84c-.59.18-1.23.34-1.91.49-.31.07-.61.13-.91.19,0,.12,0,.24-.01.36-.01.55-.04,1.07-.07,1.57-.03.53-.08,1.1-.15,1.73l-.12.93c-.04.31-.09.63-.14.95-.09.63-.19,1.24-.3,1.83l-.17.82c-.06.26-.12.5-.18.73l-2.21-.55c.11-.29.22-.63.33-1.01l.11-.4c.14-.56.27-1.15.38-1.79.06-.32.12-.63.17-.95l.14-.94c.08-.62.14-1.2.18-1.73.03-.35.06-.71.08-1.08,0-.06,0-.12,0-.17-.35.04-.68.07-.99.09-.18.01-.35.02-.51.03l-.46.02c-.29,0-.58,0-.85.01l-.4-1.84c.4.01.74.02,1.02.02.14,0,.29,0,.43,0l.45-.02c.43-.03.88-.08,1.33-.14v-.04c0-.31,0-.58-.02-.8-.02-.28-.06-.55-.1-.83-.04-.28-.09-.5-.14-.66l2.32.02ZM269.4,48.7c-.02.21-.03.43-.02.66,0,.22.02.41.05.58.03.16.1.3.19.43.1.13.23.25.4.34l.14.06c.15.06.32.1.52.13l.22.02c.16.01.33.01.51,0h.29c.51-.05,1.01-.11,1.51-.19.51-.1,1.02-.21,1.54-.35l.29,1.89c-.41.08-.86.16-1.37.23-.5.08-1.05.15-1.65.19-1.18.08-2.13-.03-2.86-.34l-.14-.06c-.74-.37-1.18-.92-1.33-1.67-.06-.33-.1-.67-.11-1.02,0-.35-.01-.67,0-.97l1.82.05ZM264.48,49.95h0c-.11.66-.24,1.28-.4,1.86h0c-.04.14-.07.27-.11.4l.11.03c.05-.21.09-.42.14-.65.11-.57.2-1.16.29-1.78h0c.01-.09.02-.18.04-.26-.02.14-.05.27-.07.41ZM268.76,50.79c.1.28.29.48.63.64.02,0,.03.01.05.02-.2-.13-.39-.29-.55-.48l-.08-.11s-.03-.05-.05-.08ZM271.36,44.66c.22-.01.44-.02.66-.02.45-.01.9,0,1.35,0l.3,1.77c-.19-.01-.39-.02-.6-.03h-.65c-.33-.01-.67,0-1.01,0l-.34.02c-.51.04-1,.08-1.47.15-.46.05-.93.12-1.38.22l-.34-1.74c.21-.03.42-.07.65-.1l.72-.1c.5-.07.99-.11,1.47-.15l.65-.04ZM264.99,41.63c0,.06.02.11.02.17.02,0,.03,0,.05,0,0-.05,0-.1,0-.16h-.07Z"/>
  <path d="M254.23,45.53c.67-.01,1.29.09,1.86.31.65.24,1.2.62,1.63,1.14.43.52.72,1.15.87,1.89l.04.25c.08.57.03,1.11-.14,1.61l-.08.21c-.2.49-.52.93-.98,1.33-.52.45-1.2.84-2.05,1.16-.84.33-1.84.57-3.02.72l-1.15-1.76c.85-.08,1.63-.21,2.32-.39.62-.16,1.15-.35,1.59-.58l.19-.1c.49-.28.85-.62,1.06-1.01.23-.39.29-.84.2-1.33-.06-.33-.19-.61-.38-.85l-.08-.1c-.2-.24-.44-.42-.73-.56l-.13-.05c-.31-.12-.65-.17-1.02-.16h-.16c-.35.03-.73.1-1.14.22l-.31.09c-.31.1-.63.21-.95.34-.42.17-.84.35-1.25.54l-.59.28c-.19.09-.37.18-.55.27l-.48.24c-.14.07-.27.14-.39.21l-1.15-1.86c.22-.07.47-.14.76-.23l.75-.28.94-.38c.39-.16.83-.32,1.3-.48.48-.16.97-.31,1.46-.43.5-.12.98-.2,1.44-.23h.29ZM257.59,50.09s.02-.09.03-.14c0,.05-.02.09-.03.14ZM257.65,49.45c0,.15,0,.3-.02.44.02-.14.03-.29.02-.44ZM257.64,49.34s0-.05,0-.07c0,.02,0,.05,0,.07ZM256.87,47.44h0s0,0,.01.01c0,0,.01.01.02.02h0c.2.23.35.47.47.73-.08-.2-.18-.37-.3-.53l-.1-.13s-.08-.09-.12-.14c0,.01.02.02.03.03Z"/>
  <path d="M236.04,42.88c-.01.19-.02.4-.03.63,0,.22,0,.42,0,.61v.75c-.01.26-.02.52-.03.79.14-.02.29-.04.42-.06.33-.04.61-.07.83-.09h.2c.45-.02.87.04,1.25.17.44.14.82.41,1.13.8l.11.16c.26.38.45.88.57,1.5l.08.44c.08.45.14.94.2,1.45.08.68.12,1.33.12,1.96,0,.63-.07,1.16-.2,1.61l-.06.19c-.15.43-.39.74-.72.94-.37.22-.84.36-1.41.4-.22.02-.45.02-.69,0l-.25-.02c-.16,0-.32-.02-.47-.03l-.42-.04-.71-1.92c.21.04.43.07.67.1.25.03.48.06.7.07h.3c.09.01.16.01.23,0,.25-.02.46-.08.63-.18.13-.08.23-.2.3-.36l.06-.17c.08-.29.12-.67.11-1.13,0-.46-.03-.95-.09-1.47-.04-.4-.09-.79-.15-1.16l-.07-.37c-.08-.39-.19-.68-.33-.86-.13-.16-.29-.26-.48-.31l-.08-.02c-.22-.05-.49-.07-.81-.05-.22.02-.52.06-.92.12-.04,0-.07.01-.11.02-.01.19-.02.39-.04.6-.04.57-.1,1.19-.17,1.85l-.06.49c-.07.49-.15.99-.24,1.49l-.2.99c-.07.33-.15.65-.23.97-.16.63-.35,1.2-.58,1.71l-2.09-.63c.26-.49.48-1.02.67-1.61.2-.6.36-1.21.49-1.84.13-.63.23-1.24.31-1.84.08-.6.15-1.17.19-1.69,0-.05,0-.1.01-.15-.13.02-.26.05-.39.07-.37.08-.66.13-.86.16-.2.05-.47.12-.8.19-.32.06-.59.12-.82.18l-.57-1.99c.27,0,.54,0,.8-.03l.8-.09c.24-.03.53-.06.87-.11.33-.05.67-.1,1.02-.16,0-.47-.02-.93-.05-1.38-.04-.62-.12-1.21-.24-1.76l2.27.07ZM239.67,53.36c-.13.23-.3.44-.55.6h-.02s0,.01,0,.01c.07-.03.14-.06.2-.1h0c.13-.08.27-.23.36-.52ZM233.87,53.88c-.05.13-.1.26-.14.39h.02c.04-.12.09-.26.13-.39ZM241.45,43.91c.3.3.62.68.97,1.14l.26.35c.26.35.52.72.78,1.1.35.51.68,1.01.97,1.48l.41.66c.12.2.23.39.31.56l-1.73,1c-.14-.3-.3-.63-.49-.98l-.2-.36c-.27-.5-.57-1-.9-1.5-.24-.39-.49-.75-.75-1.11l-.26-.35c-.34-.45-.68-.83-1.01-1.12l1.63-.88ZM243.79,48.78h.01c-.06-.1-.11-.2-.18-.29.06.1.11.2.16.29ZM234.94,43.83c.02.15.04.31.05.47,0-.1,0-.19,0-.28h0v-.03c0-.05,0-.1,0-.16h-.05Z"/>
  <path d="M222.3,42.9l.28,1.41,4.37-.31,1.24,6.41,1.34.8c-.34.33-.71.67-1.12,1-.4.34-.81.65-1.23.95-.2.15-.4.29-.59.42,1.19.63,2.63,1.02,4.32,1.18-.11.13-.22.29-.33.49-.1.21-.2.41-.29.62-.09.22-.16.41-.21.58-1.19-.15-2.25-.42-3.19-.8l-.39-.17c-1.03-.47-1.94-1.1-2.73-1.87-.69-.68-1.32-1.48-1.89-2.4l-1.89.13.66,3.37c.3-.07.61-.13.92-.2.81-.19,1.62-.37,2.41-.56l.43,1.66c-.74.17-1.48.35-2.23.53l-1.11.26c-.36.09-.72.17-1.08.25-.7.17-1.33.32-1.91.46l-.77-1.69c.47-.09.98-.2,1.55-.32l-2.02-10.39,3.89-.27-.28-1.41,1.87-.13ZM232.95,54l-.52.61c.1-.2.2-.41.29-.63l.23.02ZM223.74,51.09c.42.6.91,1.12,1.46,1.58.18-.13.38-.28.57-.43.4-.32.8-.65,1.17-.99.15-.14.28-.27.41-.4l-3.61.25ZM219.68,49.8l6.44-.45-.23-1.18-6.44.45.23,1.18ZM218.97,46.13l.21,1.09,6.43-.45-.21-1.09-6.43.45Z"/>
  <path d="M212.93,47.04c-.27.02-.58.05-.93.08-.35.03-.69.08-1.04.13l-.24.04c-.24.04-.45.09-.65.15-.43.15-.81.38-1.14.69l-.23.24c-.22.24-.42.52-.58.82l-.15.31c-.14.31-.23.64-.29.98l-.04.33c-.02.33,0,.66.07,1l.04.18c.1.41.25.77.47,1.09.24.35.54.65.89.89.36.23.76.42,1.2.57.44.14.9.23,1.39.29.5.05,1,.08,1.52.07l-.31,2.07h-.48c-.32-.02-.63-.05-.95-.09l-.47-.07c-.46-.09-.92-.21-1.35-.37l-.43-.17c-.49-.21-.95-.47-1.36-.77l-.18-.13c-.47-.38-.86-.81-1.18-1.31-.32-.5-.54-1.08-.67-1.72-.14-.72-.15-1.38-.04-1.98.12-.6.3-1.14.55-1.6.25-.48.52-.85.81-1.12-.27.05-.61.11-.99.19-.38.07-.8.15-1.24.24l-1.35.26-.67.14c-.22.05-.44.1-.65.16l-.59.15c-.19.05-.37.1-.53.14l-.59-2c.3-.03.58-.06.85-.09.26-.04.47-.07.62-.09l1.12-.18c.44-.07.94-.15,1.49-.24.56-.09,1.15-.18,1.78-.27.63-.1,1.28-.21,1.96-.32.51-.08,1.02-.15,1.54-.21.51-.08.99-.14,1.45-.19.46-.06.86-.11,1.2-.14l.38,1.88ZM206.88,52.46c.11.44.27.81.47,1.14.25.38.55.72.91,1.01.38.3.8.55,1.26.75.49.21,1.01.36,1.56.46.31.06.62.1.93.12l.02-.12-.33-.03h0c-.41-.05-.81-.12-1.21-.22l-.39-.11h0s-.01,0-.01,0c-.39-.13-.77-.3-1.12-.49l-.35-.21h-.02s-.01-.02-.01-.02c-.41-.29-.77-.63-1.06-1.02l-.12-.17h0c-.22-.34-.39-.69-.51-1.07Z"/>
  <path d="M188.79,47.31c0,.18,0,.38.01.61.02.23.05.45.07.67.03.22.06.39.09.53.05.32.11.66.18,1,.08.34.16.7.24,1.06.09.35.18.7.28,1.06.21.7.43,1.32.66,1.85.24.53.49.94.75,1.23.23.24.49.37.76.39h.12c.17-.01.32-.12.44-.32.13-.2.24-.45.31-.75.08-.31.14-.64.17-.98.04-.34.08-.66.1-.96l1.85,1.69c-.16.88-.36,1.58-.59,2.12-.22.52-.49.91-.79,1.16-.31.24-.66.37-1.07.4l-.19-.98c.22-.02.4-.08.56-.21.16-.14.36-.39.55-.83h0c.03-.07.06-.15.09-.23-.03.06-.06.11-.1.16h0s0,.01-.01.02c0,0,0,0,0,0h0c-.2.31-.55.65-1.12.69-.61.04-1.16-.19-1.6-.57l-.18-.17h0s0-.01,0-.01c-.39-.42-.7-.95-.96-1.55-.01-.02-.02-.05-.03-.07.21.5.42.92.64,1.26h0c.43.67.83,1.05,1.16,1.24.39.22.71.29,1.01.27l.19.98h-.2c-.4,0-.82-.1-1.23-.31l-.21-.11c-.55-.32-1.07-.86-1.56-1.62-.43-.67-.83-1.55-1.18-2.64l-.15-.48c-.07-.22-.14-.45-.2-.69l-.19-.73c-.12-.5-.22-.97-.32-1.43l-.22-1.12c-.04-.21-.1-.45-.17-.73-.07-.28-.15-.54-.24-.76l2.31-.13ZM196.34,47.12c.34.31.69.7,1.04,1.17.35.46.69.96,1.02,1.5.33.53.63,1.08.91,1.65.28.56.52,1.11.73,1.65.21.53.38,1.02.5,1.47l-1.83.89c-.12-.45-.28-.92-.46-1.43l-.19-.51c-.2-.52-.43-1.05-.68-1.57l-.26-.53c-.27-.53-.56-1.03-.87-1.51l-.32-.47c-.42-.62-.88-1.14-1.38-1.57l1.78-.74ZM198.03,51.06c.28.55.54,1.1.77,1.65l.22.55c.1.26.19.51.27.75l.06-.03c-.03-.09-.06-.18-.1-.28l-.14-.36h0s0-.02,0-.02c-.14-.38-.31-.76-.49-1.16l-.19-.39h0c-.18-.37-.38-.73-.58-1.09l.2.37ZM188.04,49.6c-.03-.14-.05-.29-.07-.43-.03-.16-.06-.35-.09-.57v-.02s0-.02,0-.02c0-.07-.01-.14-.02-.21h-.06c.04.19.08.36.11.51l.14.74Z"/>
  <path d="M181.65,45.85l.64,3.31,2.29-.16.14.71c.26,1.54.48,2.85.66,3.92.19,1.07.32,1.95.41,2.64.09.69.15,1.23.16,1.62.01.38-.02.64-.1.8-.1.24-.21.4-.34.5-.13.11-.3.19-.5.24l-.3.06c-.11.02-.23.03-.36.05-.25.03-.52.05-.81.06-.05-.23-.15-.48-.29-.77-.13-.29-.27-.53-.43-.73.23,0,.44,0,.64,0,.19,0,.35,0,.47-.02.07,0,.13-.02.18-.05l.05-.03c.06-.04.11-.12.15-.22.04-.11.05-.33.04-.66-.01-.34-.07-.82-.16-1.45-.08-.64-.22-1.47-.39-2.48-.12-.73-.27-1.59-.43-2.57l-.77.05.05.28c.14.71.25,1.45.34,2.23.1.78.15,1.56.14,2.35l-.54-.07h0s.54.07.54.07v.29c-.02.68-.1,1.35-.25,1.99-.17.74-.46,1.42-.86,2.03-.11-.09-.25-.19-.42-.3-.17-.11-.35-.21-.53-.32-.15-.08-.29-.15-.41-.2-.58.11-1.15.22-1.73.32-.97.18-1.83.33-2.59.46l-.52-1.43c.49-.06,1.05-.14,1.67-.24.19-.03.39-.06.59-.09l-.17-.89-1.96.14-.25-1.28,1.96-.14-.13-.69-1.93.13-.85-4.4,1.93-.13-.12-.63-2.09.15-.25-1.28,2.09-.15-.1-.53c-.6.09-1.18.17-1.74.24-.06-.17-.16-.37-.28-.59-.06-.11-.11-.21-.17-.31-.08.58-.18,1.17-.31,1.76-.01.07-.03.15-.05.22l2.06,10.59-1.59.11-1.45-7.48c-.18.44-.38.86-.59,1.23-.07-.14-.18-.33-.32-.56-.07-.12-.14-.24-.21-.36l-.23-.36c-.16-.25-.3-.44-.42-.58.27-.5.51-1.06.72-1.68s.39-1.28.52-1.98c.15-.71.24-1.42.29-2.12l1.69.33c-.02.18-.04.37-.06.55.49-.08.99-.16,1.5-.25.6-.11,1.16-.23,1.71-.36.54-.13,1.01-.25,1.4-.37l1.13,1.19c-.5.14-1.05.28-1.66.42-.15.03-.29.06-.44.08l.13.68,2.15-.15.13.69.72-.05-.64-3.31,1.51-.11ZM179.53,57.84c.57-.09,1.14-.18,1.71-.26.04-.14.08-.28.12-.42.02-.08.03-.15.05-.23l-2.02.14.15.77ZM178.15,50.69l2.01-.14.86,4.4-2.02.14.13.69,2.05-.14.23,1.2c.11-.57.16-1.15.16-1.75,0-.71-.04-1.4-.13-2.08-.08-.69-.18-1.34-.3-1.93l-.06-.29-.78.05-.18-.93-2.1.15.12.63ZM176.51,54.19l.93-.06-.13-.66-.93.06.13.66ZM178.64,54.04l.97-.07-.13-.66-.97.07.13.66ZM176.2,52.57l.93-.06-.13-.66-.93.06.13.66ZM178.32,52.42l.97-.07-.13-.66-.97.07.13.66Z"/>
  <path d="M168.47,50.17c-.27.02-.58.05-.92.08-.35.03-.69.08-1.04.13-.34.04-.63.11-.89.2-.43.15-.81.38-1.14.69-.33.3-.61.65-.82,1.06-.21.39-.35.82-.42,1.27l-.04.33c-.03.33,0,.66.06.99.09.48.26.9.5,1.26.25.35.55.65.9.89.36.23.76.42,1.2.57.44.14.9.23,1.39.29.5.05,1,.08,1.52.07l-.31,2.07h-.48c-.32-.02-.63-.05-.95-.09l-.47-.08c-.46-.09-.92-.21-1.35-.36l-.43-.17c-.5-.21-.96-.47-1.38-.77l-.18-.13c-.4-.33-.75-.7-1.05-1.12l-.13-.18c-.28-.44-.49-.93-.62-1.48l-.05-.24c-.12-.62-.14-1.2-.07-1.74l.04-.23c.11-.61.3-1.16.55-1.62.26-.48.54-.85.83-1.12-.27.06-.6.12-1,.19-.38.07-.8.14-1.24.24-.44.08-.89.17-1.34.26-.46.09-.9.19-1.32.3l-.59.15c-.19.05-.37.09-.53.14l-.59-2c.3-.03.58-.06.85-.09.26-.04.47-.07.6-.09.31-.04.68-.1,1.12-.17.45-.08.95-.17,1.5-.25l3.74-.57c.51-.09,1.02-.16,1.52-.23.51-.08.99-.14,1.45-.19.46-.06.87-.11,1.22-.15l.38,1.88ZM162.41,55.6c.1.43.26.81.47,1.13.26.39.57.73.93,1.03.28.22.59.41.92.58l.35.16c.5.21,1.01.36,1.56.46.31.06.62.09.93.12l.02-.12c-.11,0-.22-.02-.33-.03h0c-.55-.06-1.08-.17-1.6-.34h0s-.01,0-.01,0c-.53-.18-1.02-.41-1.47-.7h-.01s-.02-.02-.02-.02c-.41-.28-.76-.62-1.06-1.01l-.13-.17-.02-.03c-.22-.33-.39-.68-.51-1.06ZM166.61,51.77c.16.17.34.37.53.6.19.23.39.46.57.69.19.23.35.43.49.62l-1.04.58-.39-.56c-.13-.18-.25-.34-.37-.49-.23-.3-.5-.61-.8-.91l1.02-.53ZM168.15,50.97c.16.17.34.36.54.59.2.21.4.44.6.67.2.22.36.43.5.61l-1.02.61c-.27-.38-.54-.71-.79-1-.24-.29-.51-.59-.83-.9l1-.58ZM165.1,49.68c-.3.04-.61.09-.91.14h0c-.56.09-1.1.17-1.62.25l.64,1.02c.16-.2.34-.39.53-.57l.16-.14c.36-.3.76-.54,1.21-.71Z"/>
  <path d="M143.83,58.57c-.06-.32-.1-.63-.12-.91v-.28c0-.36,0-.68,0-.96l1.99.04c-.02.26-.03.51-.04.76,0,.25.02.5.07.74l.04.17c.13.39.43.7.9.94.48.24,1.16.34,2.05.31l.39-.02c.51-.04,1-.08,1.48-.15l.47-.07c.62-.09,1.2-.2,1.74-.33.55-.13,1.04-.27,1.45-.42l.42,2.08c-.42.13-.89.25-1.42.35-.52.12-1.1.22-1.72.3-.61.09-1.26.16-1.96.21l-.19-.98c.68-.05,1.3-.11,1.88-.2h0s0,0,0,0l.44-.06c.43-.07.83-.14,1.2-.22h.02c.2-.04.39-.09.57-.13v-.05c-.12.03-.24.06-.36.09h0c-.57.13-1.17.25-1.81.34-.65.1-1.32.17-2.03.22-1.13.08-2.18,0-3-.41h0c-.77-.39-1.36-1-1.54-1.84.02.12.04.25.06.39.09.49.29.83.57,1.09.24.22.6.43,1.14.59l.25.06c.68.16,1.54.22,2.61.14l.19.98c-1.14.08-2.11.02-2.93-.17-.71-.17-1.29-.43-1.74-.78l-.18-.16c-.47-.44-.77-1.01-.9-1.68ZM152.02,51.65c-.34.05-.76.11-1.26.18-.48.06-.99.12-1.53.18-.53.05-1.03.09-1.51.12l-1.13.07-1.05.04c-.67.02-1.32.02-1.94.02l-.38-1.94c.56.02,1.19.02,1.88,0,.35,0,.71-.02,1.08-.04l1.15-.07c.49-.03.99-.08,1.51-.14.52-.06,1.03-.12,1.51-.18.48-.06.91-.13,1.28-.19l.38,1.96Z"/>
  <path d="M128.87,59.61c-.06-.32-.1-.63-.12-.91v-.28c0-.36,0-.68,0-.96l1.99.04c-.02.26-.03.51-.03.76s.02.5.07.74l.04.17c.13.39.43.7.9.94.48.24,1.16.34,2.05.31l.39-.02c.51-.04,1-.08,1.48-.15l.47-.07c.62-.09,1.2-.2,1.74-.33.55-.13,1.04-.27,1.45-.42l.42,2.08c-.42.13-.89.25-1.42.35-.52.12-1.1.22-1.72.3-.61.09-1.26.16-1.96.21l-.19-.98c.67-.05,1.3-.11,1.88-.2h0s0,0,0,0l.44-.06c.43-.07.83-.14,1.2-.22h.02c.2-.04.39-.09.57-.13v-.05c-.13.03-.24.06-.37.09h0c-.57.13-1.17.25-1.81.34-.65.1-1.32.17-2.02.22-1.13.08-2.18,0-3-.41h0c-.77-.39-1.36-1-1.54-1.84.02.12.04.25.06.39.1.49.29.83.57,1.09.24.22.6.43,1.15.59l.25.06c.68.16,1.54.22,2.61.14l.19.98c-1.14.08-2.11.02-2.93-.17-.71-.17-1.3-.43-1.74-.78l-.18-.16c-.47-.44-.77-1.01-.9-1.68ZM137.06,52.7c-.34.05-.76.11-1.26.18-.48.06-.99.12-1.53.18-.53.05-1.03.09-1.51.12l-1.13.07-1.05.04c-.67.02-1.32.02-1.94.02l-.38-1.94c.56.02,1.19.02,1.88,0,.35,0,.71-.02,1.08-.04l1.15-.07c.49-.03.99-.08,1.51-.14.52-.06,1.03-.12,1.51-.18.48-.06.91-.13,1.28-.19l.38,1.96Z"/>
  <path d="M124.24,49.77l.31,1.59-3.19.22,1.52,7.82-1.78.12-1.83-9.41,4.97-.35Z"/>
  <path d="M101.74,52.38c0,.19,0,.4-.01.63,0,.22-.01.42-.02.61,0,.22,0,.47,0,.75,0,.26-.02.52-.02.79.15-.02.29-.04.42-.06.33-.04.61-.07.83-.09h.2c.46-.02.88.04,1.26.17l.16.06c.36.15.68.4.95.74l.12.16c.26.38.45.88.57,1.5.11.58.21,1.21.29,1.89.08.68.12,1.34.11,1.96v.45c-.04.44-.1.82-.2,1.16l-.06.19c-.15.43-.39.74-.72.94-.37.22-.84.36-1.41.4h-.21c-.22.02-.46,0-.71,0-.34-.02-.64-.04-.91-.07l-.69-1.92c.2.04.42.07.66.1.25.03.48.06.7.07h.3s.23,0,.23,0c.25-.02.46-.08.63-.18.17-.11.29-.29.37-.53.08-.29.13-.67.13-1.13,0-.46-.03-.95-.09-1.47-.04-.4-.09-.79-.15-1.16l-.07-.37c-.08-.39-.19-.68-.35-.86-.15-.18-.33-.29-.57-.33-.17-.04-.36-.06-.57-.06h-.22c-.23.03-.54.07-.92.13-.04,0-.08.01-.13.02-.01.19-.02.39-.04.6-.04.57-.1,1.19-.17,1.85l-.06.49c-.07.49-.14.99-.24,1.49l-.2.99c-.07.33-.15.65-.23.97l-.13.46c-.13.45-.28.87-.45,1.25l-2.09-.63c.26-.49.48-1.02.67-1.61.15-.45.28-.91.39-1.37l.11-.46c.13-.63.23-1.24.31-1.84.08-.61.15-1.18.18-1.7,0-.05,0-.1.01-.15-.13.02-.25.05-.38.07-.37.08-.66.13-.86.17-.21.05-.48.12-.81.19-.32.06-.59.12-.81.18l-.57-1.99c.27,0,.54,0,.8-.03.27-.03.53-.06.8-.09.25-.03.54-.06.89-.11.32-.05.66-.1,1.02-.16,0-.31,0-.61-.02-.9l-.03-.47c-.04-.62-.12-1.21-.25-1.76l2.27.06ZM105.36,62.86c-.13.23-.3.44-.55.6h-.02c.07-.02.14-.05.19-.09h0c.13-.08.27-.23.36-.52ZM99.57,63.36c-.05.14-.1.28-.15.41h.02c.05-.13.09-.27.14-.41ZM106.51,51.48c.16.17.34.37.53.61.2.23.39.47.58.71.19.24.35.44.49.62l-.67.36c.23.25.47.54.71.87.35.44.7.92,1.05,1.42.35.5.67.99.96,1.45.29.47.53.87.71,1.22l-1.74.99c-.17-.41-.39-.85-.67-1.34-.27-.49-.57-.98-.89-1.47-.25-.38-.5-.74-.76-1.08l-.26-.34c-.34-.44-.67-.81-1-1.11l1.23-.66c-.08-.11-.17-.24-.26-.36-.18-.24-.36-.47-.55-.71-.19-.24-.37-.44-.54-.6l1.09-.57ZM109.51,58.31h0c-.03-.05-.06-.11-.09-.16.03.05.06.11.09.16ZM108.16,50.69c.17.18.35.38.54.62.2.23.39.47.58.71.2.23.35.43.46.59l-1.08.58c-.22-.29-.48-.62-.77-.99-.3-.38-.58-.7-.84-.96l1.11-.56ZM100.65,53.33c.01.1.03.2.04.3,0-.04,0-.08,0-.12h0v-.03c0-.05,0-.1,0-.16h-.04Z"/>
  <path d="M84.89,62.6l-.25-1.37c-.09-.52-.18-1.06-.27-1.62-.09-.56-.18-1.11-.27-1.64l-.25-1.46c-.07-.43-.14-.78-.19-1.03-.07-.35-.15-.7-.25-1.03-.1-.34-.21-.66-.33-.95l2.42-.14c.02.31.04.64.07.99.04.36.08.68.11.98l.11.67c.04.25.08.51.12.81.09.57.19,1.17.29,1.8.11.63.22,1.25.32,1.86.11.61.21,1.14.3,1.59l.04.18c.1.41.25.73.46.98.25.27.54.46.87.57.25.07.51.11.79.11h.29c.54-.05,1.03-.14,1.46-.29l.18-.07c.36-.15.68-.33.98-.54l.28-.22c.37-.3.68-.65.94-1.04.27-.39.5-.79.69-1.21l1.68,1.52c-.17.37-.41.76-.73,1.18-.31.42-.71.82-1.18,1.2-.46.38-1.02.7-1.68.97l-.25.09c-.6.21-1.26.34-2,.39l-.19-.98c.76-.05,1.41-.2,1.97-.42.58-.24,1.06-.52,1.45-.83h0s.3-.26.3-.26c.29-.26.53-.53.73-.79.11-.15.21-.3.3-.44l-.07-.06c-.05.08-.1.16-.16.24h0c-.3.45-.67.86-1.1,1.21-.43.36-.93.66-1.48.89h-.02c-.58.24-1.23.38-1.94.43-.49.03-.98,0-1.45-.15h-.03c-.47-.16-.89-.41-1.24-.76l-.15-.15v-.02s-.03-.02-.03-.02c-.35-.41-.56-.9-.69-1.41.01.05.02.1.03.15l.06.26c.14.57.35.97.58,1.24.29.33.64.56,1.09.7h0c.5.16,1.09.23,1.81.18l.19.98-.3.02c-.7.02-1.34-.06-1.91-.25-.56-.18-1.05-.47-1.46-.87l-.17-.18c-.38-.44-.65-1.01-.82-1.71l-.07-.31ZM84.83,56.41c-.06-.39-.11-.73-.16-1.03v-.02s0-.02,0-.02c-.04-.28-.07-.59-.11-.93h-.14c.09.33.17.66.23,1,.05.25.11.59.18,1Z"/>
  <path d="M72.05,54.23c-.02.2-.04.44-.04.73,0,.29,0,.51,0,.67,0,.17,0,.35-.01.56.17-.04.33-.07.5-.11.65-.15,1.29-.33,1.92-.52l.36,1.84c-.59.18-1.23.34-1.91.49-.31.07-.61.13-.91.19,0,.12,0,.24-.01.36-.01.55-.04,1.07-.07,1.57-.03.53-.08,1.1-.15,1.73l-.12.93c-.04.31-.09.63-.14.95-.09.63-.19,1.24-.3,1.83l-.17.82c-.06.26-.12.5-.18.73l-2.21-.55c.11-.29.22-.63.33-1.01l.11-.4c.14-.56.27-1.15.38-1.79.06-.32.11-.63.17-.95l.14-.94c.08-.62.14-1.2.18-1.73.03-.35.06-.71.08-1.08,0-.06,0-.12,0-.17-.35.04-.68.07-.99.09-.18.01-.35.02-.51.03l-.46.02c-.29,0-.58,0-.85.01l-.4-1.84c.4.01.74.02,1.02.02.14,0,.29,0,.43,0l.45-.02c.43-.03.88-.08,1.33-.14v-.04c0-.31,0-.58-.02-.8-.02-.28-.06-.55-.1-.83-.04-.28-.09-.5-.14-.66l2.32.02ZM75.33,62.27c-.02.21-.03.43-.02.66,0,.22.02.41.05.58.03.16.1.3.19.43.1.13.23.25.4.35l.14.06c.15.06.32.1.52.13l.22.02c.16.01.33.01.51,0h.29c.51-.05,1.01-.11,1.51-.19.51-.1,1.02-.21,1.54-.35l.29,1.89c-.41.08-.87.16-1.37.23-.5.08-1.05.15-1.65.19-1.18.08-2.13-.03-2.86-.34l-.14-.06c-.74-.37-1.18-.92-1.33-1.67-.06-.33-.1-.67-.11-1.02,0-.35,0-.67,0-.97l1.81.05ZM70.41,63.52h0c-.11.66-.24,1.28-.4,1.86h0c-.04.14-.07.27-.11.4l.11.03c.05-.21.09-.42.14-.65.1-.57.2-1.16.29-1.78h0c.01-.09.02-.18.04-.26-.02.14-.05.27-.07.41ZM74.69,64.36c.1.28.29.48.63.64.02,0,.03.01.05.02-.2-.13-.39-.29-.54-.48l-.08-.11s-.03-.05-.05-.08ZM77.29,58.23c.22-.01.44-.02.66-.02.45-.01.9,0,1.35,0l.3,1.77c-.19-.01-.39-.02-.6-.03h-.65c-.33-.01-.67,0-1.01,0l-.34.02c-.51.04-1,.08-1.47.15-.46.05-.93.12-1.38.22l-.34-1.74c.21-.03.42-.07.65-.1l.72-.1c.5-.06,1-.11,1.47-.15l.65-.04ZM70.92,55.2c0,.06.02.11.02.17.01,0,.03,0,.05,0,0-.05,0-.1,0-.16h-.07Z"/>
  <path d="M63.43,61.55c-.04-.21-.11-.42-.21-.62l-.11-.2c-.16-.26-.37-.48-.63-.67-.25-.2-.54-.35-.86-.45-.24-.07-.5-.11-.77-.11h-.28c-.95.08-1.78.38-2.51.93l-.27.21c-.39.31-.75.67-1.09,1.07.07.43.14.84.21,1.22l.24,1.22c.09.41.18.83.28,1.26.09.43.2.88.32,1.34.03.13.08.3.15.53.07.23.13.43.18.6l-2.07.14c-.01-.17-.04-.37-.08-.59l-.08-.5-.23-1.34c-.07-.41-.15-.85-.24-1.31-.03-.19-.06-.39-.1-.6-.1.23-.21.46-.32.7-.18.4-.37.79-.55,1.16l-.26.52c-.08.16-.16.31-.23.45l-1.49-1.52.5-.86c.19-.33.38-.68.57-1.04.2-.37.4-.74.59-1.1.19-.37.37-.72.53-1.04.07-.14.14-.28.2-.41-.04-.34-.09-.69-.13-1.04-.08.02-.16.03-.25.06-.24.05-.51.1-.79.16-.27.05-.55.1-.83.16-.28.06-.54.11-.79.16l-.56-1.87c.22,0,.43-.01.62-.03.2-.02.43-.05.68-.08.24-.04.51-.08.84-.13.29-.05.57-.11.86-.18-.03-.22-.05-.41-.08-.58-.02-.14-.03-.25-.04-.35l-.03-.21-.13-.65c-.04-.23-.11-.45-.19-.67l2.2-.08c0,.23,0,.56.01,1,0,.33.03.7.05,1.1l.7.67c-.07.12-.14.28-.23.46-.08.18-.15.37-.24.57-.03.06-.05.12-.08.17,0,.08.01.17.02.25,0,.05.01.1.02.15.52-.49,1.07-.88,1.64-1.15.85-.4,1.68-.62,2.48-.68h.29c.66-.02,1.29.1,1.89.35l.26.12c.58.28,1.09.68,1.51,1.18.49.57.81,1.25.96,2.04l.05.28c.1.64.09,1.23-.02,1.77l-.05.23c-.14.52-.37,1-.7,1.42l-.15.18c-.36.41-.82.77-1.38,1.09l-.25.13c-.59.3-1.27.56-2.05.78l-1.24-1.72c.48-.11.92-.24,1.33-.39l.4-.16c.51-.22.94-.5,1.28-.82.31-.28.53-.61.68-.98l.06-.16c.12-.39.14-.83.07-1.33l-.04-.21ZM64.47,61.74c.09.61.06,1.19-.1,1.72h0c-.18.59-.51,1.09-.96,1.51h0c-.06.05-.12.11-.18.16.26-.2.47-.41.65-.64.3-.38.5-.81.59-1.29.1-.48.09-1.04-.03-1.68-.11-.55-.31-1-.59-1.38l-.12-.16s-.01-.01-.02-.02c.05.06.1.13.15.19l.09.14c.23.37.39.77.47,1.18l.04.26Z"/>
  <path d="M48.15,62.5c-.1-.51-.26-.97-.48-1.39l-.1-.18c-.24-.41-.53-.77-.88-1.07l-.15-.13c-.42-.34-.9-.58-1.43-.74-.27-.08-.56-.14-.86-.17.02.47.03.95.03,1.45v.64c-.02.65-.07,1.3-.15,1.96-.1,1.01-.27,1.89-.52,2.63l-.1.27c-.23.62-.52,1.11-.87,1.48l-.15.15c-.35.32-.77.5-1.25.53l-.19-.98c.29-.02.55-.13.8-.4.16-.18.32-.4.46-.68-.01.02-.03.04-.05.07-.25.35-.64.67-1.22.71-.43.03-.83-.1-1.18-.3l-.14-.09-.03-.02-.02-.02c-.33-.25-.59-.58-.81-.93.06.11.12.22.19.33h0c.33.51.68.85,1.04,1.08.35.21.66.29.96.26l.19.98h-.21c-.48,0-.96-.15-1.43-.44-.46-.3-.88-.71-1.25-1.22l-.16-.23c-.35-.55-.6-1.18-.77-1.88l-.07-.3c-.15-.75-.15-1.47-.01-2.16l.07-.29c.18-.68.47-1.31.88-1.87l.18-.24c.51-.63,1.15-1.15,1.92-1.54.77-.39,1.64-.62,2.61-.69.93-.06,1.79.02,2.58.27l.3.1c.69.24,1.3.57,1.85.99.63.48,1.15,1.06,1.57,1.74.41.68.7,1.42.86,2.22l.06.38c.12.88.07,1.69-.17,2.43l-.11.31c-.29.71-.76,1.32-1.41,1.84-.73.59-1.71,1.03-2.93,1.31l-1.46-1.67c.28-.05.53-.1.74-.16.21-.05.41-.11.6-.18.46-.15.87-.35,1.23-.59.28-.19.53-.41.74-.65l.2-.25c.24-.36.41-.76.49-1.21.08-.4.09-.82.02-1.28l-.03-.2ZM42.23,59c-.34.1-.66.23-.94.39-.56.32-1,.71-1.33,1.18l-.12.18c-.27.42-.45.86-.56,1.32-.11.52-.12,1.02-.03,1.48.1.49.24.9.42,1.22l.14.22c.14.21.29.37.44.48.18.13.36.19.54.2h.08c.21-.02.39-.13.55-.35.13-.17.24-.41.33-.7l.09-.31c.12-.45.21-1,.28-1.68.07-.54.11-1.11.13-1.7v-.6c.01-.45,0-.89-.02-1.33ZM49.19,62.67c.08.55.08,1.08-.03,1.59h0c-.1.57-.31,1.09-.63,1.54h0s0,.01,0,.01c-.31.43-.69.8-1.14,1.11l-.05.03c.19-.11.36-.23.52-.35h0c.62-.5,1.03-1.08,1.25-1.75.22-.68.26-1.46.08-2.35-.08-.44-.21-.84-.38-1.22.15.37.27.76.34,1.17l.04.24Z"/>
  <path d="M27.36,59.88c.07.37.08.73.03,1.07-.05.34-.18.66-.39.97-.21.29-.51.56-.9.81,0,0-.02.01-.03.02l1.62-.11-.16-.81,1.62-.11-1-5.17,1.68-.12.15.77,3.92-.27.2,1.02-3.92.27.09.46,3.67-.26.19.97-3.67.26.09.47,4.2-.29.19,1-4.2.29.19.96-1.51.11.07.34,5.25-.37.21,1.1-5.25.37.09.44,4.49-.31.68,3.47-4.49.31.09.47,5.73-.4.22,1.15-5.73.4.23,1.19-1.78.12-.23-1.19-5.75.4-.22-1.15,5.75-.4-.09-.47-4.28.3-.68-3.47,4.28-.3-.09-.44-5.16.36-.21-1.1,1.6-.11c-.1-.1-.2-.2-.3-.29-.15-.15-.28-.27-.4-.36.59-.09,1.05-.21,1.39-.37.32-.15.55-.32.7-.49-.49.07-.97.14-1.45.2-.84.11-1.59.21-2.26.29l-.3-1.02c.64-.07,1.4-.16,2.26-.25.67-.08,1.34-.16,2.04-.25,0-.12-.02-.25-.05-.37h0s-3.58.24-3.58.24l-.19-.97,3.58-.25-.09-.46-3.92.27-.2-1.02,3.92-.27-.15-.79,1.63-.11.64,3.27ZM25.89,66.98l2.6-.18-.09-.49-2.6.18.09.49ZM30.27,66.67l2.72-.19-.09-.49-2.72.19.09.49ZM25.64,65.68l2.6-.18-.09-.47-2.6.18.09.47ZM30.02,65.38l2.72-.19-.09-.47-2.72.19.09.47Z"/>
  <path d="M13.36,57.56l.39,2,4.59-.32.33,1.69-4.59.32.47,2.4,5.78-.4.33,1.71-3.93.28.7,3.58.04.17c.04.15.09.25.14.3.06.04.16.06.31.06h.16s1.32-.1,1.32-.1c.15-.01.25-.06.3-.16.06-.1.08-.3.05-.59-.02-.3-.07-.74-.17-1.32.14.08.31.16.52.25.22.08.44.15.66.21.23.05.43.1.59.14.09.78.11,1.4.05,1.85l-.03.16c-.07.36-.21.62-.43.78l-.1.07c-.21.13-.47.21-.81.25l-.17.02-1.74.12h-.4c-.32.01-.59-.01-.81-.08l-.13-.04c-.33-.12-.58-.33-.76-.65-.13-.24-.24-.54-.33-.91l-.09-.39-.7-3.59-2.19.15c.04.56.04,1.11.02,1.64-.03.65-.15,1.26-.37,1.85-.21.57-.56,1.1-1.04,1.6-.47.5-1.12.95-1.97,1.35-.09-.16-.22-.34-.39-.52-.17-.18-.34-.35-.53-.53-.17-.17-.34-.31-.51-.43.75-.31,1.33-.66,1.74-1.03.42-.38.72-.79.88-1.23.18-.45.27-.92.29-1.41.02-.37.02-.75,0-1.15l-3.55.25-.33-1.71,5.76-.4-.47-2.4-2.58.18c-.04.17-.09.35-.13.52-.17.6-.38,1.13-.63,1.6-.16-.09-.34-.18-.55-.26-.21-.09-.43-.18-.64-.25-.22-.07-.4-.13-.55-.17.24-.43.44-.93.59-1.49.16-.56.29-1.13.37-1.71.09-.59.13-1.14.13-1.65l1.89.23c-.03.47-.08.96-.15,1.46l1.93-.13-.39-2,1.83-.13Z"/>
  <path d="M233.39,21.38l8.82-20.28-9.62.67-4.21,11.19-.19.51-1.35.09-.38-.47-8.39-10.31-10.26.72,16.55,18.5,2.41,12.41,9.03-.63-2.41-12.41ZM236.99,34.71l-11.02.77-2.55-13.1-17.63-19.71,12.67-.89,8.77,10.78h.2s4.4-11.71,4.4-11.71l12.02-.84-9.4,21.6,2.55,13.1Z"/>
  <path d="M205.97,12.82c-.33-1.47-.95-2.8-1.86-4.01l-.2-.26h0s0-.02,0-.02c-.97-1.28-2.25-2.27-3.85-2.99l-.33-.14h-.01s-.01,0-.01,0c-1.71-.74-3.72-1.06-6.05-.89l-20,1.4,6.18,31.81,9.03-.63-2.39-12.32,5.71-.4,8.48,11.89,10.09-.71-10.05-13.17,1-.46c1.85-.86,3.1-2.07,3.81-3.62.73-1.57.91-3.28.55-5.16l-.07-.32ZM192.01,10.44l.19.98-7.23.51,1.21,6.23,7.23-.51c.86-.06,1.54-.41,2.02-1.04.48-.66.63-1.44.46-2.32-.16-.83-.56-1.51-1.2-2.04l-.13-.1c-.62-.48-1.31-.72-2.05-.74h-.32s-.19-.97-.19-.97c1.05-.07,2.05.21,2.95.84l.18.13c.95.73,1.54,1.69,1.75,2.82.22,1.13.02,2.15-.6,3.02h0s0,.02,0,.02c-.64.83-1.55,1.29-2.67,1.37l-8.23.58-1.59-8.2,8.23-.58ZM207.1,13.46c.31,1.91.08,3.69-.68,5.33l-.16.32c-.83,1.59-2.18,2.83-4.06,3.7l10.38,13.6-12.37.86-8.48-11.89-4.09.29,2.39,12.32-11.02.77-6.56-33.77,21-1.47c2.46-.17,4.65.16,6.56.98,1.94.79,3.5,1.96,4.68,3.5,1.2,1.51,1.99,3.19,2.35,5.06l.07.38Z"/>
  <path d="M168.8,22.36c-1.04-5.34-3.27-9.19-6.59-11.73l-.32-.24c-3.52-2.55-8.1-3.69-13.85-3.29-5.75.4-9.77,2.15-12.22,5.11-2.4,2.91-3.16,7.06-2.08,12.6,1.08,5.55,3.41,9.5,6.88,12.03,3.51,2.51,8.09,3.64,13.84,3.24l.19.98c-5.92.41-10.78-.74-14.57-3.46-3.77-2.75-6.21-6.99-7.33-12.72-1.11-5.73-.36-10.17,2.26-13.34,2.65-3.2,6.93-5.01,12.85-5.43l.55-.03c5.67-.31,10.35.87,14.03,3.54,3.8,2.75,6.26,6.97,7.37,12.67l.1.53c.96,5.44.16,9.71-2.41,12.81-2.65,3.2-6.93,5.01-12.85,5.43l-.19-.98c5.75-.4,9.77-2.15,12.22-5.11,2.43-2.95,3.21-7.1,2.14-12.61ZM158.21,21.51c-.44-2.24-1.34-4.01-2.72-5.31l-.28-.25c-1.41-1.24-3.2-1.82-5.36-1.76l-.44.02c-2.36.17-4.02.99-4.98,2.49l-.17.28c-.81,1.45-1,3.3-.57,5.54l.61,3.14.09.44c.5,2.18,1.45,3.88,2.86,5.12,1.5,1.32,3.43,1.9,5.8,1.73,2.36-.17,4.02-.99,4.98-2.49.93-1.4,1.22-3.2.87-5.38l-.08-.44-.61-3.14ZM159.82,24.58l.08.48c.38,2.35.08,4.38-.99,6.01h0c-1.14,1.78-3.1,2.7-5.67,2.88-2.41.17-4.55-.37-6.28-1.74l-.34-.28c-1.74-1.53-2.82-3.63-3.32-6.19l-.61-3.14c-.5-2.55-.25-4.75.85-6.48,1.14-1.78,3.1-2.7,5.67-2.88,2.57-.18,4.83.45,6.62,2.02h0c1.78,1.53,2.87,3.63,3.37,6.18l.61,3.14Z"/>
  <path d="M107.63,29.28h.2s1.35-19.86,1.35-19.86l15.01-1.05,6.56,33.77-10.92.76-2.37-12.17c-.29-1.5-.54-3.05-.75-4.62-.18-1.61-.31-2.96-.38-4.05-.08-1.09-.13-1.78-.15-2.08h-.2s-1.89,23.33-1.89,23.33l-8.63.6-10.82-22.38h-.2c.09.31.31.99.65,2.06.37,1.04.78,2.35,1.22,3.94.44,1.56.8,3.09,1.1,4.6l2.37,12.17-10.12.71-6.56-33.77,15.56-1.09,8.97,19.12ZM120.65,41.85l8.93-.62-6.18-31.81-13.24.93-1.35,19.85-1.74.12-8.98-19.12-13.79.96,6.18,31.81,8.13-.57-2.17-11.19c-.22-1.11-.47-2.23-.77-3.37l-.31-1.15h0c-.44-1.58-.84-2.87-1.2-3.88v-.02s-.01-.02-.01-.02c-.34-1.07-.56-1.76-.65-2.05l-.33-1.08,2.07-.15,10.82,22.38,7.11-.5,1.89-23.31,2.08-.15.09,1.1c.02.3.07,1,.15,2.09.07,1.07.2,2.4.38,3.99h0c.2,1.56.45,3.08.74,4.56l2.18,11.19Z"/>
  <path d="M59.21,20.12l18.65-1.3-1.19-6.14-27.68,1.94,6.18,31.81,28.03-1.96-1.19-6.14-19,1.33-1.38-7.12,15.96-1.12-1.13-5.79-15.96,1.12-1.29-6.63ZM61.3,25.7l15.96-1.12,1.51,7.76-15.96,1.12,1,5.15,19-1.33,1.57,8.1-30.03,2.1-6.56-33.77,29.68-2.08,1.57,8.1-18.65,1.3.91,4.66Z"/>
  <path d="M24.54,35.09h.2s1.35-19.86,1.35-19.86l15.01-1.05,6.56,33.77-10.92.76-2.37-12.17c-.29-1.5-.54-3.05-.75-4.62-.18-1.61-.31-2.96-.38-4.05-.08-1.09-.13-1.78-.15-2.08h-.2s-1.89,23.33-1.89,23.33l-8.63.6-10.82-22.38h-.2c.09.31.31.99.65,2.06.37,1.04.78,2.35,1.22,3.95.44,1.56.8,3.09,1.1,4.6l2.37,12.17-10.13.71L0,17.05l15.56-1.09,8.98,19.12ZM37.55,47.66l8.93-.62-6.18-31.81-13.24.93-1.35,19.85-1.74.12-8.98-19.12-13.79.96,6.18,31.81,8.13-.57-2.18-11.19c-.22-1.11-.47-2.23-.77-3.37l-.31-1.15h0c-.44-1.58-.84-2.87-1.2-3.88v-.02s-.01-.02-.01-.02c-.34-1.07-.56-1.76-.65-2.05l-.33-1.08,2.07-.15,10.82,22.38,7.11-.5,1.89-23.31,2.08-.15.09,1.1c.02.3.08,1,.15,2.09.08,1.07.2,2.4.38,3.99h0c.2,1.56.45,3.08.74,4.56l2.18,11.19Z"/>
</svg>