<?xml version="1.0" encoding="UTF-8"?>
<svg id="_レイヤー_1" data-name="レイヤー_1" xmlns="http://www.w3.org/2000/svg" version="1.1" viewBox="0 0 112.44 45.33">
  <!-- Generator: Adobe Illustrator 29.5.1, SVG Export Plug-In . SVG Version: 2.1.0 Build 141)  -->
  <defs>
    <style>
      .st0 {
        fill: #fff;
      }

      .st1 {
        fill: #e75d5c;
        stroke: #b94a49;
        stroke-width: 2px;
      }
    </style>
  </defs>
  <path class="st1" d="M17.09,6L87.92,1.05c10.74-.75,21.12,7.21,23.17,17.78h0c2.05,10.57-4.99,19.75-15.73,20.5l-70.83,4.95c-10.74.75-21.12-7.21-23.17-17.78h0C-.7,15.93,6.34,6.75,17.09,6Z"/>
  <path class="st0" d="M36.68,31.5l-1.04-5.36c-.13-.66-.24-1.34-.33-2.03-.08-.71-.13-1.3-.17-1.78-.03-.48-.06-.78-.07-.91h-.09s-.83,10.26-.83,10.26l-3.8.27-4.76-9.85h-.09c.04.13.14.43.29.91.16.46.34,1.03.54,1.74.19.69.35,1.36.48,2.02l1.04,5.36-4.46.31-2.89-14.86,6.85-.48,3.95,8.41h.09s.59-8.74.59-8.74l6.61-.46,2.89,14.86-4.81.34ZM41.55,16.1l13.06-.91.69,3.56-8.21.57.4,2.05,7.02-.49.66,3.41-7.02.49.44,2.27,8.36-.58.69,3.56-13.21.92-2.89-14.86ZM71.07,29.09l-7.74-6.77,1.4,7.21-4.46.31-2.89-14.86,4.24-.3,7.77,6.88-1.42-7.32,4.46-.31,2.89,14.86-4.24.3ZM92.43,21.53c.39,2.03.04,3.62-1.05,4.78-1.1,1.16-2.84,1.82-5.24,1.99-2.4.17-4.36-.23-5.89-1.21-1.51-.97-2.46-2.48-2.86-4.51l-1.73-8.88,4.85-.34,1.71,8.81c.16.83.52,1.49,1.07,1.96.55.46,1.25.66,2.12.6.86-.06,1.47-.36,1.83-.89.37-.54.48-1.22.32-2.04l-1.71-8.81,4.85-.34,1.73,8.88Z"/>
</svg>