<svg width="326" height="66" viewBox="0 0 326 66" fill="none" xmlns="http://www.w3.org/2000/svg">
<rect x="1" y="1" width="324" height="64" rx="29" fill="#59B6E9" stroke="#498DB3" stroke-width="2"/>
<path d="M58.271 13.7C61.7124 13.7 64.3707 14.5797 66.246 16.339C68.1214 18.0983 69.059 20.66 69.059 24.024C69.059 27.388 68.1214 29.9497 66.246 31.709C64.3707 33.4683 61.7124 34.348 58.271 34.348C54.8297 34.348 52.1714 33.478 50.296 31.738C48.44 29.9787 47.512 27.4073 47.512 24.024C47.512 20.6407 48.44 18.079 50.296 16.339C52.1714 14.5797 54.8297 13.7 58.271 13.7ZM58.271 18.485C56.8984 18.485 55.8544 18.9007 55.139 19.732C54.4237 20.5633 54.066 21.6847 54.066 23.096V24.952C54.066 26.3633 54.4237 27.4847 55.139 28.316C55.8544 29.1473 56.8984 29.563 58.271 29.563C59.6437 29.563 60.6877 29.1473 61.403 28.316C62.1377 27.4847 62.505 26.3633 62.505 24.952V23.096C62.505 21.6847 62.1377 20.5633 61.403 19.732C60.6877 18.9007 59.6437 18.485 58.271 18.485ZM72.5103 14.048H88.6343V18.833H78.9193V22.255H87.2713V26.837H78.9193V34H72.5103V14.048ZM91.853 14.048H107.977V18.833H98.262V22.255H106.614V26.837H98.262V34H91.853V14.048ZM111.486 34V14.048H117.895V34H111.486ZM131.979 13.7C134.937 13.7 137.277 14.4443 138.997 15.933C140.718 17.4023 141.578 19.5097 141.578 22.255H135.459C135.459 21.095 135.15 20.1767 134.531 19.5C133.932 18.8233 133.072 18.485 131.95 18.485C130.655 18.485 129.698 18.891 129.079 19.703C128.48 20.515 128.18 21.646 128.18 23.096V24.952C128.18 26.3827 128.48 27.5137 129.079 28.345C129.698 29.157 130.636 29.563 131.892 29.563C133.13 29.563 134.067 29.244 134.705 28.606C135.343 27.968 135.662 27.069 135.662 25.909H141.578C141.578 28.635 140.737 30.723 139.055 32.173C137.393 33.623 135.034 34.348 131.979 34.348C128.577 34.348 125.996 33.478 124.236 31.738C122.496 29.998 121.626 27.4267 121.626 24.024C121.626 20.6213 122.496 18.05 124.236 16.31C125.996 14.57 128.577 13.7 131.979 13.7ZM145.329 34V14.048H151.738V34H145.329ZM169.679 34L168.838 31.187H161.849L161.008 34H154.454L161.733 14.048H169.186L176.465 34H169.679ZM163.183 26.721H167.504L165.416 19.616H165.3L163.183 26.721ZM178.881 14.048H185.29V28.896H195.527V34H178.881V14.048ZM216.262 13.7C218.814 13.7 220.912 14.222 222.555 15.266C224.199 16.2907 225.04 17.818 225.078 19.848V20.196H219.075V20.08C219.075 19.5 218.863 19.0167 218.437 18.63C218.012 18.2433 217.364 18.05 216.494 18.05C215.644 18.05 214.986 18.1757 214.522 18.427C214.078 18.6783 213.855 18.9877 213.855 19.355C213.855 19.877 214.165 20.2637 214.783 20.515C215.402 20.7663 216.398 21.0273 217.77 21.298C219.375 21.6267 220.69 21.9747 221.714 22.342C222.758 22.69 223.667 23.27 224.44 24.082C225.214 24.894 225.61 25.996 225.629 27.388C225.629 29.7467 224.827 31.4963 223.222 32.637C221.637 33.7777 219.51 34.348 216.842 34.348C213.73 34.348 211.303 33.826 209.563 32.782C207.843 31.738 206.982 29.8917 206.982 27.243H213.043C213.043 28.2483 213.304 28.925 213.826 29.273C214.348 29.6017 215.16 29.766 216.262 29.766C217.074 29.766 217.741 29.679 218.263 29.505C218.805 29.331 219.075 28.9733 219.075 28.432C219.075 27.9487 218.776 27.591 218.176 27.359C217.596 27.1077 216.639 26.8467 215.305 26.576C213.681 26.228 212.338 25.8703 211.274 25.503C210.211 25.1163 209.283 24.488 208.49 23.618C207.698 22.748 207.301 21.5687 207.301 20.08C207.301 17.8953 208.142 16.2907 209.824 15.266C211.526 14.222 213.672 13.7 216.262 13.7ZM229.1 34V14.048H235.509V34H229.1ZM251.566 19.152V34H245.157V19.152H238.603V14.048H258.091V19.152H251.566ZM261.01 14.048H278.265V18.833H267.419V21.588H276.699V26.17H267.419V29.215H278.468V34H261.01V14.048ZM74.1826 46.224L76.1846 46.714C75.9606 47.2553 75.7133 47.8107 75.4426 48.38C75.1813 48.9493 74.9106 49.5093 74.6306 50.06C74.3506 50.6107 74.0706 51.138 73.7906 51.642C73.52 52.1367 73.254 52.5847 72.9926 52.986L71.4246 52.496C71.6766 52.0667 71.9333 51.5953 72.1946 51.082C72.456 50.5593 72.708 50.0227 72.9506 49.472C73.2026 48.912 73.4313 48.3567 73.6366 47.806C73.8513 47.246 74.0333 46.7187 74.1826 46.224ZM69.8146 51.978C70.468 51.95 71.2053 51.922 72.0266 51.894C72.848 51.8567 73.716 51.8193 74.6306 51.782C75.5453 51.7353 76.474 51.6887 77.4166 51.642C78.3686 51.5953 79.3066 51.5487 80.2306 51.502L80.1746 53.154C78.98 53.2287 77.7713 53.3033 76.5486 53.378C75.326 53.4527 74.1546 53.518 73.0346 53.574C71.924 53.6393 70.9206 53.7 70.0246 53.756L69.8146 51.978ZM76.8986 49.304L78.5226 48.562C78.9333 49.066 79.344 49.6073 79.7546 50.186C80.1653 50.7647 80.5433 51.334 80.8886 51.894C81.2433 52.4447 81.5326 52.9487 81.7566 53.406L80.0066 54.33C79.82 53.8727 79.554 53.3547 79.2086 52.776C78.8633 52.188 78.49 51.5907 78.0886 50.984C77.6873 50.3773 77.2906 49.8173 76.8986 49.304ZM72.6986 41.422L74.6166 41.954C74.318 42.6913 73.9586 43.4147 73.5386 44.124C73.128 44.8333 72.6893 45.496 72.2226 46.112C71.756 46.7187 71.2846 47.246 70.8086 47.694C70.6966 47.5633 70.538 47.4233 70.3326 47.274C70.1366 47.1153 69.9313 46.9613 69.7166 46.812C69.5113 46.6533 69.334 46.5273 69.1846 46.434C69.67 46.0513 70.132 45.594 70.5706 45.062C71.0186 44.53 71.4246 43.9513 71.7886 43.326C72.1526 42.7007 72.456 42.066 72.6986 41.422ZM78.3406 41.45C78.546 41.8607 78.7886 42.2853 79.0686 42.724C79.358 43.1627 79.6706 43.5967 80.0066 44.026C80.352 44.446 80.6973 44.8473 81.0426 45.23C81.388 45.6033 81.7193 45.9393 82.0366 46.238C81.8873 46.35 81.724 46.4947 81.5466 46.672C81.3693 46.84 81.1966 47.0173 81.0286 47.204C80.8606 47.3813 80.7253 47.5493 80.6226 47.708C80.2866 47.3533 79.9413 46.9567 79.5866 46.518C79.232 46.07 78.8773 45.6033 78.5226 45.118C78.1773 44.6233 77.8413 44.124 77.5146 43.62C77.1973 43.116 76.908 42.6213 76.6466 42.136L78.3406 41.45ZM94.5246 42.024L95.6306 41.1C95.8453 41.24 96.0693 41.4033 96.3026 41.59C96.5453 41.7767 96.7693 41.9633 96.9746 42.15C97.1893 42.3367 97.362 42.5047 97.4926 42.654L96.3026 43.676C96.1906 43.508 96.032 43.3307 95.8266 43.144C95.6306 42.948 95.416 42.752 95.1826 42.556C94.9586 42.36 94.7393 42.1827 94.5246 42.024ZM85.2426 43.494H97.8426V45.132H85.2426V43.494ZM85.7746 46.728H91.8366V48.352H85.7746V46.728ZM87.8886 47.652H89.5686V52.398H87.8886V47.652ZM85.2426 52.174C85.8026 52.0807 86.4606 51.9733 87.2166 51.852C87.982 51.7213 88.7893 51.5813 89.6386 51.432C90.4973 51.2827 91.3513 51.1287 92.2006 50.97L92.3126 52.468C91.5473 52.636 90.7726 52.804 89.9886 52.972C89.2046 53.1307 88.4486 53.2847 87.7206 53.434C86.9926 53.5927 86.3206 53.7373 85.7046 53.868L85.2426 52.174ZM92.1306 41.156H93.9366C93.9086 42.3133 93.9226 43.4427 93.9786 44.544C94.044 45.6453 94.1466 46.6767 94.2866 47.638C94.4266 48.5993 94.5946 49.444 94.7906 50.172C94.9866 50.9 95.2013 51.4693 95.4346 51.88C95.6773 52.2907 95.934 52.496 96.2046 52.496C96.3633 52.496 96.48 52.2953 96.5546 51.894C96.6386 51.4927 96.6993 50.8487 96.7366 49.962C96.9326 50.158 97.166 50.3493 97.4366 50.536C97.7166 50.7227 97.9733 50.858 98.2066 50.942C98.132 51.8287 98.006 52.5147 97.8286 53C97.6606 53.476 97.432 53.8027 97.1426 53.98C96.8626 54.1667 96.4986 54.26 96.0506 54.26C95.5466 54.26 95.0986 54.0873 94.7066 53.742C94.3146 53.3967 93.974 52.9207 93.6846 52.314C93.3953 51.698 93.1526 50.9747 92.9566 50.144C92.7606 49.3133 92.602 48.4127 92.4806 47.442C92.3593 46.462 92.2706 45.44 92.2146 44.376C92.1586 43.312 92.1306 42.2387 92.1306 41.156ZM108.735 41.786C108.725 41.8513 108.707 41.9587 108.679 42.108C108.66 42.2573 108.641 42.416 108.623 42.584C108.613 42.752 108.609 42.892 108.609 43.004C108.609 43.284 108.609 43.592 108.609 43.928C108.609 44.264 108.609 44.6 108.609 44.936C108.609 45.2627 108.609 45.5613 108.609 45.832C108.609 46.0187 108.609 46.28 108.609 46.616C108.609 46.952 108.609 47.33 108.609 47.75C108.609 48.17 108.609 48.6087 108.609 49.066C108.609 49.514 108.609 49.9527 108.609 50.382C108.609 50.802 108.609 51.1847 108.609 51.53C108.609 51.866 108.609 52.132 108.609 52.328C108.609 52.7293 108.487 53.0467 108.245 53.28C108.011 53.5227 107.643 53.644 107.139 53.644C106.887 53.644 106.63 53.6393 106.369 53.63C106.107 53.6207 105.851 53.6067 105.599 53.588C105.347 53.5693 105.104 53.546 104.871 53.518L104.689 51.782C104.997 51.838 105.291 51.88 105.571 51.908C105.851 51.936 106.079 51.95 106.257 51.95C106.434 51.95 106.56 51.9127 106.635 51.838C106.709 51.754 106.751 51.6233 106.761 51.446C106.761 51.362 106.761 51.18 106.761 50.9C106.77 50.62 106.775 50.2887 106.775 49.906C106.775 49.5233 106.775 49.1173 106.775 48.688C106.775 48.2587 106.775 47.848 106.775 47.456C106.775 47.064 106.775 46.7233 106.775 46.434C106.775 46.1447 106.775 45.944 106.775 45.832C106.775 45.664 106.775 45.412 106.775 45.076C106.775 44.7307 106.775 44.3667 106.775 43.984C106.775 43.6013 106.775 43.2747 106.775 43.004C106.775 42.8173 106.761 42.598 106.733 42.346C106.705 42.094 106.681 41.9073 106.663 41.786H108.735ZM101.875 44.026C102.08 44.0447 102.299 44.068 102.533 44.096C102.775 44.1147 103.004 44.124 103.219 44.124C103.34 44.124 103.569 44.124 103.905 44.124C104.25 44.124 104.656 44.124 105.123 44.124C105.599 44.124 106.112 44.124 106.663 44.124C107.213 44.124 107.764 44.124 108.315 44.124C108.865 44.124 109.383 44.124 109.869 44.124C110.354 44.124 110.769 44.124 111.115 44.124C111.469 44.124 111.717 44.124 111.857 44.124C112.053 44.124 112.286 44.1147 112.557 44.096C112.827 44.0773 113.056 44.054 113.243 44.026V45.86C113.028 45.8413 112.795 45.832 112.543 45.832C112.291 45.8227 112.067 45.818 111.871 45.818C111.731 45.818 111.488 45.818 111.143 45.818C110.797 45.818 110.382 45.818 109.897 45.818C109.411 45.818 108.893 45.818 108.343 45.818C107.792 45.818 107.241 45.818 106.691 45.818C106.149 45.818 105.636 45.818 105.151 45.818C104.675 45.818 104.269 45.818 103.933 45.818C103.597 45.818 103.359 45.818 103.219 45.818C103.013 45.818 102.785 45.8227 102.533 45.832C102.29 45.8413 102.071 45.8553 101.875 45.874V44.026ZM105.445 47.82C105.277 48.128 105.081 48.464 104.857 48.828C104.633 49.192 104.39 49.556 104.129 49.92C103.877 50.284 103.629 50.6247 103.387 50.942C103.144 51.25 102.929 51.5067 102.743 51.712L101.217 50.676C101.45 50.4613 101.688 50.2093 101.931 49.92C102.183 49.6213 102.425 49.3087 102.659 48.982C102.901 48.6553 103.121 48.3287 103.317 48.002C103.522 47.6753 103.699 47.3627 103.849 47.064L105.445 47.82ZM111.451 47.022C111.628 47.246 111.824 47.512 112.039 47.82C112.263 48.128 112.487 48.4593 112.711 48.814C112.935 49.1593 113.145 49.5 113.341 49.836C113.537 50.1627 113.705 50.452 113.845 50.704L112.207 51.6C112.057 51.3013 111.885 50.9793 111.689 50.634C111.502 50.2887 111.306 49.9433 111.101 49.598C110.895 49.2527 110.69 48.9307 110.485 48.632C110.279 48.324 110.093 48.0627 109.925 47.848L111.451 47.022ZM117.737 46.518C117.905 46.5273 118.119 46.5413 118.381 46.56C118.642 46.5693 118.913 46.5787 119.193 46.588C119.482 46.5973 119.748 46.602 119.991 46.602C120.224 46.602 120.513 46.602 120.859 46.602C121.204 46.602 121.577 46.602 121.979 46.602C122.389 46.602 122.809 46.602 123.239 46.602C123.677 46.602 124.111 46.602 124.541 46.602C124.97 46.602 125.376 46.602 125.759 46.602C126.141 46.602 126.482 46.602 126.781 46.602C127.089 46.602 127.331 46.602 127.509 46.602C127.835 46.602 128.143 46.5927 128.433 46.574C128.722 46.546 128.96 46.5273 129.147 46.518V48.716C128.988 48.7067 128.75 48.6927 128.433 48.674C128.115 48.6553 127.807 48.646 127.509 48.646C127.331 48.646 127.089 48.646 126.781 48.646C126.473 48.646 126.127 48.646 125.745 48.646C125.362 48.646 124.956 48.646 124.527 48.646C124.107 48.646 123.677 48.646 123.239 48.646C122.8 48.646 122.375 48.646 121.965 48.646C121.563 48.646 121.19 48.646 120.845 48.646C120.509 48.646 120.224 48.646 119.991 48.646C119.589 48.646 119.179 48.6553 118.759 48.674C118.339 48.6833 117.998 48.6973 117.737 48.716V46.518ZM139.755 42.444C139.661 42.6493 139.563 42.8827 139.461 43.144C139.358 43.396 139.255 43.6807 139.153 43.998C139.069 44.2593 138.961 44.5953 138.831 45.006C138.7 45.4073 138.555 45.8507 138.397 46.336C138.238 46.812 138.07 47.3067 137.893 47.82C137.725 48.324 137.561 48.814 137.403 49.29C137.244 49.766 137.095 50.2 136.955 50.592C136.815 50.9747 136.693 51.2873 136.591 51.53L134.519 51.6C134.649 51.3013 134.794 50.9373 134.953 50.508C135.111 50.0787 135.279 49.612 135.457 49.108C135.634 48.5947 135.807 48.072 135.975 47.54C136.152 47.008 136.315 46.4947 136.465 46C136.623 45.5053 136.763 45.048 136.885 44.628C137.015 44.208 137.118 43.8673 137.193 43.606C137.286 43.242 137.356 42.9433 137.403 42.71C137.459 42.4673 137.501 42.2247 137.529 41.982L139.755 42.444ZM142.261 46.966C142.513 47.3393 142.783 47.778 143.073 48.282C143.362 48.786 143.647 49.3133 143.927 49.864C144.216 50.4053 144.482 50.928 144.725 51.432C144.967 51.936 145.168 52.3887 145.327 52.79L143.437 53.63C143.278 53.2007 143.082 52.7153 142.849 52.174C142.625 51.6327 142.377 51.082 142.107 50.522C141.845 49.962 141.575 49.4347 141.295 48.94C141.024 48.436 140.763 48.016 140.511 47.68L142.261 46.966ZM134.393 50.984C134.71 50.9653 135.093 50.942 135.541 50.914C135.998 50.8767 136.488 50.8347 137.011 50.788C137.533 50.732 138.065 50.676 138.607 50.62C139.157 50.564 139.694 50.508 140.217 50.452C140.749 50.3867 141.243 50.326 141.701 50.27C142.158 50.214 142.545 50.1627 142.863 50.116L143.283 51.908C142.937 51.9547 142.522 52.006 142.037 52.062C141.561 52.118 141.047 52.1787 140.497 52.244C139.946 52.3 139.386 52.3607 138.817 52.426C138.247 52.4913 137.692 52.552 137.151 52.608C136.609 52.664 136.11 52.7153 135.653 52.762C135.195 52.7993 134.808 52.8367 134.491 52.874C134.313 52.8927 134.103 52.9207 133.861 52.958C133.627 52.986 133.399 53.014 133.175 53.042L132.853 50.998C133.086 50.998 133.343 50.998 133.623 50.998C133.912 50.998 134.169 50.9933 134.393 50.984ZM158.067 44.432C158.067 44.6747 158.151 44.8847 158.319 45.062C158.496 45.23 158.706 45.314 158.949 45.314C159.201 45.314 159.411 45.23 159.579 45.062C159.756 44.8847 159.845 44.6747 159.845 44.432C159.845 44.18 159.756 43.97 159.579 43.802C159.411 43.6247 159.201 43.536 158.949 43.536C158.706 43.536 158.496 43.6247 158.319 43.802C158.151 43.97 158.067 44.18 158.067 44.432ZM157.143 44.432C157.143 44.0867 157.222 43.7787 157.381 43.508C157.549 43.2373 157.768 43.0227 158.039 42.864C158.309 42.696 158.613 42.612 158.949 42.612C159.294 42.612 159.602 42.696 159.873 42.864C160.143 43.0227 160.358 43.2373 160.517 43.508C160.685 43.7787 160.769 44.0867 160.769 44.432C160.769 44.7587 160.685 45.062 160.517 45.342C160.358 45.6127 160.143 45.832 159.873 46C159.602 46.1587 159.294 46.238 158.949 46.238C158.613 46.238 158.309 46.1587 158.039 46C157.768 45.832 157.549 45.6127 157.381 45.342C157.222 45.062 157.143 44.7587 157.143 44.432ZM148.435 49.01C148.649 48.8327 148.841 48.6647 149.009 48.506C149.177 48.3473 149.373 48.1607 149.597 47.946C149.755 47.778 149.937 47.5773 150.143 47.344C150.348 47.1107 150.567 46.8493 150.801 46.56C151.043 46.2707 151.291 45.9767 151.543 45.678C151.795 45.37 152.042 45.0713 152.285 44.782C152.695 44.2873 153.12 44.0167 153.559 43.97C153.997 43.914 154.487 44.1473 155.029 44.67C155.346 44.9593 155.668 45.272 155.995 45.608C156.331 45.944 156.657 46.28 156.975 46.616C157.301 46.952 157.605 47.274 157.885 47.582C158.202 47.9087 158.557 48.2867 158.949 48.716C159.35 49.1453 159.756 49.584 160.167 50.032C160.587 50.48 160.974 50.8953 161.329 51.278L159.789 52.93C159.481 52.538 159.149 52.1273 158.795 51.698C158.44 51.2687 158.095 50.8533 157.759 50.452C157.423 50.0413 157.115 49.6773 156.835 49.36C156.639 49.1173 156.415 48.8607 156.163 48.59C155.92 48.31 155.677 48.0347 155.435 47.764C155.192 47.4933 154.968 47.2507 154.763 47.036C154.557 46.8213 154.394 46.6487 154.273 46.518C154.039 46.294 153.839 46.1913 153.671 46.21C153.512 46.2193 153.33 46.35 153.125 46.602C152.994 46.7793 152.835 46.9893 152.649 47.232C152.462 47.4747 152.271 47.7313 152.075 48.002C151.879 48.2727 151.687 48.534 151.501 48.786C151.323 49.038 151.165 49.2573 151.025 49.444C150.866 49.668 150.707 49.8967 150.549 50.13C150.39 50.354 150.245 50.5593 150.115 50.746L148.435 49.01ZM165.193 46.518C165.361 46.5273 165.575 46.5413 165.837 46.56C166.098 46.5693 166.369 46.5787 166.649 46.588C166.938 46.5973 167.204 46.602 167.447 46.602C167.68 46.602 167.969 46.602 168.315 46.602C168.66 46.602 169.033 46.602 169.435 46.602C169.845 46.602 170.265 46.602 170.695 46.602C171.133 46.602 171.567 46.602 171.997 46.602C172.426 46.602 172.832 46.602 173.215 46.602C173.597 46.602 173.938 46.602 174.237 46.602C174.545 46.602 174.787 46.602 174.965 46.602C175.291 46.602 175.599 46.5927 175.889 46.574C176.178 46.546 176.416 46.5273 176.603 46.518V48.716C176.444 48.7067 176.206 48.6927 175.889 48.674C175.571 48.6553 175.263 48.646 174.965 48.646C174.787 48.646 174.545 48.646 174.237 48.646C173.929 48.646 173.583 48.646 173.201 48.646C172.818 48.646 172.412 48.646 171.983 48.646C171.563 48.646 171.133 48.646 170.695 48.646C170.256 48.646 169.831 48.646 169.421 48.646C169.019 48.646 168.646 48.646 168.301 48.646C167.965 48.646 167.68 48.646 167.447 48.646C167.045 48.646 166.635 48.6553 166.215 48.674C165.795 48.6833 165.454 48.6973 165.193 48.716V46.518ZM189.811 42.248C189.942 42.444 190.082 42.6727 190.231 42.934C190.39 43.186 190.544 43.4427 190.693 43.704C190.843 43.956 190.973 44.194 191.085 44.418L189.867 44.936C189.727 44.6373 189.597 44.3713 189.475 44.138C189.354 43.8953 189.223 43.662 189.083 43.438C188.953 43.2047 188.803 42.9713 188.635 42.738L189.811 42.248ZM191.729 41.576C191.879 41.7533 192.033 41.968 192.191 42.22C192.35 42.472 192.504 42.724 192.653 42.976C192.803 43.228 192.933 43.4567 193.045 43.662L191.855 44.194C191.706 43.9047 191.561 43.6433 191.421 43.41C191.291 43.1767 191.155 42.9527 191.015 42.738C190.875 42.5233 190.717 42.2993 190.539 42.066L191.729 41.576ZM183.721 41.982C183.955 42.1033 184.216 42.2527 184.505 42.43C184.795 42.6073 185.089 42.794 185.387 42.99C185.686 43.1767 185.971 43.3587 186.241 43.536C186.512 43.704 186.736 43.8533 186.913 43.984L185.877 45.524C185.681 45.3933 185.448 45.2393 185.177 45.062C184.916 44.8847 184.636 44.7027 184.337 44.516C184.048 44.3293 183.759 44.152 183.469 43.984C183.189 43.8067 182.937 43.6527 182.713 43.522L183.721 41.982ZM181.131 51.922C181.654 51.8287 182.186 51.712 182.727 51.572C183.269 51.432 183.805 51.264 184.337 51.068C184.869 50.8627 185.387 50.62 185.891 50.34C186.685 49.892 187.422 49.388 188.103 48.828C188.794 48.268 189.415 47.6753 189.965 47.05C190.516 46.4153 190.973 45.762 191.337 45.09L192.415 46.994C191.771 47.9647 190.969 48.884 190.007 49.752C189.055 50.6107 188.005 51.3713 186.857 52.034C186.381 52.2953 185.859 52.5473 185.289 52.79C184.72 53.0233 184.16 53.224 183.609 53.392C183.068 53.56 182.592 53.6813 182.181 53.756L181.131 51.922ZM181.565 45.174C181.799 45.2953 182.065 45.4447 182.363 45.622C182.662 45.7993 182.961 45.9813 183.259 46.168C183.558 46.3453 183.838 46.5227 184.099 46.7C184.37 46.868 184.594 47.0173 184.771 47.148L183.749 48.716C183.544 48.576 183.306 48.4173 183.035 48.24C182.774 48.0627 182.494 47.8807 182.195 47.694C181.906 47.5073 181.617 47.33 181.327 47.162C181.047 46.9847 180.791 46.8353 180.557 46.714L181.565 45.174ZM201.025 44.404C201.427 44.4413 201.828 44.474 202.229 44.502C202.64 44.5207 203.055 44.53 203.475 44.53C204.334 44.53 205.188 44.4927 206.037 44.418C206.887 44.3433 207.671 44.2267 208.389 44.068V45.818C207.661 45.9207 206.873 46.0047 206.023 46.07C205.174 46.126 204.325 46.154 203.475 46.154C203.065 46.154 202.654 46.1493 202.243 46.14C201.842 46.1213 201.436 46.098 201.025 46.07V44.404ZM206.345 42.038C206.327 42.1687 206.308 42.3133 206.289 42.472C206.28 42.6307 206.271 42.7893 206.261 42.948C206.252 43.0973 206.243 43.298 206.233 43.55C206.224 43.802 206.219 44.0867 206.219 44.404C206.219 44.712 206.219 45.0387 206.219 45.384C206.219 46.0187 206.229 46.616 206.247 47.176C206.266 47.7267 206.289 48.24 206.317 48.716C206.345 49.1827 206.369 49.612 206.387 50.004C206.415 50.396 206.429 50.76 206.429 51.096C206.429 51.46 206.378 51.796 206.275 52.104C206.182 52.412 206.028 52.6827 205.813 52.916C205.599 53.1493 205.314 53.3267 204.959 53.448C204.614 53.5787 204.189 53.644 203.685 53.644C202.715 53.644 201.949 53.448 201.389 53.056C200.829 52.664 200.549 52.0993 200.549 51.362C200.549 50.886 200.675 50.4707 200.927 50.116C201.179 49.752 201.539 49.472 202.005 49.276C202.472 49.0707 203.023 48.968 203.657 48.968C204.32 48.968 204.922 49.038 205.463 49.178C206.005 49.318 206.499 49.5047 206.947 49.738C207.395 49.9713 207.792 50.228 208.137 50.508C208.492 50.7787 208.809 51.04 209.089 51.292L208.123 52.762C207.591 52.258 207.073 51.824 206.569 51.46C206.065 51.096 205.561 50.816 205.057 50.62C204.563 50.424 204.049 50.326 203.517 50.326C203.125 50.326 202.803 50.4007 202.551 50.55C202.309 50.6993 202.187 50.9093 202.187 51.18C202.187 51.46 202.313 51.6653 202.565 51.796C202.817 51.9267 203.125 51.992 203.489 51.992C203.779 51.992 204.007 51.9453 204.175 51.852C204.343 51.7493 204.46 51.6047 204.525 51.418C204.6 51.222 204.637 50.9887 204.637 50.718C204.637 50.4753 204.628 50.158 204.609 49.766C204.591 49.374 204.567 48.9353 204.539 48.45C204.521 47.9647 204.502 47.4607 204.483 46.938C204.465 46.406 204.455 45.888 204.455 45.384C204.455 44.852 204.451 44.3713 204.441 43.942C204.441 43.5033 204.441 43.1767 204.441 42.962C204.441 42.8593 204.432 42.7147 204.413 42.528C204.395 42.3413 204.371 42.178 204.343 42.038H206.345ZM199.513 42.192C199.485 42.2853 199.443 42.416 199.387 42.584C199.341 42.752 199.299 42.9153 199.261 43.074C199.233 43.2327 199.21 43.354 199.191 43.438C199.145 43.634 199.093 43.9 199.037 44.236C198.981 44.5627 198.921 44.936 198.855 45.356C198.799 45.7667 198.743 46.1913 198.687 46.63C198.631 47.0593 198.589 47.47 198.561 47.862C198.533 48.2447 198.519 48.576 198.519 48.856C198.519 48.996 198.519 49.15 198.519 49.318C198.529 49.4767 198.547 49.626 198.575 49.766C198.641 49.598 198.706 49.4347 198.771 49.276C198.846 49.1173 198.921 48.9587 198.995 48.8C199.07 48.6413 199.14 48.4827 199.205 48.324L200.059 49.024C199.929 49.4067 199.793 49.808 199.653 50.228C199.523 50.648 199.401 51.0447 199.289 51.418C199.187 51.7913 199.107 52.104 199.051 52.356C199.033 52.4493 199.014 52.5613 198.995 52.692C198.986 52.8227 198.981 52.93 198.981 53.014C198.981 53.0887 198.981 53.1773 198.981 53.28C198.991 53.392 199 53.4947 199.009 53.588L197.427 53.714C197.278 53.2193 197.147 52.5893 197.035 51.824C196.923 51.0493 196.867 50.186 196.867 49.234C196.867 48.7113 196.891 48.1653 196.937 47.596C196.984 47.0173 197.035 46.462 197.091 45.93C197.157 45.398 197.222 44.9127 197.287 44.474C197.353 44.026 197.404 43.6667 197.441 43.396C197.469 43.2 197.497 42.9807 197.525 42.738C197.553 42.486 197.572 42.248 197.581 42.024L199.513 42.192ZM214.563 42.822C215.077 42.878 215.655 42.92 216.299 42.948C216.943 42.976 217.634 42.99 218.371 42.99C218.829 42.99 219.3 42.9807 219.785 42.962C220.28 42.9433 220.756 42.92 221.213 42.892C221.671 42.864 222.077 42.8313 222.431 42.794V44.656C222.105 44.684 221.708 44.712 221.241 44.74C220.784 44.768 220.303 44.7913 219.799 44.81C219.305 44.8193 218.833 44.824 218.385 44.824C217.657 44.824 216.981 44.81 216.355 44.782C215.73 44.754 215.133 44.7167 214.563 44.67V42.822ZM215.739 48.758C215.674 49.0007 215.618 49.2387 215.571 49.472C215.525 49.7053 215.501 49.9387 215.501 50.172C215.501 50.62 215.725 50.9887 216.173 51.278C216.631 51.5673 217.363 51.712 218.371 51.712C219.006 51.712 219.617 51.6887 220.205 51.642C220.793 51.5953 221.349 51.53 221.871 51.446C222.403 51.362 222.875 51.264 223.285 51.152L223.299 53.126C222.889 53.2193 222.431 53.2987 221.927 53.364C221.423 53.4387 220.877 53.4947 220.289 53.532C219.711 53.5787 219.095 53.602 218.441 53.602C217.377 53.602 216.486 53.4853 215.767 53.252C215.049 53.0187 214.512 52.6827 214.157 52.244C213.803 51.796 213.625 51.25 213.625 50.606C213.625 50.1953 213.658 49.822 213.723 49.486C213.789 49.15 213.849 48.8513 213.905 48.59L215.739 48.758ZM233.813 41.842C233.739 42.0847 233.673 42.3273 233.617 42.57C233.571 42.8033 233.524 43.0367 233.477 43.27C233.431 43.494 233.375 43.7507 233.309 44.04C233.253 44.3293 233.188 44.6373 233.113 44.964C233.048 45.2813 232.973 45.6033 232.889 45.93C232.815 46.2567 232.735 46.5787 232.651 46.896C232.567 47.204 232.488 47.4887 232.413 47.75C232.983 47.4327 233.547 47.2087 234.107 47.078C234.667 46.938 235.26 46.868 235.885 46.868C236.641 46.868 237.299 46.994 237.859 47.246C238.429 47.498 238.867 47.848 239.175 48.296C239.493 48.744 239.651 49.2667 239.651 49.864C239.651 50.648 239.469 51.3107 239.105 51.852C238.751 52.3933 238.237 52.818 237.565 53.126C236.903 53.434 236.105 53.63 235.171 53.714C234.247 53.798 233.221 53.7793 232.091 53.658L231.601 51.852C232.367 51.9827 233.113 52.048 233.841 52.048C234.579 52.048 235.241 51.978 235.829 51.838C236.417 51.698 236.884 51.474 237.229 51.166C237.584 50.8487 237.761 50.4333 237.761 49.92C237.761 49.5 237.584 49.1407 237.229 48.842C236.875 48.534 236.357 48.38 235.675 48.38C234.863 48.38 234.117 48.52 233.435 48.8C232.763 49.08 232.217 49.486 231.797 50.018C231.732 50.1207 231.667 50.2187 231.601 50.312C231.545 50.4053 231.48 50.5127 231.405 50.634L229.753 50.046C230.015 49.542 230.257 48.968 230.481 48.324C230.705 47.68 230.906 47.0313 231.083 46.378C231.261 45.7247 231.405 45.118 231.517 44.558C231.629 43.9887 231.709 43.5267 231.755 43.172C231.802 42.8733 231.83 42.6213 231.839 42.416C231.849 42.2013 231.844 41.982 231.825 41.758L233.813 41.842ZM228.927 43.48C229.375 43.5547 229.861 43.62 230.383 43.676C230.906 43.7227 231.387 43.746 231.825 43.746C232.273 43.746 232.763 43.732 233.295 43.704C233.837 43.676 234.406 43.634 235.003 43.578C235.601 43.522 236.198 43.452 236.795 43.368C237.402 43.2747 237.995 43.1673 238.573 43.046L238.601 44.712C238.153 44.7867 237.645 44.8613 237.075 44.936C236.515 45.0107 235.927 45.0807 235.311 45.146C234.695 45.202 234.089 45.2487 233.491 45.286C232.894 45.3233 232.343 45.342 231.839 45.342C231.298 45.342 230.78 45.3327 230.285 45.314C229.8 45.286 229.347 45.2533 228.927 45.216V43.48ZM248.107 41.73C248.443 41.8327 248.863 41.94 249.367 42.052C249.871 42.164 250.399 42.276 250.949 42.388C251.5 42.4907 252.018 42.5793 252.503 42.654C252.998 42.7287 253.399 42.7847 253.707 42.822L253.287 44.53C253.007 44.4927 252.667 44.4413 252.265 44.376C251.873 44.3013 251.453 44.222 251.005 44.138C250.567 44.054 250.133 43.97 249.703 43.886C249.274 43.7927 248.882 43.704 248.527 43.62C248.173 43.536 247.883 43.466 247.659 43.41L248.107 41.73ZM248.191 44.544C248.145 44.7307 248.093 44.9733 248.037 45.272C247.991 45.5613 247.944 45.8647 247.897 46.182C247.851 46.4993 247.804 46.8027 247.757 47.092C247.72 47.3813 247.687 47.624 247.659 47.82C248.294 47.3627 248.957 47.0267 249.647 46.812C250.347 46.5973 251.061 46.49 251.789 46.49C252.611 46.49 253.311 46.6393 253.889 46.938C254.468 47.2367 254.907 47.6287 255.205 48.114C255.513 48.5993 255.667 49.1267 255.667 49.696C255.667 50.3307 255.532 50.9187 255.261 51.46C254.991 52.0013 254.547 52.4633 253.931 52.846C253.315 53.2287 252.508 53.4993 251.509 53.658C250.511 53.8167 249.283 53.8353 247.827 53.714L247.295 51.88C248.695 52.0667 249.871 52.0947 250.823 51.964C251.775 51.824 252.494 51.5533 252.979 51.152C253.474 50.7413 253.721 50.242 253.721 49.654C253.721 49.346 253.633 49.0753 253.455 48.842C253.278 48.5993 253.031 48.4127 252.713 48.282C252.396 48.142 252.037 48.072 251.635 48.072C250.851 48.072 250.114 48.2167 249.423 48.506C248.742 48.786 248.182 49.192 247.743 49.724C247.622 49.8733 247.519 50.0133 247.435 50.144C247.361 50.2653 247.291 50.396 247.225 50.536L245.615 50.13C245.671 49.8593 245.727 49.542 245.783 49.178C245.839 48.8047 245.895 48.408 245.951 47.988C246.007 47.5587 246.059 47.1293 246.105 46.7C246.152 46.2707 246.194 45.846 246.231 45.426C246.269 45.006 246.297 44.6233 246.315 44.278L248.191 44.544Z" fill="white"/>
</svg>
