<?xml version="1.0" encoding="UTF-8"?>
<svg id="_レイヤー_1" data-name="レイヤー_1" xmlns="http://www.w3.org/2000/svg" xmlns:xlink="http://www.w3.org/1999/xlink" version="1.1" viewBox="0 0 144.07 132.57">
  <!-- Generator: Adobe Illustrator 29.5.1, SVG Export Plug-In . SVG Version: 2.1.0 Build 141)  -->
  <defs>
    <style>
      .st0 {
        mask: url(#mask);
      }

      .st1 {
        fill: none;
        stroke: #6c8600;
        stroke-miterlimit: 4;
        stroke-width: 4px;
      }

      .st2 {
        fill: #eaab71;
      }

      .st3 {
        fill: #ff7b18;
      }

      .st4 {
        fill: #3e3a39;
      }

      .st5 {
        fill: #f9e0cf;
      }

      .st6 {
        fill: #c18156;
      }

      .st7 {
        fill: #fff;
      }
    </style>
    <mask id="mask" x="-2.9" y="-3.96" width="183.85" height="235.26" maskUnits="userSpaceOnUse">
      <g id="mask0_1350_265">
        <path class="st7" d="M77.79,129.06c34.95,0,63.28-28.36,63.28-63.34S112.74,2.37,77.79,2.37L38.24-2.38l-18.99-1.58-15.03,1.58L-2.9,19v29.3l10.28,25.34,10.02,11.09c8.06,25.7,32.05,44.34,60.39,44.34Z"/>
      </g>
    </mask>
  </defs>
  <path class="st7" d="M70.32,2.6h0c34.31-4.75,65.97,19.22,70.71,53.52l.43,3.13c4.75,34.31-19.22,65.97-53.52,70.71h0c-34.31,4.75-65.97-19.22-70.71-53.52l-.43-3.13C12.05,39,36.01,7.35,70.32,2.6Z"/>
  <path class="st1" d="M70.32,2.6h0c34.31-4.75,65.97,19.22,70.71,53.52l.43,3.13c4.75,34.31-19.22,65.97-53.52,70.71h0c-34.31,4.75-65.97-19.22-70.71-53.52l-.43-3.13C12.05,39,36.01,7.35,70.32,2.6Z"/>
  <g class="st0">
    <g>
      <path class="st4" d="M16.34,64.92c2.85-2.71,9.83-4.79,14.01-4.48,8.11.59,15.93-1.19,22.14-1.65,2.92-.21,9.6,3.59,14.43,5.12,1.9.6,1.66.4,3.41,1.3,2.3,1.18-.14,2.3,1.56,4.76,1.71,2.46,2.49,3.66,1.36,6.3-.28.65-.81,1.68-1.18,2.4-4.82,1.86-9.1.06-17.6.85-9.81.91-24.77,3.13-36.05-1.6-.51-.21-3.24-11.91-2.09-13.01h0Z"/>
      <path class="st4" d="M17.4,66.37c2.94-2.68,7.55-3.94,11.44-4.15,2.69-.14,5.4.18,8.11.04,2.91-.15,5.8-.5,8.69-.88,2.33-.3,4.9-.92,7.25-.81,1.75.08,3.57,1.01,5.16,1.68,2.1.88,4.16,1.83,6.28,2.65,1.01.39,2.04.72,3.07,1.03.3.09.49.14.73.23.39.15,1.06.69,1.45.69.35,0-.05.09.01-.25-.08.46-.13.94-.14,1.4,0,1.13.38,2.08.98,3.02.6.94,1.61,1.98,1.55,3.19-.07,1.27-.98,2.59-1.54,3.71l.99-.93c-3.92,1.45-8.38.52-12.45.53-5.04,0-10.06.82-15.09,1.2-5.41.41-10.87.56-16.26-.21-1.25-.18-2.49-.41-3.71-.7-1.32-.31-2.63-.94-3.94-1.2-.5-.1-.34-.41-.15.2.35,1.11.12.21.12.21,0-.14-.15-.4-.2-.53-.21-.61-.37-1.24-.53-1.87-.45-1.76-.8-3.55-1.07-5.35-.13-.88-.23-1.75-.29-2.64-.03-.48.01-.36,0-.63-.03-.51.1-.22-.13.04,1.52-1.75-1.27-4.01-2.78-2.27-.91,1.05-.73,2.74-.61,4.02.16,1.77.49,3.54.86,5.28.34,1.57.67,3.18,1.19,4.71.64,1.88,2.36,2.24,4.14,2.8,10.75,3.36,22.25,1.87,33.25.81,2.86-.28,5.7-.35,8.57-.22,2.17.1,4.38.29,6.55.07,1.03-.1,2.07-.32,3.06-.63,1.56-.49,1.98-1.57,2.64-2.96,1.27-2.68,1.18-4.96-.39-7.46-.54-.86-1.22-1.5-1.13-2.54.09-1.04.19-1.95-.47-2.86-1.24-1.69-3.79-2.09-5.65-2.74-2.52-.88-4.94-2.03-7.4-3.06-2.05-.86-4.28-1.88-6.54-1.97-3.21-.13-6.58.67-9.76,1.05-3.99.49-8.02.87-12.03.64-5.32-.3-11.88,1.06-15.93,4.76-1.69,1.54.4,4.46,2.11,2.9h0Z"/>
      <path class="st4" d="M17.46,78.64c.22.19,4.8,1.29,5.08,1.32,5.97.71,5.47.4,8.03-2.75,1.34-1.65.61-5.81.08-8.25-1.67-7.68-4.01-15.53-5.79-23.5-.41-1.85-.57-3.38-.86-5.09-.29-1.71-.44-3.21-.56-4.86-.09-1.31.14-2.66-.32-3.87-.98-2.58-3.06-2.8-5.5-2.18-2.23.57-4.4,1.05-6.6,2.03-1.96.87-3.96,1.04-5.39,3.28-.93,1.45-.44,2.6-.19,6.01.2,2.83,2.36,14.07,3.58,17.62,1.54,4.49,3.47,11.52,5.14,15.44,1.53,3.59,1.62,3.31,3.31,4.81h0Z"/>
      <path class="st4" d="M16.86,79.93c1.14.67,2.86.83,4.13,1.13,1.69.4,3.43.61,5.17.62,1.45.01,2.68-.36,3.71-1.4,1.14-1.15,2.33-2.57,2.7-4.17.49-2.16.07-4.54-.36-6.67-.61-3-1.37-5.97-2.12-8.93-1.63-6.4-3.5-12.76-4.51-19.29-.23-1.47-.46-2.93-.6-4.41-.14-1.48,0-2.95-.21-4.39-.31-2.15-1.71-4.09-3.91-4.56-2.36-.51-5.1.54-7.33,1.19-1.42.42-2.75,1.02-4.14,1.53-1.08.4-2.18.78-3.12,1.45-3.55,2.51-2.61,6.68-2.09,10.39.55,3.92,1.34,7.84,2.23,11.69,1.08,4.67,2.67,9.23,4.12,13.79.85,2.66,1.73,5.32,2.91,7.87.78,1.69,1.72,2.75,3.11,3.96,1.39,1.21,3.2-1,1.81-2.21-.95-.83-1.63-1.45-2.17-2.61-.88-1.86-1.58-3.79-2.23-5.74-1.34-4.01-2.65-8.05-3.86-12.1-1.87-6.28-2.93-12.92-3.53-19.43-.17-1.88.61-3.08,2.42-3.86,2.21-.96,4.52-1.81,6.85-2.42,1.46-.38,4.13-1.53,5.41-.17.86.91.74,2.31.75,3.46.01,1.29.14,2.59.3,3.87,1.36,11,5.4,21.39,7.27,32.27.32,1.87.84,4.27-.41,5.88-.63.82-1.28,1.96-2.29,2.13-1.56.25-3.38-.09-4.9-.44-1.2-.28-2.9-.44-3.9-1.03-1.59-.93-2.77,1.67-1.19,2.6h0Z"/>
      <path class="st5" d="M2.16,21.45c.49,2.18,2.85,11.03,6.31,13.15,1.84,1.13,3.87,2.1,5.96,1.75,1.73-.29,3.34-1.32,4.33-2.83.28-.42.55-.84.88-1.23,1.06-1.25,1.92-2.68,2.54-4.22"/>
      <path class="st4" d="M.75,21.59c.5,2.2,1.14,4.37,1.94,6.48.94,2.48,2.1,5.17,4.08,7.01,2.39,2.22,6.31,3.47,9.43,2.24,1.7-.67,2.9-1.86,3.93-3.32,1.24-1.75,2.48-3.33,3.34-5.33.71-1.68-1.87-2.86-2.58-1.18-.71,1.68-1.63,2.91-2.66,4.31-.98,1.32-1.78,2.54-3.46,3.03-2.39.69-5.44-.81-6.87-2.73-2.25-3.01-3.54-7.35-4.32-10.78-.4-1.75-3.23-1.49-2.83.28h0Z"/>
      <path class="st5" d="M13.95,21.76c-.01.75.29,1.71.77,2.27.47.57,1.01,1.34,1.62,1.75.31.22,1.24-.51,1.6-.56.32-.05,2.31,1.3,2.51,1.03,1.31-1.77.2-6.13-.21-8.38-.36-1.97-1.83-13.63-3.62-14.32-.59-.23-1.93,4.12-2.1,5.68-.08.7,0,5.64-.43,6.23-.57-.92-1.51-2.05-2.52-1.82-1.16.26-2.12,1.35-2.04,2.8-.46-1.07-2.67-2.08-3.6-1.44-.93.64-1.59,1.79-1.9,2.91-.74.26-1.95.19-2.25.95-.29.77-.58,2.94-.2,3.67,1.2,2.32,3.31,3.39,4.88,2.41.84-.53-.68-3.64-1.21-5.49-.06-.22,2.07,5.4,3.23,4.79,1.91-1,1.05-7.81,1.05-7.81,0,0,.61,7.81,2.84,7.27,4.39-1.06,1.53-7.36,1.72-8.25"/>
      <path class="st4" d="M12.54,21.9c.06,1.24.51,2.3,1.27,3.26.69.87,1.58,2.14,2.83,2.06.4-.03,1.07-.25,1.38-.52l.12-.06c.32-.13.14-.16-.54-.08,0,0,.37.17.41.2.62.44,1.71,1.02,2.5.93,2.18-.25,2.04-3.89,1.9-5.4-.17-1.81-.62-3.57-.9-5.37-.55-3.49-1.04-7.01-1.96-10.43-.32-1.22-.68-2.64-1.54-3.6-1.36-1.52-2.8-.38-3.46,1.1-.79,1.77-1.42,3.83-1.48,5.77-.03.95-.03,1.91-.07,2.86-.03.66-.05,1.95-.22,2.26l2.44-.24c-.97-1.49-2.44-2.87-4.35-2.26-1.92.61-2.75,2.35-2.77,4.22l2.56-.97c-.78-1.41-2.77-2.39-4.38-2.2-2.04.24-3.14,2.56-3.67,4.27l.89-1.08c-.95.27-2,.31-2.69,1.13-.64.77-.75,1.99-.82,2.94-.16,2.32,1.01,4.43,3.12,5.53,1.52.79,4.41.83,4.92-1.25.22-.91-.09-1.89-.36-2.75-.17-.53-.36-1.06-.56-1.59-.08-.23-.17-.46-.25-.7-.12-.35-.16-1.05-.24-.21l-2.73.27c.8,1.78,2.82,7.58,5.67,5.23,2.24-1.85,1.66-6.36,1.34-8.89-.23-1.81-2.98-1.54-2.83.28.19,2.43.66,8.82,4.24,8.56,2.4-.17,3.77-2.44,3.87-4.61.05-1.03-.09-2.03-.31-3.04-.09-.42-.2-.83-.29-1.25-.04-.2-.09-1-.14-.55.22-1.81-2.58-2.29-2.8-.48-.14,1.17.41,2.4.59,3.54.11.71.22,1.47.06,2.18-.17.81-.51.99-1.18,1.37-.09.05.31.18.22.04-.15-.24-.27-.45-.38-.71-.29-.68-.47-1.42-.61-2.15-.21-1.05-.36-2.11-.44-3.18l-2.83.28c.25,2.04.21,3.99-.13,6.02,0,.04-.2.41-.2.42.33-.01.66,0,.99.02-.06-.03-.11-.08-.15-.13-.09-.41-.68-1-.89-1.4-.44-.83-.77-1.69-1.15-2.55-.53-1.18-2.59-1.22-2.73.27-.08.8.37,1.66.64,2.4.27.74.42,1.62.76,2.32.01.12.03.23.05.34.49-.48.54-.62.15-.41-.09-.07-.66-.05-.82-.1-.77-.29-1.59-1.21-1.78-1.99-.12-.49-.09-1.9.23-2.32-.24.32.23.07.47.02.44-.1.94-.14,1.32-.42.83-.61.62-2.02,1.52-2.59.71-.45,1.58.07,1.99.81.77,1.38,2.55.23,2.56-.97,0-.46.33-1.26.9-1.22.44.03.89.9,1.1,1.22.62.95,1.97.64,2.44-.24.55-1.02.42-2.53.46-3.65.04-1.12-.03-2.33.14-3.38.12-.71.31-1.42.52-2.1.1-.32.96-1.97.86-2.22-.09-.21-1.54.2-1.51-.02,0,.03.21.32.19.28.24.48.42,1.01.58,1.52.88,2.79,1.3,5.74,1.75,8.62.41,2.6,1.08,5.22,1.26,7.84.03.52.05,1.05-.03,1.57-.02.1-.12.37-.09.47-.2.35-.01.37.54.08.64-.01.82-.07.51-.17-.13-.29-1.58-.83-1.92-.94-.69-.22-1.6-.1-2.16.4.49-.44.52.5.16-.21-.14-.28-.45-.53-.64-.78-.41-.54-.59-1.05-.62-1.73-.09-1.82-2.92-1.54-2.83.28h0Z"/>
      <path class="st5" d="M21.39,29.65c.19-.29.96-1.63,1-2.22.02-.31-.45-.89-.67-1.1-1.88-1.79-3.76-2.98-6.08-3.74-.77-.25-1.57-.44-2.37-.29-.23.04-.46.12-.65.27-.71.55-.46,1.46-.07,2.12.49.85,2.28,2.53,3.1,3.03"/>
      <path class="st4" d="M22.68,30.24c1.1-1.8,1.59-3.37-.06-5.01-1.92-1.9-4.36-3.37-6.97-4.11-2.21-.63-5.34.03-4.83,2.95.34,1.94,2.36,3.71,3.92,4.74,1.57,1.03,3.33-1.18,1.8-2.19-.92-.61-1.89-1.42-2.54-2.32-.11-.15-.35-.38-.35-.58,0-.25.46-.07.81,0,.78.17,1.53.46,2.24.8,1.32.61,2.49,1.45,3.58,2.41.26.23.52.44.71.73-.25-.39.07-.34-.2.09-.27.43-.44.88-.7,1.3-.95,1.56,1.64,2.72,2.58,1.18h0Z"/>
      <path class="st4" d="M120.37,79.24c-5.38-1.29-22.58-5.86-28.61-7.79-12.56-4.02-10.63-14.53-8.42-16.45.54-.47,2.95-3.13,3.62-3.64,6.29-2.06,12.71,1.65,18.56,4.37,8.96,4.17,19.97,8.33,26.37,15.49.35.39.72,2.17.7,2.76,0,.34-1.02,2.87-1.22,3.05-1.23,1.11-9.3,2.61-10.99,2.2h0Z"/>
      <path class="st4" d="M120.67,77.49c-7.33-1.76-14.61-3.76-21.86-5.8-5.98-1.69-14.63-3.43-15.28-10.96-.09-1.01.02-2.24.31-3.1.06-.2.31-.78.51-1.11-.19.32.05-.05.13-.15.07-.08.23-.27-.1.08.18-.19.38-.35.56-.53,1.05-1.03,2.17-2.88,3.56-3.14,2.66-.49,5.3-.05,7.83.83,4.97,1.74,9.7,4.33,14.49,6.5,4.79,2.17,9.58,4.36,13.9,7.33,1.14.78,2.24,1.61,3.29,2.52.83.71,2.1,1.63,2.5,2.58.17.39.29,1.01.28,1.43.01-.34-.11.17-.17.33-.15.41-.32.82-.49,1.22-.04.09-.18.32-.2.44-.18.33-.09.24.28-.27l-.11.08s.24-.05-.05.02c-.19.05-.42.17-.6.24-.42.15-.84.28-1.27.4-.87.24-1.76.43-2.64.6-1.51.28-3.66.73-4.86.49-2.26-.45-2.85,3.06-.6,3.51,1.65.33,3.54-.06,5.17-.34,1.91-.33,3.9-.7,5.71-1.41,3.26-1.27,4.4-6.27,2.38-9.07-1.62-2.24-4.25-4.09-6.51-5.63-2.37-1.62-4.88-3.03-7.43-4.34-5.29-2.7-10.79-4.99-16.16-7.54-2.9-1.37-5.87-2.71-9.04-3.33-1.37-.27-2.78-.39-4.17-.32-1.3.06-3.16.22-4.22,1.01-.76.57-1.41,1.36-2.07,2.05-.7.73-1.42,1.41-1.84,1.88-.78.86-1.23,1.91-1.55,3.02-.89,3.17-.27,6.63,1.42,9.42,2.4,3.99,6.71,5.91,10.99,7.21,9.01,2.74,18.17,5.19,27.33,7.39,2.24.54,2.83-2.97.6-3.51v-.02Z"/>
      <path class="st4" d="M134.33,76.09c0-.26,0-.53-.02-.79-.23-3.63-2.56-6-6.32-6.24-1.96-.13-3.99.68-5.95,1.7-3.54,1.84-2.58,1.54-5.73,4.13-5.21,4.28-14.62,12.36-20.16,15.88-.72.46-1.9-.07-2.68.29-.58.26-1.64.49-2.22.77-1.06.52-.41,1.19-.36,2.19.05,1,2.11,3.6,2.78,4.16,2.49,2.46,4.79,5.28,7.75,7.26.99.66,1.99,1.33,3.32,1.54,1.32.22,2.79-.05,4.1-1.04,1.08-.82,9.74-9.27,12.36-11.37,3.32-2.65,6.59-5.29,9.12-8.68,2.35-3.14,3.97-6.43,4.01-9.79h0Z"/>
      <path class="st4" d="M135.79,75.95c-.03-4.29-2.75-7.82-7.15-8.3-4.09-.44-8.53,1.98-11.52,4.63-3.28,2.91-6.73,5.65-10.12,8.42-3.39,2.77-6.95,5.68-10.66,8.19-.31.21-.66.53-1.04.61-.51.11-1.09-.09-1.62-.01-1.03.15-2.41.6-3.29,1.15-1.65,1.02-1.29,3.24-.57,4.77.72,1.55,1.89,2.88,3.1,4.07,1.95,1.92,3.73,4.02,5.84,5.78,1.91,1.59,4.17,3.2,6.74,3.24,1.76.03,3.4-.65,4.7-1.8,2.42-2.15,4.72-4.44,7.09-6.65,7.22-6.75,18.16-13.11,18.51-24.1.06-1.88-2.87-1.57-2.93.29-.15,4.68-3.48,8.96-6.67,12.12-2.64,2.61-5.67,4.76-8.41,7.26-2.34,2.14-4.63,4.33-6.94,6.5-1.81,1.71-3.78,4.2-6.59,3.21-2.13-.75-4.01-2.59-5.59-4.14-1.49-1.46-3-2.96-4.4-4.51-1.05-1.16-1.65-2.23-2.05-3.69-.02-.08-.09-.29-.08-.39-.06.53-.11.37.36.33.47-.04.92-.33,1.35-.44.96-.24,1.9.08,2.85-.35,1.47-.67,2.86-1.88,4.15-2.84,1.59-1.18,3.16-2.4,4.71-3.64,3.13-2.5,6.21-5.07,9.29-7.63,2.83-2.35,5.37-4.81,8.73-6.38,2.19-1.02,4.75-1.69,6.97-.38,1.8,1.05,2.32,3.02,2.33,4.98.01,1.96,2.94,1.58,2.93-.29h0Z"/>
      <path class="st2" d="M80.94,117.28c-8.86,35.84-22.39,66.6-39.28,100.35,9.53,7.24,21.92,13.78,23.12,13.05.88-.54,30.05-63.52,37.03-83.2,2.54-7.17,4.75-15.57,3.83-23.3-.54-4.52-2.07-9.45-4.92-12.33-4.05-4.08-8.19-4.87-13.17-3.04-3.51,1.29-5.15,4.4-6.2,7.7"/>
      <path class="st2" d="M80.36,117.18c-1.7,6.87-3.6,13.69-5.71,20.45-2.11,6.76-4.31,13.17-6.73,19.67-2.42,6.5-4.95,12.8-7.63,19.11-2.73,6.44-5.6,12.81-8.57,19.15-3.05,6.52-6.2,12.99-9.4,19.43-.4.8-.79,1.6-1.19,2.39-.11.22-.04.54.16.69,3.63,2.75,7.44,5.27,11.35,7.6,2.97,1.77,6.02,3.52,9.22,4.85.78.33,1.65.72,2.51.77.4.02.75-.07.97-.41.41-.62.73-1.31,1.06-1.97.62-1.23,1.22-2.48,1.82-3.73.85-1.76,1.69-3.53,2.52-5.3,1.03-2.19,2.06-4.38,3.08-6.58,1.18-2.53,2.34-5.06,3.5-7.6,1.26-2.75,2.51-5.49,3.76-8.25,1.3-2.87,2.6-5.75,3.89-8.63,1.29-2.88,2.59-5.81,3.87-8.71,1.25-2.83,2.49-5.66,3.71-8.49,1.15-2.67,2.3-5.34,3.43-8.01,1-2.38,2-4.77,2.97-7.16.82-2.01,1.61-4.02,2.38-6.05,1.13-2.98,2.17-5.99,3.02-9.06,1.31-4.73,2.2-9.64,2.05-14.57-.07-2.3-.4-4.58-.96-6.81-.53-2.11-1.3-4.18-2.42-6.05-1.06-1.76-2.53-3.27-4.21-4.45-1.53-1.08-3.28-1.85-5.16-2.08-1.89-.24-3.79.06-5.6.64-1.92.62-3.58,1.68-4.81,3.28-1.14,1.48-1.87,3.21-2.43,4.97-.09.3-.02.63.29.77.26.12.67.01.77-.29.56-1.76,1.28-3.51,2.46-4.95.58-.71,1.26-1.32,2.04-1.79.84-.51,1.78-.83,2.72-1.1,1.69-.47,3.47-.62,5.19-.25,1.72.36,3.42,1.32,4.82,2.49,1.57,1.31,2.78,2.88,3.66,4.72.93,1.94,1.55,4.02,1.95,6.13.88,4.65.6,9.37-.29,13.99-.79,4.13-2.03,8.16-3.47,12.11-.67,1.84-1.38,3.66-2.1,5.48-.89,2.23-1.79,4.44-2.71,6.66-1.06,2.54-2.13,5.07-3.21,7.59-1.17,2.74-2.36,5.48-3.56,8.21-1.24,2.84-2.5,5.67-3.75,8.5-1.27,2.85-2.54,5.7-3.83,8.55-1.28,2.84-2.52,5.57-3.79,8.35-1.19,2.6-2.38,5.19-3.57,7.79-1.08,2.34-2.16,4.68-3.25,7.01-.92,1.97-1.84,3.93-2.77,5.89-.72,1.51-1.44,3.03-2.18,4.53-.47.96-.93,1.91-1.43,2.85-.13.24-.27.48-.4.72-.05.09.09-.11.04-.07-.01.01-.02.04-.03.05,0,0-.04.05-.05.06,0-.02.16-.12.17-.12-.07.03-.04-.03.08-.02,0,0-.06.01-.06,0,0,0-.07,0-.07,0-.11,0,.15.02.03,0-.14-.03-.29-.04-.43-.07-.08-.02-.16-.04-.25-.06-.05-.01-.09-.03-.14-.04-.06-.02.04.01.04.01-.04-.01-.07-.02-.11-.03-.49-.16-.97-.35-1.44-.55-1.39-.59-2.74-1.27-4.07-1.97-3.68-1.95-7.25-4.12-10.71-6.44-1.82-1.22-3.61-2.49-5.36-3.82l.16.69c3.23-6.46,6.42-12.95,9.5-19.49,3.08-6.54,5.92-12.76,8.7-19.22,2.78-6.46,5.34-12.74,7.78-19.2,2.44-6.46,4.75-13.05,6.86-19.66,2.11-6.61,4.1-13.53,5.85-20.38.22-.84.43-1.69.64-2.54.18-.73-.97-.91-1.15-.19h0Z"/>
      <path class="st2" d="M164.84,116.9c-1.59-1.51-.04.08-1.59-1.51-11.74,10.72-23.06,19.56-33.76,27.99-6.49-14.12-8-24.09-18-37.25-.66-.87-1.19-1.58-2.18-1.97-1.12-.45-2.28-.13-3.41.16-2.4.61-4.92,1.36-7.27,2.07-4.19,1.26-8.72,2.86-9.75,7.31-.5,2.2.73,3.97,1.55,5.81,3,6.81,7.47,13.53,10.3,20.41,2.2,4.58,4.41,8.21,6.52,12.12,5.48,10.17,12.05,18.7,20.37,26.73.63.61,1.38,1.32,2.36,1.46,1.18.18,2.27-.09,3.26-.83,19.73-14.65,47.19-45.89,47.09-47.03-.07-.86-10.02-10.26-15.52-15.49h0Z"/>
      <path class="st2" d="M165.21,116.45c-.39-.37-1.23-1.39-1.71-.51l.19-.23c.09-.04.19-.07.29-.11.1.02.2.03.3.05.23.11.06.02-.03-.07-.21-.21-.41-.43-.62-.64-.16-.16-.54-.18-.71-.02-4.43,4.04-8.96,7.96-13.56,11.79-4.3,3.58-8.66,7.08-13.05,10.56-2.38,1.88-4.77,3.76-7.15,5.64l.89.26c-1.95-4.26-3.65-8.62-5.32-12.99-1.54-4-3.1-8-4.99-11.86-2.15-4.38-4.73-8.53-7.67-12.42-.66-.88-1.34-1.77-2.38-2.22-1.19-.52-2.45-.28-3.66.02-2.59.65-5.16,1.41-7.72,2.19-3.56,1.08-7.71,2.49-9.42,6.1-.48,1.01-.76,2.15-.65,3.26.12,1.21.64,2.32,1.17,3.4.56,1.15,1.07,2.33,1.63,3.48.56,1.15,1.18,2.36,1.8,3.53,2.52,4.75,5.22,9.4,7.33,14.36.53,1.24,1.19,2.44,1.82,3.63.63,1.19,1.21,2.25,1.84,3.37,1.2,2.16,2.4,4.32,3.59,6.49,2.37,4.28,5.03,8.41,7.97,12.33,2.94,3.92,6.15,7.61,9.58,11.1.86.87,1.72,1.75,2.62,2.59.9.84,1.87,1.35,3.11,1.36,1.25.01,2.29-.51,3.27-1.24.68-.51,1.36-1.03,2.03-1.56,2.95-2.31,5.79-4.73,8.59-7.22,3-2.68,5.94-5.43,8.83-8.23,2.84-2.75,5.63-5.55,8.39-8.39,2.53-2.6,5.02-5.23,7.48-7.89,2.04-2.2,4.05-4.43,6.02-6.69,1.37-1.56,2.73-3.14,4.03-4.76.38-.47.76-.95,1.1-1.44.19-.28.46-.6.52-.95.1-.61-.65-1.27-1.01-1.67-.91-1.01-1.87-1.98-2.83-2.94-2.67-2.67-5.4-5.28-8.14-7.89-1.25-1.19-2.5-2.38-3.75-3.57-.54-.52-1.28.38-.74.9,2.65,2.53,5.31,5.04,7.95,7.59,2.21,2.13,4.51,4.31,6.52,6.53.26.29.52.58.75.89.03.05.07.1.1.15.1.15-.02-.06,0,0,.06.15,0-.23,0-.17.03-.15.05-.13,0-.02-.03.06-.06.11-.09.16-.04.07.1-.15.01-.02-.03.04-.05.08-.08.12-.06.09-.12.17-.18.26-.9,1.24-1.9,2.41-2.89,3.58-1.65,1.94-3.33,3.85-5.03,5.74-2.19,2.44-4.42,4.84-6.68,7.23-2.57,2.72-5.17,5.4-7.81,8.05-2.76,2.77-5.56,5.49-8.41,8.17-2.8,2.62-5.64,5.19-8.56,7.67-1.37,1.16-2.76,2.31-4.17,3.43-.68.53-1.36,1.06-2.04,1.58-.8.61-1.58,1.27-2.61,1.42-.56.08-1.17.06-1.68-.16-.47-.21-.87-.54-1.24-.89-.87-.81-1.7-1.65-2.54-2.5-1.7-1.73-3.34-3.5-4.92-5.33-3.11-3.6-5.97-7.4-8.55-11.38-2.59-3.98-4.89-8.32-7.24-12.54-1.23-2.21-2.44-4.43-3.55-6.71-.56-1.16-1.03-2.36-1.59-3.53-.56-1.17-1.17-2.38-1.78-3.55-1.23-2.35-2.53-4.67-3.78-7.01-1.25-2.34-2.38-4.62-3.46-6.99-.48-1.05-1.07-2.06-1.37-3.18-.3-1.12-.14-2.13.28-3.14.7-1.67,2.06-2.87,3.61-3.74,1.65-.93,3.49-1.51,5.3-2.06,2.5-.76,5-1.5,7.53-2.14,1.12-.29,2.31-.55,3.35.12.9.57,1.51,1.62,2.13,2.46,1.46,1.98,2.84,4.04,4.1,6.15,2.21,3.7,4.04,7.61,5.67,11.59,1.63,3.99,3.1,8.05,4.71,12.05.87,2.15,1.78,4.28,2.74,6.39.15.33.57.5.89.26,4.28-3.37,8.57-6.74,12.81-10.16,4.48-3.6,8.91-7.26,13.26-11.01,2.59-2.24,5.16-4.51,7.69-6.82l-.71-.02c.24.25.47.54.74.76.13.11.28.17.46.15.1,0,.2-.05.29-.11.03-.02.39-.38.11-.11l-.24.17c-.1,0-.21.02-.31.03-.06,0-.29-.17-.22-.09.04.04.09.08.13.11.21.19.42.38.62.58.54.52,1.28-.38.74-.9h-.01Z"/>
      <path class="st4" d="M101.8,72.73c.13-.24-1.34-19.33-2.17-19.55-3.77-.96-9.14-3.92-15.85-2.79-2.38.4-16.52,6.03-31.3,8.4-2.17,1.3-4.27,10.52-2.78,11.15,7.32,3.1,13.58,16.07,19.44,27.86,2.68,5.43,4.55,11.34,6.14,17.84.17.7.48,2.78.53,3.48.19,2.58.38,3.51,1.66,4.47,1.05.8,5.16-.41,6.67-.84,5.91-1.68,9.54-3.51,13.82-5.4,6.67-2.93,18.68-2.6,18.69-7.53,0-3.02-8.71-28.41-14.87-37.1h0Z"/>
      <path class="st4" d="M103.44,73.01c.15-.55,0-1.35-.04-1.91-.08-1.25-.17-2.5-.27-3.75-.25-3.18-.54-6.36-.92-9.52-.14-1.2-.29-2.41-.52-3.59-.16-.8-.29-1.78-.98-2.32-.61-.48-1.62-.59-2.35-.84-1.04-.35-2.08-.73-3.12-1.06-2.38-.76-4.8-1.37-7.31-1.49-3.53-.17-6.44.78-9.72,1.85-4.72,1.55-9.46,3.03-14.27,4.29-2.95.77-5.92,1.45-8.91,2.01-1.15.22-2.74.2-3.7.92-.61.46-1.05,1.12-1.42,1.78-1.53,2.67-2.64,6.56-2.32,9.66.19,1.82,1.25,2.2,2.66,3.03,1.72,1.02,3.17,2.5,4.44,4.01,3.35,3.98,5.92,8.62,8.32,13.22,2.64,5.04,5.35,10.13,7.32,15.48,1.77,4.8,3.44,9.89,3.89,15.01.17,1.95.53,3.87,2.22,5.09,1.53,1.11,3.75.57,5.43.18,4.73-1.08,9.25-2.82,13.66-4.79,2.01-.9,3.98-1.83,6.1-2.42,2.06-.58,4.16-.96,6.25-1.39,3.09-.64,7.37-1.21,9.47-3.87,1.51-1.91.85-4.11.28-6.21-.81-3.01-1.81-5.96-2.84-8.9-2.63-7.48-5.53-14.97-9.35-21.93-.71-1.29-1.45-2.56-2.3-3.77-1.22-1.74-3.91.2-2.69,1.94,3.86,5.5,6.36,12.08,8.78,18.3,1.29,3.32,2.51,6.67,3.62,10.05.45,1.34.87,2.69,1.27,4.05.16.54.31,1.09.46,1.63.16.61.16.56.26,1.1.06.28.11.56.15.85,0,.1,0,.42.03.08-.02.23-.05.41-.13.56-.48.95-2.04,1.42-2.99,1.74-3.61,1.21-7.45,1.61-11.12,2.6-4.08,1.1-7.81,3.25-11.76,4.75-2.17.82-4.37,1.52-6.61,2.13-1,.27-3.3,1.13-4.17.54-.51-.34-.57-1.21-.64-1.75-.12-.98-.17-1.96-.32-2.93-.34-2.29-.97-4.52-1.59-6.74-1.46-5.2-3.36-10.17-5.77-15.01-2.4-4.84-4.65-9.35-7.29-13.85-2.25-3.83-4.78-7.68-8.13-10.67-.63-.56-1.29-1.07-1.99-1.53-.34-.22-.68-.43-1.03-.63-.28-.16-1.71-.91-.67-.21.23.15.02.45.07.02.03-.22-.04-.51-.04-.74.02-.75.16-1.51.3-2.25.3-1.54.74-3.08,1.45-4.5.18-.35.5-.98.75-1.13-.44.27.97-.03,1.18-.07.81-.14,1.61-.3,2.41-.46,8.83-1.78,17.28-4.66,25.87-7.3.24-.07.47-.14.71-.21.09-.03.56-.14.33-.09-.14.03.61-.1.85-.12.72-.09,1.45-.14,2.18-.15,2.3,0,4.6.5,6.79,1.18.89.28,1.77.59,2.66.9.41.14,2.41,1.08,2.74.88-.19.12-.76-.72-.85-.79.02.02.03.14.05.14.02,0,.18.63.04.08.1.41.17.83.23,1.24.85,5.26,1.23,10.64,1.56,15.95.02.35.03.7.06,1.06.03.44-.05.29.02.04-.56,2.05,2.71,2.59,3.27.56h0Z"/>
      <path class="st5" d="M96.59,90.35c-1.25-.3-2.5-.61-3.75-.91-1.17-.28-2.37-.56-3.54-.32-1.17.24-2.31,1.16-2.43,2.41-.05.51.06,1.04-.11,1.51-.15.39-.47.68-.78.94-1.54,1.28-3.25,2.45-4.25,4.22-.99,1.77-.94,4.41.72,5.52.34.22.73.38.98.71.66.86-.08,2.3.55,3.19.61.86,2.1.63,2.59,1.56.35.67,0,1.63.48,2.2.38.45,1.05.39,1.59.59.67.24,1.12.88,1.74,1.23,1.16.65,2.59.17,3.79-.39,3.23-1.52,6.21-3.63,8.77-6.2.44-.44.88-.92,1.07-1.53.14-.46.13-.95.09-1.43-.23-2.67-1.24-5.18-2.25-7.65-.99-2.43-2.4-5.21-4.91-5.52"/>
      <path class="st4" d="M96.85,88.85c-2.83-.68-6.53-2.25-9.3-.66-1.02.59-1.87,1.55-2.13,2.72-.12.54.06,1.22-.22,1.68-.38.62-1.37,1.16-1.93,1.64-2.04,1.73-3.73,3.81-3.72,6.6,0,1.08.29,2.2.92,3.08.39.54.87.77,1.33,1.2.56.52.32.85.37,1.64.08,1.21.65,2.19,1.75,2.73.3.15,1.14.24,1.33.51.03.04-.03.53-.02.68.04.39.12.77.29,1.12.61,1.33,1.78,1.17,2.86,1.8.55.32.96.82,1.55,1.09.7.32,1.49.41,2.25.33,2.79-.29,5.7-2.35,7.91-3.96,1.99-1.45,5.13-3.55,5.51-6.18.25-1.76-.33-3.74-.84-5.41-.53-1.72-1.2-3.42-1.95-5.06-1.13-2.48-2.75-4.92-5.63-5.42-1.94-.34-2.46,2.66-.52,3,1.94.34,2.78,2.32,3.45,3.87.99,2.28,2,4.68,2.36,7.16.19,1.32.03,1.89-.9,2.81-.93.92-1.87,1.71-2.88,2.47-1.83,1.38-4.08,3.04-6.34,3.59-1.26.31-1.72-.58-2.71-1.11-.41-.22-.84-.27-1.27-.44-.28-.11-.16.08-.08.21-.11-.18-.04-.74-.07-.98-.12-.89-.52-1.61-1.27-2.12-.32-.22-.66-.34-1.02-.47-.53-.19-.58-.11-.73-.55-.14-.4.05-1.07-.01-1.51-.06-.39-.18-.75-.38-1.09-.49-.87-1.6-1.11-2.03-1.98-.92-1.9.76-3.87,2.08-5.02.92-.8,2.1-1.49,2.85-2.47.74-.98.29-1.92.71-2.91.5-1.17,2.16-.93,3.13-.75,1.6.31,3.18.75,4.76,1.14,1.92.46,2.42-2.55.52-3h0Z"/>
      <path class="st5" d="M43.14,49.28c1.07.88,2.17,1.5,3.54,2.02,3.27,1.24,6.92,1.18,10.39,1.68.75,2.03,1.75,4.03,2.49,6.03.12.32.14.44.23.73-.36.95-.58,1.81-.16,2.83.42,1.02,1.26,1.84,2.41,2.12,1.15.28,2.34.11,3.46-.34,2.91-1.16,5.12-2.98,6.79-5.61.48-.76.79-1.53.9-2.39.19-1.57-.35-3.02-.59-4.54,0,0,0-.01,0-.02-.71-1.66-1.3-3.35-1.77-5.09,2.36-.22,4.66-.85,5.78-3.07.48-.95.34-1.87.24-2.85-.1-.98-.34-1.91-1-2.67-.66-.76-1.6-1.12-2.63-1.06-1.03.06-1.84.64-2.45,1.43.96-1.36.91-3.14.69-4.7-.39-2.77-.83-5.27-2.33-7.63-.85-1.35-1.8-2.43-3.18-3.38-5.83-4-12.03-4.81-18.85-2.96-2.05.55-3.55,1.64-5.04,3.05-1.68,4.11-2.96,8.18-3.48,12.6-.38,3.25-.2,6.54,1.15,9.5.84,1.83,1.91,3.09,3.42,4.33h0Z"/>
      <path class="st4" d="M42.36,50.23c4.22,3.34,9.41,3.27,14.5,3.95l-.94-.77c.86,2.26,2.02,4.43,2.72,6.76l.03-.95c-.92,2.55-.25,5.37,2.48,6.46,2.91,1.16,6.32-.58,8.6-2.35,2.28-1.76,4.41-4.23,4.66-7.05.31-3.5-1.55-6.77-2.45-10.04l-1.03,1.66c1.94-.2,3.93-.64,5.41-1.98,1.64-1.48,1.98-3.38,1.69-5.49-.26-1.89-1.17-3.66-3.06-4.36-1.89-.69-3.88.08-5.17,1.62l2.07,1.28c1.36-2.19.93-4.84.5-7.24-.44-2.45-1.18-4.79-2.61-6.86-2.68-3.86-7.71-6.15-12.24-6.93-4.49-.77-10.18-.36-14.06,2.19-.87.57-1.96,1.32-2.52,2.21-.72,1.14-1.08,2.76-1.5,4.03-.86,2.56-1.55,5.18-1.93,7.86-.86,5.95.07,11.95,4.87,16,1.21,1.02,2.77-.88,1.56-1.9-3.64-3.06-4.64-7.57-4.19-12.16.22-2.26.68-4.5,1.29-6.69.31-1.11.66-2.2,1.05-3.28.35-.99.63-2.26,1.39-2.99,2.9-2.8,7.85-3.38,11.71-3.09,3.86.29,8.24,1.81,11.18,4.53,1.74,1.61,2.79,3.83,3.32,6.1.53,2.28,1.25,5.12-.04,7.19-.75,1.21,1.2,2.32,2.07,1.28.78-.93,2.02-1.4,3.05-.5.86.75,1.02,2.35.94,3.41-.19,2.49-2.97,3.1-5,3.31-.86.09-1.23.9-1.03,1.66.78,2.84,2.66,5.98,2.3,9-.3,2.52-2.82,4.81-4.87,6.06-1.19.73-2.61,1.43-4.03,1.39-1.42-.04-2.67-1.13-2.38-2.64.12-.65.37-.99.24-1.64-.13-.65-.46-1.34-.72-1.98-.66-1.6-1.38-3.16-2-4.77-.15-.39-.52-.71-.94-.77-4.59-.62-9.54-.41-13.36-3.43-1.24-.98-2.8.91-1.56,1.9h.02Z"/>
      <path class="st3" d="M47.56,16.69c.73-.34,1.54-.12,2.33-.29-1.16-.75-2.06-1.88-2.55-3.17,2.04.55,4.4.91,6.46.42,2.21-.53,4.42-.65,6.67-.27,2.58.44,5.89.98,8.24,2.09,3.11,1.46,3.18,3.1,5.06,6.01.84,1.31,3.73,2.82,4.16,4.3.58,1.97.91,3.83.44,6.31-.23,1.22-1.15,4.16-1.78,5.24-.15.27-3.26-1.93-5.99.21-1.54-2.97-2.88-4.61-4.23-7.68-.81,1-2.53,3.1-2.69,3.11-.17.01-4.93-4.57-6.57-7.31-1.78,1.53-2.88,2.65-4.03,4.69-1.98-3.13-3.25-4.15-3.59-8.65-3.96,1.34-6.38,2.45-10.28,5.06,1.22-2.18,2.38-5.39,4.13-7.18,1.19-1.22,2.68-2.15,4.21-2.87h0Z"/>
      <path class="st3" d="M48.01,17.83c.64-.21,1.34-.13,2.01-.22.99-.13,1.57-1.52.66-2.17-1.01-.71-1.7-1.52-2.18-2.66l-1.36,1.65c2.24.58,4.5.87,6.79.43,2.46-.47,4.69-.57,7.18-.14,3.43.59,7.87,1.07,9.85,4.3.81,1.33,1.39,2.83,2.5,3.95,1.03,1.04,2.72,1.86,3.33,3.24,1.42,3.19.28,7.66-1.31,10.59l.68-.63c.77-.41.63.15.39-.11-.09-.1-.59-.22-.71-.26-.57-.19-1.14-.34-1.74-.41-1.55-.16-2.94.24-4.21,1.13l1.87.55c-1.37-2.59-3.03-5.01-4.23-7.68-.37-.82-1.49-1.08-2.1-.33-.67.83-1.59,2.41-2.46,2.89l1.23-.12c.34.14.08.09-.07-.09-.15-.2-.4-.36-.58-.54-.63-.6-1.24-1.22-1.84-1.85-1.31-1.38-2.6-2.83-3.6-4.45-.33-.53-1.24-.68-1.72-.27-1.77,1.53-3.25,3.14-4.42,5.17l2.11-.21c-.75-1.17-1.63-2.29-2.26-3.53-.73-1.42-.97-2.95-1.11-4.52-.07-.82-.92-1.28-1.66-1.02-3.78,1.29-7.23,3-10.56,5.21l1.84,1.5c.94-1.72,1.66-3.57,2.7-5.25,1.19-1.92,2.96-3.2,4.97-4.17,1.41-.68.54-2.98-.88-2.29-2.2,1.06-4.3,2.42-5.7,4.46-1.4,2.04-2.19,4.16-3.32,6.22-.62,1.14.88,2.13,1.84,1.5,3.16-2.09,6.42-3.68,10-4.91l-1.66-1.02c.15,1.77.46,3.56,1.26,5.16.72,1.44,1.7,2.74,2.57,4.09.54.84,1.69.53,2.11-.21.96-1.65,2.2-2.97,3.63-4.21l-1.72-.27c1.6,2.59,3.88,4.91,6.12,6.98.67.62,1.34,1.16,2.27.54,1.1-.74,2-2.24,2.82-3.26l-2.1-.33c1.2,2.68,2.86,5.09,4.23,7.68.37.69,1.16,1.05,1.87.55,1.66-1.17,2.95-.49,4.67-.05,1.49.38,1.94-.98,2.38-2.15,1.32-3.51,2.06-7.35.7-10.99-.58-1.56-2.1-2.52-3.31-3.55-1.32-1.14-1.93-2.73-2.83-4.19-2-3.25-5.9-4.22-9.43-4.92-2.49-.49-4.99-.91-7.54-.64-1.35.14-2.66.58-4.02.62-1.5.05-2.97-.26-4.41-.63-.91-.24-1.69.84-1.35,1.65.63,1.5,1.58,2.74,2.92,3.67l.66-2.17c-.91.12-1.76.08-2.65.37-1.5.49-.62,2.78.88,2.29h0Z"/>
      <path class="st4" d="M71.38,39.34c.78-.93,2.02-1.4,3.05-.5.86.75,1.02,2.35.94,3.41-.19,2.43-2.68,3-4.68,3.21-.85.08-1.24.9-1.03,1.66.55,1.92,1.23,3.8,1.94,5.66.56,1.47,2.86.6,2.29-.88-.71-1.86-1.39-3.74-1.94-5.66l-1.03,1.66c1.86-.19,3.73-.58,5.13-1.89,1.59-1.49,1.93-3.38,1.64-5.48-.26-1.89-1.17-3.66-3.06-4.36-1.89-.69-3.88.08-5.17,1.62-1.02,1.21.89,2.76,1.9,1.55h0Z"/>
      <path class="st4" d="M48.94,34.04c-.63-.79-.92-.98-.87-.57,0,.09,0,.08,0-.01,0,.11-.02.22-.05.33,0,.03-.07.29-.02.14-.03.1-.08.21-.13.31l.4-.48-.05.04.6-.23h-.06c.21.04.42.07.63.11-.14-.05.09.07.11.1l.06.09c.02.13.03.15.02.06,0-.06,0-.07,0-.03,0,.07.02.04.03-.11-.05.16.1-.24.09-.22.24-.59.03-1.37-.6-1.62-.6-.24-1.37-.03-1.63.6-.35.86-.5,1.74,0,2.57.45.76,1.48,1.21,2.25.62.64-.49.81-1.55.8-2.31,0-1.07-.76-1.81-1.82-1.81-.64,0-1.19.73-1.1,1.34.1.71.65,1.1,1.34,1.1h0Z"/>
      <path class="st4" d="M58.79,36.28c-.63-.79-.92-.98-.87-.57,0,.09,0,.08,0-.01,0,.11-.02.22-.05.33,0,.03-.07.28-.02.14-.03.1-.08.21-.13.31l.4-.48-.05.04.6-.23h-.06c.21.04.42.07.63.11-.14-.05.09.07.11.1l.06.09c.02.13.03.15.02.06,0-.06,0-.07,0-.03,0,.07.02.04.03-.11-.05.16.1-.24.09-.22.24-.59.03-1.37-.6-1.62-.6-.24-1.37-.03-1.63.6-.35.86-.5,1.74,0,2.57.45.76,1.48,1.21,2.25.62.64-.49.81-1.55.8-2.31,0-1.07-.76-1.81-1.82-1.81-.64,0-1.19.73-1.1,1.34.1.71.65,1.1,1.34,1.1h0Z"/>
      <path class="st4" d="M50.73,44.27c1.27,2.08,4.3,1.91,5.94.43.93-.84-.22-2.45-1.16-1.6-.87.79-2.43,1.23-3.17,0-.66-1.08-2.26.08-1.6,1.16Z"/>
      <path class="st6" d="M112.82,121.75c-2.6,7.11-5.65,14.03-9.15,20.74-.51.98,1.05,1.69,1.56.71,3.5-6.71,6.55-13.64,9.15-20.74.38-1.03-1.19-1.75-1.57-.71Z"/>
    </g>
  </g>
</svg>