<?xml version="1.0" encoding="UTF-8"?>
<svg id="_レイヤー_1" data-name="レイヤー_1" xmlns="http://www.w3.org/2000/svg" xmlns:xlink="http://www.w3.org/1999/xlink" version="1.1" viewBox="0 0 255.31 214.38">
  <!-- Generator: Adobe Illustrator 29.5.1, SVG Export Plug-In . SVG Version: 2.1.0 Build 141)  -->
  <defs>
    <style>
      .st0 {
        fill: none;
      }

      .st1 {
        fill: #fff;
      }

      .st2 {
        fill: #6c8600;
      }

      .st3 {
        fill: #d4f15f;
      }

      .st4 {
        clip-path: url(#clippath);
      }
    </style>
    <clipPath id="clippath">
      <rect class="st0" x="11.53" y="15.04" width="232.24" height="184.29" transform="translate(-13.49 18.51) rotate(-7.88)"/>
    </clipPath>
  </defs>
  <g class="st4">
    <g>
      <path class="st3" d="M229.96,114.39l-198.1,27.41c-8.53,1.18-14.49,9.05-13.31,17.58,1.18,8.53,9.05,14.49,17.58,13.31l198.1-27.41c8.53-1.18,14.49-9.05,13.31-17.58-1.18-8.53-9.05-14.49-17.58-13.31Z"/>
      <path class="st2" d="M72.13,149c-.18-.61-.41-1.63-.44-2.42,2.22.12,6.29-.42,8.27-1.05.17.66.29,1.75.28,2.35-1.94.62-5.95,1.13-8.11,1.12ZM71.98,152.78c.7.04,1.79.22,2.41.47-.16.39-.31.91-.25,1.4.09.67.65,1.28,2.81.98,1.89-.26,3.63-.88,4.81-1.62.41.57.81,1.68.94,2.39-.92.57-2.86,1.28-5.32,1.62-3.19.44-5.44-.43-5.72-2.48-.14-1.03.12-2.19.33-2.77ZM86.32,145.75l.02-.62c.01-.58-.02-1.37-.07-1.95.73-.02,2.03.05,2.63.2-.04.25-.11.96-.18,1.86,1.39-.36,2.88-.84,4.01-1.44.11.38.3,1.74.29,2.3-1.25.54-2.9,1.02-4.47,1.39-.06,1.09-.12,2.13-.12,2.68.96-.95,2.13-1.65,3.84-1.88,2.33-.32,3.99,1.03,4.25,2.91.43,3.1-2.03,5.1-6.33,5.39-.36-.39-1.03-1.61-1.22-2.25,3.29-.01,5.43-.95,5.17-2.83-.12-.87-.97-1.26-1.95-1.13-1.91.26-2.97,1.67-3.5,2.52-.15.25-.29.62-.42.92-.54-.08-1.76-.35-2.24-.63.05-.48.08-1.07.11-1.72.02-.84.08-2.18.12-3.5-.71.11-1.34.22-1.8.25-.25-.5-.57-1.5-.74-2.25.55.01,1.24-.02,1.91-.11.21-.03.45-.06.7-.11ZM100.28,143.44c0-.61.24-1.67.39-2.13,1.59.28,4.14.58,5.38.64,0,.62-.14,1.55-.4,2.18-1.04-.05-4.59-.47-5.37-.69ZM101.66,144.58c-.01.78.08,2.98.17,3.67,1.13-1.14,2.45-1.86,4.01-2.07,2.56-.35,4.24,1.07,4.51,3.05.49,3.55-3.04,5.3-6.46,5.48-.41-.43-.92-1.57-1.07-2.25,3.46-.05,5.38-1.2,5.14-2.96-.12-.84-.88-1.34-2.09-1.17-1.73.24-2.98,1.45-3.68,2.53-.15.25-.34.62-.46.88-.52-.13-1.56-.42-1.99-.68,0-.94-.4-5.99-.48-6.56.68-.03,1.87-.01,2.4.08ZM120.2,150.31c1.34-.18,2.78-.76,3.58-1.24.2.79.19,1.81.08,2.54-.51.25-2.09.68-3.41.87-2.31.32-4.48-.17-4.78-2.35-.26-1.86,1.17-3.08,2.82-4.22-.22-.24-.57-.39-.99-.33-1.01.14-1.8,1.04-2.83,2.85-.64-.34-1.44-.93-1.88-1.49,1.29-1.47,2.1-2.81,2.6-3.93-.65.12-1.27.24-1.8.31-.27-.52-.59-1.48-.67-2.12.49,0,1-.02,1.48-.08.45-.06,1.03-.16,1.69-.29.13-.62.21-1.31.22-1.95.66-.05,1.79.09,2.33.24-.04.28-.12.7-.22,1.14.89-.25,1.73-.54,2.33-.84.25.48.46,1.44.49,1.99-.84.33-2.13.72-3.5,1.08-.22.58-.51,1.13-.74,1.59.43-.2.88-.32,1.23-.37.74-.1,1.59.16,2.08.97.93-.65,1.72-1.19,2.32-1.67.33-.24.71-.55,1.08-.97.44.43.96,1.45,1.12,2.02-.36.38-2.5,1.73-4.02,2.68.12.74.25,1.73.35,2.34-.69.19-1.4.28-2.12.28,0-.27-.05-.8-.13-1.38-.83.66-1.08,1.12-1.01,1.63.09.63.68.94,2.29.72ZM137.28,141.29c-.47-.49-1.05-.87-1.68-1.12-.62-.25-1.21-.34-1.78-.26-.45.06-.86.21-1.23.44-.36.23-.66.53-.91.89-.25.37-.44.79-.53,1.23-.09.48-.1.97-.03,1.45.07.51.21.98.43,1.41.23.41.51.76.85,1.03.34.28.71.48,1.12.61.42.12.85.15,1.3.09.52-.07,1.05-.29,1.59-.65.54-.37,1.01-.83,1.39-1.37l2.64,2.14c-.42.6-.92,1.14-1.48,1.61-.56.48-1.18.88-1.85,1.19-.64.29-1.32.49-2.01.59-1.04.14-2.01.1-2.91-.12-.88-.23-1.71-.62-2.45-1.17-.73-.54-1.35-1.23-1.8-2.02-.48-.85-.78-1.78-.91-2.75-.14-1-.08-1.94.16-2.82.23-.88.64-1.7,1.21-2.41.58-.72,1.29-1.32,2.1-1.77.87-.48,1.82-.79,2.8-.92.69-.1,1.39-.09,2.09.02.7.1,1.38.29,2.03.56.64.26,1.23.61,1.77,1.04l-1.92,3.06ZM141.08,135.78l3.99-.55,1.4,10.1,5.64-.78.46,3.34-9.62,1.33-1.86-13.44ZM153.05,134.13l3.99-.55,1.86,13.44-3.99.55-1.86-13.44ZM170.65,136.67c-.47-.49-1.05-.87-1.68-1.12-.62-.25-1.21-.34-1.77-.26-.45.06-.86.21-1.23.44-.36.23-.66.53-.91.89-.25.37-.44.79-.53,1.23-.09.48-.1.97-.03,1.45.07.51.21.98.43,1.41.23.41.51.76.85,1.04.34.28.71.48,1.12.61.42.12.85.15,1.3.09.52-.07,1.05-.29,1.59-.65.54-.37,1.01-.83,1.39-1.37l2.64,2.14c-.42.6-.92,1.14-1.48,1.61-.56.48-1.18.88-1.85,1.19-.64.29-1.31.49-2.01.59-1.04.14-2.01.1-2.91-.12-.88-.23-1.71-.62-2.45-1.17-.73-.54-1.34-1.23-1.8-2.02-.48-.85-.78-1.78-.91-2.75-.14-1-.09-1.94.16-2.82.23-.88.65-1.7,1.21-2.41.58-.72,1.29-1.32,2.1-1.78.87-.48,1.82-.79,2.8-.91.69-.1,1.39-.09,2.09.02.7.1,1.38.28,2.03.56.64.26,1.23.61,1.77,1.04l-1.92,3.06ZM174.45,131.16l3.99-.55.75,5.39,3.76-6.01,4.6-.64-7.7,11.4.46,3.3-3.99.55-1.86-13.44ZM183.09,135.11l6.62,7.64-4.77.66-4.08-4.81,2.23-3.49ZM189.73,129.09l3.68-.51.48,3.49.04,5.21-2.32.32-1.4-5.02-.48-3.49ZM192.89,138.79c.52-.07.98.03,1.35.32.39.28.62.69.7,1.23.07.54-.04.99-.34,1.38-.29.38-.69.6-1.22.68-.54.07-.99-.03-1.37-.32-.38-.29-.61-.7-.68-1.23-.07-.54.03-.99.32-1.37.29-.38.7-.6,1.24-.68Z"/>
    </g>
  </g>
  <path class="st1" d="M18,64.74l10.84,1.06c-1.27,2.49-2.62,4.93-4.04,7.32-1.38,2.38-2.65,4.41-3.81,6.11l-8.01-1.45c.7-1.28,1.36-2.66,1.99-4.15.66-1.54,1.26-3.06,1.79-4.58.53-1.56.94-3,1.24-4.31ZM35.33,68.58l6.9-5.15c1.85,1.06,3.84,2.29,5.96,3.7,2.16,1.36,4.21,2.76,6.16,4.2,1.99,1.39,3.61,2.72,4.88,3.98l-7.46,5.82c-1.13-1.24-2.63-2.59-4.5-4.04-1.83-1.5-3.8-2.99-5.94-4.49-2.09-1.5-4.09-2.85-6-4.02ZM3.14,76.91c2.99-.5,6.33-1.05,10.01-1.65,3.68-.6,7.57-1.22,11.68-1.88,4.1-.7,8.27-1.41,12.5-2.12,4.27-.77,8.48-1.5,12.62-2.21l.74,7.71c-5.37,1.01-10.81,2.02-16.31,3.05-5.46.98-10.69,1.92-15.69,2.83-5,.87-9.48,1.64-13.46,2.32l-2.1-8.04ZM2.58,88.01l59.17-8.19,1.08,7.79L3.66,95.8l-1.08-7.79ZM33.86,93.06l7.63,2.49c-1.56,1.35-3.35,2.63-5.38,3.83-2.03,1.16-4.13,2.23-6.31,3.24-2.19.96-4.3,1.8-6.34,2.52-.67-.74-1.55-1.56-2.64-2.46-1.09-.9-2.13-1.65-3.13-2.26,1.85-.56,3.79-1.25,5.82-2.05,2.07-.81,4.03-1.67,5.88-2.59,1.84-.95,3.33-1.86,4.48-2.72ZM40.28,99.13l7.83,2.53c-1.87,1.97-4.11,3.79-6.73,5.46-2.61,1.67-5.42,3.2-8.42,4.58-2.97,1.33-5.97,2.53-9.02,3.61-.65-.92-1.51-1.93-2.59-3.05-1.07-1.12-2.15-2.07-3.21-2.84,2.74-.77,5.52-1.68,8.35-2.73,2.87-1.1,5.5-2.27,7.91-3.52,2.44-1.3,4.4-2.64,5.87-4.03ZM48.53,104.68l8.75,2.53c-2.47,3.32-5.59,6.2-9.37,8.65-3.74,2.4-7.96,4.47-12.66,6.21-4.7,1.79-9.75,3.38-15.15,4.79-.6-1.14-1.38-2.39-2.36-3.74-.97-1.31-1.95-2.42-2.95-3.33,4.85-1.02,9.47-2.23,13.87-3.63,4.39-1.44,8.32-3.1,11.78-4.98,3.46-1.88,6.16-4.05,8.09-6.5ZM21.61,79.01l9.57.91c-1.43,7.02-3.94,13.28-7.51,18.76-3.53,5.48-7.9,10.06-13.12,13.76-.52-.58-1.27-1.27-2.25-2.05-.95-.83-1.93-1.61-2.95-2.35-.98-.78-1.86-1.41-2.62-1.87,5.14-3.03,9.31-6.84,12.52-11.44,3.25-4.65,5.37-9.89,6.36-15.71ZM44.63,84.16c1.53,1.89,3.39,3.66,5.59,5.33,2.2,1.66,4.61,3.12,7.23,4.38,2.66,1.21,5.35,2.15,8.07,2.82-.57.65-1.17,1.47-1.82,2.48-.65.97-1.26,1.97-1.81,3.01-.56,1-1.03,1.89-1.4,2.69-2.98-.99-5.87-2.29-8.68-3.92-2.81-1.67-5.46-3.6-7.95-5.79-2.45-2.2-4.66-4.56-6.62-7.09l7.4-3.91ZM106.17,99.72l15.97-2.21,1.25,9.01-15.97,2.21-1.25-9.01ZM64.68,69.7l22.92-3.17,1.27,9.14-22.92,3.17-1.27-9.14ZM96.55,61.02l24.27-3.36,7.22,52.15-9.4,1.3-5.97-43.14-5.92.82,6.04,43.65-8.95,1.24-7.29-52.67ZM85.35,66.84l9.08-1.26s.04.26.11.77c.07.52.15,1.12.25,1.8.09.64.14,1.16.15,1.55.8,6.76,1.45,12.53,1.94,17.32.53,4.78.9,8.76,1.12,11.92.21,3.12.27,5.61.18,7.46-.1,1.81-.35,3.13-.76,3.98-.65,1.31-1.37,2.29-2.15,2.92-.74.67-1.65,1.21-2.73,1.62-.95.39-2.11.71-3.48.94-1.37.23-2.81.43-4.31.6-.23-1.37-.73-2.92-1.5-4.65-.72-1.69-1.55-3.15-2.51-4.38,1.17-.07,2.25-.16,3.25-.25.99-.09,1.79-.18,2.39-.26.47-.07.87-.21,1.19-.43.31-.26.59-.65.82-1.16.28-.52.42-1.52.44-3.01.05-1.54-.03-3.71-.25-6.53-.22-2.86-.59-6.48-1.11-10.87-.48-4.4-1.09-9.76-1.83-16.09l-.28-2ZM70.09,58.52l9.21-1.27c.91,6.57,1.68,12.8,2.33,18.71.64,5.86.96,11.37.98,16.53.01,5.16-.46,9.95-1.42,14.37-.96,4.42-2.59,8.47-4.88,12.16-.58-.71-1.32-1.46-2.21-2.25-.9-.79-1.85-1.54-2.87-2.23-.97-.7-1.88-1.23-2.71-1.59,1.62-2.54,2.81-5.27,3.59-8.17.77-2.95,1.23-6.1,1.38-9.44.14-3.39.06-6.99-.25-10.79-.27-3.86-.71-7.95-1.31-12.29-.56-4.34-1.17-8.92-1.83-13.72ZM158.81,59.45c0,.31.03.82.06,1.54.03.68.07,1.36.13,2.04.06.68.09,1.17.1,1.48.06.68.15,1.61.28,2.79.16,1.15.34,2.42.53,3.84.2,1.41.39,2.85.6,4.29.23,1.41.43,2.74.6,3.98.21,1.24.37,2.27.48,3.07l-7.99-1.16c-.1-.74-.23-1.67-.38-2.78-.15-1.11-.32-2.31-.5-3.59-.18-1.28-.37-2.52-.57-3.73-.17-1.25-.34-2.36-.51-3.33-.17-1.01-.31-1.76-.42-2.26-.27-1.2-.51-2.23-.74-3.09-.23-.9-.4-1.52-.52-1.88l8.84-1.22ZM130.07,69.4c1.58-.22,3.35-.46,5.31-.73,1.95-.3,3.96-.62,6.05-.94,2.08-.32,4.12-.64,6.1-.95,1.98-.31,3.8-.58,5.45-.81,1.68-.27,3.07-.48,4.19-.63,1.15-.16,2.47-.34,3.99-.55,1.54-.25,3.09-.48,4.64-.69,1.58-.22,3.03-.42,4.35-.6,1.35-.19,2.39-.33,3.13-.43l.9,7.24c-1.66.16-3.86.4-6.6.71-2.74.31-5.98.72-9.71,1.24-2.36.33-4.71.69-7.06,1.08-2.35.36-4.67.73-6.95,1.12-2.25.38-4.43.77-6.53,1.16-2.11.36-4.12.72-6.03,1.09l-1.22-7.3ZM160,80.65c.42,3.03.43,5.6.04,7.72-.4,2.08-1.22,3.72-2.46,4.92-1.24,1.2-2.96,1.95-5.15,2.26-.91.13-1.91.06-3.01-.2-1.1-.26-2.16-.73-3.18-1.41-1.02-.68-1.9-1.59-2.64-2.72-.74-1.13-1.22-2.51-1.45-4.12-.28-2.05-.04-3.87.74-5.46.77-1.62,1.91-2.92,3.42-3.92,1.54-1.04,3.29-1.69,5.24-1.96,2.36-.33,4.42-.06,6.18.79,1.76.82,3.17,2.07,4.23,3.74,1.08,1.63,1.78,3.55,2.08,5.74.22,1.62.18,3.37-.15,5.27-.32,1.9-1.02,3.81-2.09,5.75-1.04,1.89-2.54,3.7-4.5,5.41-1.95,1.75-4.45,3.28-7.5,4.59l-7.42-5.62c2-.69,3.9-1.47,5.7-2.33,1.8-.9,3.37-1.96,4.71-3.17,1.34-1.22,2.33-2.66,2.95-4.32.66-1.67.83-3.65.52-5.94-.18-1.28-.65-2.21-1.42-2.79-.77-.58-1.64-.8-2.62-.67-.5.07-.99.26-1.47.56-.48.27-.85.68-1.12,1.24-.24.51-.3,1.16-.2,1.93.13.91.57,1.6,1.32,2.08.75.48,1.53.66,2.34.55.67-.09,1.25-.4,1.73-.91.51-.55.75-1.42.72-2.62-.03-1.2-.54-2.79-1.54-4.78l5.98.41ZM181.41,58.28c.79,0,1.64-.04,2.56-.1.91-.09,1.79-.2,2.63-.31.54-.07,1.33-.18,2.37-.33,1.04-.18,2.2-.36,3.48-.53,1.31-.22,2.6-.43,3.88-.64,1.31-.22,2.48-.41,3.52-.59,1.07-.22,1.9-.38,2.5-.5,1.2-.27,2.14-.5,2.84-.7.73-.2,1.25-.38,1.57-.53l4.54,4.88c-.58.49-1.18.99-1.8,1.49-.59.46-1.17.97-1.74,1.53-.64.57-1.35,1.25-2.14,2.05-.79.76-1.58,1.57-2.39,2.44-.81.83-1.61,1.65-2.39,2.44-.75.79-1.44,1.5-2.07,2.14.66-.23,1.25-.4,1.78-.5.53-.11,1.1-.2,1.71-.29,2.9-.4,5.59-.19,8.07.63,2.52.82,4.6,2.13,6.26,3.92,1.65,1.76,2.65,3.92,3.01,6.48.36,2.63.04,5.16-.96,7.6-1,2.44-2.79,4.52-5.37,6.25-2.57,1.76-6.04,2.95-10.42,3.55-2.36.33-4.58.27-6.66-.16-2.08-.43-3.81-1.22-5.17-2.37-1.37-1.18-2.18-2.7-2.43-4.55-.21-1.48,0-2.94.63-4.36.66-1.43,1.68-2.65,3.04-3.67s3.01-1.65,4.93-1.92c2.36-.33,4.43-.13,6.21.58,1.78.68,3.21,1.75,4.31,3.21,1.13,1.46,1.83,3.15,2.09,5.07l-7.05,1.85c-.23-1.65-.78-2.91-1.66-3.79-.85-.91-1.86-1.29-3.04-1.12-.84.12-1.47.43-1.88.93-.38.46-.54.95-.47,1.45.11.77.58,1.36,1.43,1.76.84.4,1.91.51,3.19.33,2.83-.39,5.11-1.03,6.84-1.92,1.73-.89,2.93-1.99,3.61-3.28.71-1.33.95-2.81.73-4.43-.2-1.45-.83-2.63-1.88-3.55-1.02-.96-2.34-1.62-3.93-1.98-1.6-.36-3.32-.42-5.17-.16-1.85.26-3.55.77-5.09,1.53-1.51.72-2.91,1.66-4.19,2.79-1.29,1.11-2.5,2.39-3.64,3.85-1.11,1.42-2.16,2.96-3.17,4.61l-6.35-4.99c.72-.75,1.56-1.64,2.51-2.66.96-1.02,1.94-2.09,2.96-3.19,1.01-1.14,1.98-2.21,2.9-3.23.92-1.02,1.71-1.88,2.37-2.59.63-.67,1.33-1.42,2.11-2.25.81-.83,1.62-1.68,2.43-2.55.84-.91,1.63-1.75,2.38-2.54.74-.82,1.38-1.55,1.91-2.17-.51.07-1.11.17-1.81.3-.67.13-1.39.26-2.16.4-.78.11-1.56.23-2.37.38-.77.14-1.5.29-2.2.46-.7.13-1.32.25-1.86.36-.74.14-1.52.31-2.35.53-.83.18-1.54.37-2.14.55l-1.35-7.9ZM228.32,78.04l-3.72-15.75-1.46-8.34,9.9-1.37.86,8.43.69,16.17-6.26.87ZM233.4,91.65c-1.52.21-2.83-.11-3.94-.95-1.08-.85-1.72-2.01-1.93-3.49-.21-1.48.11-2.76.96-3.84.85-1.08,2.01-1.72,3.49-1.92,1.48-.21,2.78.1,3.88.9,1.11.81,1.76,1.95,1.97,3.43.21,1.48-.11,2.78-.96,3.89-.84,1.11-2,1.77-3.49,1.98Z"/>
</svg>