<svg width="59" height="59" viewBox="0 0 59 59" fill="none" xmlns="http://www.w3.org/2000/svg">
<g filter="url(#filter0_d_1244_4704)">
<path opacity="0.4" d="M47.2937 41.4679L34.7304 47.0469L24.4113 42.936L33.1784 41.0904L24.1596 20.7458C23.9289 20.2215 24.1596 19.5923 24.684 19.3616C25.2083 19.1308 25.8375 19.3616 26.0683 19.8859L31.3117 31.7361L34.6885 30.2469L44.4413 30.2679L47.2937 41.4679Z" fill="white"/>
<path d="M44.6299 26.0731L35.9258 26.094C35.6025 26.0764 35.2794 26.1338 34.982 26.2618L33.7445 26.8071L29.9063 18.2079C28.7318 15.5652 25.6277 14.3697 22.985 15.5442C20.3423 16.7188 19.1468 19.8229 20.3213 22.4656L27.2427 38.091L23.3206 38.909C22.9221 39.0139 21.2442 39.4753 20.4682 41.4468L19 45.3479L33.2202 50.9479C34.2479 51.3464 35.4224 51.3255 36.4292 50.864L48.9925 45.306C50.8591 44.467 51.8659 42.4116 51.3625 40.4401L48.5101 29.2401C48.0486 27.4364 46.4756 26.157 44.6299 26.0731ZM47.2936 41.4678L34.7303 47.0468L24.4112 42.936L33.1783 41.0903L24.1595 20.7457C23.9288 20.2214 24.1595 19.5922 24.6839 19.3615C25.2082 19.1308 25.8374 19.3615 26.0682 19.8858L31.3116 31.736L34.6884 30.2468L44.4412 30.2678L47.2936 41.4678Z" fill="white"/>
<path d="M25 7.5C30.6745 7.5 35.8903 9.52811 39.9805 12.9219L40.7998 13.6016V9.33301H42.5V17.5H34.5V15.75H40.5479L39.5713 14.877C35.67 11.3907 30.5851 9.25 25 9.25C19.4155 9.25 14.312 11.3905 10.4277 14.8779L9.45703 15.75H15.5V17.5H7.5V9.33301H9.2002V13.6016L10.0195 12.9219C14.1097 9.52811 19.3255 7.5 25 7.5Z" fill="white" fill-opacity="0.4" stroke="white"/>
</g>
<defs>
<filter id="filter0_d_1244_4704" x="0" y="0" width="58.4915" height="58.2296" filterUnits="userSpaceOnUse" color-interpolation-filters="sRGB">
<feFlood flood-opacity="0" result="BackgroundImageFix"/>
<feColorMatrix in="SourceAlpha" type="matrix" values="0 0 0 0 0 0 0 0 0 0 0 0 0 0 0 0 0 0 127 0" result="hardAlpha"/>
<feOffset/>
<feGaussianBlur stdDeviation="3.5"/>
<feComposite in2="hardAlpha" operator="out"/>
<feColorMatrix type="matrix" values="0 0 0 0 0 0 0 0 0 0 0 0 0 0 0 0 0 0 0.5 0"/>
<feBlend mode="normal" in2="BackgroundImageFix" result="effect1_dropShadow_1244_4704"/>
<feBlend mode="normal" in="SourceGraphic" in2="effect1_dropShadow_1244_4704" result="shape"/>
</filter>
</defs>
</svg>
