<svg width="45" height="45" viewBox="0 0 45 45" fill="none" xmlns="http://www.w3.org/2000/svg">
<path opacity="0.4" d="M40.2938 34.4681L27.7305 40.0471L17.4114 35.9363L26.1784 34.0906L17.1597 13.7461C16.929 13.2217 17.1597 12.5925 17.6841 12.3618C18.2084 12.1311 18.8376 12.3618 19.0683 12.8861L24.3118 24.7363L27.6885 23.2472L37.4413 23.2681L40.2938 34.4681Z" fill="#9D9D9D" fill-opacity="0.4"/>
<path d="M37.6299 19.0733L28.9258 19.0943C28.6025 19.0766 28.2794 19.134 27.982 19.2621L26.7445 19.8074L22.9063 11.2082C21.7318 8.56546 18.6277 7.36996 15.985 8.54449C13.3423 9.71902 12.1468 12.8231 13.3213 15.4658L20.2427 31.0913L16.3206 31.9092C15.9221 32.0141 14.2442 32.4755 13.4682 34.4471L12 38.3482L26.2202 43.9482C27.2479 44.3467 28.4224 44.3257 29.4292 43.8643L41.9925 38.3062C43.8591 37.4673 44.8659 35.4119 44.3625 33.4403L41.5101 22.2403C41.0486 20.4366 39.4756 19.1572 37.6299 19.0733ZM40.2936 34.468L27.7303 40.0471L17.4112 35.9362L26.1783 34.0905L17.1595 13.746C16.9288 13.2216 17.1595 12.5924 17.6839 12.3617C18.2082 12.131 18.8374 12.3617 19.0682 12.8861L24.3116 24.7362L27.6884 23.2471L37.4412 23.2681L40.2936 34.468Z" fill="#9D9D9D" fill-opacity="0.4"/>
<path d="M33.3 1.83333V5.53667C29.124 2.07167 23.796 0 18 0C12.204 0 6.876 2.07167 2.7 5.53667V1.83333H0V11H9V8.25H3.762C7.56 4.84 12.546 2.75 18 2.75C23.454 2.75 28.422 4.84 32.238 8.25H27V11H36V1.83333H33.3Z" fill="#9D9D9D" fill-opacity="0.4"/>
</svg>
