<svg width="326" height="66" viewBox="0 0 326 66" fill="none" xmlns="http://www.w3.org/2000/svg">
<rect x="1" y="1" width="324" height="64" rx="32" fill="#E75D5C" stroke="#B94A49" stroke-width="2"/>
<path d="M77.4709 35.336C75.7536 35.336 74.2229 34.8973 72.8789 34.02C71.5536 33.124 70.5082 31.9013 69.7429 30.352C68.9776 28.784 68.5949 27.0013 68.5949 25.004C68.5949 23.0067 68.9682 21.2333 69.7149 19.684C70.4802 18.1347 71.5256 16.9213 72.8509 16.044C74.1762 15.1667 75.6976 14.728 77.4149 14.728C79.1509 14.728 80.6816 15.1667 82.0069 16.044C83.3509 16.9213 84.3962 18.1347 85.1429 19.684C85.9082 21.2333 86.2909 23.016 86.2909 25.032C86.2909 27.048 85.9082 28.8307 85.1429 30.38C84.3962 31.9293 83.3602 33.1427 82.0349 34.02C80.7096 34.8973 79.1882 35.336 77.4709 35.336ZM77.4429 30.576C78.1336 30.576 78.7216 30.3613 79.2069 29.932C79.6922 29.5027 80.0562 28.8773 80.2989 28.056C80.5602 27.216 80.6909 26.208 80.6909 25.032C80.6909 23.856 80.5602 22.8573 80.2989 22.036C80.0562 21.2147 79.6922 20.5893 79.2069 20.16C78.7216 19.712 78.1242 19.488 77.4149 19.488C76.7429 19.488 76.1642 19.7027 75.6789 20.132C75.1936 20.5613 74.8202 21.1867 74.5589 22.008C74.3162 22.8293 74.1949 23.828 74.1949 25.004C74.1949 26.18 74.3162 27.188 74.5589 28.028C74.8202 28.8493 75.1936 29.484 75.6789 29.932C76.1642 30.3613 76.7522 30.576 77.4429 30.576ZM90.0928 28.28L96.0848 15.064H102.021L95.8888 28.28H90.0928ZM90.0928 31.276V28.28L91.6048 26.684H106.557V31.276H90.0928ZM99.4448 35V23.352H104.905V35H99.4448ZM117.873 35.336C116.361 35.336 115.045 35.084 113.925 34.58C112.805 34.0573 111.937 33.3573 111.321 32.48C110.705 31.584 110.397 30.5667 110.397 29.428C110.397 28.4387 110.584 27.5613 110.957 26.796C111.331 26.0307 111.844 25.4053 112.497 24.92C113.169 24.4347 113.925 24.1173 114.765 23.968L114.681 24.892C113.935 24.7613 113.291 24.472 112.749 24.024C112.227 23.5573 111.816 22.988 111.517 22.316C111.237 21.644 111.097 20.9533 111.097 20.244C111.097 19.18 111.377 18.2373 111.937 17.416C112.516 16.576 113.309 15.9227 114.317 15.456C115.344 14.9707 116.529 14.728 117.873 14.728C119.217 14.728 120.393 14.9707 121.401 15.456C122.409 15.9227 123.193 16.576 123.753 17.416C124.332 18.2373 124.621 19.18 124.621 20.244C124.621 20.9533 124.481 21.644 124.201 22.316C123.921 22.988 123.511 23.5573 122.969 24.024C122.447 24.472 121.812 24.7613 121.065 24.892L120.953 23.968C121.812 24.1173 122.568 24.4347 123.221 24.92C123.893 25.4053 124.416 26.0307 124.789 26.796C125.163 27.5613 125.349 28.4387 125.349 29.428C125.349 30.5667 125.041 31.584 124.425 32.48C123.809 33.3573 122.941 34.0573 121.821 34.58C120.701 35.084 119.385 35.336 117.873 35.336ZM117.873 30.744C118.303 30.744 118.676 30.6507 118.993 30.464C119.329 30.2773 119.591 30.0253 119.777 29.708C119.964 29.372 120.057 28.9987 120.057 28.588C120.057 28.1773 119.964 27.8133 119.777 27.496C119.591 27.1787 119.329 26.9267 118.993 26.74C118.676 26.5533 118.303 26.46 117.873 26.46C117.444 26.46 117.061 26.5533 116.725 26.74C116.408 26.9267 116.156 27.1787 115.969 27.496C115.783 27.8133 115.689 28.1773 115.689 28.588C115.689 28.9987 115.783 29.372 115.969 29.708C116.156 30.0253 116.408 30.2773 116.725 30.464C117.061 30.6507 117.444 30.744 117.873 30.744ZM117.873 22.568C118.359 22.568 118.751 22.4187 119.049 22.12C119.367 21.8027 119.525 21.4107 119.525 20.944C119.525 20.4587 119.367 20.0573 119.049 19.74C118.751 19.404 118.359 19.236 117.873 19.236C117.388 19.236 116.987 19.3947 116.669 19.712C116.352 20.0107 116.193 20.4027 116.193 20.888C116.193 21.3547 116.352 21.756 116.669 22.092C116.987 22.4093 117.388 22.568 117.873 22.568ZM130.058 30.156V25.564H140.39V30.156H130.058ZM152.679 35.336C151.223 35.336 149.907 35.028 148.731 34.412C147.574 33.796 146.65 32.9653 145.959 31.92C145.287 30.856 144.951 29.6613 144.951 28.336C144.951 26.768 145.492 25.1907 146.575 23.604L152.371 15.064H158.587L151.895 24.304L149.795 23.856C150.112 23.3893 150.411 22.988 150.691 22.652C150.99 22.316 151.344 22.0547 151.755 21.868C152.184 21.6813 152.744 21.588 153.435 21.588C154.742 21.588 155.918 21.896 156.963 22.512C158.008 23.1093 158.839 23.9213 159.455 24.948C160.09 25.956 160.407 27.0853 160.407 28.336C160.407 29.6613 160.062 30.856 159.371 31.92C158.699 32.9653 157.784 33.796 156.627 34.412C155.47 35.028 154.154 35.336 152.679 35.336ZM152.679 30.688C153.146 30.688 153.556 30.5853 153.911 30.38C154.284 30.156 154.574 29.8573 154.779 29.484C154.984 29.092 155.087 28.6533 155.087 28.168C155.087 27.6827 154.984 27.2533 154.779 26.88C154.574 26.488 154.284 26.1893 153.911 25.984C153.556 25.76 153.146 25.648 152.679 25.648C152.212 25.648 151.792 25.76 151.419 25.984C151.064 26.1893 150.784 26.488 150.579 26.88C150.374 27.2533 150.271 27.6827 150.271 28.168C150.271 28.6533 150.374 29.092 150.579 29.484C150.784 29.8573 151.064 30.156 151.419 30.38C151.792 30.5853 152.212 30.688 152.679 30.688ZM171.719 35.336C170.207 35.336 168.891 35.084 167.771 34.58C166.651 34.0573 165.783 33.3573 165.167 32.48C164.551 31.584 164.243 30.5667 164.243 29.428C164.243 28.4387 164.429 27.5613 164.803 26.796C165.176 26.0307 165.689 25.4053 166.343 24.92C167.015 24.4347 167.771 24.1173 168.611 23.968L168.527 24.892C167.78 24.7613 167.136 24.472 166.595 24.024C166.072 23.5573 165.661 22.988 165.363 22.316C165.083 21.644 164.943 20.9533 164.943 20.244C164.943 19.18 165.223 18.2373 165.783 17.416C166.361 16.576 167.155 15.9227 168.163 15.456C169.189 14.9707 170.375 14.728 171.719 14.728C173.063 14.728 174.239 14.9707 175.247 15.456C176.255 15.9227 177.039 16.576 177.599 17.416C178.177 18.2373 178.467 19.18 178.467 20.244C178.467 20.9533 178.327 21.644 178.047 22.316C177.767 22.988 177.356 23.5573 176.815 24.024C176.292 24.472 175.657 24.7613 174.911 24.892L174.799 23.968C175.657 24.1173 176.413 24.4347 177.067 24.92C177.739 25.4053 178.261 26.0307 178.635 26.796C179.008 27.5613 179.195 28.4387 179.195 29.428C179.195 30.5667 178.887 31.584 178.271 32.48C177.655 33.3573 176.787 34.0573 175.667 34.58C174.547 35.084 173.231 35.336 171.719 35.336ZM171.719 30.744C172.148 30.744 172.521 30.6507 172.839 30.464C173.175 30.2773 173.436 30.0253 173.623 29.708C173.809 29.372 173.903 28.9987 173.903 28.588C173.903 28.1773 173.809 27.8133 173.623 27.496C173.436 27.1787 173.175 26.9267 172.839 26.74C172.521 26.5533 172.148 26.46 171.719 26.46C171.289 26.46 170.907 26.5533 170.571 26.74C170.253 26.9267 170.001 27.1787 169.815 27.496C169.628 27.8133 169.535 28.1773 169.535 28.588C169.535 28.9987 169.628 29.372 169.815 29.708C170.001 30.0253 170.253 30.2773 170.571 30.464C170.907 30.6507 171.289 30.744 171.719 30.744ZM171.719 22.568C172.204 22.568 172.596 22.4187 172.895 22.12C173.212 21.8027 173.371 21.4107 173.371 20.944C173.371 20.4587 173.212 20.0573 172.895 19.74C172.596 19.404 172.204 19.236 171.719 19.236C171.233 19.236 170.832 19.3947 170.515 19.712C170.197 20.0107 170.039 20.4027 170.039 20.888C170.039 21.3547 170.197 21.756 170.515 22.092C170.832 22.4093 171.233 22.568 171.719 22.568ZM190.763 35.336C189.307 35.336 187.991 35.028 186.815 34.412C185.658 33.796 184.734 32.9653 184.043 31.92C183.371 30.856 183.035 29.6613 183.035 28.336C183.035 26.768 183.577 25.1907 184.659 23.604L190.455 15.064H196.671L189.979 24.304L187.879 23.856C188.197 23.3893 188.495 22.988 188.775 22.652C189.074 22.316 189.429 22.0547 189.839 21.868C190.269 21.6813 190.829 21.588 191.519 21.588C192.826 21.588 194.002 21.896 195.047 22.512C196.093 23.1093 196.923 23.9213 197.539 24.948C198.174 25.956 198.491 27.0853 198.491 28.336C198.491 29.6613 198.146 30.856 197.455 31.92C196.783 32.9653 195.869 33.796 194.711 34.412C193.554 35.028 192.238 35.336 190.763 35.336ZM190.763 30.688C191.23 30.688 191.641 30.5853 191.995 30.38C192.369 30.156 192.658 29.8573 192.863 29.484C193.069 29.092 193.171 28.6533 193.171 28.168C193.171 27.6827 193.069 27.2533 192.863 26.88C192.658 26.488 192.369 26.1893 191.995 25.984C191.641 25.76 191.23 25.648 190.763 25.648C190.297 25.648 189.877 25.76 189.503 25.984C189.149 26.1893 188.869 26.488 188.663 26.88C188.458 27.2533 188.355 27.6827 188.355 28.168C188.355 28.6533 188.458 29.092 188.663 29.484C188.869 29.8573 189.149 30.156 189.503 30.38C189.877 30.5853 190.297 30.688 190.763 30.688ZM203.055 30.156V25.564H213.387V30.156H203.055ZM218.797 35L225.069 18.06H230.473L224.509 35H218.797ZM216.305 19.656V15.064H230.473V18.06L228.905 19.656H216.305ZM237.732 35V15.064H243.276V35H237.732ZM234.008 19.656V15.064H242.996V19.656H234.008ZM254.962 35.336C253.599 35.336 252.265 35.1027 250.958 34.636C249.67 34.1507 248.606 33.4693 247.766 32.592L251.294 29.148C251.611 29.596 252.087 29.9693 252.722 30.268C253.375 30.548 254.047 30.688 254.738 30.688C255.335 30.688 255.849 30.5853 256.278 30.38C256.707 30.1747 257.043 29.8853 257.286 29.512C257.529 29.12 257.65 28.672 257.65 28.168C257.65 27.664 257.519 27.216 257.258 26.824C257.015 26.4133 256.651 26.096 256.166 25.872C255.681 25.6293 255.083 25.508 254.374 25.508C253.777 25.508 253.217 25.6013 252.694 25.788C252.171 25.9747 251.723 26.208 251.35 26.488L251.966 22.904C252.526 22.624 253.002 22.3907 253.394 22.204C253.786 22.0173 254.187 21.8867 254.598 21.812C255.009 21.7187 255.494 21.672 256.054 21.672C257.603 21.672 258.901 21.98 259.946 22.596C260.991 23.212 261.785 24.0333 262.326 25.06C262.867 26.068 263.138 27.1693 263.138 28.364C263.138 29.7267 262.802 30.94 262.13 32.004C261.477 33.0493 260.543 33.8707 259.33 34.468C258.117 35.0467 256.661 35.336 254.962 35.336ZM251.35 26.488L249.306 24.696L250.342 15.064H255.326L254.29 24.164L251.35 26.488ZM250.958 19.656L250.342 15.064H262.046V19.656H250.958ZM267.147 32.004L275.099 23.996C275.417 23.6787 275.669 23.3893 275.855 23.128C276.061 22.848 276.201 22.5867 276.275 22.344C276.369 22.1013 276.415 21.8493 276.415 21.588C276.415 20.9347 276.201 20.4213 275.771 20.048C275.361 19.656 274.801 19.46 274.091 19.46C273.457 19.46 272.869 19.656 272.327 20.048C271.786 20.4213 271.207 21.0653 270.591 21.98L266.951 18.704C267.773 17.3973 268.827 16.408 270.115 15.736C271.422 15.064 272.906 14.728 274.567 14.728C276.079 14.728 277.377 14.9987 278.459 15.54C279.561 16.0627 280.401 16.8187 280.979 17.808C281.577 18.7973 281.875 19.9733 281.875 21.336C281.875 22.1013 281.773 22.82 281.567 23.492C281.362 24.164 281.035 24.8267 280.587 25.48C280.139 26.1147 279.561 26.768 278.851 27.44L273.839 32.2L267.147 32.004ZM267.147 35V32.004L271.795 30.408H282.295V35H267.147ZM71.8602 46.034H84.2922V49.212H82.3042V47.784H73.7642V49.212H71.8602V46.034ZM74.0722 48.582H81.1982V50.444H74.0722V48.582ZM82.5842 41.932L83.9422 43.584C83.1022 43.7333 82.2062 43.8687 81.2542 43.99C80.3115 44.102 79.3409 44.2 78.3422 44.284C77.3435 44.3587 76.3449 44.424 75.3462 44.48C74.3475 44.5267 73.3769 44.5593 72.4342 44.578C72.4249 44.326 72.3689 44.032 72.2662 43.696C72.1729 43.3507 72.0795 43.0707 71.9862 42.856C72.9289 42.828 73.8809 42.7907 74.8422 42.744C75.8129 42.688 76.7602 42.6227 77.6842 42.548C78.6175 42.4733 79.4995 42.3847 80.3302 42.282C81.1609 42.17 81.9122 42.0533 82.5842 41.932ZM73.2462 44.83L75.0242 44.34C75.1735 44.5733 75.3135 44.8347 75.4442 45.124C75.5749 45.404 75.6682 45.6513 75.7242 45.866L73.8482 46.398C73.8109 46.1833 73.7315 45.9313 73.6102 45.642C73.4982 45.3433 73.3769 45.0727 73.2462 44.83ZM76.9282 44.536L78.7202 44.13C78.8509 44.3913 78.9722 44.6807 79.0842 44.998C79.1962 45.306 79.2709 45.5813 79.3082 45.824L77.4042 46.286C77.3855 46.0527 77.3295 45.7727 77.2362 45.446C77.1429 45.11 77.0402 44.8067 76.9282 44.536ZM81.1842 44.102L83.3682 44.578C83.2095 44.8673 83.0509 45.152 82.8922 45.432C82.7335 45.7027 82.5795 45.9593 82.4302 46.202C82.2809 46.4447 82.1409 46.6593 82.0102 46.846L80.3302 46.384C80.4422 46.16 80.5495 45.9173 80.6522 45.656C80.7642 45.3947 80.8669 45.1287 80.9602 44.858C81.0535 44.5873 81.1282 44.3353 81.1842 44.102ZM80.4422 48.582H80.8622L81.2122 48.512L82.5982 49.324C82.1875 50.2573 81.6509 51.06 80.9882 51.732C80.3349 52.404 79.5789 52.9687 78.7202 53.426C77.8615 53.874 76.9235 54.238 75.9062 54.518C74.8889 54.798 73.8202 55.008 72.7002 55.148C72.6349 54.98 72.5322 54.7793 72.3922 54.546C72.2615 54.3127 72.1169 54.0887 71.9582 53.874C71.7995 53.65 71.6502 53.468 71.5102 53.328C72.6022 53.2347 73.6289 53.09 74.5902 52.894C75.5515 52.6887 76.4195 52.4133 77.1942 52.068C77.9689 51.7227 78.6315 51.2933 79.1822 50.78C79.7329 50.2573 80.1529 49.632 80.4422 48.904V48.582ZM75.8922 49.996C76.4055 50.612 77.0822 51.1393 77.9222 51.578C78.7715 52.0167 79.7515 52.3713 80.8622 52.642C81.9822 52.9033 83.2095 53.0853 84.5442 53.188C84.4042 53.3373 84.2549 53.5287 84.0962 53.762C83.9375 53.9953 83.7882 54.2287 83.6482 54.462C83.5082 54.7047 83.3915 54.9193 83.2982 55.106C81.9075 54.938 80.6429 54.672 79.5042 54.308C78.3749 53.9533 77.3622 53.4773 76.4662 52.88C75.5702 52.2827 74.7862 51.5593 74.1142 50.71L75.8922 49.996ZM91.9782 45.012H100.686V47.07H91.9782V45.012ZM97.1442 42.184H99.2582V52.964C99.2582 53.5707 99.1835 54.0233 99.0342 54.322C98.8849 54.6207 98.6189 54.8493 98.2362 55.008C97.8629 55.1573 97.3869 55.2507 96.8082 55.288C96.2389 55.3347 95.5622 55.3533 94.7782 55.344C94.7502 55.148 94.6942 54.9287 94.6102 54.686C94.5262 54.4433 94.4282 54.2007 94.3162 53.958C94.2135 53.7153 94.1109 53.5053 94.0082 53.328C94.3535 53.3467 94.7082 53.3607 95.0722 53.37C95.4362 53.3793 95.7629 53.384 96.0522 53.384C96.3415 53.3747 96.5422 53.37 96.6542 53.37C96.8315 53.37 96.9575 53.3373 97.0322 53.272C97.1069 53.2067 97.1442 53.0993 97.1442 52.95V42.184ZM92.4682 48.652L94.2742 47.812C94.4702 48.1387 94.6802 48.4933 94.9042 48.876C95.1375 49.2587 95.3615 49.6367 95.5762 50.01C95.7909 50.374 95.9635 50.696 96.0942 50.976L94.1482 51.956C94.0455 51.6667 93.8962 51.3353 93.7002 50.962C93.5135 50.5793 93.3082 50.1873 93.0842 49.786C92.8695 49.3753 92.6642 48.9973 92.4682 48.652ZM89.2062 46.314L91.2502 44.27L91.2782 44.298V55.302H89.2062V46.314ZM90.5222 42.1L92.5382 42.744C92.2302 43.556 91.8569 44.3773 91.4182 45.208C90.9889 46.0293 90.5222 46.8087 90.0182 47.546C89.5142 48.274 88.9962 48.9087 88.4642 49.45C88.3989 49.282 88.2962 49.0627 88.1562 48.792C88.0162 48.512 87.8669 48.2367 87.7082 47.966C87.5495 47.686 87.4095 47.462 87.2882 47.294C87.7175 46.8833 88.1329 46.4027 88.5342 45.852C88.9449 45.292 89.3182 44.6947 89.6542 44.06C89.9995 43.416 90.2889 42.7627 90.5222 42.1ZM109.03 43.416H116.282V45.166H109.03V43.416ZM108.638 46.09H116.59V47.868H108.638V46.09ZM108.638 48.834H116.52V50.598H108.638V48.834ZM111.606 42.016H113.608V47.252H111.606V42.016ZM113.342 47.826H115.33V53.258C115.33 53.7153 115.274 54.0793 115.162 54.35C115.06 54.6207 114.854 54.8307 114.546 54.98C114.238 55.1293 113.884 55.2227 113.482 55.26C113.09 55.2973 112.642 55.316 112.138 55.316C112.101 55.036 112.017 54.714 111.886 54.35C111.765 53.986 111.639 53.6733 111.508 53.412C111.807 53.4213 112.115 53.4307 112.432 53.44C112.75 53.44 112.96 53.44 113.062 53.44C113.165 53.44 113.235 53.426 113.272 53.398C113.319 53.37 113.342 53.3093 113.342 53.216V47.826ZM109.03 51.522L110.654 50.598C110.86 50.8127 111.07 51.0507 111.284 51.312C111.499 51.5733 111.695 51.8347 111.872 52.096C112.059 52.3573 112.199 52.6 112.292 52.824L110.542 53.832C110.468 53.6173 110.346 53.3747 110.178 53.104C110.02 52.8333 109.838 52.5627 109.632 52.292C109.436 52.012 109.236 51.7553 109.03 51.522ZM104.718 42.856H108.386V52.642H104.718V50.836H106.496V44.662H104.718V42.856ZM104.83 46.776H107.42V48.54H104.83V46.776ZM103.766 42.856H105.642V53.944H103.766V42.856ZM124.136 50.556H127.734V51.97H124.136V50.556ZM124.01 48.498H128.7V54.028H124.01V52.558H126.796V49.968H124.01V48.498ZM123.184 48.498H125.018V54.742H123.184V48.498ZM120.972 44.452H124.262V45.796H120.972V44.452ZM127.496 44.452H130.786V45.796H127.496V44.452ZM129.96 42.534H132.018V53.006C132.018 53.5193 131.958 53.93 131.836 54.238C131.724 54.546 131.514 54.784 131.206 54.952C130.889 55.12 130.511 55.2227 130.072 55.26C129.643 55.3067 129.12 55.33 128.504 55.33C128.486 55.134 128.439 54.91 128.364 54.658C128.299 54.406 128.22 54.154 128.126 53.902C128.042 53.65 127.954 53.4353 127.86 53.258C128.084 53.2767 128.313 53.2907 128.546 53.3C128.789 53.3 129.008 53.3 129.204 53.3C129.4 53.3 129.54 53.3 129.624 53.3C129.755 53.3 129.844 53.2767 129.89 53.23C129.937 53.1833 129.96 53.0993 129.96 52.978V42.534ZM121.14 42.534H125.536V47.77H121.14V46.342H123.632V43.976H121.14V42.534ZM131.066 42.534V43.976H128.238V46.384H131.066V47.812H126.306V42.534H131.066ZM119.964 42.534H121.98V55.33H119.964V42.534ZM141.902 47C141.482 47 141.128 46.86 140.838 46.58C140.558 46.2907 140.418 45.9453 140.418 45.544C140.418 45.124 140.558 44.774 140.838 44.494C141.128 44.2047 141.482 44.06 141.902 44.06C142.322 44.06 142.672 44.2047 142.952 44.494C143.242 44.774 143.386 45.124 143.386 45.544C143.386 45.9453 143.242 46.2907 142.952 46.58C142.672 46.86 142.322 47 141.902 47ZM141.902 53.58C141.482 53.58 141.128 53.44 140.838 53.16C140.558 52.8707 140.418 52.5253 140.418 52.124C140.418 51.704 140.558 51.354 140.838 51.074C141.128 50.7847 141.482 50.64 141.902 50.64C142.322 50.64 142.672 50.7847 142.952 51.074C143.242 51.354 143.386 51.704 143.386 52.124C143.386 52.5253 143.242 52.8707 142.952 53.16C142.672 53.44 142.322 53.58 141.902 53.58ZM152.206 42.856H163.49V44.872H152.206V42.856ZM151.45 48.778H164.316V50.836H151.45V48.778ZM152.976 45.74L154.838 45.194C154.988 45.474 155.128 45.7727 155.258 46.09C155.398 46.4073 155.52 46.7247 155.622 47.042C155.734 47.35 155.814 47.63 155.86 47.882L153.872 48.498C153.835 48.2553 153.77 47.98 153.676 47.672C153.592 47.3547 153.49 47.028 153.368 46.692C153.247 46.3467 153.116 46.0293 152.976 45.74ZM160.872 45.166L163.056 45.712C162.898 46.0573 162.73 46.398 162.552 46.734C162.384 47.0607 162.221 47.3733 162.062 47.672C161.904 47.9613 161.754 48.218 161.614 48.442L159.822 47.924C159.953 47.6627 160.084 47.3733 160.214 47.056C160.354 46.7387 160.48 46.4167 160.592 46.09C160.704 45.7633 160.798 45.4553 160.872 45.166ZM156.798 43.724H158.926V55.316H156.798V43.724ZM168.796 42.814H178.904V55.162H176.706V44.872H170.896V55.162H168.796V42.814ZM170.238 47.434H177.616V49.45H170.238V47.434ZM170.238 52.18H177.616V54.238H170.238V52.18ZM190.51 48.386C190.51 49.0953 190.445 49.7533 190.314 50.36C190.193 50.9573 190.002 51.4893 189.74 51.956C189.479 52.4227 189.143 52.8193 188.732 53.146C188.322 53.4727 187.832 53.72 187.262 53.888C186.693 54.056 186.035 54.14 185.288 54.14C185.083 54.14 184.845 54.1353 184.574 54.126C184.304 54.1167 184.075 54.098 183.888 54.07V51.928C184.084 51.9653 184.28 51.9933 184.476 52.012C184.672 52.0307 184.901 52.04 185.162 52.04C185.722 52.04 186.184 51.9793 186.548 51.858C186.922 51.7367 187.216 51.564 187.43 51.34C187.645 51.116 187.799 50.85 187.892 50.542C187.995 50.2247 188.056 49.8793 188.074 49.506H187.99C187.869 49.73 187.724 49.9307 187.556 50.108C187.388 50.276 187.178 50.4113 186.926 50.514C186.674 50.6167 186.357 50.668 185.974 50.668C185.414 50.668 184.924 50.542 184.504 50.29C184.094 50.038 183.776 49.6693 183.552 49.184C183.328 48.6893 183.216 48.0967 183.216 47.406C183.216 46.6593 183.356 46.0247 183.636 45.502C183.926 44.97 184.336 44.564 184.868 44.284C185.4 44.004 186.03 43.864 186.758 43.864C187.281 43.864 187.766 43.9527 188.214 44.13C188.672 44.3073 189.073 44.578 189.418 44.942C189.764 45.306 190.03 45.7773 190.216 46.356C190.412 46.9253 190.51 47.602 190.51 48.386ZM186.828 46.02C186.511 46.02 186.264 46.1273 186.086 46.342C185.918 46.5567 185.834 46.902 185.834 47.378C185.834 47.7513 185.914 48.05 186.072 48.274C186.24 48.4887 186.483 48.596 186.8 48.596C187.006 48.596 187.183 48.5447 187.332 48.442C187.482 48.33 187.598 48.19 187.682 48.022C187.776 47.854 187.822 47.6813 187.822 47.504C187.822 47.3267 187.804 47.1493 187.766 46.972C187.729 46.7947 187.668 46.636 187.584 46.496C187.51 46.3467 187.407 46.23 187.276 46.146C187.155 46.062 187.006 46.02 186.828 46.02ZM193.533 52.866C193.533 52.3807 193.673 52.04 193.953 51.844C194.243 51.648 194.588 51.55 194.989 51.55C195.372 51.55 195.699 51.648 195.969 51.844C196.249 52.04 196.389 52.3807 196.389 52.866C196.389 53.3233 196.249 53.6547 195.969 53.86C195.699 54.0653 195.372 54.168 194.989 54.168C194.588 54.168 194.243 54.0653 193.953 53.86C193.673 53.6547 193.533 53.3233 193.533 52.866ZM193.533 47.462C193.533 46.986 193.673 46.65 193.953 46.454C194.243 46.258 194.588 46.16 194.989 46.16C195.372 46.16 195.699 46.258 195.969 46.454C196.249 46.65 196.389 46.986 196.389 47.462C196.389 47.9287 196.249 48.2647 195.969 48.47C195.699 48.6753 195.372 48.778 194.989 48.778C194.588 48.778 194.243 48.6753 193.953 48.47C193.673 48.2647 193.533 47.9287 193.533 47.462ZM206.666 49.016C206.666 49.8187 206.601 50.5373 206.47 51.172C206.349 51.7973 206.144 52.334 205.854 52.782C205.574 53.2207 205.206 53.5567 204.748 53.79C204.291 54.0233 203.726 54.14 203.054 54.14C202.224 54.14 201.538 53.9347 200.996 53.524C200.464 53.1133 200.072 52.5253 199.82 51.76C199.568 50.9947 199.442 50.08 199.442 49.016C199.442 47.9333 199.554 47.0093 199.778 46.244C200.012 45.4787 200.394 44.8907 200.926 44.48C201.458 44.0693 202.168 43.864 203.054 43.864C203.885 43.864 204.566 44.0693 205.098 44.48C205.63 44.8813 206.022 45.4693 206.274 46.244C206.536 47.0093 206.666 47.9333 206.666 49.016ZM202.13 49.016C202.13 49.6693 202.154 50.2153 202.2 50.654C202.256 51.0927 202.35 51.424 202.48 51.648C202.611 51.872 202.802 51.984 203.054 51.984C203.306 51.984 203.498 51.8767 203.628 51.662C203.759 51.438 203.848 51.1067 203.894 50.668C203.95 50.22 203.978 49.6693 203.978 49.016C203.978 48.3533 203.95 47.8027 203.894 47.364C203.848 46.916 203.759 46.58 203.628 46.356C203.498 46.132 203.306 46.02 203.054 46.02C202.802 46.02 202.611 46.132 202.48 46.356C202.35 46.58 202.256 46.916 202.2 47.364C202.154 47.8027 202.13 48.3533 202.13 49.016ZM216.829 49.016C216.829 49.8187 216.764 50.5373 216.633 51.172C216.512 51.7973 216.307 52.334 216.017 52.782C215.737 53.2207 215.369 53.5567 214.911 53.79C214.454 54.0233 213.889 54.14 213.217 54.14C212.387 54.14 211.701 53.9347 211.159 53.524C210.627 53.1133 210.235 52.5253 209.983 51.76C209.731 50.9947 209.605 50.08 209.605 49.016C209.605 47.9333 209.717 47.0093 209.941 46.244C210.175 45.4787 210.557 44.8907 211.089 44.48C211.621 44.0693 212.331 43.864 213.217 43.864C214.048 43.864 214.729 44.0693 215.261 44.48C215.793 44.8813 216.185 45.4693 216.437 46.244C216.699 47.0093 216.829 47.9333 216.829 49.016ZM212.293 49.016C212.293 49.6693 212.317 50.2153 212.363 50.654C212.419 51.0927 212.513 51.424 212.643 51.648C212.774 51.872 212.965 51.984 213.217 51.984C213.469 51.984 213.661 51.8767 213.791 51.662C213.922 51.438 214.011 51.1067 214.057 50.668C214.113 50.22 214.141 49.6693 214.141 49.016C214.141 48.3533 214.113 47.8027 214.057 47.364C214.011 46.916 213.922 46.58 213.791 46.356C213.661 46.132 213.469 46.02 213.217 46.02C212.965 46.02 212.774 46.132 212.643 46.356C212.513 46.58 212.419 46.916 212.363 47.364C212.317 47.8027 212.293 48.3533 212.293 49.016ZM225.508 49.394C225.247 49.1047 224.981 48.8807 224.71 48.722C224.44 48.5633 224.071 48.484 223.604 48.484C223.203 48.484 222.83 48.6287 222.484 48.918C222.148 49.2073 221.854 49.5853 221.602 50.052L219.768 49.044C220.254 48.1387 220.832 47.4713 221.504 47.042C222.176 46.6033 222.89 46.384 223.646 46.384C224.337 46.384 224.958 46.5147 225.508 46.776C226.059 47.028 226.572 47.4247 227.048 47.966C227.31 48.2553 227.576 48.4793 227.846 48.638C228.126 48.7967 228.495 48.876 228.952 48.876C229.354 48.876 229.722 48.7313 230.058 48.442C230.404 48.1527 230.702 47.7747 230.954 47.308L232.788 48.316C232.303 49.2213 231.724 49.8933 231.052 50.332C230.38 50.7613 229.666 50.976 228.91 50.976C228.229 50.976 227.608 50.85 227.048 50.598C226.498 50.3367 225.984 49.9353 225.508 49.394ZM241.678 54H238.934V49.058C238.934 48.9647 238.934 48.7967 238.934 48.554C238.934 48.3113 238.939 48.0407 238.948 47.742C238.958 47.4433 238.967 47.1773 238.976 46.944C238.855 47.084 238.743 47.2053 238.64 47.308C238.547 47.4107 238.449 47.504 238.346 47.588L237.212 48.526L235.812 46.804L239.242 44.004H241.678V54ZM246.83 54L250.26 46.244H245.934V44.004H253.144V45.6L249.63 54H246.83ZM256.153 52.866C256.153 52.3807 256.293 52.04 256.573 51.844C256.862 51.648 257.207 51.55 257.609 51.55C257.991 51.55 258.318 51.648 258.589 51.844C258.869 52.04 259.009 52.3807 259.009 52.866C259.009 53.3233 258.869 53.6547 258.589 53.86C258.318 54.0653 257.991 54.168 257.609 54.168C257.207 54.168 256.862 54.0653 256.573 53.86C256.293 53.6547 256.153 53.3233 256.153 52.866ZM256.153 47.462C256.153 46.986 256.293 46.65 256.573 46.454C256.862 46.258 257.207 46.16 257.609 46.16C257.991 46.16 258.318 46.258 258.589 46.454C258.869 46.65 259.009 46.986 259.009 47.462C259.009 47.9287 258.869 48.2647 258.589 48.47C258.318 48.6753 257.991 48.778 257.609 48.778C257.207 48.778 256.862 48.6753 256.573 48.47C256.293 48.2647 256.153 47.9287 256.153 47.462ZM269.286 49.016C269.286 49.8187 269.22 50.5373 269.09 51.172C268.968 51.7973 268.763 52.334 268.474 52.782C268.194 53.2207 267.825 53.5567 267.368 53.79C266.91 54.0233 266.346 54.14 265.674 54.14C264.843 54.14 264.157 53.9347 263.616 53.524C263.084 53.1133 262.692 52.5253 262.44 51.76C262.188 50.9947 262.062 50.08 262.062 49.016C262.062 47.9333 262.174 47.0093 262.398 46.244C262.631 45.4787 263.014 44.8907 263.546 44.48C264.078 44.0693 264.787 43.864 265.674 43.864C266.504 43.864 267.186 44.0693 267.718 44.48C268.25 44.8813 268.642 45.4693 268.894 46.244C269.155 47.0093 269.286 47.9333 269.286 49.016ZM264.75 49.016C264.75 49.6693 264.773 50.2153 264.82 50.654C264.876 51.0927 264.969 51.424 265.1 51.648C265.23 51.872 265.422 51.984 265.674 51.984C265.926 51.984 266.117 51.8767 266.248 51.662C266.378 51.438 266.467 51.1067 266.514 50.668C266.57 50.22 266.598 49.6693 266.598 49.016C266.598 48.3533 266.57 47.8027 266.514 47.364C266.467 46.916 266.378 46.58 266.248 46.356C266.117 46.132 265.926 46.02 265.674 46.02C265.422 46.02 265.23 46.132 265.1 46.356C264.969 46.58 264.876 46.916 264.82 47.364C264.773 47.8027 264.75 48.3533 264.75 49.016ZM279.449 49.016C279.449 49.8187 279.383 50.5373 279.253 51.172C279.131 51.7973 278.926 52.334 278.637 52.782C278.357 53.2207 277.988 53.5567 277.531 53.79C277.073 54.0233 276.509 54.14 275.837 54.14C275.006 54.14 274.32 53.9347 273.779 53.524C273.247 53.1133 272.855 52.5253 272.603 51.76C272.351 50.9947 272.225 50.08 272.225 49.016C272.225 47.9333 272.337 47.0093 272.561 46.244C272.794 45.4787 273.177 44.8907 273.709 44.48C274.241 44.0693 274.95 43.864 275.837 43.864C276.667 43.864 277.349 44.0693 277.881 44.48C278.413 44.8813 278.805 45.4693 279.057 46.244C279.318 47.0093 279.449 47.9333 279.449 49.016ZM274.913 49.016C274.913 49.6693 274.936 50.2153 274.983 50.654C275.039 51.0927 275.132 51.424 275.263 51.648C275.393 51.872 275.585 51.984 275.837 51.984C276.089 51.984 276.28 51.8767 276.411 51.662C276.541 51.438 276.63 51.1067 276.677 50.668C276.733 50.22 276.761 49.6693 276.761 49.016C276.761 48.3533 276.733 47.8027 276.677 47.364C276.63 46.916 276.541 46.58 276.411 46.356C276.28 46.132 276.089 46.02 275.837 46.02C275.585 46.02 275.393 46.132 275.263 46.356C275.132 46.58 275.039 46.916 274.983 47.364C274.936 47.8027 274.913 48.3533 274.913 49.016Z" fill="white"/>
<path d="M64.1431 32.8979C64.1431 31.0728 63.7921 29.2656 63.11 27.5794C62.428 25.8932 61.4283 24.3611 60.1681 23.0706C58.9078 21.7801 57.4117 20.7564 55.7651 20.0579C54.1186 19.3595 52.3538 19 50.5715 19V21.7796C52.7188 21.7795 54.8179 22.4315 56.6033 23.6531C58.3888 24.8746 59.7804 26.6109 60.6023 28.6424C61.148 29.9915 61.4289 31.4376 61.4288 32.8979H64.1431ZM37 30.1183V23.1694C37 22.8008 37.143 22.4473 37.3975 22.1866C37.652 21.926 37.9972 21.7796 38.3572 21.7796H45.1429C45.5029 21.7796 45.8481 21.926 46.1026 22.1866C46.3571 22.4473 46.5001 22.8008 46.5001 23.1694V28.7285C46.5001 29.0971 46.3571 29.4506 46.1026 29.7113C45.8481 29.9719 45.5029 30.1183 45.1429 30.1183H42.4286C42.4286 33.0671 43.5725 35.8951 45.6086 37.9802C47.6448 40.0653 50.4063 41.2367 53.2859 41.2367V38.4571C53.2859 38.0885 53.4288 37.735 53.6834 37.4744C53.9379 37.2137 54.2831 37.0673 54.643 37.0673H60.0716C60.4316 37.0673 60.7768 37.2137 61.0313 37.4744C61.2858 37.735 61.4288 38.0885 61.4288 38.4571V45.4061C61.4288 45.7746 61.2858 46.1282 61.0313 46.3888C60.7768 46.6494 60.4316 46.7958 60.0716 46.7958H53.2859C44.292 46.7958 37 39.3285 37 30.1183Z" fill="white"/>
<path d="M58.0944 29.7073C58.5037 30.7189 58.7144 31.8032 58.7146 32.8982H56.2717C56.2717 31.3501 55.6712 29.8654 54.6022 28.7708C53.5332 27.6761 52.0834 27.0611 50.5717 27.0611V24.5595C52.1821 24.5596 53.7564 25.0487 55.0954 25.965C56.4345 26.8813 57.4781 28.1836 58.0944 29.7073Z" fill="white"/>
</svg>
