<svg width="31" height="31" viewBox="0 0 31 31" fill="none" xmlns="http://www.w3.org/2000/svg">
<path d="M3.23535 13.9062H5.4707L5.4707 29.1152H3.23535C2.00145 29.1152 1.00022 28.1126 1 26.8887L1 16.1328C1.00008 14.9088 2.00136 13.9063 3.23535 13.9062ZM14.6543 1H14.6562C15.223 0.998932 15.7829 1.12349 16.2949 1.36523C16.807 1.60701 17.2583 1.96014 17.6162 2.39746L17.6172 2.39844C17.9764 2.83545 18.234 3.34669 18.3711 3.89453C18.5082 4.44247 18.5214 5.01465 18.4102 5.56836L17.4092 10.5586L17.1689 11.7549H25.7998C26.3191 11.752 26.8317 11.8729 27.2949 12.1064C27.7581 12.34 28.1589 12.6796 28.4639 13.0977L28.4697 13.1064C28.7788 13.5211 28.9848 14.0026 29.0703 14.5117C29.1558 15.021 29.1188 15.5439 28.9619 16.0361L28.96 16.041L25.5908 26.7959L25.5898 26.7998C25.3823 27.4715 24.9631 28.0595 24.3945 28.4766C23.826 28.8934 23.1379 29.1177 22.4316 29.1152H9.62988V10.7168C10.7936 8.7743 11.7702 6.72604 12.542 4.59766V4.59668L13.543 1.83105L13.5547 1.79785L13.5645 1.76465C13.6777 1.36648 14.1207 1 14.6543 1Z" fill="#D4F15F" stroke="black" stroke-width="2"/>
</svg>
