<?xml version="1.0" encoding="UTF-8"?>
<svg id="_レイヤー_1" data-name="レイヤー_1" xmlns="http://www.w3.org/2000/svg" version="1.1" viewBox="0 0 171.35 61.28">
  <!-- Generator: Adobe Illustrator 29.5.1, SVG Export Plug-In . SVG Version: 2.1.0 Build 141)  -->
  <path d="M169.18,45.59c-.06-.28-.18-.53-.37-.74l-.08-.09c-.21-.21-.47-.37-.77-.49l-.13-.05c-.28-.09-.57-.14-.88-.15h-.32c-.84.07-1.6.27-2.28.63-.67.35-1.19.81-1.55,1.41-.1.17-.18.32-.24.47-.05.13-.1.28-.14.43l-1.8-.31c0-.14,0-.3,0-.47v-.54c-.03-.4-.05-.82-.08-1.26l-.1-1.37c-.04-.45-.08-.9-.13-1.35-.05-.44-.09-.85-.14-1.21l2.06.14c-.01.2-.02.46-.02.78,0,.31.02.63.04.97l.04.97c.02.31.04.57.04.77.59-.53,1.22-.93,1.92-1.21.7-.28,1.44-.44,2.22-.5l.32-.02c.75-.02,1.42.09,2.01.33.68.27,1.23.65,1.65,1.14.43.49.7,1.03.82,1.63l.04.25c.08.58.04,1.12-.11,1.64-.18.59-.56,1.11-1.14,1.56s-1.39.79-2.42,1.04l-.4.08c-.96.18-2.14.27-3.52.25l-.94-1.89c1.54.09,2.8.03,3.79-.18.86-.19,1.52-.47,1.96-.85l.18-.17c.39-.41.56-.88.52-1.4l-.03-.23ZM161.56,37.68c.38.08.85.16,1.41.24.56.08,1.15.16,1.76.24.61.07,1.18.12,1.72.16l.74.05c.22.01.41.03.58.03l-.1,1.83c-.31-.02-.68-.05-1.12-.09l-1.39-.16-1.44-.17c-.48-.07-.92-.13-1.31-.19-.4-.06-.72-.11-.97-.16l.13-1.8ZM170.21,45.69c.12.87-.15,1.63-.73,2.24h0c-.22.23-.49.43-.78.61.26-.13.49-.26.68-.4.47-.36.73-.75.85-1.14.13-.44.16-.92.05-1.44-.08-.41-.26-.78-.56-1.11h0s-.04-.05-.06-.07c.27.34.45.73.53,1.15l.03.17Z"/>
  <path d="M155.28,46.79c-.08-.43-.26-.76-.51-1.03.24.32.41.68.49,1.09l.04.29c.07.68-.1,1.3-.55,1.81h0s-.01.01-.02.02c.18-.19.32-.39.42-.6h0c.18-.41.24-.91.11-1.58ZM156.28,46.72c.16.82.1,1.54-.18,2.13-.27.6-.73,1.08-1.38,1.46-.65.37-1.46.64-2.44.8-.97.16-2.07.21-3.3.17l-.89-1.86c.63.06,1.25.08,1.84.07l.59-.03c.69-.05,1.31-.15,1.85-.3l.23-.07c.52-.17.94-.4,1.24-.68l.12-.13c.28-.32.39-.7.34-1.15l-.03-.2c-.08-.39-.29-.71-.63-.98l-.16-.11c-.39-.26-.88-.39-1.49-.38h-.27c-.87.07-1.64.27-2.31.62-.66.34-1.16.81-1.5,1.4-.05.11-.1.22-.15.32l-.14.35-1.88-.49c.13-.41.24-.87.34-1.36l.09-.51c.08-.52.15-1.04.2-1.57l.05-.52c.03-.39.05-.76.07-1.11-.39.02-.77.04-1.14.05-.52,0-1.01,0-1.47,0l-.35-1.83c.49.04,1.03.08,1.6.1h.42c.34,0,.66,0,.97-.02,0-.23-.01-.43-.02-.61-.01-.32-.03-.58-.07-.8-.03-.23-.08-.46-.15-.69l2.14-.06c-.03.26-.05.52-.06.78,0,.25,0,.5,0,.75,0,.14,0,.29-.01.46.26-.03.52-.07.79-.1l.92-.14c.31-.05.63-.11.94-.17l.93-.19c.63-.14,1.24-.3,1.83-.47l.37,1.75c-.46.11-.99.23-1.59.35-.58.12-1.2.24-1.84.35l-.96.15c-.32.05-.64.09-.95.13-.16.02-.32.04-.48.06,0,.22-.02.44-.03.66-.01.35-.03.69-.06,1.03-.03.33-.05.64-.08.92.54-.38,1.1-.65,1.67-.83.57-.19,1.19-.31,1.86-.35.81-.06,1.54.03,2.19.25.66.22,1.2.56,1.62,1.01.43.45.71.99.83,1.61Z"/>
  <path d="M130.71,49.29c-.06-.32-.1-.63-.12-.91v-.28c0-.36,0-.68,0-.96l1.99.04c-.02.26-.03.51-.03.76,0,.25.02.5.07.74l.04.17c.13.39.43.7.9.94.48.24,1.16.34,2.05.31l.39-.02c.51-.04,1-.08,1.48-.14l.47-.07c.62-.09,1.2-.2,1.74-.33.55-.13,1.04-.27,1.45-.42l.42,2.08c-.42.13-.89.25-1.42.35-.52.12-1.1.22-1.72.3-.61.09-1.26.16-1.96.21l-.19-.98c.68-.05,1.3-.11,1.88-.2h0s0,0,0,0l.44-.06c.43-.07.83-.14,1.2-.22h.02c.2-.04.39-.09.57-.13v-.05c-.13.03-.24.06-.36.09h0c-.57.13-1.17.25-1.81.34-.65.1-1.32.17-2.03.22-1.13.08-2.18,0-3-.41h0c-.77-.39-1.36-1-1.55-1.84.02.12.04.25.06.39.1.49.29.83.57,1.09.24.22.6.43,1.15.59l.24.06c.68.16,1.54.22,2.61.14l.19.98c-1.14.08-2.11.02-2.93-.17-.71-.17-1.29-.43-1.74-.78l-.18-.16c-.47-.44-.77-1.01-.9-1.68ZM138.91,42.38c-.34.05-.76.11-1.25.18-.48.06-.99.12-1.53.18-.53.05-1.03.09-1.51.12l-1.13.07-1.05.04c-.67.02-1.32.02-1.94.02l-.38-1.94c.56.02,1.19.02,1.88,0,.35,0,.71-.02,1.08-.04l1.15-.07c.49-.03.99-.08,1.51-.14.52-.06,1.03-.12,1.51-.18s.91-.13,1.28-.19l.38,1.96Z"/>
  <path d="M116,41.35c-.01.1-.03.24-.06.42-.01.18-.03.36-.03.53,0,.17,0,.3,0,.39v.37c0,.14,0,.3,0,.48,0,.35.02.74.03,1.19l.08,1.35.05.67c.02.22.04.43.07.64.05.4.1.75.16,1.05l.1.49c.04.17.09.32.15.47.04-.18.07-.36.11-.53.05-.17.1-.34.14-.52.05-.17.09-.34.13-.52l1.06.67c-.06.41-.12.84-.19,1.3-.05.45-.1.88-.15,1.28-.03.4-.05.74-.06,1,0,.1,0,.22,0,.36.02.14.03.25.05.34l.06.28c.03.12.06.22.09.32l-1.67.25c-.2-.38-.4-.84-.6-1.39l-.21-.57c-.21-.6-.39-1.26-.55-1.98l-.15-.73c-.11-.55-.19-1.13-.26-1.73-.07-.61-.13-1.2-.18-1.76-.02-.28-.04-.55-.05-.81l-.04-.74c-.02-.48-.04-.86-.05-1.15-.01-.21-.03-.44-.04-.7-.02-.27-.05-.52-.09-.75l2.1.03ZM123.3,41.14c.02.17.04.34.07.5.02.16.05.37.09.63.04.26.09.56.16.89.82-.14,1.57-.31,2.25-.51l.36,1.84c-.7.15-1.45.29-2.27.41.08.41.17.8.26,1.18.13.58.26,1.12.39,1.61.07.28.13.54.2.79.24.07.46.15.68.24.53.21,1,.45,1.43.72l.62.38c.2.13.38.25.56.37l-.73,1.62c-.67-.49-1.31-.91-1.93-1.25-.06-.03-.12-.06-.18-.1.03.28.03.55,0,.8-.04.33-.15.63-.33.89l-.07.1c-.18.22-.42.39-.73.53-.34.16-.78.26-1.32.3l-.38.02c-.87.01-1.6-.14-2.19-.46-.59-.32-.99-.8-1.18-1.44l-.07-.28c-.08-.44-.06-.83.08-1.19l.07-.15c.17-.35.44-.64.81-.87l.17-.09c.46-.25,1.02-.4,1.7-.45.34-.02.67-.03.99-.02-.05-.19-.1-.39-.15-.59-.12-.51-.24-1.04-.37-1.59-.07-.28-.13-.56-.19-.84-.35.03-.7.06-1.05.09l-1.32.08c-.43.01-.87.02-1.32.02l-.34-1.75c.44,0,.87.01,1.31.01l.67-.02.67-.04c.35-.02.69-.06,1.04-.09-.04-.21-.08-.41-.12-.6l-.2-1.03c-.02-.11-.06-.26-.12-.45-.06-.19-.12-.37-.18-.51l2.14-.15c0,.14.01.29.03.46ZM121.94,49.61c-.42.03-.75.13-.99.31-.23.18-.32.4-.26.69.06.29.23.5.53.62.3.12.64.16,1.03.14.31-.02.54-.09.7-.2.16-.12.25-.28.29-.48.04-.21.03-.46-.02-.74-.01-.08-.04-.16-.05-.25-.34-.07-.67-.09-1.01-.09h-.21ZM116.08,50.82c.07.22.13.44.2.64h0c.1.29.2.55.29.8,0-.07,0-.14,0-.21l-.49-1.23ZM124.23,51.02c-.05.26-.17.5-.33.69.07-.06.12-.11.16-.17.1-.14.16-.3.18-.49h0s0-.03,0-.03c0,0-.01,0-.02,0Z"/>
  <path d="M110.52,51.68c.35.14.73.31,1.14.5.42.19.83.38,1.22.59.39.2.72.39.99.56l-1.22,1.15-.42-.27c-.16-.1-.33-.2-.51-.3-.37-.2-.77-.41-1.18-.62-.41-.21-.8-.4-1.17-.56l1.15-1.04ZM111.24,41.13l.29,1.47-3.33.23c-.05.33-.1.65-.16.97,0,.03-.01.06-.02.09l3.13-.22,1.52,7.8-5.72.4,1.6.89c-.28.27-.62.54-1.01.8-.39.28-.81.53-1.25.77-.43.25-.85.46-1.26.63l-.27-.26c-.11-.1-.22-.2-.36-.32-.25-.22-.49-.4-.7-.55.2-.08.39-.17.6-.27l.61-.31c.41-.23.79-.46,1.14-.71.34-.24.61-.46.82-.67l-1.55.11-1.52-7.8,2.37-.17c0-.15,0-.3,0-.46,0-.2,0-.4-.01-.58l-3.17.22-.29-1.47,8.53-.6ZM103.04,44.36l-1.68.12.99,5.12c.58-.23,1.16-.47,1.73-.71l.6,1.53c-.85.4-1.71.8-2.57,1.19-.86.4-1.64.75-2.34,1.06l-1.07-1.63c.45-.17.97-.37,1.55-.6.14-.05.27-.11.41-.16l-1.1-5.67-1.68.12-.32-1.63,5.16-.36.32,1.63ZM106.76,50.6l3.92-.27-.18-.94-3.92.27.18.94ZM97.81,51.01l-.26.02-.35-.52.47-.18.13.69ZM106.34,48.45l3.92-.27-.18-.94-3.92.27.18.94ZM105.92,46.3l3.92-.27-.18-.93-3.92.27.18.93Z"/>
  <path d="M95.71,42.15l.3,1.53-4.06.28.16.83,3.58-.25.81,4.15-6.14.43c-.13.32-.28.66-.43,1l7.61-.53.28,1.43-2.9.2c-.21.69-.5,1.29-.88,1.79-.05.06-.1.12-.15.18.4.08.8.16,1.18.24,1.08.22,2.03.44,2.83.65l-.8,1.52-.61-.18c-.64-.18-1.35-.37-2.14-.56-.61-.14-1.25-.28-1.91-.42-.08.05-.15.09-.23.14-.75.42-1.65.77-2.7,1.04-1.05.28-2.25.53-3.62.73l-.09-.19c-.1-.19-.21-.39-.35-.6-.17-.28-.35-.5-.53-.68,1.66-.19,3.07-.44,4.22-.76.21-.06.4-.12.6-.19-.5-.09-1-.17-1.51-.24-.04.08-.08.16-.12.24l-1.82-.41c.23-.41.48-.89.75-1.44.05-.1.1-.21.15-.31l-3.11.22-.28-1.43,4.09-.29c.16-.35.3-.68.43-1l-3.73.26-.81-4.15,3.26-.23-.16-.83-3.95.28-.3-1.53,13.09-.92ZM83.64,54.87s-.01.02-.02.03l-.04-.04s.04,0,.06.01ZM89.24,51.61c-.12.25-.24.5-.36.74.9.12,1.81.26,2.72.42.07.01.14.02.21.04.02-.02.05-.04.07-.06.44-.38.79-.85,1.03-1.4l-3.68.26ZM98.89,51.32l-.19-.28s.08-.03.12-.05l.06.33ZM92.39,46.18l.27,1.37,1.8-.13-.27-1.37-1.8.13ZM85.99,48.02l1.57-.11-.27-1.37-1.57.11.27,1.37ZM89.26,47.79l1.69-.12-.27-1.37-1.69.12.27,1.37ZM88.72,45.02l1.69-.12-.16-.83-1.69.12.16.83Z"/>
  <path d="M72.45,43.58c-.17.44-.36.88-.57,1.32l2.13-.15c.05-.16.09-.33.14-.5.11-.43.18-.81.22-1.15l2.07.11c-.15.45-.31.88-.49,1.3-.01.04-.03.07-.05.11l4.48-.31.27,1.37-4.71.33.12.6,3.97-.28.22,1.15-3.97.28.12.62,4-.28.23,1.16-4,.28.12.63,5.15-.36.26,1.32-5.51.38.12.6,5.91-.41.27,1.4-4.46.31c.49.22,1,.42,1.56.61.59.19,1.19.35,1.81.5.61.14,1.21.25,1.79.34-.11.12-.22.26-.32.44-.11.19-.21.37-.3.56l-.13.26c-.04.08-.07.16-.1.23-.45-.09-.91-.2-1.38-.33l-.47-.14c-.47-.15-.93-.31-1.4-.49l-.46-.19c-.61-.26-1.19-.53-1.74-.83-.06-.03-.11-.07-.17-.1l.5,2.6-1.78.12-.49-2.53s-.07.06-.1.1c-.42.38-.89.74-1.4,1.08l-.39.25c-.39.24-.79.46-1.19.67l-.41.2c-.41.19-.81.36-1.22.51l-.31-.34c-.11-.12-.24-.25-.38-.39-.27-.27-.52-.49-.75-.65.55-.16,1.1-.35,1.65-.56.55-.23,1.08-.47,1.59-.74.38-.21.74-.42,1.07-.64l.32-.22-4.49.31-.27-1.4,5.84-.41-.12-.6-4.11.29-.78-4c-.23.27-.47.53-.73.79-.11-.12-.26-.25-.44-.39-.18-.15-.37-.28-.56-.41-.19-.14-.36-.24-.5-.31.48-.43.9-.89,1.27-1.37.37-.49.68-.99.94-1.48.26-.51.45-.98.59-1.43l1.93.24ZM85,54.96s-.06-.06-.08-.09c.06,0,.13-.02.19-.02l-.11.11ZM67.54,55.37s-.03,0-.04-.01l.06-.02s0,.02-.01.03ZM68.4,53.89s-.02.03-.03.04v-.05s.02,0,.03,0ZM72.17,50.49l2.84-.2-.12-.63-2.84.2.12.63ZM71.82,48.7l2.84-.2-.12-.62-2.84.2.12.62ZM71.48,46.93l2.84-.2-.12-.6-2.84.2.12.6Z"/>
  <path d="M65.73,50.88l-5.83.41c-.06.19-.12.37-.19.55l7.68-.54.27,1.37-2.56.18c.49.24,1.02.45,1.58.64.57.18,1.15.31,1.73.4-.11.12-.22.26-.34.44-.11.18-.21.36-.3.54-.09.18-.16.34-.22.49l-.46-.12c-.46-.13-.92-.3-1.39-.5-.04-.02-.09-.04-.13-.06.06.69.08,1.22.07,1.6-.02.42-.1.73-.23.93-.13.15-.28.26-.45.33-.17.08-.36.13-.58.16-.18.04-.44.08-.76.1l-1.03.06c-.05-.22-.14-.45-.28-.71-.13-.25-.27-.46-.43-.64.31,0,.59,0,.86,0,.27,0,.47-.02.6-.03.15-.01.27-.04.36-.1l.08-.06c.08-.1.13-.31.13-.64,0-.13,0-.28-.01-.46l-2.57.18c-.1.36-.26.7-.49,1-.28.41-.72.78-1.3,1.11l-.23.12c-.55.28-1.25.54-2.09.77-.11-.2-.28-.43-.5-.7-.22-.25-.43-.45-.62-.6.85-.2,1.52-.41,2.01-.65.5-.23.87-.5,1.12-.79.03-.04.07-.08.1-.13l-2.42.17-.09-.48c-.47.3-1,.58-1.58.84l-.15-.19-.2-.21c-.14-.16-.3-.31-.47-.45-.16-.15-.31-.26-.44-.33.86-.33,1.57-.7,2.14-1.1.15-.11.29-.22.43-.33l-2.34.16-.27-1.37,3.84-.27c.1-.18.18-.37.25-.55l-2.57.18-.81-4.17,10.28-.72.81,4.17ZM70.46,53.23l-.75.81-.3.02-.2-1.02,1.26.19ZM52.02,54.53c-.03.12-.06.23-.09.34l-.34-.18.43-.17ZM58.92,53.29c-.16.22-.33.44-.52.65-.14.15-.28.29-.44.43l1.8-.13c.02-.24.02-.5,0-.78l1.72-.12c.02.27.02.53.01.78l2.67-.19c-.07-.04-.14-.09-.21-.13-.37-.25-.71-.52-1.02-.79l-4.02.28ZM56.97,50.47l6.76-.47-.11-.57-6.76.47.11.57ZM56.67,48.92l6.76-.47-.11-.58-6.76.47.11.58ZM57.7,45.07l3.22-.23-.15-.79,1.77-.12.15.79,3.17-.22.27,1.4-3.17.22.1.51-1.77.12-.1-.51-3.22.22.1.51-1.74.12-.1-.51-3.16.22-.27-1.4,3.16-.22-.15-.79,1.74-.12.15.79Z"/>
  <path d="M49.99,52.18c-.1-.51-.26-.97-.48-1.39l-.1-.18c-.24-.41-.53-.77-.88-1.07l-.15-.13c-.42-.34-.9-.58-1.43-.74-.27-.08-.56-.14-.86-.17.02.47.03.95.03,1.45v.64c-.02.65-.07,1.3-.15,1.96l-.04.37c-.1.86-.26,1.61-.48,2.26l-.1.27c-.23.62-.52,1.11-.87,1.48l-.15.15c-.35.32-.77.5-1.25.53l-.19-.98c.29-.02.55-.13.8-.4.16-.18.32-.4.46-.68-.01.02-.03.04-.04.06-.25.35-.64.67-1.22.71-.43.03-.83-.1-1.18-.3l-.14-.09-.03-.02-.02-.02c-.33-.25-.59-.58-.81-.93.06.11.12.22.19.33h0c.33.51.68.85,1.03,1.08.35.21.66.29.96.26l.19.98h-.21c-.48,0-.96-.15-1.43-.44-.46-.3-.88-.71-1.25-1.22l-.16-.23c-.35-.55-.6-1.18-.77-1.88l-.07-.3c-.15-.75-.15-1.47-.01-2.16l.07-.29c.18-.68.47-1.31.88-1.87l.18-.24c.51-.63,1.15-1.15,1.92-1.54.77-.39,1.64-.62,2.61-.69.93-.06,1.79.02,2.58.27.81.24,1.52.6,2.15,1.09s1.15,1.06,1.57,1.74c.41.68.7,1.42.86,2.22l.06.38c.12.88.07,1.69-.17,2.43l-.11.31c-.29.71-.76,1.32-1.41,1.84-.73.59-1.71,1.03-2.93,1.31l-1.46-1.67c.28-.05.53-.1.74-.16.21-.05.41-.11.6-.18.46-.15.87-.35,1.23-.59.28-.19.53-.41.74-.65l.2-.25c.24-.36.41-.76.49-1.21.08-.4.09-.82.02-1.28l-.03-.2ZM44.08,48.68c-.34.1-.66.23-.94.39-.56.32-1,.71-1.33,1.18l-.12.18c-.27.42-.45.86-.56,1.32-.11.52-.12,1.02-.03,1.48.1.49.24.9.42,1.22l.14.22c.14.21.29.37.44.48.18.13.36.19.54.2h.08c.21-.02.39-.13.55-.35.13-.17.24-.41.33-.7l.09-.31c.12-.45.21-1,.28-1.68.07-.54.11-1.11.13-1.7v-.6c.01-.45,0-.89-.02-1.33ZM51.03,52.35c.08.55.08,1.08-.03,1.59h0c-.1.57-.31,1.09-.63,1.54h0s0,.01,0,.01c-.31.43-.69.8-1.14,1.11l-.05.03c.19-.11.36-.23.52-.35h0c.62-.5,1.03-1.08,1.25-1.75.22-.68.26-1.46.08-2.35-.08-.44-.21-.84-.38-1.22.15.37.27.76.34,1.17l.04.24Z"/>
  <path d="M36.47,47.21c-.46.26-.98.51-1.54.73-.56.23-1.14.44-1.74.63l-.88.26c-.06.02-.13.03-.19.05l.4,2.08,4.68-.33.32,1.63-1.42.1,1.41,7.26-1.75.12-1.41-7.26-1.51.11c.09.5.17,1.05.23,1.64.08.65.1,1.33.07,2.02-.03.69-.13,1.36-.32,2.02l-.07.25c-.19.57-.46,1.1-.81,1.59-.1-.13-.24-.27-.43-.42-.18-.15-.37-.29-.57-.42-.19-.13-.36-.22-.52-.28.35-.48.6-.99.75-1.53.16-.55.24-1.11.25-1.67.02-.57,0-1.13-.08-1.68-.07-.56-.15-1.1-.25-1.61l-1-5.14,1.1.22c.33-.11.67-.22,1-.34.52-.2,1-.4,1.44-.61.45-.21.84-.42,1.15-.62l1.69,1.18ZM26.83,46.56l.26,1.34,2.5-.17.28,1.43-1.59.11.95.11c-.07.34-.15.68-.21,1-.06.28-.13.52-.19.73l1.52-.11.28,1.44-2.62.18.22,1.13,2.48-.17.29,1.49-2.48.17.03.13c.11.05.24.13.41.22.25.14.51.3.79.47.27.16.52.31.74.46.23.13.4.23.51.29l-.8,1.34c-.15-.13-.33-.29-.56-.47-.11-.1-.22-.19-.34-.29l-.41-.32.61,3.15-1.73.12-.58-2.96c-.16.33-.34.64-.53.95-.31.49-.63.91-.97,1.25-.17-.18-.39-.38-.66-.61-.28-.24-.53-.43-.75-.56.34-.27.67-.61.99-1.01.31-.41.59-.84.84-1.3.13-.24.25-.49.35-.73l-2.31.16-.29-1.49,2.65-.19-.22-1.13-2.69.19-.28-1.44,1.39-.1c-.07-.2-.16-.43-.28-.68-.15-.34-.31-.64-.5-.92l.9-.29-1.7.12-.28-1.43,2.51-.18-.26-1.34,1.74-.12ZM25.31,49.47c.16.23.31.49.45.77.16.32.28.59.36.83l-.76.28,3.08-.22-1.12-.15c.04-.17.08-.36.12-.58.04-.21.07-.42.1-.63.02-.17.03-.32.03-.46l-2.26.16Z"/>
  <path d="M22.04,52.4l.27,1.4-6.88.48,1.05,5.42c.48-.21.93-.45,1.34-.75.21-.15.4-.31.59-.47-.67-.6-1.28-1.29-1.8-2.08l.9-.33-1.34.09-.26-1.35,4.68-.33.29-.07,1.19.33c-.1,1.04-.35,1.97-.75,2.78l-.16.3c-.1.18-.21.36-.33.54.87.44,1.82.74,2.87.9-.09.12-.19.26-.3.42-.11.18-.2.36-.29.54l-.12.26c-.03.08-.07.16-.09.23l-.5-.12c-.93-.25-1.79-.6-2.57-1.07-.03.03-.06.05-.08.08-.63.59-1.37,1.09-2.2,1.48-.14-.21-.33-.44-.58-.71-.16-.16-.31-.31-.45-.43l.23,1.21-1.71.12-.23-1.2c-.7.11-1.39.22-2.09.34-.97.17-1.84.31-2.61.44l-.43-1.52c.4-.05.83-.11,1.3-.17l-.87-4.5-1.18.08-.27-1.4,13.38-.94ZM25.57,58.56l-.42.54s-.09-.08-.14-.12c-.28-.24-.53-.43-.75-.56.02-.02.04-.03.06-.05l1.24.19ZM12.6,58.92c.24-.03.49-.07.74-.11.4-.06.8-.13,1.21-.19l-.11-.56-1.98.14.14.72ZM18.06,56.02c.36.51.79.97,1.29,1.37.22-.32.4-.65.55-1.01.07-.17.13-.33.19-.51l-2.03.14ZM12.22,56.98l1.98-.14-.12-.63-1.98.14.12.63ZM11.86,55.13l1.98-.14-.11-.59-1.98.14.11.59ZM19.33,47.43l.89,4.56-9.89.69-.89-4.56,9.89-.69ZM11.82,51.41l6.37-.45-.12-.6-6.37.45.12.6ZM11.49,49.74l6.37-.45-.11-.59-6.37.45.11.59Z"/>
  <path d="M109.77,10.43c-.35-1.82-1.05-3.42-2.07-4.81l-.21-.27h0c-1.15-1.49-2.54-2.6-4.21-3.35h0s0,0,0,0c-1.66-.78-3.47-1.11-5.43-.97l-18.26,1.28,6.18,31.81,9.03-.63-2.12-10.9,9.23-.65.19.98-8.23.58,2.12,10.9-11.02.77L78.38,1.38,97.64.03c2.13-.15,4.12.21,5.97,1.07,1.85.83,3.4,2.07,4.66,3.7,1.25,1.6,2.09,3.45,2.49,5.55l.12.64c.41,2.09.31,4.02-.29,5.79-.6,1.77-1.64,3.2-3.11,4.3l-.28.19c-1.33.88-2.91,1.41-4.73,1.59l-.4.03-.19-.98c1.97-.14,3.61-.7,4.93-1.65,1.33-.99,2.26-2.28,2.81-3.89.55-1.61.64-3.37.26-5.32l-.12-.64ZM95.31,7.31l.19.98-4.54.32,1.35,6.97,4.54-.32c1.16-.08,1.97-.44,2.42-1.06.42-.55.59-1.25.49-2.1l-.06-.37-.08-.39c-.19-.98-.6-1.73-1.24-2.24l-.13-.1c-.59-.48-1.38-.72-2.34-.72l-.43.02-.19-.98c1.3-.09,2.52.15,3.5.92,1.01.73,1.58,1.8,1.82,3.03l.08.39.04.23c.18,1.12,0,2.14-.63,2.95-.66.9-1.76,1.31-3.07,1.4l-5.54.39-1.74-8.93,5.54-.39Z"/>
  <path d="M74.73,18.75c-1.04-5.34-3.27-9.19-6.59-11.73l-.32-.24c-3.52-2.55-8.1-3.69-13.85-3.29-5.75.4-9.77,2.15-12.22,5.11-2.41,2.91-3.16,7.06-2.08,12.6,1.08,5.55,3.41,9.5,6.88,12.03,3.51,2.51,8.09,3.64,13.84,3.24l.19.98c-5.92.41-10.78-.74-14.58-3.46-3.77-2.75-6.21-6.99-7.33-12.72-1.11-5.73-.36-10.17,2.26-13.34,2.65-3.2,6.93-5.01,12.85-5.43l.55-.03c5.67-.31,10.35.87,14.03,3.54,3.8,2.75,6.26,6.97,7.37,12.67l.1.53c.96,5.44.16,9.71-2.41,12.81-2.65,3.2-6.93,5.01-12.85,5.43l-.19-.98c5.75-.4,9.77-2.15,12.22-5.11,2.43-2.95,3.21-7.1,2.13-12.61ZM64.15,17.9c-.44-2.24-1.34-4.01-2.72-5.31l-.28-.25c-1.41-1.24-3.2-1.82-5.36-1.76l-.44.02c-2.36.17-4.02.99-4.98,2.49l-.17.29c-.81,1.45-1,3.3-.57,5.54l.61,3.14.09.44c.5,2.18,1.45,3.88,2.86,5.12,1.5,1.32,3.44,1.9,5.8,1.73,2.36-.17,4.02-.99,4.98-2.49.93-1.4,1.22-3.2.87-5.38l-.08-.44-.61-3.14ZM65.76,20.97l.08.48c.38,2.35.08,4.38-.99,6.01h0c-1.14,1.78-3.09,2.7-5.67,2.88-2.41.17-4.54-.37-6.28-1.74l-.34-.28c-1.74-1.53-2.82-3.63-3.32-6.19l-.61-3.14c-.5-2.55-.25-4.75.86-6.48,1.14-1.78,3.09-2.7,5.67-2.88,2.57-.18,4.83.45,6.62,2.02h0c1.78,1.53,2.87,3.63,3.37,6.18l.61,3.14Z"/>
  <path d="M22.79,13.03l11.22-.78-1.3-6.68L1.19,7.77l1.3,6.68,11.27-.79,4.88,25.13,9.03-.63-4.88-25.13ZM28.86,39.07l-11.02.77-4.88-25.13-11.27.79L0,6.86l33.52-2.34,1.68,8.64-11.22.78,4.88,25.13Z"/>
</svg>