<svg width="353" height="216" viewBox="0 0 353 216" fill="none" xmlns="http://www.w3.org/2000/svg">
<path d="M13.1589 154.14L3.02152 116.039C-2.2292 96.3211 5.45935 75.2348 21.6968 64.7997L91.9858 19.6249C100.325 14.2693 110.121 12.2639 119.673 13.9691L318.141 49.4052C341.273 53.536 356.606 77.7565 351.929 102.758L342.972 150.598C339.056 171.54 322.135 186.587 302.5 186.587H52.8261C34.4375 186.587 18.2662 173.354 13.1479 154.128L13.1589 154.14Z" fill="#38648B"/>
<path d="M57.6851 177.412C57.6851 177.412 77.2981 208.585 103.254 215.766C103.254 215.766 87.8877 193.815 92.0464 177.832" fill="#38648B"/>
<path d="M11.7852 140.764L1.63675 102.662C-3.61396 82.9442 4.07458 61.8578 20.3121 51.4227L90.601 6.24799C98.9404 0.89235 108.736 -1.11301 118.289 0.592146L316.757 36.0283C339.888 40.1591 355.221 64.3795 350.544 89.3806L341.587 137.221C337.671 158.163 320.75 173.21 301.115 173.21H51.4523C33.0638 173.21 16.8925 159.977 11.7742 140.752L11.7852 140.764Z" fill="#F2F2F2"/>
<path d="M56.3 164.035C56.3 164.035 75.9129 195.208 101.869 202.389C101.869 202.389 86.5026 180.438 90.6613 164.455" fill="#F2F2F2"/>
</svg>
