<svg width="353" height="216" viewBox="0 0 353 216" fill="none" xmlns="http://www.w3.org/2000/svg">
<path d="M339.611 154.14L349.748 116.039C354.999 96.3211 347.31 75.2348 331.073 64.7997L260.784 19.6249C252.445 14.2693 242.649 12.2639 233.096 13.9691L34.6282 49.4052C11.4964 53.536 -3.83657 77.7565 0.840532 102.758L9.79762 150.598C13.7136 171.54 30.635 186.587 50.27 186.587H299.944C318.332 186.587 334.503 173.354 339.622 154.128L339.611 154.14Z" fill="#38648B"/>
<path d="M295.084 177.412C295.084 177.412 275.472 208.585 249.516 215.766C249.516 215.766 264.882 193.815 260.723 177.832" fill="#38648B"/>
<path d="M340.984 140.764L351.133 102.662C356.384 82.9442 348.695 61.8578 332.458 51.4227L262.169 6.24799C253.829 0.89235 244.034 -1.11301 234.481 0.592146L36.013 36.0283C12.8812 40.1591 -2.45181 64.3795 2.2253 89.3806L11.1824 137.221C15.0984 158.163 32.0198 173.21 51.6548 173.21H301.317C319.706 173.21 335.877 159.977 340.995 140.752L340.984 140.764Z" fill="#F2F2F2"/>
<path d="M296.47 164.035C296.47 164.035 276.857 195.208 250.901 202.389C250.901 202.389 266.267 180.438 262.108 164.455" fill="#F2F2F2"/>
</svg>
