<?xml version="1.0" encoding="UTF-8"?>
<svg id="_レイヤー_1" data-name="レイヤー_1" xmlns="http://www.w3.org/2000/svg" version="1.1" viewBox="0 0 176.31 66.58">
  <!-- Generator: Adobe Illustrator 29.5.1, SVG Export Plug-In . SVG Version: 2.1.0 Build 141)  -->
  <path d="M97.21,57.71l-1.81.13-.16-.8-7.71.54c0,.2-.01.4-.03.6-.05.57-.17,1.13-.36,1.68l-.07.2c-.18.46-.44.89-.77,1.29-.11-.11-.27-.24-.47-.38-.2-.15-.41-.28-.63-.42-.21-.13-.38-.24-.53-.31.4-.46.67-.96.83-1.49l.06-.23c.14-.62.19-1.22.15-1.82-.03-.45-.07-.88-.13-1.27l-.07-.38-.36-1.83,11.03-.77,1.02,5.26ZM87.3,54.94c.07.36.12.73.17,1.14l2.74-.19-.3-1.55-2.69.19.08.41ZM91.66,54.22l.3,1.55,2.99-.21-.3-1.55-2.99.21ZM90.27,46.97l.22,1.12,5.69-.4.29,1.49-5.69.4.18.91,5-.35.29,1.47-11.48.8-.29-1.47,4.67-.33-.18-.91-5.64.39-.29-1.49,5.64-.39-.22-1.12,1.81-.13Z"/>
  <path d="M80.22,55.05c-.1-.51-.26-.97-.48-1.39l-.1-.18c-.24-.41-.53-.77-.88-1.07l-.15-.13c-.42-.34-.9-.58-1.43-.74-.27-.08-.56-.14-.86-.17.02.47.03.95.03,1.45v.64c-.02.65-.07,1.3-.15,1.96-.1,1.01-.27,1.89-.52,2.63l-.1.27c-.23.62-.52,1.11-.87,1.48l-.15.15c-.36.32-.77.5-1.25.53l-.19-.98c.29-.02.55-.13.8-.4.16-.18.32-.4.46-.68-.01.02-.03.04-.05.07-.25.35-.64.67-1.22.71-.43.03-.83-.1-1.18-.3l-.14-.09-.03-.02-.03-.02c-.33-.25-.59-.58-.81-.93.06.11.12.22.19.33h0c.33.51.68.85,1.04,1.08.35.21.66.29.96.26l.19.98h-.21c-.48,0-.96-.15-1.43-.44-.46-.3-.88-.71-1.25-1.22l-.15-.23c-.35-.55-.6-1.18-.77-1.88l-.07-.3c-.14-.75-.15-1.47-.01-2.16l.07-.29c.18-.68.47-1.3.88-1.87l.18-.24c.51-.63,1.15-1.15,1.92-1.54.77-.39,1.64-.62,2.61-.69.93-.06,1.79.02,2.58.27.81.24,1.52.6,2.15,1.09.63.48,1.15,1.06,1.57,1.74.41.68.7,1.42.86,2.22l.06.38c.12.88.07,1.69-.17,2.43l-.11.31c-.29.71-.76,1.32-1.41,1.84-.73.59-1.71,1.03-2.93,1.31l-1.46-1.67c.28-.05.53-.1.74-.16.21-.05.41-.11.6-.18.46-.15.87-.35,1.23-.59.28-.19.53-.41.74-.65l.2-.25c.25-.36.41-.76.49-1.21.08-.4.09-.82.02-1.28l-.03-.2ZM74.3,51.55c-.34.1-.66.23-.94.39-.56.32-1,.71-1.33,1.18l-.12.18c-.27.42-.45.86-.56,1.32l-.04.19c-.08.45-.07.88,0,1.28.1.49.24.9.42,1.22l.14.22c.14.21.29.37.44.48.18.13.36.19.54.2h.07c.21-.02.39-.13.55-.35.13-.17.24-.41.33-.7l.09-.31c.11-.45.21-1,.28-1.68.07-.54.11-1.11.13-1.7v-.6c.01-.45,0-.89-.02-1.33ZM81.26,55.22c.08.55.08,1.08-.03,1.59h0c-.11.57-.31,1.09-.63,1.54h0s0,.01,0,.01c-.31.43-.69.8-1.14,1.11h0s-.03.02-.05.03c.19-.11.36-.23.52-.36h0c.62-.5,1.03-1.08,1.24-1.75.22-.68.26-1.46.08-2.35-.08-.44-.21-.84-.38-1.22.15.37.27.76.34,1.17l.04.24Z"/>
  <path d="M65.8,58.03c-.08-.43-.26-.76-.51-1.03.24.32.41.68.49,1.09l.04.29c.07.68-.11,1.3-.55,1.81h0s-.01.01-.02.02c.18-.19.32-.39.42-.6h0c.18-.41.24-.91.11-1.58ZM66.8,57.96c.16.82.1,1.53-.18,2.13-.27.6-.73,1.08-1.38,1.46-.65.37-1.46.64-2.44.8-.85.14-1.8.2-2.85.18h-.46s-.89-1.88-.89-1.88c.63.06,1.25.08,1.84.07l.59-.03c.69-.05,1.31-.15,1.85-.3l.23-.07c.6-.19,1.05-.46,1.36-.81.27-.32.39-.7.34-1.15l-.03-.2c-.08-.39-.29-.71-.63-.98l-.16-.11c-.39-.26-.88-.39-1.49-.38h-.27c-.87.07-1.64.27-2.31.62-.66.34-1.16.81-1.5,1.4-.05.11-.1.22-.15.32-.04.1-.09.22-.14.35l-1.89-.49c.13-.41.24-.87.34-1.36l.09-.51c.08-.52.15-1.04.2-1.57l.05-.52c.03-.39.05-.76.07-1.11-.39.02-.77.04-1.14.05-.52,0-1.02,0-1.47,0l-.35-1.83c.49.05,1.03.08,1.6.1h.42c.34,0,.66,0,.97-.02,0-.23-.01-.43-.02-.61-.01-.32-.03-.58-.06-.8-.03-.23-.08-.46-.15-.69l2.14-.06c-.03.26-.05.52-.06.78,0,.25,0,.5,0,.75,0,.14,0,.29-.01.46.26-.03.52-.07.79-.1l.92-.14c.31-.05.63-.11.94-.17l.93-.19c.63-.14,1.24-.3,1.83-.47l.37,1.75c-.46.11-.99.23-1.58.35-.58.12-1.2.24-1.84.35l-.96.15c-.32.05-.64.09-.95.13-.16.02-.32.04-.48.06,0,.22-.02.44-.03.66-.01.35-.03.69-.06,1.03-.03.33-.05.64-.08.92.54-.38,1.1-.65,1.67-.83.57-.19,1.19-.31,1.86-.35.81-.06,1.54.03,2.19.25.66.22,1.2.56,1.62,1.01.43.45.71.99.83,1.61Z"/>
  <path d="M44.27,50.97c-.02.2-.04.44-.04.73,0,.29,0,.51,0,.67,0,.17,0,.35-.01.56.16-.04.33-.07.49-.11.65-.15,1.29-.33,1.92-.52l.36,1.84c-.59.18-1.23.34-1.91.49-.31.07-.61.13-.91.19,0,.12,0,.24-.01.36-.01.55-.04,1.07-.07,1.57l-.06.83c-.02.29-.06.59-.09.9l-.12.93c-.04.31-.09.63-.14.95-.09.63-.19,1.24-.3,1.83l-.17.82c-.06.26-.12.5-.18.73l-2.21-.55c.11-.29.22-.63.33-1.01l.11-.4c.14-.56.27-1.15.38-1.79.06-.32.12-.63.17-.95l.14-.94c.08-.62.14-1.2.18-1.73.03-.35.06-.71.08-1.08,0-.06,0-.12,0-.17-.35.04-.68.07-.99.09-.18.01-.35.02-.51.03l-.46.02c-.29,0-.58,0-.85.01l-.4-1.84c.4.01.74.02,1.02.02.14,0,.29,0,.43,0l.45-.02c.43-.03.88-.08,1.33-.14,0-.01,0-.03,0-.04,0-.31,0-.58-.02-.8-.02-.28-.06-.55-.1-.83-.04-.28-.09-.5-.14-.66l2.32.02ZM47.54,59.01c-.02.21-.03.43-.02.66,0,.22.02.41.05.58.03.16.09.3.19.43.1.13.23.25.4.35.17.09.39.15.66.19l.22.02c.16.01.33.01.51,0h.29c.51-.05,1.01-.11,1.51-.19.51-.1,1.02-.21,1.54-.35l.29,1.89c-.41.08-.87.16-1.37.23-.5.08-1.05.15-1.65.19-1.18.08-2.13-.03-2.86-.34l-.14-.06c-.74-.37-1.18-.92-1.33-1.67-.06-.33-.1-.67-.11-1.02,0-.35,0-.67,0-.97l1.82.05ZM42.62,60.26h0c-.11.66-.24,1.28-.4,1.86h0c-.04.14-.07.27-.11.4l.11.03c.05-.21.09-.42.14-.65.11-.57.2-1.16.29-1.78h0c.01-.09.02-.18.04-.26-.02.14-.05.27-.07.41ZM46.9,61.1c.1.28.29.48.63.64.02,0,.03.01.05.02-.2-.13-.39-.29-.55-.48l-.08-.1s-.03-.05-.05-.08ZM49.51,54.97c.22-.01.44-.02.66-.02.45-.01.9,0,1.35,0l.3,1.77c-.19-.01-.39-.02-.6-.03h-.65c-.33-.01-.67,0-1.01,0l-.34.02c-.51.04-1,.08-1.47.15l-.69.09c-.23.04-.46.08-.69.12l-.34-1.74c.21-.03.42-.07.65-.1l.72-.1c.5-.07.99-.11,1.47-.15l.65-.04ZM43.14,51.94c0,.06.01.11.02.17.02,0,.03,0,.05,0,0-.05,0-.1,0-.16h-.07Z"/>
  <path d="M29.5,54.52c.07.37.08.73.03,1.07-.05.34-.18.66-.39.97-.21.29-.51.56-.9.81-.01,0-.02.01-.03.02l1.62-.11-.16-.81,1.62-.11-1-5.17,1.68-.12.15.77,3.92-.27.2,1.02-3.92.27.09.46,3.67-.26.19.97-3.67.26.09.47,4.2-.29.19,1-4.2.29.19.96-1.51.11.07.34,5.25-.37.21,1.1-5.25.37.09.44,4.49-.31.68,3.48-4.49.31.09.47,5.73-.4.22,1.15-5.73.4.23,1.19-1.78.12-.23-1.19-5.75.4-.22-1.15,5.75-.4-.09-.47-4.28.3-.68-3.47,4.28-.3-.09-.44-5.16.36-.21-1.1,1.6-.11c-.1-.1-.2-.2-.3-.29-.15-.15-.28-.27-.4-.36.59-.09,1.05-.21,1.39-.37.32-.15.55-.32.7-.5-.49.07-.97.14-1.45.2-.84.11-1.59.21-2.26.29l-.3-1.02c.64-.07,1.4-.16,2.26-.25.67-.08,1.34-.16,2.04-.25,0-.12-.02-.25-.05-.37h0s-3.58.24-3.58.24l-.19-.97,3.58-.25-.09-.46-3.92.27-.2-1.02,3.92-.27-.15-.79,1.63-.11.64,3.27ZM28.03,61.62l2.6-.18-.09-.49-2.6.18.09.49ZM32.42,61.32l2.72-.19-.09-.49-2.72.19.09.49ZM27.78,60.33l2.6-.18-.09-.47-2.6.18.09.47ZM32.17,60.02l2.72-.19-.09-.47-2.72.19.09.47Z"/>
  <path d="M15.51,52.2l.39,2,4.59-.32.33,1.69-4.59.32.47,2.4,5.78-.4.33,1.71-3.93.28.7,3.58.04.17c.04.15.09.25.14.3.06.04.16.06.31.06h.16s1.32-.1,1.32-.1c.15-.01.25-.06.3-.16.06-.1.08-.3.05-.59-.02-.3-.07-.74-.17-1.32.14.08.31.16.52.25.22.08.44.15.66.21.23.05.43.1.59.14.09.78.11,1.4.05,1.85l-.03.16c-.07.36-.21.62-.43.78l-.1.07c-.21.13-.47.21-.81.25l-.17.02-1.74.12h-.4c-.32.01-.59-.01-.81-.08l-.13-.04c-.33-.12-.58-.33-.76-.65-.13-.24-.24-.54-.33-.91l-.09-.39-.7-3.59-2.19.15c.04.56.04,1.11.02,1.64-.03.65-.15,1.26-.37,1.85-.21.57-.56,1.1-1.04,1.6-.47.5-1.12.95-1.97,1.35-.09-.16-.22-.34-.39-.52-.17-.18-.34-.35-.53-.53-.17-.17-.34-.31-.51-.43.75-.31,1.33-.66,1.74-1.03.42-.38.72-.79.88-1.23.18-.45.27-.92.29-1.41.02-.37.02-.75,0-1.15l-3.55.25-.33-1.71,5.76-.4-.47-2.4-2.58.18c-.04.17-.09.35-.13.52-.17.6-.38,1.13-.63,1.6-.16-.09-.34-.17-.55-.26-.21-.09-.42-.18-.64-.25-.22-.07-.4-.13-.55-.17.24-.43.44-.93.59-1.49.16-.56.29-1.13.37-1.71.09-.59.13-1.14.13-1.65l1.89.23c-.03.47-.08.96-.15,1.46l1.93-.13-.39-2,1.83-.13Z"/>
  <path d="M151.12,8.49l18.65-1.3-1.19-6.14-27.68,1.94,6.18,31.81,28.03-1.96-1.19-6.14-19,1.33-1.38-7.12,15.96-1.12-1.13-5.79-15.96,1.12-1.29-6.63ZM153.22,14.07l15.96-1.12,1.51,7.76-15.96,1.12,1,5.15,19-1.33,1.57,8.1-30.03,2.1-6.56-33.77,29.68-2.08,1.57,8.1-18.65,1.3.91,4.66Z"/>
  <path d="M112.7,19.49c-.5-2.58-.38-4.76.51-6.45h0s0-.01,0-.01c.98-1.77,2.81-2.68,5.26-2.85,2.14-.15,4.05.37,5.59,1.69h0c1.29,1.08,2.15,2.51,2.64,4.21l8.55-.6c-.93-3.79-2.78-6.58-5.52-8.49l-.29-.2h0c-3.18-2.14-7.19-3.09-12.11-2.75-5.69.4-9.56,2.12-11.81,5.02-2.22,2.89-2.88,7.05-1.79,12.65,1.09,5.6,3.33,9.56,6.6,12.06,3.3,2.51,7.73,3.65,13.42,3.25l.19.98c-5.85.41-10.58-.75-14.18-3.49-3.57-2.74-5.91-6.98-7.03-12.74-1.12-5.76-.47-10.22,1.95-13.37,2.45-3.16,6.61-4.94,12.46-5.35l.48-.03c4.88-.26,8.99.72,12.33,2.96,3.44,2.28,5.62,5.74,6.52,10.39l-10.52.74c-.38-1.96-1.21-3.48-2.5-4.55-1.18-1.01-2.65-1.48-4.42-1.43l-.36.02c-2.23.16-3.74.96-4.54,2.41-.76,1.45-.91,3.4-.43,5.85l.61,3.14.09.45c.49,2.21,1.35,3.94,2.57,5.19,1.25,1.22,2.86,1.8,4.84,1.74l.4-.02c1.99-.14,3.44-.72,4.35-1.75l.17-.21c.83-1.08,1.11-2.52.82-4.32l-.06-.36,10.18-.71c.9,4.61.14,8.25-2.28,10.9-2.38,2.65-6.2,4.16-11.46,4.53l-.19-.98c5.1-.36,8.66-1.81,10.85-4.24h0c2.02-2.23,2.81-5.24,2.24-9.16l-8.2.57c.17,1.73-.15,3.22-1.06,4.41-1.09,1.42-2.88,2.13-5.17,2.29-2.24.16-4.22-.39-5.8-1.77l-.31-.29-.02-.02c-1.51-1.55-2.47-3.65-2.96-6.19l-.61-3.14Z"/>
  <path d="M93.03,5.34l6.56,33.77-11.02.77-6.56-33.77,11.02-.77ZM89.38,38.83l9.03-.63-6.18-31.81-9.03.63,6.18,31.81Z"/>
  <path d="M77.86,23.51c-1.04-5.34-3.27-9.19-6.59-11.73l-.32-.24c-3.52-2.55-8.1-3.69-13.85-3.29-5.75.4-9.77,2.15-12.22,5.11-2.41,2.91-3.16,7.06-2.08,12.6,1.08,5.55,3.41,9.5,6.88,12.03,3.51,2.51,8.09,3.64,13.84,3.24l.19.98c-5.92.41-10.78-.74-14.58-3.46-3.77-2.75-6.21-6.99-7.33-12.72-1.11-5.73-.36-10.17,2.26-13.34,2.65-3.2,6.93-5.01,12.85-5.43l.55-.03c5.67-.31,10.35.87,14.03,3.54,3.8,2.75,6.26,6.97,7.37,12.67l.1.53c.96,5.44.16,9.71-2.41,12.81-2.65,3.2-6.93,5.01-12.85,5.43l-.19-.98c5.75-.4,9.77-2.15,12.22-5.11,2.43-2.95,3.21-7.1,2.13-12.61ZM67.28,22.66c-.44-2.24-1.34-4.01-2.72-5.31l-.28-.25c-1.41-1.24-3.2-1.82-5.36-1.76l-.44.02c-2.36.17-4.02.99-4.98,2.49l-.17.29c-.81,1.45-1,3.3-.57,5.54l.61,3.14.09.44c.5,2.18,1.45,3.88,2.86,5.12,1.5,1.32,3.44,1.9,5.8,1.73,2.36-.17,4.02-.99,4.98-2.49.93-1.4,1.22-3.2.87-5.38l-.08-.44-.61-3.14ZM68.88,25.73l.08.48c.38,2.35.08,4.38-.99,6.01h0c-1.14,1.78-3.09,2.7-5.67,2.88-2.41.17-4.54-.37-6.28-1.74l-.34-.28c-1.74-1.53-2.82-3.63-3.32-6.19l-.61-3.14c-.5-2.55-.25-4.75.86-6.48,1.14-1.78,3.09-2.7,5.67-2.88,2.57-.18,4.83.45,6.62,2.02h0c1.78,1.53,2.87,3.63,3.37,6.18l.61,3.14Z"/>
  <path d="M23.04,33.12h.2s2.54-23.08,2.54-23.08l11.27-.79-5.56,34.62-12.77.89L0,11.85l11.77-.82,11.27,22.1ZM19.25,43.73l11.36-.79,5.23-32.6-9.12.64-2.54,23.06-1.68.12L11.22,12.06l-9.62.67,17.64,31Z"/>
</svg>