<?xml version="1.0" encoding="UTF-8"?>
<svg id="_レイヤー_1" data-name="レイヤー_1" xmlns="http://www.w3.org/2000/svg" version="1.1" viewBox="0 0 193.09 144.1">
  <!-- Generator: Adobe Illustrator 29.5.1, SVG Export Plug-In . SVG Version: 2.1.0 Build 141)  -->
  <defs>
    <style>
      .st0 {
        fill: #ff7b18;
      }

      .st1 {
        fill: #3e3a39;
      }

      .st2 {
        fill: #fff;
      }

      .st3 {
        fill: #fce4de;
      }
    </style>
  </defs>
  <path class="st1" d="M152.1,89.81c-3.88-5.83-8.84-9.85-14.69-13.41-5.22-3.18-10.83-4.67-16.69-4.91-11.86-.5-29.16,3.03-42.76,8.31-6.33,2.46-6.35,3.59-9.29,10.01-4.89,10.65-.64,24.72-3.45,34.24,3.6,3.34,4.65,5.89,8.6,8.77,9.08,6.6,13.2,8.67,24.08,9.97,18.92,2.26,30.25-3.88,51.88-14.18,4.37-2.08,8.49-4.2,12.09-7.54-2.81-9.52-4.36-23.15-9.77-31.26Z"/>
  <path class="st1" d="M152.85,89.37c-5.03-7.45-12.91-13.76-21.41-16.75-8.46-2.98-17.75-2.23-26.45-.89-9.47,1.45-18.94,3.9-27.84,7.47-2.54,1.02-4.94,2.19-6.48,4.55-.83,1.28-1.43,2.72-2.06,4.1-.89,1.97-1.74,3.93-2.26,6.04-1.21,4.93-1.14,10.07-1.02,15.11.11,4.92.42,10.03-.95,14.82-.08.29,0,.63.22.84,2.73,2.58,4.83,5.77,7.77,8.13,2.72,2.18,5.68,4.18,8.71,5.91,5.61,3.2,11.81,4.47,18.18,5.1,6.58.65,13.19.25,19.61-1.36,6.72-1.68,13.11-4.49,19.38-7.4,4.31-2,8.6-4.05,12.87-6.12,4.07-1.97,8-4.17,11.36-7.24.22-.2.3-.56.22-.84-3.04-10.4-3.79-22.2-9.86-31.47-.6-.93-2.1-.06-1.49.87,2.98,4.55,4.51,9.89,5.82,15.12,1.31,5.23,2.32,10.69,3.85,15.94l.22-.84c-3,2.74-6.49,4.75-10.12,6.53-3.67,1.81-7.38,3.55-11.07,5.29-6.3,2.98-12.67,5.93-19.38,7.88-6.05,1.76-12.28,2.49-18.57,2.14-6.29-.35-12.77-1.3-18.41-4.14-3.2-1.61-6.16-3.68-9.05-5.79-3.45-2.51-5.76-6.03-8.84-8.93l.22.84c2.26-7.97.47-16.54,1.15-24.69.36-4.4,1.67-8.22,3.51-12.2,1.11-2.41,2.27-4.29,4.68-5.54,3.71-1.92,7.91-3.14,11.9-4.34,4.41-1.33,8.89-2.43,13.42-3.31,8.29-1.6,17.35-2.89,25.73-1.19,9.91,2.02,19.31,8.88,24.93,17.21.62.92,2.12.05,1.49-.87h.02Z"/>
  <path class="st1" d="M8.11,83.69c5.23,13.82,12.9,32.89,23.4,44.09,18.59,19.83,33.93,6.92,60.81-14.09.62-.49,11-16.94,9.21-24.23-1.95-7.94-9.33-19.16-32.68-7-8.85,4.61-13.4,27.61-19.52,19.65-7.36-9.57-10.51-20.69-14-33.38-1.05-3.81-2.06-7.4-2.87-10.56-.19-.76-2.17-1.48-2.92-1.23-8.91,3.03-15.75,4.75-24.68,7.77-.84.29-1.95.67-2.33,1.62s-.11,1.72.28,2.69c2.09,5.22,3.27,9.29,5.32,14.68h0Z"/>
  <path class="st1" d="M6.88,84.03c4.53,11.95,9.34,24,16.24,34.82,5.67,8.89,13.83,18.66,25.01,19.93,10.49,1.19,20.44-5.66,28.51-11.48,2.94-2.12,5.82-4.32,8.69-6.54,1.44-1.11,2.87-2.23,4.31-3.35,1.19-.93,2.64-1.81,3.68-2.9.78-.81,1.34-1.94,1.92-2.89,1.03-1.7,2-3.45,2.9-5.22,2.1-4.11,4.14-8.55,4.74-13.17.42-3.22-.51-6.31-2.03-9.14-1.5-2.8-3.79-5.21-6.66-6.61-3.88-1.89-8.27-1.95-12.44-1.17-3.15.59-6.18,1.67-9.11,2.93-2.42,1.05-4.92,2.1-6.89,3.89-3.14,2.85-5.23,6.81-7.25,10.47-.97,1.76-1.92,3.53-2.99,5.23-.74,1.18-1.59,2.59-2.79,3.36-.77.49-1.27.33-2.04-.49-2.15-2.3-3.79-5.36-5.25-8.13-3.17-6.03-5.26-12.54-7.14-19.06-1.04-3.62-2.03-7.26-3.03-10.9-.45-1.62-.89-3.25-1.32-4.88-.36-1.39-.85-2.17-2.22-2.73-1.37-.56-2.43-.33-3.85.15-1.95.65-3.92,1.28-5.88,1.88-3.4,1.05-6.81,2.05-10.21,3.1-1.7.52-3.4,1.06-5.09,1.61-1.45.47-3.34.84-4.5,1.93-1.04.97-1.28,2.41-.92,3.75.49,1.82,1.37,3.59,2.01,5.37,1.22,3.4,2.36,6.84,3.63,10.22.57,1.52,3.04.86,2.46-.68-1.24-3.31-2.36-6.66-3.55-9.99-.56-1.58-1.18-3.13-1.77-4.69-.32-.85-.69-1.67.13-2.31.66-.52,1.88-.72,2.65-.97,6.59-2.17,13.28-4.03,19.87-6.17,1.09-.36,3.25-1.65,4.35-.73.45.38.52,1.27.68,1.86.24.89.48,1.79.72,2.68.95,3.49,1.92,6.99,2.9,10.47,1.73,6.12,3.61,12.23,6.25,18.03,1.32,2.89,2.83,5.69,4.58,8.33,1.09,1.63,2.26,3.78,4.08,4.74,2.63,1.39,4.91-.9,6.36-2.86,2.31-3.14,3.95-6.74,5.92-10.09,1.91-3.24,4.04-6.6,7.48-8.36,7.32-3.76,18.83-8.24,25.91-1.54,2,1.89,3.32,4.37,4.1,6.98,1.07,3.54-.15,7.2-1.44,10.54-1.51,3.91-3.49,7.68-5.67,11.26-.3.49-.61.98-.92,1.47-.13.19-.25.38-.38.56-.24.35-.03.08-.13.19-2.4,2.27-5.33,4.18-7.95,6.21-5.14,3.98-10.34,7.94-15.89,11.32-4.12,2.51-8.53,4.77-13.31,5.7-10.22,1.99-18.58-4.71-24.62-12.24-7.7-9.6-12.8-21.27-17.34-32.61-1.03-2.57-2.03-5.17-3.01-7.76-.58-1.52-3.04-.86-2.46.68h0Z"/>
  <path class="st3" d="M21.46,70.25c1.51.1,1.35,2.1.93,3.42-.53,1.68-1.79,2.75-3.29,3.31-2.61.97-3.48,1.87-6.24,1.45-1.86-.28-4.05-.77-5.49-2.22-.74-.74-2.75-2.3-3.13-3.38-.37-1.07-.78-2.88-.58-4.04.24-1.36.6-1.58.36-2.74-.24-1.17-1.3-2.27-1.62-3.53-.31-1.26.19-2.73.57-4,.14-.46.38-.91.4-1.36.02-.45-.17-.85-.21-1.26-.5-4.66,2.52-6.74,4.92-8.31,2.28-1.49,3.8-1.63,6.99-2.09,1.53-.22,3.13.16,3.53-.98.54-1.56,0-5.54.17-7.2.15-1.45.31-2.92.77-4.3.46-1.38,1.26-2.68,2.45-3.44.22-.14.47-.26.71-.2.2.05.95.37,1.09.53.53.64,1.45,2.65,1.74,3.44,1.3,3.47.92,5.76,1.19,9.47.1,1.35.4,3.8,1.05,4.97.36.64,2.19,3.52,2.48,4.19,2.03,4.71-.17,6.3.53,10.26.03,2.47,4.22,14.55-10.25,15.08"/>
  <path class="st1" d="M20.84,72.52c-1.15-.2-.12-.98-.53-.15-.21.43-.19.85-.47,1.26-.67,1-1.98,1.31-3.03,1.76-.84.36-1.66.75-2.57.79-1.25.06-2.76-.29-3.9-.79-.92-.4-1.59-1.12-2.32-1.78-.73-.66-1.46-1.22-1.73-2.13-.74-2.46.69-4.68-.38-7.11-.47-1.07-1.37-2-1.21-3.22.23-1.79,1.22-3.19.91-5.04-.35-2.13.22-3.76,1.85-5.17,1.41-1.23,3.09-2.21,4.92-2.62,1.15-.26,2.35-.45,3.53-.52,1.33-.08,2.7-.05,3.79-.93,2.12-1.71,1.48-5.26,1.41-7.65-.08-2.39-.05-6.52,2.42-7.76l-1.18.32c-.3.02-.62-.91-.2-.1.25.48.52.95.75,1.44.48,1.01.83,2.08,1.06,3.19.52,2.46.24,5.04.52,7.53.25,2.22.68,4.2,1.86,6.12,1,1.63,2.18,3.23,2.43,5.18.27,2.1-.59,4.17-.43,6.29.07.9.23,1.97.41,3.13.04.24.07.47.11.71.05.34-.03-.36.03.24.06.61.12,1.21.14,1.82.02.61,0,1.16-.04,1.75-.05.66.04,0-.08.52-.08.35-.16.69-.26,1.03-.27.97-1.05,2.11-2,2.75-1.8,1.19-3.97,1.52-6.11,1.61-3.01.13-3.03,4.84,0,4.7,4.56-.2,9.64-1.55,11.88-5.95,1.56-3.06,1.44-6.44.96-9.74-.07-.49-.15-.97-.22-1.46-.04-.26.06.6,0-.08-.05-.55-.14-1.09-.15-1.64-.03-1.21.25-2.38.39-3.58.18-1.48.07-2.97-.34-4.41-.66-2.32-2.18-4.03-3.21-6.15-1.14-2.36-.82-5.5-.94-8.04-.15-3.05-.9-5.86-2.29-8.58-.68-1.32-1.41-2.26-2.85-2.78-1.69-.62-3.23.22-4.4,1.46-2.28,2.44-2.96,6.19-2.98,9.42,0,1.33.12,2.65.12,3.98,0,.19-.17,1.44-.09,1.52-.07-.06.77-.54.68-.63-.15-.14-1.37.06-1.6.08-5.19.44-11.17,2.48-13.71,7.47-.69,1.36-1.03,2.88-1.02,4.4,0,.63.31,1.45.27,2.01-.08.93-.68,1.98-.86,2.91-.36,1.8-.13,3.38.72,5.02.29.55.83,1.16.87,1.8.02.31-.33,1.25-.4,1.75-1.04,7.09,6.58,12.66,13.09,12.39,1.73-.07,3.11-.76,4.68-1.39,1.72-.7,3.21-1.38,4.36-2.9,1.82-2.4,2.67-7.87-1.4-8.59-1.25-.22-2.53.34-2.89,1.64-.31,1.14.38,2.67,1.64,2.89h0Z"/>
  <path class="st1" d="M10.25,56.43c1.73.08,3.45.17,5.16-.18.79-.16,1.57-.41,2.33-.66l.44-.15c.59-.05.63-.2.12-.47-.01.26,0,.53-.04.8-.29,1.62-2.21,2.11-3.63,2.46-1.62.4-3.15.25-4.77-.15-2.61-.66-3.73,3.38-1.11,4.04,4.77,1.21,12.82.3,13.63-5.78.18-1.34.15-2.69-.74-3.79-1.06-1.31-2.76-1.65-4.33-1.22-1.09.3-2.16.78-3.29.94-1.23.17-2.54.03-3.78-.03-2.7-.13-2.69,4.07,0,4.19h0Z"/>
  <path class="st1" d="M9.31,67.79c4.33,1.39,10.34.83,12.96-3.29,1.14-1.79,1.94-3.94.82-5.97-.48-.87-1.12-1.84-2.1-2.17-1.05-.35-2.18.1-3.12.54-2.44,1.15-.31,4.77,2.11,3.62.23-.11.63.05-.32-.31-1.06-.41-.54-.31-.42.04.03.1.4.88.25.31-.15-.56-.04.31-.07.46-.19.89-.99,1.93-1.8,2.37-2.12,1.16-4.96,1.07-7.2.35-2.57-.83-3.67,3.22-1.11,4.04h0Z"/>
  <path class="st1" d="M10.06,73.42c4.24,1.15,8.68.3,11.92-2.75,1.29-1.21,2.72-3.28,2.18-5.12-.66-2.23-2.96-3.28-5.11-2.97-1.13.16-1.73,1.58-1.46,2.58.32,1.21,1.46,1.62,2.58,1.46-.24,0-.25.04-.03.16.22.35.24.12.06-.7-.05,0-.61,1.02-.7,1.14-.57.72-1.41,1.3-2.22,1.73-1.87,1.01-4.09.98-6.09.44-2.61-.71-3.72,3.33-1.11,4.04h0Z"/>
  <path class="st3" d="M56.61,67.07c2.06,1.49,4.14,2.5,6.71,3.32,6.17,1.98,12.92,1.62,19.4,2.26,1.54,3.52,4.24,12.06,4.44,12.57-.6,1.71.16,2.41,1.02,4.18.86,1.77,2.47,3.16,4.62,3.58,2.15.42,4.34.03,6.39-.84,5.31-2.24,9.29-5.61,12.18-10.37.84-1.38,1.42-2.22,1.49-4.28.03-.89-2.85-8.97-5.1-16.88,4.37-.54,8.59-1.82,10.5-5.81.82-1.71.5-3.33.24-5.05-.25-1.72-.78-3.34-2.06-4.64-1.28-1.3-3.06-1.87-4.96-1.69-1.9.18-3.36,1.25-4.44,2.69,1.68-2.46,1.45-5.61.93-8.33-.93-4.86-1.93-9.24-4.87-13.32-1.68-2.33-3.52-4.16-6.16-5.75-11.11-6.67-22.67-7.66-35.19-3.94-3.75,1.12-4.45,3.17-7.12,5.77-2.81,7.37-6.9,14.59-7.54,22.44-.47,5.76.1,11.55,2.83,16.69,1.69,3.17,3.78,5.33,6.66,7.41h0Z"/>
  <path class="st1" d="M55.49,68.99c8.04,5.69,17.9,5,27.24,5.88-.64-.37-1.28-.73-1.92-1.1,1.59,3.69,2.76,8.08,4.21,12.04v-1.18c-.68,2.3.26,4.08,1.34,6.07.97,1.78,2.49,3.17,4.37,3.95,4.45,1.84,9.37-.1,13.24-2.43,3.7-2.22,6.8-5.3,9.1-8.94,1.05-1.67,1.86-3.3,2-5.3.08-1.15-.3-2.25-.63-3.33-1.48-4.89-3.12-9.72-4.52-14.63-.71.94-1.43,1.88-2.14,2.81,3.2-.42,6.47-1.07,9.12-3.03,1.38-1.02,2.55-2.33,3.3-3.88.94-1.96.88-3.9.58-5.99-.52-3.62-2.11-6.96-5.77-8.28s-7.28.02-9.52,2.89c1.16.9,2.32,1.8,3.49,2.69,2.49-3.94,1.52-8.64.58-12.91-.98-4.43-2.58-8.57-5.4-12.16-2.82-3.59-6.4-5.82-10.37-7.66-4.19-1.95-8.58-3.24-13.18-3.8-4.59-.56-9.15-.29-13.65.54-4.16.76-8.37,1.69-11.31,4.93-.55.61-1.08,1.25-1.64,1.86-.87.95-1.39,1.69-1.86,2.89-.88,2.24-1.87,4.44-2.8,6.66-1.89,4.48-3.64,9.03-4.27,13.88-.69,5.35-.39,11.11,1.55,16.19,1.82,4.74,4.8,8.38,8.87,11.36.98.71,2.47.16,3.04-.8.67-1.12.17-2.34-.8-3.04-6.66-4.87-8.86-12.63-8.49-20.61.2-4.31,1.41-8.38,2.97-12.38.69-1.76,1.44-3.5,2.19-5.24.42-.97.83-1.95,1.24-2.92.2-.48.4-.96.59-1.44.13-.32.26-.64.38-.96-.13.3-.05.26.24-.14,1.13-.96,1.88-2.32,3.03-3.27,1.4-1.18,3.28-1.54,5.01-1.97,3.82-.95,7.73-1.46,11.67-1.37,3.94.09,7.55.76,11.16,1.97,3.61,1.21,7.68,3.01,10.63,5.61,3.11,2.75,5.11,6.36,6.24,10.32.61,2.11,1.11,4.31,1.42,6.49.28,2,.24,4-.86,5.75-1.32,2.09,1.92,4.71,3.49,2.69,1.3-1.67,3.17-2.69,5.27-1.7,2.1.99,2.45,3.54,2.63,5.55.44,4.78-4.99,6.37-8.76,6.86-1.39.18-2.58,1.28-2.14,2.81,1.42,4.96,3.08,9.84,4.57,14.77.17.56.29,1.15.47,1.7.06.2-.06.34-.02-.26-.01.21.05.17-.03.56-.08.43-.16.85-.34,1.25-.89,2.01-2.42,3.91-3.94,5.48-1.64,1.7-3.52,3.09-5.59,4.22-2.22,1.21-4.77,2.36-7.36,1.9-.98-.17-1.87-.63-2.54-1.38-.59-.67-1.39-1.91-1.6-2.78-.17-.71.19-1.39,0-2.15-.12-.47-.31-.94-.46-1.4-1.28-3.9-2.53-7.82-4.16-11.59-.32-.74-1.2-1.03-1.92-1.1-8.55-.81-17.62-.06-24.99-5.27-2.34-1.65-4.56,2.2-2.24,3.84h0Z"/>
  <path class="st0" d="M83.54,0c11.47.08,23.77,4.52,31.33,13.45,2.06,2.44,3.69,5.21,4.93,8.16,2.12-1.35,4.44-2.39,6.86-3.03,6.65-1.76,14.01-.46,19.61,3.55,5.09,3.64,6.76,10.18,9.68,15.4,7.02,12.53,24.26,10.45,35.02,4.46,1.37-.76,2.54.71,1.98,1.98-1.38,3.15-3.08,6.12-5.11,8.89-.03.05-.06.09-.09.14h0s0,.01-.01.02c-4.85,6.45-11.27,11.9-18.99,14.54-12.35,4.22-27.4-.8-32.57-13.3-1.15-2.77-1.98-5.65-3.06-8.44-.94-2.44-2.1-5.06-4.25-6.68-1.87-1.41-4-2.24-6.25-2.74-.03.33-.07.66-.12,1-.45,3.03-1.54,5.94-2.94,8.65-.43.83-1.63,1.33-2.51,1.02-4.46-1.53-8.86-3.22-13.25-4.91-7.91-3.05-15.8-6.16-23.6-9.47-.8-.34-1.65-.64-2.42-1.07-1.03-.57-1.29-1.44-1.53-2.49-.38-1.68-.77-3.36-1.18-5.03,0-.02,0-.04-.01-.05-.5.55-.99,1.09-1.49,1.64-1.06,1.18-2.72,3.95-4.53,3.96-2.2,0-4.56-.58-6.72-.9-3.71-.54-7.42-1.14-11.06-2.03-1.15-.28-1.88-1.61-1.55-2.73,1.02-3.48,2.45-7.12,4.58-10.07,2.47-3.42,6.38-6.12,9.88-8.4.01,0,.02-.01.04-.02C70.01,1.83,76.69-.05,83.54,0Z"/>
  <path class="st1" d="M108.64,47.74c1.3-1.67,3.17-2.7,5.28-1.71,2.05.96,2.45,3.54,2.63,5.55.44,4.78-4.99,6.37-8.76,6.86-1.32.17-2.66,1.29-2.14,2.81.75,2.2,1.53,4.38,2.17,6.61.79,2.74,5.08,1.58,4.29-1.18-.64-2.23-1.42-4.41-2.17-6.61l-2.14,2.81c3.2-.42,6.47-1.07,9.13-3.03,1.38-1.02,2.55-2.33,3.3-3.88.94-1.96.88-3.9.58-6-.52-3.62-2.11-6.96-5.77-8.28-3.49-1.26-7.28.02-9.52,2.89-.74.96-.91,2.21,0,3.15.76.78,2.41.95,3.14,0h0Z"/>
  <path class="st1" d="M85.47,41.57c.16.12.37.48.43.62.08.2.14.42.18.63,0,.02.08.38.02.26-.02-.81.75-.85,2.31-.11l-.07-.33c-.01-.24-.04-.47-.04-.71,0-.58.15-1.1.32-1.65.84-2.64-3.31-3.77-4.14-1.14-.51,1.59-.65,3.35-.21,4.98.55,1.98,2.65,3.12,4.52,2,1.57-.94,1.78-2.82,1.43-4.44-.34-1.62-1.29-2.87-2.59-3.82-.93-.69-2.4-.15-2.94.77-.64,1.09-.17,2.25.77,2.94Z"/>
  <path class="st1" d="M68.8,38.23c.15.12.37.49.43.63.08.2.14.43.18.63,0,.01.07.39.02.26-.03-.81.74-.85,2.31-.12l-.07-.33c-.01-.24-.04-.47-.04-.72,0-.57.16-1.11.33-1.65.36-1.1-.42-2.35-1.5-2.64-1.16-.32-2.29.39-2.64,1.5-.51,1.59-.67,3.35-.22,4.98.54,1.98,2.64,3.12,4.52,2.01,1.57-.94,1.78-2.81,1.44-4.44-.34-1.62-1.29-2.87-2.58-3.84-.93-.7-2.4-.15-2.94.77-.64,1.1-.16,2.25.77,2.94h0Z"/>
  <path class="st2" d="M74.57,57.51c.19.84.38,1.68.57,2.52.08.34.16.7.38.99s.6.49.96.4c.23-.06.41-.24.58-.4,2.24-2.27,4.01-4.95,5.2-7.85-2.95-.55-5.94-.95-8.93-1.2.42,1.85.83,3.7,1.25,5.55h0Z"/>
  <path class="st1" d="M72.73,58.01c.31,1.4.42,3.24,1.43,4.35,1.14,1.24,2.89,1.2,4.1.11,2.46-2.22,4.35-5.33,5.63-8.35.43-1.02.21-2.55-1.14-2.8-3.13-.58-6.27-1-9.44-1.27-1.3-.11-2.09,1.3-1.84,2.41.42,1.85.83,3.7,1.25,5.55.54,2.39,4.21,1.38,3.67-1.01-.42-1.85-.83-3.7-1.25-5.55l-1.84,2.41c2.83.24,5.63.62,8.43,1.13l-1.14-2.8c-.81,1.91-1.81,3.74-3.08,5.38-.31.4-.63.78-.97,1.16-.51.57-1.35.84-.18,1.02,1.04.16.6-.19.42-1-.13-.59-.26-1.18-.4-1.76-.54-2.39-4.21-1.38-3.67,1.01h0Z"/>
  <path class="st1" d="M82.82,32c1.08.46,2.13.74,3.31.82.87.06,1.7-.8,1.66-1.66-.04-.95-.73-1.6-1.66-1.66,0,0-.52-.05-.29-.01-.18-.03-.36-.06-.54-.1-.17-.04-.35-.09-.53-.15-.04-.01-.48-.18-.29-.09-.79-.34-1.82-.26-2.27.6-.38.71-.26,1.91.6,2.27h0Z"/>
  <path class="st1" d="M68.07,28.11c.94.59,1.99,1.03,3.07,1.3.84.21,1.84-.27,2.04-1.16.2-.89-.26-1.82-1.16-2.04-.9-.23-1.46-.45-2.27-.97-.74-.46-1.86-.18-2.27.6-.43.82-.19,1.78.6,2.27h0Z"/>
</svg>